%TF.GenerationSoftware,KiCad,Pcbnew,8.0.8*%
%TF.CreationDate,2025-02-25T00:33:20+03:00*%
%TF.ProjectId,SMHome_UniversalRound_ESP32_C3_Mini_v3,534d486f-6d65-45f5-956e-697665727361,12*%
%TF.SameCoordinates,Original*%
%TF.FileFunction,Paste,Bot*%
%TF.FilePolarity,Positive*%
%FSLAX46Y46*%
G04 Gerber Fmt 4.6, Leading zero omitted, Abs format (unit mm)*
G04 Created by KiCad (PCBNEW 8.0.8) date 2025-02-25 00:33:20*
%MOMM*%
%LPD*%
G01*
G04 APERTURE LIST*
G04 Aperture macros list*
%AMRoundRect*
0 Rectangle with rounded corners*
0 $1 Rounding radius*
0 $2 $3 $4 $5 $6 $7 $8 $9 X,Y pos of 4 corners*
0 Add a 4 corners polygon primitive as box body*
4,1,4,$2,$3,$4,$5,$6,$7,$8,$9,$2,$3,0*
0 Add four circle primitives for the rounded corners*
1,1,$1+$1,$2,$3*
1,1,$1+$1,$4,$5*
1,1,$1+$1,$6,$7*
1,1,$1+$1,$8,$9*
0 Add four rect primitives between the rounded corners*
20,1,$1+$1,$2,$3,$4,$5,0*
20,1,$1+$1,$4,$5,$6,$7,0*
20,1,$1+$1,$6,$7,$8,$9,0*
20,1,$1+$1,$8,$9,$2,$3,0*%
G04 Aperture macros list end*
%ADD10RoundRect,0.250000X0.250000X-0.250000X0.250000X0.250000X-0.250000X0.250000X-0.250000X-0.250000X0*%
%ADD11RoundRect,0.225000X0.375000X-0.225000X0.375000X0.225000X-0.375000X0.225000X-0.375000X-0.225000X0*%
%ADD12RoundRect,0.250000X-0.450000X0.350000X-0.450000X-0.350000X0.450000X-0.350000X0.450000X0.350000X0*%
%ADD13RoundRect,0.250000X-0.350000X-0.450000X0.350000X-0.450000X0.350000X0.450000X-0.350000X0.450000X0*%
%ADD14RoundRect,0.250000X-1.000000X-0.650000X1.000000X-0.650000X1.000000X0.650000X-1.000000X0.650000X0*%
%ADD15RoundRect,0.125000X-0.375000X-0.125000X0.375000X-0.125000X0.375000X0.125000X-0.375000X0.125000X0*%
%ADD16RoundRect,0.250000X-0.250000X0.475000X-0.250000X-0.475000X0.250000X-0.475000X0.250000X0.475000X0*%
%ADD17RoundRect,0.175000X-0.325000X-0.175000X0.325000X-0.175000X0.325000X0.175000X-0.325000X0.175000X0*%
%ADD18RoundRect,0.250000X0.250000X0.475000X-0.250000X0.475000X-0.250000X-0.475000X0.250000X-0.475000X0*%
%ADD19RoundRect,0.250000X1.500000X-0.250000X1.500000X0.250000X-1.500000X0.250000X-1.500000X-0.250000X0*%
%ADD20RoundRect,0.250001X1.449999X-0.499999X1.449999X0.499999X-1.449999X0.499999X-1.449999X-0.499999X0*%
%ADD21R,1.700000X1.100000*%
%ADD22RoundRect,0.250000X0.400000X0.625000X-0.400000X0.625000X-0.400000X-0.625000X0.400000X-0.625000X0*%
%ADD23RoundRect,0.250000X-0.337500X-0.475000X0.337500X-0.475000X0.337500X0.475000X-0.337500X0.475000X0*%
%ADD24RoundRect,0.250000X0.475000X-0.337500X0.475000X0.337500X-0.475000X0.337500X-0.475000X-0.337500X0*%
%ADD25RoundRect,0.237500X0.250000X0.237500X-0.250000X0.237500X-0.250000X-0.237500X0.250000X-0.237500X0*%
%ADD26RoundRect,0.237500X-0.250000X-0.237500X0.250000X-0.237500X0.250000X0.237500X-0.250000X0.237500X0*%
%ADD27RoundRect,0.250000X-0.250000X0.250000X-0.250000X-0.250000X0.250000X-0.250000X0.250000X0.250000X0*%
%ADD28RoundRect,0.250000X-0.475000X0.337500X-0.475000X-0.337500X0.475000X-0.337500X0.475000X0.337500X0*%
%ADD29RoundRect,0.150000X0.512500X0.150000X-0.512500X0.150000X-0.512500X-0.150000X0.512500X-0.150000X0*%
%ADD30RoundRect,0.237500X0.237500X-0.250000X0.237500X0.250000X-0.237500X0.250000X-0.237500X-0.250000X0*%
%ADD31RoundRect,0.250000X0.350000X0.450000X-0.350000X0.450000X-0.350000X-0.450000X0.350000X-0.450000X0*%
%ADD32RoundRect,0.250000X0.300000X-0.300000X0.300000X0.300000X-0.300000X0.300000X-0.300000X-0.300000X0*%
%ADD33RoundRect,0.250000X-0.300000X0.300000X-0.300000X-0.300000X0.300000X-0.300000X0.300000X0.300000X0*%
%ADD34RoundRect,0.250000X-0.250000X-0.475000X0.250000X-0.475000X0.250000X0.475000X-0.250000X0.475000X0*%
%ADD35RoundRect,0.225000X-0.225000X-0.375000X0.225000X-0.375000X0.225000X0.375000X-0.225000X0.375000X0*%
%ADD36RoundRect,0.150000X-0.512500X-0.150000X0.512500X-0.150000X0.512500X0.150000X-0.512500X0.150000X0*%
%ADD37RoundRect,0.150000X-0.150000X0.587500X-0.150000X-0.587500X0.150000X-0.587500X0.150000X0.587500X0*%
G04 APERTURE END LIST*
D10*
%TO.C,D1*%
X4699000Y-7853999D03*
X4699000Y-5354001D03*
%TD*%
D11*
%TO.C,D2*%
X-10972800Y1093200D03*
X-10972800Y4393200D03*
%TD*%
D12*
%TO.C,R7*%
X-3657600Y-17973800D03*
X-3657600Y-19973800D03*
%TD*%
D13*
%TO.C,R4*%
X-14208000Y12598400D03*
X-12208000Y12598400D03*
%TD*%
D14*
%TO.C,D7*%
X17786599Y-5689600D03*
X21786601Y-5689600D03*
%TD*%
D15*
%TO.C,U2*%
X16745200Y546601D03*
X16745200Y1446600D03*
X16745200Y3246600D03*
D16*
X20745200Y2706600D03*
D17*
X20745200Y646600D03*
%TD*%
D18*
%TO.C,C12*%
X-3469601Y-5029200D03*
X-5369599Y-5029200D03*
%TD*%
D19*
%TO.C,J3*%
X-15234800Y-8177800D03*
X-15234800Y-6177800D03*
X-15234800Y-4177800D03*
X-15234800Y-2177800D03*
X-15234800Y-177800D03*
X-15234800Y1822200D03*
X-15234800Y3822200D03*
X-15234800Y5822200D03*
X-15234800Y7822200D03*
D20*
X-20984800Y-10527800D03*
X-20984800Y10172200D03*
%TD*%
D21*
%TO.C,DB1*%
X-5129600Y9169399D03*
X-5129600Y11709401D03*
X1370400Y11709401D03*
X1370400Y9169399D03*
%TD*%
D22*
%TO.C,R14*%
X20116800Y-2463800D03*
X17016798Y-2463800D03*
%TD*%
D23*
%TO.C,C6*%
X-3983900Y-2336800D03*
X-1908900Y-2336800D03*
%TD*%
%TO.C,C8*%
X-4237900Y4064000D03*
X-2162900Y4064000D03*
%TD*%
D24*
%TO.C,C9*%
X8585200Y-656500D03*
X8585200Y1418500D03*
%TD*%
D25*
%TO.C,R12*%
X-2186300Y-11430000D03*
X-4011300Y-11430000D03*
%TD*%
D23*
%TO.C,C4*%
X-46900Y-3200400D03*
X2028100Y-3200400D03*
%TD*%
D10*
%TO.C,D11*%
X-1574800Y-17759999D03*
X-1574800Y-15260001D03*
%TD*%
D26*
%TO.C,R1*%
X840100Y-8128000D03*
X2665100Y-8128000D03*
%TD*%
D27*
%TO.C,D12*%
X-152400Y-9926001D03*
X-152400Y-12425999D03*
%TD*%
D28*
%TO.C,C3*%
X10820400Y1418500D03*
X10820400Y-656500D03*
%TD*%
D29*
%TO.C,U4*%
X-8082700Y12365899D03*
X-8082700Y11415900D03*
X-8082700Y10465901D03*
X-10357700Y10465901D03*
X-10357700Y12365899D03*
%TD*%
D27*
%TO.C,D5*%
X-12547600Y-17546001D03*
X-12547600Y-20045999D03*
%TD*%
D30*
%TO.C,R11*%
X-11125200Y-6652900D03*
X-11125200Y-4827900D03*
%TD*%
D31*
%TO.C,R3*%
X-8245600Y8178800D03*
X-10245600Y8178800D03*
%TD*%
D13*
%TO.C,R19*%
X12411200Y-4038600D03*
X14411200Y-4038600D03*
%TD*%
D32*
%TO.C,D6*%
X17729200Y9293401D03*
X17729200Y12093399D03*
%TD*%
D33*
%TO.C,D8*%
X13817600Y1577799D03*
X13817600Y-1222199D03*
%TD*%
D25*
%TO.C,R21*%
X-7420600Y-6959600D03*
X-9245600Y-6959600D03*
%TD*%
D12*
%TO.C,R6*%
X-9982200Y-17846800D03*
X-9982200Y-19846800D03*
%TD*%
D34*
%TO.C,C1*%
X802601Y-6324600D03*
X2702599Y-6324600D03*
%TD*%
D35*
%TO.C,D4*%
X-10286000Y-1574800D03*
X-6986000Y-1574800D03*
%TD*%
D36*
%TO.C,U3*%
X-3657600Y-223598D03*
X-3657600Y726401D03*
X-3657600Y1676400D03*
X-1382600Y1676400D03*
X-1382600Y-223598D03*
%TD*%
D37*
%TO.C,Q1*%
X-8316000Y4087100D03*
X-6416000Y4087100D03*
X-7366000Y2212099D03*
%TD*%
D10*
%TO.C,D9*%
X-5689600Y-20325399D03*
X-5689600Y-17825401D03*
%TD*%
D34*
%TO.C,C11*%
X-9333899Y-4978400D03*
X-7433901Y-4978400D03*
%TD*%
D25*
%TO.C,R20*%
X-3481700Y-6934200D03*
X-5306700Y-6934200D03*
%TD*%
%TO.C,R2*%
X4239900Y-12674600D03*
X2414900Y-12674600D03*
%TD*%
M02*
