%TF.GenerationSoftware,KiCad,Pcbnew,8.0.8*%
%TF.CreationDate,2025-02-25T00:33:20+03:00*%
%TF.ProjectId,SMHome_UniversalRound_ESP32_C3_Mini_v3,534d486f-6d65-45f5-956e-697665727361,12*%
%TF.SameCoordinates,Original*%
%TF.FileFunction,Legend,Bot*%
%TF.FilePolarity,Positive*%
%FSLAX46Y46*%
G04 Gerber Fmt 4.6, Leading zero omitted, Abs format (unit mm)*
G04 Created by KiCad (PCBNEW 8.0.8) date 2025-02-25 00:33:20*
%MOMM*%
%LPD*%
G01*
G04 APERTURE LIST*
G04 Aperture macros list*
%AMRoundRect*
0 Rectangle with rounded corners*
0 $1 Rounding radius*
0 $2 $3 $4 $5 $6 $7 $8 $9 X,Y pos of 4 corners*
0 Add a 4 corners polygon primitive as box body*
4,1,4,$2,$3,$4,$5,$6,$7,$8,$9,$2,$3,0*
0 Add four circle primitives for the rounded corners*
1,1,$1+$1,$2,$3*
1,1,$1+$1,$4,$5*
1,1,$1+$1,$6,$7*
1,1,$1+$1,$8,$9*
0 Add four rect primitives between the rounded corners*
20,1,$1+$1,$2,$3,$4,$5,0*
20,1,$1+$1,$4,$5,$6,$7,0*
20,1,$1+$1,$6,$7,$8,$9,0*
20,1,$1+$1,$8,$9,$2,$3,0*%
%AMFreePoly0*
4,1,6,1.000000,0.000000,0.500000,-0.750000,-0.500000,-0.750000,-0.500000,0.750000,0.500000,0.750000,1.000000,0.000000,1.000000,0.000000,$1*%
%AMFreePoly1*
4,1,6,0.500000,-0.750000,-0.650000,-0.750000,-0.150000,0.000000,-0.650000,0.750000,0.500000,0.750000,0.500000,-0.750000,0.500000,-0.750000,$1*%
G04 Aperture macros list end*
%ADD10C,0.100000*%
%ADD11C,0.150000*%
%ADD12C,0.200000*%
%ADD13C,0.120000*%
%ADD14C,0.101600*%
%ADD15R,1.700000X1.700000*%
%ADD16O,1.700000X1.700000*%
%ADD17C,2.400000*%
%ADD18O,2.400000X2.400000*%
%ADD19O,1.100000X1.700000*%
%ADD20C,2.200000*%
%ADD21R,1.600000X1.600000*%
%ADD22C,1.600000*%
%ADD23C,2.600000*%
%ADD24C,2.500000*%
%ADD25R,1.650000X1.650000*%
%ADD26C,1.800000*%
%ADD27RoundRect,0.250000X0.250000X-0.250000X0.250000X0.250000X-0.250000X0.250000X-0.250000X-0.250000X0*%
%ADD28RoundRect,0.225000X0.375000X-0.225000X0.375000X0.225000X-0.375000X0.225000X-0.375000X-0.225000X0*%
%ADD29RoundRect,0.250000X-0.450000X0.350000X-0.450000X-0.350000X0.450000X-0.350000X0.450000X0.350000X0*%
%ADD30RoundRect,0.250000X-0.350000X-0.450000X0.350000X-0.450000X0.350000X0.450000X-0.350000X0.450000X0*%
%ADD31RoundRect,0.250000X-1.000000X-0.650000X1.000000X-0.650000X1.000000X0.650000X-1.000000X0.650000X0*%
%ADD32FreePoly0,180.000000*%
%ADD33FreePoly1,180.000000*%
%ADD34RoundRect,0.125000X-0.375000X-0.125000X0.375000X-0.125000X0.375000X0.125000X-0.375000X0.125000X0*%
%ADD35RoundRect,0.250000X-0.250000X0.475000X-0.250000X-0.475000X0.250000X-0.475000X0.250000X0.475000X0*%
%ADD36RoundRect,0.175000X-0.325000X-0.175000X0.325000X-0.175000X0.325000X0.175000X-0.325000X0.175000X0*%
%ADD37RoundRect,0.250000X0.250000X0.475000X-0.250000X0.475000X-0.250000X-0.475000X0.250000X-0.475000X0*%
%ADD38RoundRect,0.250000X1.500000X-0.250000X1.500000X0.250000X-1.500000X0.250000X-1.500000X-0.250000X0*%
%ADD39RoundRect,0.250001X1.449999X-0.499999X1.449999X0.499999X-1.449999X0.499999X-1.449999X-0.499999X0*%
%ADD40RoundRect,0.101600X0.850000X-0.550000X0.850000X0.550000X-0.850000X0.550000X-0.850000X-0.550000X0*%
%ADD41RoundRect,0.101600X-0.850000X0.550000X-0.850000X-0.550000X0.850000X-0.550000X0.850000X0.550000X0*%
%ADD42FreePoly0,0.000000*%
%ADD43FreePoly1,0.000000*%
%ADD44RoundRect,0.250000X0.400000X0.625000X-0.400000X0.625000X-0.400000X-0.625000X0.400000X-0.625000X0*%
%ADD45RoundRect,0.250000X-0.337500X-0.475000X0.337500X-0.475000X0.337500X0.475000X-0.337500X0.475000X0*%
%ADD46RoundRect,0.250000X0.475000X-0.337500X0.475000X0.337500X-0.475000X0.337500X-0.475000X-0.337500X0*%
%ADD47RoundRect,0.237500X0.250000X0.237500X-0.250000X0.237500X-0.250000X-0.237500X0.250000X-0.237500X0*%
%ADD48RoundRect,0.250000X-0.625000X0.350000X-0.625000X-0.350000X0.625000X-0.350000X0.625000X0.350000X0*%
%ADD49O,1.750000X1.200000*%
%ADD50RoundRect,0.237500X-0.250000X-0.237500X0.250000X-0.237500X0.250000X0.237500X-0.250000X0.237500X0*%
%ADD51RoundRect,0.250000X-0.250000X0.250000X-0.250000X-0.250000X0.250000X-0.250000X0.250000X0.250000X0*%
%ADD52RoundRect,0.250000X-0.475000X0.337500X-0.475000X-0.337500X0.475000X-0.337500X0.475000X0.337500X0*%
%ADD53RoundRect,0.150000X0.512500X0.150000X-0.512500X0.150000X-0.512500X-0.150000X0.512500X-0.150000X0*%
%ADD54RoundRect,0.237500X0.237500X-0.250000X0.237500X0.250000X-0.237500X0.250000X-0.237500X-0.250000X0*%
%ADD55RoundRect,0.250000X0.350000X0.450000X-0.350000X0.450000X-0.350000X-0.450000X0.350000X-0.450000X0*%
%ADD56RoundRect,0.250000X0.300000X-0.300000X0.300000X0.300000X-0.300000X0.300000X-0.300000X-0.300000X0*%
%ADD57RoundRect,0.250000X-0.300000X0.300000X-0.300000X-0.300000X0.300000X-0.300000X0.300000X0.300000X0*%
%ADD58RoundRect,0.250000X-0.250000X-0.475000X0.250000X-0.475000X0.250000X0.475000X-0.250000X0.475000X0*%
%ADD59RoundRect,0.225000X-0.225000X-0.375000X0.225000X-0.375000X0.225000X0.375000X-0.225000X0.375000X0*%
%ADD60RoundRect,0.150000X-0.512500X-0.150000X0.512500X-0.150000X0.512500X0.150000X-0.512500X0.150000X0*%
%ADD61RoundRect,0.150000X-0.150000X0.587500X-0.150000X-0.587500X0.150000X-0.587500X0.150000X0.587500X0*%
%ADD62C,0.800000*%
%ADD63C,1.500000*%
G04 APERTURE END LIST*
D10*
X-12903200Y-3657600D02*
X-11803200Y-3657600D01*
X-11403200Y-3657600D02*
X-10303200Y-3657600D01*
X-9903200Y-3657600D02*
X-9321800Y-3657600D01*
X-12293600Y-8636000D02*
X-13106400Y-8229600D01*
X-12293600Y-7670800D01*
X-12293600Y-8636000D01*
G36*
X-12293600Y-8636000D02*
G01*
X-13106400Y-8229600D01*
X-12293600Y-7670800D01*
X-12293600Y-8636000D01*
G37*
X-12954000Y13411200D02*
X-12954000Y13208000D01*
X-12960350Y-3556000D02*
X-12956996Y-2456005D01*
X-12955777Y-2056007D02*
X-12952423Y-956012D01*
X-12951204Y-556014D02*
X-12947850Y543981D01*
X-12946631Y943979D02*
X-12943277Y2043974D01*
X-12942057Y2443972D02*
X-12938704Y3543967D01*
X-12937484Y3943965D02*
X-12934131Y5043960D01*
X-12932911Y5443958D02*
X-12929557Y6543953D01*
X-12928338Y6943951D02*
X-12924984Y8043946D01*
X-12923765Y8443944D02*
X-12920411Y9543939D01*
X-12919192Y9943937D02*
X-12915900Y11023600D01*
X-1409700Y-3670300D02*
X-309706Y-3673942D01*
X90292Y-3675267D02*
X1190286Y-3678909D01*
X1590284Y-3680234D02*
X2425699Y-3683000D01*
X-12547600Y5435600D02*
X-11447600Y5435600D01*
X-11047600Y5435600D02*
X-9947600Y5435600D01*
X-9547600Y5435600D02*
X-9398000Y5435600D01*
X-9398000Y5435600D02*
X-9398000Y4335600D01*
X-9398000Y3935600D02*
X-9398000Y2835600D01*
X-9398000Y2435600D02*
X-9398000Y1335600D01*
X-9398000Y935600D02*
X-9398000Y-164400D01*
X-9398000Y-228600D02*
X-10498000Y-228600D01*
X-10898000Y-228600D02*
X-11998000Y-228600D01*
X-12398000Y-228600D02*
X-12547600Y-228600D01*
X-12547600Y-228600D02*
X-12547600Y871400D01*
X-12547600Y1271400D02*
X-12547600Y2371400D01*
X-12547600Y2771400D02*
X-12547600Y3871400D01*
X-12547600Y4271400D02*
X-12547600Y5371400D01*
X-12915900Y13436600D02*
X-11815900Y13436600D01*
X-11415900Y13436600D02*
X-10315900Y13436600D01*
X-9915900Y13436600D02*
X-8815900Y13436600D01*
X-8415900Y13436600D02*
X-7315900Y13436600D01*
X-6870700Y-3670300D02*
X-5770706Y-3673942D01*
X-5370708Y-3675267D02*
X-4270714Y-3678909D01*
X-3870716Y-3680234D02*
X-3035301Y-3683000D01*
X-7302500Y6934200D02*
X-7302500Y8034200D01*
X-7302500Y8434200D02*
X-7302500Y9534200D01*
X-7302500Y9934200D02*
X-7302500Y11034200D01*
X-7302500Y11434200D02*
X-7302500Y12534200D01*
X-7302500Y12934200D02*
X-7302500Y13436600D01*
X2463800Y-3683000D02*
X2462276Y-2583001D01*
X2461722Y-2183001D02*
X2460199Y-1083002D01*
X2459645Y-683003D02*
X2458121Y416996D01*
X2457567Y816996D02*
X2456044Y1916995D01*
X2455490Y2316994D02*
X2453966Y3416993D01*
X2453412Y3816993D02*
X2451889Y4916992D01*
X2451335Y5316991D02*
X2451101Y5486400D01*
X-12928600Y6934200D02*
X-11828600Y6934200D01*
X-11428600Y6934200D02*
X-10328600Y6934200D01*
X-9928600Y6934200D02*
X-8828600Y6934200D01*
X-8428600Y6934200D02*
X-7328600Y6934200D01*
X-6928600Y6934200D02*
X-5828600Y6934200D01*
X-5428600Y6934200D02*
X-4328600Y6934200D01*
X-3928600Y6934200D02*
X-2828600Y6934200D01*
X-2428600Y6934200D02*
X-1328600Y6934200D01*
X-928600Y6934200D02*
X171400Y6934200D01*
X571400Y6934200D02*
X1473200Y6934200D01*
D11*
X-7261465Y14774115D02*
X-7299561Y14812210D01*
X-7299561Y14812210D02*
X-7375751Y14850305D01*
X-7375751Y14850305D02*
X-7566227Y14850305D01*
X-7566227Y14850305D02*
X-7642418Y14812210D01*
X-7642418Y14812210D02*
X-7680513Y14774115D01*
X-7680513Y14774115D02*
X-7718608Y14697924D01*
X-7718608Y14697924D02*
X-7718608Y14621734D01*
X-7718608Y14621734D02*
X-7680513Y14507448D01*
X-7680513Y14507448D02*
X-7223370Y14050305D01*
X-7223370Y14050305D02*
X-7718608Y14050305D01*
X-8061466Y14583639D02*
X-8061466Y14050305D01*
X-8061466Y14507448D02*
X-8099561Y14545543D01*
X-8099561Y14545543D02*
X-8175751Y14583639D01*
X-8175751Y14583639D02*
X-8290037Y14583639D01*
X-8290037Y14583639D02*
X-8366228Y14545543D01*
X-8366228Y14545543D02*
X-8404323Y14469353D01*
X-8404323Y14469353D02*
X-8404323Y14050305D01*
X-9128133Y14050305D02*
X-9128133Y14850305D01*
X-9128133Y14088400D02*
X-9051942Y14050305D01*
X-9051942Y14050305D02*
X-8899561Y14050305D01*
X-8899561Y14050305D02*
X-8823371Y14088400D01*
X-8823371Y14088400D02*
X-8785276Y14126496D01*
X-8785276Y14126496D02*
X-8747180Y14202686D01*
X-8747180Y14202686D02*
X-8747180Y14431258D01*
X-8747180Y14431258D02*
X-8785276Y14507448D01*
X-8785276Y14507448D02*
X-8823371Y14545543D01*
X-8823371Y14545543D02*
X-8899561Y14583639D01*
X-8899561Y14583639D02*
X-9051942Y14583639D01*
X-9051942Y14583639D02*
X-9128133Y14545543D01*
X-10042419Y14850305D02*
X-10537657Y14850305D01*
X-10537657Y14850305D02*
X-10270991Y14545543D01*
X-10270991Y14545543D02*
X-10385276Y14545543D01*
X-10385276Y14545543D02*
X-10461467Y14507448D01*
X-10461467Y14507448D02*
X-10499562Y14469353D01*
X-10499562Y14469353D02*
X-10537657Y14393162D01*
X-10537657Y14393162D02*
X-10537657Y14202686D01*
X-10537657Y14202686D02*
X-10499562Y14126496D01*
X-10499562Y14126496D02*
X-10461467Y14088400D01*
X-10461467Y14088400D02*
X-10385276Y14050305D01*
X-10385276Y14050305D02*
X-10156705Y14050305D01*
X-10156705Y14050305D02*
X-10080514Y14088400D01*
X-10080514Y14088400D02*
X-10042419Y14126496D01*
X-10804324Y14583639D02*
X-10994800Y14050305D01*
X-10994800Y14050305D02*
X-11185277Y14583639D01*
X-11413848Y14850305D02*
X-11909086Y14850305D01*
X-11909086Y14850305D02*
X-11642420Y14545543D01*
X-11642420Y14545543D02*
X-11756705Y14545543D01*
X-11756705Y14545543D02*
X-11832896Y14507448D01*
X-11832896Y14507448D02*
X-11870991Y14469353D01*
X-11870991Y14469353D02*
X-11909086Y14393162D01*
X-11909086Y14393162D02*
X-11909086Y14202686D01*
X-11909086Y14202686D02*
X-11870991Y14126496D01*
X-11870991Y14126496D02*
X-11832896Y14088400D01*
X-11832896Y14088400D02*
X-11756705Y14050305D01*
X-11756705Y14050305D02*
X-11528134Y14050305D01*
X-11528134Y14050305D02*
X-11451943Y14088400D01*
X-11451943Y14088400D02*
X-11413848Y14126496D01*
X-12861468Y14583639D02*
X-12861468Y13783639D01*
X-12861468Y14545543D02*
X-12937658Y14583639D01*
X-12937658Y14583639D02*
X-13090039Y14583639D01*
X-13090039Y14583639D02*
X-13166230Y14545543D01*
X-13166230Y14545543D02*
X-13204325Y14507448D01*
X-13204325Y14507448D02*
X-13242420Y14431258D01*
X-13242420Y14431258D02*
X-13242420Y14202686D01*
X-13242420Y14202686D02*
X-13204325Y14126496D01*
X-13204325Y14126496D02*
X-13166230Y14088400D01*
X-13166230Y14088400D02*
X-13090039Y14050305D01*
X-13090039Y14050305D02*
X-12937658Y14050305D01*
X-12937658Y14050305D02*
X-12861468Y14088400D01*
X-13509087Y14583639D02*
X-13661468Y14050305D01*
X-13661468Y14050305D02*
X-13813849Y14431258D01*
X-13813849Y14431258D02*
X-13966230Y14050305D01*
X-13966230Y14050305D02*
X-14118611Y14583639D01*
X-14423373Y14050305D02*
X-14423373Y14583639D01*
X-14423373Y14431258D02*
X-14461468Y14507448D01*
X-14461468Y14507448D02*
X-14499563Y14545543D01*
X-14499563Y14545543D02*
X-14575754Y14583639D01*
X-14575754Y14583639D02*
X-14651944Y14583639D01*
D12*
X12432021Y15134591D02*
X12098688Y15134591D01*
X11955831Y14610781D02*
X12432021Y14610781D01*
X12432021Y14610781D02*
X12432021Y15610781D01*
X12432021Y15610781D02*
X11955831Y15610781D01*
X11574878Y14658400D02*
X11432021Y14610781D01*
X11432021Y14610781D02*
X11193926Y14610781D01*
X11193926Y14610781D02*
X11098688Y14658400D01*
X11098688Y14658400D02*
X11051069Y14706020D01*
X11051069Y14706020D02*
X11003450Y14801258D01*
X11003450Y14801258D02*
X11003450Y14896496D01*
X11003450Y14896496D02*
X11051069Y14991734D01*
X11051069Y14991734D02*
X11098688Y15039353D01*
X11098688Y15039353D02*
X11193926Y15086972D01*
X11193926Y15086972D02*
X11384402Y15134591D01*
X11384402Y15134591D02*
X11479640Y15182210D01*
X11479640Y15182210D02*
X11527259Y15229829D01*
X11527259Y15229829D02*
X11574878Y15325067D01*
X11574878Y15325067D02*
X11574878Y15420305D01*
X11574878Y15420305D02*
X11527259Y15515543D01*
X11527259Y15515543D02*
X11479640Y15563162D01*
X11479640Y15563162D02*
X11384402Y15610781D01*
X11384402Y15610781D02*
X11146307Y15610781D01*
X11146307Y15610781D02*
X11003450Y15563162D01*
X10574878Y14610781D02*
X10574878Y15610781D01*
X10574878Y15610781D02*
X10193926Y15610781D01*
X10193926Y15610781D02*
X10098688Y15563162D01*
X10098688Y15563162D02*
X10051069Y15515543D01*
X10051069Y15515543D02*
X10003450Y15420305D01*
X10003450Y15420305D02*
X10003450Y15277448D01*
X10003450Y15277448D02*
X10051069Y15182210D01*
X10051069Y15182210D02*
X10098688Y15134591D01*
X10098688Y15134591D02*
X10193926Y15086972D01*
X10193926Y15086972D02*
X10574878Y15086972D01*
X9670116Y15610781D02*
X9051069Y15610781D01*
X9051069Y15610781D02*
X9384402Y15229829D01*
X9384402Y15229829D02*
X9241545Y15229829D01*
X9241545Y15229829D02*
X9146307Y15182210D01*
X9146307Y15182210D02*
X9098688Y15134591D01*
X9098688Y15134591D02*
X9051069Y15039353D01*
X9051069Y15039353D02*
X9051069Y14801258D01*
X9051069Y14801258D02*
X9098688Y14706020D01*
X9098688Y14706020D02*
X9146307Y14658400D01*
X9146307Y14658400D02*
X9241545Y14610781D01*
X9241545Y14610781D02*
X9527259Y14610781D01*
X9527259Y14610781D02*
X9622497Y14658400D01*
X9622497Y14658400D02*
X9670116Y14706020D01*
X8670116Y15515543D02*
X8622497Y15563162D01*
X8622497Y15563162D02*
X8527259Y15610781D01*
X8527259Y15610781D02*
X8289164Y15610781D01*
X8289164Y15610781D02*
X8193926Y15563162D01*
X8193926Y15563162D02*
X8146307Y15515543D01*
X8146307Y15515543D02*
X8098688Y15420305D01*
X8098688Y15420305D02*
X8098688Y15325067D01*
X8098688Y15325067D02*
X8146307Y15182210D01*
X8146307Y15182210D02*
X8717735Y14610781D01*
X8717735Y14610781D02*
X8098688Y14610781D01*
X7670116Y14991734D02*
X6908212Y14991734D01*
X6479640Y14658400D02*
X6336783Y14610781D01*
X6336783Y14610781D02*
X6098688Y14610781D01*
X6098688Y14610781D02*
X6003450Y14658400D01*
X6003450Y14658400D02*
X5955831Y14706020D01*
X5955831Y14706020D02*
X5908212Y14801258D01*
X5908212Y14801258D02*
X5908212Y14896496D01*
X5908212Y14896496D02*
X5955831Y14991734D01*
X5955831Y14991734D02*
X6003450Y15039353D01*
X6003450Y15039353D02*
X6098688Y15086972D01*
X6098688Y15086972D02*
X6289164Y15134591D01*
X6289164Y15134591D02*
X6384402Y15182210D01*
X6384402Y15182210D02*
X6432021Y15229829D01*
X6432021Y15229829D02*
X6479640Y15325067D01*
X6479640Y15325067D02*
X6479640Y15420305D01*
X6479640Y15420305D02*
X6432021Y15515543D01*
X6432021Y15515543D02*
X6384402Y15563162D01*
X6384402Y15563162D02*
X6289164Y15610781D01*
X6289164Y15610781D02*
X6051069Y15610781D01*
X6051069Y15610781D02*
X5908212Y15563162D01*
X5574878Y15610781D02*
X4955831Y15610781D01*
X4955831Y15610781D02*
X5289164Y15229829D01*
X5289164Y15229829D02*
X5146307Y15229829D01*
X5146307Y15229829D02*
X5051069Y15182210D01*
X5051069Y15182210D02*
X5003450Y15134591D01*
X5003450Y15134591D02*
X4955831Y15039353D01*
X4955831Y15039353D02*
X4955831Y14801258D01*
X4955831Y14801258D02*
X5003450Y14706020D01*
X5003450Y14706020D02*
X5051069Y14658400D01*
X5051069Y14658400D02*
X5146307Y14610781D01*
X5146307Y14610781D02*
X5432021Y14610781D01*
X5432021Y14610781D02*
X5527259Y14658400D01*
X5527259Y14658400D02*
X5574878Y14706020D01*
X4527259Y14991734D02*
X3765355Y14991734D01*
X3289164Y14610781D02*
X3289164Y15277448D01*
X3289164Y15182210D02*
X3241545Y15229829D01*
X3241545Y15229829D02*
X3146307Y15277448D01*
X3146307Y15277448D02*
X3003450Y15277448D01*
X3003450Y15277448D02*
X2908212Y15229829D01*
X2908212Y15229829D02*
X2860593Y15134591D01*
X2860593Y15134591D02*
X2860593Y14610781D01*
X2860593Y15134591D02*
X2812974Y15229829D01*
X2812974Y15229829D02*
X2717736Y15277448D01*
X2717736Y15277448D02*
X2574879Y15277448D01*
X2574879Y15277448D02*
X2479640Y15229829D01*
X2479640Y15229829D02*
X2432021Y15134591D01*
X2432021Y15134591D02*
X2432021Y14610781D01*
X1955831Y14610781D02*
X1955831Y15277448D01*
X1955831Y15610781D02*
X2003450Y15563162D01*
X2003450Y15563162D02*
X1955831Y15515543D01*
X1955831Y15515543D02*
X1908212Y15563162D01*
X1908212Y15563162D02*
X1955831Y15610781D01*
X1955831Y15610781D02*
X1955831Y15515543D01*
X1479641Y15277448D02*
X1479641Y14610781D01*
X1479641Y15182210D02*
X1432022Y15229829D01*
X1432022Y15229829D02*
X1336784Y15277448D01*
X1336784Y15277448D02*
X1193927Y15277448D01*
X1193927Y15277448D02*
X1098689Y15229829D01*
X1098689Y15229829D02*
X1051070Y15134591D01*
X1051070Y15134591D02*
X1051070Y14610781D01*
X574879Y14610781D02*
X574879Y15277448D01*
X574879Y15610781D02*
X622498Y15563162D01*
X622498Y15563162D02*
X574879Y15515543D01*
X574879Y15515543D02*
X527260Y15563162D01*
X527260Y15563162D02*
X574879Y15610781D01*
X574879Y15610781D02*
X574879Y15515543D01*
X-567978Y15277448D02*
X-806073Y14610781D01*
X-806073Y14610781D02*
X-1044168Y15277448D01*
X-1425121Y14706020D02*
X-1472740Y14658400D01*
X-1472740Y14658400D02*
X-1425121Y14610781D01*
X-1425121Y14610781D02*
X-1377502Y14658400D01*
X-1377502Y14658400D02*
X-1425121Y14706020D01*
X-1425121Y14706020D02*
X-1425121Y14610781D01*
X-1806073Y15610781D02*
X-2425120Y15610781D01*
X-2425120Y15610781D02*
X-2091787Y15229829D01*
X-2091787Y15229829D02*
X-2234644Y15229829D01*
X-2234644Y15229829D02*
X-2329882Y15182210D01*
X-2329882Y15182210D02*
X-2377501Y15134591D01*
X-2377501Y15134591D02*
X-2425120Y15039353D01*
X-2425120Y15039353D02*
X-2425120Y14801258D01*
X-2425120Y14801258D02*
X-2377501Y14706020D01*
X-2377501Y14706020D02*
X-2329882Y14658400D01*
X-2329882Y14658400D02*
X-2234644Y14610781D01*
X-2234644Y14610781D02*
X-1948930Y14610781D01*
X-1948930Y14610781D02*
X-1853692Y14658400D01*
X-1853692Y14658400D02*
X-1806073Y14706020D01*
D11*
X-15300561Y11484905D02*
X-15300561Y12284905D01*
X-15300561Y12284905D02*
X-15491037Y12284905D01*
X-15491037Y12284905D02*
X-15605323Y12246810D01*
X-15605323Y12246810D02*
X-15681513Y12170620D01*
X-15681513Y12170620D02*
X-15719608Y12094429D01*
X-15719608Y12094429D02*
X-15757704Y11942048D01*
X-15757704Y11942048D02*
X-15757704Y11827762D01*
X-15757704Y11827762D02*
X-15719608Y11675381D01*
X-15719608Y11675381D02*
X-15681513Y11599191D01*
X-15681513Y11599191D02*
X-15605323Y11523000D01*
X-15605323Y11523000D02*
X-15491037Y11484905D01*
X-15491037Y11484905D02*
X-15300561Y11484905D01*
X-16100561Y11484905D02*
X-16100561Y12018239D01*
X-16100561Y12284905D02*
X-16062465Y12246810D01*
X-16062465Y12246810D02*
X-16100561Y12208715D01*
X-16100561Y12208715D02*
X-16138656Y12246810D01*
X-16138656Y12246810D02*
X-16100561Y12284905D01*
X-16100561Y12284905D02*
X-16100561Y12208715D01*
X-16443417Y11523000D02*
X-16519608Y11484905D01*
X-16519608Y11484905D02*
X-16671989Y11484905D01*
X-16671989Y11484905D02*
X-16748179Y11523000D01*
X-16748179Y11523000D02*
X-16786275Y11599191D01*
X-16786275Y11599191D02*
X-16786275Y11637286D01*
X-16786275Y11637286D02*
X-16748179Y11713477D01*
X-16748179Y11713477D02*
X-16671989Y11751572D01*
X-16671989Y11751572D02*
X-16557703Y11751572D01*
X-16557703Y11751572D02*
X-16481513Y11789667D01*
X-16481513Y11789667D02*
X-16443417Y11865858D01*
X-16443417Y11865858D02*
X-16443417Y11903953D01*
X-16443417Y11903953D02*
X-16481513Y11980143D01*
X-16481513Y11980143D02*
X-16557703Y12018239D01*
X-16557703Y12018239D02*
X-16671989Y12018239D01*
X-16671989Y12018239D02*
X-16748179Y11980143D01*
X-17129132Y12018239D02*
X-17129132Y11218239D01*
X-17129132Y11980143D02*
X-17205322Y12018239D01*
X-17205322Y12018239D02*
X-17357703Y12018239D01*
X-17357703Y12018239D02*
X-17433894Y11980143D01*
X-17433894Y11980143D02*
X-17471989Y11942048D01*
X-17471989Y11942048D02*
X-17510084Y11865858D01*
X-17510084Y11865858D02*
X-17510084Y11637286D01*
X-17510084Y11637286D02*
X-17471989Y11561096D01*
X-17471989Y11561096D02*
X-17433894Y11523000D01*
X-17433894Y11523000D02*
X-17357703Y11484905D01*
X-17357703Y11484905D02*
X-17205322Y11484905D01*
X-17205322Y11484905D02*
X-17129132Y11523000D01*
X-17967227Y11484905D02*
X-17891037Y11523000D01*
X-17891037Y11523000D02*
X-17852942Y11599191D01*
X-17852942Y11599191D02*
X-17852942Y12284905D01*
X-18614847Y11484905D02*
X-18614847Y11903953D01*
X-18614847Y11903953D02*
X-18576752Y11980143D01*
X-18576752Y11980143D02*
X-18500561Y12018239D01*
X-18500561Y12018239D02*
X-18348180Y12018239D01*
X-18348180Y12018239D02*
X-18271990Y11980143D01*
X-18614847Y11523000D02*
X-18538656Y11484905D01*
X-18538656Y11484905D02*
X-18348180Y11484905D01*
X-18348180Y11484905D02*
X-18271990Y11523000D01*
X-18271990Y11523000D02*
X-18233894Y11599191D01*
X-18233894Y11599191D02*
X-18233894Y11675381D01*
X-18233894Y11675381D02*
X-18271990Y11751572D01*
X-18271990Y11751572D02*
X-18348180Y11789667D01*
X-18348180Y11789667D02*
X-18538656Y11789667D01*
X-18538656Y11789667D02*
X-18614847Y11827762D01*
X-18919609Y12018239D02*
X-19110085Y11484905D01*
X-19300562Y12018239D02*
X-19110085Y11484905D01*
X-19110085Y11484905D02*
X-19033895Y11294429D01*
X-19033895Y11294429D02*
X-18995800Y11256334D01*
X-18995800Y11256334D02*
X-18919609Y11218239D01*
D12*
X12217563Y20298863D02*
X12030619Y20236549D01*
X12030619Y20236549D02*
X11719046Y20236549D01*
X11719046Y20236549D02*
X11594416Y20298863D01*
X11594416Y20298863D02*
X11532102Y20361178D01*
X11532102Y20361178D02*
X11469787Y20485807D01*
X11469787Y20485807D02*
X11469787Y20610437D01*
X11469787Y20610437D02*
X11532102Y20735066D01*
X11532102Y20735066D02*
X11594416Y20797381D01*
X11594416Y20797381D02*
X11719046Y20859695D01*
X11719046Y20859695D02*
X11968304Y20922010D01*
X11968304Y20922010D02*
X12092934Y20984325D01*
X12092934Y20984325D02*
X12155248Y21046639D01*
X12155248Y21046639D02*
X12217563Y21171269D01*
X12217563Y21171269D02*
X12217563Y21295898D01*
X12217563Y21295898D02*
X12155248Y21420527D01*
X12155248Y21420527D02*
X12092934Y21482842D01*
X12092934Y21482842D02*
X11968304Y21545157D01*
X11968304Y21545157D02*
X11656731Y21545157D01*
X11656731Y21545157D02*
X11469787Y21482842D01*
X10908955Y20236549D02*
X10908955Y21545157D01*
X10908955Y20922010D02*
X10161179Y20922010D01*
X10161179Y20236549D02*
X10161179Y21545157D01*
X9538032Y20361178D02*
X9475718Y20298863D01*
X9475718Y20298863D02*
X9538032Y20236549D01*
X9538032Y20236549D02*
X9600347Y20298863D01*
X9600347Y20298863D02*
X9538032Y20361178D01*
X9538032Y20361178D02*
X9538032Y20236549D01*
X8914885Y20236549D02*
X8914885Y21545157D01*
X8914885Y21545157D02*
X8478683Y20610437D01*
X8478683Y20610437D02*
X8042480Y21545157D01*
X8042480Y21545157D02*
X8042480Y20236549D01*
X6983131Y20922010D02*
X6796187Y20859695D01*
X6796187Y20859695D02*
X6733872Y20797381D01*
X6733872Y20797381D02*
X6671557Y20672751D01*
X6671557Y20672751D02*
X6671557Y20485807D01*
X6671557Y20485807D02*
X6733872Y20361178D01*
X6733872Y20361178D02*
X6796187Y20298863D01*
X6796187Y20298863D02*
X6920816Y20236549D01*
X6920816Y20236549D02*
X7419333Y20236549D01*
X7419333Y20236549D02*
X7419333Y21545157D01*
X7419333Y21545157D02*
X6983131Y21545157D01*
X6983131Y21545157D02*
X6858501Y21482842D01*
X6858501Y21482842D02*
X6796187Y21420527D01*
X6796187Y21420527D02*
X6733872Y21295898D01*
X6733872Y21295898D02*
X6733872Y21171269D01*
X6733872Y21171269D02*
X6796187Y21046639D01*
X6796187Y21046639D02*
X6858501Y20984325D01*
X6858501Y20984325D02*
X6983131Y20922010D01*
X6983131Y20922010D02*
X7419333Y20922010D01*
X6110725Y20361178D02*
X6048411Y20298863D01*
X6048411Y20298863D02*
X6110725Y20236549D01*
X6110725Y20236549D02*
X6173040Y20298863D01*
X6173040Y20298863D02*
X6110725Y20361178D01*
X6110725Y20361178D02*
X6110725Y20236549D01*
X5549893Y21420527D02*
X5487578Y21482842D01*
X5487578Y21482842D02*
X5362949Y21545157D01*
X5362949Y21545157D02*
X5051376Y21545157D01*
X5051376Y21545157D02*
X4926746Y21482842D01*
X4926746Y21482842D02*
X4864432Y21420527D01*
X4864432Y21420527D02*
X4802117Y21295898D01*
X4802117Y21295898D02*
X4802117Y21171269D01*
X4802117Y21171269D02*
X4864432Y20984325D01*
X4864432Y20984325D02*
X5612208Y20236549D01*
X5612208Y20236549D02*
X4802117Y20236549D01*
X3493509Y20236549D02*
X3929712Y20859695D01*
X4241285Y20236549D02*
X4241285Y21545157D01*
X4241285Y21545157D02*
X3742768Y21545157D01*
X3742768Y21545157D02*
X3618139Y21482842D01*
X3618139Y21482842D02*
X3555824Y21420527D01*
X3555824Y21420527D02*
X3493509Y21295898D01*
X3493509Y21295898D02*
X3493509Y21108954D01*
X3493509Y21108954D02*
X3555824Y20984325D01*
X3555824Y20984325D02*
X3618139Y20922010D01*
X3618139Y20922010D02*
X3742768Y20859695D01*
X3742768Y20859695D02*
X4241285Y20859695D01*
X2309531Y20236549D02*
X2932677Y20236549D01*
X2932677Y20236549D02*
X2932677Y21545157D01*
D11*
X841173Y6163553D02*
X726887Y6125458D01*
X726887Y6125458D02*
X688792Y6087362D01*
X688792Y6087362D02*
X650696Y6011172D01*
X650696Y6011172D02*
X650696Y5896886D01*
X650696Y5896886D02*
X688792Y5820696D01*
X688792Y5820696D02*
X726887Y5782600D01*
X726887Y5782600D02*
X803077Y5744505D01*
X803077Y5744505D02*
X1107839Y5744505D01*
X1107839Y5744505D02*
X1107839Y6544505D01*
X1107839Y6544505D02*
X841173Y6544505D01*
X841173Y6544505D02*
X764982Y6506410D01*
X764982Y6506410D02*
X726887Y6468315D01*
X726887Y6468315D02*
X688792Y6392124D01*
X688792Y6392124D02*
X688792Y6315934D01*
X688792Y6315934D02*
X726887Y6239743D01*
X726887Y6239743D02*
X764982Y6201648D01*
X764982Y6201648D02*
X841173Y6163553D01*
X841173Y6163553D02*
X1107839Y6163553D01*
X-35018Y5744505D02*
X-35018Y6163553D01*
X-35018Y6163553D02*
X3077Y6239743D01*
X3077Y6239743D02*
X79268Y6277839D01*
X79268Y6277839D02*
X231649Y6277839D01*
X231649Y6277839D02*
X307839Y6239743D01*
X-35018Y5782600D02*
X41173Y5744505D01*
X41173Y5744505D02*
X231649Y5744505D01*
X231649Y5744505D02*
X307839Y5782600D01*
X307839Y5782600D02*
X345935Y5858791D01*
X345935Y5858791D02*
X345935Y5934981D01*
X345935Y5934981D02*
X307839Y6011172D01*
X307839Y6011172D02*
X231649Y6049267D01*
X231649Y6049267D02*
X41173Y6049267D01*
X41173Y6049267D02*
X-35018Y6087362D01*
X-301685Y6277839D02*
X-606447Y6277839D01*
X-415971Y6544505D02*
X-415971Y5858791D01*
X-415971Y5858791D02*
X-454066Y5782600D01*
X-454066Y5782600D02*
X-530256Y5744505D01*
X-530256Y5744505D02*
X-606447Y5744505D01*
X-1825495Y5782600D02*
X-1749304Y5744505D01*
X-1749304Y5744505D02*
X-1596923Y5744505D01*
X-1596923Y5744505D02*
X-1520733Y5782600D01*
X-1520733Y5782600D02*
X-1482638Y5820696D01*
X-1482638Y5820696D02*
X-1444542Y5896886D01*
X-1444542Y5896886D02*
X-1444542Y6125458D01*
X-1444542Y6125458D02*
X-1482638Y6201648D01*
X-1482638Y6201648D02*
X-1520733Y6239743D01*
X-1520733Y6239743D02*
X-1596923Y6277839D01*
X-1596923Y6277839D02*
X-1749304Y6277839D01*
X-1749304Y6277839D02*
X-1825495Y6239743D01*
X-2168352Y5744505D02*
X-2168352Y6544505D01*
X-2511209Y5744505D02*
X-2511209Y6163553D01*
X-2511209Y6163553D02*
X-2473114Y6239743D01*
X-2473114Y6239743D02*
X-2396923Y6277839D01*
X-2396923Y6277839D02*
X-2282637Y6277839D01*
X-2282637Y6277839D02*
X-2206447Y6239743D01*
X-2206447Y6239743D02*
X-2168352Y6201648D01*
X-3235019Y5744505D02*
X-3235019Y6163553D01*
X-3235019Y6163553D02*
X-3196924Y6239743D01*
X-3196924Y6239743D02*
X-3120733Y6277839D01*
X-3120733Y6277839D02*
X-2968352Y6277839D01*
X-2968352Y6277839D02*
X-2892162Y6239743D01*
X-3235019Y5782600D02*
X-3158828Y5744505D01*
X-3158828Y5744505D02*
X-2968352Y5744505D01*
X-2968352Y5744505D02*
X-2892162Y5782600D01*
X-2892162Y5782600D02*
X-2854066Y5858791D01*
X-2854066Y5858791D02*
X-2854066Y5934981D01*
X-2854066Y5934981D02*
X-2892162Y6011172D01*
X-2892162Y6011172D02*
X-2968352Y6049267D01*
X-2968352Y6049267D02*
X-3158828Y6049267D01*
X-3158828Y6049267D02*
X-3235019Y6087362D01*
X-3615972Y5744505D02*
X-3615972Y6277839D01*
X-3615972Y6125458D02*
X-3654067Y6201648D01*
X-3654067Y6201648D02*
X-3692162Y6239743D01*
X-3692162Y6239743D02*
X-3768353Y6277839D01*
X-3768353Y6277839D02*
X-3844543Y6277839D01*
X-4454067Y6277839D02*
X-4454067Y5630220D01*
X-4454067Y5630220D02*
X-4415972Y5554029D01*
X-4415972Y5554029D02*
X-4377876Y5515934D01*
X-4377876Y5515934D02*
X-4301686Y5477839D01*
X-4301686Y5477839D02*
X-4187400Y5477839D01*
X-4187400Y5477839D02*
X-4111210Y5515934D01*
X-4454067Y5782600D02*
X-4377876Y5744505D01*
X-4377876Y5744505D02*
X-4225495Y5744505D01*
X-4225495Y5744505D02*
X-4149305Y5782600D01*
X-4149305Y5782600D02*
X-4111210Y5820696D01*
X-4111210Y5820696D02*
X-4073114Y5896886D01*
X-4073114Y5896886D02*
X-4073114Y6125458D01*
X-4073114Y6125458D02*
X-4111210Y6201648D01*
X-4111210Y6201648D02*
X-4149305Y6239743D01*
X-4149305Y6239743D02*
X-4225495Y6277839D01*
X-4225495Y6277839D02*
X-4377876Y6277839D01*
X-4377876Y6277839D02*
X-4454067Y6239743D01*
X-5139782Y5782600D02*
X-5063591Y5744505D01*
X-5063591Y5744505D02*
X-4911210Y5744505D01*
X-4911210Y5744505D02*
X-4835020Y5782600D01*
X-4835020Y5782600D02*
X-4796924Y5858791D01*
X-4796924Y5858791D02*
X-4796924Y6163553D01*
X-4796924Y6163553D02*
X-4835020Y6239743D01*
X-4835020Y6239743D02*
X-4911210Y6277839D01*
X-4911210Y6277839D02*
X-5063591Y6277839D01*
X-5063591Y6277839D02*
X-5139782Y6239743D01*
X-5139782Y6239743D02*
X-5177877Y6163553D01*
X-5177877Y6163553D02*
X-5177877Y6087362D01*
X-5177877Y6087362D02*
X-4796924Y6011172D01*
X11585373Y-20887447D02*
X11471087Y-20925542D01*
X11471087Y-20925542D02*
X11432992Y-20963638D01*
X11432992Y-20963638D02*
X11394896Y-21039828D01*
X11394896Y-21039828D02*
X11394896Y-21154114D01*
X11394896Y-21154114D02*
X11432992Y-21230304D01*
X11432992Y-21230304D02*
X11471087Y-21268400D01*
X11471087Y-21268400D02*
X11547277Y-21306495D01*
X11547277Y-21306495D02*
X11852039Y-21306495D01*
X11852039Y-21306495D02*
X11852039Y-20506495D01*
X11852039Y-20506495D02*
X11585373Y-20506495D01*
X11585373Y-20506495D02*
X11509182Y-20544590D01*
X11509182Y-20544590D02*
X11471087Y-20582685D01*
X11471087Y-20582685D02*
X11432992Y-20658876D01*
X11432992Y-20658876D02*
X11432992Y-20735066D01*
X11432992Y-20735066D02*
X11471087Y-20811257D01*
X11471087Y-20811257D02*
X11509182Y-20849352D01*
X11509182Y-20849352D02*
X11585373Y-20887447D01*
X11585373Y-20887447D02*
X11852039Y-20887447D01*
X10709182Y-21306495D02*
X10709182Y-20887447D01*
X10709182Y-20887447D02*
X10747277Y-20811257D01*
X10747277Y-20811257D02*
X10823468Y-20773161D01*
X10823468Y-20773161D02*
X10975849Y-20773161D01*
X10975849Y-20773161D02*
X11052039Y-20811257D01*
X10709182Y-21268400D02*
X10785373Y-21306495D01*
X10785373Y-21306495D02*
X10975849Y-21306495D01*
X10975849Y-21306495D02*
X11052039Y-21268400D01*
X11052039Y-21268400D02*
X11090135Y-21192209D01*
X11090135Y-21192209D02*
X11090135Y-21116019D01*
X11090135Y-21116019D02*
X11052039Y-21039828D01*
X11052039Y-21039828D02*
X10975849Y-21001733D01*
X10975849Y-21001733D02*
X10785373Y-21001733D01*
X10785373Y-21001733D02*
X10709182Y-20963638D01*
X10442515Y-20773161D02*
X10137753Y-20773161D01*
X10328229Y-20506495D02*
X10328229Y-21192209D01*
X10328229Y-21192209D02*
X10290134Y-21268400D01*
X10290134Y-21268400D02*
X10213944Y-21306495D01*
X10213944Y-21306495D02*
X10137753Y-21306495D01*
D12*
X14870326Y-18460066D02*
X14108422Y-18460066D01*
X14489374Y-18841019D02*
X14489374Y-18079114D01*
X14397034Y-13962192D02*
X14397034Y-14724097D01*
D10*
X6638695Y-6267524D02*
X5838695Y-6267524D01*
X5838695Y-6267524D02*
X5838695Y-6458000D01*
X5838695Y-6458000D02*
X5876790Y-6572286D01*
X5876790Y-6572286D02*
X5952980Y-6648476D01*
X5952980Y-6648476D02*
X6029171Y-6686571D01*
X6029171Y-6686571D02*
X6181552Y-6724667D01*
X6181552Y-6724667D02*
X6295838Y-6724667D01*
X6295838Y-6724667D02*
X6448219Y-6686571D01*
X6448219Y-6686571D02*
X6524409Y-6648476D01*
X6524409Y-6648476D02*
X6600600Y-6572286D01*
X6600600Y-6572286D02*
X6638695Y-6458000D01*
X6638695Y-6458000D02*
X6638695Y-6267524D01*
X6638695Y-7486571D02*
X6638695Y-7029428D01*
X6638695Y-7258000D02*
X5838695Y-7258000D01*
X5838695Y-7258000D02*
X5952980Y-7181809D01*
X5952980Y-7181809D02*
X6029171Y-7105619D01*
X6029171Y-7105619D02*
X6067266Y-7029428D01*
X-10407725Y5756505D02*
X-10407725Y6556505D01*
X-10407725Y6556505D02*
X-10598201Y6556505D01*
X-10598201Y6556505D02*
X-10712487Y6518410D01*
X-10712487Y6518410D02*
X-10788677Y6442220D01*
X-10788677Y6442220D02*
X-10826772Y6366029D01*
X-10826772Y6366029D02*
X-10864868Y6213648D01*
X-10864868Y6213648D02*
X-10864868Y6099362D01*
X-10864868Y6099362D02*
X-10826772Y5946981D01*
X-10826772Y5946981D02*
X-10788677Y5870791D01*
X-10788677Y5870791D02*
X-10712487Y5794600D01*
X-10712487Y5794600D02*
X-10598201Y5756505D01*
X-10598201Y5756505D02*
X-10407725Y5756505D01*
X-11169629Y6480315D02*
X-11207725Y6518410D01*
X-11207725Y6518410D02*
X-11283915Y6556505D01*
X-11283915Y6556505D02*
X-11474391Y6556505D01*
X-11474391Y6556505D02*
X-11550582Y6518410D01*
X-11550582Y6518410D02*
X-11588677Y6480315D01*
X-11588677Y6480315D02*
X-11626772Y6404124D01*
X-11626772Y6404124D02*
X-11626772Y6327934D01*
X-11626772Y6327934D02*
X-11588677Y6213648D01*
X-11588677Y6213648D02*
X-11131534Y5756505D01*
X-11131534Y5756505D02*
X-11626772Y5756505D01*
X-4362468Y-16874895D02*
X-4095801Y-16493942D01*
X-3905325Y-16874895D02*
X-3905325Y-16074895D01*
X-3905325Y-16074895D02*
X-4210087Y-16074895D01*
X-4210087Y-16074895D02*
X-4286277Y-16112990D01*
X-4286277Y-16112990D02*
X-4324372Y-16151085D01*
X-4324372Y-16151085D02*
X-4362468Y-16227276D01*
X-4362468Y-16227276D02*
X-4362468Y-16341561D01*
X-4362468Y-16341561D02*
X-4324372Y-16417752D01*
X-4324372Y-16417752D02*
X-4286277Y-16455847D01*
X-4286277Y-16455847D02*
X-4210087Y-16493942D01*
X-4210087Y-16493942D02*
X-3905325Y-16493942D01*
X-4629134Y-16074895D02*
X-5162468Y-16074895D01*
X-5162468Y-16074895D02*
X-4819610Y-16874895D01*
X-13071705Y11004533D02*
X-13452658Y11271200D01*
X-13071705Y11461676D02*
X-13871705Y11461676D01*
X-13871705Y11461676D02*
X-13871705Y11156914D01*
X-13871705Y11156914D02*
X-13833610Y11080724D01*
X-13833610Y11080724D02*
X-13795515Y11042629D01*
X-13795515Y11042629D02*
X-13719324Y11004533D01*
X-13719324Y11004533D02*
X-13605039Y11004533D01*
X-13605039Y11004533D02*
X-13528848Y11042629D01*
X-13528848Y11042629D02*
X-13490753Y11080724D01*
X-13490753Y11080724D02*
X-13452658Y11156914D01*
X-13452658Y11156914D02*
X-13452658Y11461676D01*
X-13605039Y10318819D02*
X-13071705Y10318819D01*
X-13909800Y10509295D02*
X-13338372Y10699772D01*
X-13338372Y10699772D02*
X-13338372Y10204533D01*
X20580275Y-8645295D02*
X20580275Y-7845295D01*
X20580275Y-7845295D02*
X20389799Y-7845295D01*
X20389799Y-7845295D02*
X20275513Y-7883390D01*
X20275513Y-7883390D02*
X20199323Y-7959580D01*
X20199323Y-7959580D02*
X20161228Y-8035771D01*
X20161228Y-8035771D02*
X20123132Y-8188152D01*
X20123132Y-8188152D02*
X20123132Y-8302438D01*
X20123132Y-8302438D02*
X20161228Y-8454819D01*
X20161228Y-8454819D02*
X20199323Y-8531009D01*
X20199323Y-8531009D02*
X20275513Y-8607200D01*
X20275513Y-8607200D02*
X20389799Y-8645295D01*
X20389799Y-8645295D02*
X20580275Y-8645295D01*
X19856466Y-7845295D02*
X19323132Y-7845295D01*
X19323132Y-7845295D02*
X19665990Y-8645295D01*
X-8119834Y-10512295D02*
X-8119834Y-11083723D01*
X-8119834Y-11083723D02*
X-8081739Y-11198009D01*
X-8081739Y-11198009D02*
X-8005548Y-11274200D01*
X-8005548Y-11274200D02*
X-7891263Y-11312295D01*
X-7891263Y-11312295D02*
X-7815072Y-11312295D01*
X-8500787Y-11312295D02*
X-8500787Y-10512295D01*
X-8500787Y-10512295D02*
X-8805549Y-10512295D01*
X-8805549Y-10512295D02*
X-8881739Y-10550390D01*
X-8881739Y-10550390D02*
X-8919834Y-10588485D01*
X-8919834Y-10588485D02*
X-8957930Y-10664676D01*
X-8957930Y-10664676D02*
X-8957930Y-10778961D01*
X-8957930Y-10778961D02*
X-8919834Y-10855152D01*
X-8919834Y-10855152D02*
X-8881739Y-10893247D01*
X-8881739Y-10893247D02*
X-8805549Y-10931342D01*
X-8805549Y-10931342D02*
X-8500787Y-10931342D01*
X-9719834Y-11312295D02*
X-9262691Y-11312295D01*
X-9491263Y-11312295D02*
X-9491263Y-10512295D01*
X-9491263Y-10512295D02*
X-9415072Y-10626580D01*
X-9415072Y-10626580D02*
X-9338882Y-10702771D01*
X-9338882Y-10702771D02*
X-9262691Y-10740866D01*
X18208495Y2539924D02*
X18856114Y2539924D01*
X18856114Y2539924D02*
X18932304Y2501829D01*
X18932304Y2501829D02*
X18970400Y2463734D01*
X18970400Y2463734D02*
X19008495Y2387543D01*
X19008495Y2387543D02*
X19008495Y2235162D01*
X19008495Y2235162D02*
X18970400Y2158972D01*
X18970400Y2158972D02*
X18932304Y2120877D01*
X18932304Y2120877D02*
X18856114Y2082781D01*
X18856114Y2082781D02*
X18208495Y2082781D01*
X18284685Y1739925D02*
X18246590Y1701829D01*
X18246590Y1701829D02*
X18208495Y1625639D01*
X18208495Y1625639D02*
X18208495Y1435163D01*
X18208495Y1435163D02*
X18246590Y1358972D01*
X18246590Y1358972D02*
X18284685Y1320877D01*
X18284685Y1320877D02*
X18360876Y1282782D01*
X18360876Y1282782D02*
X18437066Y1282782D01*
X18437066Y1282782D02*
X18551352Y1320877D01*
X18551352Y1320877D02*
X19008495Y1778020D01*
X19008495Y1778020D02*
X19008495Y1282782D01*
X-1743296Y-4032314D02*
X-1705200Y-3994218D01*
X-1705200Y-3994218D02*
X-1667105Y-3879933D01*
X-1667105Y-3879933D02*
X-1667105Y-3803742D01*
X-1667105Y-3803742D02*
X-1705200Y-3689456D01*
X-1705200Y-3689456D02*
X-1781391Y-3613266D01*
X-1781391Y-3613266D02*
X-1857581Y-3575171D01*
X-1857581Y-3575171D02*
X-2009962Y-3537075D01*
X-2009962Y-3537075D02*
X-2124248Y-3537075D01*
X-2124248Y-3537075D02*
X-2276629Y-3575171D01*
X-2276629Y-3575171D02*
X-2352820Y-3613266D01*
X-2352820Y-3613266D02*
X-2429010Y-3689456D01*
X-2429010Y-3689456D02*
X-2467105Y-3803742D01*
X-2467105Y-3803742D02*
X-2467105Y-3879933D01*
X-2467105Y-3879933D02*
X-2429010Y-3994218D01*
X-2429010Y-3994218D02*
X-2390915Y-4032314D01*
X-1667105Y-4794218D02*
X-1667105Y-4337075D01*
X-1667105Y-4565647D02*
X-2467105Y-4565647D01*
X-2467105Y-4565647D02*
X-2352820Y-4489456D01*
X-2352820Y-4489456D02*
X-2276629Y-4413266D01*
X-2276629Y-4413266D02*
X-2238534Y-4337075D01*
X-2390915Y-5098980D02*
X-2429010Y-5137076D01*
X-2429010Y-5137076D02*
X-2467105Y-5213266D01*
X-2467105Y-5213266D02*
X-2467105Y-5403742D01*
X-2467105Y-5403742D02*
X-2429010Y-5479933D01*
X-2429010Y-5479933D02*
X-2390915Y-5518028D01*
X-2390915Y-5518028D02*
X-2314724Y-5556123D01*
X-2314724Y-5556123D02*
X-2238534Y-5556123D01*
X-2238534Y-5556123D02*
X-2124248Y-5518028D01*
X-2124248Y-5518028D02*
X-1667105Y-5060885D01*
X-1667105Y-5060885D02*
X-1667105Y-5556123D01*
X-18926305Y825467D02*
X-18354877Y825467D01*
X-18354877Y825467D02*
X-18240591Y863562D01*
X-18240591Y863562D02*
X-18164400Y939753D01*
X-18164400Y939753D02*
X-18126305Y1054038D01*
X-18126305Y1054038D02*
X-18126305Y1130229D01*
X-18926305Y520705D02*
X-18926305Y25467D01*
X-18926305Y25467D02*
X-18621543Y292133D01*
X-18621543Y292133D02*
X-18621543Y177848D01*
X-18621543Y177848D02*
X-18583448Y101657D01*
X-18583448Y101657D02*
X-18545353Y63562D01*
X-18545353Y63562D02*
X-18469162Y25467D01*
X-18469162Y25467D02*
X-18278686Y25467D01*
X-18278686Y25467D02*
X-18202496Y63562D01*
X-18202496Y63562D02*
X-18164400Y101657D01*
X-18164400Y101657D02*
X-18126305Y177848D01*
X-18126305Y177848D02*
X-18126305Y406419D01*
X-18126305Y406419D02*
X-18164400Y482610D01*
X-18164400Y482610D02*
X-18202496Y520705D01*
X-1018266Y10212305D02*
X-1018266Y11012305D01*
X-1018266Y11012305D02*
X-1208742Y11012305D01*
X-1208742Y11012305D02*
X-1323028Y10974210D01*
X-1323028Y10974210D02*
X-1399218Y10898020D01*
X-1399218Y10898020D02*
X-1437313Y10821829D01*
X-1437313Y10821829D02*
X-1475409Y10669448D01*
X-1475409Y10669448D02*
X-1475409Y10555162D01*
X-1475409Y10555162D02*
X-1437313Y10402781D01*
X-1437313Y10402781D02*
X-1399218Y10326591D01*
X-1399218Y10326591D02*
X-1323028Y10250400D01*
X-1323028Y10250400D02*
X-1208742Y10212305D01*
X-1208742Y10212305D02*
X-1018266Y10212305D01*
X-2084932Y10631353D02*
X-2199218Y10593258D01*
X-2199218Y10593258D02*
X-2237313Y10555162D01*
X-2237313Y10555162D02*
X-2275409Y10478972D01*
X-2275409Y10478972D02*
X-2275409Y10364686D01*
X-2275409Y10364686D02*
X-2237313Y10288496D01*
X-2237313Y10288496D02*
X-2199218Y10250400D01*
X-2199218Y10250400D02*
X-2123028Y10212305D01*
X-2123028Y10212305D02*
X-1818266Y10212305D01*
X-1818266Y10212305D02*
X-1818266Y11012305D01*
X-1818266Y11012305D02*
X-2084932Y11012305D01*
X-2084932Y11012305D02*
X-2161123Y10974210D01*
X-2161123Y10974210D02*
X-2199218Y10936115D01*
X-2199218Y10936115D02*
X-2237313Y10859924D01*
X-2237313Y10859924D02*
X-2237313Y10783734D01*
X-2237313Y10783734D02*
X-2199218Y10707543D01*
X-2199218Y10707543D02*
X-2161123Y10669448D01*
X-2161123Y10669448D02*
X-2084932Y10631353D01*
X-2084932Y10631353D02*
X-1818266Y10631353D01*
X-3037313Y10212305D02*
X-2580170Y10212305D01*
X-2808742Y10212305D02*
X-2808742Y11012305D01*
X-2808742Y11012305D02*
X-2732551Y10898020D01*
X-2732551Y10898020D02*
X-2656361Y10821829D01*
X-2656361Y10821829D02*
X-2580170Y10783734D01*
X4644895Y-9823533D02*
X5216323Y-9823533D01*
X5216323Y-9823533D02*
X5330609Y-9785438D01*
X5330609Y-9785438D02*
X5406800Y-9709247D01*
X5406800Y-9709247D02*
X5444895Y-9594962D01*
X5444895Y-9594962D02*
X5444895Y-9518771D01*
X5444895Y-10204486D02*
X4644895Y-10204486D01*
X4644895Y-10204486D02*
X4644895Y-10509248D01*
X4644895Y-10509248D02*
X4682990Y-10585438D01*
X4682990Y-10585438D02*
X4721085Y-10623533D01*
X4721085Y-10623533D02*
X4797276Y-10661629D01*
X4797276Y-10661629D02*
X4911561Y-10661629D01*
X4911561Y-10661629D02*
X4987752Y-10623533D01*
X4987752Y-10623533D02*
X5025847Y-10585438D01*
X5025847Y-10585438D02*
X5063942Y-10509248D01*
X5063942Y-10509248D02*
X5063942Y-10204486D01*
X4644895Y-10928295D02*
X4644895Y-11423533D01*
X4644895Y-11423533D02*
X4949657Y-11156867D01*
X4949657Y-11156867D02*
X4949657Y-11271152D01*
X4949657Y-11271152D02*
X4987752Y-11347343D01*
X4987752Y-11347343D02*
X5025847Y-11385438D01*
X5025847Y-11385438D02*
X5102038Y-11423533D01*
X5102038Y-11423533D02*
X5292514Y-11423533D01*
X5292514Y-11423533D02*
X5368704Y-11385438D01*
X5368704Y-11385438D02*
X5406800Y-11347343D01*
X5406800Y-11347343D02*
X5444895Y-11271152D01*
X5444895Y-11271152D02*
X5444895Y-11042581D01*
X5444895Y-11042581D02*
X5406800Y-10966390D01*
X5406800Y-10966390D02*
X5368704Y-10928295D01*
X19106484Y-4860694D02*
X19373151Y-4479741D01*
X19563627Y-4860694D02*
X19563627Y-4060694D01*
X19563627Y-4060694D02*
X19258865Y-4060694D01*
X19258865Y-4060694D02*
X19182675Y-4098789D01*
X19182675Y-4098789D02*
X19144580Y-4136884D01*
X19144580Y-4136884D02*
X19106484Y-4213075D01*
X19106484Y-4213075D02*
X19106484Y-4327360D01*
X19106484Y-4327360D02*
X19144580Y-4403551D01*
X19144580Y-4403551D02*
X19182675Y-4441646D01*
X19182675Y-4441646D02*
X19258865Y-4479741D01*
X19258865Y-4479741D02*
X19563627Y-4479741D01*
X18344580Y-4860694D02*
X18801723Y-4860694D01*
X18573151Y-4860694D02*
X18573151Y-4060694D01*
X18573151Y-4060694D02*
X18649342Y-4174979D01*
X18649342Y-4174979D02*
X18725532Y-4251170D01*
X18725532Y-4251170D02*
X18801723Y-4289265D01*
X17658865Y-4327360D02*
X17658865Y-4860694D01*
X17849341Y-4022599D02*
X18039818Y-4594027D01*
X18039818Y-4594027D02*
X17544579Y-4594027D01*
X-5096096Y-2178067D02*
X-5058000Y-2139971D01*
X-5058000Y-2139971D02*
X-5019905Y-2025686D01*
X-5019905Y-2025686D02*
X-5019905Y-1949495D01*
X-5019905Y-1949495D02*
X-5058000Y-1835209D01*
X-5058000Y-1835209D02*
X-5134191Y-1759019D01*
X-5134191Y-1759019D02*
X-5210381Y-1720924D01*
X-5210381Y-1720924D02*
X-5362762Y-1682828D01*
X-5362762Y-1682828D02*
X-5477048Y-1682828D01*
X-5477048Y-1682828D02*
X-5629429Y-1720924D01*
X-5629429Y-1720924D02*
X-5705620Y-1759019D01*
X-5705620Y-1759019D02*
X-5781810Y-1835209D01*
X-5781810Y-1835209D02*
X-5819905Y-1949495D01*
X-5819905Y-1949495D02*
X-5819905Y-2025686D01*
X-5819905Y-2025686D02*
X-5781810Y-2139971D01*
X-5781810Y-2139971D02*
X-5743715Y-2178067D01*
X-5819905Y-2863781D02*
X-5819905Y-2711400D01*
X-5819905Y-2711400D02*
X-5781810Y-2635209D01*
X-5781810Y-2635209D02*
X-5743715Y-2597114D01*
X-5743715Y-2597114D02*
X-5629429Y-2520924D01*
X-5629429Y-2520924D02*
X-5477048Y-2482828D01*
X-5477048Y-2482828D02*
X-5172286Y-2482828D01*
X-5172286Y-2482828D02*
X-5096096Y-2520924D01*
X-5096096Y-2520924D02*
X-5058000Y-2559019D01*
X-5058000Y-2559019D02*
X-5019905Y-2635209D01*
X-5019905Y-2635209D02*
X-5019905Y-2787590D01*
X-5019905Y-2787590D02*
X-5058000Y-2863781D01*
X-5058000Y-2863781D02*
X-5096096Y-2901876D01*
X-5096096Y-2901876D02*
X-5172286Y-2939971D01*
X-5172286Y-2939971D02*
X-5362762Y-2939971D01*
X-5362762Y-2939971D02*
X-5438953Y-2901876D01*
X-5438953Y-2901876D02*
X-5477048Y-2863781D01*
X-5477048Y-2863781D02*
X-5515143Y-2787590D01*
X-5515143Y-2787590D02*
X-5515143Y-2635209D01*
X-5515143Y-2635209D02*
X-5477048Y-2559019D01*
X-5477048Y-2559019D02*
X-5438953Y-2520924D01*
X-5438953Y-2520924D02*
X-5362762Y-2482828D01*
X-295496Y4248133D02*
X-257400Y4286229D01*
X-257400Y4286229D02*
X-219305Y4400514D01*
X-219305Y4400514D02*
X-219305Y4476705D01*
X-219305Y4476705D02*
X-257400Y4590991D01*
X-257400Y4590991D02*
X-333591Y4667181D01*
X-333591Y4667181D02*
X-409781Y4705276D01*
X-409781Y4705276D02*
X-562162Y4743372D01*
X-562162Y4743372D02*
X-676448Y4743372D01*
X-676448Y4743372D02*
X-828829Y4705276D01*
X-828829Y4705276D02*
X-905020Y4667181D01*
X-905020Y4667181D02*
X-981210Y4590991D01*
X-981210Y4590991D02*
X-1019305Y4476705D01*
X-1019305Y4476705D02*
X-1019305Y4400514D01*
X-1019305Y4400514D02*
X-981210Y4286229D01*
X-981210Y4286229D02*
X-943115Y4248133D01*
X-676448Y3790991D02*
X-714543Y3867181D01*
X-714543Y3867181D02*
X-752639Y3905276D01*
X-752639Y3905276D02*
X-828829Y3943372D01*
X-828829Y3943372D02*
X-866924Y3943372D01*
X-866924Y3943372D02*
X-943115Y3905276D01*
X-943115Y3905276D02*
X-981210Y3867181D01*
X-981210Y3867181D02*
X-1019305Y3790991D01*
X-1019305Y3790991D02*
X-1019305Y3638610D01*
X-1019305Y3638610D02*
X-981210Y3562419D01*
X-981210Y3562419D02*
X-943115Y3524324D01*
X-943115Y3524324D02*
X-866924Y3486229D01*
X-866924Y3486229D02*
X-828829Y3486229D01*
X-828829Y3486229D02*
X-752639Y3524324D01*
X-752639Y3524324D02*
X-714543Y3562419D01*
X-714543Y3562419D02*
X-676448Y3638610D01*
X-676448Y3638610D02*
X-676448Y3790991D01*
X-676448Y3790991D02*
X-638353Y3867181D01*
X-638353Y3867181D02*
X-600258Y3905276D01*
X-600258Y3905276D02*
X-524067Y3943372D01*
X-524067Y3943372D02*
X-371686Y3943372D01*
X-371686Y3943372D02*
X-295496Y3905276D01*
X-295496Y3905276D02*
X-257400Y3867181D01*
X-257400Y3867181D02*
X-219305Y3790991D01*
X-219305Y3790991D02*
X-219305Y3638610D01*
X-219305Y3638610D02*
X-257400Y3562419D01*
X-257400Y3562419D02*
X-295496Y3524324D01*
X-295496Y3524324D02*
X-371686Y3486229D01*
X-371686Y3486229D02*
X-524067Y3486229D01*
X-524067Y3486229D02*
X-600258Y3524324D01*
X-600258Y3524324D02*
X-638353Y3562419D01*
X-638353Y3562419D02*
X-676448Y3638610D01*
X8769332Y2733896D02*
X8807428Y2695800D01*
X8807428Y2695800D02*
X8921713Y2657705D01*
X8921713Y2657705D02*
X8997904Y2657705D01*
X8997904Y2657705D02*
X9112190Y2695800D01*
X9112190Y2695800D02*
X9188380Y2771991D01*
X9188380Y2771991D02*
X9226475Y2848181D01*
X9226475Y2848181D02*
X9264571Y3000562D01*
X9264571Y3000562D02*
X9264571Y3114848D01*
X9264571Y3114848D02*
X9226475Y3267229D01*
X9226475Y3267229D02*
X9188380Y3343420D01*
X9188380Y3343420D02*
X9112190Y3419610D01*
X9112190Y3419610D02*
X8997904Y3457705D01*
X8997904Y3457705D02*
X8921713Y3457705D01*
X8921713Y3457705D02*
X8807428Y3419610D01*
X8807428Y3419610D02*
X8769332Y3381515D01*
X8388380Y2657705D02*
X8235999Y2657705D01*
X8235999Y2657705D02*
X8159809Y2695800D01*
X8159809Y2695800D02*
X8121713Y2733896D01*
X8121713Y2733896D02*
X8045523Y2848181D01*
X8045523Y2848181D02*
X8007428Y3000562D01*
X8007428Y3000562D02*
X8007428Y3305324D01*
X8007428Y3305324D02*
X8045523Y3381515D01*
X8045523Y3381515D02*
X8083618Y3419610D01*
X8083618Y3419610D02*
X8159809Y3457705D01*
X8159809Y3457705D02*
X8312190Y3457705D01*
X8312190Y3457705D02*
X8388380Y3419610D01*
X8388380Y3419610D02*
X8426475Y3381515D01*
X8426475Y3381515D02*
X8464571Y3305324D01*
X8464571Y3305324D02*
X8464571Y3114848D01*
X8464571Y3114848D02*
X8426475Y3038658D01*
X8426475Y3038658D02*
X8388380Y3000562D01*
X8388380Y3000562D02*
X8312190Y2962467D01*
X8312190Y2962467D02*
X8159809Y2962467D01*
X8159809Y2962467D02*
X8083618Y3000562D01*
X8083618Y3000562D02*
X8045523Y3038658D01*
X8045523Y3038658D02*
X8007428Y3114848D01*
X-2660715Y-13242695D02*
X-2394048Y-12861742D01*
X-2203572Y-13242695D02*
X-2203572Y-12442695D01*
X-2203572Y-12442695D02*
X-2508334Y-12442695D01*
X-2508334Y-12442695D02*
X-2584524Y-12480790D01*
X-2584524Y-12480790D02*
X-2622619Y-12518885D01*
X-2622619Y-12518885D02*
X-2660715Y-12595076D01*
X-2660715Y-12595076D02*
X-2660715Y-12709361D01*
X-2660715Y-12709361D02*
X-2622619Y-12785552D01*
X-2622619Y-12785552D02*
X-2584524Y-12823647D01*
X-2584524Y-12823647D02*
X-2508334Y-12861742D01*
X-2508334Y-12861742D02*
X-2203572Y-12861742D01*
X-3422619Y-13242695D02*
X-2965476Y-13242695D01*
X-3194048Y-13242695D02*
X-3194048Y-12442695D01*
X-3194048Y-12442695D02*
X-3117857Y-12556980D01*
X-3117857Y-12556980D02*
X-3041667Y-12633171D01*
X-3041667Y-12633171D02*
X-2965476Y-12671266D01*
X-3727381Y-12518885D02*
X-3765477Y-12480790D01*
X-3765477Y-12480790D02*
X-3841667Y-12442695D01*
X-3841667Y-12442695D02*
X-4032143Y-12442695D01*
X-4032143Y-12442695D02*
X-4108334Y-12480790D01*
X-4108334Y-12480790D02*
X-4146429Y-12518885D01*
X-4146429Y-12518885D02*
X-4184524Y-12595076D01*
X-4184524Y-12595076D02*
X-4184524Y-12671266D01*
X-4184524Y-12671266D02*
X-4146429Y-12785552D01*
X-4146429Y-12785552D02*
X-3689286Y-13242695D01*
X-3689286Y-13242695D02*
X-4184524Y-13242695D01*
X3997104Y-3016267D02*
X4035200Y-2978171D01*
X4035200Y-2978171D02*
X4073295Y-2863886D01*
X4073295Y-2863886D02*
X4073295Y-2787695D01*
X4073295Y-2787695D02*
X4035200Y-2673409D01*
X4035200Y-2673409D02*
X3959009Y-2597219D01*
X3959009Y-2597219D02*
X3882819Y-2559124D01*
X3882819Y-2559124D02*
X3730438Y-2521028D01*
X3730438Y-2521028D02*
X3616152Y-2521028D01*
X3616152Y-2521028D02*
X3463771Y-2559124D01*
X3463771Y-2559124D02*
X3387580Y-2597219D01*
X3387580Y-2597219D02*
X3311390Y-2673409D01*
X3311390Y-2673409D02*
X3273295Y-2787695D01*
X3273295Y-2787695D02*
X3273295Y-2863886D01*
X3273295Y-2863886D02*
X3311390Y-2978171D01*
X3311390Y-2978171D02*
X3349485Y-3016267D01*
X3539961Y-3701981D02*
X4073295Y-3701981D01*
X3235200Y-3511505D02*
X3806628Y-3321028D01*
X3806628Y-3321028D02*
X3806628Y-3816267D01*
X-2784705Y-15513171D02*
X-3584705Y-15513171D01*
X-3584705Y-15513171D02*
X-3584705Y-15703647D01*
X-3584705Y-15703647D02*
X-3546610Y-15817933D01*
X-3546610Y-15817933D02*
X-3470420Y-15894123D01*
X-3470420Y-15894123D02*
X-3394229Y-15932218D01*
X-3394229Y-15932218D02*
X-3241848Y-15970314D01*
X-3241848Y-15970314D02*
X-3127562Y-15970314D01*
X-3127562Y-15970314D02*
X-2975181Y-15932218D01*
X-2975181Y-15932218D02*
X-2898991Y-15894123D01*
X-2898991Y-15894123D02*
X-2822800Y-15817933D01*
X-2822800Y-15817933D02*
X-2784705Y-15703647D01*
X-2784705Y-15703647D02*
X-2784705Y-15513171D01*
X-2784705Y-16732218D02*
X-2784705Y-16275075D01*
X-2784705Y-16503647D02*
X-3584705Y-16503647D01*
X-3584705Y-16503647D02*
X-3470420Y-16427456D01*
X-3470420Y-16427456D02*
X-3394229Y-16351266D01*
X-3394229Y-16351266D02*
X-3356134Y-16275075D01*
X-2784705Y-17494123D02*
X-2784705Y-17036980D01*
X-2784705Y-17265552D02*
X-3584705Y-17265552D01*
X-3584705Y-17265552D02*
X-3470420Y-17189361D01*
X-3470420Y-17189361D02*
X-3394229Y-17113171D01*
X-3394229Y-17113171D02*
X-3356134Y-17036980D01*
X-2492505Y-8756733D02*
X-1921077Y-8756733D01*
X-1921077Y-8756733D02*
X-1806791Y-8718638D01*
X-1806791Y-8718638D02*
X-1730600Y-8642447D01*
X-1730600Y-8642447D02*
X-1692505Y-8528162D01*
X-1692505Y-8528162D02*
X-1692505Y-8451971D01*
X-1692505Y-9137686D02*
X-2492505Y-9137686D01*
X-2492505Y-9137686D02*
X-2492505Y-9442448D01*
X-2492505Y-9442448D02*
X-2454410Y-9518638D01*
X-2454410Y-9518638D02*
X-2416315Y-9556733D01*
X-2416315Y-9556733D02*
X-2340124Y-9594829D01*
X-2340124Y-9594829D02*
X-2225839Y-9594829D01*
X-2225839Y-9594829D02*
X-2149648Y-9556733D01*
X-2149648Y-9556733D02*
X-2111553Y-9518638D01*
X-2111553Y-9518638D02*
X-2073458Y-9442448D01*
X-2073458Y-9442448D02*
X-2073458Y-9137686D01*
X-2416315Y-9899590D02*
X-2454410Y-9937686D01*
X-2454410Y-9937686D02*
X-2492505Y-10013876D01*
X-2492505Y-10013876D02*
X-2492505Y-10204352D01*
X-2492505Y-10204352D02*
X-2454410Y-10280543D01*
X-2454410Y-10280543D02*
X-2416315Y-10318638D01*
X-2416315Y-10318638D02*
X-2340124Y-10356733D01*
X-2340124Y-10356733D02*
X-2263934Y-10356733D01*
X-2263934Y-10356733D02*
X-2149648Y-10318638D01*
X-2149648Y-10318638D02*
X-1692505Y-9861495D01*
X-1692505Y-9861495D02*
X-1692505Y-10356733D01*
X-193905Y-7943867D02*
X-574858Y-7677200D01*
X-193905Y-7486724D02*
X-993905Y-7486724D01*
X-993905Y-7486724D02*
X-993905Y-7791486D01*
X-993905Y-7791486D02*
X-955810Y-7867676D01*
X-955810Y-7867676D02*
X-917715Y-7905771D01*
X-917715Y-7905771D02*
X-841524Y-7943867D01*
X-841524Y-7943867D02*
X-727239Y-7943867D01*
X-727239Y-7943867D02*
X-651048Y-7905771D01*
X-651048Y-7905771D02*
X-612953Y-7867676D01*
X-612953Y-7867676D02*
X-574858Y-7791486D01*
X-574858Y-7791486D02*
X-574858Y-7486724D01*
X-193905Y-8705771D02*
X-193905Y-8248628D01*
X-193905Y-8477200D02*
X-993905Y-8477200D01*
X-993905Y-8477200D02*
X-879620Y-8401009D01*
X-879620Y-8401009D02*
X-803429Y-8324819D01*
X-803429Y-8324819D02*
X-765334Y-8248628D01*
X768228Y-14207895D02*
X768228Y-13407895D01*
X768228Y-13407895D02*
X577752Y-13407895D01*
X577752Y-13407895D02*
X463466Y-13445990D01*
X463466Y-13445990D02*
X387276Y-13522180D01*
X387276Y-13522180D02*
X349181Y-13598371D01*
X349181Y-13598371D02*
X311085Y-13750752D01*
X311085Y-13750752D02*
X311085Y-13865038D01*
X311085Y-13865038D02*
X349181Y-14017419D01*
X349181Y-14017419D02*
X387276Y-14093609D01*
X387276Y-14093609D02*
X463466Y-14169800D01*
X463466Y-14169800D02*
X577752Y-14207895D01*
X577752Y-14207895D02*
X768228Y-14207895D01*
X-450819Y-14207895D02*
X6324Y-14207895D01*
X-222248Y-14207895D02*
X-222248Y-13407895D01*
X-222248Y-13407895D02*
X-146057Y-13522180D01*
X-146057Y-13522180D02*
X-69867Y-13598371D01*
X-69867Y-13598371D02*
X6324Y-13636466D01*
X-755581Y-13484085D02*
X-793677Y-13445990D01*
X-793677Y-13445990D02*
X-869867Y-13407895D01*
X-869867Y-13407895D02*
X-1060343Y-13407895D01*
X-1060343Y-13407895D02*
X-1136534Y-13445990D01*
X-1136534Y-13445990D02*
X-1174629Y-13484085D01*
X-1174629Y-13484085D02*
X-1212724Y-13560276D01*
X-1212724Y-13560276D02*
X-1212724Y-13636466D01*
X-1212724Y-13636466D02*
X-1174629Y-13750752D01*
X-1174629Y-13750752D02*
X-717486Y-14207895D01*
X-717486Y-14207895D02*
X-1212724Y-14207895D01*
X11004532Y2759296D02*
X11042628Y2721200D01*
X11042628Y2721200D02*
X11156913Y2683105D01*
X11156913Y2683105D02*
X11233104Y2683105D01*
X11233104Y2683105D02*
X11347390Y2721200D01*
X11347390Y2721200D02*
X11423580Y2797391D01*
X11423580Y2797391D02*
X11461675Y2873581D01*
X11461675Y2873581D02*
X11499771Y3025962D01*
X11499771Y3025962D02*
X11499771Y3140248D01*
X11499771Y3140248D02*
X11461675Y3292629D01*
X11461675Y3292629D02*
X11423580Y3368820D01*
X11423580Y3368820D02*
X11347390Y3445010D01*
X11347390Y3445010D02*
X11233104Y3483105D01*
X11233104Y3483105D02*
X11156913Y3483105D01*
X11156913Y3483105D02*
X11042628Y3445010D01*
X11042628Y3445010D02*
X11004532Y3406915D01*
X10737866Y3483105D02*
X10242628Y3483105D01*
X10242628Y3483105D02*
X10509294Y3178343D01*
X10509294Y3178343D02*
X10395009Y3178343D01*
X10395009Y3178343D02*
X10318818Y3140248D01*
X10318818Y3140248D02*
X10280723Y3102153D01*
X10280723Y3102153D02*
X10242628Y3025962D01*
X10242628Y3025962D02*
X10242628Y2835486D01*
X10242628Y2835486D02*
X10280723Y2759296D01*
X10280723Y2759296D02*
X10318818Y2721200D01*
X10318818Y2721200D02*
X10395009Y2683105D01*
X10395009Y2683105D02*
X10623580Y2683105D01*
X10623580Y2683105D02*
X10699771Y2721200D01*
X10699771Y2721200D02*
X10737866Y2759296D01*
X-9550477Y11839705D02*
X-9550477Y11192086D01*
X-9550477Y11192086D02*
X-9588572Y11115896D01*
X-9588572Y11115896D02*
X-9626667Y11077800D01*
X-9626667Y11077800D02*
X-9702858Y11039705D01*
X-9702858Y11039705D02*
X-9855239Y11039705D01*
X-9855239Y11039705D02*
X-9931429Y11077800D01*
X-9931429Y11077800D02*
X-9969524Y11115896D01*
X-9969524Y11115896D02*
X-10007620Y11192086D01*
X-10007620Y11192086D02*
X-10007620Y11839705D01*
X-10731429Y11573039D02*
X-10731429Y11039705D01*
X-10540953Y11877800D02*
X-10350476Y11306372D01*
X-10350476Y11306372D02*
X-10845715Y11306372D01*
X-13757505Y-18230924D02*
X-14557505Y-18230924D01*
X-14557505Y-18230924D02*
X-14557505Y-18421400D01*
X-14557505Y-18421400D02*
X-14519410Y-18535686D01*
X-14519410Y-18535686D02*
X-14443220Y-18611876D01*
X-14443220Y-18611876D02*
X-14367029Y-18649971D01*
X-14367029Y-18649971D02*
X-14214648Y-18688067D01*
X-14214648Y-18688067D02*
X-14100362Y-18688067D01*
X-14100362Y-18688067D02*
X-13947981Y-18649971D01*
X-13947981Y-18649971D02*
X-13871791Y-18611876D01*
X-13871791Y-18611876D02*
X-13795600Y-18535686D01*
X-13795600Y-18535686D02*
X-13757505Y-18421400D01*
X-13757505Y-18421400D02*
X-13757505Y-18230924D01*
X-14557505Y-19411876D02*
X-14557505Y-19030924D01*
X-14557505Y-19030924D02*
X-14176553Y-18992828D01*
X-14176553Y-18992828D02*
X-14214648Y-19030924D01*
X-14214648Y-19030924D02*
X-14252743Y-19107114D01*
X-14252743Y-19107114D02*
X-14252743Y-19297590D01*
X-14252743Y-19297590D02*
X-14214648Y-19373781D01*
X-14214648Y-19373781D02*
X-14176553Y-19411876D01*
X-14176553Y-19411876D02*
X-14100362Y-19449971D01*
X-14100362Y-19449971D02*
X-13909886Y-19449971D01*
X-13909886Y-19449971D02*
X-13833696Y-19411876D01*
X-13833696Y-19411876D02*
X-13795600Y-19373781D01*
X-13795600Y-19373781D02*
X-13757505Y-19297590D01*
X-13757505Y-19297590D02*
X-13757505Y-19107114D01*
X-13757505Y-19107114D02*
X-13795600Y-19030924D01*
X-13795600Y-19030924D02*
X-13833696Y-18992828D01*
X-12106505Y-5175314D02*
X-12487458Y-4908647D01*
X-12106505Y-4718171D02*
X-12906505Y-4718171D01*
X-12906505Y-4718171D02*
X-12906505Y-5022933D01*
X-12906505Y-5022933D02*
X-12868410Y-5099123D01*
X-12868410Y-5099123D02*
X-12830315Y-5137218D01*
X-12830315Y-5137218D02*
X-12754124Y-5175314D01*
X-12754124Y-5175314D02*
X-12639839Y-5175314D01*
X-12639839Y-5175314D02*
X-12563648Y-5137218D01*
X-12563648Y-5137218D02*
X-12525553Y-5099123D01*
X-12525553Y-5099123D02*
X-12487458Y-5022933D01*
X-12487458Y-5022933D02*
X-12487458Y-4718171D01*
X-12106505Y-5937218D02*
X-12106505Y-5480075D01*
X-12106505Y-5708647D02*
X-12906505Y-5708647D01*
X-12906505Y-5708647D02*
X-12792220Y-5632456D01*
X-12792220Y-5632456D02*
X-12716029Y-5556266D01*
X-12716029Y-5556266D02*
X-12677934Y-5480075D01*
X-12106505Y-6699123D02*
X-12106505Y-6241980D01*
X-12106505Y-6470552D02*
X-12906505Y-6470552D01*
X-12906505Y-6470552D02*
X-12792220Y-6394361D01*
X-12792220Y-6394361D02*
X-12716029Y-6318171D01*
X-12716029Y-6318171D02*
X-12677934Y-6241980D01*
X-11293705Y8388333D02*
X-11674658Y8655000D01*
X-11293705Y8845476D02*
X-12093705Y8845476D01*
X-12093705Y8845476D02*
X-12093705Y8540714D01*
X-12093705Y8540714D02*
X-12055610Y8464524D01*
X-12055610Y8464524D02*
X-12017515Y8426429D01*
X-12017515Y8426429D02*
X-11941324Y8388333D01*
X-11941324Y8388333D02*
X-11827039Y8388333D01*
X-11827039Y8388333D02*
X-11750848Y8426429D01*
X-11750848Y8426429D02*
X-11712753Y8464524D01*
X-11712753Y8464524D02*
X-11674658Y8540714D01*
X-11674658Y8540714D02*
X-11674658Y8845476D01*
X-12093705Y8121667D02*
X-12093705Y7626429D01*
X-12093705Y7626429D02*
X-11788943Y7893095D01*
X-11788943Y7893095D02*
X-11788943Y7778810D01*
X-11788943Y7778810D02*
X-11750848Y7702619D01*
X-11750848Y7702619D02*
X-11712753Y7664524D01*
X-11712753Y7664524D02*
X-11636562Y7626429D01*
X-11636562Y7626429D02*
X-11446086Y7626429D01*
X-11446086Y7626429D02*
X-11369896Y7664524D01*
X-11369896Y7664524D02*
X-11331800Y7702619D01*
X-11331800Y7702619D02*
X-11293705Y7778810D01*
X-11293705Y7778810D02*
X-11293705Y8007381D01*
X-11293705Y8007381D02*
X-11331800Y8083572D01*
X-11331800Y8083572D02*
X-11369896Y8121667D01*
X11363095Y-3498914D02*
X10982142Y-3232247D01*
X11363095Y-3041771D02*
X10563095Y-3041771D01*
X10563095Y-3041771D02*
X10563095Y-3346533D01*
X10563095Y-3346533D02*
X10601190Y-3422723D01*
X10601190Y-3422723D02*
X10639285Y-3460818D01*
X10639285Y-3460818D02*
X10715476Y-3498914D01*
X10715476Y-3498914D02*
X10829761Y-3498914D01*
X10829761Y-3498914D02*
X10905952Y-3460818D01*
X10905952Y-3460818D02*
X10944047Y-3422723D01*
X10944047Y-3422723D02*
X10982142Y-3346533D01*
X10982142Y-3346533D02*
X10982142Y-3041771D01*
X11363095Y-4260818D02*
X11363095Y-3803675D01*
X11363095Y-4032247D02*
X10563095Y-4032247D01*
X10563095Y-4032247D02*
X10677380Y-3956056D01*
X10677380Y-3956056D02*
X10753571Y-3879866D01*
X10753571Y-3879866D02*
X10791666Y-3803675D01*
X11363095Y-4641771D02*
X11363095Y-4794152D01*
X11363095Y-4794152D02*
X11325000Y-4870342D01*
X11325000Y-4870342D02*
X11286904Y-4908438D01*
X11286904Y-4908438D02*
X11172619Y-4984628D01*
X11172619Y-4984628D02*
X11020238Y-5022723D01*
X11020238Y-5022723D02*
X10715476Y-5022723D01*
X10715476Y-5022723D02*
X10639285Y-4984628D01*
X10639285Y-4984628D02*
X10601190Y-4946533D01*
X10601190Y-4946533D02*
X10563095Y-4870342D01*
X10563095Y-4870342D02*
X10563095Y-4717961D01*
X10563095Y-4717961D02*
X10601190Y-4641771D01*
X10601190Y-4641771D02*
X10639285Y-4603676D01*
X10639285Y-4603676D02*
X10715476Y-4565580D01*
X10715476Y-4565580D02*
X10905952Y-4565580D01*
X10905952Y-4565580D02*
X10982142Y-4603676D01*
X10982142Y-4603676D02*
X11020238Y-4641771D01*
X11020238Y-4641771D02*
X11058333Y-4717961D01*
X11058333Y-4717961D02*
X11058333Y-4870342D01*
X11058333Y-4870342D02*
X11020238Y-4946533D01*
X11020238Y-4946533D02*
X10982142Y-4984628D01*
X10982142Y-4984628D02*
X10905952Y-5022723D01*
X20126095Y10369476D02*
X19326095Y10369476D01*
X19326095Y10369476D02*
X19326095Y10179000D01*
X19326095Y10179000D02*
X19364190Y10064714D01*
X19364190Y10064714D02*
X19440380Y9988524D01*
X19440380Y9988524D02*
X19516571Y9950429D01*
X19516571Y9950429D02*
X19668952Y9912333D01*
X19668952Y9912333D02*
X19783238Y9912333D01*
X19783238Y9912333D02*
X19935619Y9950429D01*
X19935619Y9950429D02*
X20011809Y9988524D01*
X20011809Y9988524D02*
X20088000Y10064714D01*
X20088000Y10064714D02*
X20126095Y10179000D01*
X20126095Y10179000D02*
X20126095Y10369476D01*
X19326095Y9226619D02*
X19326095Y9379000D01*
X19326095Y9379000D02*
X19364190Y9455191D01*
X19364190Y9455191D02*
X19402285Y9493286D01*
X19402285Y9493286D02*
X19516571Y9569476D01*
X19516571Y9569476D02*
X19668952Y9607572D01*
X19668952Y9607572D02*
X19973714Y9607572D01*
X19973714Y9607572D02*
X20049904Y9569476D01*
X20049904Y9569476D02*
X20088000Y9531381D01*
X20088000Y9531381D02*
X20126095Y9455191D01*
X20126095Y9455191D02*
X20126095Y9302810D01*
X20126095Y9302810D02*
X20088000Y9226619D01*
X20088000Y9226619D02*
X20049904Y9188524D01*
X20049904Y9188524D02*
X19973714Y9150429D01*
X19973714Y9150429D02*
X19783238Y9150429D01*
X19783238Y9150429D02*
X19707047Y9188524D01*
X19707047Y9188524D02*
X19668952Y9226619D01*
X19668952Y9226619D02*
X19630857Y9302810D01*
X19630857Y9302810D02*
X19630857Y9455191D01*
X19630857Y9455191D02*
X19668952Y9531381D01*
X19668952Y9531381D02*
X19707047Y9569476D01*
X19707047Y9569476D02*
X19783238Y9607572D01*
X14560475Y3013305D02*
X14560475Y3813305D01*
X14560475Y3813305D02*
X14369999Y3813305D01*
X14369999Y3813305D02*
X14255713Y3775210D01*
X14255713Y3775210D02*
X14179523Y3699020D01*
X14179523Y3699020D02*
X14141428Y3622829D01*
X14141428Y3622829D02*
X14103332Y3470448D01*
X14103332Y3470448D02*
X14103332Y3356162D01*
X14103332Y3356162D02*
X14141428Y3203781D01*
X14141428Y3203781D02*
X14179523Y3127591D01*
X14179523Y3127591D02*
X14255713Y3051400D01*
X14255713Y3051400D02*
X14369999Y3013305D01*
X14369999Y3013305D02*
X14560475Y3013305D01*
X13646190Y3470448D02*
X13722380Y3508543D01*
X13722380Y3508543D02*
X13760475Y3546639D01*
X13760475Y3546639D02*
X13798571Y3622829D01*
X13798571Y3622829D02*
X13798571Y3660924D01*
X13798571Y3660924D02*
X13760475Y3737115D01*
X13760475Y3737115D02*
X13722380Y3775210D01*
X13722380Y3775210D02*
X13646190Y3813305D01*
X13646190Y3813305D02*
X13493809Y3813305D01*
X13493809Y3813305D02*
X13417618Y3775210D01*
X13417618Y3775210D02*
X13379523Y3737115D01*
X13379523Y3737115D02*
X13341428Y3660924D01*
X13341428Y3660924D02*
X13341428Y3622829D01*
X13341428Y3622829D02*
X13379523Y3546639D01*
X13379523Y3546639D02*
X13417618Y3508543D01*
X13417618Y3508543D02*
X13493809Y3470448D01*
X13493809Y3470448D02*
X13646190Y3470448D01*
X13646190Y3470448D02*
X13722380Y3432353D01*
X13722380Y3432353D02*
X13760475Y3394258D01*
X13760475Y3394258D02*
X13798571Y3318067D01*
X13798571Y3318067D02*
X13798571Y3165686D01*
X13798571Y3165686D02*
X13760475Y3089496D01*
X13760475Y3089496D02*
X13722380Y3051400D01*
X13722380Y3051400D02*
X13646190Y3013305D01*
X13646190Y3013305D02*
X13493809Y3013305D01*
X13493809Y3013305D02*
X13417618Y3051400D01*
X13417618Y3051400D02*
X13379523Y3089496D01*
X13379523Y3089496D02*
X13341428Y3165686D01*
X13341428Y3165686D02*
X13341428Y3318067D01*
X13341428Y3318067D02*
X13379523Y3394258D01*
X13379523Y3394258D02*
X13417618Y3432353D01*
X13417618Y3432353D02*
X13493809Y3470448D01*
X-10224126Y-8530364D02*
X-10304938Y-8072428D01*
X-9900877Y-8207115D02*
X-10466562Y-7641430D01*
X-10466562Y-7641430D02*
X-10682061Y-7856929D01*
X-10682061Y-7856929D02*
X-10708999Y-7937741D01*
X-10708999Y-7937741D02*
X-10708999Y-7991616D01*
X-10708999Y-7991616D02*
X-10682061Y-8072428D01*
X-10682061Y-8072428D02*
X-10601249Y-8153241D01*
X-10601249Y-8153241D02*
X-10520437Y-8180178D01*
X-10520437Y-8180178D02*
X-10466562Y-8180178D01*
X-10466562Y-8180178D02*
X-10385750Y-8153241D01*
X-10385750Y-8153241D02*
X-10170251Y-7937741D01*
X-10951435Y-8234053D02*
X-11005310Y-8234053D01*
X-11005310Y-8234053D02*
X-11086122Y-8260990D01*
X-11086122Y-8260990D02*
X-11220809Y-8395677D01*
X-11220809Y-8395677D02*
X-11247747Y-8476490D01*
X-11247747Y-8476490D02*
X-11247747Y-8530364D01*
X-11247747Y-8530364D02*
X-11220809Y-8611177D01*
X-11220809Y-8611177D02*
X-11166935Y-8665051D01*
X-11166935Y-8665051D02*
X-11059185Y-8718926D01*
X-11059185Y-8718926D02*
X-10412687Y-8718926D01*
X-10412687Y-8718926D02*
X-10762874Y-9069112D01*
X-11301622Y-9607861D02*
X-10978373Y-9284612D01*
X-11139997Y-9446236D02*
X-11705683Y-8880551D01*
X-11705683Y-8880551D02*
X-11570996Y-8907488D01*
X-11570996Y-8907488D02*
X-11463246Y-8907488D01*
X-11463246Y-8907488D02*
X-11382434Y-8880551D01*
X-8000859Y-18641625D02*
X-8381812Y-18374958D01*
X-8000859Y-18184482D02*
X-8800859Y-18184482D01*
X-8800859Y-18184482D02*
X-8800859Y-18489244D01*
X-8800859Y-18489244D02*
X-8762764Y-18565434D01*
X-8762764Y-18565434D02*
X-8724669Y-18603529D01*
X-8724669Y-18603529D02*
X-8648478Y-18641625D01*
X-8648478Y-18641625D02*
X-8534193Y-18641625D01*
X-8534193Y-18641625D02*
X-8458002Y-18603529D01*
X-8458002Y-18603529D02*
X-8419907Y-18565434D01*
X-8419907Y-18565434D02*
X-8381812Y-18489244D01*
X-8381812Y-18489244D02*
X-8381812Y-18184482D01*
X-8800859Y-19327339D02*
X-8800859Y-19174958D01*
X-8800859Y-19174958D02*
X-8762764Y-19098767D01*
X-8762764Y-19098767D02*
X-8724669Y-19060672D01*
X-8724669Y-19060672D02*
X-8610383Y-18984482D01*
X-8610383Y-18984482D02*
X-8458002Y-18946386D01*
X-8458002Y-18946386D02*
X-8153240Y-18946386D01*
X-8153240Y-18946386D02*
X-8077050Y-18984482D01*
X-8077050Y-18984482D02*
X-8038954Y-19022577D01*
X-8038954Y-19022577D02*
X-8000859Y-19098767D01*
X-8000859Y-19098767D02*
X-8000859Y-19251148D01*
X-8000859Y-19251148D02*
X-8038954Y-19327339D01*
X-8038954Y-19327339D02*
X-8077050Y-19365434D01*
X-8077050Y-19365434D02*
X-8153240Y-19403529D01*
X-8153240Y-19403529D02*
X-8343716Y-19403529D01*
X-8343716Y-19403529D02*
X-8419907Y-19365434D01*
X-8419907Y-19365434D02*
X-8458002Y-19327339D01*
X-8458002Y-19327339D02*
X-8496097Y-19251148D01*
X-8496097Y-19251148D02*
X-8496097Y-19098767D01*
X-8496097Y-19098767D02*
X-8458002Y-19022577D01*
X-8458002Y-19022577D02*
X-8419907Y-18984482D01*
X-8419907Y-18984482D02*
X-8343716Y-18946386D01*
X-244696Y-6140467D02*
X-206600Y-6102371D01*
X-206600Y-6102371D02*
X-168505Y-5988086D01*
X-168505Y-5988086D02*
X-168505Y-5911895D01*
X-168505Y-5911895D02*
X-206600Y-5797609D01*
X-206600Y-5797609D02*
X-282791Y-5721419D01*
X-282791Y-5721419D02*
X-358981Y-5683324D01*
X-358981Y-5683324D02*
X-511362Y-5645228D01*
X-511362Y-5645228D02*
X-625648Y-5645228D01*
X-625648Y-5645228D02*
X-778029Y-5683324D01*
X-778029Y-5683324D02*
X-854220Y-5721419D01*
X-854220Y-5721419D02*
X-930410Y-5797609D01*
X-930410Y-5797609D02*
X-968505Y-5911895D01*
X-968505Y-5911895D02*
X-968505Y-5988086D01*
X-968505Y-5988086D02*
X-930410Y-6102371D01*
X-930410Y-6102371D02*
X-892315Y-6140467D01*
X-168505Y-6902371D02*
X-168505Y-6445228D01*
X-168505Y-6673800D02*
X-968505Y-6673800D01*
X-968505Y-6673800D02*
X-854220Y-6597609D01*
X-854220Y-6597609D02*
X-778029Y-6521419D01*
X-778029Y-6521419D02*
X-739934Y-6445228D01*
X-11268305Y-1263724D02*
X-12068305Y-1263724D01*
X-12068305Y-1263724D02*
X-12068305Y-1454200D01*
X-12068305Y-1454200D02*
X-12030210Y-1568486D01*
X-12030210Y-1568486D02*
X-11954020Y-1644676D01*
X-11954020Y-1644676D02*
X-11877829Y-1682771D01*
X-11877829Y-1682771D02*
X-11725448Y-1720867D01*
X-11725448Y-1720867D02*
X-11611162Y-1720867D01*
X-11611162Y-1720867D02*
X-11458781Y-1682771D01*
X-11458781Y-1682771D02*
X-11382591Y-1644676D01*
X-11382591Y-1644676D02*
X-11306400Y-1568486D01*
X-11306400Y-1568486D02*
X-11268305Y-1454200D01*
X-11268305Y-1454200D02*
X-11268305Y-1263724D01*
X-11801639Y-2406581D02*
X-11268305Y-2406581D01*
X-12106400Y-2216105D02*
X-11534972Y-2025628D01*
X-11534972Y-2025628D02*
X-11534972Y-2520867D01*
X-257305Y2057324D02*
X390314Y2057324D01*
X390314Y2057324D02*
X466504Y2019229D01*
X466504Y2019229D02*
X504600Y1981134D01*
X504600Y1981134D02*
X542695Y1904943D01*
X542695Y1904943D02*
X542695Y1752562D01*
X542695Y1752562D02*
X504600Y1676372D01*
X504600Y1676372D02*
X466504Y1638277D01*
X466504Y1638277D02*
X390314Y1600181D01*
X390314Y1600181D02*
X-257305Y1600181D01*
X-257305Y1295420D02*
X-257305Y800182D01*
X-257305Y800182D02*
X47457Y1066848D01*
X47457Y1066848D02*
X47457Y952563D01*
X47457Y952563D02*
X85552Y876372D01*
X85552Y876372D02*
X123647Y838277D01*
X123647Y838277D02*
X199838Y800182D01*
X199838Y800182D02*
X390314Y800182D01*
X390314Y800182D02*
X466504Y838277D01*
X466504Y838277D02*
X504600Y876372D01*
X504600Y876372D02*
X542695Y952563D01*
X542695Y952563D02*
X542695Y1181134D01*
X542695Y1181134D02*
X504600Y1257325D01*
X504600Y1257325D02*
X466504Y1295420D01*
X-8178810Y5680315D02*
X-8102620Y5718410D01*
X-8102620Y5718410D02*
X-8026429Y5794600D01*
X-8026429Y5794600D02*
X-7912143Y5908886D01*
X-7912143Y5908886D02*
X-7835953Y5946981D01*
X-7835953Y5946981D02*
X-7759762Y5946981D01*
X-7797858Y5756505D02*
X-7721667Y5794600D01*
X-7721667Y5794600D02*
X-7645477Y5870791D01*
X-7645477Y5870791D02*
X-7607381Y6023172D01*
X-7607381Y6023172D02*
X-7607381Y6289839D01*
X-7607381Y6289839D02*
X-7645477Y6442220D01*
X-7645477Y6442220D02*
X-7721667Y6518410D01*
X-7721667Y6518410D02*
X-7797858Y6556505D01*
X-7797858Y6556505D02*
X-7950239Y6556505D01*
X-7950239Y6556505D02*
X-8026429Y6518410D01*
X-8026429Y6518410D02*
X-8102620Y6442220D01*
X-8102620Y6442220D02*
X-8140715Y6289839D01*
X-8140715Y6289839D02*
X-8140715Y6023172D01*
X-8140715Y6023172D02*
X-8102620Y5870791D01*
X-8102620Y5870791D02*
X-8026429Y5794600D01*
X-8026429Y5794600D02*
X-7950239Y5756505D01*
X-7950239Y5756505D02*
X-7797858Y5756505D01*
X-8902619Y5756505D02*
X-8445476Y5756505D01*
X-8674048Y5756505D02*
X-8674048Y6556505D01*
X-8674048Y6556505D02*
X-8597857Y6442220D01*
X-8597857Y6442220D02*
X-8521667Y6366029D01*
X-8521667Y6366029D02*
X-8445476Y6327934D01*
X-4972125Y-22132695D02*
X-4972125Y-21332695D01*
X-4972125Y-21332695D02*
X-5162601Y-21332695D01*
X-5162601Y-21332695D02*
X-5276887Y-21370790D01*
X-5276887Y-21370790D02*
X-5353077Y-21446980D01*
X-5353077Y-21446980D02*
X-5391172Y-21523171D01*
X-5391172Y-21523171D02*
X-5429268Y-21675552D01*
X-5429268Y-21675552D02*
X-5429268Y-21789838D01*
X-5429268Y-21789838D02*
X-5391172Y-21942219D01*
X-5391172Y-21942219D02*
X-5353077Y-22018409D01*
X-5353077Y-22018409D02*
X-5276887Y-22094600D01*
X-5276887Y-22094600D02*
X-5162601Y-22132695D01*
X-5162601Y-22132695D02*
X-4972125Y-22132695D01*
X-5810220Y-22132695D02*
X-5962601Y-22132695D01*
X-5962601Y-22132695D02*
X-6038791Y-22094600D01*
X-6038791Y-22094600D02*
X-6076887Y-22056504D01*
X-6076887Y-22056504D02*
X-6153077Y-21942219D01*
X-6153077Y-21942219D02*
X-6191172Y-21789838D01*
X-6191172Y-21789838D02*
X-6191172Y-21485076D01*
X-6191172Y-21485076D02*
X-6153077Y-21408885D01*
X-6153077Y-21408885D02*
X-6114982Y-21370790D01*
X-6114982Y-21370790D02*
X-6038791Y-21332695D01*
X-6038791Y-21332695D02*
X-5886410Y-21332695D01*
X-5886410Y-21332695D02*
X-5810220Y-21370790D01*
X-5810220Y-21370790D02*
X-5772125Y-21408885D01*
X-5772125Y-21408885D02*
X-5734029Y-21485076D01*
X-5734029Y-21485076D02*
X-5734029Y-21675552D01*
X-5734029Y-21675552D02*
X-5772125Y-21751742D01*
X-5772125Y-21751742D02*
X-5810220Y-21789838D01*
X-5810220Y-21789838D02*
X-5886410Y-21827933D01*
X-5886410Y-21827933D02*
X-6038791Y-21827933D01*
X-6038791Y-21827933D02*
X-6114982Y-21789838D01*
X-6114982Y-21789838D02*
X-6153077Y-21751742D01*
X-6153077Y-21751742D02*
X-6191172Y-21675552D01*
X-7791515Y-3743104D02*
X-7753419Y-3781200D01*
X-7753419Y-3781200D02*
X-7639134Y-3819295D01*
X-7639134Y-3819295D02*
X-7562943Y-3819295D01*
X-7562943Y-3819295D02*
X-7448657Y-3781200D01*
X-7448657Y-3781200D02*
X-7372467Y-3705009D01*
X-7372467Y-3705009D02*
X-7334372Y-3628819D01*
X-7334372Y-3628819D02*
X-7296276Y-3476438D01*
X-7296276Y-3476438D02*
X-7296276Y-3362152D01*
X-7296276Y-3362152D02*
X-7334372Y-3209771D01*
X-7334372Y-3209771D02*
X-7372467Y-3133580D01*
X-7372467Y-3133580D02*
X-7448657Y-3057390D01*
X-7448657Y-3057390D02*
X-7562943Y-3019295D01*
X-7562943Y-3019295D02*
X-7639134Y-3019295D01*
X-7639134Y-3019295D02*
X-7753419Y-3057390D01*
X-7753419Y-3057390D02*
X-7791515Y-3095485D01*
X-8553419Y-3819295D02*
X-8096276Y-3819295D01*
X-8324848Y-3819295D02*
X-8324848Y-3019295D01*
X-8324848Y-3019295D02*
X-8248657Y-3133580D01*
X-8248657Y-3133580D02*
X-8172467Y-3209771D01*
X-8172467Y-3209771D02*
X-8096276Y-3247866D01*
X-9315324Y-3819295D02*
X-8858181Y-3819295D01*
X-9086753Y-3819295D02*
X-9086753Y-3019295D01*
X-9086753Y-3019295D02*
X-9010562Y-3133580D01*
X-9010562Y-3133580D02*
X-8934372Y-3209771D01*
X-8934372Y-3209771D02*
X-8858181Y-3247866D01*
X-1641705Y-6597714D02*
X-2022658Y-6331047D01*
X-1641705Y-6140571D02*
X-2441705Y-6140571D01*
X-2441705Y-6140571D02*
X-2441705Y-6445333D01*
X-2441705Y-6445333D02*
X-2403610Y-6521523D01*
X-2403610Y-6521523D02*
X-2365515Y-6559618D01*
X-2365515Y-6559618D02*
X-2289324Y-6597714D01*
X-2289324Y-6597714D02*
X-2175039Y-6597714D01*
X-2175039Y-6597714D02*
X-2098848Y-6559618D01*
X-2098848Y-6559618D02*
X-2060753Y-6521523D01*
X-2060753Y-6521523D02*
X-2022658Y-6445333D01*
X-2022658Y-6445333D02*
X-2022658Y-6140571D01*
X-2365515Y-6902475D02*
X-2403610Y-6940571D01*
X-2403610Y-6940571D02*
X-2441705Y-7016761D01*
X-2441705Y-7016761D02*
X-2441705Y-7207237D01*
X-2441705Y-7207237D02*
X-2403610Y-7283428D01*
X-2403610Y-7283428D02*
X-2365515Y-7321523D01*
X-2365515Y-7321523D02*
X-2289324Y-7359618D01*
X-2289324Y-7359618D02*
X-2213134Y-7359618D01*
X-2213134Y-7359618D02*
X-2098848Y-7321523D01*
X-2098848Y-7321523D02*
X-1641705Y-6864380D01*
X-1641705Y-6864380D02*
X-1641705Y-7359618D01*
X-2441705Y-7854857D02*
X-2441705Y-7931047D01*
X-2441705Y-7931047D02*
X-2403610Y-8007238D01*
X-2403610Y-8007238D02*
X-2365515Y-8045333D01*
X-2365515Y-8045333D02*
X-2289324Y-8083428D01*
X-2289324Y-8083428D02*
X-2136943Y-8121523D01*
X-2136943Y-8121523D02*
X-1946467Y-8121523D01*
X-1946467Y-8121523D02*
X-1794086Y-8083428D01*
X-1794086Y-8083428D02*
X-1717896Y-8045333D01*
X-1717896Y-8045333D02*
X-1679800Y-8007238D01*
X-1679800Y-8007238D02*
X-1641705Y-7931047D01*
X-1641705Y-7931047D02*
X-1641705Y-7854857D01*
X-1641705Y-7854857D02*
X-1679800Y-7778666D01*
X-1679800Y-7778666D02*
X-1717896Y-7740571D01*
X-1717896Y-7740571D02*
X-1794086Y-7702476D01*
X-1794086Y-7702476D02*
X-1946467Y-7664380D01*
X-1946467Y-7664380D02*
X-2136943Y-7664380D01*
X-2136943Y-7664380D02*
X-2289324Y-7702476D01*
X-2289324Y-7702476D02*
X-2365515Y-7740571D01*
X-2365515Y-7740571D02*
X-2403610Y-7778666D01*
X-2403610Y-7778666D02*
X-2441705Y-7854857D01*
X3460732Y-14436495D02*
X3727399Y-14055542D01*
X3917875Y-14436495D02*
X3917875Y-13636495D01*
X3917875Y-13636495D02*
X3613113Y-13636495D01*
X3613113Y-13636495D02*
X3536923Y-13674590D01*
X3536923Y-13674590D02*
X3498828Y-13712685D01*
X3498828Y-13712685D02*
X3460732Y-13788876D01*
X3460732Y-13788876D02*
X3460732Y-13903161D01*
X3460732Y-13903161D02*
X3498828Y-13979352D01*
X3498828Y-13979352D02*
X3536923Y-14017447D01*
X3536923Y-14017447D02*
X3613113Y-14055542D01*
X3613113Y-14055542D02*
X3917875Y-14055542D01*
X3155971Y-13712685D02*
X3117875Y-13674590D01*
X3117875Y-13674590D02*
X3041685Y-13636495D01*
X3041685Y-13636495D02*
X2851209Y-13636495D01*
X2851209Y-13636495D02*
X2775018Y-13674590D01*
X2775018Y-13674590D02*
X2736923Y-13712685D01*
X2736923Y-13712685D02*
X2698828Y-13788876D01*
X2698828Y-13788876D02*
X2698828Y-13865066D01*
X2698828Y-13865066D02*
X2736923Y-13979352D01*
X2736923Y-13979352D02*
X3194066Y-14436495D01*
X3194066Y-14436495D02*
X2698828Y-14436495D01*
D13*
%TO.C,D1*%
X3849000Y-5354000D02*
X3849000Y-8614000D01*
X3849000Y-8614000D02*
X5549000Y-8614000D01*
X5549000Y-5354000D02*
X5549000Y-8614000D01*
%TO.C,D2*%
X-11972800Y4393200D02*
X-11972800Y383200D01*
X-11972800Y383200D02*
X-9972800Y383200D01*
X-9972800Y4393200D02*
X-9972800Y383200D01*
%TO.C,R7*%
X-4392600Y-19200864D02*
X-4392600Y-18746736D01*
X-2922600Y-19200864D02*
X-2922600Y-18746736D01*
%TO.C,R4*%
X-12980936Y13333400D02*
X-13435064Y13333400D01*
X-12980936Y11863400D02*
X-13435064Y11863400D01*
%TO.C,D7*%
X16276600Y-4039600D02*
X16276600Y-7339600D01*
X21786600Y-4039600D02*
X16276600Y-4039600D01*
X21786600Y-7339600D02*
X16276600Y-7339600D01*
%TO.C,JP1*%
X-9756600Y-8118600D02*
X-6956600Y-8118600D01*
X-9756600Y-10118600D02*
X-9756600Y-8118600D01*
X-6956600Y-8118600D02*
X-6956600Y-10118600D01*
X-6956600Y-10118600D02*
X-9756600Y-10118600D01*
%TO.C,U2*%
X17445200Y3246600D02*
X17445200Y-53400D01*
X17645201Y-53400D02*
X17645200Y546601D01*
X18145200Y-53400D02*
X17645201Y-53400D01*
X20045200Y3246600D02*
X20045200Y646600D01*
%TO.C,C12*%
X-4680853Y-4294200D02*
X-4158347Y-4294200D01*
X-4680853Y-5764200D02*
X-4158347Y-5764200D01*
%TO.C,J3*%
X-22594800Y9162200D02*
X-22594800Y-9517800D01*
X-16374800Y9862200D02*
X-14774800Y9862200D01*
X-16374800Y8582200D02*
X-16374800Y9862200D01*
X-16374800Y-8937800D02*
X-16374800Y-10217800D01*
X-16374800Y-10217800D02*
X-14774800Y-10217800D01*
X-14774800Y10882200D02*
X-19024800Y10882200D01*
X-14774800Y9862200D02*
X-14774800Y10882200D01*
X-14774800Y-10217800D02*
X-14774800Y-11237800D01*
X-14774800Y-11237800D02*
X-19024800Y-11237800D01*
X-13484800Y-8937800D02*
X-16374800Y-8937800D01*
D10*
%TO.C,DB1*%
X-3854600Y12764400D02*
X95400Y12764400D01*
X-3854600Y8114400D02*
X-3854600Y12764400D01*
D14*
X-3054600Y11979400D02*
X-3054600Y11429400D01*
X-3054600Y9439400D02*
X-3054600Y8889400D01*
X-2779600Y9164400D02*
X-3304600Y9164400D01*
D10*
X95400Y12764400D02*
X95400Y8114400D01*
X95400Y8114400D02*
X-3854600Y8114400D01*
D14*
X-629601Y11689400D02*
G75*
G02*
X-629600Y11314400I-12499J-187500D01*
G01*
X-629600Y11689400D02*
G75*
G02*
X-629600Y12064400I12500J187500D01*
G01*
X-629600Y9189400D02*
G75*
G02*
X-629601Y8814400I-12501J-187500D01*
G01*
X-629600Y9189400D02*
G75*
G02*
X-629600Y9564400I12500J187500D01*
G01*
D13*
%TO.C,JP3*%
X1444800Y-9642600D02*
X4244800Y-9642600D01*
X1444800Y-11642600D02*
X1444800Y-9642600D01*
X4244800Y-9642600D02*
X4244800Y-11642600D01*
X4244800Y-11642600D02*
X1444800Y-11642600D01*
%TO.C,R14*%
X17839735Y-1553800D02*
X19293863Y-1553800D01*
X17839735Y-3373800D02*
X19293863Y-3373800D01*
%TO.C,C6*%
X-2685147Y-1601800D02*
X-3207653Y-1601800D01*
X-2685147Y-3071800D02*
X-3207653Y-3071800D01*
%TO.C,C8*%
X-2939147Y4799000D02*
X-3461653Y4799000D01*
X-2939147Y3329000D02*
X-3461653Y3329000D01*
%TO.C,C9*%
X7850200Y642253D02*
X7850200Y119747D01*
X9320200Y642253D02*
X9320200Y119747D01*
%TO.C,R12*%
X-3353524Y-10907500D02*
X-2844076Y-10907500D01*
X-3353524Y-11952500D02*
X-2844076Y-11952500D01*
%TO.C,C4*%
X1251853Y-2465400D02*
X729347Y-2465400D01*
X1251853Y-3935400D02*
X729347Y-3935400D01*
%TO.C,J8*%
X13908200Y-19757200D02*
X13908200Y-13637200D01*
X13908200Y-13637200D02*
X9188200Y-13637200D01*
X13298200Y-19147200D02*
X13298200Y-14247200D01*
X13298200Y-16797200D02*
X12798200Y-16797200D01*
X13298200Y-14247200D02*
X9798200Y-14247200D01*
X12798200Y-16797200D02*
X12798200Y-16597200D01*
X12798200Y-16697200D02*
X13298200Y-16697200D01*
X12798200Y-16597200D02*
X13298200Y-16597201D01*
X11798200Y-19147200D02*
X11798200Y-19757200D01*
X11798200Y-14247200D02*
X11798199Y-13637200D01*
X10498200Y-19147200D02*
X10498200Y-19757200D01*
X10498200Y-14247200D02*
X10498201Y-13637200D01*
X10138200Y-13337200D02*
X8888200Y-13337200D01*
X9798200Y-17197200D02*
X9798199Y-19147200D01*
X9798200Y-14247200D02*
X9798199Y-16197200D01*
X9798199Y-19147200D02*
X13298200Y-19147200D01*
X9798199Y-16197200D02*
X9188200Y-16197200D01*
X9188200Y-19757200D02*
X13908200Y-19757200D01*
X9188200Y-17197200D02*
X9798200Y-17197200D01*
X9188200Y-15097200D02*
X8988199Y-15097200D01*
X9188200Y-13637200D02*
X9188200Y-19757200D01*
X9088200Y-15097200D02*
X9088200Y-15397200D01*
X8988199Y-15397200D02*
X9188200Y-15397200D01*
X8988199Y-15097200D02*
X8988199Y-15397200D01*
X8888200Y-13337200D02*
X8888200Y-14587200D01*
%TO.C,D11*%
X-2424800Y-15260000D02*
X-2424800Y-18520000D01*
X-2424800Y-18520000D02*
X-724800Y-18520000D01*
X-724800Y-15260000D02*
X-724800Y-18520000D01*
%TO.C,JP2*%
X-5972000Y-8093200D02*
X-3172000Y-8093200D01*
X-5972000Y-10093200D02*
X-5972000Y-8093200D01*
X-3172000Y-8093200D02*
X-3172000Y-10093200D01*
X-3172000Y-10093200D02*
X-5972000Y-10093200D01*
%TO.C,R1*%
X2007324Y-7605500D02*
X1497876Y-7605500D01*
X2007324Y-8650500D02*
X1497876Y-8650500D01*
%TO.C,D12*%
X-1002400Y-12426000D02*
X-1002400Y-9166000D01*
X697600Y-9166000D02*
X-1002400Y-9166000D01*
X697600Y-12426000D02*
X697600Y-9166000D01*
%TO.C,C3*%
X10085400Y119747D02*
X10085400Y642253D01*
X11555400Y119747D02*
X11555400Y642253D01*
%TO.C,U4*%
X-10020200Y12975900D02*
X-9220200Y12975901D01*
X-10020200Y9855900D02*
X-9220200Y9855899D01*
X-8420200Y12975900D02*
X-9220200Y12975901D01*
X-8420200Y9855900D02*
X-9220200Y9855899D01*
X-7920200Y12925900D02*
X-8160200Y13255900D01*
X-7680200Y13255900D01*
X-7920200Y12925900D01*
G36*
X-7920200Y12925900D02*
G01*
X-8160200Y13255900D01*
X-7680200Y13255900D01*
X-7920200Y12925900D01*
G37*
%TO.C,D5*%
X-13397600Y-20046000D02*
X-13397600Y-16786000D01*
X-11697600Y-16786000D02*
X-13397600Y-16786000D01*
X-11697600Y-20046000D02*
X-11697600Y-16786000D01*
%TO.C,R11*%
X-11647700Y-5485676D02*
X-11647700Y-5995124D01*
X-10602700Y-5485676D02*
X-10602700Y-5995124D01*
%TO.C,R3*%
X-9472664Y8913800D02*
X-9018536Y8913800D01*
X-9472664Y7443800D02*
X-9018536Y7443800D01*
%TO.C,R19*%
X13638264Y-3303600D02*
X13184136Y-3303600D01*
X13638264Y-4773600D02*
X13184136Y-4773600D01*
%TO.C,D6*%
X16729200Y12343400D02*
X16729200Y8483400D01*
X16729200Y8483400D02*
X18729200Y8483400D01*
X18729200Y12343400D02*
X18729200Y8483400D01*
%TO.C,D8*%
X12817600Y-1472200D02*
X12817600Y2387800D01*
X14817600Y2387800D02*
X12817600Y2387800D01*
X14817600Y-1472200D02*
X14817600Y2387800D01*
%TO.C,R21*%
X-8587824Y-6437100D02*
X-8078376Y-6437100D01*
X-8587824Y-7482100D02*
X-8078376Y-7482100D01*
%TO.C,R6*%
X-10717200Y-19073864D02*
X-10717200Y-18619736D01*
X-9247200Y-19073864D02*
X-9247200Y-18619736D01*
%TO.C,C1*%
X2013853Y-5589600D02*
X1491347Y-5589600D01*
X2013853Y-7059600D02*
X1491347Y-7059600D01*
%TO.C,D4*%
X-10996000Y-574800D02*
X-10996000Y-2574800D01*
X-6986000Y-574800D02*
X-10996000Y-574800D01*
X-6986000Y-2574800D02*
X-10996000Y-2574800D01*
%TO.C,U3*%
X-3320100Y2286401D02*
X-2520100Y2286402D01*
X-3320100Y-833599D02*
X-2520100Y-833600D01*
X-1720100Y2286401D02*
X-2520100Y2286402D01*
X-1720100Y-833599D02*
X-2520100Y-833600D01*
X-3580100Y-1113599D02*
X-4060100Y-1113599D01*
X-3820100Y-783599D01*
X-3580100Y-1113599D01*
G36*
X-3580100Y-1113599D02*
G01*
X-4060100Y-1113599D01*
X-3820100Y-783599D01*
X-3580100Y-1113599D01*
G37*
%TO.C,Q1*%
X-8926000Y3799600D02*
X-8926001Y3149600D01*
X-8926000Y2499600D02*
X-8926001Y3149600D01*
X-5806000Y3799600D02*
X-5805999Y3149600D01*
X-5806000Y2499600D02*
X-5805999Y3149600D01*
X-8876000Y4312100D02*
X-9205999Y4072100D01*
X-9206000Y4552100D01*
X-8876000Y4312100D01*
G36*
X-8876000Y4312100D02*
G01*
X-9205999Y4072100D01*
X-9206000Y4552100D01*
X-8876000Y4312100D01*
G37*
%TO.C,D9*%
X-6539600Y-17825400D02*
X-6539600Y-21085400D01*
X-6539600Y-21085400D02*
X-4839600Y-21085400D01*
X-4839600Y-17825400D02*
X-4839600Y-21085400D01*
%TO.C,C11*%
X-8122647Y-4243400D02*
X-8645153Y-4243400D01*
X-8122647Y-5713400D02*
X-8645153Y-5713400D01*
%TO.C,R20*%
X-4648924Y-6411700D02*
X-4139476Y-6411700D01*
X-4648924Y-7456700D02*
X-4139476Y-7456700D01*
%TO.C,R2*%
X3072676Y-12152100D02*
X3582124Y-12152100D01*
X3072676Y-13197100D02*
X3582124Y-13197100D01*
%TD*%
%LPC*%
D15*
%TO.C,J1*%
X1903600Y-15316200D03*
D16*
X4443600Y-15316200D03*
X6983599Y-15316200D03*
%TD*%
D17*
%TO.C,R5*%
X14376400Y11226800D03*
D18*
X14376400Y6146801D03*
%TD*%
D19*
%TO.C,J7*%
X-3909600Y16380200D03*
X-3909600Y20180200D03*
X-12549600Y16380200D03*
X-12549600Y20180200D03*
%TD*%
D20*
%TO.C,F1*%
X10261600Y11861800D03*
X7061200Y6324600D03*
%TD*%
%TO.C,TP4*%
X16306800Y16281400D03*
%TD*%
D21*
%TO.C,C5*%
X4876800Y-635000D03*
D22*
X4876800Y1865000D03*
%TD*%
D20*
%TO.C,TP2*%
X16256000Y-16281400D03*
%TD*%
D23*
%TO.C,L1*%
X8788400Y-5511800D03*
X7078299Y-10210263D03*
%TD*%
D21*
%TO.C,C2*%
X17881600Y6578600D03*
D22*
X21681600Y6578600D03*
%TD*%
D20*
%TO.C,TP5*%
X-16256000Y16281400D03*
%TD*%
D24*
%TO.C,J4*%
X10080000Y18008600D03*
X5080000Y18008600D03*
X80000Y18008600D03*
%TD*%
D15*
%TO.C,J5*%
X1903600Y-17856200D03*
D16*
X4443600Y-17856200D03*
X6983599Y-17856200D03*
%TD*%
D22*
%TO.C,VR1*%
X3581400Y6669400D03*
X4781400Y11669400D03*
%TD*%
D20*
%TO.C,TP3*%
X-16256000Y-16281400D03*
%TD*%
D25*
%TO.C,J2*%
X-636400Y-20396200D03*
D26*
X1903600Y-20396200D03*
X4443600Y-20396200D03*
X6983600Y-20396200D03*
%TD*%
D27*
%TO.C,D1*%
X4699000Y-7853999D03*
X4699000Y-5354001D03*
%TD*%
D28*
%TO.C,D2*%
X-10972800Y1093200D03*
X-10972800Y4393200D03*
%TD*%
D29*
%TO.C,R7*%
X-3657600Y-17973800D03*
X-3657600Y-19973800D03*
%TD*%
D30*
%TO.C,R4*%
X-14208000Y12598400D03*
X-12208000Y12598400D03*
%TD*%
D31*
%TO.C,D7*%
X17786599Y-5689600D03*
X21786601Y-5689600D03*
%TD*%
D32*
%TO.C,JP1*%
X-7631601Y-9118600D03*
D33*
X-9081599Y-9118600D03*
%TD*%
D34*
%TO.C,U2*%
X16745200Y546601D03*
X16745200Y1446600D03*
X16745200Y3246600D03*
D35*
X20745200Y2706600D03*
D36*
X20745200Y646600D03*
%TD*%
D37*
%TO.C,C12*%
X-3469601Y-5029200D03*
X-5369599Y-5029200D03*
%TD*%
D38*
%TO.C,J3*%
X-15234800Y-8177800D03*
X-15234800Y-6177800D03*
X-15234800Y-4177800D03*
X-15234800Y-2177800D03*
X-15234800Y-177800D03*
X-15234800Y1822200D03*
X-15234800Y3822200D03*
X-15234800Y5822200D03*
X-15234800Y7822200D03*
D39*
X-20984800Y-10527800D03*
X-20984800Y10172200D03*
%TD*%
D40*
%TO.C,DB1*%
X-5129600Y9169399D03*
X-5129600Y11709401D03*
D41*
X1370400Y11709401D03*
X1370400Y9169399D03*
%TD*%
D42*
%TO.C,JP3*%
X2119801Y-10642600D03*
D43*
X3569799Y-10642600D03*
%TD*%
D44*
%TO.C,R14*%
X20116800Y-2463800D03*
X17016798Y-2463800D03*
%TD*%
D45*
%TO.C,C6*%
X-3983900Y-2336800D03*
X-1908900Y-2336800D03*
%TD*%
%TO.C,C8*%
X-4237900Y4064000D03*
X-2162900Y4064000D03*
%TD*%
D46*
%TO.C,C9*%
X8585200Y-656500D03*
X8585200Y1418500D03*
%TD*%
D47*
%TO.C,R12*%
X-2186300Y-11430000D03*
X-4011300Y-11430000D03*
%TD*%
D45*
%TO.C,C4*%
X-46900Y-3200400D03*
X2028100Y-3200400D03*
%TD*%
D48*
%TO.C,J8*%
X10998200Y-15697200D03*
D49*
X10998200Y-17697201D03*
%TD*%
D27*
%TO.C,D11*%
X-1574800Y-17759999D03*
X-1574800Y-15260001D03*
%TD*%
D32*
%TO.C,JP2*%
X-3847001Y-9093200D03*
D33*
X-5296999Y-9093200D03*
%TD*%
D50*
%TO.C,R1*%
X840100Y-8128000D03*
X2665100Y-8128000D03*
%TD*%
D51*
%TO.C,D12*%
X-152400Y-9926001D03*
X-152400Y-12425999D03*
%TD*%
D52*
%TO.C,C3*%
X10820400Y1418500D03*
X10820400Y-656500D03*
%TD*%
D53*
%TO.C,U4*%
X-8082700Y12365899D03*
X-8082700Y11415900D03*
X-8082700Y10465901D03*
X-10357700Y10465901D03*
X-10357700Y12365899D03*
%TD*%
D51*
%TO.C,D5*%
X-12547600Y-17546001D03*
X-12547600Y-20045999D03*
%TD*%
D54*
%TO.C,R11*%
X-11125200Y-6652900D03*
X-11125200Y-4827900D03*
%TD*%
D55*
%TO.C,R3*%
X-8245600Y8178800D03*
X-10245600Y8178800D03*
%TD*%
D30*
%TO.C,R19*%
X12411200Y-4038600D03*
X14411200Y-4038600D03*
%TD*%
D56*
%TO.C,D6*%
X17729200Y9293401D03*
X17729200Y12093399D03*
%TD*%
D57*
%TO.C,D8*%
X13817600Y1577799D03*
X13817600Y-1222199D03*
%TD*%
D47*
%TO.C,R21*%
X-7420600Y-6959600D03*
X-9245600Y-6959600D03*
%TD*%
D29*
%TO.C,R6*%
X-9982200Y-17846800D03*
X-9982200Y-19846800D03*
%TD*%
D58*
%TO.C,C1*%
X802601Y-6324600D03*
X2702599Y-6324600D03*
%TD*%
D59*
%TO.C,D4*%
X-10286000Y-1574800D03*
X-6986000Y-1574800D03*
%TD*%
D60*
%TO.C,U3*%
X-3657600Y-223598D03*
X-3657600Y726401D03*
X-3657600Y1676400D03*
X-1382600Y1676400D03*
X-1382600Y-223598D03*
%TD*%
D61*
%TO.C,Q1*%
X-8316000Y4087100D03*
X-6416000Y4087100D03*
X-7366000Y2212099D03*
%TD*%
D27*
%TO.C,D9*%
X-5689600Y-20325399D03*
X-5689600Y-17825401D03*
%TD*%
D58*
%TO.C,C11*%
X-9333899Y-4978400D03*
X-7433901Y-4978400D03*
%TD*%
D47*
%TO.C,R20*%
X-3481700Y-6934200D03*
X-5306700Y-6934200D03*
%TD*%
%TO.C,R2*%
X4239900Y-12674600D03*
X2414900Y-12674600D03*
%TD*%
D62*
X-12166600Y2946400D03*
X19278600Y-7747000D03*
X18592800Y-127000D03*
X-6502400Y13106400D03*
X21310600Y-7747000D03*
X-13792200Y-18669000D03*
X18592800Y889000D03*
X18592800Y-1193800D03*
X22377400Y-7747000D03*
X20294600Y-7747000D03*
X-2590800Y-14122400D03*
X2510700Y-4521200D03*
X11633200Y-2438400D03*
X-12598400Y10464800D03*
X-6654800Y7721600D03*
X-685800Y-13944600D03*
X-11531600Y-7797800D03*
D63*
X1803400Y13944600D03*
D62*
X-1498600Y-9779000D03*
X-21488400Y4927600D03*
X-21488400Y7772400D03*
X-18567400Y11938000D03*
X-12496800Y-127000D03*
X-12446000Y-1422400D03*
X-12903200Y-5130800D03*
X-12496800Y-2895600D03*
X-2463800Y-8966200D03*
X-10210800Y-3302000D03*
X-254000Y-18262600D03*
X-7696200Y-19786600D03*
X-21437600Y2540000D03*
X-21539200Y0D03*
X-7747000Y-20955000D03*
X-14122400Y9321800D03*
X-3048000Y-16611600D03*
X1244600Y-1117600D03*
X-5181600Y2667000D03*
X-15290800Y10845800D03*
%LPD*%
M02*
