%TF.GenerationSoftware,KiCad,Pcbnew,8.0.8*%
%TF.CreationDate,2025-02-25T00:33:20+03:00*%
%TF.ProjectId,SMHome_UniversalRound_ESP32_C3_Mini_v3,534d486f-6d65-45f5-956e-697665727361,12*%
%TF.SameCoordinates,Original*%
%TF.FileFunction,Copper,L1,Top*%
%TF.FilePolarity,Positive*%
%FSLAX46Y46*%
G04 Gerber Fmt 4.6, Leading zero omitted, Abs format (unit mm)*
G04 Created by KiCad (PCBNEW 8.0.8) date 2025-02-25 00:33:20*
%MOMM*%
%LPD*%
G01*
G04 APERTURE LIST*
G04 Aperture macros list*
%AMRoundRect*
0 Rectangle with rounded corners*
0 $1 Rounding radius*
0 $2 $3 $4 $5 $6 $7 $8 $9 X,Y pos of 4 corners*
0 Add a 4 corners polygon primitive as box body*
4,1,4,$2,$3,$4,$5,$6,$7,$8,$9,$2,$3,0*
0 Add four circle primitives for the rounded corners*
1,1,$1+$1,$2,$3*
1,1,$1+$1,$4,$5*
1,1,$1+$1,$6,$7*
1,1,$1+$1,$8,$9*
0 Add four rect primitives between the rounded corners*
20,1,$1+$1,$2,$3,$4,$5,0*
20,1,$1+$1,$4,$5,$6,$7,0*
20,1,$1+$1,$6,$7,$8,$9,0*
20,1,$1+$1,$8,$9,$2,$3,0*%
G04 Aperture macros list end*
%TA.AperFunction,ComponentPad*%
%ADD10R,1.700000X1.700000*%
%TD*%
%TA.AperFunction,ComponentPad*%
%ADD11O,1.700000X1.700000*%
%TD*%
%TA.AperFunction,ComponentPad*%
%ADD12C,2.400000*%
%TD*%
%TA.AperFunction,ComponentPad*%
%ADD13O,2.400000X2.400000*%
%TD*%
%TA.AperFunction,SMDPad,CuDef*%
%ADD14RoundRect,0.175000X0.175000X0.425000X-0.175000X0.425000X-0.175000X-0.425000X0.175000X-0.425000X0*%
%TD*%
%TA.AperFunction,SMDPad,CuDef*%
%ADD15RoundRect,0.190000X-0.190000X-0.410000X0.190000X-0.410000X0.190000X0.410000X-0.190000X0.410000X0*%
%TD*%
%TA.AperFunction,SMDPad,CuDef*%
%ADD16RoundRect,0.200000X-0.200000X-0.400000X0.200000X-0.400000X0.200000X0.400000X-0.200000X0.400000X0*%
%TD*%
%TA.AperFunction,SMDPad,CuDef*%
%ADD17RoundRect,0.175000X-0.175000X-0.425000X0.175000X-0.425000X0.175000X0.425000X-0.175000X0.425000X0*%
%TD*%
%TA.AperFunction,SMDPad,CuDef*%
%ADD18RoundRect,0.190000X0.190000X0.410000X-0.190000X0.410000X-0.190000X-0.410000X0.190000X-0.410000X0*%
%TD*%
%TA.AperFunction,SMDPad,CuDef*%
%ADD19RoundRect,0.200000X0.200000X0.400000X-0.200000X0.400000X-0.200000X-0.400000X0.200000X-0.400000X0*%
%TD*%
%TA.AperFunction,HeatsinkPad*%
%ADD20O,1.100000X1.700000*%
%TD*%
%TA.AperFunction,ComponentPad*%
%ADD21C,2.200000*%
%TD*%
%TA.AperFunction,SMDPad,CuDef*%
%ADD22RoundRect,0.237500X-0.287500X-0.237500X0.287500X-0.237500X0.287500X0.237500X-0.287500X0.237500X0*%
%TD*%
%TA.AperFunction,ComponentPad*%
%ADD23R,1.600000X1.600000*%
%TD*%
%TA.AperFunction,ComponentPad*%
%ADD24C,1.600000*%
%TD*%
%TA.AperFunction,ComponentPad*%
%ADD25C,2.600000*%
%TD*%
%TA.AperFunction,SMDPad,CuDef*%
%ADD26RoundRect,0.381000X-0.762000X-0.381000X0.762000X-0.381000X0.762000X0.381000X-0.762000X0.381000X0*%
%TD*%
%TA.AperFunction,SMDPad,CuDef*%
%ADD27RoundRect,0.381000X-0.869000X-0.381000X0.869000X-0.381000X0.869000X0.381000X-0.869000X0.381000X0*%
%TD*%
%TA.AperFunction,ComponentPad*%
%ADD28C,2.500000*%
%TD*%
%TA.AperFunction,ComponentPad*%
%ADD29R,1.650000X1.650000*%
%TD*%
%TA.AperFunction,ComponentPad*%
%ADD30C,1.800000*%
%TD*%
%TA.AperFunction,SMDPad,CuDef*%
%ADD31RoundRect,0.150000X-0.150000X-0.625000X0.150000X-0.625000X0.150000X0.625000X-0.150000X0.625000X0*%
%TD*%
%TA.AperFunction,SMDPad,CuDef*%
%ADD32RoundRect,0.250000X-0.350000X-0.650000X0.350000X-0.650000X0.350000X0.650000X-0.350000X0.650000X0*%
%TD*%
%TA.AperFunction,ComponentPad*%
%ADD33RoundRect,0.250000X-0.625000X0.350000X-0.625000X-0.350000X0.625000X-0.350000X0.625000X0.350000X0*%
%TD*%
%TA.AperFunction,ComponentPad*%
%ADD34O,1.750000X1.200000*%
%TD*%
%TA.AperFunction,ViaPad*%
%ADD35C,0.800000*%
%TD*%
%TA.AperFunction,ViaPad*%
%ADD36C,1.500000*%
%TD*%
%TA.AperFunction,Conductor*%
%ADD37C,0.600000*%
%TD*%
%TA.AperFunction,Conductor*%
%ADD38C,1.500000*%
%TD*%
%TA.AperFunction,Conductor*%
%ADD39C,0.250000*%
%TD*%
%TA.AperFunction,Conductor*%
%ADD40C,1.000000*%
%TD*%
%TA.AperFunction,Conductor*%
%ADD41C,0.800000*%
%TD*%
%TA.AperFunction,Conductor*%
%ADD42C,0.200000*%
%TD*%
%TA.AperFunction,Conductor*%
%ADD43C,0.400000*%
%TD*%
G04 APERTURE END LIST*
D10*
%TO.P,J1,1,Pin_1*%
%TO.N,Net-(D1-K)*%
X1903600Y-15316200D03*
D11*
%TO.P,J1,2,Pin_2*%
%TO.N,+3V3*%
X4443600Y-15316200D03*
%TO.P,J1,3,Pin_3*%
%TO.N,GND*%
X6983599Y-15316200D03*
%TD*%
D12*
%TO.P,R5,1*%
%TO.N,Net-(D6-A)*%
X14376400Y11226800D03*
D13*
%TO.P,R5,2*%
%TO.N,+220*%
X14376400Y6146801D03*
%TD*%
D14*
%TO.P,J7,A5,CC1*%
%TO.N,unconnected-(J7-CC1-PadA5)*%
X-7729600Y16300201D03*
D15*
%TO.P,J7,A9,VBUS*%
%TO.N,+5V*%
X-9749600Y16300200D03*
D16*
%TO.P,J7,A12,GND*%
%TO.N,GND*%
X-10979600Y16300200D03*
D17*
%TO.P,J7,B5,CC2*%
%TO.N,unconnected-(J7-CC2-PadB5)*%
X-8729600Y16300201D03*
D18*
%TO.P,J7,B9,VBUS*%
%TO.N,+5V*%
X-6709600Y16300200D03*
D19*
%TO.P,J7,B12,GND*%
%TO.N,GND*%
X-5479600Y16300200D03*
D20*
%TO.P,J7,S1,SHIELD*%
X-3909600Y16380200D03*
X-3909600Y20180200D03*
X-12549600Y16380200D03*
X-12549600Y20180200D03*
%TD*%
D21*
%TO.P,F1,1*%
%TO.N,L*%
X10261600Y11861800D03*
%TO.P,F1,2*%
%TO.N,L_fuse*%
X7061200Y6324600D03*
%TD*%
%TO.P,TP4,1,1*%
%TO.N,unconnected-(TP4-Pad1)*%
X16306800Y16281400D03*
%TD*%
D22*
%TO.P,D3,1,K*%
%TO.N,Net-(D3-K)*%
X-5142199Y13716000D03*
%TO.P,D3,2,A*%
%TO.N,+5V*%
X-3392201Y13716000D03*
%TD*%
D23*
%TO.P,C5,1*%
%TO.N,+5V*%
X4876800Y-635000D03*
D24*
%TO.P,C5,2*%
%TO.N,GND*%
X4876800Y1865000D03*
%TD*%
D21*
%TO.P,TP2,1,1*%
%TO.N,unconnected-(TP2-Pad1)*%
X16256000Y-16281400D03*
%TD*%
D25*
%TO.P,L1,1*%
%TO.N,Net-(D7-K)*%
X8788400Y-5511800D03*
%TO.P,L1,2*%
%TO.N,+5V*%
X7078299Y-10210263D03*
%TD*%
D23*
%TO.P,C2,1*%
%TO.N,Net-(D6-K)*%
X17881600Y6578600D03*
D24*
%TO.P,C2,2*%
%TO.N,GND*%
X21681600Y6578600D03*
%TD*%
D21*
%TO.P,TP5,1,1*%
%TO.N,unconnected-(TP5-Pad1)*%
X-16256000Y16281400D03*
%TD*%
D26*
%TO.P,U1,0,GPIO0/A0*%
%TO.N,ADC1*%
X-1172700Y-7620000D03*
%TO.P,U1,1,GPIO1/A1*%
%TO.N,ADC3*%
X-1172700Y-5080000D03*
%TO.P,U1,2,GPIO2/A2*%
%TO.N,unconnected-(U1-GPIO2{slash}A2-Pad2)*%
X-1172700Y-2540000D03*
%TO.P,U1,3,GPIO3/A3*%
%TO.N,ADC2*%
X-1172700Y-1D03*
%TO.P,U1,4,GPIO4/A4*%
%TO.N,SCK*%
X-1172700Y2540001D03*
D27*
%TO.P,U1,5,GPIO5/A5*%
%TO.N,MISO*%
X-19172700Y10160000D03*
%TO.P,U1,6,GPIO6*%
%TO.N,MOSI*%
X-19172700Y7620000D03*
%TO.P,U1,7,GPIO7*%
%TO.N,SS*%
X-19172700Y5080000D03*
%TO.P,U1,8,SDA/GPIO8*%
%TO.N,SDA*%
X-19172700Y2540001D03*
%TO.P,U1,9,SCL/GPIO9*%
%TO.N,SCL*%
X-19172700Y-1D03*
%TO.P,U1,10,GPIO10*%
%TO.N,LED_PWM*%
X-19172700Y-2540000D03*
%TO.P,U1,20,GPIO20/RX*%
%TO.N,D{slash}C*%
X-19172700Y-5080000D03*
%TO.P,U1,21,GPIO21/TX*%
%TO.N,RST*%
X-19172700Y-7620000D03*
D26*
%TO.P,U1,P3,P1*%
%TO.N,+3V3*%
X-1172700Y5080000D03*
%TO.P,U1,P5,VCC_5V*%
%TO.N,VCC*%
X-1172700Y10160000D03*
%TO.P,U1,PG,GND*%
%TO.N,GND*%
X-1172700Y7620000D03*
%TD*%
D28*
%TO.P,J4,1,Pin_1*%
%TO.N,L*%
X10080000Y18008600D03*
%TO.P,J4,2,Pin_2*%
%TO.N,N*%
X5080000Y18008600D03*
%TO.P,J4,3,Pin_3*%
%TO.N,GND*%
X80000Y18008600D03*
%TD*%
D10*
%TO.P,J5,1,Pin_1*%
%TO.N,Net-(D11-K)*%
X1903600Y-17856200D03*
D11*
%TO.P,J5,2,Pin_2*%
%TO.N,+3V3*%
X4443600Y-17856200D03*
%TO.P,J5,3,Pin_3*%
%TO.N,GND*%
X6983599Y-17856200D03*
%TD*%
D24*
%TO.P,VR1,1*%
%TO.N,L_fuse*%
X3581400Y6669400D03*
%TO.P,VR1,2*%
%TO.N,N*%
X4781400Y11669400D03*
%TD*%
D21*
%TO.P,TP3,1,1*%
%TO.N,unconnected-(TP3-Pad1)*%
X-16256000Y-16281400D03*
%TD*%
D29*
%TO.P,J2,1,Pin_1*%
%TO.N,Net-(D11-K)*%
X-636400Y-20396200D03*
D30*
%TO.P,J2,2,Pin_2*%
%TO.N,Net-(D12-K)*%
X1903600Y-20396200D03*
%TO.P,J2,3,Pin_3*%
%TO.N,+3V3*%
X4443600Y-20396200D03*
%TO.P,J2,4,Pin_4*%
%TO.N,GND*%
X6983600Y-20396200D03*
%TD*%
D31*
%TO.P,J6,1,Pin_1*%
%TO.N,GND*%
X-8688200Y-17608800D03*
%TO.P,J6,2,Pin_2*%
%TO.N,+3V3*%
X-7688200Y-17608800D03*
%TO.P,J6,3,Pin_3*%
%TO.N,SDA*%
X-6688200Y-17608800D03*
%TO.P,J6,4,Pin_4*%
%TO.N,SCL*%
X-5688200Y-17608800D03*
D32*
%TO.P,J6,MP*%
%TO.N,N/C*%
X-9988200Y-21483800D03*
X-4388200Y-21483800D03*
%TD*%
D33*
%TO.P,J8,1,Pin_1*%
%TO.N,GND*%
X10998200Y-15697200D03*
D34*
%TO.P,J8,2,Pin_2*%
%TO.N,Net-(J8-Pin_2)*%
X10998200Y-17697201D03*
%TD*%
D35*
%TO.N,GND*%
X-12166600Y2946400D03*
X19278600Y-7747000D03*
X18592800Y-127000D03*
X-6502400Y13106400D03*
X21310600Y-7747000D03*
X-13792200Y-18669000D03*
X18592800Y889000D03*
X18592800Y-1193800D03*
X22377400Y-7747000D03*
X20294600Y-7747000D03*
X-2590800Y-14122400D03*
X2510700Y-4521200D03*
%TO.N,+5V*%
X11633200Y-2438400D03*
X-12598400Y10464800D03*
X-6654800Y7721600D03*
%TO.N,Net-(D11-K)*%
X-685800Y-13944600D03*
X-11531600Y-7797800D03*
D36*
%TO.N,+220*%
X1803400Y13944600D03*
D35*
%TO.N,ADC3*%
X-1498600Y-9779000D03*
%TO.N,SS*%
X-21488400Y4927600D03*
%TO.N,MOSI*%
X-21488400Y7772400D03*
%TO.N,MISO*%
X-18567400Y11938000D03*
%TO.N,SCK*%
X-12496800Y-127000D03*
%TO.N,LED_PWM*%
X-12446000Y-1422400D03*
%TO.N,RST*%
X-12903200Y-5130800D03*
%TO.N,D{slash}C*%
X-12496800Y-2895600D03*
%TO.N,ADC1*%
X-2463800Y-8966200D03*
%TO.N,ADC2*%
X-10210800Y-3302000D03*
%TO.N,Net-(D12-K)*%
X-254000Y-18262600D03*
%TO.N,SDA*%
X-7696200Y-19786600D03*
X-21437600Y2540000D03*
%TO.N,SCL*%
X-21539200Y0D03*
X-7747000Y-20955000D03*
%TO.N,+3V3*%
X-14122400Y9321800D03*
X-3048000Y-16611600D03*
X1244600Y-1117600D03*
%TO.N,VCC*%
X-5181600Y2667000D03*
%TO.N,Net-(D3-K)*%
X-15290800Y10845800D03*
%TD*%
D37*
%TO.N,GND*%
X6983599Y-15316200D02*
X7262999Y-15595600D01*
X7262999Y-15595600D02*
X10896600Y-15595600D01*
X10896600Y-15595600D02*
X10998200Y-15697200D01*
X-870400Y7620000D02*
X4876800Y1872800D01*
X-8688200Y-16833801D02*
X-5976799Y-14122400D01*
X4151000Y1865000D02*
X4876800Y1865000D01*
D38*
X21681600Y6238400D02*
X21681600Y6578600D01*
D37*
X-228600Y7620000D02*
X914400Y8763000D01*
D38*
X17308200Y1865000D02*
X21681600Y6238400D01*
D37*
X914400Y11836400D02*
X-787400Y13538200D01*
X4876800Y1872800D02*
X4876800Y1865000D01*
X-787400Y13538200D02*
X-787400Y17141200D01*
X7112000Y-17551400D02*
X7010400Y-17653000D01*
X-1172700Y7620000D02*
X-228600Y7620000D01*
D38*
X4876800Y1865000D02*
X17308200Y1865000D01*
D37*
X-787400Y17141200D02*
X80000Y18008600D01*
X-8688200Y-17608800D02*
X-8688200Y-16833801D01*
X2510700Y-4521200D02*
X2510700Y224700D01*
X2510700Y-4521200D02*
X2510700Y-10843301D01*
X-8688200Y-17608800D02*
X-12732000Y-17608800D01*
X914400Y8763000D02*
X914400Y11836400D01*
X2510700Y224700D02*
X4151000Y1865000D01*
X-5976799Y-14122400D02*
X-2590800Y-14122400D01*
X-12732000Y-17608800D02*
X-13792200Y-18669000D01*
X2510700Y-10843301D02*
X6983599Y-15316200D01*
X-1172700Y7620000D02*
X-870400Y7620000D01*
D39*
%TO.N,+5V*%
X-6709600Y15472600D02*
X-6146800Y14909800D01*
D40*
X11633200Y-2438400D02*
X11582400Y-2438400D01*
X9779000Y-635000D02*
X4876800Y-635000D01*
D39*
X-6146800Y14909800D02*
X-4586001Y14909800D01*
D40*
X11582400Y-2438400D02*
X9779000Y-635000D01*
D41*
X-6709600Y15261400D02*
X-6709600Y16300200D01*
X-6654800Y7721600D02*
X-8559800Y9626600D01*
X-8940800Y13639800D02*
X-9749600Y14448600D01*
D37*
X6493562Y-10795000D02*
X7078299Y-10210263D01*
D41*
X-8331200Y13639800D02*
X-8940800Y13639800D01*
X-7768400Y14202600D02*
X-8331200Y13639800D01*
D39*
X-4586001Y14909800D02*
X-3392201Y13716000D01*
X7078299Y-10210263D02*
X7976137Y-10210263D01*
D41*
X-8559800Y13411200D02*
X-7768400Y14202600D01*
D40*
X4876800Y-8008764D02*
X7078299Y-10210263D01*
X-9398000Y10464800D02*
X-6654800Y7721600D01*
X4876800Y-635000D02*
X4876800Y-8008764D01*
X-12598400Y10464800D02*
X-9398000Y10464800D01*
D41*
X-7768400Y14202600D02*
X-6709600Y15261400D01*
X-9749600Y14448600D02*
X-9749600Y16300200D01*
X-8559800Y9626600D02*
X-8559800Y13411200D01*
D39*
X-6709600Y16300200D02*
X-6709600Y15472600D01*
D42*
%TO.N,Net-(D11-K)*%
X-4978400Y-7797800D02*
X-11531600Y-7797800D01*
X-685800Y-12090400D02*
X-4978400Y-7797800D01*
X-636400Y-20396200D02*
X-750800Y-20281800D01*
X-685800Y-13944600D02*
X-685800Y-12090400D01*
D40*
%TO.N,+220*%
X1803400Y13944600D02*
X2413000Y13335000D01*
X13995400Y6146801D02*
X14376400Y6146801D01*
X2413000Y13335000D02*
X2413000Y10134600D01*
X3327400Y9220200D02*
X10922001Y9220200D01*
X2413000Y10134600D02*
X3327400Y9220200D01*
X10922001Y9220200D02*
X13995400Y6146801D01*
%TO.N,L_fuse*%
X6614800Y6517000D02*
X6807200Y6324600D01*
X3581400Y6669400D02*
X3733800Y6517000D01*
X3733800Y6517000D02*
X6614800Y6517000D01*
D38*
%TO.N,N*%
X4781400Y17710000D02*
X5080000Y18008600D01*
X4781400Y11669400D02*
X4781400Y17710000D01*
%TO.N,L*%
X10261600Y11861800D02*
X10261600Y17827000D01*
X10261600Y17827000D02*
X10080000Y18008600D01*
D42*
%TO.N,ADC3*%
X-1498600Y-9779000D02*
X-736600Y-9779000D01*
X558800Y-8483600D02*
X558800Y-6248400D01*
X558800Y-6248400D02*
X-609600Y-5080000D01*
X-609600Y-5080000D02*
X-1172700Y-5080000D01*
X-736600Y-9779000D02*
X558800Y-8483600D01*
D39*
%TO.N,SS*%
X-21488400Y4927600D02*
X-19325100Y4927600D01*
X-19325100Y4927600D02*
X-19172700Y5080000D01*
%TO.N,MOSI*%
X-19325100Y7772400D02*
X-19172700Y7620000D01*
X-21488400Y7772400D02*
X-19325100Y7772400D01*
%TO.N,MISO*%
X-18567400Y11938000D02*
X-18567400Y10765300D01*
X-18567400Y10765300D02*
X-19172700Y10160000D01*
%TO.N,SCK*%
X-2747501Y965200D02*
X-1172700Y2540001D01*
X-11404600Y965200D02*
X-2747501Y965200D01*
X-12496800Y-127000D02*
X-11404600Y965200D01*
%TO.N,LED_PWM*%
X-12446000Y-1422400D02*
X-13563600Y-2540000D01*
X-13563600Y-2540000D02*
X-19172700Y-2540000D01*
%TO.N,RST*%
X-12903200Y-5130800D02*
X-12903200Y-5181600D01*
X-15341600Y-7620000D02*
X-19172700Y-7620000D01*
X-12903200Y-5181600D02*
X-15341600Y-7620000D01*
%TO.N,D{slash}C*%
X-14681200Y-5080000D02*
X-19172700Y-5080000D01*
X-12496800Y-2895600D02*
X-14681200Y-5080000D01*
%TO.N,ADC1*%
X-2463800Y-8911100D02*
X-1172700Y-7620000D01*
X-2463800Y-8966200D02*
X-2463800Y-8911100D01*
%TO.N,ADC2*%
X-10210800Y-1498600D02*
X-8712201Y-1D01*
X-10210800Y-3302000D02*
X-10210800Y-1498600D01*
X-8712201Y-1D02*
X-1172700Y-1D01*
%TO.N,Net-(D12-K)*%
X558800Y-19051400D02*
X1903600Y-20396200D01*
X534800Y-19051400D02*
X558800Y-19051400D01*
X-254000Y-18262600D02*
X534800Y-19051400D01*
%TO.N,SDA*%
X-21437600Y2540000D02*
X-21437599Y2540001D01*
X-21437599Y2540001D02*
X-19172700Y2540001D01*
D42*
X-7393000Y-19610400D02*
X-6688200Y-18905600D01*
X-6688200Y-18905600D02*
X-6688200Y-17608800D01*
X-7520000Y-19610400D02*
X-7393000Y-19610400D01*
X-7696200Y-19786600D02*
X-7520000Y-19610400D01*
D39*
%TO.N,SCL*%
X-21031201Y-1D02*
X-19172700Y-1D01*
X-7162800Y-20955000D02*
X-5688200Y-19480400D01*
X-21539200Y0D02*
X-21031202Y0D01*
X-21031202Y0D02*
X-21031201Y-1D01*
X-5688200Y-19480400D02*
X-5688200Y-17608800D01*
X-7747000Y-20955000D02*
X-7162800Y-20955000D01*
D37*
%TO.N,+3V3*%
X-4485700Y1767000D02*
X-6339000Y1767000D01*
D39*
X-7688200Y-16883000D02*
X-7314000Y-16508800D01*
D43*
X4443600Y-15316200D02*
X4443600Y-15571600D01*
D39*
X-3048000Y-16611600D02*
X-2997200Y-16560800D01*
D37*
X1371600Y-11277600D02*
X4443600Y-14349600D01*
D39*
X-609600Y-16560800D02*
X304800Y-15646400D01*
D37*
X1371600Y-1244600D02*
X1371600Y-11277600D01*
D39*
X304800Y-15646400D02*
X304800Y-12344400D01*
D37*
X1244600Y-1117600D02*
X1371600Y-1244600D01*
D39*
X-7314000Y-16508800D02*
X-3150800Y-16508800D01*
D37*
X4443600Y-14349600D02*
X4443600Y-15316200D01*
X4443600Y-17856200D02*
X4443600Y-20396200D01*
D39*
X-7688200Y-17608800D02*
X-7688200Y-16883000D01*
D37*
X-508000Y5080000D02*
X-1172700Y5080000D01*
X1244600Y-1117600D02*
X1371600Y-990600D01*
X1371600Y-990600D02*
X1371600Y3200400D01*
X-6339000Y1767000D02*
X-9499600Y4927600D01*
X-14122400Y9321800D02*
X-13893800Y9321800D01*
X-1172700Y5080000D02*
X-4485700Y1767000D01*
X-13893800Y9321800D02*
X-9499600Y4927600D01*
D39*
X304800Y-12344400D02*
X1371600Y-11277600D01*
X-2997200Y-16560800D02*
X-609600Y-16560800D01*
D37*
X4443600Y-17856200D02*
X4443600Y-15316200D01*
D39*
X-3150800Y-16508800D02*
X-3048000Y-16611600D01*
D37*
X1371600Y3200400D02*
X-508000Y5080000D01*
%TO.N,VCC*%
X-3276600Y9448800D02*
X-2565400Y10160000D01*
X-5181600Y3352800D02*
X-3276600Y5257800D01*
X-2565400Y10160000D02*
X-1172700Y10160000D01*
X-5181600Y2667000D02*
X-5181600Y3352800D01*
X-3276600Y5257800D02*
X-3276600Y9448800D01*
D42*
%TO.N,Net-(D3-K)*%
X-10341000Y6912000D02*
X-5762600Y6912000D01*
X-14274800Y10845800D02*
X-10341000Y6912000D01*
X-5142199Y7532401D02*
X-5142199Y13716000D01*
X-5762600Y6912000D02*
X-5142199Y7532401D01*
X-15290800Y10845800D02*
X-14274800Y10845800D01*
%TD*%
%TA.AperFunction,Conductor*%
%TO.N,GND*%
G36*
X-20867146Y10588545D02*
G01*
X-20828658Y10530231D01*
X-20823200Y10493849D01*
X-20823200Y9735108D01*
X-20808429Y9604006D01*
X-20750262Y9437771D01*
X-20656572Y9288666D01*
X-20656567Y9288660D01*
X-20532041Y9164134D01*
X-20532035Y9164129D01*
X-20382930Y9070439D01*
X-20338613Y9054933D01*
X-20216700Y9012273D01*
X-20216696Y9012273D01*
X-20216694Y9012272D01*
X-20210639Y9010889D01*
X-20149663Y8976776D01*
X-20116810Y8915113D01*
X-20122509Y8845476D01*
X-20164953Y8789975D01*
X-20210639Y8769111D01*
X-20216694Y8767729D01*
X-20382930Y8709562D01*
X-20532035Y8615872D01*
X-20532041Y8615867D01*
X-20656567Y8491341D01*
X-20656569Y8491338D01*
X-20735408Y8365868D01*
X-20787743Y8319577D01*
X-20856796Y8308930D01*
X-20920645Y8337305D01*
X-20928082Y8344160D01*
X-20986138Y8402216D01*
X-21138877Y8498189D01*
X-21309146Y8557769D01*
X-21309151Y8557770D01*
X-21488396Y8577965D01*
X-21488404Y8577965D01*
X-21667650Y8557770D01*
X-21667655Y8557769D01*
X-21837924Y8498189D01*
X-21990663Y8402216D01*
X-22118216Y8274663D01*
X-22214189Y8121924D01*
X-22273769Y7951655D01*
X-22273770Y7951650D01*
X-22293965Y7772404D01*
X-22293965Y7772397D01*
X-22273770Y7593151D01*
X-22273769Y7593146D01*
X-22214189Y7422877D01*
X-22129436Y7287994D01*
X-22118216Y7270138D01*
X-21990662Y7142584D01*
X-21982421Y7137406D01*
X-21865597Y7064000D01*
X-21837922Y7046611D01*
X-21762798Y7020324D01*
X-21667655Y6987032D01*
X-21667650Y6987031D01*
X-21488404Y6966835D01*
X-21488400Y6966835D01*
X-21488396Y6966835D01*
X-21309151Y6987031D01*
X-21309148Y6987032D01*
X-21309145Y6987032D01*
X-21138878Y7046611D01*
X-20994378Y7137407D01*
X-20927143Y7156407D01*
X-20860308Y7136040D01*
X-20815093Y7082772D01*
X-20810999Y7070477D01*
X-20810726Y7070572D01*
X-20808428Y7064003D01*
X-20808427Y7064000D01*
X-20802342Y7046611D01*
X-20750262Y6897771D01*
X-20656572Y6748666D01*
X-20656567Y6748660D01*
X-20532041Y6624134D01*
X-20532035Y6624129D01*
X-20382930Y6530439D01*
X-20349638Y6518790D01*
X-20216700Y6472273D01*
X-20216696Y6472273D01*
X-20216694Y6472272D01*
X-20210639Y6470889D01*
X-20149663Y6436776D01*
X-20116810Y6375113D01*
X-20122509Y6305476D01*
X-20164953Y6249975D01*
X-20210639Y6229111D01*
X-20216694Y6227729D01*
X-20382930Y6169562D01*
X-20532035Y6075872D01*
X-20532041Y6075867D01*
X-20656567Y5951341D01*
X-20656572Y5951335D01*
X-20750262Y5802230D01*
X-20790885Y5686132D01*
X-20808427Y5636000D01*
X-20808428Y5635998D01*
X-20810726Y5629428D01*
X-20812975Y5630215D01*
X-20841663Y5578979D01*
X-20903339Y5546148D01*
X-20972974Y5551874D01*
X-20994379Y5562594D01*
X-21138877Y5653389D01*
X-21309146Y5712969D01*
X-21309151Y5712970D01*
X-21488396Y5733165D01*
X-21488404Y5733165D01*
X-21667650Y5712970D01*
X-21667655Y5712969D01*
X-21837924Y5653389D01*
X-21990663Y5557416D01*
X-22118216Y5429863D01*
X-22214189Y5277124D01*
X-22273769Y5106855D01*
X-22273770Y5106850D01*
X-22293965Y4927604D01*
X-22293965Y4927597D01*
X-22273770Y4748351D01*
X-22273769Y4748346D01*
X-22214189Y4578077D01*
X-22180210Y4524000D01*
X-22118216Y4425338D01*
X-21990662Y4297784D01*
X-21990660Y4297783D01*
X-21848826Y4208662D01*
X-21837922Y4201811D01*
X-21667655Y4142232D01*
X-21667650Y4142231D01*
X-21488404Y4122035D01*
X-21488400Y4122035D01*
X-21488396Y4122035D01*
X-21309151Y4142231D01*
X-21309148Y4142232D01*
X-21309145Y4142232D01*
X-21138878Y4201811D01*
X-20986138Y4297784D01*
X-20928079Y4355844D01*
X-20866760Y4389326D01*
X-20797068Y4384342D01*
X-20741134Y4342471D01*
X-20735408Y4334133D01*
X-20656569Y4208662D01*
X-20532041Y4084134D01*
X-20532035Y4084129D01*
X-20382930Y3990439D01*
X-20322506Y3969296D01*
X-20216700Y3932273D01*
X-20216697Y3932273D01*
X-20210645Y3930891D01*
X-20149668Y3896780D01*
X-20116813Y3835117D01*
X-20122511Y3765480D01*
X-20164953Y3709978D01*
X-20210636Y3689113D01*
X-20216694Y3687730D01*
X-20382930Y3629563D01*
X-20532035Y3535873D01*
X-20532041Y3535868D01*
X-20656567Y3411342D01*
X-20656572Y3411336D01*
X-20750263Y3262229D01*
X-20750264Y3262226D01*
X-20758775Y3237904D01*
X-20799498Y3181129D01*
X-20864452Y3155384D01*
X-20933013Y3168842D01*
X-20941787Y3173868D01*
X-21088077Y3265789D01*
X-21258346Y3325369D01*
X-21258351Y3325370D01*
X-21437596Y3345565D01*
X-21437604Y3345565D01*
X-21616850Y3325370D01*
X-21616855Y3325369D01*
X-21787124Y3265789D01*
X-21939863Y3169816D01*
X-22067416Y3042263D01*
X-22163389Y2889524D01*
X-22222969Y2719255D01*
X-22222970Y2719250D01*
X-22243165Y2540004D01*
X-22243165Y2539997D01*
X-22222970Y2360751D01*
X-22222969Y2360746D01*
X-22163389Y2190477D01*
X-22113202Y2110606D01*
X-22067416Y2037738D01*
X-21939862Y1910184D01*
X-21867949Y1864998D01*
X-21787745Y1814602D01*
X-21787122Y1814211D01*
X-21628924Y1758855D01*
X-21616855Y1754632D01*
X-21616850Y1754631D01*
X-21437604Y1734435D01*
X-21437600Y1734435D01*
X-21437596Y1734435D01*
X-21258351Y1754631D01*
X-21258348Y1754632D01*
X-21258345Y1754632D01*
X-21088078Y1814211D01*
X-21087455Y1814602D01*
X-21028735Y1851499D01*
X-20941784Y1906134D01*
X-20874550Y1925134D01*
X-20807715Y1904767D01*
X-20762501Y1851499D01*
X-20758773Y1842095D01*
X-20750263Y1817775D01*
X-20750263Y1817774D01*
X-20656572Y1668667D01*
X-20656567Y1668661D01*
X-20532041Y1544135D01*
X-20532035Y1544130D01*
X-20382930Y1450440D01*
X-20338613Y1434934D01*
X-20216700Y1392274D01*
X-20216696Y1392274D01*
X-20216694Y1392273D01*
X-20210635Y1390889D01*
X-20149659Y1356776D01*
X-20116805Y1295112D01*
X-20122506Y1225475D01*
X-20164949Y1169975D01*
X-20210635Y1149111D01*
X-20216694Y1147728D01*
X-20382930Y1089561D01*
X-20532035Y995871D01*
X-20532041Y995866D01*
X-20656567Y871340D01*
X-20656572Y871334D01*
X-20750263Y722227D01*
X-20750263Y722226D01*
X-20783348Y627674D01*
X-20824069Y570898D01*
X-20889022Y545151D01*
X-20957584Y558607D01*
X-20988070Y580948D01*
X-21036938Y629816D01*
X-21189677Y725789D01*
X-21359946Y785369D01*
X-21359951Y785370D01*
X-21539196Y805565D01*
X-21539204Y805565D01*
X-21718450Y785370D01*
X-21718455Y785369D01*
X-21888724Y725789D01*
X-22041463Y629816D01*
X-22169016Y502263D01*
X-22264989Y349524D01*
X-22324569Y179255D01*
X-22324570Y179250D01*
X-22344765Y4D01*
X-22344765Y-3D01*
X-22324570Y-179249D01*
X-22324569Y-179254D01*
X-22264989Y-349523D01*
X-22185190Y-476522D01*
X-22169016Y-502262D01*
X-22041462Y-629816D01*
X-21888722Y-725789D01*
X-21718455Y-785368D01*
X-21718450Y-785369D01*
X-21539204Y-805565D01*
X-21539200Y-805565D01*
X-21539196Y-805565D01*
X-21359951Y-785369D01*
X-21359948Y-785368D01*
X-21359945Y-785368D01*
X-21189678Y-725789D01*
X-21036938Y-629816D01*
X-20988069Y-580946D01*
X-20926748Y-547462D01*
X-20857057Y-552446D01*
X-20801123Y-594317D01*
X-20783349Y-627671D01*
X-20782598Y-629815D01*
X-20750262Y-722230D01*
X-20656572Y-871335D01*
X-20656567Y-871341D01*
X-20532041Y-995867D01*
X-20532035Y-995872D01*
X-20382930Y-1089562D01*
X-20322506Y-1110705D01*
X-20216700Y-1147728D01*
X-20216697Y-1147728D01*
X-20210645Y-1149110D01*
X-20149668Y-1183221D01*
X-20116813Y-1244884D01*
X-20122511Y-1314521D01*
X-20164953Y-1370023D01*
X-20210636Y-1390888D01*
X-20216694Y-1392271D01*
X-20382930Y-1450438D01*
X-20532035Y-1544128D01*
X-20532041Y-1544133D01*
X-20656567Y-1668659D01*
X-20656572Y-1668665D01*
X-20750262Y-1817770D01*
X-20808429Y-1984005D01*
X-20823200Y-2115107D01*
X-20823200Y-2964892D01*
X-20808429Y-3095994D01*
X-20750262Y-3262229D01*
X-20656572Y-3411334D01*
X-20656567Y-3411340D01*
X-20532041Y-3535866D01*
X-20532035Y-3535871D01*
X-20382930Y-3629561D01*
X-20338613Y-3645067D01*
X-20216700Y-3687727D01*
X-20216696Y-3687727D01*
X-20216694Y-3687728D01*
X-20210639Y-3689111D01*
X-20149663Y-3723224D01*
X-20116810Y-3784887D01*
X-20122509Y-3854524D01*
X-20164953Y-3910025D01*
X-20210639Y-3930889D01*
X-20216694Y-3932271D01*
X-20382930Y-3990438D01*
X-20532035Y-4084128D01*
X-20532041Y-4084133D01*
X-20656567Y-4208659D01*
X-20656572Y-4208665D01*
X-20750262Y-4357770D01*
X-20808429Y-4524005D01*
X-20823200Y-4655107D01*
X-20823200Y-5504892D01*
X-20808429Y-5635994D01*
X-20750262Y-5802229D01*
X-20656572Y-5951334D01*
X-20656567Y-5951340D01*
X-20532041Y-6075866D01*
X-20532035Y-6075871D01*
X-20382930Y-6169561D01*
X-20338613Y-6185067D01*
X-20216700Y-6227727D01*
X-20216696Y-6227727D01*
X-20216694Y-6227728D01*
X-20210639Y-6229111D01*
X-20149663Y-6263224D01*
X-20116810Y-6324887D01*
X-20122509Y-6394524D01*
X-20164953Y-6450025D01*
X-20210639Y-6470889D01*
X-20216694Y-6472271D01*
X-20382930Y-6530438D01*
X-20532035Y-6624128D01*
X-20532041Y-6624133D01*
X-20656567Y-6748659D01*
X-20656572Y-6748665D01*
X-20750262Y-6897770D01*
X-20808429Y-7064005D01*
X-20823200Y-7195107D01*
X-20823200Y-8044892D01*
X-20808429Y-8175994D01*
X-20750262Y-8342229D01*
X-20656572Y-8491334D01*
X-20656567Y-8491340D01*
X-20532041Y-8615866D01*
X-20532035Y-8615871D01*
X-20382930Y-8709561D01*
X-20325120Y-8729789D01*
X-20216700Y-8767727D01*
X-20216697Y-8767727D01*
X-20216695Y-8767728D01*
X-20151144Y-8775113D01*
X-20085593Y-8782499D01*
X-20085592Y-8782500D01*
X-20085588Y-8782500D01*
X-18259808Y-8782500D01*
X-18259808Y-8782499D01*
X-18177342Y-8773207D01*
X-18128706Y-8767728D01*
X-18128705Y-8767727D01*
X-18128700Y-8767727D01*
X-17962474Y-8709562D01*
X-17962475Y-8709562D01*
X-17962471Y-8709561D01*
X-17813366Y-8615871D01*
X-17813365Y-8615870D01*
X-17813360Y-8615867D01*
X-17688833Y-8491340D01*
X-17653627Y-8435311D01*
X-17595139Y-8342229D01*
X-17579768Y-8298300D01*
X-17555360Y-8228545D01*
X-17514638Y-8171770D01*
X-17449686Y-8146022D01*
X-17438318Y-8145500D01*
X-15418395Y-8145500D01*
X-15418379Y-8145501D01*
X-15410783Y-8145501D01*
X-15272419Y-8145501D01*
X-15272417Y-8145501D01*
X-15202145Y-8126671D01*
X-15167008Y-8117256D01*
X-15167007Y-8117255D01*
X-15138764Y-8109688D01*
X-15018935Y-8040505D01*
X-14921095Y-7942665D01*
X-14921095Y-7942663D01*
X-14910891Y-7932460D01*
X-14910887Y-7932455D01*
X-12946949Y-5968516D01*
X-12885628Y-5935033D01*
X-12873164Y-5932980D01*
X-12790138Y-5923625D01*
X-12723950Y-5916169D01*
X-12723947Y-5916168D01*
X-12723945Y-5916168D01*
X-12553678Y-5856589D01*
X-12400938Y-5760616D01*
X-12273384Y-5633062D01*
X-12177411Y-5480322D01*
X-12117832Y-5310055D01*
X-12111927Y-5257645D01*
X-12097635Y-5130803D01*
X-12097635Y-5130796D01*
X-12117831Y-4951550D01*
X-12117832Y-4951545D01*
X-12177411Y-4781278D01*
X-12273384Y-4628538D01*
X-12400938Y-4500984D01*
X-12431133Y-4482011D01*
X-12553677Y-4405011D01*
X-12723946Y-4345431D01*
X-12723950Y-4345430D01*
X-12899038Y-4325703D01*
X-12963452Y-4298636D01*
X-13003007Y-4241041D01*
X-13005144Y-4171205D01*
X-12972837Y-4114804D01*
X-12595102Y-3737069D01*
X-12533781Y-3703586D01*
X-12503765Y-3702057D01*
X-12503765Y-3701165D01*
X-12496797Y-3701165D01*
X-12317551Y-3680969D01*
X-12317548Y-3680968D01*
X-12317545Y-3680968D01*
X-12147278Y-3621389D01*
X-11994538Y-3525416D01*
X-11866984Y-3397862D01*
X-11771011Y-3245122D01*
X-11711432Y-3074855D01*
X-11711431Y-3074849D01*
X-11691235Y-2895603D01*
X-11691235Y-2895596D01*
X-11711431Y-2716350D01*
X-11711432Y-2716345D01*
X-11771012Y-2546076D01*
X-11861262Y-2402445D01*
X-11866984Y-2393338D01*
X-11994538Y-2265784D01*
X-11996144Y-2264178D01*
X-12029629Y-2202855D01*
X-12024645Y-2133163D01*
X-11982773Y-2077230D01*
X-11974450Y-2071513D01*
X-11943738Y-2052216D01*
X-11816184Y-1924662D01*
X-11720211Y-1771922D01*
X-11660632Y-1601655D01*
X-11660631Y-1601649D01*
X-11640435Y-1422403D01*
X-11640435Y-1422396D01*
X-11660631Y-1243150D01*
X-11660632Y-1243145D01*
X-11684150Y-1175935D01*
X-11720211Y-1072878D01*
X-11728559Y-1059593D01*
X-11816185Y-920137D01*
X-11899341Y-836981D01*
X-11932826Y-775658D01*
X-11927842Y-705966D01*
X-11899341Y-661619D01*
X-11895315Y-657593D01*
X-11866984Y-629262D01*
X-11771011Y-476522D01*
X-11711432Y-306255D01*
X-11697122Y-179255D01*
X-11691235Y-127002D01*
X-11691235Y-120035D01*
X-11689071Y-120035D01*
X-11678826Y-61464D01*
X-11655332Y-28699D01*
X-11223250Y403381D01*
X-11161927Y436866D01*
X-11135569Y439700D01*
X-9315032Y439700D01*
X-9247993Y420015D01*
X-9202238Y367211D01*
X-9192294Y298053D01*
X-9221319Y234497D01*
X-9227351Y228019D01*
X-10631304Y-1175933D01*
X-10631308Y-1175938D01*
X-10700487Y-1295760D01*
X-10700489Y-1295764D01*
X-10707500Y-1321930D01*
X-10736301Y-1429417D01*
X-10736301Y-1577772D01*
X-10736300Y-1577785D01*
X-10736300Y-2644060D01*
X-10755985Y-2711099D01*
X-10772619Y-2731741D01*
X-10840616Y-2799737D01*
X-10936589Y-2952476D01*
X-10996169Y-3122745D01*
X-10996170Y-3122750D01*
X-11016365Y-3301996D01*
X-11016365Y-3302003D01*
X-10996170Y-3481249D01*
X-10996169Y-3481254D01*
X-10936589Y-3651523D01*
X-10903875Y-3703586D01*
X-10840616Y-3804262D01*
X-10713062Y-3931816D01*
X-10560322Y-4027789D01*
X-10539728Y-4034995D01*
X-10390055Y-4087368D01*
X-10390050Y-4087369D01*
X-10210804Y-4107565D01*
X-10210800Y-4107565D01*
X-10210796Y-4107565D01*
X-10031551Y-4087369D01*
X-10031548Y-4087368D01*
X-10031545Y-4087368D01*
X-9861278Y-4027789D01*
X-9708538Y-3931816D01*
X-9580984Y-3804262D01*
X-9485011Y-3651522D01*
X-9425432Y-3481255D01*
X-9425431Y-3481249D01*
X-9405235Y-3302003D01*
X-9405235Y-3301996D01*
X-9425431Y-3122750D01*
X-9425432Y-3122745D01*
X-9485011Y-2952478D01*
X-9580984Y-2799738D01*
X-9648981Y-2731741D01*
X-9682466Y-2670418D01*
X-9685300Y-2644060D01*
X-9685300Y-1767631D01*
X-9665615Y-1700592D01*
X-9648981Y-1679950D01*
X-8530851Y-561820D01*
X-8469528Y-528335D01*
X-8443170Y-525501D01*
X-2800082Y-525501D01*
X-2733043Y-545186D01*
X-2687288Y-597990D01*
X-2683043Y-608540D01*
X-2675792Y-629262D01*
X-2643262Y-722230D01*
X-2549572Y-871335D01*
X-2549567Y-871341D01*
X-2425041Y-995867D01*
X-2425035Y-995872D01*
X-2275930Y-1089562D01*
X-2215506Y-1110705D01*
X-2109700Y-1147728D01*
X-2109697Y-1147728D01*
X-2103645Y-1149110D01*
X-2042668Y-1183221D01*
X-2009813Y-1244884D01*
X-2015511Y-1314521D01*
X-2057953Y-1370023D01*
X-2103636Y-1390888D01*
X-2109694Y-1392271D01*
X-2275930Y-1450438D01*
X-2425035Y-1544128D01*
X-2425041Y-1544133D01*
X-2549567Y-1668659D01*
X-2549572Y-1668665D01*
X-2643262Y-1817770D01*
X-2701429Y-1984005D01*
X-2716200Y-2115107D01*
X-2716200Y-2964892D01*
X-2701429Y-3095994D01*
X-2643262Y-3262229D01*
X-2549572Y-3411334D01*
X-2549567Y-3411340D01*
X-2425041Y-3535866D01*
X-2425035Y-3535871D01*
X-2275930Y-3629561D01*
X-2231613Y-3645067D01*
X-2109700Y-3687727D01*
X-2109696Y-3687727D01*
X-2109694Y-3687728D01*
X-2103639Y-3689111D01*
X-2042663Y-3723224D01*
X-2009810Y-3784887D01*
X-2015509Y-3854524D01*
X-2057953Y-3910025D01*
X-2103639Y-3930889D01*
X-2109694Y-3932271D01*
X-2275930Y-3990438D01*
X-2425035Y-4084128D01*
X-2425041Y-4084133D01*
X-2549567Y-4208659D01*
X-2549572Y-4208665D01*
X-2643262Y-4357770D01*
X-2701429Y-4524005D01*
X-2716200Y-4655107D01*
X-2716200Y-5504892D01*
X-2701429Y-5635994D01*
X-2643262Y-5802229D01*
X-2549572Y-5951334D01*
X-2549567Y-5951340D01*
X-2425041Y-6075866D01*
X-2425035Y-6075871D01*
X-2275930Y-6169561D01*
X-2231613Y-6185067D01*
X-2109700Y-6227727D01*
X-2109696Y-6227727D01*
X-2109694Y-6227728D01*
X-2103639Y-6229111D01*
X-2042663Y-6263224D01*
X-2009810Y-6324887D01*
X-2015509Y-6394524D01*
X-2057953Y-6450025D01*
X-2103639Y-6470889D01*
X-2109694Y-6472271D01*
X-2275930Y-6530438D01*
X-2425035Y-6624128D01*
X-2425041Y-6624133D01*
X-2549567Y-6748659D01*
X-2549572Y-6748665D01*
X-2643262Y-6897770D01*
X-2701429Y-7064005D01*
X-2716200Y-7195107D01*
X-2716200Y-8044895D01*
X-2709762Y-8102035D01*
X-2721817Y-8170857D01*
X-2769166Y-8222236D01*
X-2792024Y-8232958D01*
X-2799302Y-8235505D01*
X-2813326Y-8240412D01*
X-2966063Y-8336384D01*
X-3093616Y-8463937D01*
X-3189590Y-8616678D01*
X-3192356Y-8624584D01*
X-3233079Y-8681359D01*
X-3298032Y-8707105D01*
X-3366593Y-8693648D01*
X-3397078Y-8671308D01*
X-4671084Y-7397302D01*
X-4671086Y-7397300D01*
X-4728150Y-7364354D01*
X-4785213Y-7331408D01*
X-4848861Y-7314354D01*
X-4912508Y-7297300D01*
X-4912509Y-7297300D01*
X-10848659Y-7297300D01*
X-10915698Y-7277615D01*
X-10936340Y-7260982D01*
X-11029338Y-7167984D01*
X-11073639Y-7140148D01*
X-11182077Y-7072011D01*
X-11352346Y-7012431D01*
X-11352351Y-7012430D01*
X-11531596Y-6992235D01*
X-11531604Y-6992235D01*
X-11710850Y-7012430D01*
X-11710855Y-7012431D01*
X-11881124Y-7072011D01*
X-12033863Y-7167984D01*
X-12161416Y-7295537D01*
X-12257389Y-7448276D01*
X-12316969Y-7618545D01*
X-12316970Y-7618550D01*
X-12337165Y-7797796D01*
X-12337165Y-7797803D01*
X-12316970Y-7977049D01*
X-12316969Y-7977054D01*
X-12257389Y-8147323D01*
X-12206353Y-8228546D01*
X-12161416Y-8300062D01*
X-12033862Y-8427616D01*
X-11976056Y-8463938D01*
X-11932456Y-8491334D01*
X-11881122Y-8523589D01*
X-11711907Y-8582800D01*
X-11710855Y-8583168D01*
X-11710850Y-8583169D01*
X-11531604Y-8603365D01*
X-11531600Y-8603365D01*
X-11531596Y-8603365D01*
X-11352351Y-8583169D01*
X-11352348Y-8583168D01*
X-11352345Y-8583168D01*
X-11182078Y-8523589D01*
X-11029338Y-8427616D01*
X-10936340Y-8334618D01*
X-10875016Y-8301134D01*
X-10848659Y-8298300D01*
X-5237076Y-8298300D01*
X-5170037Y-8317985D01*
X-5149395Y-8334619D01*
X-1222619Y-12261395D01*
X-1189134Y-12322718D01*
X-1186300Y-12349076D01*
X-1186300Y-13261659D01*
X-1205985Y-13328698D01*
X-1222618Y-13349340D01*
X-1315617Y-13442339D01*
X-1411589Y-13595076D01*
X-1471169Y-13765345D01*
X-1471170Y-13765350D01*
X-1491365Y-13944596D01*
X-1491365Y-13944603D01*
X-1471170Y-14123849D01*
X-1471169Y-14123854D01*
X-1411589Y-14294123D01*
X-1323269Y-14434682D01*
X-1315616Y-14446862D01*
X-1188062Y-14574416D01*
X-1135102Y-14607693D01*
X-1047332Y-14662843D01*
X-1035322Y-14670389D01*
X-915161Y-14712435D01*
X-865055Y-14729968D01*
X-865050Y-14729969D01*
X-685804Y-14750165D01*
X-685800Y-14750165D01*
X-685796Y-14750165D01*
X-506551Y-14729969D01*
X-506549Y-14729968D01*
X-506545Y-14729968D01*
X-506542Y-14729966D01*
X-506538Y-14729966D01*
X-385655Y-14687667D01*
X-315876Y-14684105D01*
X-255249Y-14718833D01*
X-223021Y-14780826D01*
X-220700Y-14804708D01*
X-220700Y-15377369D01*
X-240385Y-15444408D01*
X-257019Y-15465050D01*
X-790950Y-15998981D01*
X-852273Y-16032466D01*
X-878631Y-16035300D01*
X-2440860Y-16035300D01*
X-2507899Y-16015615D01*
X-2528541Y-15998981D01*
X-2545738Y-15981784D01*
X-2698477Y-15885811D01*
X-2868746Y-15826231D01*
X-2868751Y-15826230D01*
X-3047996Y-15806035D01*
X-3048004Y-15806035D01*
X-3227250Y-15826230D01*
X-3227255Y-15826231D01*
X-3397524Y-15885811D01*
X-3522427Y-15964294D01*
X-3588399Y-15983300D01*
X-7237204Y-15983300D01*
X-7237220Y-15983299D01*
X-7244816Y-15983299D01*
X-7383183Y-15983299D01*
X-7501048Y-16014880D01*
X-7516839Y-16019112D01*
X-7636662Y-16088292D01*
X-7636668Y-16088297D01*
X-7988741Y-16440370D01*
X-8030925Y-16468041D01*
X-8035978Y-16470034D01*
X-8105564Y-16476320D01*
X-8144596Y-16461414D01*
X-8278004Y-16382517D01*
X-8278007Y-16382516D01*
X-8435706Y-16336700D01*
X-8435703Y-16336700D01*
X-8438200Y-16336503D01*
X-8438200Y-18881095D01*
X-8438199Y-18881095D01*
X-8435714Y-18880900D01*
X-8278004Y-18835082D01*
X-8144597Y-18756185D01*
X-8076873Y-18739002D01*
X-8035985Y-18747562D01*
X-7969764Y-18773677D01*
X-7945851Y-18776548D01*
X-7881637Y-18804084D01*
X-7842503Y-18861966D01*
X-7840875Y-18931817D01*
X-7877269Y-18991459D01*
X-7919679Y-19016705D01*
X-8045720Y-19060809D01*
X-8198463Y-19156784D01*
X-8326016Y-19284337D01*
X-8421989Y-19437076D01*
X-8481569Y-19607345D01*
X-8481570Y-19607350D01*
X-8501765Y-19786596D01*
X-8501765Y-19786603D01*
X-8481570Y-19965849D01*
X-8481569Y-19965854D01*
X-8421989Y-20136124D01*
X-8334994Y-20274573D01*
X-8315993Y-20341810D01*
X-8336360Y-20408645D01*
X-8352304Y-20428226D01*
X-8376817Y-20452739D01*
X-8472789Y-20605476D01*
X-8532369Y-20775745D01*
X-8532370Y-20775750D01*
X-8552565Y-20954996D01*
X-8552565Y-20955003D01*
X-8532370Y-21134249D01*
X-8532369Y-21134254D01*
X-8472789Y-21304523D01*
X-8376816Y-21457262D01*
X-8249262Y-21584816D01*
X-8096522Y-21680789D01*
X-8036853Y-21701668D01*
X-7926255Y-21740368D01*
X-7926250Y-21740369D01*
X-7747004Y-21760565D01*
X-7747000Y-21760565D01*
X-7746996Y-21760565D01*
X-7567751Y-21740369D01*
X-7567748Y-21740368D01*
X-7567745Y-21740368D01*
X-7397478Y-21680789D01*
X-7244738Y-21584816D01*
X-7176742Y-21516820D01*
X-7115419Y-21483335D01*
X-7101638Y-21481853D01*
X-7101676Y-21481562D01*
X-7093620Y-21480501D01*
X-7093617Y-21480501D01*
X-7006891Y-21457262D01*
X-6988208Y-21452256D01*
X-6988207Y-21452255D01*
X-6959964Y-21444688D01*
X-6840135Y-21375505D01*
X-6742295Y-21277665D01*
X-6742295Y-21277663D01*
X-6732091Y-21267460D01*
X-6732087Y-21267455D01*
X-6232730Y-20768098D01*
X-5388700Y-20768098D01*
X-5388700Y-22199501D01*
X-5385799Y-22236367D01*
X-5385798Y-22236373D01*
X-5339946Y-22394193D01*
X-5339945Y-22394196D01*
X-5256283Y-22535662D01*
X-5256277Y-22535670D01*
X-5140071Y-22651876D01*
X-5140067Y-22651879D01*
X-5140065Y-22651881D01*
X-4998598Y-22735544D01*
X-4956976Y-22747636D01*
X-4840774Y-22781397D01*
X-4840771Y-22781397D01*
X-4840769Y-22781398D01*
X-4803894Y-22784300D01*
X-4803886Y-22784300D01*
X-3972514Y-22784300D01*
X-3972506Y-22784300D01*
X-3935631Y-22781398D01*
X-3935629Y-22781397D01*
X-3935627Y-22781397D01*
X-3894009Y-22769305D01*
X-3777802Y-22735544D01*
X-3636335Y-22651881D01*
X-3520119Y-22535665D01*
X-3436456Y-22394198D01*
X-3390602Y-22236369D01*
X-3387700Y-22199494D01*
X-3387700Y-20768106D01*
X-3390602Y-20731231D01*
X-3400328Y-20697755D01*
X-3436455Y-20573406D01*
X-3436456Y-20573403D01*
X-3436456Y-20573402D01*
X-3520119Y-20431935D01*
X-3520121Y-20431933D01*
X-3520124Y-20431929D01*
X-3636330Y-20315723D01*
X-3636338Y-20315717D01*
X-3777804Y-20232055D01*
X-3777807Y-20232054D01*
X-3935627Y-20186202D01*
X-3935633Y-20186201D01*
X-3972499Y-20183300D01*
X-3972506Y-20183300D01*
X-4803894Y-20183300D01*
X-4803902Y-20183300D01*
X-4840768Y-20186201D01*
X-4840774Y-20186202D01*
X-4998594Y-20232054D01*
X-4998597Y-20232055D01*
X-5140063Y-20315717D01*
X-5140071Y-20315723D01*
X-5256277Y-20431929D01*
X-5256283Y-20431937D01*
X-5339945Y-20573403D01*
X-5339946Y-20573406D01*
X-5385798Y-20731226D01*
X-5385799Y-20731232D01*
X-5388700Y-20768098D01*
X-6232730Y-20768098D01*
X-5375745Y-19911113D01*
X-5375740Y-19911109D01*
X-5365537Y-19900905D01*
X-5365535Y-19900905D01*
X-5267695Y-19803065D01*
X-5198512Y-19683236D01*
X-5170020Y-19576901D01*
X-5162700Y-19549584D01*
X-5162700Y-19411217D01*
X-5162700Y-18691394D01*
X-5143015Y-18624355D01*
X-5137514Y-18616482D01*
X-5053839Y-18506142D01*
X-4998323Y-18365364D01*
X-4987700Y-18276902D01*
X-4987700Y-17158300D01*
X-4968015Y-17091261D01*
X-4915211Y-17045506D01*
X-4863700Y-17034300D01*
X-3796340Y-17034300D01*
X-3729301Y-17053985D01*
X-3691348Y-17092326D01*
X-3677816Y-17113862D01*
X-3550262Y-17241416D01*
X-3397522Y-17337389D01*
X-3272683Y-17381072D01*
X-3227255Y-17396968D01*
X-3227250Y-17396969D01*
X-3048004Y-17417165D01*
X-3048000Y-17417165D01*
X-3047996Y-17417165D01*
X-2868751Y-17396969D01*
X-2868748Y-17396968D01*
X-2868745Y-17396968D01*
X-2698478Y-17337389D01*
X-2545738Y-17241416D01*
X-2426940Y-17122618D01*
X-2365617Y-17089134D01*
X-2339259Y-17086300D01*
X-686395Y-17086300D01*
X-686379Y-17086301D01*
X-678783Y-17086301D01*
X-540419Y-17086301D01*
X-540417Y-17086301D01*
X-470145Y-17067471D01*
X-435008Y-17058056D01*
X-435007Y-17058055D01*
X-406764Y-17050488D01*
X-286935Y-16981305D01*
X-189095Y-16883465D01*
X-189095Y-16883463D01*
X-178891Y-16873260D01*
X-178887Y-16873255D01*
X459863Y-16234504D01*
X521184Y-16201021D01*
X590876Y-16206005D01*
X646809Y-16247877D01*
X665472Y-16283865D01*
X667953Y-16291501D01*
X667953Y-16291502D01*
X667954Y-16291504D01*
X725550Y-16404542D01*
X725552Y-16404544D01*
X725554Y-16404547D01*
X819526Y-16498519D01*
X853011Y-16559842D01*
X848027Y-16629534D01*
X819526Y-16673881D01*
X725554Y-16767852D01*
X725551Y-16767857D01*
X725550Y-16767858D01*
X711566Y-16795303D01*
X667952Y-16880898D01*
X653100Y-16974675D01*
X653100Y-17771219D01*
X633415Y-17838258D01*
X580611Y-17884013D01*
X511453Y-17893957D01*
X447897Y-17864932D01*
X424106Y-17837191D01*
X375815Y-17760337D01*
X248262Y-17632784D01*
X95523Y-17536811D01*
X-74746Y-17477231D01*
X-74751Y-17477230D01*
X-253996Y-17457035D01*
X-254004Y-17457035D01*
X-433250Y-17477230D01*
X-433255Y-17477231D01*
X-603524Y-17536811D01*
X-756263Y-17632784D01*
X-883816Y-17760337D01*
X-979789Y-17913076D01*
X-1039369Y-18083345D01*
X-1039370Y-18083350D01*
X-1059565Y-18262596D01*
X-1059565Y-18262603D01*
X-1039370Y-18441849D01*
X-1039369Y-18441854D01*
X-979789Y-18612123D01*
X-929979Y-18691394D01*
X-883816Y-18764862D01*
X-756262Y-18892416D01*
X-677817Y-18941706D01*
X-631526Y-18994041D01*
X-620878Y-19063094D01*
X-649253Y-19126943D01*
X-707642Y-19165315D01*
X-743789Y-19170700D01*
X-1492918Y-19170700D01*
X-1573881Y-19183523D01*
X-1586704Y-19185554D01*
X-1699742Y-19243150D01*
X-1699743Y-19243151D01*
X-1699748Y-19243154D01*
X-1789446Y-19332852D01*
X-1789449Y-19332857D01*
X-1847048Y-19445898D01*
X-1861900Y-19539675D01*
X-1861900Y-21252717D01*
X-1853695Y-21304522D01*
X-1847046Y-21346504D01*
X-1789450Y-21459542D01*
X-1789448Y-21459544D01*
X-1789446Y-21459547D01*
X-1699748Y-21549245D01*
X-1699746Y-21549246D01*
X-1699742Y-21549250D01*
X-1586706Y-21606845D01*
X-1586702Y-21606847D01*
X-1492925Y-21621699D01*
X-1492919Y-21621700D01*
X220118Y-21621699D01*
X313904Y-21606846D01*
X426942Y-21549250D01*
X516650Y-21459542D01*
X574246Y-21346504D01*
X574246Y-21346502D01*
X574247Y-21346501D01*
X589099Y-21252724D01*
X589100Y-21252719D01*
X589099Y-21179527D01*
X608783Y-21112491D01*
X661586Y-21066735D01*
X730744Y-21056791D01*
X794301Y-21085815D01*
X814674Y-21108406D01*
X903554Y-21235341D01*
X1064458Y-21396245D01*
X1064461Y-21396247D01*
X1250866Y-21526768D01*
X1457104Y-21622939D01*
X1676908Y-21681835D01*
X1838830Y-21696001D01*
X1903598Y-21701668D01*
X1903600Y-21701668D01*
X1903602Y-21701668D01*
X1960273Y-21696709D01*
X2130292Y-21681835D01*
X2350096Y-21622939D01*
X2556334Y-21526768D01*
X2742739Y-21396247D01*
X2903647Y-21235339D01*
X3034168Y-21048934D01*
X3061218Y-20990924D01*
X3107390Y-20938485D01*
X3174583Y-20919333D01*
X3241465Y-20939548D01*
X3285982Y-20990925D01*
X3313029Y-21048928D01*
X3313032Y-21048934D01*
X3443554Y-21235341D01*
X3604458Y-21396245D01*
X3604461Y-21396247D01*
X3790866Y-21526768D01*
X3997104Y-21622939D01*
X4216908Y-21681835D01*
X4378830Y-21696001D01*
X4443598Y-21701668D01*
X4443600Y-21701668D01*
X4443602Y-21701668D01*
X4500273Y-21696709D01*
X4670292Y-21681835D01*
X4890096Y-21622939D01*
X5096334Y-21526768D01*
X5282739Y-21396247D01*
X5443647Y-21235339D01*
X5553657Y-21078225D01*
X5608232Y-21034602D01*
X5677730Y-21027408D01*
X5740085Y-21058930D01*
X5759040Y-21081529D01*
X5832411Y-21193833D01*
X6459812Y-20566433D01*
X6471082Y-20608492D01*
X6543490Y-20733908D01*
X6645892Y-20836310D01*
X6771308Y-20908718D01*
X6813365Y-20919987D01*
X6184801Y-21548551D01*
X6215249Y-21572250D01*
X6419297Y-21682676D01*
X6419306Y-21682679D01*
X6638739Y-21758011D01*
X6867593Y-21796200D01*
X7099607Y-21796200D01*
X7328460Y-21758011D01*
X7547893Y-21682679D01*
X7547901Y-21682676D01*
X7751955Y-21572247D01*
X7782397Y-21548551D01*
X7782398Y-21548550D01*
X7153835Y-20919987D01*
X7195892Y-20908718D01*
X7321308Y-20836310D01*
X7423710Y-20733908D01*
X7496118Y-20608492D01*
X7507387Y-20566434D01*
X8134786Y-21193834D01*
X8219084Y-21064806D01*
X8312282Y-20852335D01*
X8369238Y-20627418D01*
X8388398Y-20396205D01*
X8388398Y-20396194D01*
X8369238Y-20164981D01*
X8312282Y-19940064D01*
X8219083Y-19727590D01*
X8134786Y-19598564D01*
X7507387Y-20225964D01*
X7496118Y-20183908D01*
X7423710Y-20058492D01*
X7321308Y-19956090D01*
X7195892Y-19883682D01*
X7153833Y-19872412D01*
X7782397Y-19243847D01*
X7782397Y-19243845D01*
X7751960Y-19220155D01*
X7751949Y-19220148D01*
X7723915Y-19204977D01*
X7674324Y-19155758D01*
X7659216Y-19087541D01*
X7683386Y-19021985D01*
X7711808Y-18994347D01*
X7854681Y-18894305D01*
X8021704Y-18727282D01*
X8157199Y-18533778D01*
X8257028Y-18319692D01*
X8257031Y-18319686D01*
X8314235Y-18106200D01*
X7416611Y-18106200D01*
X7449524Y-18049193D01*
X7483599Y-17922026D01*
X7483599Y-17790374D01*
X7449524Y-17663207D01*
X7416611Y-17606200D01*
X8314235Y-17606200D01*
X8314234Y-17606199D01*
X8257031Y-17392713D01*
X8257028Y-17392707D01*
X8157199Y-17178622D01*
X8157198Y-17178620D01*
X8021712Y-16985126D01*
X8021707Y-16985120D01*
X7854681Y-16818094D01*
X7668567Y-16687775D01*
X7624943Y-16633198D01*
X7617750Y-16563699D01*
X7649272Y-16501345D01*
X7668567Y-16484625D01*
X7854681Y-16354305D01*
X8021704Y-16187282D01*
X8157199Y-15993778D01*
X8257028Y-15779692D01*
X8257031Y-15779686D01*
X8314235Y-15566200D01*
X7416611Y-15566200D01*
X7449524Y-15509193D01*
X7483599Y-15382026D01*
X7483599Y-15297213D01*
X9623200Y-15297213D01*
X9623200Y-15447200D01*
X10717870Y-15447200D01*
X10698125Y-15466945D01*
X10648756Y-15552455D01*
X10623200Y-15647830D01*
X10623200Y-15746570D01*
X10648756Y-15841945D01*
X10698125Y-15927455D01*
X10717870Y-15947200D01*
X9623201Y-15947200D01*
X9623201Y-16097186D01*
X9633694Y-16199897D01*
X9688841Y-16366319D01*
X9688843Y-16366324D01*
X9780884Y-16515545D01*
X9904854Y-16639515D01*
X10056576Y-16733098D01*
X10103300Y-16785046D01*
X10114523Y-16854009D01*
X10086679Y-16918091D01*
X10079161Y-16926318D01*
X9946060Y-17059419D01*
X9836571Y-17223280D01*
X9836564Y-17223293D01*
X9761150Y-17405361D01*
X9761147Y-17405371D01*
X9722700Y-17598657D01*
X9722700Y-17598660D01*
X9722700Y-17795742D01*
X9722700Y-17795744D01*
X9722699Y-17795744D01*
X9761147Y-17989030D01*
X9761150Y-17989040D01*
X9836564Y-18171108D01*
X9836571Y-18171121D01*
X9946060Y-18334982D01*
X9946063Y-18334986D01*
X10085414Y-18474337D01*
X10085418Y-18474340D01*
X10249279Y-18583829D01*
X10249292Y-18583836D01*
X10384724Y-18639933D01*
X10431365Y-18659252D01*
X10431369Y-18659252D01*
X10431370Y-18659253D01*
X10624656Y-18697701D01*
X10624659Y-18697701D01*
X11371743Y-18697701D01*
X11516647Y-18668877D01*
X11565035Y-18659252D01*
X11747114Y-18583833D01*
X11910982Y-18474340D01*
X12050339Y-18334983D01*
X12159832Y-18171115D01*
X12235251Y-17989036D01*
X12273700Y-17795742D01*
X12273700Y-17598660D01*
X12273700Y-17598657D01*
X12235252Y-17405371D01*
X12235251Y-17405370D01*
X12235251Y-17405366D01*
X12231773Y-17396969D01*
X12159835Y-17223293D01*
X12159828Y-17223280D01*
X12050339Y-17059419D01*
X12050336Y-17059415D01*
X11917239Y-16926318D01*
X11883754Y-16864995D01*
X11888738Y-16795303D01*
X11930610Y-16739370D01*
X11939824Y-16733098D01*
X12091543Y-16639517D01*
X12215515Y-16515545D01*
X12307556Y-16366324D01*
X12307558Y-16366319D01*
X12335699Y-16281394D01*
X14750357Y-16281394D01*
X14750357Y-16281405D01*
X14770890Y-16529212D01*
X14770892Y-16529224D01*
X14831936Y-16770281D01*
X14931826Y-16998006D01*
X15067833Y-17206182D01*
X15067836Y-17206185D01*
X15236256Y-17389138D01*
X15432491Y-17541874D01*
X15651190Y-17660228D01*
X15886386Y-17740971D01*
X16131665Y-17781900D01*
X16380335Y-17781900D01*
X16625614Y-17740971D01*
X16860810Y-17660228D01*
X17079509Y-17541874D01*
X17275744Y-17389138D01*
X17444164Y-17206185D01*
X17580173Y-16998007D01*
X17680063Y-16770281D01*
X17741108Y-16529221D01*
X17744689Y-16486005D01*
X17761643Y-16281405D01*
X17761643Y-16281394D01*
X17741109Y-16033587D01*
X17741107Y-16033575D01*
X17680063Y-15792518D01*
X17580173Y-15564793D01*
X17444166Y-15356617D01*
X17389494Y-15297228D01*
X17275744Y-15173662D01*
X17079509Y-15020926D01*
X17079507Y-15020925D01*
X17079506Y-15020924D01*
X16860811Y-14902572D01*
X16860802Y-14902569D01*
X16625616Y-14821829D01*
X16380335Y-14780900D01*
X16131665Y-14780900D01*
X15886383Y-14821829D01*
X15651197Y-14902569D01*
X15651188Y-14902572D01*
X15432493Y-15020924D01*
X15236257Y-15173661D01*
X15067833Y-15356617D01*
X14931826Y-15564793D01*
X14831936Y-15792518D01*
X14770892Y-16033575D01*
X14770890Y-16033587D01*
X14750357Y-16281394D01*
X12335699Y-16281394D01*
X12362705Y-16199897D01*
X12362706Y-16199890D01*
X12373199Y-16097186D01*
X12373200Y-16097173D01*
X12373200Y-15947200D01*
X11278530Y-15947200D01*
X11298275Y-15927455D01*
X11347644Y-15841945D01*
X11373200Y-15746570D01*
X11373200Y-15647830D01*
X11347644Y-15552455D01*
X11298275Y-15466945D01*
X11278530Y-15447200D01*
X12373199Y-15447200D01*
X12373199Y-15297228D01*
X12373198Y-15297213D01*
X12362705Y-15194502D01*
X12307558Y-15028080D01*
X12307556Y-15028075D01*
X12215515Y-14878854D01*
X12091545Y-14754884D01*
X11942324Y-14662843D01*
X11942319Y-14662841D01*
X11775897Y-14607694D01*
X11775890Y-14607693D01*
X11673186Y-14597200D01*
X11248200Y-14597200D01*
X11248200Y-15416870D01*
X11228455Y-15397125D01*
X11142945Y-15347756D01*
X11047570Y-15322200D01*
X10948830Y-15322200D01*
X10853455Y-15347756D01*
X10767945Y-15397125D01*
X10748200Y-15416870D01*
X10748200Y-14597200D01*
X10323228Y-14597200D01*
X10323212Y-14597201D01*
X10220502Y-14607694D01*
X10054080Y-14662841D01*
X10054075Y-14662843D01*
X9904854Y-14754884D01*
X9780884Y-14878854D01*
X9688843Y-15028075D01*
X9688841Y-15028080D01*
X9633694Y-15194502D01*
X9633693Y-15194509D01*
X9623200Y-15297213D01*
X7483599Y-15297213D01*
X7483599Y-15250374D01*
X7449524Y-15123207D01*
X7416611Y-15066200D01*
X8314235Y-15066200D01*
X8314234Y-15066199D01*
X8257031Y-14852713D01*
X8257028Y-14852707D01*
X8157199Y-14638622D01*
X8157198Y-14638620D01*
X8021712Y-14445126D01*
X8021707Y-14445120D01*
X7854681Y-14278094D01*
X7661177Y-14142599D01*
X7447091Y-14042770D01*
X7447085Y-14042767D01*
X7233599Y-13985564D01*
X7233599Y-14883188D01*
X7176592Y-14850275D01*
X7049425Y-14816200D01*
X6917773Y-14816200D01*
X6790606Y-14850275D01*
X6733599Y-14883188D01*
X6733599Y-13985564D01*
X6733598Y-13985564D01*
X6520112Y-14042767D01*
X6520106Y-14042770D01*
X6306021Y-14142599D01*
X6306019Y-14142600D01*
X6112525Y-14278086D01*
X6112519Y-14278091D01*
X5945490Y-14445120D01*
X5945485Y-14445126D01*
X5809999Y-14638620D01*
X5809998Y-14638622D01*
X5771088Y-14722065D01*
X5724915Y-14774504D01*
X5657721Y-14793656D01*
X5590840Y-14773440D01*
X5546325Y-14722067D01*
X5530702Y-14688562D01*
X5530698Y-14688556D01*
X5405199Y-14509324D01*
X5330557Y-14434682D01*
X5250477Y-14354602D01*
X5230903Y-14340896D01*
X5184766Y-14308590D01*
X5141141Y-14254013D01*
X5134272Y-14231202D01*
X5133607Y-14227858D01*
X5117180Y-14145272D01*
X5064375Y-14017789D01*
X4987714Y-13903057D01*
X4987712Y-13903054D01*
X2108419Y-11023761D01*
X2074934Y-10962438D01*
X2072100Y-10936080D01*
X2072100Y-1175608D01*
X2070979Y-1169973D01*
X2065373Y-1141790D01*
X2065373Y-1093409D01*
X2072100Y-1059593D01*
X2072100Y1865003D01*
X3571834Y1865003D01*
X3571834Y1864998D01*
X3591658Y1638401D01*
X3591660Y1638390D01*
X3650530Y1418683D01*
X3650535Y1418669D01*
X3746663Y1212522D01*
X3797774Y1139528D01*
X4476800Y1818554D01*
X4476800Y1812339D01*
X4504059Y1710606D01*
X4556720Y1619394D01*
X4631194Y1544920D01*
X4722406Y1492259D01*
X4824139Y1465000D01*
X4830353Y1465000D01*
X4151326Y785975D01*
X4151720Y781471D01*
X4187669Y736499D01*
X4194863Y667000D01*
X4163341Y604645D01*
X4103111Y569231D01*
X4072925Y565500D01*
X4045283Y565500D01*
X3966350Y552999D01*
X3951496Y550646D01*
X3838458Y493050D01*
X3838457Y493049D01*
X3838452Y493046D01*
X3748754Y403348D01*
X3748751Y403343D01*
X3748750Y403342D01*
X3730340Y367211D01*
X3691152Y290302D01*
X3676300Y196525D01*
X3676300Y-1466517D01*
X3684882Y-1520701D01*
X3691154Y-1560304D01*
X3748750Y-1673342D01*
X3748752Y-1673344D01*
X3748754Y-1673347D01*
X3838452Y-1763045D01*
X3838454Y-1763046D01*
X3838458Y-1763050D01*
X3908596Y-1798787D01*
X3959391Y-1846761D01*
X3976300Y-1909271D01*
X3976300Y-8097460D01*
X4010903Y-8271422D01*
X4010905Y-8271430D01*
X4040230Y-8342226D01*
X4040230Y-8342227D01*
X4078784Y-8435306D01*
X4078785Y-8435308D01*
X4115723Y-8490590D01*
X4115724Y-8490591D01*
X4115727Y-8490595D01*
X4153917Y-8547751D01*
X4177337Y-8582802D01*
X4177338Y-8582803D01*
X5373083Y-9778546D01*
X5406568Y-9839869D01*
X5406293Y-9893820D01*
X5392076Y-9956108D01*
X5373031Y-10210258D01*
X5373031Y-10210267D01*
X5392076Y-10464417D01*
X5446492Y-10702831D01*
X5448791Y-10712900D01*
X5541906Y-10950151D01*
X5669340Y-11170875D01*
X5828249Y-11370140D01*
X6015082Y-11543495D01*
X6225665Y-11687068D01*
X6225670Y-11687070D01*
X6225671Y-11687071D01*
X6225672Y-11687072D01*
X6347627Y-11745801D01*
X6455291Y-11797650D01*
X6455292Y-11797650D01*
X6455295Y-11797652D01*
X6698841Y-11872776D01*
X6950864Y-11910763D01*
X7205734Y-11910763D01*
X7457757Y-11872776D01*
X7701303Y-11797652D01*
X7882757Y-11710268D01*
X7930925Y-11687072D01*
X7930925Y-11687071D01*
X7930933Y-11687068D01*
X8141516Y-11543495D01*
X8328349Y-11370140D01*
X8487258Y-11170875D01*
X8614692Y-10950151D01*
X8707807Y-10712900D01*
X8764521Y-10464420D01*
X8778166Y-10282334D01*
X8783567Y-10210267D01*
X8783567Y-10210258D01*
X8764521Y-9956108D01*
X8750304Y-9893820D01*
X8707807Y-9707626D01*
X8614692Y-9470375D01*
X8487258Y-9249651D01*
X8328349Y-9050386D01*
X8141516Y-8877031D01*
X7930933Y-8733458D01*
X7930929Y-8733456D01*
X7930926Y-8733454D01*
X7930925Y-8733453D01*
X7701305Y-8622875D01*
X7701307Y-8622875D01*
X7457765Y-8547752D01*
X7457761Y-8547751D01*
X7457757Y-8547750D01*
X7336530Y-8529477D01*
X7205739Y-8509763D01*
X7205734Y-8509763D01*
X6950864Y-8509763D01*
X6950856Y-8509763D01*
X6752435Y-8539671D01*
X6683211Y-8530198D01*
X6646273Y-8504737D01*
X5813619Y-7672083D01*
X5780134Y-7610760D01*
X5777300Y-7584402D01*
X5777300Y-5511795D01*
X7083132Y-5511795D01*
X7083132Y-5511804D01*
X7102177Y-5765954D01*
X7144490Y-5951340D01*
X7158892Y-6014437D01*
X7252007Y-6251688D01*
X7379441Y-6472412D01*
X7538350Y-6671677D01*
X7725183Y-6845032D01*
X7935766Y-6988605D01*
X7935771Y-6988607D01*
X7935772Y-6988608D01*
X7935773Y-6988609D01*
X8005134Y-7022011D01*
X8165392Y-7099187D01*
X8165393Y-7099187D01*
X8165396Y-7099189D01*
X8408942Y-7174313D01*
X8660965Y-7212300D01*
X8915835Y-7212300D01*
X9167858Y-7174313D01*
X9411404Y-7099189D01*
X9641034Y-6988605D01*
X9851617Y-6845032D01*
X10038450Y-6671677D01*
X10197359Y-6472412D01*
X10324793Y-6251688D01*
X10417908Y-6014437D01*
X10474622Y-5765957D01*
X10493668Y-5511800D01*
X10493150Y-5504892D01*
X10474622Y-5257645D01*
X10471054Y-5242013D01*
X10417908Y-5009163D01*
X10324793Y-4771912D01*
X10197359Y-4551188D01*
X10038450Y-4351923D01*
X9851617Y-4178568D01*
X9641034Y-4034995D01*
X9641030Y-4034993D01*
X9641027Y-4034991D01*
X9641026Y-4034990D01*
X9411406Y-3924412D01*
X9411408Y-3924412D01*
X9167866Y-3849289D01*
X9167862Y-3849288D01*
X9167858Y-3849287D01*
X9046631Y-3831014D01*
X8915840Y-3811300D01*
X8915835Y-3811300D01*
X8660965Y-3811300D01*
X8660959Y-3811300D01*
X8504009Y-3834957D01*
X8408942Y-3849287D01*
X8408939Y-3849288D01*
X8408933Y-3849289D01*
X8165392Y-3924412D01*
X7935773Y-4034990D01*
X7935772Y-4034991D01*
X7725182Y-4178568D01*
X7538352Y-4351921D01*
X7538350Y-4351923D01*
X7379441Y-4551188D01*
X7252008Y-4771909D01*
X7158892Y-5009162D01*
X7158890Y-5009169D01*
X7102177Y-5257645D01*
X7083132Y-5511795D01*
X5777300Y-5511795D01*
X5777300Y-1909271D01*
X5796985Y-1842232D01*
X5845003Y-1798787D01*
X5915142Y-1763050D01*
X6004850Y-1673342D01*
X6040587Y-1603203D01*
X6088561Y-1552409D01*
X6151071Y-1535500D01*
X9354638Y-1535500D01*
X9421677Y-1555185D01*
X9442319Y-1571819D01*
X10882936Y-3012435D01*
X10955686Y-3085185D01*
X11008366Y-3137865D01*
X11155849Y-3236411D01*
X11155851Y-3236412D01*
X11155852Y-3236412D01*
X11155853Y-3236413D01*
X11163284Y-3239491D01*
X11176871Y-3245119D01*
X11176874Y-3245120D01*
X11176879Y-3245122D01*
X11319734Y-3304295D01*
X11493703Y-3338899D01*
X11493707Y-3338900D01*
X11493708Y-3338900D01*
X11721893Y-3338900D01*
X11721894Y-3338899D01*
X11779882Y-3327364D01*
X11895858Y-3304296D01*
X11895861Y-3304294D01*
X11895866Y-3304294D01*
X12059747Y-3236413D01*
X12207235Y-3137864D01*
X12332664Y-3012435D01*
X12431213Y-2864947D01*
X12499094Y-2701066D01*
X12505191Y-2670418D01*
X12529923Y-2546078D01*
X12533700Y-2527091D01*
X12533700Y-2349709D01*
X12533700Y-2349706D01*
X12533699Y-2349704D01*
X12499096Y-2175741D01*
X12499093Y-2175732D01*
X12496640Y-2169811D01*
X12447932Y-2052216D01*
X12431216Y-2011859D01*
X12431209Y-2011846D01*
X12332664Y-1864365D01*
X12332661Y-1864361D01*
X12207238Y-1738938D01*
X12207234Y-1738935D01*
X12064292Y-1643424D01*
X12045502Y-1628003D01*
X10353041Y64460D01*
X10353040Y64461D01*
X10293960Y103936D01*
X10293958Y103939D01*
X10205544Y163015D01*
X10205542Y163016D01*
X10109410Y202834D01*
X10041666Y230895D01*
X10041658Y230897D01*
X9867696Y265500D01*
X9867692Y265500D01*
X9867691Y265500D01*
X6151072Y265500D01*
X6084033Y285185D01*
X6040588Y333204D01*
X6019157Y375263D01*
X6004850Y403342D01*
X6004847Y403345D01*
X6004845Y403348D01*
X5915147Y493046D01*
X5915144Y493048D01*
X5915142Y493050D01*
X5838317Y532195D01*
X5802101Y550648D01*
X5708324Y565500D01*
X5680678Y565500D01*
X5613639Y585185D01*
X5567884Y637989D01*
X5557940Y707147D01*
X5586965Y770703D01*
X5602132Y784382D01*
X5602272Y785975D01*
X4923247Y1465000D01*
X4929461Y1465000D01*
X5031194Y1492259D01*
X5122406Y1544920D01*
X5196880Y1619394D01*
X5249541Y1710606D01*
X5276800Y1812339D01*
X5276800Y1818553D01*
X5955824Y1139529D01*
X6006936Y1212522D01*
X6103064Y1418669D01*
X6103069Y1418683D01*
X6161939Y1638390D01*
X6161941Y1638401D01*
X6181766Y1864998D01*
X6181766Y1865003D01*
X6161941Y2091600D01*
X6161939Y2091611D01*
X6103069Y2311318D01*
X6103064Y2311332D01*
X6006936Y2517479D01*
X6006932Y2517487D01*
X5955825Y2590474D01*
X5276800Y1911449D01*
X5276800Y1917661D01*
X5249541Y2019394D01*
X5196880Y2110606D01*
X5122406Y2185080D01*
X5031194Y2237741D01*
X4929461Y2265000D01*
X4923245Y2265000D01*
X5602272Y2944026D01*
X5529278Y2995137D01*
X5323131Y3091265D01*
X5323117Y3091270D01*
X5103410Y3150140D01*
X5103399Y3150142D01*
X4876802Y3169966D01*
X4876798Y3169966D01*
X4650200Y3150142D01*
X4650189Y3150140D01*
X4430482Y3091270D01*
X4430473Y3091266D01*
X4224316Y2995134D01*
X4224312Y2995132D01*
X4151326Y2944027D01*
X4151326Y2944026D01*
X4830353Y2265000D01*
X4824139Y2265000D01*
X4722406Y2237741D01*
X4631194Y2185080D01*
X4556720Y2110606D01*
X4504059Y2019394D01*
X4476800Y1917661D01*
X4476800Y1911448D01*
X3797774Y2590474D01*
X3797773Y2590474D01*
X3746668Y2517488D01*
X3746666Y2517484D01*
X3650534Y2311327D01*
X3650530Y2311318D01*
X3591660Y2091611D01*
X3591658Y2091600D01*
X3571834Y1865003D01*
X2072100Y1865003D01*
X2072100Y3269393D01*
X2072100Y3269398D01*
X2068768Y3286142D01*
X2068767Y3286143D01*
X2068766Y3286152D01*
X2045180Y3404728D01*
X2042441Y3411341D01*
X1992377Y3532208D01*
X1915712Y3646946D01*
X407119Y5155539D01*
X373634Y5216862D01*
X370800Y5243220D01*
X370800Y5504892D01*
X370799Y5504893D01*
X370248Y5509782D01*
X358224Y5616500D01*
X356028Y5635995D01*
X356027Y5635997D01*
X356027Y5636000D01*
X297862Y5802226D01*
X297861Y5802230D01*
X204171Y5951335D01*
X204166Y5951341D01*
X79640Y6075867D01*
X79634Y6075872D01*
X-69471Y6169562D01*
X-171642Y6205312D01*
X-194046Y6213152D01*
X-250821Y6253873D01*
X-276569Y6318825D01*
X-272571Y6363367D01*
X-271930Y6365679D01*
X-1172700Y7266448D01*
X-2073472Y6365678D01*
X-2072830Y6363366D01*
X-2073862Y6293504D01*
X-2112501Y6235290D01*
X-2151356Y6213151D01*
X-2275926Y6169563D01*
X-2386128Y6100318D01*
X-2453365Y6081318D01*
X-2520200Y6101686D01*
X-2565414Y6154954D01*
X-2576100Y6205312D01*
X-2576100Y6518790D01*
X-2556415Y6585829D01*
X-2539781Y6606471D01*
X-1526252Y7620000D01*
X-2539781Y8633529D01*
X-2573266Y8694852D01*
X-2576100Y8721210D01*
X-2576100Y9034689D01*
X-2556415Y9101728D01*
X-2503611Y9147483D01*
X-2434453Y9157427D01*
X-2386128Y9139682D01*
X-2275930Y9070439D01*
X-2225292Y9052721D01*
X-2151356Y9026849D01*
X-2094581Y8986128D01*
X-2068833Y8921176D01*
X-2072831Y8876633D01*
X-2073473Y8874325D01*
X-1172701Y7973553D01*
X-271930Y8874324D01*
X-272571Y8876632D01*
X-271541Y8946494D01*
X-232904Y9004708D01*
X-194051Y9026847D01*
X-69474Y9070438D01*
X79640Y9164133D01*
X204167Y9288660D01*
X204171Y9288666D01*
X297861Y9437771D01*
X328828Y9526270D01*
X343159Y9567226D01*
X383880Y9624000D01*
X448832Y9649748D01*
X517394Y9636292D01*
X567797Y9587905D01*
X584200Y9526270D01*
X584200Y8506918D01*
X564515Y8439879D01*
X511711Y8394124D01*
X442553Y8384180D01*
X378997Y8413205D01*
X349112Y8451822D01*
X335991Y8478277D01*
X215934Y8627634D01*
X200716Y8639867D01*
X200715Y8639867D01*
X-819149Y7620002D01*
X-819149Y7620001D01*
X200716Y6600136D01*
X200717Y6600136D01*
X215931Y6612365D01*
X335994Y6761729D01*
X349112Y6788177D01*
X396533Y6839490D01*
X464168Y6857020D01*
X530543Y6835200D01*
X574585Y6780959D01*
X584200Y6733083D01*
X584200Y6019800D01*
X2997200Y3632200D01*
X2997201Y3632201D01*
X2997202Y3632200D01*
X3066537Y3632276D01*
X24629752Y3655817D01*
X24696811Y3636206D01*
X24742623Y3583452D01*
X24752497Y3550321D01*
X24792013Y3288485D01*
X24792628Y3283809D01*
X24898068Y2344168D01*
X24898504Y2339471D01*
X24968125Y1396546D01*
X24968383Y1391836D01*
X25002095Y446928D01*
X25002174Y442212D01*
X24999922Y-503317D01*
X24999821Y-508033D01*
X24961611Y-1452796D01*
X24961330Y-1457505D01*
X24887218Y-2400092D01*
X24886759Y-2404786D01*
X24776851Y-3343886D01*
X24776214Y-3348560D01*
X24630665Y-4282827D01*
X24629850Y-4287473D01*
X24448881Y-5215485D01*
X24447891Y-5220096D01*
X24231747Y-6140606D01*
X24230581Y-6145177D01*
X23979597Y-7056750D01*
X23978259Y-7061273D01*
X23692781Y-7962662D01*
X23691272Y-7967131D01*
X23371708Y-8857041D01*
X23370029Y-8861449D01*
X23016866Y-9738523D01*
X23015025Y-9742855D01*
X23009663Y-9754836D01*
X22726619Y-10387220D01*
X22681265Y-10440368D01*
X22614376Y-10460558D01*
X22604571Y-10460244D01*
X22426886Y-10447496D01*
X22333723Y-10440812D01*
X21990577Y-10453567D01*
X21990565Y-10453568D01*
X21650835Y-10503498D01*
X21318506Y-10590021D01*
X21318498Y-10590024D01*
X20997547Y-10712104D01*
X20691737Y-10868310D01*
X20691726Y-10868316D01*
X20404699Y-11056785D01*
X20404686Y-11056794D01*
X20404681Y-11056798D01*
X20385378Y-11072723D01*
X20139789Y-11275332D01*
X19900190Y-11521325D01*
X19900183Y-11521333D01*
X19688709Y-11791881D01*
X19688707Y-11791884D01*
X19507852Y-12083789D01*
X19359755Y-12393605D01*
X19359753Y-12393611D01*
X19253645Y-12696331D01*
X19246161Y-12717681D01*
X19168421Y-13052167D01*
X19127455Y-13393096D01*
X19126476Y-13483609D01*
X19123742Y-13736485D01*
X19157328Y-14078237D01*
X19227815Y-14414324D01*
X19227816Y-14414328D01*
X19227817Y-14414331D01*
X19227818Y-14414336D01*
X19334366Y-14740758D01*
X19334375Y-14740781D01*
X19475733Y-15053713D01*
X19475744Y-15053736D01*
X19614481Y-15288873D01*
X19631595Y-15356614D01*
X19609368Y-15422854D01*
X19603891Y-15430118D01*
X19157862Y-15978611D01*
X19154794Y-15982240D01*
X18530861Y-16692117D01*
X18527656Y-16695625D01*
X17876990Y-17381072D01*
X17873654Y-17384454D01*
X17197210Y-18044471D01*
X17193746Y-18047724D01*
X16492506Y-18681347D01*
X16488921Y-18684464D01*
X15763901Y-19290777D01*
X15760209Y-19293746D01*
X15627753Y-19396154D01*
X15012527Y-19871813D01*
X15008713Y-19874646D01*
X14239417Y-20423657D01*
X14235498Y-20426342D01*
X13445750Y-20945471D01*
X13441730Y-20948005D01*
X12632655Y-21436507D01*
X12628542Y-21438884D01*
X11801353Y-21896031D01*
X11797151Y-21898249D01*
X10953071Y-22323362D01*
X10948787Y-22325418D01*
X10089028Y-22717890D01*
X10084669Y-22719780D01*
X9210495Y-23079030D01*
X9206067Y-23080751D01*
X8367119Y-23388514D01*
X8324413Y-23396100D01*
X-7969484Y-23396100D01*
X-8011750Y-23388675D01*
X-8809553Y-23099421D01*
X-8813790Y-23097796D01*
X-9279978Y-22909200D01*
X-9334742Y-22865811D01*
X-9357355Y-22799701D01*
X-9340637Y-22731861D01*
X-9296597Y-22687519D01*
X-9236335Y-22651881D01*
X-9120119Y-22535665D01*
X-9036456Y-22394198D01*
X-8990602Y-22236369D01*
X-8987700Y-22199494D01*
X-8987700Y-20768106D01*
X-8990602Y-20731231D01*
X-9000328Y-20697755D01*
X-9036455Y-20573406D01*
X-9036456Y-20573403D01*
X-9036456Y-20573402D01*
X-9120119Y-20431935D01*
X-9120121Y-20431933D01*
X-9120124Y-20431929D01*
X-9236330Y-20315723D01*
X-9236338Y-20315717D01*
X-9377804Y-20232055D01*
X-9377807Y-20232054D01*
X-9535627Y-20186202D01*
X-9535633Y-20186201D01*
X-9572499Y-20183300D01*
X-9572506Y-20183300D01*
X-10403894Y-20183300D01*
X-10403902Y-20183300D01*
X-10440768Y-20186201D01*
X-10440774Y-20186202D01*
X-10598594Y-20232054D01*
X-10598597Y-20232055D01*
X-10740063Y-20315717D01*
X-10740071Y-20315723D01*
X-10856277Y-20431929D01*
X-10856283Y-20431937D01*
X-10939945Y-20573403D01*
X-10939946Y-20573406D01*
X-10985798Y-20731226D01*
X-10985799Y-20731232D01*
X-10988700Y-20768098D01*
X-10988700Y-21937814D01*
X-11008385Y-22004853D01*
X-11061189Y-22050608D01*
X-11130347Y-22060552D01*
X-11167484Y-22049056D01*
X-11284563Y-21991397D01*
X-11288567Y-21989333D01*
X-12080730Y-21562507D01*
X-12084634Y-21560310D01*
X-12103479Y-21549248D01*
X-12566136Y-21277665D01*
X-12860588Y-21104820D01*
X-12864458Y-21102452D01*
X-13623258Y-20618856D01*
X-13627040Y-20616347D01*
X-13642794Y-20605476D01*
X-14367596Y-20105340D01*
X-14371282Y-20102696D01*
X-15092654Y-19564927D01*
X-15096242Y-19562149D01*
X-15797469Y-18998335D01*
X-15800953Y-18995427D01*
X-15986078Y-18835081D01*
X-16481090Y-18406326D01*
X-16484422Y-18403331D01*
X-16595844Y-18299449D01*
X-9488200Y-18299449D01*
X-9485301Y-18336289D01*
X-9485300Y-18336295D01*
X-9439484Y-18493993D01*
X-9439483Y-18493996D01*
X-9355886Y-18635352D01*
X-9355879Y-18635361D01*
X-9239762Y-18751478D01*
X-9239753Y-18751485D01*
X-9098399Y-18835081D01*
X-8940686Y-18880900D01*
X-8940689Y-18880900D01*
X-8938202Y-18881095D01*
X-8938200Y-18881095D01*
X-8938200Y-17858800D01*
X-9488200Y-17858800D01*
X-9488200Y-18299449D01*
X-16595844Y-18299449D01*
X-17142559Y-17789728D01*
X-17145788Y-17786606D01*
X-17155615Y-17776747D01*
X-17189001Y-17715375D01*
X-17183906Y-17645691D01*
X-17141947Y-17589824D01*
X-17076444Y-17565510D01*
X-17008777Y-17580152D01*
X-16860810Y-17660228D01*
X-16625614Y-17740971D01*
X-16380335Y-17781900D01*
X-16131665Y-17781900D01*
X-15886386Y-17740971D01*
X-15651190Y-17660228D01*
X-15432491Y-17541874D01*
X-15236256Y-17389138D01*
X-15067836Y-17206185D01*
X-14931827Y-16998007D01*
X-14896798Y-16918150D01*
X-9488200Y-16918150D01*
X-9488200Y-17358800D01*
X-8938200Y-17358800D01*
X-8938200Y-16336503D01*
X-8940697Y-16336700D01*
X-9098394Y-16382516D01*
X-9098397Y-16382517D01*
X-9239753Y-16466114D01*
X-9239762Y-16466121D01*
X-9355879Y-16582238D01*
X-9355886Y-16582247D01*
X-9439483Y-16723603D01*
X-9439484Y-16723606D01*
X-9485300Y-16881304D01*
X-9485301Y-16881310D01*
X-9488200Y-16918150D01*
X-14896798Y-16918150D01*
X-14831937Y-16770281D01*
X-14770892Y-16529221D01*
X-14767311Y-16486005D01*
X-14750357Y-16281405D01*
X-14750357Y-16281394D01*
X-14770891Y-16033587D01*
X-14770893Y-16033575D01*
X-14831937Y-15792518D01*
X-14931827Y-15564793D01*
X-15067834Y-15356617D01*
X-15122506Y-15297228D01*
X-15236256Y-15173662D01*
X-15432491Y-15020926D01*
X-15432493Y-15020925D01*
X-15432494Y-15020924D01*
X-15651189Y-14902572D01*
X-15651198Y-14902569D01*
X-15886384Y-14821829D01*
X-16131665Y-14780900D01*
X-16380335Y-14780900D01*
X-16625617Y-14821829D01*
X-16860803Y-14902569D01*
X-16860812Y-14902572D01*
X-17079507Y-15020924D01*
X-17275743Y-15173661D01*
X-17444167Y-15356617D01*
X-17580174Y-15564793D01*
X-17680064Y-15792518D01*
X-17741108Y-16033575D01*
X-17741110Y-16033587D01*
X-17761643Y-16281394D01*
X-17761643Y-16281405D01*
X-17741110Y-16529212D01*
X-17741108Y-16529224D01*
X-17680064Y-16770281D01*
X-17585826Y-16985120D01*
X-17580173Y-16998007D01*
X-17570270Y-17013164D01*
X-17550083Y-17080054D01*
X-17569263Y-17147239D01*
X-17621721Y-17193390D01*
X-17690803Y-17203853D01*
X-17754575Y-17175307D01*
X-17761890Y-17168537D01*
X-17781048Y-17149318D01*
X-17784169Y-17146070D01*
X-18306500Y-16582238D01*
X-18395653Y-16486002D01*
X-18398673Y-16482620D01*
X-18411220Y-16468041D01*
X-18569719Y-16283865D01*
X-18985600Y-15800614D01*
X-18988496Y-15797121D01*
X-19325622Y-15375085D01*
X-19409137Y-15270536D01*
X-19435597Y-15205872D01*
X-19422897Y-15137166D01*
X-19421875Y-15135191D01*
X-19287239Y-14880520D01*
X-19287239Y-14880517D01*
X-19287234Y-14880510D01*
X-19160290Y-14560936D01*
X-19128729Y-14446862D01*
X-19068600Y-14229535D01*
X-19068596Y-14229516D01*
X-19013229Y-13890146D01*
X-18999056Y-13625606D01*
X-18994833Y-13546784D01*
X-18994833Y-13546781D01*
X-18998290Y-13483609D01*
X-19013623Y-13203425D01*
X-19069381Y-12864112D01*
X-19069382Y-12864108D01*
X-19069384Y-12864099D01*
X-19161453Y-12532807D01*
X-19164266Y-12525750D01*
X-19210487Y-12409778D01*
X-19288763Y-12213380D01*
X-19296541Y-12198709D01*
X-19425141Y-11956128D01*
X-19449823Y-11909569D01*
X-19449825Y-11909567D01*
X-19449826Y-11909564D01*
X-19642752Y-11624921D01*
X-19642754Y-11624919D01*
X-19642759Y-11624911D01*
X-19642764Y-11624905D01*
X-19865285Y-11362779D01*
X-19865292Y-11362772D01*
X-20114829Y-11126195D01*
X-20114828Y-11126195D01*
X-20346139Y-10950153D01*
X-20388461Y-10917943D01*
X-20388467Y-10917939D01*
X-20388472Y-10917936D01*
X-20682978Y-10740459D01*
X-20994939Y-10595818D01*
X-20994950Y-10595813D01*
X-21264247Y-10504789D01*
X-21320701Y-10485707D01*
X-21656444Y-10411419D01*
X-21656449Y-10411418D01*
X-21656450Y-10411418D01*
X-21805442Y-10395029D01*
X-21998246Y-10373821D01*
X-22342110Y-10373353D01*
X-22342111Y-10373353D01*
X-22342119Y-10373353D01*
X-22471478Y-10387226D01*
X-22540234Y-10374802D01*
X-22591359Y-10327178D01*
X-22608700Y-10263933D01*
X-22608700Y10265842D01*
X-22589015Y10332881D01*
X-22536211Y10378636D01*
X-22472107Y10389201D01*
X-22342590Y10375977D01*
X-22342576Y10375978D01*
X-22342574Y10375977D01*
X-22131729Y10377392D01*
X-21999940Y10378276D01*
X-21659553Y10417650D01*
X-21325428Y10493637D01*
X-21001490Y10605343D01*
X-21000082Y10606008D01*
X-20999718Y10606064D01*
X-20998385Y10606606D01*
X-20998317Y10606438D01*
X-20998311Y10606439D01*
X-20998278Y10606342D01*
X-20998258Y10606293D01*
X-20931050Y10616793D01*
X-20867146Y10588545D01*
G37*
%TD.AperFunction*%
%TA.AperFunction,Conductor*%
G36*
X5726569Y-18398958D02*
G01*
X5771088Y-18450335D01*
X5809998Y-18533778D01*
X5945493Y-18727282D01*
X6112516Y-18894305D01*
X6255390Y-18994347D01*
X6299014Y-19048924D01*
X6306207Y-19118423D01*
X6274685Y-19180777D01*
X6243286Y-19204975D01*
X6215257Y-19220144D01*
X6215252Y-19220147D01*
X6184800Y-19243847D01*
X6813366Y-19872412D01*
X6771308Y-19883682D01*
X6645892Y-19956090D01*
X6543490Y-20058492D01*
X6471082Y-20183908D01*
X6459812Y-20225965D01*
X5832411Y-19598565D01*
X5759040Y-19710870D01*
X5705894Y-19756227D01*
X5636662Y-19765651D01*
X5573327Y-19736149D01*
X5553656Y-19714172D01*
X5531995Y-19683237D01*
X5498018Y-19634712D01*
X5443648Y-19557062D01*
X5426261Y-19539675D01*
X5282739Y-19396153D01*
X5196976Y-19336101D01*
X5153351Y-19281524D01*
X5144100Y-19234526D01*
X5144100Y-18956834D01*
X5163785Y-18889795D01*
X5196977Y-18855259D01*
X5250477Y-18817798D01*
X5405198Y-18663077D01*
X5530702Y-18483839D01*
X5546325Y-18450334D01*
X5592494Y-18397897D01*
X5659687Y-18378744D01*
X5726569Y-18398958D01*
G37*
%TD.AperFunction*%
%TA.AperFunction,Conductor*%
G36*
X7233599Y-17423188D02*
G01*
X7176592Y-17390275D01*
X7049425Y-17356200D01*
X6917773Y-17356200D01*
X6790606Y-17390275D01*
X6733599Y-17423188D01*
X6733599Y-15749212D01*
X6790606Y-15782125D01*
X6917773Y-15816200D01*
X7049425Y-15816200D01*
X7176592Y-15782125D01*
X7233599Y-15749212D01*
X7233599Y-17423188D01*
G37*
%TD.AperFunction*%
%TA.AperFunction,Conductor*%
G36*
X441398Y21801615D02*
G01*
X487153Y21748811D01*
X498355Y21698283D01*
X512944Y19858185D01*
X493792Y19790992D01*
X441352Y19744820D01*
X372275Y19734328D01*
X370467Y19734587D01*
X211151Y19758600D01*
X-51152Y19758600D01*
X-310500Y19719510D01*
X-310506Y19719508D01*
X-561142Y19642196D01*
X-561146Y19642195D01*
X-797453Y19528395D01*
X-797461Y19528390D01*
X-969170Y19411323D01*
X-244026Y18686179D01*
X-275258Y18673241D01*
X-398097Y18591163D01*
X-502563Y18486697D01*
X-584641Y18363858D01*
X-597579Y18332626D01*
X-1322126Y19057173D01*
X-1369972Y18997175D01*
X-1501117Y18770027D01*
X-1596942Y18525871D01*
X-1655307Y18270151D01*
X-1655308Y18270146D01*
X-1674907Y18008605D01*
X-1674907Y18008596D01*
X-1655308Y17747055D01*
X-1655307Y17747050D01*
X-1596942Y17491330D01*
X-1501117Y17247174D01*
X-1501118Y17247174D01*
X-1369971Y17020024D01*
X-1322127Y16960028D01*
X-597579Y17684576D01*
X-584641Y17653342D01*
X-502563Y17530503D01*
X-398097Y17426037D01*
X-275258Y17343959D01*
X-244027Y17331023D01*
X-969170Y16605880D01*
X-797454Y16488807D01*
X-797450Y16488805D01*
X-561146Y16375006D01*
X-561142Y16375005D01*
X-310506Y16297693D01*
X-310500Y16297691D01*
X-51152Y16258601D01*
X-51143Y16258600D01*
X211143Y16258600D01*
X211149Y16258601D01*
X399746Y16287028D01*
X468971Y16277555D01*
X522085Y16232161D01*
X542224Y16165396D01*
X584196Y10871705D01*
X584200Y10870722D01*
X584200Y10793731D01*
X564515Y10726692D01*
X511711Y10680937D01*
X442553Y10670993D01*
X378997Y10700018D01*
X343158Y10752777D01*
X342708Y10754062D01*
X315251Y10832532D01*
X297861Y10882230D01*
X204171Y11031335D01*
X204166Y11031341D01*
X79640Y11155867D01*
X79634Y11155872D01*
X-69471Y11249562D01*
X-235706Y11307729D01*
X-366808Y11322500D01*
X-366812Y11322500D01*
X-1978588Y11322500D01*
X-1978592Y11322500D01*
X-2109695Y11307729D01*
X-2275930Y11249562D01*
X-2425035Y11155872D01*
X-2425041Y11155867D01*
X-2549569Y11031339D01*
X-2631714Y10900606D01*
X-2684049Y10854316D01*
X-2712513Y10844962D01*
X-2769726Y10833581D01*
X-2769733Y10833579D01*
X-2897208Y10780778D01*
X-3011946Y10704113D01*
X-3820713Y9895346D01*
X-3868341Y9824063D01*
X-3868342Y9824062D01*
X-3882859Y9802337D01*
X-3897375Y9780612D01*
X-3897379Y9780605D01*
X-3950179Y9653133D01*
X-3950182Y9653123D01*
X-3977100Y9517796D01*
X-3977100Y5599320D01*
X-3996785Y5532281D01*
X-4013419Y5511639D01*
X-5725710Y3799349D01*
X-5725716Y3799342D01*
X-5762349Y3744515D01*
X-5762349Y3744514D01*
X-5776572Y3723228D01*
X-5802375Y3684612D01*
X-5802379Y3684605D01*
X-5855179Y3557133D01*
X-5855182Y3557123D01*
X-5882100Y3421796D01*
X-5882100Y3092493D01*
X-5901106Y3026522D01*
X-5907391Y3016521D01*
X-5966967Y2846263D01*
X-5966970Y2846251D01*
X-5984784Y2688138D01*
X-6011850Y2623724D01*
X-6069445Y2584169D01*
X-6139282Y2582032D01*
X-6195685Y2614341D01*
X-7571782Y3990438D01*
X-9053057Y5471714D01*
X-9781162Y6199819D01*
X-9814647Y6261142D01*
X-9809663Y6330834D01*
X-9767791Y6386767D01*
X-9702327Y6411184D01*
X-9693481Y6411500D01*
X-5696710Y6411500D01*
X-5696708Y6411500D01*
X-5569414Y6445608D01*
X-5455286Y6511500D01*
X-4741699Y7225087D01*
X-4705380Y7287994D01*
X-4675807Y7339215D01*
X-4641699Y7466509D01*
X-4641699Y12792519D01*
X-4622014Y12859558D01*
X-4580819Y12899251D01*
X-4460563Y12970370D01*
X-4460564Y12970370D01*
X-4460556Y12970374D01*
X-4408382Y13022548D01*
X-4354881Y13076048D01*
X-4293558Y13109533D01*
X-4223866Y13104549D01*
X-4179519Y13076048D01*
X-4073850Y12970379D01*
X-4073846Y12970376D01*
X-4073844Y12970374D01*
X-4073841Y12970373D01*
X-4073838Y12970370D01*
X-3981345Y12915671D01*
X-3935095Y12888319D01*
X-3904351Y12879387D01*
X-3780304Y12843347D01*
X-3780301Y12843347D01*
X-3780299Y12843346D01*
X-3744136Y12840500D01*
X-3040267Y12840501D01*
X-3004103Y12843346D01*
X-2849307Y12888319D01*
X-2710558Y12970374D01*
X-2596575Y13084357D01*
X-2514520Y13223106D01*
X-2469547Y13377902D01*
X-2466701Y13414065D01*
X-2466702Y14017934D01*
X-2469547Y14054098D01*
X-2514520Y14208894D01*
X-2596575Y14347643D01*
X-2596577Y14347645D01*
X-2596580Y14347649D01*
X-2710553Y14461622D01*
X-2710565Y14461631D01*
X-2849305Y14543680D01*
X-2849312Y14543683D01*
X-3004099Y14588654D01*
X-3004105Y14588655D01*
X-3040259Y14591500D01*
X-3040266Y14591500D01*
X-3473170Y14591500D01*
X-3540209Y14611185D01*
X-3560851Y14627819D01*
X-3773136Y14840104D01*
X-3806621Y14901427D01*
X-3801637Y14971119D01*
X-3759765Y15027052D01*
X-3709645Y15049403D01*
X-3603326Y15070551D01*
X-3412242Y15149701D01*
X-3412232Y15149706D01*
X-3240265Y15264611D01*
X-3240261Y15264614D01*
X-3094014Y15410861D01*
X-3094011Y15410865D01*
X-2979106Y15582832D01*
X-2979101Y15582842D01*
X-2899951Y15773926D01*
X-2899949Y15773934D01*
X-2859601Y15976780D01*
X-2859600Y15976783D01*
X-2859600Y16130200D01*
X-3609600Y16130200D01*
X-3609600Y16630200D01*
X-2859600Y16630200D01*
X-2859600Y16783617D01*
X-2859601Y16783621D01*
X-2899949Y16986467D01*
X-2899951Y16986475D01*
X-2979101Y17177559D01*
X-2979106Y17177569D01*
X-3094011Y17349536D01*
X-3094014Y17349540D01*
X-3240261Y17495787D01*
X-3240265Y17495790D01*
X-3412232Y17610695D01*
X-3412242Y17610700D01*
X-3603328Y17689851D01*
X-3603333Y17689853D01*
X-3659600Y17701045D01*
X-3659600Y16847189D01*
X-3669540Y16864405D01*
X-3725395Y16920260D01*
X-3793804Y16959756D01*
X-3870104Y16980200D01*
X-3949096Y16980200D01*
X-4025396Y16959756D01*
X-4093805Y16920260D01*
X-4149660Y16864405D01*
X-4159600Y16847189D01*
X-4159600Y17701044D01*
X-4159601Y17701045D01*
X-4215868Y17689853D01*
X-4215873Y17689851D01*
X-4406959Y17610700D01*
X-4406969Y17610695D01*
X-4578936Y17495790D01*
X-4578940Y17495787D01*
X-4725187Y17349540D01*
X-4725191Y17349535D01*
X-4738609Y17329454D01*
X-4792223Y17284650D01*
X-4861548Y17275945D01*
X-4905859Y17292231D01*
X-4990205Y17343220D01*
X-4990204Y17343220D01*
X-5152495Y17393791D01*
X-5152494Y17393791D01*
X-5223028Y17400200D01*
X-5229600Y17400200D01*
X-5229600Y16550200D01*
X-5089600Y16550200D01*
X-5071310Y16568491D01*
X-5069915Y16573239D01*
X-5017111Y16618994D01*
X-4965600Y16630200D01*
X-4209600Y16630200D01*
X-4209600Y16130200D01*
X-4449600Y16130200D01*
X-4467891Y16111910D01*
X-4469285Y16107161D01*
X-4522089Y16061406D01*
X-4573600Y16050200D01*
X-5355600Y16050200D01*
X-5422639Y16069885D01*
X-5468394Y16122689D01*
X-5479600Y16174200D01*
X-5479600Y16300200D01*
X-5605600Y16300200D01*
X-5672639Y16319885D01*
X-5718394Y16372689D01*
X-5729600Y16424200D01*
X-5729600Y17400200D01*
X-5729601Y17400201D01*
X-5736164Y17400200D01*
X-5736183Y17400199D01*
X-5806703Y17393792D01*
X-5806708Y17393791D01*
X-5968998Y17343219D01*
X-6114475Y17255276D01*
X-6119025Y17251710D01*
X-6183937Y17225862D01*
X-6242949Y17234761D01*
X-6365446Y17285500D01*
X-6365451Y17285502D01*
X-6480899Y17300700D01*
X-6938304Y17300700D01*
X-7053743Y17285504D01*
X-7053752Y17285501D01*
X-7181137Y17232736D01*
X-7250607Y17225267D01*
X-7276042Y17232736D01*
X-7404361Y17285887D01*
X-7404363Y17285888D01*
X-7404364Y17285888D01*
X-7418429Y17287740D01*
X-7516873Y17300701D01*
X-7516880Y17300701D01*
X-7942320Y17300701D01*
X-7942328Y17300701D01*
X-8054836Y17285888D01*
X-8054837Y17285888D01*
X-8182147Y17233154D01*
X-8251617Y17225685D01*
X-8277053Y17233154D01*
X-8325634Y17253277D01*
X-8404364Y17285888D01*
X-8418429Y17287740D01*
X-8516873Y17300701D01*
X-8516880Y17300701D01*
X-8942320Y17300701D01*
X-8942328Y17300701D01*
X-9054836Y17285888D01*
X-9054840Y17285887D01*
X-9183158Y17232736D01*
X-9252627Y17225267D01*
X-9278063Y17232736D01*
X-9405449Y17285501D01*
X-9405451Y17285502D01*
X-9520899Y17300700D01*
X-9978304Y17300700D01*
X-10093743Y17285504D01*
X-10093755Y17285500D01*
X-10216251Y17234761D01*
X-10285720Y17227292D01*
X-10340169Y17251706D01*
X-10344720Y17255271D01*
X-10490205Y17343220D01*
X-10490204Y17343220D01*
X-10652495Y17393791D01*
X-10652494Y17393791D01*
X-10723028Y17400200D01*
X-10729600Y17400200D01*
X-10729600Y15200201D01*
X-10723019Y15200201D01*
X-10685320Y15203626D01*
X-10616774Y15190088D01*
X-10566429Y15141641D01*
X-10550100Y15080135D01*
X-10550100Y14369754D01*
X-10519339Y14215111D01*
X-10519336Y14215099D01*
X-10458998Y14069428D01*
X-10458991Y14069415D01*
X-10371390Y13938312D01*
X-10371387Y13938308D01*
X-9562589Y13129511D01*
X-9461338Y13028260D01*
X-9451088Y13018010D01*
X-9415411Y12994172D01*
X-9370605Y12940561D01*
X-9360300Y12891069D01*
X-9360300Y11489300D01*
X-9379985Y11422261D01*
X-9432789Y11376506D01*
X-9484300Y11365300D01*
X-12687094Y11365300D01*
X-12861059Y11330697D01*
X-12861068Y11330694D01*
X-13024941Y11262817D01*
X-13024954Y11262810D01*
X-13172435Y11164265D01*
X-13172439Y11164262D01*
X-13297862Y11038839D01*
X-13297865Y11038835D01*
X-13399036Y10887423D01*
X-13452649Y10842618D01*
X-13521974Y10833911D01*
X-13585001Y10864066D01*
X-13589819Y10868633D01*
X-13967484Y11246298D01*
X-13967486Y11246300D01*
X-14073880Y11307727D01*
X-14081613Y11312192D01*
X-14153382Y11331422D01*
X-14208908Y11346300D01*
X-14208909Y11346300D01*
X-14607859Y11346300D01*
X-14674898Y11365985D01*
X-14695540Y11382618D01*
X-14741534Y11428612D01*
X-14788538Y11475616D01*
X-14847194Y11512472D01*
X-14941277Y11571589D01*
X-15111546Y11631169D01*
X-15111551Y11631170D01*
X-15290796Y11651365D01*
X-15290804Y11651365D01*
X-15470050Y11631170D01*
X-15470055Y11631169D01*
X-15640324Y11571589D01*
X-15793063Y11475616D01*
X-15920616Y11348063D01*
X-16016589Y11195324D01*
X-16076169Y11025055D01*
X-16076170Y11025050D01*
X-16096365Y10845804D01*
X-16096365Y10845797D01*
X-16076170Y10666551D01*
X-16076169Y10666546D01*
X-16016589Y10496277D01*
X-15940999Y10375977D01*
X-15920616Y10343538D01*
X-15793062Y10215984D01*
X-15640322Y10120011D01*
X-15478197Y10063281D01*
X-15470055Y10060432D01*
X-15470050Y10060431D01*
X-15290804Y10040235D01*
X-15290800Y10040235D01*
X-15290796Y10040235D01*
X-15111551Y10060431D01*
X-15111548Y10060432D01*
X-15111545Y10060432D01*
X-14941278Y10120011D01*
X-14788538Y10215984D01*
X-14695540Y10308982D01*
X-14634216Y10342466D01*
X-14607859Y10345300D01*
X-14533476Y10345300D01*
X-14466437Y10325615D01*
X-14445795Y10308981D01*
X-14398476Y10261662D01*
X-14364991Y10200339D01*
X-14369975Y10130647D01*
X-14411847Y10074714D01*
X-14445202Y10056940D01*
X-14471920Y10047592D01*
X-14624663Y9951616D01*
X-14752216Y9824063D01*
X-14848189Y9671324D01*
X-14907769Y9501055D01*
X-14907770Y9501050D01*
X-14927965Y9321804D01*
X-14927965Y9321797D01*
X-14907770Y9142551D01*
X-14907769Y9142546D01*
X-14848189Y8972277D01*
X-14768514Y8845476D01*
X-14752216Y8819538D01*
X-14624662Y8691984D01*
X-14541718Y8639867D01*
X-14531632Y8633529D01*
X-14471922Y8596011D01*
X-14301655Y8536432D01*
X-14301651Y8536431D01*
X-14200298Y8525012D01*
X-14122400Y8516235D01*
X-14122399Y8516236D01*
X-14116485Y8515569D01*
X-14052071Y8488503D01*
X-14042687Y8480030D01*
X-10043714Y4481057D01*
X-8557789Y2995132D01*
X-7265037Y1702381D01*
X-7231552Y1641058D01*
X-7236536Y1571366D01*
X-7278408Y1515433D01*
X-7343872Y1491016D01*
X-7352718Y1490700D01*
X-11327805Y1490700D01*
X-11327821Y1490701D01*
X-11335417Y1490701D01*
X-11473783Y1490701D01*
X-11579191Y1462458D01*
X-11579192Y1462457D01*
X-11607436Y1454888D01*
X-11670145Y1418683D01*
X-11727264Y1385706D01*
X-11727267Y1385704D01*
X-11825107Y1287863D01*
X-12398499Y714472D01*
X-12459822Y680987D01*
X-12489837Y679455D01*
X-12489837Y678565D01*
X-12496804Y678565D01*
X-12676050Y658370D01*
X-12676055Y658369D01*
X-12846324Y598789D01*
X-12999063Y502816D01*
X-13126616Y375263D01*
X-13222589Y222524D01*
X-13282169Y52255D01*
X-13282170Y52250D01*
X-13302365Y-126996D01*
X-13302365Y-127003D01*
X-13282170Y-306249D01*
X-13282169Y-306254D01*
X-13222589Y-476523D01*
X-13172649Y-556001D01*
X-13126616Y-629262D01*
X-13068458Y-687420D01*
X-13043459Y-712419D01*
X-13009975Y-773743D01*
X-13014959Y-843434D01*
X-13043459Y-887780D01*
X-13075816Y-920137D01*
X-13171789Y-1072876D01*
X-13231369Y-1243145D01*
X-13231370Y-1243150D01*
X-13251565Y-1422396D01*
X-13251565Y-1429363D01*
X-13253724Y-1429363D01*
X-13263988Y-1487960D01*
X-13287472Y-1520701D01*
X-13744950Y-1978181D01*
X-13806273Y-2011666D01*
X-13832631Y-2014500D01*
X-17438318Y-2014500D01*
X-17505357Y-1994815D01*
X-17551112Y-1942011D01*
X-17555360Y-1931454D01*
X-17557737Y-1924662D01*
X-17578835Y-1864365D01*
X-17595139Y-1817770D01*
X-17688829Y-1668665D01*
X-17688834Y-1668659D01*
X-17813360Y-1544133D01*
X-17813366Y-1544128D01*
X-17962471Y-1450438D01*
X-18075138Y-1411015D01*
X-18128700Y-1392273D01*
X-18128703Y-1392272D01*
X-18128710Y-1392270D01*
X-18134763Y-1390888D01*
X-18195738Y-1356773D01*
X-18228589Y-1295109D01*
X-18222887Y-1225472D01*
X-18180442Y-1169973D01*
X-18134754Y-1149110D01*
X-18128706Y-1147729D01*
X-18128705Y-1147728D01*
X-18128700Y-1147728D01*
X-17962474Y-1089563D01*
X-17962475Y-1089563D01*
X-17962471Y-1089562D01*
X-17813366Y-995872D01*
X-17813365Y-995871D01*
X-17813360Y-995868D01*
X-17688833Y-871341D01*
X-17688829Y-871335D01*
X-17595139Y-722230D01*
X-17582959Y-687420D01*
X-17536973Y-556001D01*
X-17522200Y-424889D01*
X-17522200Y424887D01*
X-17533536Y525499D01*
X-17536972Y555994D01*
X-17536973Y555996D01*
X-17536973Y555999D01*
X-17595138Y722225D01*
X-17595139Y722229D01*
X-17688829Y871334D01*
X-17688834Y871340D01*
X-17813360Y995866D01*
X-17813366Y995871D01*
X-17962471Y1089561D01*
X-18062210Y1124460D01*
X-18128700Y1147726D01*
X-18128704Y1147727D01*
X-18134764Y1149110D01*
X-18195741Y1183223D01*
X-18228595Y1244886D01*
X-18222896Y1314523D01*
X-18180453Y1370024D01*
X-18134764Y1390890D01*
X-18128713Y1392273D01*
X-18128700Y1392274D01*
X-17962474Y1450439D01*
X-17962475Y1450439D01*
X-17962471Y1450440D01*
X-17813366Y1544130D01*
X-17813365Y1544131D01*
X-17813360Y1544134D01*
X-17688833Y1668661D01*
X-17688829Y1668667D01*
X-17595139Y1817772D01*
X-17586628Y1842095D01*
X-17536973Y1984001D01*
X-17522200Y2115113D01*
X-17522200Y2964889D01*
X-17530918Y3042263D01*
X-17536972Y3095996D01*
X-17536973Y3095998D01*
X-17536973Y3096001D01*
X-17586627Y3237904D01*
X-17595139Y3262231D01*
X-17688829Y3411336D01*
X-17688834Y3411342D01*
X-17813360Y3535868D01*
X-17813366Y3535873D01*
X-17962471Y3629563D01*
X-18075138Y3668986D01*
X-18128700Y3687728D01*
X-18128703Y3687729D01*
X-18128710Y3687731D01*
X-18134763Y3689113D01*
X-18195738Y3723228D01*
X-18228589Y3784892D01*
X-18222887Y3854529D01*
X-18180442Y3910028D01*
X-18134754Y3930891D01*
X-18128706Y3932272D01*
X-18128705Y3932273D01*
X-18128700Y3932273D01*
X-17962474Y3990438D01*
X-17962475Y3990438D01*
X-17962471Y3990439D01*
X-17813366Y4084129D01*
X-17813365Y4084130D01*
X-17813360Y4084133D01*
X-17688833Y4208660D01*
X-17678096Y4225747D01*
X-17595139Y4357771D01*
X-17592622Y4364967D01*
X-17536973Y4524000D01*
X-17522200Y4655112D01*
X-17522200Y5504888D01*
X-17534776Y5616500D01*
X-17536972Y5635995D01*
X-17536973Y5635997D01*
X-17536973Y5636000D01*
X-17595138Y5802226D01*
X-17595139Y5802230D01*
X-17688829Y5951335D01*
X-17688834Y5951341D01*
X-17813360Y6075867D01*
X-17813366Y6075872D01*
X-17962471Y6169562D01*
X-18064642Y6205312D01*
X-18128700Y6227727D01*
X-18128704Y6227728D01*
X-18134760Y6229110D01*
X-18195736Y6263222D01*
X-18228591Y6324885D01*
X-18222893Y6394522D01*
X-18180450Y6450024D01*
X-18134760Y6470890D01*
X-18128713Y6472272D01*
X-18128700Y6472273D01*
X-17962474Y6530438D01*
X-17962475Y6530438D01*
X-17962471Y6530439D01*
X-17813366Y6624129D01*
X-17813365Y6624130D01*
X-17813360Y6624133D01*
X-17688833Y6748660D01*
X-17668538Y6780959D01*
X-17595139Y6897771D01*
X-17563906Y6987031D01*
X-17536973Y7064000D01*
X-17536232Y7070572D01*
X-17528119Y7142584D01*
X-17522200Y7195112D01*
X-17522200Y8044888D01*
X-17533232Y8142802D01*
X-17536972Y8175995D01*
X-17536973Y8175997D01*
X-17536973Y8176000D01*
X-17578835Y8295635D01*
X-17595139Y8342230D01*
X-17688829Y8491335D01*
X-17688834Y8491341D01*
X-17813360Y8615867D01*
X-17813366Y8615872D01*
X-17962471Y8709562D01*
X-18062210Y8744461D01*
X-18128700Y8767727D01*
X-18128704Y8767728D01*
X-18134760Y8769110D01*
X-18195736Y8803222D01*
X-18228591Y8864885D01*
X-18222893Y8934522D01*
X-18180450Y8990024D01*
X-18134760Y9010890D01*
X-18128713Y9012272D01*
X-18128700Y9012273D01*
X-17962474Y9070438D01*
X-17962475Y9070438D01*
X-17962471Y9070439D01*
X-17813366Y9164129D01*
X-17813365Y9164130D01*
X-17813360Y9164133D01*
X-17688833Y9288660D01*
X-17688829Y9288666D01*
X-17595139Y9437771D01*
X-17572995Y9501055D01*
X-17536973Y9604000D01*
X-17534719Y9624000D01*
X-17527404Y9688927D01*
X-17522200Y9735112D01*
X-17522200Y10584888D01*
X-17531902Y10670993D01*
X-17536972Y10715995D01*
X-17536973Y10715997D01*
X-17536973Y10716000D01*
X-17580689Y10840933D01*
X-17595139Y10882230D01*
X-17688829Y11031335D01*
X-17688834Y11031341D01*
X-17813360Y11155867D01*
X-17929866Y11229073D01*
X-17976157Y11281408D01*
X-17986805Y11350462D01*
X-17958430Y11414310D01*
X-17951597Y11421726D01*
X-17937584Y11435738D01*
X-17841611Y11588478D01*
X-17782032Y11758745D01*
X-17779945Y11777264D01*
X-17761835Y11937997D01*
X-17761835Y11938004D01*
X-17782031Y12117250D01*
X-17782032Y12117255D01*
X-17820017Y12225810D01*
X-17841611Y12287522D01*
X-17849115Y12299464D01*
X-17926480Y12422590D01*
X-17937584Y12440262D01*
X-18065138Y12567816D01*
X-18081993Y12578407D01*
X-18217877Y12663789D01*
X-18388146Y12723369D01*
X-18388151Y12723370D01*
X-18567396Y12743565D01*
X-18567404Y12743565D01*
X-18746650Y12723370D01*
X-18746655Y12723369D01*
X-18916925Y12663789D01*
X-18938898Y12649982D01*
X-19006136Y12630983D01*
X-19072970Y12651352D01*
X-19118183Y12704621D01*
X-19127419Y12773878D01*
X-19124619Y12787158D01*
X-19099823Y12879387D01*
X-19047199Y13217978D01*
X-19031533Y13560277D01*
X-19053010Y13902260D01*
X-19111378Y14239909D01*
X-19205951Y14569257D01*
X-19208099Y14574510D01*
X-19241408Y14655986D01*
X-19335617Y14886433D01*
X-19471877Y15137921D01*
X-19486506Y15206240D01*
X-19461875Y15271624D01*
X-19460472Y15273451D01*
X-19439911Y15299702D01*
X-19023868Y15830887D01*
X-19020987Y15834427D01*
X-18643086Y16281406D01*
X-17761643Y16281406D01*
X-17761643Y16281395D01*
X-17741110Y16033588D01*
X-17741108Y16033576D01*
X-17680064Y15792519D01*
X-17580174Y15564794D01*
X-17444167Y15356618D01*
X-17422637Y15333230D01*
X-17275744Y15173662D01*
X-17079509Y15020926D01*
X-16860810Y14902572D01*
X-16625614Y14821829D01*
X-16380335Y14780900D01*
X-16131665Y14780900D01*
X-15886386Y14821829D01*
X-15651190Y14902572D01*
X-15432491Y15020926D01*
X-15236256Y15173662D01*
X-15067836Y15356615D01*
X-15067695Y15356830D01*
X-15034881Y15407057D01*
X-14931827Y15564793D01*
X-14831937Y15792519D01*
X-14770892Y16033579D01*
X-14770891Y16033588D01*
X-14750357Y16281395D01*
X-14750357Y16281406D01*
X-14770891Y16529213D01*
X-14770893Y16529225D01*
X-14831937Y16770282D01*
X-14837788Y16783621D01*
X-13599600Y16783621D01*
X-13599600Y16630200D01*
X-12849600Y16630200D01*
X-12849600Y16130200D01*
X-13599600Y16130200D01*
X-13599600Y15976780D01*
X-13559252Y15773934D01*
X-13559250Y15773926D01*
X-13480100Y15582842D01*
X-13480095Y15582832D01*
X-13365190Y15410865D01*
X-13365187Y15410861D01*
X-13218940Y15264614D01*
X-13218936Y15264611D01*
X-13046969Y15149706D01*
X-13046959Y15149701D01*
X-12855877Y15070552D01*
X-12855875Y15070551D01*
X-12799600Y15059358D01*
X-12799600Y15913212D01*
X-12789660Y15895995D01*
X-12733805Y15840140D01*
X-12665396Y15800644D01*
X-12589096Y15780200D01*
X-12510104Y15780200D01*
X-12433804Y15800644D01*
X-12365395Y15840140D01*
X-12309540Y15895995D01*
X-12299600Y15913212D01*
X-12299600Y15059358D01*
X-12243326Y15070551D01*
X-12243324Y15070552D01*
X-12052242Y15149701D01*
X-12052232Y15149706D01*
X-11880265Y15264611D01*
X-11880261Y15264614D01*
X-11794795Y15350081D01*
X-11733472Y15383567D01*
X-11663781Y15378583D01*
X-11619432Y15350082D01*
X-11614478Y15345128D01*
X-11468996Y15257181D01*
X-11468997Y15257181D01*
X-11306706Y15206610D01*
X-11306707Y15206610D01*
X-11236192Y15200202D01*
X-11236174Y15200201D01*
X-11229601Y15200202D01*
X-11229600Y15200202D01*
X-11229600Y16050200D01*
X-11885600Y16050200D01*
X-11952639Y16069885D01*
X-11974410Y16095010D01*
X-12009600Y16130200D01*
X-12249600Y16130200D01*
X-12249600Y16630200D01*
X-11493600Y16630200D01*
X-11426561Y16610515D01*
X-11404791Y16585391D01*
X-11369600Y16550200D01*
X-11229600Y16550200D01*
X-11229600Y17400200D01*
X-11229601Y17400201D01*
X-11236164Y17400200D01*
X-11236183Y17400199D01*
X-11306703Y17393792D01*
X-11306708Y17393791D01*
X-11468999Y17343219D01*
X-11469001Y17343218D01*
X-11553344Y17292231D01*
X-11620899Y17274395D01*
X-11687372Y17295913D01*
X-11720597Y17329459D01*
X-11734015Y17349541D01*
X-11880261Y17495787D01*
X-11880265Y17495790D01*
X-12052232Y17610695D01*
X-12052242Y17610700D01*
X-12243328Y17689851D01*
X-12243333Y17689853D01*
X-12299600Y17701045D01*
X-12299600Y16847189D01*
X-12309540Y16864405D01*
X-12365395Y16920260D01*
X-12433804Y16959756D01*
X-12510104Y16980200D01*
X-12589096Y16980200D01*
X-12665396Y16959756D01*
X-12733805Y16920260D01*
X-12789660Y16864405D01*
X-12799600Y16847189D01*
X-12799600Y17701044D01*
X-12799601Y17701045D01*
X-12855868Y17689853D01*
X-12855873Y17689851D01*
X-13046959Y17610700D01*
X-13046969Y17610695D01*
X-13218936Y17495790D01*
X-13218940Y17495787D01*
X-13365187Y17349540D01*
X-13365190Y17349536D01*
X-13480095Y17177569D01*
X-13480100Y17177559D01*
X-13559250Y16986475D01*
X-13559252Y16986467D01*
X-13599600Y16783621D01*
X-14837788Y16783621D01*
X-14931827Y16998007D01*
X-15067834Y17206183D01*
X-15101446Y17242695D01*
X-15236256Y17389138D01*
X-15432491Y17541874D01*
X-15432493Y17541875D01*
X-15432494Y17541876D01*
X-15651189Y17660228D01*
X-15651198Y17660231D01*
X-15886384Y17740971D01*
X-16131665Y17781900D01*
X-16380335Y17781900D01*
X-16625617Y17740971D01*
X-16860803Y17660231D01*
X-16860812Y17660228D01*
X-17079507Y17541876D01*
X-17275743Y17389139D01*
X-17444167Y17206183D01*
X-17580174Y16998007D01*
X-17680064Y16770282D01*
X-17741108Y16529225D01*
X-17741110Y16529213D01*
X-17761643Y16281406D01*
X-18643086Y16281406D01*
X-18418076Y16547547D01*
X-18415090Y16550947D01*
X-17785924Y17241020D01*
X-17782809Y17244311D01*
X-17128268Y17910370D01*
X-17125049Y17913526D01*
X-16446049Y18554638D01*
X-16442674Y18557708D01*
X-15740199Y19172946D01*
X-15736664Y19175925D01*
X-15693622Y19210865D01*
X-15011711Y19764422D01*
X-15008120Y19767227D01*
X-14261624Y20328222D01*
X-14257936Y20330888D01*
X-13794331Y20652878D01*
X-13728045Y20674950D01*
X-13660343Y20657681D01*
X-13612724Y20606551D01*
X-13599600Y20551030D01*
X-13599600Y20430200D01*
X-12849600Y20430200D01*
X-12849600Y19930200D01*
X-13599600Y19930200D01*
X-13599600Y19776780D01*
X-13559252Y19573934D01*
X-13559250Y19573926D01*
X-13480100Y19382842D01*
X-13480095Y19382832D01*
X-13365190Y19210865D01*
X-13365187Y19210861D01*
X-13218940Y19064614D01*
X-13218936Y19064611D01*
X-13046969Y18949706D01*
X-13046959Y18949701D01*
X-12855877Y18870552D01*
X-12855875Y18870551D01*
X-12799600Y18859358D01*
X-12799600Y19713212D01*
X-12789660Y19695995D01*
X-12733805Y19640140D01*
X-12665396Y19600644D01*
X-12589096Y19580200D01*
X-12510104Y19580200D01*
X-12433804Y19600644D01*
X-12365395Y19640140D01*
X-12309540Y19695995D01*
X-12299600Y19713212D01*
X-12299600Y18859358D01*
X-12243326Y18870551D01*
X-12243324Y18870552D01*
X-12052242Y18949701D01*
X-12052232Y18949706D01*
X-11880265Y19064611D01*
X-11880261Y19064614D01*
X-11734014Y19210861D01*
X-11734011Y19210865D01*
X-11619106Y19382832D01*
X-11619101Y19382842D01*
X-11539951Y19573926D01*
X-11539949Y19573934D01*
X-11499601Y19776780D01*
X-11499600Y19776783D01*
X-11499600Y19930200D01*
X-12249600Y19930200D01*
X-12249600Y20430200D01*
X-11499600Y20430200D01*
X-11499600Y20583617D01*
X-11499601Y20583621D01*
X-4959600Y20583621D01*
X-4959600Y20430200D01*
X-4209600Y20430200D01*
X-4209600Y19930200D01*
X-4959600Y19930200D01*
X-4959600Y19776780D01*
X-4919252Y19573934D01*
X-4919250Y19573926D01*
X-4840100Y19382842D01*
X-4840095Y19382832D01*
X-4725190Y19210865D01*
X-4725187Y19210861D01*
X-4578940Y19064614D01*
X-4578936Y19064611D01*
X-4406969Y18949706D01*
X-4406959Y18949701D01*
X-4215877Y18870552D01*
X-4215875Y18870551D01*
X-4159600Y18859358D01*
X-4159600Y19713212D01*
X-4149660Y19695995D01*
X-4093805Y19640140D01*
X-4025396Y19600644D01*
X-3949096Y19580200D01*
X-3870104Y19580200D01*
X-3793804Y19600644D01*
X-3725395Y19640140D01*
X-3669540Y19695995D01*
X-3659600Y19713212D01*
X-3659600Y18859358D01*
X-3603326Y18870551D01*
X-3603324Y18870552D01*
X-3412242Y18949701D01*
X-3412232Y18949706D01*
X-3240265Y19064611D01*
X-3240261Y19064614D01*
X-3094014Y19210861D01*
X-3094011Y19210865D01*
X-2979106Y19382832D01*
X-2979101Y19382842D01*
X-2899951Y19573926D01*
X-2899949Y19573934D01*
X-2859601Y19776780D01*
X-2859600Y19776783D01*
X-2859600Y19930200D01*
X-3609600Y19930200D01*
X-3609600Y20430200D01*
X-2859600Y20430200D01*
X-2859600Y20583617D01*
X-2859601Y20583621D01*
X-2899949Y20786467D01*
X-2899951Y20786475D01*
X-2979101Y20977559D01*
X-2979106Y20977569D01*
X-3094011Y21149536D01*
X-3094014Y21149540D01*
X-3240261Y21295787D01*
X-3240265Y21295790D01*
X-3412232Y21410695D01*
X-3412242Y21410700D01*
X-3603328Y21489851D01*
X-3603333Y21489853D01*
X-3659600Y21501045D01*
X-3659600Y20647189D01*
X-3669540Y20664405D01*
X-3725395Y20720260D01*
X-3793804Y20759756D01*
X-3870104Y20780200D01*
X-3949096Y20780200D01*
X-4025396Y20759756D01*
X-4093805Y20720260D01*
X-4149660Y20664405D01*
X-4159600Y20647189D01*
X-4159600Y21501044D01*
X-4159601Y21501045D01*
X-4215868Y21489853D01*
X-4215873Y21489851D01*
X-4406959Y21410700D01*
X-4406969Y21410695D01*
X-4578936Y21295790D01*
X-4578940Y21295787D01*
X-4725187Y21149540D01*
X-4725190Y21149536D01*
X-4840095Y20977569D01*
X-4840100Y20977559D01*
X-4919250Y20786475D01*
X-4919252Y20786467D01*
X-4959600Y20583621D01*
X-11499601Y20583621D01*
X-11539949Y20786467D01*
X-11539951Y20786475D01*
X-11619101Y20977559D01*
X-11619106Y20977569D01*
X-11734011Y21149536D01*
X-11734014Y21149540D01*
X-11880261Y21295787D01*
X-11880265Y21295790D01*
X-12052232Y21410695D01*
X-12052242Y21410700D01*
X-12162459Y21456354D01*
X-12216863Y21500196D01*
X-12238927Y21566490D01*
X-12221647Y21634189D01*
X-12177930Y21677764D01*
X-11967621Y21801615D01*
X-11963318Y21804149D01*
X-11900395Y21821300D01*
X374359Y21821300D01*
X441398Y21801615D01*
G37*
%TD.AperFunction*%
%TA.AperFunction,Conductor*%
G36*
X-6335048Y14416204D02*
G01*
X-6310171Y14409538D01*
X-6310170Y14409537D01*
X-6290267Y14404204D01*
X-6215984Y14384300D01*
X-6215983Y14384300D01*
X-6132747Y14384300D01*
X-6065708Y14364615D01*
X-6019953Y14311811D01*
X-6010009Y14242653D01*
X-6018947Y14211050D01*
X-6019882Y14208890D01*
X-6064853Y14054103D01*
X-6064854Y14054097D01*
X-6067699Y14017943D01*
X-6067699Y13414078D01*
X-6067698Y13414053D01*
X-6064853Y13377902D01*
X-6019882Y13223111D01*
X-6019879Y13223104D01*
X-5937830Y13084364D01*
X-5937821Y13084352D01*
X-5823848Y12970379D01*
X-5823844Y12970376D01*
X-5823842Y12970374D01*
X-5823839Y12970373D01*
X-5823836Y12970370D01*
X-5703579Y12899251D01*
X-5655895Y12848183D01*
X-5642699Y12792519D01*
X-5642699Y8236515D01*
X-5662384Y8169476D01*
X-5715188Y8123721D01*
X-5784346Y8113777D01*
X-5847902Y8142802D01*
X-5869801Y8167624D01*
X-5955336Y8295635D01*
X-5955339Y8295639D01*
X-7722981Y10063281D01*
X-7756466Y10124604D01*
X-7759300Y10150962D01*
X-7759300Y13028260D01*
X-7739615Y13095299D01*
X-7722981Y13115941D01*
X-7461018Y13377904D01*
X-7146611Y13692311D01*
X-7146611Y13692312D01*
X-6454815Y14384110D01*
X-6393494Y14417593D01*
X-6335048Y14416204D01*
G37*
%TD.AperFunction*%
%TD*%
M02*
