M48
; DRILL file {KiCad 8.0.8} date 2025-02-25T00:33:20+0300
; FORMAT={-:-/ absolute / inch / decimal}
; #@! TF.CreationDate,2025-02-25T00:33:20+03:00
; #@! TF.GenerationSoftware,Kicad,Pcbnew,8.0.8
; #@! TF.FileFunction,Plated,1,2,PTH
FMAT,2
INCH
; #@! TA.AperFunction,Plated,PTH,ViaDrill
T1C0.0157
; #@! TA.AperFunction,Plated,PTH,ComponentDrill
T2C0.0236
; #@! TA.AperFunction,Plated,PTH,ComponentDrill
T3C0.0295
; #@! TA.AperFunction,Plated,PTH,ComponentDrill
T4C0.0315
; #@! TA.AperFunction,Plated,PTH,ViaDrill
T5C0.0394
; #@! TA.AperFunction,Plated,PTH,ComponentDrill
T6C0.0394
; #@! TA.AperFunction,Plated,PTH,ComponentDrill
T7C0.0433
; #@! TA.AperFunction,Plated,PTH,ComponentDrill
T8C0.0472
; #@! TA.AperFunction,Plated,PTH,ComponentDrill
T9C0.0512
; #@! TA.AperFunction,Plated,PTH,ComponentDrill
T10C0.0591
; #@! TA.AperFunction,Plated,PTH,ComponentDrill
T11C0.0709
%
G90
G05
T1
X-0.848Y0.0
X-0.846Y0.306
X-0.846Y0.194
X-0.844Y0.1
X-0.731Y0.47
X-0.602Y0.427
X-0.556Y0.367
X-0.543Y-0.735
X-0.508Y-0.202
X-0.496Y0.412
X-0.492Y-0.005
X-0.492Y-0.114
X-0.49Y-0.056
X-0.479Y0.116
X-0.454Y-0.307
X-0.402Y-0.13
X-0.305Y-0.825
X-0.303Y-0.779
X-0.262Y0.304
X-0.256Y0.516
X-0.204Y0.105
X-0.12Y-0.654
X-0.102Y-0.556
X-0.097Y-0.353
X-0.059Y-0.385
X-0.027Y-0.549
X-0.01Y-0.719
X0.049Y-0.044
X0.0988Y-0.178
X0.458Y-0.096
X0.732Y0.035
X0.732Y-0.005
X0.732Y-0.047
X0.759Y-0.305
X0.799Y-0.305
X0.839Y-0.305
X0.881Y-0.305
T2
X0.141Y0.2626
X0.1882Y0.4594
T3
X0.433Y-0.618
X0.433Y-0.6967
T4
X0.192Y0.0734
X0.192Y-0.025
X0.278Y0.249
X0.404Y0.467
X0.704Y0.259
X0.8536Y0.259
T5
X0.071Y0.549
T6
X0.0749Y-0.603
X0.0749Y-0.703
X0.1749Y-0.603
X0.1749Y-0.703
X0.2749Y-0.603
X0.2749Y-0.703
T7
X-0.0251Y-0.803
X0.0749Y-0.803
X0.1749Y-0.803
X0.2749Y-0.803
T8
X0.566Y0.442
X0.566Y0.242
T9
X0.2787Y-0.402
X0.346Y-0.217
T10
X0.0031Y0.709
X0.2Y0.709
X0.3969Y0.709
T11
X-0.64Y0.641
X-0.64Y-0.641
X0.64Y-0.641
X0.642Y0.641
T2
G00X-0.4941Y0.7827
M15
G01X-0.4941Y0.8063
M16
G05
G00X-0.4941Y0.6331
M15
G01X-0.4941Y0.6567
M16
G05
G00X-0.1539Y0.7827
M15
G01X-0.1539Y0.8063
M16
G05
G00X-0.1539Y0.6331
M15
G01X-0.1539Y0.6567
M16
G05
M30
