G04 #@! TF.GenerationSoftware,KiCad,Pcbnew,8.0.8*
G04 #@! TF.CreationDate,2025-02-05T12:42:34+03:00*
G04 #@! TF.ProjectId,SMHome_2RelayBoardRound_ESP32_C3_Mini_v1,534d486f-6d65-45f3-9252-656c6179426f,12*
G04 #@! TF.SameCoordinates,Original*
G04 #@! TF.FileFunction,Soldermask,Top*
G04 #@! TF.FilePolarity,Negative*
%FSLAX46Y46*%
G04 Gerber Fmt 4.6, Leading zero omitted, Abs format (unit mm)*
G04 Created by KiCad (PCBNEW 8.0.8) date 2025-02-05 12:42:34*
%MOMM*%
%LPD*%
G01*
G04 APERTURE LIST*
G04 Aperture macros list*
%AMRoundRect*
0 Rectangle with rounded corners*
0 $1 Rounding radius*
0 $2 $3 $4 $5 $6 $7 $8 $9 X,Y pos of 4 corners*
0 Add a 4 corners polygon primitive as box body*
4,1,4,$2,$3,$4,$5,$6,$7,$8,$9,$2,$3,0*
0 Add four circle primitives for the rounded corners*
1,1,$1+$1,$2,$3*
1,1,$1+$1,$4,$5*
1,1,$1+$1,$6,$7*
1,1,$1+$1,$8,$9*
0 Add four rect primitives between the rounded corners*
20,1,$1+$1,$2,$3,$4,$5,0*
20,1,$1+$1,$4,$5,$6,$7,0*
20,1,$1+$1,$6,$7,$8,$9,0*
20,1,$1+$1,$8,$9,$2,$3,0*%
%AMFreePoly0*
4,1,19,0.550000,-0.750000,0.000000,-0.750000,0.000000,-0.744911,-0.071157,-0.744911,-0.207708,-0.704816,-0.327430,-0.627875,-0.420627,-0.520320,-0.479746,-0.390866,-0.500000,-0.250000,-0.500000,0.250000,-0.479746,0.390866,-0.420627,0.520320,-0.327430,0.627875,-0.207708,0.704816,-0.071157,0.744911,0.000000,0.744911,0.000000,0.750000,0.550000,0.750000,0.550000,-0.750000,0.550000,-0.750000,
$1*%
%AMFreePoly1*
4,1,19,0.000000,0.744911,0.071157,0.744911,0.207708,0.704816,0.327430,0.627875,0.420627,0.520320,0.479746,0.390866,0.500000,0.250000,0.500000,-0.250000,0.479746,-0.390866,0.420627,-0.520320,0.327430,-0.627875,0.207708,-0.704816,0.071157,-0.744911,0.000000,-0.744911,0.000000,-0.750000,-0.550000,-0.750000,-0.550000,0.750000,0.000000,0.750000,0.000000,0.744911,0.000000,0.744911,
$1*%
G04 Aperture macros list end*
%ADD10R,1.700000X1.700000*%
%ADD11O,1.700000X1.700000*%
%ADD12C,2.400000*%
%ADD13O,2.400000X2.400000*%
%ADD14RoundRect,0.175000X0.175000X0.425000X-0.175000X0.425000X-0.175000X-0.425000X0.175000X-0.425000X0*%
%ADD15RoundRect,0.190000X-0.190000X-0.410000X0.190000X-0.410000X0.190000X0.410000X-0.190000X0.410000X0*%
%ADD16RoundRect,0.200000X-0.200000X-0.400000X0.200000X-0.400000X0.200000X0.400000X-0.200000X0.400000X0*%
%ADD17RoundRect,0.175000X-0.175000X-0.425000X0.175000X-0.425000X0.175000X0.425000X-0.175000X0.425000X0*%
%ADD18RoundRect,0.190000X0.190000X0.410000X-0.190000X0.410000X-0.190000X-0.410000X0.190000X-0.410000X0*%
%ADD19RoundRect,0.200000X0.200000X0.400000X-0.200000X0.400000X-0.200000X-0.400000X0.200000X-0.400000X0*%
%ADD20O,1.100000X1.700000*%
%ADD21FreePoly0,90.000000*%
%ADD22R,1.500000X1.000000*%
%ADD23FreePoly1,90.000000*%
%ADD24C,2.200000*%
%ADD25R,1.600000X1.600000*%
%ADD26C,1.600000*%
%ADD27C,2.600000*%
%ADD28RoundRect,0.381000X0.869000X0.381000X-0.869000X0.381000X-0.869000X-0.381000X0.869000X-0.381000X0*%
%ADD29RoundRect,0.381000X0.762000X0.381000X-0.762000X0.381000X-0.762000X-0.381000X0.762000X-0.381000X0*%
%ADD30C,2.500000*%
%ADD31R,1.650000X1.650000*%
%ADD32C,1.800000*%
G04 APERTURE END LIST*
D10*
X150138000Y-120370600D03*
D11*
X152678000Y-120370600D03*
X155217999Y-120370600D03*
D12*
X162610800Y-93827600D03*
D13*
X162610800Y-98907599D03*
D14*
X140504800Y-88754199D03*
D15*
X138484800Y-88754200D03*
D16*
X137254800Y-88754200D03*
D17*
X139504800Y-88754199D03*
D18*
X141524800Y-88754200D03*
D19*
X142754800Y-88754200D03*
D20*
X144324800Y-88674200D03*
X144324800Y-84874200D03*
X135684800Y-88674200D03*
X135684800Y-84874200D03*
D21*
X159308800Y-124566200D03*
D22*
X159308800Y-123266200D03*
D23*
X159308800Y-121966200D03*
D24*
X158496000Y-93192600D03*
X155295600Y-98729800D03*
X164541200Y-88773000D03*
D25*
X153111200Y-105689400D03*
D26*
X153111200Y-103189400D03*
D24*
X164490400Y-121335800D03*
D27*
X157022800Y-110566200D03*
X155312699Y-115264663D03*
D25*
X166116000Y-98475800D03*
D26*
X169916000Y-98475800D03*
D24*
X131978400Y-88773000D03*
D28*
X148344400Y-116865400D03*
X148344400Y-114325400D03*
X148344400Y-111785400D03*
X148344400Y-109245401D03*
X148344400Y-106705399D03*
X148344400Y-104165400D03*
X148344400Y-101625400D03*
X148344400Y-99085400D03*
D29*
X130344400Y-99085400D03*
X130344400Y-101625400D03*
X130344400Y-104165400D03*
X130344400Y-106705399D03*
X130344400Y-109245401D03*
X130344400Y-111785400D03*
X130344400Y-114325400D03*
X130344400Y-116865400D03*
D30*
X158314400Y-87045800D03*
X153314400Y-87045800D03*
X148314400Y-87045800D03*
D10*
X150138000Y-122910600D03*
D11*
X152678000Y-122910600D03*
X155217999Y-122910600D03*
D26*
X151815800Y-98385000D03*
X153015800Y-93385000D03*
D24*
X131978400Y-121335800D03*
D31*
X147598000Y-125450600D03*
D32*
X150138000Y-125450600D03*
X152678000Y-125450600D03*
X155218000Y-125450600D03*
M02*
