G04 #@! TF.GenerationSoftware,KiCad,Pcbnew,8.0.8*
G04 #@! TF.CreationDate,2025-02-05T12:42:34+03:00*
G04 #@! TF.ProjectId,SMHome_2RelayBoardRound_ESP32_C3_Mini_v1,534d486f-6d65-45f3-9252-656c6179426f,12*
G04 #@! TF.SameCoordinates,Original*
G04 #@! TF.FileFunction,Legend,Top*
G04 #@! TF.FilePolarity,Positive*
%FSLAX46Y46*%
G04 Gerber Fmt 4.6, Leading zero omitted, Abs format (unit mm)*
G04 Created by KiCad (PCBNEW 8.0.8) date 2025-02-05 12:42:34*
%MOMM*%
%LPD*%
G01*
G04 APERTURE LIST*
%ADD10C,0.100000*%
%ADD11C,0.150000*%
%ADD12C,0.200000*%
%ADD13C,0.120000*%
G04 APERTURE END LIST*
D10*
X153060400Y-101001820D02*
X153080400Y-101001820D01*
X153480400Y-101001820D02*
X153500400Y-101001820D01*
X153900400Y-101001820D02*
X153920400Y-101001820D01*
X154320400Y-101001820D02*
X154340400Y-101001820D01*
X154740400Y-101001820D02*
X154760400Y-101001820D01*
X155160400Y-101001820D02*
X155180400Y-101001820D01*
X155580400Y-101001820D02*
X155600400Y-101001820D01*
X156000400Y-101001820D02*
X156020400Y-101001820D01*
X156420400Y-101001820D02*
X156440400Y-101001820D01*
X156840400Y-101001820D02*
X156860400Y-101001820D01*
X157260400Y-101001820D02*
X157280400Y-101001820D01*
X157680400Y-101001820D02*
X157700400Y-101001820D01*
X158100400Y-101001820D02*
X158120400Y-101001820D01*
X158520400Y-101001820D02*
X158540400Y-101001820D01*
X158940400Y-101001820D02*
X158960400Y-101001820D01*
X159360400Y-101001820D02*
X159380400Y-101001820D01*
X159780400Y-101001820D02*
X159800400Y-101001820D01*
X160200400Y-101001820D02*
X160220400Y-101001820D01*
X160620400Y-101001820D02*
X160640400Y-101001820D01*
X161040400Y-101001820D02*
X161060400Y-101001820D01*
X161460400Y-101001820D02*
X161480400Y-101001820D01*
X161880400Y-101001820D02*
X161900400Y-101001820D01*
X162300400Y-101001820D02*
X162320400Y-101001820D01*
X162720400Y-101001820D02*
X162740400Y-101001820D01*
X163140400Y-101001820D02*
X163160400Y-101001820D01*
X163560400Y-101001820D02*
X163580400Y-101001820D01*
X163980400Y-101001820D02*
X164000400Y-101001820D01*
X164400400Y-101001820D02*
X164420400Y-101001820D01*
X164439600Y-101001820D02*
X164439600Y-101021820D01*
X164439600Y-101421820D02*
X164439600Y-101441820D01*
X164439600Y-101841820D02*
X164439600Y-101861820D01*
X164439600Y-102261820D02*
X164439600Y-102281820D01*
X164439600Y-102681820D02*
X164439600Y-102701820D01*
X164439600Y-103101820D02*
X164439600Y-103121820D01*
X164439600Y-103521820D02*
X164439600Y-103541820D01*
X164439600Y-103941820D02*
X164439600Y-103961820D01*
X164439600Y-104361820D02*
X164439600Y-104381820D01*
X164439600Y-104781820D02*
X164439600Y-104801820D01*
X164439600Y-105201820D02*
X164439600Y-105221820D01*
X164439600Y-105621820D02*
X164439600Y-105641820D01*
X164439600Y-106041820D02*
X164439600Y-106061820D01*
X164439600Y-106461820D02*
X164439600Y-106481820D01*
X164439600Y-106881820D02*
X164439600Y-106901820D01*
X164439600Y-107301820D02*
X164439600Y-107321820D01*
X164439600Y-107721820D02*
X164439600Y-107741820D01*
X164439600Y-107758220D02*
X164419600Y-107758220D01*
X164019600Y-107758220D02*
X163999600Y-107758220D01*
X163599600Y-107758220D02*
X163579600Y-107758220D01*
X163179600Y-107758220D02*
X163159600Y-107758220D01*
X162759600Y-107758220D02*
X162739600Y-107758220D01*
X162339600Y-107758220D02*
X162319600Y-107758220D01*
X161919600Y-107758220D02*
X161899600Y-107758220D01*
X161499600Y-107758220D02*
X161479600Y-107758220D01*
X161079600Y-107758220D02*
X161059600Y-107758220D01*
X160659600Y-107758220D02*
X160639600Y-107758220D01*
X160239600Y-107758220D02*
X160219600Y-107758220D01*
X159819600Y-107758220D02*
X159799600Y-107758220D01*
X159399600Y-107758220D02*
X159379600Y-107758220D01*
X158979600Y-107758220D02*
X158959600Y-107758220D01*
X158559600Y-107758220D02*
X158539600Y-107758220D01*
X158139600Y-107758220D02*
X158119600Y-107758220D01*
X157719600Y-107758220D02*
X157699600Y-107758220D01*
X157299600Y-107758220D02*
X157279600Y-107758220D01*
X156879600Y-107758220D02*
X156859600Y-107758220D01*
X156459600Y-107758220D02*
X156439600Y-107758220D01*
X156039600Y-107758220D02*
X156019600Y-107758220D01*
X155619600Y-107758220D02*
X155599600Y-107758220D01*
X155199600Y-107758220D02*
X155179600Y-107758220D01*
X154779600Y-107758220D02*
X154759600Y-107758220D01*
X154359600Y-107758220D02*
X154339600Y-107758220D01*
X153939600Y-107758220D02*
X153919600Y-107758220D01*
X153519600Y-107758220D02*
X153499600Y-107758220D01*
X153099600Y-107758220D02*
X153079600Y-107758220D01*
X153060400Y-107758220D02*
X153060400Y-107738220D01*
X153060400Y-107338220D02*
X153060400Y-107318220D01*
X153060400Y-106918220D02*
X153060400Y-106898220D01*
X153060400Y-106498220D02*
X153060400Y-106478220D01*
X153060400Y-106078220D02*
X153060400Y-106058220D01*
X153060400Y-105658220D02*
X153060400Y-105638220D01*
X153060400Y-105238220D02*
X153060400Y-105218220D01*
X153060400Y-104818220D02*
X153060400Y-104798220D01*
X153060400Y-104398220D02*
X153060400Y-104378220D01*
X153060400Y-103978220D02*
X153060400Y-103958220D01*
X153060400Y-103558220D02*
X153060400Y-103538220D01*
X153060400Y-103138220D02*
X153060400Y-103118220D01*
X153060400Y-102718220D02*
X153060400Y-102698220D01*
X153060400Y-102298220D02*
X153060400Y-102278220D01*
X153060400Y-101878220D02*
X153060400Y-101858220D01*
X153060400Y-101458220D02*
X153060400Y-101438220D01*
X153060400Y-101038220D02*
X153060400Y-101018220D01*
X163677600Y-97866200D02*
X163697600Y-97866200D01*
X164097600Y-97866200D02*
X164117600Y-97866200D01*
X164517600Y-97866200D02*
X164537600Y-97866200D01*
X164937600Y-97866200D02*
X164957600Y-97866200D01*
X165357600Y-97866200D02*
X165377600Y-97866200D01*
X165777600Y-97866200D02*
X165797600Y-97866200D01*
X166197600Y-97866200D02*
X166217600Y-97866200D01*
X166617600Y-97866200D02*
X166637600Y-97866200D01*
X167037600Y-97866200D02*
X167057600Y-97866200D01*
X167457600Y-97866200D02*
X167477600Y-97866200D01*
X167877600Y-97866200D02*
X167897600Y-97866200D01*
X168297600Y-97866200D02*
X168317600Y-97866200D01*
X168717600Y-97866200D02*
X168737600Y-97866200D01*
X169137600Y-97866200D02*
X169157600Y-97866200D01*
X169557600Y-97866200D02*
X169577600Y-97866200D01*
X169977600Y-97866200D02*
X169997600Y-97866200D01*
X170397600Y-97866200D02*
X170417600Y-97866200D01*
X170817600Y-97866200D02*
X170837600Y-97866200D01*
X171237600Y-97866200D02*
X171257600Y-97866200D01*
X171657600Y-97866200D02*
X171677600Y-97866200D01*
X172059600Y-97866200D02*
X172059600Y-97886200D01*
X172059600Y-98286200D02*
X172059600Y-98306200D01*
X172059600Y-98706200D02*
X172059600Y-98726200D01*
X172059600Y-99126200D02*
X172059600Y-99146200D01*
X172059600Y-99546200D02*
X172059600Y-99566200D01*
X172059600Y-99966200D02*
X172059600Y-99986200D01*
X172059600Y-100386200D02*
X172059600Y-100406200D01*
X172059600Y-100806200D02*
X172059600Y-100826200D01*
X172059600Y-101226200D02*
X172059600Y-101246200D01*
X172059600Y-101646200D02*
X172059600Y-101666200D01*
X172059600Y-102066200D02*
X172059600Y-102086200D01*
X172059600Y-102486200D02*
X172059600Y-102506200D01*
X172059600Y-102906200D02*
X172059600Y-102926200D01*
X172059600Y-103326200D02*
X172059600Y-103346200D01*
X172059600Y-103746200D02*
X172059600Y-103766200D01*
X172059600Y-104166200D02*
X172059600Y-104186200D01*
X172059600Y-104586200D02*
X172059600Y-104606200D01*
X172059600Y-105006200D02*
X172059600Y-105026200D01*
X172059600Y-105426200D02*
X172059600Y-105446200D01*
X172059600Y-105846200D02*
X172059600Y-105866200D01*
X172059600Y-106266200D02*
X172059600Y-106286200D01*
X172059600Y-106686200D02*
X172059600Y-106706200D01*
X172059600Y-107106200D02*
X172059600Y-107126200D01*
X172059600Y-107526200D02*
X172059600Y-107546200D01*
X172059600Y-107946200D02*
X172059600Y-107966200D01*
X172059600Y-108366200D02*
X172059600Y-108386200D01*
X172059600Y-108786200D02*
X172059600Y-108806200D01*
X172059600Y-109206200D02*
X172059600Y-109226200D01*
X172059600Y-109626200D02*
X172059600Y-109646200D01*
X172059600Y-109956600D02*
X172039600Y-109956600D01*
X171639600Y-109956600D02*
X171619600Y-109956600D01*
X171219600Y-109956600D02*
X171199600Y-109956600D01*
X170799600Y-109956600D02*
X170779600Y-109956600D01*
X170379600Y-109956600D02*
X170359600Y-109956600D01*
X169959600Y-109956600D02*
X169939600Y-109956600D01*
X169539600Y-109956600D02*
X169519600Y-109956600D01*
X169119600Y-109956600D02*
X169099600Y-109956600D01*
X168699600Y-109956600D02*
X168679600Y-109956600D01*
X168279600Y-109956600D02*
X168259600Y-109956600D01*
X167859600Y-109956600D02*
X167839600Y-109956600D01*
X167439600Y-109956600D02*
X167419600Y-109956600D01*
X167019600Y-109956600D02*
X166999600Y-109956600D01*
X166599600Y-109956600D02*
X166579600Y-109956600D01*
X166179600Y-109956600D02*
X166159600Y-109956600D01*
X165759600Y-109956600D02*
X165739600Y-109956600D01*
X165339600Y-109956600D02*
X165319600Y-109956600D01*
X164919600Y-109956600D02*
X164899600Y-109956600D01*
X164499600Y-109956600D02*
X164479600Y-109956600D01*
X164079600Y-109956600D02*
X164059600Y-109956600D01*
X163677600Y-109956600D02*
X163677600Y-109936600D01*
X163677600Y-109536600D02*
X163677600Y-109516600D01*
X163677600Y-109116600D02*
X163677600Y-109096600D01*
X163677600Y-108696600D02*
X163677600Y-108676600D01*
X163677600Y-108276600D02*
X163677600Y-108256600D01*
X163677600Y-107856600D02*
X163677600Y-107836600D01*
X163677600Y-107436600D02*
X163677600Y-107416600D01*
X163677600Y-107016600D02*
X163677600Y-106996600D01*
X163677600Y-106596600D02*
X163677600Y-106576600D01*
X163677600Y-106176600D02*
X163677600Y-106156600D01*
X163677600Y-105756600D02*
X163677600Y-105736600D01*
X163677600Y-105336600D02*
X163677600Y-105316600D01*
X163677600Y-104916600D02*
X163677600Y-104896600D01*
X163677600Y-104496600D02*
X163677600Y-104476600D01*
X163677600Y-104076600D02*
X163677600Y-104056600D01*
X163677600Y-103656600D02*
X163677600Y-103636600D01*
X163677600Y-103236600D02*
X163677600Y-103216600D01*
X163677600Y-102816600D02*
X163677600Y-102796600D01*
X163677600Y-102396600D02*
X163677600Y-102376600D01*
X163677600Y-101976600D02*
X163677600Y-101956600D01*
X163677600Y-101556600D02*
X163677600Y-101536600D01*
X163677600Y-101136600D02*
X163677600Y-101116600D01*
X163677600Y-100716600D02*
X163677600Y-100696600D01*
X163677600Y-100296600D02*
X163677600Y-100276600D01*
X163677600Y-99876600D02*
X163677600Y-99856600D01*
X163677600Y-99456600D02*
X163677600Y-99436600D01*
X163677600Y-99036600D02*
X163677600Y-99016600D01*
X163677600Y-98616600D02*
X163677600Y-98596600D01*
X163677600Y-98196600D02*
X163677600Y-98176600D01*
D11*
X154886207Y-118131390D02*
X154810017Y-118093295D01*
X154810017Y-118093295D02*
X154695731Y-118093295D01*
X154695731Y-118093295D02*
X154581445Y-118131390D01*
X154581445Y-118131390D02*
X154505255Y-118207580D01*
X154505255Y-118207580D02*
X154467160Y-118283771D01*
X154467160Y-118283771D02*
X154429064Y-118436152D01*
X154429064Y-118436152D02*
X154429064Y-118550438D01*
X154429064Y-118550438D02*
X154467160Y-118702819D01*
X154467160Y-118702819D02*
X154505255Y-118779009D01*
X154505255Y-118779009D02*
X154581445Y-118855200D01*
X154581445Y-118855200D02*
X154695731Y-118893295D01*
X154695731Y-118893295D02*
X154771922Y-118893295D01*
X154771922Y-118893295D02*
X154886207Y-118855200D01*
X154886207Y-118855200D02*
X154924303Y-118817104D01*
X154924303Y-118817104D02*
X154924303Y-118550438D01*
X154924303Y-118550438D02*
X154771922Y-118550438D01*
X155267160Y-118893295D02*
X155267160Y-118093295D01*
X155267160Y-118093295D02*
X155724303Y-118893295D01*
X155724303Y-118893295D02*
X155724303Y-118093295D01*
X156105255Y-118893295D02*
X156105255Y-118093295D01*
X156105255Y-118093295D02*
X156295731Y-118093295D01*
X156295731Y-118093295D02*
X156410017Y-118131390D01*
X156410017Y-118131390D02*
X156486207Y-118207580D01*
X156486207Y-118207580D02*
X156524302Y-118283771D01*
X156524302Y-118283771D02*
X156562398Y-118436152D01*
X156562398Y-118436152D02*
X156562398Y-118550438D01*
X156562398Y-118550438D02*
X156524302Y-118702819D01*
X156524302Y-118702819D02*
X156486207Y-118779009D01*
X156486207Y-118779009D02*
X156410017Y-118855200D01*
X156410017Y-118855200D02*
X156295731Y-118893295D01*
X156295731Y-118893295D02*
X156105255Y-118893295D01*
X141271807Y-124989390D02*
X141195617Y-124951295D01*
X141195617Y-124951295D02*
X141081331Y-124951295D01*
X141081331Y-124951295D02*
X140967045Y-124989390D01*
X140967045Y-124989390D02*
X140890855Y-125065580D01*
X140890855Y-125065580D02*
X140852760Y-125141771D01*
X140852760Y-125141771D02*
X140814664Y-125294152D01*
X140814664Y-125294152D02*
X140814664Y-125408438D01*
X140814664Y-125408438D02*
X140852760Y-125560819D01*
X140852760Y-125560819D02*
X140890855Y-125637009D01*
X140890855Y-125637009D02*
X140967045Y-125713200D01*
X140967045Y-125713200D02*
X141081331Y-125751295D01*
X141081331Y-125751295D02*
X141157522Y-125751295D01*
X141157522Y-125751295D02*
X141271807Y-125713200D01*
X141271807Y-125713200D02*
X141309903Y-125675104D01*
X141309903Y-125675104D02*
X141309903Y-125408438D01*
X141309903Y-125408438D02*
X141157522Y-125408438D01*
X141652760Y-125751295D02*
X141652760Y-124951295D01*
X141652760Y-124951295D02*
X141957522Y-124951295D01*
X141957522Y-124951295D02*
X142033712Y-124989390D01*
X142033712Y-124989390D02*
X142071807Y-125027485D01*
X142071807Y-125027485D02*
X142109903Y-125103676D01*
X142109903Y-125103676D02*
X142109903Y-125217961D01*
X142109903Y-125217961D02*
X142071807Y-125294152D01*
X142071807Y-125294152D02*
X142033712Y-125332247D01*
X142033712Y-125332247D02*
X141957522Y-125370342D01*
X141957522Y-125370342D02*
X141652760Y-125370342D01*
X142452760Y-125751295D02*
X142452760Y-124951295D01*
X142986093Y-124951295D02*
X143138474Y-124951295D01*
X143138474Y-124951295D02*
X143214664Y-124989390D01*
X143214664Y-124989390D02*
X143290855Y-125065580D01*
X143290855Y-125065580D02*
X143328950Y-125217961D01*
X143328950Y-125217961D02*
X143328950Y-125484628D01*
X143328950Y-125484628D02*
X143290855Y-125637009D01*
X143290855Y-125637009D02*
X143214664Y-125713200D01*
X143214664Y-125713200D02*
X143138474Y-125751295D01*
X143138474Y-125751295D02*
X142986093Y-125751295D01*
X142986093Y-125751295D02*
X142909902Y-125713200D01*
X142909902Y-125713200D02*
X142833712Y-125637009D01*
X142833712Y-125637009D02*
X142795616Y-125484628D01*
X142795616Y-125484628D02*
X142795616Y-125217961D01*
X142795616Y-125217961D02*
X142833712Y-125065580D01*
X142833712Y-125065580D02*
X142909902Y-124989390D01*
X142909902Y-124989390D02*
X142986093Y-124951295D01*
X143633711Y-125027485D02*
X143671807Y-124989390D01*
X143671807Y-124989390D02*
X143747997Y-124951295D01*
X143747997Y-124951295D02*
X143938473Y-124951295D01*
X143938473Y-124951295D02*
X144014664Y-124989390D01*
X144014664Y-124989390D02*
X144052759Y-125027485D01*
X144052759Y-125027485D02*
X144090854Y-125103676D01*
X144090854Y-125103676D02*
X144090854Y-125179866D01*
X144090854Y-125179866D02*
X144052759Y-125294152D01*
X144052759Y-125294152D02*
X143595616Y-125751295D01*
X143595616Y-125751295D02*
X144090854Y-125751295D01*
X145005140Y-124913200D02*
X144319426Y-125941771D01*
X145195616Y-124951295D02*
X145690854Y-124951295D01*
X145690854Y-124951295D02*
X145424188Y-125256057D01*
X145424188Y-125256057D02*
X145538473Y-125256057D01*
X145538473Y-125256057D02*
X145614664Y-125294152D01*
X145614664Y-125294152D02*
X145652759Y-125332247D01*
X145652759Y-125332247D02*
X145690854Y-125408438D01*
X145690854Y-125408438D02*
X145690854Y-125598914D01*
X145690854Y-125598914D02*
X145652759Y-125675104D01*
X145652759Y-125675104D02*
X145614664Y-125713200D01*
X145614664Y-125713200D02*
X145538473Y-125751295D01*
X145538473Y-125751295D02*
X145309902Y-125751295D01*
X145309902Y-125751295D02*
X145233711Y-125713200D01*
X145233711Y-125713200D02*
X145195616Y-125675104D01*
X161197095Y-124678887D02*
X161197095Y-125059839D01*
X161197095Y-125059839D02*
X161578047Y-125097935D01*
X161578047Y-125097935D02*
X161539952Y-125059839D01*
X161539952Y-125059839D02*
X161501857Y-124983649D01*
X161501857Y-124983649D02*
X161501857Y-124793173D01*
X161501857Y-124793173D02*
X161539952Y-124716982D01*
X161539952Y-124716982D02*
X161578047Y-124678887D01*
X161578047Y-124678887D02*
X161654238Y-124640792D01*
X161654238Y-124640792D02*
X161844714Y-124640792D01*
X161844714Y-124640792D02*
X161920904Y-124678887D01*
X161920904Y-124678887D02*
X161959000Y-124716982D01*
X161959000Y-124716982D02*
X161997095Y-124793173D01*
X161997095Y-124793173D02*
X161997095Y-124983649D01*
X161997095Y-124983649D02*
X161959000Y-125059839D01*
X161959000Y-125059839D02*
X161920904Y-125097935D01*
X161463761Y-124374125D02*
X161997095Y-124183649D01*
X161997095Y-124183649D02*
X161463761Y-123993172D01*
X151812874Y-118093295D02*
X152079541Y-118893295D01*
X152079541Y-118893295D02*
X152346207Y-118093295D01*
X153070017Y-118817104D02*
X153031921Y-118855200D01*
X153031921Y-118855200D02*
X152917636Y-118893295D01*
X152917636Y-118893295D02*
X152841445Y-118893295D01*
X152841445Y-118893295D02*
X152727159Y-118855200D01*
X152727159Y-118855200D02*
X152650969Y-118779009D01*
X152650969Y-118779009D02*
X152612874Y-118702819D01*
X152612874Y-118702819D02*
X152574778Y-118550438D01*
X152574778Y-118550438D02*
X152574778Y-118436152D01*
X152574778Y-118436152D02*
X152612874Y-118283771D01*
X152612874Y-118283771D02*
X152650969Y-118207580D01*
X152650969Y-118207580D02*
X152727159Y-118131390D01*
X152727159Y-118131390D02*
X152841445Y-118093295D01*
X152841445Y-118093295D02*
X152917636Y-118093295D01*
X152917636Y-118093295D02*
X153031921Y-118131390D01*
X153031921Y-118131390D02*
X153070017Y-118169485D01*
X153870017Y-118817104D02*
X153831921Y-118855200D01*
X153831921Y-118855200D02*
X153717636Y-118893295D01*
X153717636Y-118893295D02*
X153641445Y-118893295D01*
X153641445Y-118893295D02*
X153527159Y-118855200D01*
X153527159Y-118855200D02*
X153450969Y-118779009D01*
X153450969Y-118779009D02*
X153412874Y-118702819D01*
X153412874Y-118702819D02*
X153374778Y-118550438D01*
X153374778Y-118550438D02*
X153374778Y-118436152D01*
X153374778Y-118436152D02*
X153412874Y-118283771D01*
X153412874Y-118283771D02*
X153450969Y-118207580D01*
X153450969Y-118207580D02*
X153527159Y-118131390D01*
X153527159Y-118131390D02*
X153641445Y-118093295D01*
X153641445Y-118093295D02*
X153717636Y-118093295D01*
X153717636Y-118093295D02*
X153831921Y-118131390D01*
X153831921Y-118131390D02*
X153870017Y-118169485D01*
D12*
X161893866Y-89562183D02*
X161846247Y-89514564D01*
X161846247Y-89514564D02*
X161798628Y-89419326D01*
X161798628Y-89419326D02*
X161893866Y-89228850D01*
X161893866Y-89228850D02*
X161846247Y-89133612D01*
X161846247Y-89133612D02*
X161798628Y-89085993D01*
X161370057Y-88752659D02*
X161322438Y-88705040D01*
X161322438Y-88705040D02*
X161274819Y-88609802D01*
X161274819Y-88609802D02*
X161274819Y-88371707D01*
X161274819Y-88371707D02*
X161322438Y-88276469D01*
X161322438Y-88276469D02*
X161370057Y-88228850D01*
X161370057Y-88228850D02*
X161465295Y-88181231D01*
X161465295Y-88181231D02*
X161560533Y-88181231D01*
X161560533Y-88181231D02*
X161703390Y-88228850D01*
X161703390Y-88228850D02*
X162274819Y-88800278D01*
X162274819Y-88800278D02*
X162274819Y-88181231D01*
X161370057Y-87800278D02*
X161322438Y-87752659D01*
X161322438Y-87752659D02*
X161274819Y-87657421D01*
X161274819Y-87657421D02*
X161274819Y-87419326D01*
X161274819Y-87419326D02*
X161322438Y-87324088D01*
X161322438Y-87324088D02*
X161370057Y-87276469D01*
X161370057Y-87276469D02*
X161465295Y-87228850D01*
X161465295Y-87228850D02*
X161560533Y-87228850D01*
X161560533Y-87228850D02*
X161703390Y-87276469D01*
X161703390Y-87276469D02*
X162274819Y-87847897D01*
X162274819Y-87847897D02*
X162274819Y-87228850D01*
X161274819Y-86609802D02*
X161274819Y-86514564D01*
X161274819Y-86514564D02*
X161322438Y-86419326D01*
X161322438Y-86419326D02*
X161370057Y-86371707D01*
X161370057Y-86371707D02*
X161465295Y-86324088D01*
X161465295Y-86324088D02*
X161655771Y-86276469D01*
X161655771Y-86276469D02*
X161893866Y-86276469D01*
X161893866Y-86276469D02*
X162084342Y-86324088D01*
X162084342Y-86324088D02*
X162179580Y-86371707D01*
X162179580Y-86371707D02*
X162227200Y-86419326D01*
X162227200Y-86419326D02*
X162274819Y-86514564D01*
X162274819Y-86514564D02*
X162274819Y-86609802D01*
X162274819Y-86609802D02*
X162227200Y-86705040D01*
X162227200Y-86705040D02*
X162179580Y-86752659D01*
X162179580Y-86752659D02*
X162084342Y-86800278D01*
X162084342Y-86800278D02*
X161893866Y-86847897D01*
X161893866Y-86847897D02*
X161655771Y-86847897D01*
X161655771Y-86847897D02*
X161465295Y-86800278D01*
X161465295Y-86800278D02*
X161370057Y-86752659D01*
X161370057Y-86752659D02*
X161322438Y-86705040D01*
X161322438Y-86705040D02*
X161274819Y-86609802D01*
X161608152Y-85943135D02*
X162274819Y-85705040D01*
X162274819Y-85705040D02*
X161608152Y-85466945D01*
D11*
X135785464Y-90470723D02*
X136166417Y-90470723D01*
X135709274Y-90699295D02*
X135975941Y-89899295D01*
X135975941Y-89899295D02*
X136242607Y-90699295D01*
X136623559Y-90699295D02*
X136547369Y-90661200D01*
X136547369Y-90661200D02*
X136509274Y-90585009D01*
X136509274Y-90585009D02*
X136509274Y-89899295D01*
X136814036Y-90165961D02*
X137118798Y-90165961D01*
X136928322Y-89899295D02*
X136928322Y-90585009D01*
X136928322Y-90585009D02*
X136966417Y-90661200D01*
X136966417Y-90661200D02*
X137042607Y-90699295D01*
X137042607Y-90699295D02*
X137118798Y-90699295D01*
X137994989Y-90394533D02*
X138604513Y-90394533D01*
X138299751Y-90699295D02*
X138299751Y-90089771D01*
X139366417Y-89899295D02*
X138985465Y-89899295D01*
X138985465Y-89899295D02*
X138947369Y-90280247D01*
X138947369Y-90280247D02*
X138985465Y-90242152D01*
X138985465Y-90242152D02*
X139061655Y-90204057D01*
X139061655Y-90204057D02*
X139252131Y-90204057D01*
X139252131Y-90204057D02*
X139328322Y-90242152D01*
X139328322Y-90242152D02*
X139366417Y-90280247D01*
X139366417Y-90280247D02*
X139404512Y-90356438D01*
X139404512Y-90356438D02*
X139404512Y-90546914D01*
X139404512Y-90546914D02*
X139366417Y-90623104D01*
X139366417Y-90623104D02*
X139328322Y-90661200D01*
X139328322Y-90661200D02*
X139252131Y-90699295D01*
X139252131Y-90699295D02*
X139061655Y-90699295D01*
X139061655Y-90699295D02*
X138985465Y-90661200D01*
X138985465Y-90661200D02*
X138947369Y-90623104D01*
X139671179Y-90165961D02*
X139861655Y-90699295D01*
X139861655Y-90699295D02*
X140052132Y-90165961D01*
X140966418Y-90699295D02*
X140966418Y-89899295D01*
X141347370Y-90165961D02*
X141347370Y-90699295D01*
X141347370Y-90242152D02*
X141385465Y-90204057D01*
X141385465Y-90204057D02*
X141461655Y-90165961D01*
X141461655Y-90165961D02*
X141575941Y-90165961D01*
X141575941Y-90165961D02*
X141652132Y-90204057D01*
X141652132Y-90204057D02*
X141690227Y-90280247D01*
X141690227Y-90280247D02*
X141690227Y-90699295D01*
X142071180Y-90165961D02*
X142071180Y-90965961D01*
X142071180Y-90204057D02*
X142147370Y-90165961D01*
X142147370Y-90165961D02*
X142299751Y-90165961D01*
X142299751Y-90165961D02*
X142375942Y-90204057D01*
X142375942Y-90204057D02*
X142414037Y-90242152D01*
X142414037Y-90242152D02*
X142452132Y-90318342D01*
X142452132Y-90318342D02*
X142452132Y-90546914D01*
X142452132Y-90546914D02*
X142414037Y-90623104D01*
X142414037Y-90623104D02*
X142375942Y-90661200D01*
X142375942Y-90661200D02*
X142299751Y-90699295D01*
X142299751Y-90699295D02*
X142147370Y-90699295D01*
X142147370Y-90699295D02*
X142071180Y-90661200D01*
X143137847Y-90165961D02*
X143137847Y-90699295D01*
X142794990Y-90165961D02*
X142794990Y-90585009D01*
X142794990Y-90585009D02*
X142833085Y-90661200D01*
X142833085Y-90661200D02*
X142909275Y-90699295D01*
X142909275Y-90699295D02*
X143023561Y-90699295D01*
X143023561Y-90699295D02*
X143099752Y-90661200D01*
X143099752Y-90661200D02*
X143137847Y-90623104D01*
X143404514Y-90165961D02*
X143709276Y-90165961D01*
X143518800Y-89899295D02*
X143518800Y-90585009D01*
X143518800Y-90585009D02*
X143556895Y-90661200D01*
X143556895Y-90661200D02*
X143633085Y-90699295D01*
X143633085Y-90699295D02*
X143709276Y-90699295D01*
X141271807Y-122652590D02*
X141195617Y-122614495D01*
X141195617Y-122614495D02*
X141081331Y-122614495D01*
X141081331Y-122614495D02*
X140967045Y-122652590D01*
X140967045Y-122652590D02*
X140890855Y-122728780D01*
X140890855Y-122728780D02*
X140852760Y-122804971D01*
X140852760Y-122804971D02*
X140814664Y-122957352D01*
X140814664Y-122957352D02*
X140814664Y-123071638D01*
X140814664Y-123071638D02*
X140852760Y-123224019D01*
X140852760Y-123224019D02*
X140890855Y-123300209D01*
X140890855Y-123300209D02*
X140967045Y-123376400D01*
X140967045Y-123376400D02*
X141081331Y-123414495D01*
X141081331Y-123414495D02*
X141157522Y-123414495D01*
X141157522Y-123414495D02*
X141271807Y-123376400D01*
X141271807Y-123376400D02*
X141309903Y-123338304D01*
X141309903Y-123338304D02*
X141309903Y-123071638D01*
X141309903Y-123071638D02*
X141157522Y-123071638D01*
X141652760Y-123414495D02*
X141652760Y-122614495D01*
X141652760Y-122614495D02*
X141957522Y-122614495D01*
X141957522Y-122614495D02*
X142033712Y-122652590D01*
X142033712Y-122652590D02*
X142071807Y-122690685D01*
X142071807Y-122690685D02*
X142109903Y-122766876D01*
X142109903Y-122766876D02*
X142109903Y-122881161D01*
X142109903Y-122881161D02*
X142071807Y-122957352D01*
X142071807Y-122957352D02*
X142033712Y-122995447D01*
X142033712Y-122995447D02*
X141957522Y-123033542D01*
X141957522Y-123033542D02*
X141652760Y-123033542D01*
X142452760Y-123414495D02*
X142452760Y-122614495D01*
X142986093Y-122614495D02*
X143138474Y-122614495D01*
X143138474Y-122614495D02*
X143214664Y-122652590D01*
X143214664Y-122652590D02*
X143290855Y-122728780D01*
X143290855Y-122728780D02*
X143328950Y-122881161D01*
X143328950Y-122881161D02*
X143328950Y-123147828D01*
X143328950Y-123147828D02*
X143290855Y-123300209D01*
X143290855Y-123300209D02*
X143214664Y-123376400D01*
X143214664Y-123376400D02*
X143138474Y-123414495D01*
X143138474Y-123414495D02*
X142986093Y-123414495D01*
X142986093Y-123414495D02*
X142909902Y-123376400D01*
X142909902Y-123376400D02*
X142833712Y-123300209D01*
X142833712Y-123300209D02*
X142795616Y-123147828D01*
X142795616Y-123147828D02*
X142795616Y-122881161D01*
X142795616Y-122881161D02*
X142833712Y-122728780D01*
X142833712Y-122728780D02*
X142909902Y-122652590D01*
X142909902Y-122652590D02*
X142986093Y-122614495D01*
X143633711Y-122690685D02*
X143671807Y-122652590D01*
X143671807Y-122652590D02*
X143747997Y-122614495D01*
X143747997Y-122614495D02*
X143938473Y-122614495D01*
X143938473Y-122614495D02*
X144014664Y-122652590D01*
X144014664Y-122652590D02*
X144052759Y-122690685D01*
X144052759Y-122690685D02*
X144090854Y-122766876D01*
X144090854Y-122766876D02*
X144090854Y-122843066D01*
X144090854Y-122843066D02*
X144052759Y-122957352D01*
X144052759Y-122957352D02*
X143595616Y-123414495D01*
X143595616Y-123414495D02*
X144090854Y-123414495D01*
X161197095Y-122799230D02*
X161197095Y-122303992D01*
X161197095Y-122303992D02*
X161501857Y-122570658D01*
X161501857Y-122570658D02*
X161501857Y-122456373D01*
X161501857Y-122456373D02*
X161539952Y-122380182D01*
X161539952Y-122380182D02*
X161578047Y-122342087D01*
X161578047Y-122342087D02*
X161654238Y-122303992D01*
X161654238Y-122303992D02*
X161844714Y-122303992D01*
X161844714Y-122303992D02*
X161920904Y-122342087D01*
X161920904Y-122342087D02*
X161959000Y-122380182D01*
X161959000Y-122380182D02*
X161997095Y-122456373D01*
X161997095Y-122456373D02*
X161997095Y-122684944D01*
X161997095Y-122684944D02*
X161959000Y-122761135D01*
X161959000Y-122761135D02*
X161920904Y-122799230D01*
X161463761Y-122037325D02*
X161997095Y-121846849D01*
X161997095Y-121846849D02*
X161463761Y-121656372D01*
X161197095Y-121427801D02*
X161197095Y-120932563D01*
X161197095Y-120932563D02*
X161501857Y-121199229D01*
X161501857Y-121199229D02*
X161501857Y-121084944D01*
X161501857Y-121084944D02*
X161539952Y-121008753D01*
X161539952Y-121008753D02*
X161578047Y-120970658D01*
X161578047Y-120970658D02*
X161654238Y-120932563D01*
X161654238Y-120932563D02*
X161844714Y-120932563D01*
X161844714Y-120932563D02*
X161920904Y-120970658D01*
X161920904Y-120970658D02*
X161959000Y-121008753D01*
X161959000Y-121008753D02*
X161997095Y-121084944D01*
X161997095Y-121084944D02*
X161997095Y-121313515D01*
X161997095Y-121313515D02*
X161959000Y-121389706D01*
X161959000Y-121389706D02*
X161920904Y-121427801D01*
X141221007Y-120417390D02*
X141144817Y-120379295D01*
X141144817Y-120379295D02*
X141030531Y-120379295D01*
X141030531Y-120379295D02*
X140916245Y-120417390D01*
X140916245Y-120417390D02*
X140840055Y-120493580D01*
X140840055Y-120493580D02*
X140801960Y-120569771D01*
X140801960Y-120569771D02*
X140763864Y-120722152D01*
X140763864Y-120722152D02*
X140763864Y-120836438D01*
X140763864Y-120836438D02*
X140801960Y-120988819D01*
X140801960Y-120988819D02*
X140840055Y-121065009D01*
X140840055Y-121065009D02*
X140916245Y-121141200D01*
X140916245Y-121141200D02*
X141030531Y-121179295D01*
X141030531Y-121179295D02*
X141106722Y-121179295D01*
X141106722Y-121179295D02*
X141221007Y-121141200D01*
X141221007Y-121141200D02*
X141259103Y-121103104D01*
X141259103Y-121103104D02*
X141259103Y-120836438D01*
X141259103Y-120836438D02*
X141106722Y-120836438D01*
X141601960Y-121179295D02*
X141601960Y-120379295D01*
X141601960Y-120379295D02*
X141906722Y-120379295D01*
X141906722Y-120379295D02*
X141982912Y-120417390D01*
X141982912Y-120417390D02*
X142021007Y-120455485D01*
X142021007Y-120455485D02*
X142059103Y-120531676D01*
X142059103Y-120531676D02*
X142059103Y-120645961D01*
X142059103Y-120645961D02*
X142021007Y-120722152D01*
X142021007Y-120722152D02*
X141982912Y-120760247D01*
X141982912Y-120760247D02*
X141906722Y-120798342D01*
X141906722Y-120798342D02*
X141601960Y-120798342D01*
X142401960Y-121179295D02*
X142401960Y-120379295D01*
X142935293Y-120379295D02*
X143087674Y-120379295D01*
X143087674Y-120379295D02*
X143163864Y-120417390D01*
X143163864Y-120417390D02*
X143240055Y-120493580D01*
X143240055Y-120493580D02*
X143278150Y-120645961D01*
X143278150Y-120645961D02*
X143278150Y-120912628D01*
X143278150Y-120912628D02*
X143240055Y-121065009D01*
X143240055Y-121065009D02*
X143163864Y-121141200D01*
X143163864Y-121141200D02*
X143087674Y-121179295D01*
X143087674Y-121179295D02*
X142935293Y-121179295D01*
X142935293Y-121179295D02*
X142859102Y-121141200D01*
X142859102Y-121141200D02*
X142782912Y-121065009D01*
X142782912Y-121065009D02*
X142744816Y-120912628D01*
X142744816Y-120912628D02*
X142744816Y-120645961D01*
X142744816Y-120645961D02*
X142782912Y-120493580D01*
X142782912Y-120493580D02*
X142859102Y-120417390D01*
X142859102Y-120417390D02*
X142935293Y-120379295D01*
X144040054Y-121179295D02*
X143582911Y-121179295D01*
X143811483Y-121179295D02*
X143811483Y-120379295D01*
X143811483Y-120379295D02*
X143735292Y-120493580D01*
X143735292Y-120493580D02*
X143659102Y-120569771D01*
X143659102Y-120569771D02*
X143582911Y-120607866D01*
X147545466Y-120079419D02*
X147545466Y-120793704D01*
X147545466Y-120793704D02*
X147497847Y-120936561D01*
X147497847Y-120936561D02*
X147402609Y-121031800D01*
X147402609Y-121031800D02*
X147259752Y-121079419D01*
X147259752Y-121079419D02*
X147164514Y-121079419D01*
X148545466Y-121079419D02*
X147974038Y-121079419D01*
X148259752Y-121079419D02*
X148259752Y-120079419D01*
X148259752Y-120079419D02*
X148164514Y-120222276D01*
X148164514Y-120222276D02*
X148069276Y-120317514D01*
X148069276Y-120317514D02*
X147974038Y-120365133D01*
X161389219Y-97143866D02*
X160913028Y-97477199D01*
X161389219Y-97715294D02*
X160389219Y-97715294D01*
X160389219Y-97715294D02*
X160389219Y-97334342D01*
X160389219Y-97334342D02*
X160436838Y-97239104D01*
X160436838Y-97239104D02*
X160484457Y-97191485D01*
X160484457Y-97191485D02*
X160579695Y-97143866D01*
X160579695Y-97143866D02*
X160722552Y-97143866D01*
X160722552Y-97143866D02*
X160817790Y-97191485D01*
X160817790Y-97191485D02*
X160865409Y-97239104D01*
X160865409Y-97239104D02*
X160913028Y-97334342D01*
X160913028Y-97334342D02*
X160913028Y-97715294D01*
X160389219Y-96239104D02*
X160389219Y-96715294D01*
X160389219Y-96715294D02*
X160865409Y-96762913D01*
X160865409Y-96762913D02*
X160817790Y-96715294D01*
X160817790Y-96715294D02*
X160770171Y-96620056D01*
X160770171Y-96620056D02*
X160770171Y-96381961D01*
X160770171Y-96381961D02*
X160817790Y-96286723D01*
X160817790Y-96286723D02*
X160865409Y-96239104D01*
X160865409Y-96239104D02*
X160960647Y-96191485D01*
X160960647Y-96191485D02*
X161198742Y-96191485D01*
X161198742Y-96191485D02*
X161293980Y-96239104D01*
X161293980Y-96239104D02*
X161341600Y-96286723D01*
X161341600Y-96286723D02*
X161389219Y-96381961D01*
X161389219Y-96381961D02*
X161389219Y-96620056D01*
X161389219Y-96620056D02*
X161341600Y-96715294D01*
X161341600Y-96715294D02*
X161293980Y-96762913D01*
X139671466Y-85709619D02*
X139671466Y-86423904D01*
X139671466Y-86423904D02*
X139623847Y-86566761D01*
X139623847Y-86566761D02*
X139528609Y-86662000D01*
X139528609Y-86662000D02*
X139385752Y-86709619D01*
X139385752Y-86709619D02*
X139290514Y-86709619D01*
X140052419Y-85709619D02*
X140719085Y-85709619D01*
X140719085Y-85709619D02*
X140290514Y-86709619D01*
D10*
X158733833Y-119854695D02*
X158733833Y-120426123D01*
X158733833Y-120426123D02*
X158695738Y-120540409D01*
X158695738Y-120540409D02*
X158619547Y-120616600D01*
X158619547Y-120616600D02*
X158505262Y-120654695D01*
X158505262Y-120654695D02*
X158429071Y-120654695D01*
X159114786Y-120654695D02*
X159114786Y-119854695D01*
X159114786Y-119854695D02*
X159419548Y-119854695D01*
X159419548Y-119854695D02*
X159495738Y-119892790D01*
X159495738Y-119892790D02*
X159533833Y-119930885D01*
X159533833Y-119930885D02*
X159571929Y-120007076D01*
X159571929Y-120007076D02*
X159571929Y-120121361D01*
X159571929Y-120121361D02*
X159533833Y-120197552D01*
X159533833Y-120197552D02*
X159495738Y-120235647D01*
X159495738Y-120235647D02*
X159419548Y-120273742D01*
X159419548Y-120273742D02*
X159114786Y-120273742D01*
X160257643Y-120121361D02*
X160257643Y-120654695D01*
X160067167Y-119816600D02*
X159876690Y-120388028D01*
X159876690Y-120388028D02*
X160371929Y-120388028D01*
D11*
X156763997Y-95739630D02*
X156528294Y-95975332D01*
X156898684Y-96345722D02*
X156191577Y-95638615D01*
X156191577Y-95638615D02*
X156528294Y-95301897D01*
X157875164Y-95369241D02*
X157471103Y-95773302D01*
X157673134Y-95571271D02*
X156966027Y-94864165D01*
X156966027Y-94864165D02*
X156999699Y-95032523D01*
X156999699Y-95032523D02*
X156999699Y-95167210D01*
X156999699Y-95167210D02*
X156966027Y-95268226D01*
X155248780Y-105819866D02*
X155296400Y-105867485D01*
X155296400Y-105867485D02*
X155344019Y-106010342D01*
X155344019Y-106010342D02*
X155344019Y-106105580D01*
X155344019Y-106105580D02*
X155296400Y-106248437D01*
X155296400Y-106248437D02*
X155201161Y-106343675D01*
X155201161Y-106343675D02*
X155105923Y-106391294D01*
X155105923Y-106391294D02*
X154915447Y-106438913D01*
X154915447Y-106438913D02*
X154772590Y-106438913D01*
X154772590Y-106438913D02*
X154582114Y-106391294D01*
X154582114Y-106391294D02*
X154486876Y-106343675D01*
X154486876Y-106343675D02*
X154391638Y-106248437D01*
X154391638Y-106248437D02*
X154344019Y-106105580D01*
X154344019Y-106105580D02*
X154344019Y-106010342D01*
X154344019Y-106010342D02*
X154391638Y-105867485D01*
X154391638Y-105867485D02*
X154439257Y-105819866D01*
X154344019Y-104915104D02*
X154344019Y-105391294D01*
X154344019Y-105391294D02*
X154820209Y-105438913D01*
X154820209Y-105438913D02*
X154772590Y-105391294D01*
X154772590Y-105391294D02*
X154724971Y-105296056D01*
X154724971Y-105296056D02*
X154724971Y-105057961D01*
X154724971Y-105057961D02*
X154772590Y-104962723D01*
X154772590Y-104962723D02*
X154820209Y-104915104D01*
X154820209Y-104915104D02*
X154915447Y-104867485D01*
X154915447Y-104867485D02*
X155153542Y-104867485D01*
X155153542Y-104867485D02*
X155248780Y-104915104D01*
X155248780Y-104915104D02*
X155296400Y-104962723D01*
X155296400Y-104962723D02*
X155344019Y-105057961D01*
X155344019Y-105057961D02*
X155344019Y-105296056D01*
X155344019Y-105296056D02*
X155296400Y-105391294D01*
X155296400Y-105391294D02*
X155248780Y-105438913D01*
X159237435Y-114128978D02*
X159074569Y-114576451D01*
X159074569Y-114576451D02*
X158134876Y-114234430D01*
X159530596Y-113323527D02*
X159335155Y-113860494D01*
X159432876Y-113592010D02*
X158493183Y-113249990D01*
X158493183Y-113249990D02*
X158594851Y-113388345D01*
X158594851Y-113388345D02*
X158651773Y-113510413D01*
X158651773Y-113510413D02*
X158663946Y-113616194D01*
X167727333Y-104372580D02*
X167679714Y-104420200D01*
X167679714Y-104420200D02*
X167536857Y-104467819D01*
X167536857Y-104467819D02*
X167441619Y-104467819D01*
X167441619Y-104467819D02*
X167298762Y-104420200D01*
X167298762Y-104420200D02*
X167203524Y-104324961D01*
X167203524Y-104324961D02*
X167155905Y-104229723D01*
X167155905Y-104229723D02*
X167108286Y-104039247D01*
X167108286Y-104039247D02*
X167108286Y-103896390D01*
X167108286Y-103896390D02*
X167155905Y-103705914D01*
X167155905Y-103705914D02*
X167203524Y-103610676D01*
X167203524Y-103610676D02*
X167298762Y-103515438D01*
X167298762Y-103515438D02*
X167441619Y-103467819D01*
X167441619Y-103467819D02*
X167536857Y-103467819D01*
X167536857Y-103467819D02*
X167679714Y-103515438D01*
X167679714Y-103515438D02*
X167727333Y-103563057D01*
X168108286Y-103563057D02*
X168155905Y-103515438D01*
X168155905Y-103515438D02*
X168251143Y-103467819D01*
X168251143Y-103467819D02*
X168489238Y-103467819D01*
X168489238Y-103467819D02*
X168584476Y-103515438D01*
X168584476Y-103515438D02*
X168632095Y-103563057D01*
X168632095Y-103563057D02*
X168679714Y-103658295D01*
X168679714Y-103658295D02*
X168679714Y-103753533D01*
X168679714Y-103753533D02*
X168632095Y-103896390D01*
X168632095Y-103896390D02*
X168060667Y-104467819D01*
X168060667Y-104467819D02*
X168679714Y-104467819D01*
X138430095Y-96965419D02*
X138430095Y-97774942D01*
X138430095Y-97774942D02*
X138477714Y-97870180D01*
X138477714Y-97870180D02*
X138525333Y-97917800D01*
X138525333Y-97917800D02*
X138620571Y-97965419D01*
X138620571Y-97965419D02*
X138811047Y-97965419D01*
X138811047Y-97965419D02*
X138906285Y-97917800D01*
X138906285Y-97917800D02*
X138953904Y-97870180D01*
X138953904Y-97870180D02*
X139001523Y-97774942D01*
X139001523Y-97774942D02*
X139001523Y-96965419D01*
X140001523Y-97965419D02*
X139430095Y-97965419D01*
X139715809Y-97965419D02*
X139715809Y-96965419D01*
X139715809Y-96965419D02*
X139620571Y-97108276D01*
X139620571Y-97108276D02*
X139525333Y-97203514D01*
X139525333Y-97203514D02*
X139430095Y-97251133D01*
X153133466Y-89396219D02*
X153133466Y-90110504D01*
X153133466Y-90110504D02*
X153085847Y-90253361D01*
X153085847Y-90253361D02*
X152990609Y-90348600D01*
X152990609Y-90348600D02*
X152847752Y-90396219D01*
X152847752Y-90396219D02*
X152752514Y-90396219D01*
X154038228Y-89729552D02*
X154038228Y-90396219D01*
X153800133Y-89348600D02*
X153562038Y-90062885D01*
X153562038Y-90062885D02*
X154181085Y-90062885D01*
X147393066Y-122975019D02*
X147393066Y-123689304D01*
X147393066Y-123689304D02*
X147345447Y-123832161D01*
X147345447Y-123832161D02*
X147250209Y-123927400D01*
X147250209Y-123927400D02*
X147107352Y-123975019D01*
X147107352Y-123975019D02*
X147012114Y-123975019D01*
X148345447Y-122975019D02*
X147869257Y-122975019D01*
X147869257Y-122975019D02*
X147821638Y-123451209D01*
X147821638Y-123451209D02*
X147869257Y-123403590D01*
X147869257Y-123403590D02*
X147964495Y-123355971D01*
X147964495Y-123355971D02*
X148202590Y-123355971D01*
X148202590Y-123355971D02*
X148297828Y-123403590D01*
X148297828Y-123403590D02*
X148345447Y-123451209D01*
X148345447Y-123451209D02*
X148393066Y-123546447D01*
X148393066Y-123546447D02*
X148393066Y-123784542D01*
X148393066Y-123784542D02*
X148345447Y-123879780D01*
X148345447Y-123879780D02*
X148297828Y-123927400D01*
X148297828Y-123927400D02*
X148202590Y-123975019D01*
X148202590Y-123975019D02*
X147964495Y-123975019D01*
X147964495Y-123975019D02*
X147869257Y-123927400D01*
X147869257Y-123927400D02*
X147821638Y-123879780D01*
X151875327Y-94573525D02*
X151403923Y-95516334D01*
X151403923Y-95516334D02*
X152346732Y-95044930D01*
X152279389Y-96391800D02*
X152380404Y-95819380D01*
X151875328Y-95987739D02*
X152582434Y-95280632D01*
X152582434Y-95280632D02*
X152851808Y-95550006D01*
X152851808Y-95550006D02*
X152885480Y-95651021D01*
X152885480Y-95651021D02*
X152885480Y-95718365D01*
X152885480Y-95718365D02*
X152851808Y-95819380D01*
X152851808Y-95819380D02*
X152750793Y-95920395D01*
X152750793Y-95920395D02*
X152649778Y-95954067D01*
X152649778Y-95954067D02*
X152582434Y-95954067D01*
X152582434Y-95954067D02*
X152481419Y-95920395D01*
X152481419Y-95920395D02*
X152212045Y-95651021D01*
X152952824Y-97065235D02*
X152548763Y-96661174D01*
X152750793Y-96863204D02*
X153457900Y-96156098D01*
X153457900Y-96156098D02*
X153289541Y-96189769D01*
X153289541Y-96189769D02*
X153154854Y-96189769D01*
X153154854Y-96189769D02*
X153053839Y-96156098D01*
X147342266Y-126785019D02*
X147342266Y-127499304D01*
X147342266Y-127499304D02*
X147294647Y-127642161D01*
X147294647Y-127642161D02*
X147199409Y-127737400D01*
X147199409Y-127737400D02*
X147056552Y-127785019D01*
X147056552Y-127785019D02*
X146961314Y-127785019D01*
X147770838Y-126880257D02*
X147818457Y-126832638D01*
X147818457Y-126832638D02*
X147913695Y-126785019D01*
X147913695Y-126785019D02*
X148151790Y-126785019D01*
X148151790Y-126785019D02*
X148247028Y-126832638D01*
X148247028Y-126832638D02*
X148294647Y-126880257D01*
X148294647Y-126880257D02*
X148342266Y-126975495D01*
X148342266Y-126975495D02*
X148342266Y-127070733D01*
X148342266Y-127070733D02*
X148294647Y-127213590D01*
X148294647Y-127213590D02*
X147723219Y-127785019D01*
X147723219Y-127785019D02*
X148342266Y-127785019D01*
D13*
X148808000Y-121700600D02*
X148808000Y-120370600D01*
X150138000Y-121700600D02*
X148808000Y-121700600D01*
X151408001Y-119040600D02*
X156547999Y-119040600D01*
X151408001Y-121700600D02*
X151408001Y-119040600D01*
X151408001Y-121700600D02*
X156547999Y-121700600D01*
X156547999Y-121700600D02*
X156547999Y-119040600D01*
X162610800Y-96197600D02*
X162610799Y-97407600D01*
X164980800Y-93827600D02*
G75*
G02*
X160240800Y-93827600I-2370000J0D01*
G01*
X160240800Y-93827600D02*
G75*
G02*
X164980800Y-93827600I2370000J0D01*
G01*
X135334800Y-85924200D02*
X135334800Y-87624200D01*
X144674800Y-85924200D02*
X144674800Y-87624200D01*
X158308800Y-124666200D02*
X158308800Y-121866200D01*
X159008800Y-121216200D02*
X159608800Y-121216200D01*
X159608800Y-125316200D02*
X159008800Y-125316200D01*
X160308800Y-121866200D02*
X160308800Y-124666200D01*
X160508800Y-124466200D02*
X160808800Y-124166200D01*
X160508800Y-124466200D02*
X160808800Y-124766200D01*
X160808800Y-124766200D02*
X160808800Y-124166200D01*
X158308800Y-121916200D02*
G75*
G02*
X159008800Y-121216200I700000J0D01*
G01*
X159008800Y-125316200D02*
G75*
G02*
X158308800Y-124616200I-1J699999D01*
G01*
X159608800Y-121216200D02*
G75*
G02*
X160308800Y-121916200I0J-700000D01*
G01*
X160308800Y-124616200D02*
G75*
G02*
X159608800Y-125316200I-699999J-1D01*
G01*
D11*
X154719600Y-92633800D02*
X154719600Y-97459800D01*
X157022800Y-92633800D02*
X154719600Y-92633800D01*
X158953200Y-94513400D02*
X158953200Y-99339401D01*
X158953200Y-99339401D02*
X156514800Y-99339400D01*
D13*
X165741200Y-88773000D02*
G75*
G02*
X163341200Y-88773000I-1200000J0D01*
G01*
X163341200Y-88773000D02*
G75*
G02*
X165741200Y-88773000I1200000J0D01*
G01*
X149881200Y-104359400D02*
X156341200Y-104359400D01*
X149881200Y-104399400D02*
X156341200Y-104399400D01*
X149881201Y-104439400D02*
X156341199Y-104439400D01*
X149883200Y-104319400D02*
X156339200Y-104319400D01*
X149884200Y-104279400D02*
X156338200Y-104279400D01*
X149887200Y-104239400D02*
X156335200Y-104239400D01*
X149889200Y-104199400D02*
X152071200Y-104199400D01*
X149893200Y-104159400D02*
X152071200Y-104159401D01*
X149896200Y-104119400D02*
X152071200Y-104119400D01*
X149900200Y-104079400D02*
X152071200Y-104079400D01*
X149905200Y-104039400D02*
X152071200Y-104039400D01*
X149910200Y-103999400D02*
X152071199Y-103999400D01*
X149916200Y-103959400D02*
X152071200Y-103959400D01*
X149922199Y-103919400D02*
X152071200Y-103919400D01*
X149929200Y-103879400D02*
X152071200Y-103879400D01*
X149936200Y-103839399D02*
X152071199Y-103839400D01*
X149944200Y-103799400D02*
X152071200Y-103799400D01*
X149952200Y-103759400D02*
X152071200Y-103759400D01*
X149961200Y-103718400D02*
X152071199Y-103718400D01*
X149970200Y-103678400D02*
X152071200Y-103678400D01*
X149980200Y-103638400D02*
X152071200Y-103638400D01*
X149990200Y-103598400D02*
X152071200Y-103598400D01*
X150001199Y-103558400D02*
X152071199Y-103558400D01*
X150013200Y-103518400D02*
X152071200Y-103518400D01*
X150025200Y-103478399D02*
X152071200Y-103478400D01*
X150037200Y-103438400D02*
X152071200Y-103438401D01*
X150050201Y-103398400D02*
X152071200Y-103398399D01*
X150064201Y-103358400D02*
X152071200Y-103358400D01*
X150078200Y-103318400D02*
X152071200Y-103318400D01*
X150093200Y-103278400D02*
X152071199Y-103278400D01*
X150109200Y-103238400D02*
X152071200Y-103238400D01*
X150125200Y-103198400D02*
X152071200Y-103198400D01*
X150141200Y-103158400D02*
X152071200Y-103158400D01*
X150159200Y-103118400D02*
X152071199Y-103118400D01*
X150177200Y-103078400D02*
X152071200Y-103078400D01*
X150195201Y-103038400D02*
X152071200Y-103038400D01*
X150215200Y-102998400D02*
X152071200Y-102998400D01*
X150235200Y-102958399D02*
X152071200Y-102958399D01*
X150255200Y-102918400D02*
X152071200Y-102918400D01*
X150277200Y-102878400D02*
X152071200Y-102878400D01*
X150299200Y-102838400D02*
X152071200Y-102838401D01*
X150321200Y-102798400D02*
X152071200Y-102798400D01*
X150345201Y-102758400D02*
X152071200Y-102758400D01*
X150369200Y-102718400D02*
X152071200Y-102718400D01*
X150395200Y-102678399D02*
X152071199Y-102678400D01*
X150421200Y-102638400D02*
X152071200Y-102638400D01*
X150447200Y-102598399D02*
X152071200Y-102598400D01*
X150475200Y-102558400D02*
X152071200Y-102558400D01*
X150504200Y-102518400D02*
X152071200Y-102518399D01*
X150533200Y-102478400D02*
X152071200Y-102478400D01*
X150563200Y-102438400D02*
X152071200Y-102438400D01*
X150595200Y-102398400D02*
X152071200Y-102398401D01*
X150627200Y-102358400D02*
X152071200Y-102358400D01*
X150661199Y-102318400D02*
X152071200Y-102318400D01*
X150695200Y-102278400D02*
X152071200Y-102278400D01*
X150731199Y-102238400D02*
X152071199Y-102238400D01*
X150768200Y-102198400D02*
X152071200Y-102198400D01*
X150806200Y-102158400D02*
X152071200Y-102158400D01*
X150846200Y-102118400D02*
X155376200Y-102118400D01*
X150887200Y-102078400D02*
X155335200Y-102078400D01*
X150929200Y-102038400D02*
X155293200Y-102038400D01*
X150957200Y-107624641D02*
X151587200Y-107624641D01*
X150974200Y-101998400D02*
X155248200Y-101998400D01*
X151019200Y-101958400D02*
X155203200Y-101958400D01*
X151067200Y-101918400D02*
X155155200Y-101918400D01*
X151116200Y-101878400D02*
X155106200Y-101878400D01*
X151167200Y-101838400D02*
X155055200Y-101838400D01*
X151221200Y-101798400D02*
X155001200Y-101798400D01*
X151272200Y-107939641D02*
X151272200Y-107309641D01*
X151277200Y-101758400D02*
X154945200Y-101758400D01*
X151335199Y-101718400D02*
X154887201Y-101718400D01*
X151397200Y-101678400D02*
X154825200Y-101678400D01*
X151461200Y-101638400D02*
X154761200Y-101638400D01*
X151530200Y-101598400D02*
X154692200Y-101598400D01*
X151602200Y-101558400D02*
X154620200Y-101558400D01*
X151679200Y-101518401D02*
X154543200Y-101518401D01*
X151761200Y-101478400D02*
X154461200Y-101478400D01*
X151849200Y-101438400D02*
X154373200Y-101438400D01*
X151946200Y-101398400D02*
X154276200Y-101398400D01*
X152052199Y-101358400D02*
X154170201Y-101358400D01*
X152171200Y-101318400D02*
X154051200Y-101318400D01*
X152309199Y-101278400D02*
X153913201Y-101278400D01*
X152478200Y-101238400D02*
X153744200Y-101238400D01*
X152709201Y-101198400D02*
X153513199Y-101198400D01*
X154151200Y-102158400D02*
X155416200Y-102158400D01*
X154151200Y-102198400D02*
X155454200Y-102198400D01*
X154151200Y-102278400D02*
X155527200Y-102278400D01*
X154151200Y-102318400D02*
X155561201Y-102318400D01*
X154151200Y-102358400D02*
X155595200Y-102358400D01*
X154151200Y-102398401D02*
X155627200Y-102398400D01*
X154151200Y-102438400D02*
X155659200Y-102438400D01*
X154151200Y-102478400D02*
X155689200Y-102478400D01*
X154151200Y-102518399D02*
X155718200Y-102518400D01*
X154151200Y-102558400D02*
X155747200Y-102558400D01*
X154151200Y-102598400D02*
X155775200Y-102598399D01*
X154151200Y-102638400D02*
X155801200Y-102638400D01*
X154151200Y-102718400D02*
X155853200Y-102718400D01*
X154151200Y-102758400D02*
X155877199Y-102758400D01*
X154151200Y-102798400D02*
X155901200Y-102798400D01*
X154151200Y-102838401D02*
X155923200Y-102838400D01*
X154151200Y-102878400D02*
X155945200Y-102878400D01*
X154151200Y-102918400D02*
X155967200Y-102918400D01*
X154151200Y-102958399D02*
X155987200Y-102958399D01*
X154151200Y-102998400D02*
X156007200Y-102998400D01*
X154151200Y-103038400D02*
X156027199Y-103038400D01*
X154151200Y-103078400D02*
X156045200Y-103078400D01*
X154151200Y-103158400D02*
X156081200Y-103158400D01*
X154151200Y-103198400D02*
X156097200Y-103198400D01*
X154151200Y-103238400D02*
X156113200Y-103238400D01*
X154151200Y-103318400D02*
X156144200Y-103318400D01*
X154151200Y-103358400D02*
X156158199Y-103358400D01*
X154151200Y-103398399D02*
X156172199Y-103398400D01*
X154151200Y-103438401D02*
X156185200Y-103438400D01*
X154151200Y-103478400D02*
X156197200Y-103478399D01*
X154151200Y-103518400D02*
X156209200Y-103518400D01*
X154151200Y-103598400D02*
X156232200Y-103598400D01*
X154151200Y-103638400D02*
X156242200Y-103638400D01*
X154151200Y-103678400D02*
X156252200Y-103678400D01*
X154151200Y-103759400D02*
X156270200Y-103759400D01*
X154151200Y-103799400D02*
X156278200Y-103799400D01*
X154151200Y-103879400D02*
X156293200Y-103879400D01*
X154151200Y-103919400D02*
X156300201Y-103919400D01*
X154151200Y-103959400D02*
X156306200Y-103959400D01*
X154151200Y-104039400D02*
X156317200Y-104039400D01*
X154151200Y-104079400D02*
X156322200Y-104079400D01*
X154151200Y-104119400D02*
X156326200Y-104119400D01*
X154151200Y-104159401D02*
X156329200Y-104159400D01*
X154151200Y-104199400D02*
X156333200Y-104199400D01*
X154151201Y-102238400D02*
X155491201Y-102238400D01*
X154151201Y-102678400D02*
X155827200Y-102678399D01*
X154151201Y-103118400D02*
X156063200Y-103118400D01*
X154151201Y-103278400D02*
X156129200Y-103278400D01*
X154151201Y-103558400D02*
X156221201Y-103558400D01*
X154151201Y-103718400D02*
X156261200Y-103718400D01*
X154151201Y-103839400D02*
X156286200Y-103839399D01*
X154151201Y-103999400D02*
X156312200Y-103999400D01*
X156381201Y-104439401D02*
G75*
G02*
X149841199Y-104439401I-3270001J0D01*
G01*
X149841199Y-104439401D02*
G75*
G02*
X156381201Y-104439401I3270001J0D01*
G01*
X165690400Y-121335800D02*
G75*
G02*
X163290400Y-121335800I-1200000J0D01*
G01*
X163290400Y-121335800D02*
G75*
G02*
X165690400Y-121335800I1200000J0D01*
G01*
X161287750Y-112915432D02*
G75*
G02*
X151047750Y-112915432I-5120000J0D01*
G01*
X151047750Y-112915432D02*
G75*
G02*
X161287750Y-112915432I5120000J0D01*
G01*
X163606302Y-96160800D02*
X164406302Y-96160800D01*
X164006302Y-95760800D02*
X164006302Y-96560800D01*
X168016000Y-94395800D02*
X168016000Y-102555800D01*
X168056000Y-94395800D02*
X168056000Y-102555800D01*
X168096000Y-94395800D02*
X168096000Y-102555800D01*
X168136000Y-94396800D02*
X168136000Y-102554800D01*
X168176000Y-94398800D02*
X168176000Y-102552800D01*
X168216000Y-94399800D02*
X168216000Y-102551800D01*
X168256000Y-94401799D02*
X168256000Y-102549801D01*
X168296000Y-94404800D02*
X168296000Y-102546800D01*
X168336000Y-94407801D02*
X168336000Y-102543799D01*
X168376000Y-94410800D02*
X168376000Y-102540800D01*
X168416000Y-94414800D02*
X168416000Y-102536800D01*
X168456000Y-94418800D02*
X168456000Y-102532800D01*
X168496000Y-94423800D02*
X168496000Y-102527800D01*
X168536000Y-94427800D02*
X168536000Y-102523800D01*
X168576000Y-94433800D02*
X168576000Y-102517800D01*
X168616000Y-94438800D02*
X168616000Y-102512800D01*
X168656000Y-94445800D02*
X168656000Y-102505800D01*
X168696000Y-94451800D02*
X168696000Y-102499800D01*
X168737000Y-94458800D02*
X168737000Y-102492800D01*
X168777000Y-94465800D02*
X168777000Y-102485800D01*
X168817000Y-94473800D02*
X168817000Y-102477800D01*
X168857000Y-94481800D02*
X168857000Y-102469800D01*
X168896999Y-94490800D02*
X168897000Y-97435800D01*
X168897000Y-99515800D02*
X168896999Y-102460800D01*
X168937000Y-94499800D02*
X168937000Y-97435800D01*
X168937000Y-99515800D02*
X168937000Y-102451800D01*
X168977000Y-94508800D02*
X168977000Y-97435799D01*
X168977000Y-99515801D02*
X168977000Y-102442800D01*
X169017000Y-94518800D02*
X169017000Y-97435800D01*
X169017000Y-99515800D02*
X169017000Y-102432800D01*
X169057000Y-99515800D02*
X169057001Y-102422800D01*
X169057001Y-94528800D02*
X169057000Y-97435800D01*
X169097000Y-94539800D02*
X169097000Y-97435800D01*
X169097000Y-99515800D02*
X169097000Y-102411800D01*
X169137000Y-94550799D02*
X169137001Y-97435800D01*
X169137001Y-99515800D02*
X169137000Y-102400801D01*
X169177000Y-94561800D02*
X169177000Y-97435800D01*
X169177000Y-99515800D02*
X169177000Y-102389800D01*
X169217000Y-94573800D02*
X169217000Y-97435800D01*
X169217000Y-99515800D02*
X169217000Y-102377800D01*
X169256999Y-99515800D02*
X169257000Y-102364800D01*
X169257000Y-94586800D02*
X169256999Y-97435800D01*
X169297000Y-94598800D02*
X169297000Y-97435800D01*
X169297000Y-99515800D02*
X169297000Y-102352800D01*
X169336999Y-94612800D02*
X169337000Y-97435800D01*
X169337000Y-99515800D02*
X169336999Y-102338800D01*
X169377000Y-94625800D02*
X169377000Y-97435800D01*
X169377000Y-99515800D02*
X169377000Y-102325800D01*
X169417000Y-94640800D02*
X169417000Y-97435799D01*
X169417000Y-99515801D02*
X169417000Y-102310800D01*
X169457000Y-94654800D02*
X169457000Y-97435800D01*
X169457000Y-99515800D02*
X169457000Y-102296800D01*
X169497000Y-94670800D02*
X169497000Y-97435800D01*
X169497000Y-99515800D02*
X169497000Y-102280800D01*
X169537000Y-94685800D02*
X169537000Y-97435800D01*
X169537000Y-99515800D02*
X169537000Y-102265800D01*
X169577001Y-94701800D02*
X169577001Y-97435800D01*
X169577001Y-99515800D02*
X169577001Y-102249800D01*
X169617000Y-94718800D02*
X169617000Y-97435800D01*
X169617000Y-99515800D02*
X169617000Y-102232800D01*
X169657000Y-94735801D02*
X169657000Y-97435800D01*
X169657000Y-99515800D02*
X169657000Y-102215799D01*
X169696999Y-99515800D02*
X169697000Y-102197800D01*
X169697000Y-94753800D02*
X169696999Y-97435800D01*
X169737000Y-94771800D02*
X169737000Y-97435800D01*
X169737000Y-99515800D02*
X169737000Y-102179800D01*
X169777000Y-94789799D02*
X169777000Y-97435800D01*
X169777000Y-99515800D02*
X169777000Y-102161801D01*
X169817000Y-94809800D02*
X169817000Y-97435800D01*
X169817000Y-99515800D02*
X169817000Y-102141800D01*
X169857000Y-94828800D02*
X169857000Y-97435799D01*
X169857000Y-99515801D02*
X169857000Y-102122800D01*
X169897000Y-94848800D02*
X169897000Y-97435800D01*
X169897000Y-99515800D02*
X169897000Y-102102800D01*
X169937000Y-94869800D02*
X169937000Y-97435800D01*
X169937000Y-99515800D02*
X169937000Y-102081800D01*
X169977000Y-94891800D02*
X169977000Y-97435800D01*
X169977000Y-99515800D02*
X169977000Y-102059800D01*
X170017000Y-94913800D02*
X170017001Y-97435800D01*
X170017001Y-99515800D02*
X170017000Y-102037800D01*
X170057000Y-94935800D02*
X170057000Y-97435800D01*
X170057000Y-99515800D02*
X170057000Y-102015800D01*
X170097000Y-99515800D02*
X170097001Y-101992800D01*
X170097001Y-94958800D02*
X170097000Y-97435800D01*
X170136999Y-94982800D02*
X170136999Y-97435800D01*
X170136999Y-99515800D02*
X170136999Y-101968800D01*
X170177000Y-95006800D02*
X170177001Y-97435800D01*
X170177001Y-99515800D02*
X170177000Y-101944800D01*
X170217000Y-95031800D02*
X170217000Y-97435800D01*
X170217000Y-99515800D02*
X170217000Y-101919800D01*
X170257000Y-95057800D02*
X170257000Y-97435800D01*
X170257000Y-99515800D02*
X170257000Y-101893800D01*
X170297000Y-95083800D02*
X170297000Y-97435799D01*
X170297000Y-99515801D02*
X170297000Y-101867800D01*
X170337000Y-95110800D02*
X170337000Y-97435800D01*
X170337000Y-99515800D02*
X170337000Y-101840800D01*
X170377000Y-95137801D02*
X170377000Y-97435800D01*
X170377000Y-99515800D02*
X170377000Y-101813799D01*
X170417000Y-95166800D02*
X170417000Y-97435800D01*
X170417000Y-99515800D02*
X170417000Y-101784800D01*
X170457000Y-95195800D02*
X170457000Y-97435799D01*
X170457000Y-99515801D02*
X170457000Y-101755800D01*
X170497000Y-95225800D02*
X170497000Y-97435800D01*
X170497000Y-99515800D02*
X170497000Y-101725800D01*
X170537000Y-95255800D02*
X170537000Y-97435800D01*
X170537000Y-99515800D02*
X170537000Y-101695800D01*
X170577000Y-95286800D02*
X170577000Y-97435800D01*
X170577000Y-99515800D02*
X170577000Y-101664800D01*
X170617001Y-95319800D02*
X170617001Y-97435800D01*
X170617001Y-99515800D02*
X170617001Y-101631800D01*
X170656999Y-95351800D02*
X170657000Y-97435800D01*
X170657000Y-99515800D02*
X170656999Y-101599800D01*
X170697000Y-95385800D02*
X170697000Y-97435800D01*
X170697000Y-99515800D02*
X170697000Y-101565800D01*
X170736999Y-99515800D02*
X170737000Y-101530800D01*
X170737000Y-95420800D02*
X170736999Y-97435800D01*
X170777000Y-95456800D02*
X170777000Y-97435800D01*
X170777000Y-99515800D02*
X170777000Y-101494800D01*
X170817000Y-95492799D02*
X170817000Y-97435800D01*
X170817000Y-99515800D02*
X170817000Y-101458801D01*
X170857000Y-95530800D02*
X170857000Y-97435800D01*
X170857000Y-99515800D02*
X170857000Y-101420800D01*
X170897000Y-95568800D02*
X170897000Y-97435799D01*
X170897000Y-99515801D02*
X170897000Y-101382800D01*
X170937000Y-95608800D02*
X170937000Y-97435800D01*
X170937000Y-99515800D02*
X170937000Y-101342800D01*
X170977000Y-95649800D02*
X170977000Y-101301800D01*
X171017000Y-95691800D02*
X171017000Y-101259800D01*
X171057000Y-95734800D02*
X171057000Y-101216800D01*
X171097000Y-95778800D02*
X171097000Y-101172800D01*
X171137000Y-95824800D02*
X171137000Y-101126800D01*
X171176999Y-95871800D02*
X171176999Y-101079800D01*
X171217000Y-95919800D02*
X171217000Y-101031800D01*
X171256999Y-95970800D02*
X171256999Y-100980800D01*
X171297000Y-96021800D02*
X171297000Y-100929800D01*
X171337000Y-96075800D02*
X171337000Y-100875800D01*
X171377000Y-96130800D02*
X171377000Y-100820800D01*
X171417000Y-96188800D02*
X171417000Y-100762800D01*
X171457000Y-96247800D02*
X171457000Y-100703800D01*
X171497000Y-96309800D02*
X171497000Y-100641800D01*
X171536999Y-96373800D02*
X171536999Y-100577800D01*
X171577000Y-96441800D02*
X171577000Y-100509800D01*
X171617000Y-96511800D02*
X171617000Y-100439800D01*
X171657000Y-96585800D02*
X171657000Y-100365800D01*
X171697000Y-96662799D02*
X171697000Y-100288801D01*
X171737000Y-96744800D02*
X171737000Y-100206800D01*
X171777000Y-96830800D02*
X171777000Y-100120800D01*
X171817000Y-96923800D02*
X171817000Y-100027800D01*
X171857000Y-97022800D02*
X171857000Y-99928800D01*
X171897000Y-97129800D02*
X171897000Y-99821800D01*
X171937000Y-97246800D02*
X171937000Y-99704800D01*
X171977000Y-97377800D02*
X171977000Y-99573800D01*
X172017000Y-97527800D02*
X172017000Y-99423800D01*
X172056999Y-97707800D02*
X172056999Y-99243800D01*
X172097000Y-97942800D02*
X172097000Y-99008800D01*
X172136000Y-98475800D02*
G75*
G02*
X163896000Y-98475800I-4120000J0D01*
G01*
X163896000Y-98475800D02*
G75*
G02*
X172136000Y-98475800I4120000J0D01*
G01*
X133178400Y-88773000D02*
G75*
G02*
X130778400Y-88773000I-1200000J0D01*
G01*
X130778400Y-88773000D02*
G75*
G02*
X133178400Y-88773000I1200000J0D01*
G01*
X130327400Y-91455400D02*
X148361400Y-91455400D01*
X130327400Y-91481400D02*
X130327400Y-97291400D01*
X130344400Y-96075400D02*
X130344399Y-98025400D01*
X130454400Y-119405400D02*
X130454400Y-118135400D01*
X135534400Y-120675400D02*
X135534400Y-119405400D01*
X143154400Y-119405400D02*
X143154400Y-120675400D01*
X143154400Y-120675400D02*
X135534400Y-120675400D01*
X148234400Y-119405400D02*
X130454400Y-119405400D01*
X148234400Y-119405400D02*
X148234400Y-118135400D01*
X148344400Y-96085399D02*
X130344400Y-96075400D01*
X148344401Y-97875400D02*
X148344400Y-96085399D01*
X148361400Y-91455400D02*
X148361400Y-97955400D01*
X148496400Y-118635400D02*
X148496400Y-118135400D01*
X148996400Y-118135400D01*
X148496400Y-118635400D01*
G36*
X148496400Y-118635400D02*
G01*
X148496400Y-118135400D01*
X148996400Y-118135400D01*
X148496400Y-118635400D01*
G37*
X145814400Y-91045800D02*
X145814400Y-83345800D01*
X160814399Y-85045800D02*
X145814401Y-85045800D01*
X160814399Y-89045800D02*
X145814401Y-89045800D01*
X160814400Y-83345800D02*
X145814400Y-83345800D01*
X160814400Y-91045800D02*
X145814400Y-91045800D01*
X160814400Y-91045800D02*
X160814400Y-83345800D01*
X149314399Y-83745800D02*
X147314400Y-83745800D01*
X147314400Y-83345800D01*
X149314400Y-83345800D01*
X149314399Y-83745800D01*
X154314400Y-83745800D02*
X152314400Y-83745800D01*
X152314400Y-83345800D01*
X154314400Y-83345800D01*
X154314400Y-83745800D01*
X159414400Y-83745800D02*
X157414400Y-83745800D01*
X157414400Y-83345800D01*
X159414399Y-83345800D01*
X159414400Y-83745800D01*
X148808000Y-124240600D02*
X148808000Y-122910600D01*
X150138000Y-124240600D02*
X148808000Y-124240600D01*
X151408001Y-121580600D02*
X156547999Y-121580600D01*
X151408001Y-124240600D02*
X151408001Y-121580600D01*
X151408001Y-124240600D02*
X156547999Y-124240600D01*
X156547999Y-124240600D02*
X156547999Y-121580600D01*
D11*
X150765799Y-91385000D02*
X154065800Y-91385000D01*
X150765799Y-100385000D02*
X150765799Y-91385000D01*
X150765799Y-100385000D02*
X154065800Y-100385000D01*
X154065800Y-100385000D02*
X154065800Y-91385000D01*
D13*
X133178400Y-121335800D02*
G75*
G02*
X130778400Y-121335800I-1200000J0D01*
G01*
X130778400Y-121335800D02*
G75*
G02*
X133178400Y-121335800I1200000J0D01*
G01*
D10*
X146098000Y-122350600D02*
X146098000Y-128550600D01*
X146098000Y-128550600D02*
X156718000Y-128550600D01*
D13*
X146100800Y-123621800D02*
X156718000Y-123621800D01*
X146761200Y-128092200D02*
X148336000Y-128092200D01*
X149428200Y-128092200D02*
X151003000Y-128092200D01*
X151866600Y-128092200D02*
X153441400Y-128092200D01*
X154457400Y-128041400D02*
X156032200Y-128041400D01*
D10*
X156718000Y-122350600D02*
X146098000Y-122350600D01*
X156718000Y-128550600D02*
X156718000Y-122350600D01*
M02*
