G04 #@! TF.GenerationSoftware,KiCad,Pcbnew,8.0.8*
G04 #@! TF.CreationDate,2025-02-05T12:42:34+03:00*
G04 #@! TF.ProjectId,SMHome_2RelayBoardRound_ESP32_C3_Mini_v1,534d486f-6d65-45f3-9252-656c6179426f,12*
G04 #@! TF.SameCoordinates,Original*
G04 #@! TF.FileFunction,Copper,L1,Top*
G04 #@! TF.FilePolarity,Positive*
%FSLAX46Y46*%
G04 Gerber Fmt 4.6, Leading zero omitted, Abs format (unit mm)*
G04 Created by KiCad (PCBNEW 8.0.8) date 2025-02-05 12:42:34*
%MOMM*%
%LPD*%
G01*
G04 APERTURE LIST*
G04 Aperture macros list*
%AMRoundRect*
0 Rectangle with rounded corners*
0 $1 Rounding radius*
0 $2 $3 $4 $5 $6 $7 $8 $9 X,Y pos of 4 corners*
0 Add a 4 corners polygon primitive as box body*
4,1,4,$2,$3,$4,$5,$6,$7,$8,$9,$2,$3,0*
0 Add four circle primitives for the rounded corners*
1,1,$1+$1,$2,$3*
1,1,$1+$1,$4,$5*
1,1,$1+$1,$6,$7*
1,1,$1+$1,$8,$9*
0 Add four rect primitives between the rounded corners*
20,1,$1+$1,$2,$3,$4,$5,0*
20,1,$1+$1,$4,$5,$6,$7,0*
20,1,$1+$1,$6,$7,$8,$9,0*
20,1,$1+$1,$8,$9,$2,$3,0*%
%AMFreePoly0*
4,1,19,0.550000,-0.750000,0.000000,-0.750000,0.000000,-0.744911,-0.071157,-0.744911,-0.207708,-0.704816,-0.327430,-0.627875,-0.420627,-0.520320,-0.479746,-0.390866,-0.500000,-0.250000,-0.500000,0.250000,-0.479746,0.390866,-0.420627,0.520320,-0.327430,0.627875,-0.207708,0.704816,-0.071157,0.744911,0.000000,0.744911,0.000000,0.750000,0.550000,0.750000,0.550000,-0.750000,0.550000,-0.750000,
$1*%
%AMFreePoly1*
4,1,19,0.000000,0.744911,0.071157,0.744911,0.207708,0.704816,0.327430,0.627875,0.420627,0.520320,0.479746,0.390866,0.500000,0.250000,0.500000,-0.250000,0.479746,-0.390866,0.420627,-0.520320,0.327430,-0.627875,0.207708,-0.704816,0.071157,-0.744911,0.000000,-0.744911,0.000000,-0.750000,-0.550000,-0.750000,-0.550000,0.750000,0.000000,0.750000,0.000000,0.744911,0.000000,0.744911,
$1*%
G04 Aperture macros list end*
G04 #@! TA.AperFunction,ComponentPad*
%ADD10R,1.700000X1.700000*%
G04 #@! TD*
G04 #@! TA.AperFunction,ComponentPad*
%ADD11O,1.700000X1.700000*%
G04 #@! TD*
G04 #@! TA.AperFunction,ComponentPad*
%ADD12C,2.400000*%
G04 #@! TD*
G04 #@! TA.AperFunction,ComponentPad*
%ADD13O,2.400000X2.400000*%
G04 #@! TD*
G04 #@! TA.AperFunction,SMDPad,CuDef*
%ADD14RoundRect,0.175000X0.175000X0.425000X-0.175000X0.425000X-0.175000X-0.425000X0.175000X-0.425000X0*%
G04 #@! TD*
G04 #@! TA.AperFunction,SMDPad,CuDef*
%ADD15RoundRect,0.190000X-0.190000X-0.410000X0.190000X-0.410000X0.190000X0.410000X-0.190000X0.410000X0*%
G04 #@! TD*
G04 #@! TA.AperFunction,SMDPad,CuDef*
%ADD16RoundRect,0.200000X-0.200000X-0.400000X0.200000X-0.400000X0.200000X0.400000X-0.200000X0.400000X0*%
G04 #@! TD*
G04 #@! TA.AperFunction,SMDPad,CuDef*
%ADD17RoundRect,0.175000X-0.175000X-0.425000X0.175000X-0.425000X0.175000X0.425000X-0.175000X0.425000X0*%
G04 #@! TD*
G04 #@! TA.AperFunction,SMDPad,CuDef*
%ADD18RoundRect,0.190000X0.190000X0.410000X-0.190000X0.410000X-0.190000X-0.410000X0.190000X-0.410000X0*%
G04 #@! TD*
G04 #@! TA.AperFunction,SMDPad,CuDef*
%ADD19RoundRect,0.200000X0.200000X0.400000X-0.200000X0.400000X-0.200000X-0.400000X0.200000X-0.400000X0*%
G04 #@! TD*
G04 #@! TA.AperFunction,HeatsinkPad*
%ADD20O,1.100000X1.700000*%
G04 #@! TD*
G04 #@! TA.AperFunction,SMDPad,CuDef*
%ADD21FreePoly0,90.000000*%
G04 #@! TD*
G04 #@! TA.AperFunction,SMDPad,CuDef*
%ADD22R,1.500000X1.000000*%
G04 #@! TD*
G04 #@! TA.AperFunction,SMDPad,CuDef*
%ADD23FreePoly1,90.000000*%
G04 #@! TD*
G04 #@! TA.AperFunction,ComponentPad*
%ADD24C,2.200000*%
G04 #@! TD*
G04 #@! TA.AperFunction,ComponentPad*
%ADD25R,1.600000X1.600000*%
G04 #@! TD*
G04 #@! TA.AperFunction,ComponentPad*
%ADD26C,1.600000*%
G04 #@! TD*
G04 #@! TA.AperFunction,ComponentPad*
%ADD27C,2.600000*%
G04 #@! TD*
G04 #@! TA.AperFunction,SMDPad,CuDef*
%ADD28RoundRect,0.381000X0.869000X0.381000X-0.869000X0.381000X-0.869000X-0.381000X0.869000X-0.381000X0*%
G04 #@! TD*
G04 #@! TA.AperFunction,SMDPad,CuDef*
%ADD29RoundRect,0.381000X0.762000X0.381000X-0.762000X0.381000X-0.762000X-0.381000X0.762000X-0.381000X0*%
G04 #@! TD*
G04 #@! TA.AperFunction,ComponentPad*
%ADD30C,2.500000*%
G04 #@! TD*
G04 #@! TA.AperFunction,ComponentPad*
%ADD31R,1.650000X1.650000*%
G04 #@! TD*
G04 #@! TA.AperFunction,ComponentPad*
%ADD32C,1.800000*%
G04 #@! TD*
G04 #@! TA.AperFunction,ViaPad*
%ADD33C,0.800000*%
G04 #@! TD*
G04 #@! TA.AperFunction,ViaPad*
%ADD34C,1.500000*%
G04 #@! TD*
G04 #@! TA.AperFunction,Conductor*
%ADD35C,0.600000*%
G04 #@! TD*
G04 #@! TA.AperFunction,Conductor*
%ADD36C,1.500000*%
G04 #@! TD*
G04 #@! TA.AperFunction,Conductor*
%ADD37C,0.800000*%
G04 #@! TD*
G04 #@! TA.AperFunction,Conductor*
%ADD38C,1.000000*%
G04 #@! TD*
G04 #@! TA.AperFunction,Conductor*
%ADD39C,0.250000*%
G04 #@! TD*
G04 #@! TA.AperFunction,Conductor*
%ADD40C,0.200000*%
G04 #@! TD*
G04 #@! TA.AperFunction,Conductor*
%ADD41C,0.400000*%
G04 #@! TD*
G04 APERTURE END LIST*
D10*
X150138000Y-120370600D03*
D11*
X152678000Y-120370600D03*
X155217999Y-120370600D03*
D12*
X162610800Y-93827600D03*
D13*
X162610800Y-98907599D03*
D14*
X140504800Y-88754199D03*
D15*
X138484800Y-88754200D03*
D16*
X137254800Y-88754200D03*
D17*
X139504800Y-88754199D03*
D18*
X141524800Y-88754200D03*
D19*
X142754800Y-88754200D03*
D20*
X144324800Y-88674200D03*
X144324800Y-84874200D03*
X135684800Y-88674200D03*
X135684800Y-84874200D03*
D21*
X159308800Y-124566200D03*
D22*
X159308800Y-123266200D03*
D23*
X159308800Y-121966200D03*
D24*
X158496000Y-93192600D03*
X155295600Y-98729800D03*
X164541200Y-88773000D03*
D25*
X153111200Y-105689400D03*
D26*
X153111200Y-103189400D03*
D24*
X164490400Y-121335800D03*
D27*
X157022800Y-110566200D03*
X155312699Y-115264663D03*
D25*
X166116000Y-98475800D03*
D26*
X169916000Y-98475800D03*
D24*
X131978400Y-88773000D03*
D28*
X148344400Y-116865400D03*
X148344400Y-114325400D03*
X148344400Y-111785400D03*
X148344400Y-109245401D03*
X148344400Y-106705399D03*
X148344400Y-104165400D03*
X148344400Y-101625400D03*
X148344400Y-99085400D03*
D29*
X130344400Y-99085400D03*
X130344400Y-101625400D03*
X130344400Y-104165400D03*
X130344400Y-106705399D03*
X130344400Y-109245401D03*
X130344400Y-111785400D03*
X130344400Y-114325400D03*
X130344400Y-116865400D03*
D30*
X158314400Y-87045800D03*
X153314400Y-87045800D03*
X148314400Y-87045800D03*
D10*
X150138000Y-122910600D03*
D11*
X152678000Y-122910600D03*
X155217999Y-122910600D03*
D26*
X151815800Y-98385000D03*
X153015800Y-93385000D03*
D24*
X131978400Y-121335800D03*
D31*
X147598000Y-125450600D03*
D32*
X150138000Y-125450600D03*
X152678000Y-125450600D03*
X155218000Y-125450600D03*
D33*
X166674800Y-109550200D03*
X151180800Y-106197400D03*
X166827200Y-104775000D03*
X168706800Y-109550200D03*
X166827200Y-103759000D03*
X166827200Y-105841800D03*
X169773600Y-109550200D03*
X167690800Y-109550200D03*
X134467600Y-100228400D03*
D34*
X140563600Y-95834200D03*
D33*
X148132800Y-123571000D03*
X145796000Y-107772200D03*
X134010400Y-111429800D03*
X128346200Y-105486200D03*
X143103600Y-102793800D03*
X127279400Y-110363000D03*
X128016000Y-99898200D03*
X128066800Y-102285800D03*
X145821400Y-103251000D03*
X145745200Y-105486200D03*
X139192000Y-119100600D03*
X139192000Y-120421400D03*
X142138400Y-123774200D03*
X158724600Y-120345200D03*
D35*
X151130000Y-113385600D02*
X150190200Y-114325400D01*
D36*
X153111200Y-103189400D02*
X165110800Y-103189400D01*
D35*
X151180800Y-104571800D02*
X152563200Y-103189400D01*
X151130000Y-106248200D02*
X151130000Y-113385600D01*
D36*
X169824400Y-98475800D02*
X169916000Y-98475800D01*
D35*
X150190200Y-114325400D02*
X148344400Y-114325400D01*
X155346400Y-122605800D02*
X155244800Y-122707400D01*
D36*
X165110800Y-103189400D02*
X169824400Y-98475800D01*
D35*
X152563200Y-103189400D02*
X153111200Y-103189400D01*
X151180800Y-106197400D02*
X151130000Y-106248200D01*
X151180800Y-106197400D02*
X151180800Y-104571800D01*
D37*
X141524800Y-89793000D02*
X141524800Y-88754200D01*
D35*
X160294800Y-124566200D02*
X159308800Y-124566200D01*
D37*
X138484800Y-90851800D02*
X140466000Y-90851800D01*
D38*
X153111200Y-113063164D02*
X155312699Y-115264663D01*
D35*
X161747200Y-117373400D02*
X148852400Y-117373400D01*
X154727962Y-115849400D02*
X155312699Y-115264663D01*
X157022800Y-105689400D02*
X161747200Y-110413800D01*
X161747200Y-110413800D02*
X161747200Y-123113800D01*
D37*
X138484800Y-90851800D02*
X138484800Y-89945400D01*
X134467600Y-94869000D02*
X138484800Y-90851800D01*
D35*
X153111200Y-105689400D02*
X157022800Y-105689400D01*
D37*
X140466000Y-90851800D02*
X141524800Y-89793000D01*
D35*
X148852400Y-117373400D02*
X148344400Y-116865400D01*
D37*
X134467600Y-100228400D02*
X134467600Y-94869000D01*
D35*
X161747200Y-123113800D02*
X160294800Y-124566200D01*
D37*
X138484800Y-88754200D02*
X138484800Y-89945400D01*
D38*
X153111200Y-105689400D02*
X153111200Y-113063164D01*
X162229800Y-98907599D02*
X162610800Y-98907599D01*
X140563600Y-95834200D02*
X159156401Y-95834200D01*
X159156401Y-95834200D02*
X162229800Y-98907599D01*
X154849200Y-98537400D02*
X155041600Y-98729800D01*
X151815800Y-98385000D02*
X151968200Y-98537400D01*
X151968200Y-98537400D02*
X154849200Y-98537400D01*
D36*
X153015800Y-87344400D02*
X153314400Y-87045800D01*
X153015800Y-93385000D02*
X153015800Y-87344400D01*
X158496000Y-93192600D02*
X158496000Y-87227400D01*
X158496000Y-87227400D02*
X158314400Y-87045800D01*
D39*
X148258400Y-123571000D02*
X150138000Y-125450600D01*
X148132800Y-123571000D02*
X148258400Y-123571000D01*
X144475200Y-106451400D02*
X144475200Y-102768400D01*
X145211800Y-102031800D02*
X147938000Y-102031800D01*
X147938000Y-102031800D02*
X148344400Y-101625400D01*
X144475200Y-102768400D02*
X145211800Y-102031800D01*
X145796000Y-107772200D02*
X144475200Y-106451400D01*
D40*
X133273800Y-112166400D02*
X130725400Y-112166400D01*
X134010400Y-111429800D02*
X133273800Y-112166400D01*
X130725400Y-112166400D02*
X130344400Y-111785400D01*
X128346200Y-105486200D02*
X128346200Y-112327200D01*
X128346200Y-112327200D02*
X130344400Y-114325400D01*
X143103600Y-102793800D02*
X142951200Y-102946200D01*
X142951200Y-107213400D02*
X145313400Y-109575600D01*
X142951200Y-102946200D02*
X142951200Y-107213400D01*
X145313400Y-109575600D02*
X148014201Y-109575600D01*
X148014201Y-109575600D02*
X148344400Y-109245401D01*
X127279400Y-110363000D02*
X127279400Y-105105200D01*
X127279400Y-105105200D02*
X128219200Y-104165400D01*
X128219200Y-104165400D02*
X130344400Y-104165400D01*
X128828800Y-99085400D02*
X130344400Y-99085400D01*
X128016000Y-99898200D02*
X128828800Y-99085400D01*
X128574800Y-101625400D02*
X130344400Y-101625400D01*
X128066800Y-102285800D02*
X128066800Y-102133400D01*
X128066800Y-102133400D02*
X128574800Y-101625400D01*
X145821400Y-103251000D02*
X146735800Y-104165400D01*
X146735800Y-104165400D02*
X148344400Y-104165400D01*
X146964399Y-106705399D02*
X148344400Y-106705399D01*
X145745200Y-105486200D02*
X146964399Y-106705399D01*
X135813801Y-109651801D02*
X139192000Y-113030000D01*
X139192000Y-113030000D02*
X139192000Y-119100600D01*
X130344400Y-109245401D02*
X130750800Y-109651801D01*
X130750800Y-109651801D02*
X135813801Y-109651801D01*
X134797799Y-107111799D02*
X130750800Y-107111799D01*
X139192000Y-120421400D02*
X140106400Y-119507000D01*
X140106400Y-112420400D02*
X134797799Y-107111799D01*
X130750800Y-107111799D02*
X130344400Y-106705399D01*
X140106400Y-119507000D02*
X140106400Y-112420400D01*
D41*
X159308800Y-121966200D02*
X159308800Y-121132600D01*
X144678400Y-114122200D02*
X142138400Y-116662200D01*
X142849600Y-118592600D02*
X142138400Y-117881400D01*
X142138400Y-117221000D02*
X142138400Y-123774200D01*
X142138400Y-119253000D02*
X142138400Y-123774200D01*
X143967200Y-118592600D02*
X142849600Y-118592600D01*
X147015200Y-111785400D02*
X148344400Y-111785400D01*
X156972000Y-118592600D02*
X143967200Y-118592600D01*
X143967200Y-118592600D02*
X142798800Y-118592600D01*
X142138400Y-116662200D02*
X142138400Y-117221000D01*
X159308800Y-121132600D02*
X158724600Y-120548400D01*
X142798800Y-118592600D02*
X142138400Y-119253000D01*
X158724600Y-120548400D02*
X158724600Y-120345200D01*
X144678400Y-114122200D02*
X147015200Y-111785400D01*
X158724600Y-120345200D02*
X156972000Y-118592600D01*
X142138400Y-117881400D02*
X142138400Y-116662200D01*
X157683200Y-123266200D02*
X159308800Y-123266200D01*
X153060400Y-121589800D02*
X152678000Y-121207400D01*
X156057600Y-121640600D02*
X157683200Y-123266200D01*
X152678000Y-121207400D02*
X152678000Y-120370600D01*
X152678000Y-122910600D02*
X152678000Y-125450600D01*
X152678000Y-121972200D02*
X153060400Y-121589800D01*
X152678000Y-122910600D02*
X152678000Y-121972200D01*
X153111200Y-121640600D02*
X156057600Y-121640600D01*
X153060400Y-121589800D02*
X153111200Y-121640600D01*
G04 #@! TA.AperFunction,Conductor*
G36*
X150536653Y-83252785D02*
G01*
X150582408Y-83305589D01*
X150593605Y-83355632D01*
X150611005Y-84824993D01*
X150592116Y-84892261D01*
X150540817Y-84938180D01*
X150489454Y-84962915D01*
X150363800Y-85063121D01*
X150263593Y-85188777D01*
X150193864Y-85333570D01*
X150158100Y-85490259D01*
X150158100Y-86298069D01*
X150138415Y-86365108D01*
X150085611Y-86410863D01*
X150016453Y-86420807D01*
X149952897Y-86391782D01*
X149918672Y-86343372D01*
X149895515Y-86284371D01*
X149764372Y-86057226D01*
X149716524Y-85997227D01*
X148991977Y-86721773D01*
X148979041Y-86690542D01*
X148896963Y-86567703D01*
X148792497Y-86463237D01*
X148669658Y-86381159D01*
X148638424Y-86368221D01*
X149363568Y-85643078D01*
X149191854Y-85526006D01*
X149191845Y-85526001D01*
X148955542Y-85412204D01*
X148955544Y-85412204D01*
X148704905Y-85334892D01*
X148704899Y-85334890D01*
X148445551Y-85295800D01*
X148183248Y-85295800D01*
X147923900Y-85334890D01*
X147923894Y-85334892D01*
X147673258Y-85412204D01*
X147673254Y-85412205D01*
X147436947Y-85526005D01*
X147436939Y-85526010D01*
X147265230Y-85643077D01*
X147990375Y-86368221D01*
X147959142Y-86381159D01*
X147836303Y-86463237D01*
X147731837Y-86567703D01*
X147649759Y-86690542D01*
X147636821Y-86721774D01*
X146912274Y-85997227D01*
X146864428Y-86057225D01*
X146733283Y-86284373D01*
X146637458Y-86528529D01*
X146579093Y-86784249D01*
X146579092Y-86784254D01*
X146559493Y-87045795D01*
X146559493Y-87045804D01*
X146579092Y-87307345D01*
X146579093Y-87307350D01*
X146637458Y-87563070D01*
X146733283Y-87807226D01*
X146733282Y-87807226D01*
X146864429Y-88034376D01*
X146912273Y-88094372D01*
X147636821Y-87369824D01*
X147649759Y-87401058D01*
X147731837Y-87523897D01*
X147836303Y-87628363D01*
X147959142Y-87710441D01*
X147990374Y-87723377D01*
X147265230Y-88448520D01*
X147436946Y-88565593D01*
X147436950Y-88565595D01*
X147673254Y-88679394D01*
X147673258Y-88679395D01*
X147923894Y-88756707D01*
X147923900Y-88756709D01*
X148183248Y-88795799D01*
X148183257Y-88795800D01*
X148445543Y-88795800D01*
X148445551Y-88795799D01*
X148704899Y-88756709D01*
X148704905Y-88756707D01*
X148955543Y-88679395D01*
X149191845Y-88565598D01*
X149191847Y-88565597D01*
X149363568Y-88448520D01*
X148638425Y-87723378D01*
X148669658Y-87710441D01*
X148792497Y-87628363D01*
X148896963Y-87523897D01*
X148979041Y-87401058D01*
X148991978Y-87369825D01*
X149716525Y-88094372D01*
X149764371Y-88034373D01*
X149895516Y-87807226D01*
X149918672Y-87748228D01*
X149961488Y-87693014D01*
X150027358Y-87669713D01*
X150095368Y-87685724D01*
X150143927Y-87735962D01*
X150158100Y-87793530D01*
X150158100Y-88473444D01*
X150158090Y-88473474D01*
X150158093Y-88473475D01*
X150158067Y-88605416D01*
X150158067Y-88605422D01*
X150193944Y-88762530D01*
X150193945Y-88762534D01*
X150263979Y-88907689D01*
X150263983Y-88907695D01*
X150364632Y-89033553D01*
X150364642Y-89033564D01*
X150490841Y-89133795D01*
X150593439Y-89182874D01*
X150645420Y-89229561D01*
X150663920Y-89293265D01*
X150672098Y-89983749D01*
X150653209Y-90051017D01*
X150627141Y-90080767D01*
X146592040Y-93418442D01*
X146527836Y-93446003D01*
X146513822Y-93446890D01*
X138836400Y-93497399D01*
X138836400Y-101168199D01*
X138836400Y-101168200D01*
X146569728Y-101157353D01*
X146636793Y-101176944D01*
X146682622Y-101229683D01*
X146693900Y-101281353D01*
X146693900Y-101382300D01*
X146674215Y-101449339D01*
X146621411Y-101495094D01*
X146569900Y-101506300D01*
X145288596Y-101506300D01*
X145288580Y-101506299D01*
X145280984Y-101506299D01*
X145142617Y-101506299D01*
X145024752Y-101537880D01*
X145008961Y-101542112D01*
X144889138Y-101611292D01*
X144889132Y-101611297D01*
X144054696Y-102445733D01*
X144054692Y-102445738D01*
X144049543Y-102454657D01*
X143998974Y-102502871D01*
X143930366Y-102516091D01*
X143865503Y-102490121D01*
X143833313Y-102450036D01*
X143833094Y-102450174D01*
X143831907Y-102448285D01*
X143830439Y-102446457D01*
X143829390Y-102444280D01*
X143829389Y-102444278D01*
X143733416Y-102291538D01*
X143605862Y-102163984D01*
X143453123Y-102068011D01*
X143282854Y-102008431D01*
X143282849Y-102008430D01*
X143103604Y-101988235D01*
X143103596Y-101988235D01*
X142924350Y-102008430D01*
X142924345Y-102008431D01*
X142754076Y-102068011D01*
X142601337Y-102163984D01*
X142473784Y-102291537D01*
X142377811Y-102444276D01*
X142318231Y-102614545D01*
X142318230Y-102614550D01*
X142298035Y-102793796D01*
X142298035Y-102793803D01*
X142318230Y-102973049D01*
X142318231Y-102973054D01*
X142377811Y-103143322D01*
X142394280Y-103169533D01*
X142431694Y-103229076D01*
X142450700Y-103295048D01*
X142450700Y-107279291D01*
X142484808Y-107406587D01*
X142498246Y-107429862D01*
X142550700Y-107520714D01*
X142550701Y-107520715D01*
X142550702Y-107520716D01*
X144908559Y-109878572D01*
X144908569Y-109878583D01*
X144912899Y-109882913D01*
X144912900Y-109882914D01*
X145006086Y-109976100D01*
X145120214Y-110041992D01*
X145247507Y-110076100D01*
X145247508Y-110076100D01*
X146768530Y-110076100D01*
X146835569Y-110095785D01*
X146856211Y-110112419D01*
X146985059Y-110241267D01*
X146985065Y-110241272D01*
X147134170Y-110334962D01*
X147194594Y-110356105D01*
X147300400Y-110393128D01*
X147300403Y-110393128D01*
X147306455Y-110394510D01*
X147367432Y-110428621D01*
X147400287Y-110490284D01*
X147394589Y-110559921D01*
X147352147Y-110615423D01*
X147306464Y-110636288D01*
X147300406Y-110637671D01*
X147134170Y-110695838D01*
X146985065Y-110789528D01*
X146985059Y-110789533D01*
X146860533Y-110914059D01*
X146860528Y-110914065D01*
X146766838Y-111063170D01*
X146706516Y-111235565D01*
X146665794Y-111292341D01*
X146651481Y-111301994D01*
X146646490Y-111304875D01*
X146646481Y-111304882D01*
X146534678Y-111416686D01*
X144309684Y-113641681D01*
X141769686Y-116181678D01*
X141657881Y-116293482D01*
X141657877Y-116293487D01*
X141648691Y-116309400D01*
X141645364Y-116315163D01*
X141636954Y-116329730D01*
X141582216Y-116424539D01*
X141578823Y-116430415D01*
X141537899Y-116583143D01*
X141537899Y-116583145D01*
X141537899Y-116751246D01*
X141537900Y-116751259D01*
X141537900Y-117794730D01*
X141537899Y-117794748D01*
X141537899Y-117970446D01*
X141537900Y-117970459D01*
X141537900Y-119166330D01*
X141537899Y-119166348D01*
X141537899Y-119342046D01*
X141537900Y-119342059D01*
X141537900Y-123191787D01*
X141518215Y-123258826D01*
X141510850Y-123269096D01*
X141508586Y-123271934D01*
X141412611Y-123424676D01*
X141353031Y-123594945D01*
X141353030Y-123594950D01*
X141332835Y-123774196D01*
X141332835Y-123774203D01*
X141353030Y-123953449D01*
X141353031Y-123953454D01*
X141412611Y-124123723D01*
X141497849Y-124259377D01*
X141508584Y-124276462D01*
X141636138Y-124404016D01*
X141788878Y-124499989D01*
X141959145Y-124559568D01*
X141959150Y-124559569D01*
X142138396Y-124579765D01*
X142138400Y-124579765D01*
X142138404Y-124579765D01*
X142317649Y-124559569D01*
X142317652Y-124559568D01*
X142317655Y-124559568D01*
X142487922Y-124499989D01*
X142640662Y-124404016D01*
X142768216Y-124276462D01*
X142864189Y-124123722D01*
X142923768Y-123953455D01*
X142923769Y-123953449D01*
X142943965Y-123774203D01*
X142943965Y-123774196D01*
X142923769Y-123594950D01*
X142923768Y-123594945D01*
X142903926Y-123538239D01*
X142864189Y-123424678D01*
X142768216Y-123271938D01*
X142768214Y-123271936D01*
X142768213Y-123271934D01*
X142765950Y-123269096D01*
X142765059Y-123266915D01*
X142764511Y-123266042D01*
X142764664Y-123265945D01*
X142739544Y-123204409D01*
X142738900Y-123191787D01*
X142738900Y-119553097D01*
X142758585Y-119486058D01*
X142775219Y-119465416D01*
X143011217Y-119229419D01*
X143072540Y-119195934D01*
X143098898Y-119193100D01*
X143888143Y-119193100D01*
X148803029Y-119193100D01*
X148870068Y-119212785D01*
X148915823Y-119265589D01*
X148925767Y-119334747D01*
X148913513Y-119373396D01*
X148902353Y-119395296D01*
X148902352Y-119395298D01*
X148887500Y-119489075D01*
X148887500Y-121252117D01*
X148898292Y-121320257D01*
X148902354Y-121345904D01*
X148959950Y-121458942D01*
X148959952Y-121458944D01*
X148959954Y-121458947D01*
X149053926Y-121552919D01*
X149087411Y-121614242D01*
X149082427Y-121683934D01*
X149053926Y-121728281D01*
X148959954Y-121822252D01*
X148959951Y-121822257D01*
X148959950Y-121822258D01*
X148940751Y-121859937D01*
X148902352Y-121935298D01*
X148887500Y-122029075D01*
X148887500Y-122894260D01*
X148867815Y-122961299D01*
X148815011Y-123007054D01*
X148745853Y-123016998D01*
X148682297Y-122987973D01*
X148675819Y-122981941D01*
X148635062Y-122941184D01*
X148482323Y-122845211D01*
X148312054Y-122785631D01*
X148312049Y-122785630D01*
X148132804Y-122765435D01*
X148132796Y-122765435D01*
X147953550Y-122785630D01*
X147953545Y-122785631D01*
X147783276Y-122845211D01*
X147630537Y-122941184D01*
X147502984Y-123068737D01*
X147407011Y-123221476D01*
X147347431Y-123391745D01*
X147347430Y-123391750D01*
X147327235Y-123570996D01*
X147327235Y-123571003D01*
X147347430Y-123750249D01*
X147347431Y-123750254D01*
X147394898Y-123885904D01*
X147407011Y-123920522D01*
X147455506Y-123997702D01*
X147479023Y-124035128D01*
X147498023Y-124102364D01*
X147477655Y-124169200D01*
X147424388Y-124214414D01*
X147374029Y-124225100D01*
X146741482Y-124225100D01*
X146660519Y-124237923D01*
X146647696Y-124239954D01*
X146534658Y-124297550D01*
X146534657Y-124297551D01*
X146534652Y-124297554D01*
X146444954Y-124387252D01*
X146444951Y-124387257D01*
X146444950Y-124387258D01*
X146425751Y-124424937D01*
X146387352Y-124500298D01*
X146372500Y-124594075D01*
X146372500Y-126307117D01*
X146383292Y-126375257D01*
X146387354Y-126400904D01*
X146444950Y-126513942D01*
X146444952Y-126513944D01*
X146444954Y-126513947D01*
X146534652Y-126603645D01*
X146534654Y-126603646D01*
X146534658Y-126603650D01*
X146647694Y-126661245D01*
X146647698Y-126661247D01*
X146741475Y-126676099D01*
X146741481Y-126676100D01*
X148454518Y-126676099D01*
X148548304Y-126661246D01*
X148661342Y-126603650D01*
X148751050Y-126513942D01*
X148808646Y-126400904D01*
X148808646Y-126400902D01*
X148808647Y-126400901D01*
X148823499Y-126307124D01*
X148823500Y-126307119D01*
X148823499Y-126233927D01*
X148843183Y-126166891D01*
X148895986Y-126121135D01*
X148965144Y-126111191D01*
X149028701Y-126140215D01*
X149049074Y-126162806D01*
X149137954Y-126289741D01*
X149298858Y-126450645D01*
X149298861Y-126450647D01*
X149485266Y-126581168D01*
X149691504Y-126677339D01*
X149911308Y-126736235D01*
X150073230Y-126750401D01*
X150137998Y-126756068D01*
X150138000Y-126756068D01*
X150138002Y-126756068D01*
X150194673Y-126751109D01*
X150364692Y-126736235D01*
X150584496Y-126677339D01*
X150790734Y-126581168D01*
X150977139Y-126450647D01*
X151138047Y-126289739D01*
X151268568Y-126103334D01*
X151295618Y-126045324D01*
X151341790Y-125992885D01*
X151408983Y-125973733D01*
X151475865Y-125993948D01*
X151520382Y-126045325D01*
X151547429Y-126103328D01*
X151547432Y-126103334D01*
X151677954Y-126289741D01*
X151838858Y-126450645D01*
X151838861Y-126450647D01*
X152025266Y-126581168D01*
X152231504Y-126677339D01*
X152451308Y-126736235D01*
X152613230Y-126750401D01*
X152677998Y-126756068D01*
X152678000Y-126756068D01*
X152678002Y-126756068D01*
X152734673Y-126751109D01*
X152904692Y-126736235D01*
X153124496Y-126677339D01*
X153330734Y-126581168D01*
X153517139Y-126450647D01*
X153678047Y-126289739D01*
X153788057Y-126132625D01*
X153842632Y-126089002D01*
X153912130Y-126081808D01*
X153974485Y-126113330D01*
X153993440Y-126135929D01*
X154066811Y-126248233D01*
X154694212Y-125620833D01*
X154705482Y-125662892D01*
X154777890Y-125788308D01*
X154880292Y-125890710D01*
X155005708Y-125963118D01*
X155047765Y-125974387D01*
X154419201Y-126602951D01*
X154449649Y-126626650D01*
X154653697Y-126737076D01*
X154653706Y-126737079D01*
X154873139Y-126812411D01*
X155101993Y-126850600D01*
X155334007Y-126850600D01*
X155562860Y-126812411D01*
X155782293Y-126737079D01*
X155782301Y-126737076D01*
X155986355Y-126626647D01*
X156016797Y-126602951D01*
X156016798Y-126602950D01*
X155388235Y-125974387D01*
X155430292Y-125963118D01*
X155555708Y-125890710D01*
X155658110Y-125788308D01*
X155730518Y-125662892D01*
X155741787Y-125620834D01*
X156369186Y-126248234D01*
X156453484Y-126119206D01*
X156546682Y-125906735D01*
X156603638Y-125681818D01*
X156622798Y-125450605D01*
X156622798Y-125450594D01*
X156603638Y-125219381D01*
X156546682Y-124994464D01*
X156453483Y-124781990D01*
X156369186Y-124652964D01*
X155741787Y-125280364D01*
X155730518Y-125238308D01*
X155658110Y-125112892D01*
X155555708Y-125010490D01*
X155430292Y-124938082D01*
X155388233Y-124926812D01*
X156016797Y-124298247D01*
X156016797Y-124298245D01*
X155986360Y-124274555D01*
X155986349Y-124274548D01*
X155958315Y-124259377D01*
X155908724Y-124210158D01*
X155893616Y-124141941D01*
X155917786Y-124076385D01*
X155946208Y-124048747D01*
X156089081Y-123948705D01*
X156256104Y-123781682D01*
X156391599Y-123588178D01*
X156491428Y-123374092D01*
X156491432Y-123374083D01*
X156531028Y-123226308D01*
X156567393Y-123166647D01*
X156630240Y-123136118D01*
X156699615Y-123144413D01*
X156738485Y-123170720D01*
X157314484Y-123746720D01*
X157314486Y-123746721D01*
X157314490Y-123746724D01*
X157451409Y-123825773D01*
X157451416Y-123825777D01*
X157604143Y-123866701D01*
X157604145Y-123866701D01*
X157769854Y-123866701D01*
X157769870Y-123866700D01*
X158031794Y-123866700D01*
X158098833Y-123886385D01*
X158144588Y-123939189D01*
X158154532Y-124008347D01*
X158154290Y-124009944D01*
X158153300Y-124016200D01*
X158153300Y-124016206D01*
X158153300Y-124638089D01*
X158169723Y-124752323D01*
X158169725Y-124752331D01*
X158210232Y-124890286D01*
X158218465Y-124908314D01*
X158258177Y-124995272D01*
X158258180Y-124995278D01*
X158335909Y-125116226D01*
X158335915Y-125116234D01*
X158411493Y-125203454D01*
X158411496Y-125203457D01*
X158520144Y-125297601D01*
X158520151Y-125297606D01*
X158520156Y-125297610D01*
X158590828Y-125343028D01*
X158617243Y-125360004D01*
X158617259Y-125360013D01*
X158748021Y-125419730D01*
X158748025Y-125419731D01*
X158748033Y-125419735D01*
X158858776Y-125452253D01*
X158858777Y-125452253D01*
X158858780Y-125452254D01*
X158901215Y-125458354D01*
X159001091Y-125472715D01*
X159001092Y-125472715D01*
X159116504Y-125472715D01*
X159116508Y-125472715D01*
X159116511Y-125472714D01*
X159120921Y-125472399D01*
X159120929Y-125472522D01*
X159132434Y-125471700D01*
X159485166Y-125471700D01*
X159496670Y-125472522D01*
X159496679Y-125472399D01*
X159501088Y-125472714D01*
X159501092Y-125472715D01*
X159501096Y-125472715D01*
X159616508Y-125472715D01*
X159616509Y-125472715D01*
X159730743Y-125456290D01*
X159758819Y-125452254D01*
X159758820Y-125452253D01*
X159758824Y-125452253D01*
X159869567Y-125419735D01*
X159869578Y-125419730D01*
X160000340Y-125360013D01*
X160000344Y-125360010D01*
X160000352Y-125360007D01*
X160097444Y-125297610D01*
X160098164Y-125296985D01*
X160098453Y-125296853D01*
X160100993Y-125294953D01*
X160101406Y-125295505D01*
X160161720Y-125267962D01*
X160179366Y-125266700D01*
X160363796Y-125266700D01*
X160454840Y-125248589D01*
X160499128Y-125239780D01*
X160586820Y-125203457D01*
X160626607Y-125186977D01*
X160626608Y-125186976D01*
X160626611Y-125186975D01*
X160741343Y-125110314D01*
X162291314Y-123560343D01*
X162367975Y-123445611D01*
X162382294Y-123411043D01*
X162420778Y-123318132D01*
X162420780Y-123318128D01*
X162438735Y-123227863D01*
X162447700Y-123182796D01*
X162447700Y-121335794D01*
X162984757Y-121335794D01*
X162984757Y-121335805D01*
X163005290Y-121583612D01*
X163005292Y-121583624D01*
X163066336Y-121824681D01*
X163166226Y-122052406D01*
X163302233Y-122260582D01*
X163302236Y-122260585D01*
X163470656Y-122443538D01*
X163666891Y-122596274D01*
X163885590Y-122714628D01*
X164120786Y-122795371D01*
X164366065Y-122836300D01*
X164614735Y-122836300D01*
X164860014Y-122795371D01*
X165095210Y-122714628D01*
X165313909Y-122596274D01*
X165510144Y-122443538D01*
X165678564Y-122260585D01*
X165814573Y-122052407D01*
X165914463Y-121824681D01*
X165975508Y-121583621D01*
X165979089Y-121540405D01*
X165996043Y-121335805D01*
X165996043Y-121335794D01*
X165975509Y-121087987D01*
X165975507Y-121087975D01*
X165914463Y-120846918D01*
X165814573Y-120619193D01*
X165678566Y-120411017D01*
X165622975Y-120350629D01*
X165510144Y-120228062D01*
X165313909Y-120075326D01*
X165313907Y-120075325D01*
X165313906Y-120075324D01*
X165095211Y-119956972D01*
X165095202Y-119956969D01*
X164860016Y-119876229D01*
X164614735Y-119835300D01*
X164366065Y-119835300D01*
X164120783Y-119876229D01*
X163885597Y-119956969D01*
X163885588Y-119956972D01*
X163666893Y-120075324D01*
X163470657Y-120228061D01*
X163302233Y-120411017D01*
X163166226Y-120619193D01*
X163066336Y-120846918D01*
X163005292Y-121087975D01*
X163005290Y-121087987D01*
X162984757Y-121335794D01*
X162447700Y-121335794D01*
X162447700Y-110344805D01*
X162437846Y-110295270D01*
X162433260Y-110272215D01*
X162433260Y-110272212D01*
X162420781Y-110209478D01*
X162420780Y-110209472D01*
X162367975Y-110081989D01*
X162291314Y-109967257D01*
X162291312Y-109967254D01*
X157469345Y-105145287D01*
X157354607Y-105068622D01*
X157227132Y-105015821D01*
X157227122Y-105015818D01*
X157091796Y-104988900D01*
X157091794Y-104988900D01*
X157091793Y-104988900D01*
X154435699Y-104988900D01*
X154368660Y-104969215D01*
X154322905Y-104916411D01*
X154311699Y-104864900D01*
X154311699Y-104857882D01*
X154311462Y-104856384D01*
X154296846Y-104764096D01*
X154239250Y-104651058D01*
X154239246Y-104651054D01*
X154239245Y-104651052D01*
X154149547Y-104561354D01*
X154149544Y-104561352D01*
X154149542Y-104561350D01*
X154072717Y-104522205D01*
X154036501Y-104503752D01*
X153942724Y-104488900D01*
X153915078Y-104488900D01*
X153848039Y-104469215D01*
X153802284Y-104416411D01*
X153792340Y-104347253D01*
X153821365Y-104283697D01*
X153836532Y-104270018D01*
X153836672Y-104268425D01*
X153157647Y-103589400D01*
X153163861Y-103589400D01*
X153265594Y-103562141D01*
X153356806Y-103509480D01*
X153431280Y-103435006D01*
X153483941Y-103343794D01*
X153511200Y-103242061D01*
X153511200Y-103235847D01*
X154190224Y-103914871D01*
X154241336Y-103841878D01*
X154337464Y-103635731D01*
X154337469Y-103635717D01*
X154396339Y-103416010D01*
X154396341Y-103415999D01*
X154416166Y-103189402D01*
X154416166Y-103189397D01*
X154396341Y-102962800D01*
X154396339Y-102962789D01*
X154337469Y-102743082D01*
X154337464Y-102743068D01*
X154241336Y-102536921D01*
X154241332Y-102536913D01*
X154190225Y-102463926D01*
X153511200Y-103142951D01*
X153511200Y-103136739D01*
X153483941Y-103035006D01*
X153431280Y-102943794D01*
X153356806Y-102869320D01*
X153265594Y-102816659D01*
X153163861Y-102789400D01*
X153157645Y-102789400D01*
X153836672Y-102110374D01*
X153763678Y-102059263D01*
X153557531Y-101963135D01*
X153557517Y-101963130D01*
X153337810Y-101904260D01*
X153337799Y-101904258D01*
X153111202Y-101884434D01*
X153111198Y-101884434D01*
X152884600Y-101904258D01*
X152884589Y-101904260D01*
X152664882Y-101963130D01*
X152664873Y-101963134D01*
X152458716Y-102059266D01*
X152458712Y-102059268D01*
X152385726Y-102110373D01*
X152385726Y-102110374D01*
X153064753Y-102789400D01*
X153058539Y-102789400D01*
X152956806Y-102816659D01*
X152865594Y-102869320D01*
X152791120Y-102943794D01*
X152738459Y-103035006D01*
X152711200Y-103136739D01*
X152711200Y-103142952D01*
X152032174Y-102463926D01*
X152032173Y-102463926D01*
X151981068Y-102536912D01*
X151981066Y-102536916D01*
X151884934Y-102743073D01*
X151884930Y-102743082D01*
X151826060Y-102962789D01*
X151826058Y-102962800D01*
X151806234Y-103189397D01*
X151806234Y-103189402D01*
X151826058Y-103415999D01*
X151826060Y-103416010D01*
X151884930Y-103635717D01*
X151884935Y-103635731D01*
X151981063Y-103841878D01*
X152032174Y-103914872D01*
X152711200Y-103235846D01*
X152711200Y-103242061D01*
X152738459Y-103343794D01*
X152791120Y-103435006D01*
X152865594Y-103509480D01*
X152956806Y-103562141D01*
X153058539Y-103589400D01*
X153064753Y-103589400D01*
X152385726Y-104268425D01*
X152386120Y-104272929D01*
X152422069Y-104317901D01*
X152429263Y-104387400D01*
X152397741Y-104449755D01*
X152337511Y-104485169D01*
X152307325Y-104488900D01*
X152279683Y-104488900D01*
X152200750Y-104501401D01*
X152185896Y-104503754D01*
X152072858Y-104561350D01*
X152072857Y-104561351D01*
X152072852Y-104561354D01*
X151983154Y-104651052D01*
X151983151Y-104651057D01*
X151983150Y-104651058D01*
X151975588Y-104665900D01*
X151925552Y-104764098D01*
X151910700Y-104857875D01*
X151910700Y-106520917D01*
X151921492Y-106589057D01*
X151925554Y-106614704D01*
X151983150Y-106727742D01*
X151983152Y-106727744D01*
X151983154Y-106727747D01*
X152072852Y-106817445D01*
X152072854Y-106817446D01*
X152072858Y-106817450D01*
X152142996Y-106853187D01*
X152193791Y-106901161D01*
X152210700Y-106963671D01*
X152210700Y-113151860D01*
X152245303Y-113325822D01*
X152245305Y-113325830D01*
X152279246Y-113407770D01*
X152279246Y-113407771D01*
X152313184Y-113489706D01*
X152313186Y-113489709D01*
X152313187Y-113489711D01*
X152334562Y-113521700D01*
X152362935Y-113564163D01*
X152411737Y-113637202D01*
X152411738Y-113637203D01*
X153607483Y-114832946D01*
X153640968Y-114894269D01*
X153640693Y-114948220D01*
X153626476Y-115010508D01*
X153607431Y-115264658D01*
X153607431Y-115264667D01*
X153626476Y-115518817D01*
X153680892Y-115757231D01*
X153683191Y-115767300D01*
X153776306Y-116004551D01*
X153903740Y-116225275D01*
X154062649Y-116424540D01*
X154079863Y-116440512D01*
X154098712Y-116458001D01*
X154134467Y-116518029D01*
X154132092Y-116587859D01*
X154092341Y-116645319D01*
X154027836Y-116672167D01*
X154014371Y-116672900D01*
X150118900Y-116672900D01*
X150051861Y-116653215D01*
X150006106Y-116600411D01*
X149994900Y-116548900D01*
X149994900Y-116440508D01*
X149994899Y-116440507D01*
X149992270Y-116417176D01*
X149982418Y-116329730D01*
X149980128Y-116309405D01*
X149980127Y-116309403D01*
X149980127Y-116309400D01*
X149921962Y-116143174D01*
X149921961Y-116143170D01*
X149828271Y-115994065D01*
X149828266Y-115994059D01*
X149703740Y-115869533D01*
X149703734Y-115869528D01*
X149554629Y-115775838D01*
X149388394Y-115717671D01*
X149371065Y-115715719D01*
X149306652Y-115688652D01*
X149267097Y-115631057D01*
X149266168Y-115600719D01*
X148344400Y-114678952D01*
X147424223Y-115599126D01*
X147425878Y-115614516D01*
X147394603Y-115676995D01*
X147334514Y-115712647D01*
X147317734Y-115715719D01*
X147300405Y-115717671D01*
X147134170Y-115775838D01*
X146985065Y-115869528D01*
X146985059Y-115869533D01*
X146860533Y-115994059D01*
X146860528Y-115994065D01*
X146766838Y-116143170D01*
X146708671Y-116309405D01*
X146693900Y-116440507D01*
X146693900Y-117290292D01*
X146708671Y-117421394D01*
X146766838Y-117587629D01*
X146860528Y-117736734D01*
X146860533Y-117736740D01*
X146904212Y-117780419D01*
X146937697Y-117841742D01*
X146932713Y-117911434D01*
X146890841Y-117967367D01*
X146825377Y-117991784D01*
X146816531Y-117992100D01*
X143149698Y-117992100D01*
X143082659Y-117972415D01*
X143062017Y-117955781D01*
X142775219Y-117668983D01*
X142741734Y-117607660D01*
X142738900Y-117581302D01*
X142738900Y-116962297D01*
X142758585Y-116895258D01*
X142775219Y-116874616D01*
X145158919Y-114490916D01*
X145782040Y-113867795D01*
X146594400Y-113867795D01*
X146594400Y-114783005D01*
X146594401Y-114783009D01*
X146597317Y-114826032D01*
X146597317Y-114826034D01*
X146643565Y-115012002D01*
X146728707Y-115183675D01*
X146848765Y-115333033D01*
X146848766Y-115333034D01*
X146923300Y-115392947D01*
X146923301Y-115392947D01*
X147990848Y-114325400D01*
X147990848Y-114325399D01*
X148697951Y-114325399D01*
X149765499Y-115392947D01*
X149840033Y-115333034D01*
X149840034Y-115333033D01*
X149960092Y-115183675D01*
X150045234Y-115012002D01*
X150091481Y-114826040D01*
X150094399Y-114783004D01*
X150094399Y-113867794D01*
X150094398Y-113867790D01*
X150091482Y-113824767D01*
X150091482Y-113824765D01*
X150045234Y-113638797D01*
X149960092Y-113467124D01*
X149840035Y-113317768D01*
X149765497Y-113257852D01*
X148697951Y-114325399D01*
X147990848Y-114325399D01*
X146923300Y-113257851D01*
X146848764Y-113317767D01*
X146728707Y-113467124D01*
X146643565Y-113638797D01*
X146597318Y-113824759D01*
X146594400Y-113867795D01*
X145782040Y-113867795D01*
X145972561Y-113677274D01*
X146843598Y-112806236D01*
X146904919Y-112772753D01*
X146974611Y-112777737D01*
X146997246Y-112788924D01*
X147134174Y-112874962D01*
X147300400Y-112933127D01*
X147317729Y-112935079D01*
X147382143Y-112962145D01*
X147421699Y-113019739D01*
X147422628Y-113050077D01*
X148344399Y-113971847D01*
X149264575Y-113051672D01*
X149262921Y-113036283D01*
X149294196Y-112973804D01*
X149354285Y-112938152D01*
X149371063Y-112935080D01*
X149388400Y-112933127D01*
X149554626Y-112874962D01*
X149554625Y-112874962D01*
X149554629Y-112874961D01*
X149703734Y-112781271D01*
X149703735Y-112781270D01*
X149703740Y-112781267D01*
X149828267Y-112656740D01*
X149828271Y-112656734D01*
X149921961Y-112507629D01*
X149924478Y-112500433D01*
X149980127Y-112341400D01*
X149994900Y-112210288D01*
X149994900Y-111360512D01*
X149987219Y-111292341D01*
X149980128Y-111229405D01*
X149980127Y-111229403D01*
X149980127Y-111229400D01*
X149930925Y-111088788D01*
X149921961Y-111063170D01*
X149828271Y-110914065D01*
X149828266Y-110914059D01*
X149703740Y-110789533D01*
X149703734Y-110789528D01*
X149554629Y-110695838D01*
X149441962Y-110656415D01*
X149388400Y-110637673D01*
X149388397Y-110637672D01*
X149388390Y-110637670D01*
X149382337Y-110636288D01*
X149321362Y-110602173D01*
X149288511Y-110540509D01*
X149294213Y-110470872D01*
X149336658Y-110415373D01*
X149382346Y-110394510D01*
X149388394Y-110393129D01*
X149388395Y-110393128D01*
X149388400Y-110393128D01*
X149554626Y-110334963D01*
X149554625Y-110334963D01*
X149554629Y-110334962D01*
X149703734Y-110241272D01*
X149703735Y-110241271D01*
X149703740Y-110241268D01*
X149828267Y-110116741D01*
X149841435Y-110095785D01*
X149921961Y-109967630D01*
X149951089Y-109884386D01*
X149980127Y-109801401D01*
X149994900Y-109670289D01*
X149994900Y-108820513D01*
X149980127Y-108689401D01*
X149921962Y-108523175D01*
X149921961Y-108523171D01*
X149828271Y-108374066D01*
X149828266Y-108374060D01*
X149703740Y-108249534D01*
X149703734Y-108249529D01*
X149554629Y-108155839D01*
X149454890Y-108120940D01*
X149388400Y-108097674D01*
X149388396Y-108097673D01*
X149382336Y-108096290D01*
X149321359Y-108062177D01*
X149288505Y-108000514D01*
X149294204Y-107930877D01*
X149336647Y-107875376D01*
X149382336Y-107854510D01*
X149388387Y-107853127D01*
X149388400Y-107853126D01*
X149554626Y-107794961D01*
X149554625Y-107794961D01*
X149554629Y-107794960D01*
X149703734Y-107701270D01*
X149703735Y-107701269D01*
X149703740Y-107701266D01*
X149828267Y-107576739D01*
X149863471Y-107520713D01*
X149921961Y-107427628D01*
X149926720Y-107414027D01*
X149980127Y-107261399D01*
X149994900Y-107130287D01*
X149994900Y-106280511D01*
X149980127Y-106149399D01*
X149921962Y-105983173D01*
X149921961Y-105983169D01*
X149828271Y-105834064D01*
X149828266Y-105834058D01*
X149703740Y-105709532D01*
X149703734Y-105709527D01*
X149554629Y-105615837D01*
X149435211Y-105574052D01*
X149388400Y-105557672D01*
X149388397Y-105557671D01*
X149388390Y-105557669D01*
X149382337Y-105556287D01*
X149321362Y-105522172D01*
X149288511Y-105460508D01*
X149294213Y-105390871D01*
X149336658Y-105335372D01*
X149382346Y-105314509D01*
X149388394Y-105313128D01*
X149388395Y-105313127D01*
X149388400Y-105313127D01*
X149554626Y-105254962D01*
X149554625Y-105254962D01*
X149554629Y-105254961D01*
X149703734Y-105161271D01*
X149703735Y-105161270D01*
X149703740Y-105161267D01*
X149828267Y-105036740D01*
X149828271Y-105036734D01*
X149921961Y-104887629D01*
X149949787Y-104808106D01*
X149980127Y-104721400D01*
X149982445Y-104700832D01*
X149988053Y-104651052D01*
X149994900Y-104590288D01*
X149994900Y-103740512D01*
X149987513Y-103674956D01*
X149980128Y-103609405D01*
X149980127Y-103609403D01*
X149980127Y-103609400D01*
X149921962Y-103443174D01*
X149921961Y-103443170D01*
X149828271Y-103294065D01*
X149828266Y-103294059D01*
X149703740Y-103169533D01*
X149703734Y-103169528D01*
X149554629Y-103075838D01*
X149454890Y-103040939D01*
X149388400Y-103017673D01*
X149388396Y-103017672D01*
X149382340Y-103016290D01*
X149321364Y-102982178D01*
X149288509Y-102920515D01*
X149294207Y-102850878D01*
X149336650Y-102795376D01*
X149382340Y-102774510D01*
X149388387Y-102773128D01*
X149388400Y-102773127D01*
X149554626Y-102714962D01*
X149554625Y-102714962D01*
X149554629Y-102714961D01*
X149703734Y-102621271D01*
X149703735Y-102621270D01*
X149703740Y-102621267D01*
X149828267Y-102496740D01*
X149857527Y-102450174D01*
X149921961Y-102347629D01*
X149941588Y-102291537D01*
X149980127Y-102181400D01*
X149982090Y-102163984D01*
X149993888Y-102059266D01*
X149994900Y-102050288D01*
X149994900Y-101276375D01*
X150014585Y-101209336D01*
X150067389Y-101163581D01*
X150118720Y-101152376D01*
X172822152Y-101120534D01*
X172889216Y-101140124D01*
X172935045Y-101192863D01*
X172944935Y-101226029D01*
X173026413Y-101765915D01*
X173027028Y-101770591D01*
X173132468Y-102710232D01*
X173132904Y-102714929D01*
X173202525Y-103657854D01*
X173202783Y-103662564D01*
X173236495Y-104607472D01*
X173236574Y-104612188D01*
X173234322Y-105557717D01*
X173234221Y-105562433D01*
X173196011Y-106507196D01*
X173195730Y-106511905D01*
X173121618Y-107454492D01*
X173121159Y-107459186D01*
X173011251Y-108398286D01*
X173010614Y-108402960D01*
X172865065Y-109337227D01*
X172864250Y-109341873D01*
X172683281Y-110269885D01*
X172682291Y-110274496D01*
X172466147Y-111195006D01*
X172464981Y-111199577D01*
X172213997Y-112111150D01*
X172212659Y-112115673D01*
X171927181Y-113017062D01*
X171925672Y-113021531D01*
X171606108Y-113911441D01*
X171604429Y-113915849D01*
X171251266Y-114792923D01*
X171249425Y-114797255D01*
X171211761Y-114881406D01*
X170961019Y-115441620D01*
X170915665Y-115494768D01*
X170848776Y-115514958D01*
X170838971Y-115514644D01*
X170661286Y-115501896D01*
X170568123Y-115495212D01*
X170224977Y-115507967D01*
X170224965Y-115507968D01*
X169885235Y-115557898D01*
X169552906Y-115644421D01*
X169552898Y-115644424D01*
X169231947Y-115766504D01*
X168926137Y-115922710D01*
X168926126Y-115922716D01*
X168639099Y-116111185D01*
X168639086Y-116111194D01*
X168639081Y-116111198D01*
X168619778Y-116127123D01*
X168374189Y-116329732D01*
X168134590Y-116575725D01*
X168134583Y-116575733D01*
X167923109Y-116846281D01*
X167923107Y-116846284D01*
X167742252Y-117138189D01*
X167594155Y-117448005D01*
X167538193Y-117607660D01*
X167488045Y-117750731D01*
X167480561Y-117772081D01*
X167402821Y-118106567D01*
X167361855Y-118447496D01*
X167360876Y-118538009D01*
X167358142Y-118790885D01*
X167391728Y-119132637D01*
X167462215Y-119468724D01*
X167462216Y-119468728D01*
X167462217Y-119468731D01*
X167462218Y-119468736D01*
X167568766Y-119795158D01*
X167568775Y-119795181D01*
X167710133Y-120108113D01*
X167710144Y-120108136D01*
X167848881Y-120343273D01*
X167865995Y-120411014D01*
X167843768Y-120477254D01*
X167838291Y-120484518D01*
X167392262Y-121033011D01*
X167389194Y-121036640D01*
X166765261Y-121746517D01*
X166762056Y-121750025D01*
X166111390Y-122435472D01*
X166108054Y-122438854D01*
X165431610Y-123098871D01*
X165428146Y-123102124D01*
X164726906Y-123735747D01*
X164723321Y-123738864D01*
X163998301Y-124345177D01*
X163994609Y-124348146D01*
X163862153Y-124450554D01*
X163246927Y-124926213D01*
X163243113Y-124929046D01*
X162473817Y-125478057D01*
X162469898Y-125480742D01*
X161680150Y-125999871D01*
X161676130Y-126002405D01*
X160867055Y-126490907D01*
X160862942Y-126493284D01*
X160035753Y-126950431D01*
X160031551Y-126952649D01*
X159187471Y-127377762D01*
X159183187Y-127379818D01*
X158323428Y-127772290D01*
X158319069Y-127774180D01*
X157444895Y-128133430D01*
X157440467Y-128135151D01*
X156601519Y-128442914D01*
X156558813Y-128450500D01*
X140264916Y-128450500D01*
X140222650Y-128443075D01*
X139424847Y-128153821D01*
X139420610Y-128152196D01*
X139374222Y-128133430D01*
X138586522Y-127814767D01*
X138582350Y-127812990D01*
X137761130Y-127445253D01*
X137757023Y-127443322D01*
X136949859Y-127045808D01*
X136945860Y-127043748D01*
X136153670Y-126616907D01*
X136149766Y-126614710D01*
X136130921Y-126603648D01*
X135596159Y-126289739D01*
X135373812Y-126159220D01*
X135369942Y-126156852D01*
X134611142Y-125673256D01*
X134607360Y-125670747D01*
X134157041Y-125360013D01*
X133866804Y-125159740D01*
X133863118Y-125157096D01*
X133141746Y-124619327D01*
X133138158Y-124616549D01*
X132436931Y-124052735D01*
X132433447Y-124049827D01*
X132244748Y-123886385D01*
X131753310Y-123460726D01*
X131749978Y-123457731D01*
X131091841Y-122844128D01*
X131088612Y-122841006D01*
X131078785Y-122831147D01*
X131045399Y-122769775D01*
X131050494Y-122700091D01*
X131092453Y-122644224D01*
X131157956Y-122619910D01*
X131225623Y-122634552D01*
X131373590Y-122714628D01*
X131608786Y-122795371D01*
X131854065Y-122836300D01*
X132102735Y-122836300D01*
X132348014Y-122795371D01*
X132583210Y-122714628D01*
X132801909Y-122596274D01*
X132998144Y-122443538D01*
X133166564Y-122260585D01*
X133302573Y-122052407D01*
X133402463Y-121824681D01*
X133463508Y-121583621D01*
X133467089Y-121540405D01*
X133484043Y-121335805D01*
X133484043Y-121335794D01*
X133463509Y-121087987D01*
X133463507Y-121087975D01*
X133402463Y-120846918D01*
X133302573Y-120619193D01*
X133166566Y-120411017D01*
X133110975Y-120350629D01*
X132998144Y-120228062D01*
X132801909Y-120075326D01*
X132801907Y-120075325D01*
X132801906Y-120075324D01*
X132583211Y-119956972D01*
X132583202Y-119956969D01*
X132348016Y-119876229D01*
X132102735Y-119835300D01*
X131854065Y-119835300D01*
X131608783Y-119876229D01*
X131373597Y-119956969D01*
X131373588Y-119956972D01*
X131154893Y-120075324D01*
X130958657Y-120228061D01*
X130790233Y-120411017D01*
X130654226Y-120619193D01*
X130554336Y-120846918D01*
X130493292Y-121087975D01*
X130493290Y-121087987D01*
X130472757Y-121335794D01*
X130472757Y-121335805D01*
X130493290Y-121583612D01*
X130493292Y-121583624D01*
X130554336Y-121824681D01*
X130654225Y-122052403D01*
X130654227Y-122052407D01*
X130664130Y-122067564D01*
X130684317Y-122134454D01*
X130665137Y-122201639D01*
X130612679Y-122247790D01*
X130543597Y-122258253D01*
X130479825Y-122229707D01*
X130472510Y-122222937D01*
X130453352Y-122203718D01*
X130450231Y-122200470D01*
X129949635Y-121660100D01*
X129838747Y-121540402D01*
X129835727Y-121537020D01*
X129248800Y-120855014D01*
X129245904Y-120851521D01*
X128905241Y-120425057D01*
X128825263Y-120324936D01*
X128798803Y-120260272D01*
X128811503Y-120191566D01*
X128812525Y-120189591D01*
X128947161Y-119934920D01*
X128947161Y-119934917D01*
X128947166Y-119934910D01*
X129074110Y-119615336D01*
X129105540Y-119501735D01*
X129165800Y-119283935D01*
X129165804Y-119283916D01*
X129165872Y-119283498D01*
X129221171Y-118944546D01*
X129235344Y-118680006D01*
X129239567Y-118601184D01*
X129239567Y-118601181D01*
X129239567Y-118601175D01*
X129220777Y-118257825D01*
X129200603Y-118135058D01*
X129209156Y-118065716D01*
X129253842Y-118012004D01*
X129320473Y-117990978D01*
X129363914Y-117997910D01*
X129407400Y-118013127D01*
X129407403Y-118013127D01*
X129407405Y-118013128D01*
X129472956Y-118020513D01*
X129538507Y-118027899D01*
X129538508Y-118027900D01*
X129538512Y-118027900D01*
X131150292Y-118027900D01*
X131150292Y-118027899D01*
X131232758Y-118018607D01*
X131281394Y-118013128D01*
X131281395Y-118013127D01*
X131281400Y-118013127D01*
X131440433Y-117957478D01*
X131447629Y-117954961D01*
X131596734Y-117861271D01*
X131596735Y-117861270D01*
X131596740Y-117861267D01*
X131721267Y-117736740D01*
X131786663Y-117632664D01*
X131814961Y-117587629D01*
X131860454Y-117457616D01*
X131873127Y-117421400D01*
X131887900Y-117290288D01*
X131887900Y-116440512D01*
X131875418Y-116329730D01*
X131873128Y-116309405D01*
X131873127Y-116309403D01*
X131873127Y-116309400D01*
X131814962Y-116143174D01*
X131814961Y-116143170D01*
X131721271Y-115994065D01*
X131721266Y-115994059D01*
X131596740Y-115869533D01*
X131596734Y-115869528D01*
X131447629Y-115775838D01*
X131336296Y-115736882D01*
X131281400Y-115717673D01*
X131281396Y-115717672D01*
X131275340Y-115716290D01*
X131214364Y-115682178D01*
X131181509Y-115620515D01*
X131187207Y-115550878D01*
X131229650Y-115495376D01*
X131275340Y-115474510D01*
X131281387Y-115473128D01*
X131281400Y-115473127D01*
X131447626Y-115414962D01*
X131447625Y-115414962D01*
X131447629Y-115414961D01*
X131596734Y-115321271D01*
X131596735Y-115321270D01*
X131596740Y-115321267D01*
X131721267Y-115196740D01*
X131721271Y-115196734D01*
X131814961Y-115047629D01*
X131827951Y-115010506D01*
X131873127Y-114881400D01*
X131887900Y-114750288D01*
X131887900Y-113900512D01*
X131880513Y-113834956D01*
X131873128Y-113769405D01*
X131873127Y-113769403D01*
X131873127Y-113769400D01*
X131826868Y-113637200D01*
X131814961Y-113603170D01*
X131721271Y-113454065D01*
X131721266Y-113454059D01*
X131596740Y-113329533D01*
X131596734Y-113329528D01*
X131447629Y-113235838D01*
X131347890Y-113200939D01*
X131281400Y-113177673D01*
X131281396Y-113177672D01*
X131275340Y-113176290D01*
X131214364Y-113142178D01*
X131181509Y-113080515D01*
X131187207Y-113010878D01*
X131229650Y-112955376D01*
X131275340Y-112934510D01*
X131281387Y-112933128D01*
X131281400Y-112933127D01*
X131447626Y-112874962D01*
X131447625Y-112874962D01*
X131447629Y-112874961D01*
X131596734Y-112781271D01*
X131596735Y-112781270D01*
X131596740Y-112781267D01*
X131674788Y-112703219D01*
X131736111Y-112669734D01*
X131762469Y-112666900D01*
X133339690Y-112666900D01*
X133339692Y-112666900D01*
X133466986Y-112632792D01*
X133581114Y-112566900D01*
X133880324Y-112267688D01*
X133941644Y-112234206D01*
X133981885Y-112232152D01*
X134000114Y-112234206D01*
X134010399Y-112235365D01*
X134010400Y-112235365D01*
X134010403Y-112235365D01*
X134189649Y-112215169D01*
X134189652Y-112215168D01*
X134189655Y-112215168D01*
X134359922Y-112155589D01*
X134512662Y-112059616D01*
X134640216Y-111932062D01*
X134736189Y-111779322D01*
X134795768Y-111609055D01*
X134801309Y-111559876D01*
X134815965Y-111429803D01*
X134815965Y-111429796D01*
X134795769Y-111250550D01*
X134795768Y-111250545D01*
X134788369Y-111229400D01*
X134736189Y-111080278D01*
X134731811Y-111073311D01*
X134640215Y-110927537D01*
X134512662Y-110799984D01*
X134359923Y-110704011D01*
X134189654Y-110644431D01*
X134189649Y-110644430D01*
X134010404Y-110624235D01*
X134010396Y-110624235D01*
X133831150Y-110644430D01*
X133831145Y-110644431D01*
X133660876Y-110704011D01*
X133508137Y-110799984D01*
X133380584Y-110927537D01*
X133284611Y-111080276D01*
X133225031Y-111250545D01*
X133225030Y-111250550D01*
X133204835Y-111429796D01*
X133204835Y-111429803D01*
X133208047Y-111458312D01*
X133195992Y-111527134D01*
X133172509Y-111559876D01*
X133102805Y-111629581D01*
X133041482Y-111663066D01*
X133015123Y-111665900D01*
X132011900Y-111665900D01*
X131944861Y-111646215D01*
X131899106Y-111593411D01*
X131887900Y-111541900D01*
X131887900Y-111360508D01*
X131887899Y-111360507D01*
X131881306Y-111301994D01*
X131880219Y-111292341D01*
X131873128Y-111229405D01*
X131873127Y-111229403D01*
X131873127Y-111229400D01*
X131823925Y-111088788D01*
X131814961Y-111063170D01*
X131721271Y-110914065D01*
X131721266Y-110914059D01*
X131596740Y-110789533D01*
X131596734Y-110789528D01*
X131447629Y-110695838D01*
X131334962Y-110656415D01*
X131281400Y-110637673D01*
X131281397Y-110637672D01*
X131281390Y-110637670D01*
X131275337Y-110636288D01*
X131214362Y-110602173D01*
X131181511Y-110540509D01*
X131187213Y-110470872D01*
X131229658Y-110415373D01*
X131275346Y-110394510D01*
X131281394Y-110393129D01*
X131281395Y-110393128D01*
X131281400Y-110393128D01*
X131447626Y-110334963D01*
X131447625Y-110334963D01*
X131447629Y-110334962D01*
X131596734Y-110241272D01*
X131596735Y-110241271D01*
X131596740Y-110241268D01*
X131649388Y-110188620D01*
X131710711Y-110155135D01*
X131737069Y-110152301D01*
X135555125Y-110152301D01*
X135622164Y-110171986D01*
X135642806Y-110188620D01*
X138655181Y-113200995D01*
X138688666Y-113262318D01*
X138691500Y-113288676D01*
X138691500Y-118417659D01*
X138671815Y-118484698D01*
X138655182Y-118505340D01*
X138562183Y-118598339D01*
X138466211Y-118751076D01*
X138406631Y-118921345D01*
X138406630Y-118921350D01*
X138386435Y-119100596D01*
X138386435Y-119100603D01*
X138406630Y-119279849D01*
X138406631Y-119279854D01*
X138466211Y-119450123D01*
X138562184Y-119602862D01*
X138632641Y-119673319D01*
X138666126Y-119734642D01*
X138661142Y-119804334D01*
X138632641Y-119848681D01*
X138562184Y-119919137D01*
X138466211Y-120071876D01*
X138406631Y-120242145D01*
X138406630Y-120242150D01*
X138386435Y-120421396D01*
X138386435Y-120421403D01*
X138406630Y-120600649D01*
X138406631Y-120600654D01*
X138466211Y-120770923D01*
X138528843Y-120870600D01*
X138562184Y-120923662D01*
X138689738Y-121051216D01*
X138721207Y-121070989D01*
X138816412Y-121130811D01*
X138842478Y-121147189D01*
X139012745Y-121206768D01*
X139012750Y-121206769D01*
X139191996Y-121226965D01*
X139192000Y-121226965D01*
X139192004Y-121226965D01*
X139371249Y-121206769D01*
X139371252Y-121206768D01*
X139371255Y-121206768D01*
X139541522Y-121147189D01*
X139694262Y-121051216D01*
X139821816Y-120923662D01*
X139917789Y-120770922D01*
X139977368Y-120600655D01*
X139985955Y-120524449D01*
X139997565Y-120421402D01*
X139997565Y-120421399D01*
X139996350Y-120410615D01*
X139994352Y-120392886D01*
X140006406Y-120324065D01*
X140029888Y-120291324D01*
X140506900Y-119814314D01*
X140572792Y-119700186D01*
X140606900Y-119572892D01*
X140606900Y-119441107D01*
X140606900Y-112354508D01*
X140572792Y-112227214D01*
X140506900Y-112113086D01*
X140413714Y-112019900D01*
X135105113Y-106711299D01*
X135006281Y-106654238D01*
X134990986Y-106645407D01*
X134927338Y-106628353D01*
X134863691Y-106611299D01*
X134863690Y-106611299D01*
X132011900Y-106611299D01*
X131944861Y-106591614D01*
X131899106Y-106538810D01*
X131887900Y-106487299D01*
X131887900Y-106280507D01*
X131887899Y-106280506D01*
X131873128Y-106149404D01*
X131873127Y-106149402D01*
X131873127Y-106149399D01*
X131814962Y-105983173D01*
X131814961Y-105983169D01*
X131721271Y-105834064D01*
X131721266Y-105834058D01*
X131596740Y-105709532D01*
X131596734Y-105709527D01*
X131447629Y-105615837D01*
X131328211Y-105574052D01*
X131281400Y-105557672D01*
X131281397Y-105557671D01*
X131281390Y-105557669D01*
X131275337Y-105556287D01*
X131214362Y-105522172D01*
X131181511Y-105460508D01*
X131187213Y-105390871D01*
X131229658Y-105335372D01*
X131275346Y-105314509D01*
X131281394Y-105313128D01*
X131281395Y-105313127D01*
X131281400Y-105313127D01*
X131447626Y-105254962D01*
X131447625Y-105254962D01*
X131447629Y-105254961D01*
X131596734Y-105161271D01*
X131596735Y-105161270D01*
X131596740Y-105161267D01*
X131721267Y-105036740D01*
X131721271Y-105036734D01*
X131814961Y-104887629D01*
X131842787Y-104808106D01*
X131873127Y-104721400D01*
X131875445Y-104700832D01*
X131881053Y-104651052D01*
X131887900Y-104590288D01*
X131887900Y-103740512D01*
X131880513Y-103674956D01*
X131873128Y-103609405D01*
X131873127Y-103609403D01*
X131873127Y-103609400D01*
X131814962Y-103443174D01*
X131814961Y-103443170D01*
X131721271Y-103294065D01*
X131721266Y-103294059D01*
X131596740Y-103169533D01*
X131596734Y-103169528D01*
X131447629Y-103075838D01*
X131347890Y-103040939D01*
X131281400Y-103017673D01*
X131281396Y-103017672D01*
X131275340Y-103016290D01*
X131214364Y-102982178D01*
X131181509Y-102920515D01*
X131187207Y-102850878D01*
X131229650Y-102795376D01*
X131275340Y-102774510D01*
X131281387Y-102773128D01*
X131281400Y-102773127D01*
X131447626Y-102714962D01*
X131447625Y-102714962D01*
X131447629Y-102714961D01*
X131596734Y-102621271D01*
X131596735Y-102621270D01*
X131596740Y-102621267D01*
X131721267Y-102496740D01*
X131750527Y-102450174D01*
X131814961Y-102347629D01*
X131834588Y-102291537D01*
X131873127Y-102181400D01*
X131875090Y-102163984D01*
X131886888Y-102059266D01*
X131887900Y-102050288D01*
X131887900Y-101200512D01*
X131880513Y-101134956D01*
X131873128Y-101069405D01*
X131873127Y-101069403D01*
X131873127Y-101069400D01*
X131827076Y-100937794D01*
X131814961Y-100903170D01*
X131721271Y-100754065D01*
X131721266Y-100754059D01*
X131596740Y-100629533D01*
X131596734Y-100629528D01*
X131447629Y-100535838D01*
X131347890Y-100500939D01*
X131281400Y-100477673D01*
X131281396Y-100477672D01*
X131275340Y-100476290D01*
X131214364Y-100442178D01*
X131181509Y-100380515D01*
X131187207Y-100310878D01*
X131229650Y-100255376D01*
X131275340Y-100234510D01*
X131281387Y-100233128D01*
X131281400Y-100233127D01*
X131294915Y-100228398D01*
X133662035Y-100228398D01*
X133662035Y-100228401D01*
X133663876Y-100244744D01*
X133665568Y-100259760D01*
X133666320Y-100266429D01*
X133667100Y-100280314D01*
X133667100Y-100307244D01*
X133674888Y-100346403D01*
X133676490Y-100356703D01*
X133681421Y-100400462D01*
X133682232Y-100407652D01*
X133682233Y-100407660D01*
X133690576Y-100431504D01*
X133695150Y-100448260D01*
X133697862Y-100461896D01*
X133718109Y-100510777D01*
X133720586Y-100517267D01*
X133724347Y-100528016D01*
X133741812Y-100577924D01*
X133748309Y-100588265D01*
X133757868Y-100606765D01*
X133758203Y-100607573D01*
X133758205Y-100607579D01*
X133794823Y-100662382D01*
X133796714Y-100665300D01*
X133837780Y-100730657D01*
X133837782Y-100730660D01*
X133837784Y-100730662D01*
X133965338Y-100858216D01*
X134030696Y-100899283D01*
X134030731Y-100899305D01*
X134033640Y-100901190D01*
X134088421Y-100937794D01*
X134089206Y-100938119D01*
X134107734Y-100947689D01*
X134118078Y-100954189D01*
X134178775Y-100975428D01*
X134185207Y-100977884D01*
X134213621Y-100989653D01*
X134234097Y-100998135D01*
X134234098Y-100998135D01*
X134234103Y-100998137D01*
X134247739Y-101000849D01*
X134264498Y-101005423D01*
X134288345Y-101013768D01*
X134339314Y-101019510D01*
X134349592Y-101021109D01*
X134376740Y-101026509D01*
X134388757Y-101028900D01*
X134388758Y-101028900D01*
X134415685Y-101028900D01*
X134429569Y-101029680D01*
X134467598Y-101033965D01*
X134467600Y-101033965D01*
X134467602Y-101033965D01*
X134505631Y-101029680D01*
X134519515Y-101028900D01*
X134546441Y-101028900D01*
X134546442Y-101028900D01*
X134585617Y-101021107D01*
X134595883Y-101019510D01*
X134646855Y-101013768D01*
X134670700Y-101005423D01*
X134687462Y-101000848D01*
X134701097Y-100998137D01*
X134749989Y-100977884D01*
X134756437Y-100975423D01*
X134817122Y-100954189D01*
X134827468Y-100947687D01*
X134845990Y-100938120D01*
X134846779Y-100937794D01*
X134901587Y-100901171D01*
X134904425Y-100899331D01*
X134969862Y-100858216D01*
X135097416Y-100730662D01*
X135138531Y-100665225D01*
X135140377Y-100662379D01*
X135176994Y-100607579D01*
X135177320Y-100606790D01*
X135186887Y-100588268D01*
X135193389Y-100577922D01*
X135214623Y-100517237D01*
X135217090Y-100510777D01*
X135237337Y-100461897D01*
X135240049Y-100448260D01*
X135244623Y-100431500D01*
X135252968Y-100407655D01*
X135258710Y-100356683D01*
X135260307Y-100346417D01*
X135268100Y-100307242D01*
X135268100Y-100280314D01*
X135268880Y-100266429D01*
X135269632Y-100259760D01*
X135271323Y-100244744D01*
X135273165Y-100228401D01*
X135273165Y-100228398D01*
X135268880Y-100190369D01*
X135268100Y-100176485D01*
X135268100Y-95251940D01*
X135287785Y-95184901D01*
X135304419Y-95164259D01*
X138780059Y-91688619D01*
X138841382Y-91655134D01*
X138867740Y-91652300D01*
X140544844Y-91652300D01*
X140544845Y-91652299D01*
X140699497Y-91621537D01*
X140845179Y-91561194D01*
X140976289Y-91473589D01*
X142035086Y-90414790D01*
X142035089Y-90414789D01*
X142146589Y-90303289D01*
X142234194Y-90172179D01*
X142294537Y-90026497D01*
X142295046Y-90023938D01*
X142295048Y-90023938D01*
X142295048Y-90023926D01*
X142310058Y-89948468D01*
X142342443Y-89886560D01*
X142403159Y-89851986D01*
X142442897Y-89849172D01*
X142498210Y-89854198D01*
X142498226Y-89854199D01*
X142504799Y-89854198D01*
X142504800Y-89854198D01*
X142504800Y-87654200D01*
X143004800Y-87654200D01*
X143004800Y-88504200D01*
X143144800Y-88504200D01*
X143163090Y-88485909D01*
X143164485Y-88481161D01*
X143217289Y-88435406D01*
X143268800Y-88424200D01*
X144024800Y-88424200D01*
X144024800Y-88924200D01*
X143784800Y-88924200D01*
X143766509Y-88942490D01*
X143765115Y-88947239D01*
X143712311Y-88992994D01*
X143660800Y-89004200D01*
X143004800Y-89004200D01*
X143004800Y-89854199D01*
X143011381Y-89854199D01*
X143081902Y-89847791D01*
X143081907Y-89847790D01*
X143244196Y-89797218D01*
X143389672Y-89709275D01*
X143394621Y-89704326D01*
X143455941Y-89670835D01*
X143525633Y-89675813D01*
X143569992Y-89704318D01*
X143655460Y-89789786D01*
X143655464Y-89789789D01*
X143827431Y-89904694D01*
X143827441Y-89904699D01*
X144018523Y-89983848D01*
X144018525Y-89983849D01*
X144074800Y-89995042D01*
X144074800Y-89141188D01*
X144084740Y-89158405D01*
X144140595Y-89214260D01*
X144209004Y-89253756D01*
X144285304Y-89274200D01*
X144364296Y-89274200D01*
X144440596Y-89253756D01*
X144509005Y-89214260D01*
X144564860Y-89158405D01*
X144574800Y-89141188D01*
X144574800Y-89995042D01*
X144631074Y-89983849D01*
X144631076Y-89983848D01*
X144822158Y-89904699D01*
X144822168Y-89904694D01*
X144994135Y-89789789D01*
X144994139Y-89789786D01*
X145140386Y-89643539D01*
X145140389Y-89643535D01*
X145255294Y-89471568D01*
X145255299Y-89471558D01*
X145334449Y-89280474D01*
X145334451Y-89280466D01*
X145374799Y-89077620D01*
X145374800Y-89077617D01*
X145374800Y-88924200D01*
X144624800Y-88924200D01*
X144624800Y-88424200D01*
X145374800Y-88424200D01*
X145374800Y-88270783D01*
X145374799Y-88270779D01*
X145334451Y-88067933D01*
X145334449Y-88067925D01*
X145255299Y-87876841D01*
X145255294Y-87876831D01*
X145140389Y-87704864D01*
X145140386Y-87704860D01*
X144994139Y-87558613D01*
X144994135Y-87558610D01*
X144822168Y-87443705D01*
X144822158Y-87443700D01*
X144631072Y-87364549D01*
X144631067Y-87364547D01*
X144574800Y-87353355D01*
X144574800Y-88207211D01*
X144564860Y-88189995D01*
X144509005Y-88134140D01*
X144440596Y-88094644D01*
X144364296Y-88074200D01*
X144285304Y-88074200D01*
X144209004Y-88094644D01*
X144140595Y-88134140D01*
X144084740Y-88189995D01*
X144074800Y-88207211D01*
X144074800Y-87353356D01*
X144074799Y-87353355D01*
X144018532Y-87364547D01*
X144018527Y-87364549D01*
X143827441Y-87443700D01*
X143827431Y-87443705D01*
X143655464Y-87558610D01*
X143655460Y-87558613D01*
X143509213Y-87704860D01*
X143509209Y-87704865D01*
X143495791Y-87724946D01*
X143442177Y-87769750D01*
X143372852Y-87778455D01*
X143328541Y-87762169D01*
X143244195Y-87711180D01*
X143244196Y-87711180D01*
X143081905Y-87660609D01*
X143081906Y-87660609D01*
X143011372Y-87654200D01*
X143004800Y-87654200D01*
X142504800Y-87654200D01*
X142504799Y-87654199D01*
X142498236Y-87654200D01*
X142498217Y-87654201D01*
X142427697Y-87660608D01*
X142427692Y-87660609D01*
X142265402Y-87711181D01*
X142119925Y-87799124D01*
X142115375Y-87802690D01*
X142050463Y-87828538D01*
X141991451Y-87819639D01*
X141868954Y-87768900D01*
X141868949Y-87768898D01*
X141753501Y-87753700D01*
X141296096Y-87753700D01*
X141180657Y-87768896D01*
X141180648Y-87768899D01*
X141053263Y-87821664D01*
X140983793Y-87829133D01*
X140958358Y-87821664D01*
X140830039Y-87768513D01*
X140830037Y-87768512D01*
X140830036Y-87768512D01*
X140815971Y-87766660D01*
X140717527Y-87753699D01*
X140717520Y-87753699D01*
X140292080Y-87753699D01*
X140292072Y-87753699D01*
X140179564Y-87768512D01*
X140179563Y-87768512D01*
X140052253Y-87821246D01*
X139982783Y-87828715D01*
X139957347Y-87821246D01*
X139908766Y-87801123D01*
X139830036Y-87768512D01*
X139815971Y-87766660D01*
X139717527Y-87753699D01*
X139717520Y-87753699D01*
X139292080Y-87753699D01*
X139292072Y-87753699D01*
X139179564Y-87768512D01*
X139179560Y-87768513D01*
X139051242Y-87821664D01*
X138981773Y-87829133D01*
X138956337Y-87821664D01*
X138828951Y-87768899D01*
X138828949Y-87768898D01*
X138713501Y-87753700D01*
X138256096Y-87753700D01*
X138140657Y-87768896D01*
X138140645Y-87768900D01*
X138018149Y-87819639D01*
X137948680Y-87827108D01*
X137894231Y-87802694D01*
X137889680Y-87799129D01*
X137744195Y-87711180D01*
X137744196Y-87711180D01*
X137581905Y-87660609D01*
X137581906Y-87660609D01*
X137511372Y-87654200D01*
X137504800Y-87654200D01*
X137504800Y-89854199D01*
X137511381Y-89854199D01*
X137549080Y-89850774D01*
X137617626Y-89864312D01*
X137667971Y-89912759D01*
X137684300Y-89974265D01*
X137684300Y-90468860D01*
X137664615Y-90535899D01*
X137647981Y-90556541D01*
X133957311Y-94247211D01*
X133929088Y-94275434D01*
X133845809Y-94358712D01*
X133758209Y-94489814D01*
X133758202Y-94489827D01*
X133697864Y-94635498D01*
X133697861Y-94635510D01*
X133667100Y-94790153D01*
X133667100Y-100176485D01*
X133666320Y-100190369D01*
X133662035Y-100228398D01*
X131294915Y-100228398D01*
X131447626Y-100174962D01*
X131447625Y-100174962D01*
X131447629Y-100174961D01*
X131596734Y-100081271D01*
X131596735Y-100081270D01*
X131596740Y-100081267D01*
X131721267Y-99956740D01*
X131721271Y-99956734D01*
X131814961Y-99807629D01*
X131817478Y-99800433D01*
X131873127Y-99641400D01*
X131887900Y-99510288D01*
X131887900Y-98660512D01*
X131880181Y-98592003D01*
X131873128Y-98529405D01*
X131873127Y-98529403D01*
X131873127Y-98529400D01*
X131814962Y-98363174D01*
X131814961Y-98363170D01*
X131721271Y-98214065D01*
X131721266Y-98214059D01*
X131596740Y-98089533D01*
X131596734Y-98089528D01*
X131447629Y-97995838D01*
X131281394Y-97937671D01*
X131150292Y-97922900D01*
X131150288Y-97922900D01*
X129538512Y-97922900D01*
X129538508Y-97922900D01*
X129407405Y-97937671D01*
X129241170Y-97995838D01*
X129092065Y-98089528D01*
X129092059Y-98089533D01*
X128967533Y-98214059D01*
X128967528Y-98214065D01*
X128873837Y-98363172D01*
X128873836Y-98363173D01*
X128821346Y-98513183D01*
X128780625Y-98569959D01*
X128736399Y-98592002D01*
X128635614Y-98619008D01*
X128635612Y-98619008D01*
X128635612Y-98619009D01*
X128521486Y-98684900D01*
X128521483Y-98684902D01*
X128146076Y-99060308D01*
X128084753Y-99093793D01*
X128044512Y-99095847D01*
X128016003Y-99092635D01*
X128015996Y-99092635D01*
X127836750Y-99112830D01*
X127836745Y-99112831D01*
X127666476Y-99172411D01*
X127513737Y-99268384D01*
X127386184Y-99395937D01*
X127290211Y-99548676D01*
X127230631Y-99718945D01*
X127230630Y-99718950D01*
X127210435Y-99898196D01*
X127210435Y-99898203D01*
X127230630Y-100077449D01*
X127230631Y-100077454D01*
X127290211Y-100247723D01*
X127373650Y-100380515D01*
X127386184Y-100400462D01*
X127513738Y-100528016D01*
X127526187Y-100535838D01*
X127640361Y-100607579D01*
X127666478Y-100623989D01*
X127776199Y-100662382D01*
X127836745Y-100683568D01*
X127836750Y-100683569D01*
X128015996Y-100703765D01*
X128016000Y-100703765D01*
X128016004Y-100703765D01*
X128195249Y-100683569D01*
X128195252Y-100683568D01*
X128195255Y-100683568D01*
X128365522Y-100623989D01*
X128518262Y-100528016D01*
X128645816Y-100400462D01*
X128741789Y-100247722D01*
X128801368Y-100077455D01*
X128801588Y-100075501D01*
X128802082Y-100074325D01*
X128802917Y-100070668D01*
X128803557Y-100070814D01*
X128828651Y-100011086D01*
X128886243Y-99971528D01*
X128956080Y-99969386D01*
X129012490Y-100001697D01*
X129092059Y-100081266D01*
X129092065Y-100081271D01*
X129241170Y-100174961D01*
X129285205Y-100190369D01*
X129407400Y-100233127D01*
X129407404Y-100233127D01*
X129407406Y-100233128D01*
X129413461Y-100234511D01*
X129474437Y-100268624D01*
X129507290Y-100330287D01*
X129501591Y-100399924D01*
X129459147Y-100455425D01*
X129413461Y-100476289D01*
X129407406Y-100477671D01*
X129241170Y-100535838D01*
X129092065Y-100629528D01*
X129092059Y-100629533D01*
X128967533Y-100754059D01*
X128967528Y-100754065D01*
X128873837Y-100903172D01*
X128873837Y-100903173D01*
X128825310Y-101041855D01*
X128784589Y-101098631D01*
X128719636Y-101124378D01*
X128708269Y-101124900D01*
X128508907Y-101124900D01*
X128381612Y-101159008D01*
X128267486Y-101224900D01*
X128267485Y-101224901D01*
X128060146Y-101432238D01*
X128035892Y-101456493D01*
X127974569Y-101489977D01*
X127962095Y-101492031D01*
X127887550Y-101500430D01*
X127717278Y-101560010D01*
X127564537Y-101655984D01*
X127436984Y-101783537D01*
X127341011Y-101936276D01*
X127281431Y-102106545D01*
X127281430Y-102106550D01*
X127261235Y-102285796D01*
X127261235Y-102285803D01*
X127281430Y-102465049D01*
X127281431Y-102465054D01*
X127341011Y-102635323D01*
X127408721Y-102743082D01*
X127436984Y-102788062D01*
X127564538Y-102915616D01*
X127572335Y-102920515D01*
X127703449Y-103002900D01*
X127717278Y-103011589D01*
X127784200Y-103035006D01*
X127887545Y-103071168D01*
X127887550Y-103071169D01*
X128066796Y-103091365D01*
X128066800Y-103091365D01*
X128066804Y-103091365D01*
X128246049Y-103071169D01*
X128246052Y-103071168D01*
X128246055Y-103071168D01*
X128416322Y-103011589D01*
X128569062Y-102915616D01*
X128696616Y-102788062D01*
X128792589Y-102635322D01*
X128808680Y-102589337D01*
X128849402Y-102532561D01*
X128914354Y-102506813D01*
X128982916Y-102520269D01*
X129013403Y-102542610D01*
X129092059Y-102621266D01*
X129092065Y-102621271D01*
X129241170Y-102714961D01*
X129285487Y-102730467D01*
X129407400Y-102773127D01*
X129407404Y-102773127D01*
X129407406Y-102773128D01*
X129413461Y-102774511D01*
X129474437Y-102808624D01*
X129507290Y-102870287D01*
X129501591Y-102939924D01*
X129459147Y-102995425D01*
X129413461Y-103016289D01*
X129407406Y-103017671D01*
X129241170Y-103075838D01*
X129092065Y-103169528D01*
X129092059Y-103169533D01*
X128967533Y-103294059D01*
X128967528Y-103294065D01*
X128873837Y-103443172D01*
X128873837Y-103443173D01*
X128825310Y-103581855D01*
X128784589Y-103638631D01*
X128719636Y-103664378D01*
X128708269Y-103664900D01*
X128153308Y-103664900D01*
X128026012Y-103699008D01*
X127911886Y-103764900D01*
X127911883Y-103764902D01*
X126878902Y-104797883D01*
X126878900Y-104797886D01*
X126813008Y-104912012D01*
X126778900Y-105039308D01*
X126778900Y-109680059D01*
X126759215Y-109747098D01*
X126742582Y-109767740D01*
X126649583Y-109860739D01*
X126553611Y-110013476D01*
X126494031Y-110183745D01*
X126494030Y-110183750D01*
X126473835Y-110362996D01*
X126473835Y-110363003D01*
X126494030Y-110542249D01*
X126494031Y-110542254D01*
X126553611Y-110712523D01*
X126621366Y-110820354D01*
X126649584Y-110865262D01*
X126777138Y-110992816D01*
X126867480Y-111049582D01*
X126929874Y-111088787D01*
X126929878Y-111088789D01*
X127037873Y-111126578D01*
X127100145Y-111148368D01*
X127100150Y-111148369D01*
X127279396Y-111168565D01*
X127279400Y-111168565D01*
X127279404Y-111168565D01*
X127458649Y-111148369D01*
X127458652Y-111148368D01*
X127458655Y-111148368D01*
X127628922Y-111088789D01*
X127655726Y-111071947D01*
X127722962Y-111052945D01*
X127789798Y-111073311D01*
X127835013Y-111126578D01*
X127845700Y-111176939D01*
X127845700Y-112393091D01*
X127879808Y-112520387D01*
X127906663Y-112566900D01*
X127945700Y-112634514D01*
X127945702Y-112634516D01*
X128829247Y-113518061D01*
X128862732Y-113579384D01*
X128858608Y-113646695D01*
X128815671Y-113769403D01*
X128800900Y-113900507D01*
X128800900Y-114750292D01*
X128815671Y-114881394D01*
X128873838Y-115047629D01*
X128967528Y-115196734D01*
X128967533Y-115196740D01*
X129092059Y-115321266D01*
X129092065Y-115321271D01*
X129241170Y-115414961D01*
X129285487Y-115430467D01*
X129407400Y-115473127D01*
X129407404Y-115473127D01*
X129407406Y-115473128D01*
X129413461Y-115474511D01*
X129474437Y-115508624D01*
X129507290Y-115570287D01*
X129501591Y-115639924D01*
X129459147Y-115695425D01*
X129413461Y-115716289D01*
X129407406Y-115717671D01*
X129241170Y-115775838D01*
X129092065Y-115869528D01*
X129092059Y-115869533D01*
X128967533Y-115994059D01*
X128967528Y-115994065D01*
X128873838Y-116143170D01*
X128815671Y-116309405D01*
X128800900Y-116440507D01*
X128800900Y-116588140D01*
X128781215Y-116655179D01*
X128728411Y-116700934D01*
X128659253Y-116710878D01*
X128595697Y-116681853D01*
X128582369Y-116668389D01*
X128411999Y-116467697D01*
X128369112Y-116417176D01*
X128119571Y-116180595D01*
X128119572Y-116180595D01*
X127888261Y-116004553D01*
X127845939Y-115972343D01*
X127845933Y-115972339D01*
X127845928Y-115972336D01*
X127551422Y-115794859D01*
X127239461Y-115650218D01*
X127239450Y-115650213D01*
X127026982Y-115578397D01*
X126913699Y-115540107D01*
X126577956Y-115465819D01*
X126577951Y-115465818D01*
X126577950Y-115465818D01*
X126428958Y-115449429D01*
X126236154Y-115428221D01*
X125892290Y-115427753D01*
X125892289Y-115427753D01*
X125892281Y-115427753D01*
X125762922Y-115441626D01*
X125694166Y-115429202D01*
X125643041Y-115381578D01*
X125625700Y-115318333D01*
X125625700Y-94788558D01*
X125645385Y-94721519D01*
X125698189Y-94675764D01*
X125762293Y-94665199D01*
X125891810Y-94678423D01*
X125891824Y-94678422D01*
X125891826Y-94678423D01*
X126102671Y-94677008D01*
X126234460Y-94676124D01*
X126574847Y-94636750D01*
X126908972Y-94560763D01*
X127232910Y-94449057D01*
X127542852Y-94302943D01*
X127835159Y-94124140D01*
X128106394Y-93914747D01*
X128353370Y-93677225D01*
X128573186Y-93414366D01*
X128763258Y-93129259D01*
X128921353Y-92825252D01*
X129045612Y-92505920D01*
X129134577Y-92175013D01*
X129187201Y-91836422D01*
X129202867Y-91494123D01*
X129181390Y-91152140D01*
X129123022Y-90814491D01*
X129028449Y-90485143D01*
X129026301Y-90479890D01*
X128992992Y-90398414D01*
X128898783Y-90167967D01*
X128762523Y-89916479D01*
X128747894Y-89848160D01*
X128772525Y-89782776D01*
X128773928Y-89780949D01*
X128794489Y-89754698D01*
X129210532Y-89223513D01*
X129213413Y-89219973D01*
X129591314Y-88772994D01*
X130472757Y-88772994D01*
X130472757Y-88773005D01*
X130493290Y-89020812D01*
X130493292Y-89020824D01*
X130554336Y-89261881D01*
X130654226Y-89489606D01*
X130790233Y-89697782D01*
X130800813Y-89709275D01*
X130958656Y-89880738D01*
X131154891Y-90033474D01*
X131373590Y-90151828D01*
X131608786Y-90232571D01*
X131854065Y-90273500D01*
X132102735Y-90273500D01*
X132348014Y-90232571D01*
X132583210Y-90151828D01*
X132801909Y-90033474D01*
X132998144Y-89880738D01*
X133166564Y-89697785D01*
X133166705Y-89697570D01*
X133199055Y-89648054D01*
X133302573Y-89489607D01*
X133402463Y-89261881D01*
X133463508Y-89020821D01*
X133463509Y-89020812D01*
X133484043Y-88773005D01*
X133484043Y-88772994D01*
X133463509Y-88525187D01*
X133463507Y-88525175D01*
X133402463Y-88284118D01*
X133396612Y-88270779D01*
X134634800Y-88270779D01*
X134634800Y-88424200D01*
X135384800Y-88424200D01*
X135384800Y-88924200D01*
X134634800Y-88924200D01*
X134634800Y-89077620D01*
X134675148Y-89280466D01*
X134675150Y-89280474D01*
X134754300Y-89471558D01*
X134754305Y-89471568D01*
X134869210Y-89643535D01*
X134869213Y-89643539D01*
X135015460Y-89789786D01*
X135015464Y-89789789D01*
X135187431Y-89904694D01*
X135187441Y-89904699D01*
X135378523Y-89983848D01*
X135378525Y-89983849D01*
X135434800Y-89995042D01*
X135434800Y-89141188D01*
X135444740Y-89158405D01*
X135500595Y-89214260D01*
X135569004Y-89253756D01*
X135645304Y-89274200D01*
X135724296Y-89274200D01*
X135800596Y-89253756D01*
X135869005Y-89214260D01*
X135924860Y-89158405D01*
X135934800Y-89141188D01*
X135934800Y-89995042D01*
X135991074Y-89983849D01*
X135991076Y-89983848D01*
X136182158Y-89904699D01*
X136182168Y-89904694D01*
X136354135Y-89789789D01*
X136354139Y-89789786D01*
X136439605Y-89704319D01*
X136500928Y-89670833D01*
X136570619Y-89675817D01*
X136614968Y-89704318D01*
X136619922Y-89709272D01*
X136765404Y-89797219D01*
X136765403Y-89797219D01*
X136927694Y-89847790D01*
X136927693Y-89847790D01*
X136998208Y-89854198D01*
X136998226Y-89854199D01*
X137004799Y-89854198D01*
X137004800Y-89854198D01*
X137004800Y-89004200D01*
X136348800Y-89004200D01*
X136281761Y-88984515D01*
X136259990Y-88959390D01*
X136224800Y-88924200D01*
X135984800Y-88924200D01*
X135984800Y-88424200D01*
X136740800Y-88424200D01*
X136807839Y-88443885D01*
X136829609Y-88469009D01*
X136864800Y-88504200D01*
X137004800Y-88504200D01*
X137004800Y-87654200D01*
X137004799Y-87654199D01*
X136998236Y-87654200D01*
X136998217Y-87654201D01*
X136927697Y-87660608D01*
X136927692Y-87660609D01*
X136765401Y-87711181D01*
X136765399Y-87711182D01*
X136681056Y-87762169D01*
X136613501Y-87780005D01*
X136547028Y-87758487D01*
X136513803Y-87724941D01*
X136500385Y-87704859D01*
X136354139Y-87558613D01*
X136354135Y-87558610D01*
X136182168Y-87443705D01*
X136182158Y-87443700D01*
X135991072Y-87364549D01*
X135991067Y-87364547D01*
X135934800Y-87353355D01*
X135934800Y-88207211D01*
X135924860Y-88189995D01*
X135869005Y-88134140D01*
X135800596Y-88094644D01*
X135724296Y-88074200D01*
X135645304Y-88074200D01*
X135569004Y-88094644D01*
X135500595Y-88134140D01*
X135444740Y-88189995D01*
X135434800Y-88207211D01*
X135434800Y-87353356D01*
X135434799Y-87353355D01*
X135378532Y-87364547D01*
X135378527Y-87364549D01*
X135187441Y-87443700D01*
X135187431Y-87443705D01*
X135015464Y-87558610D01*
X135015460Y-87558613D01*
X134869213Y-87704860D01*
X134869210Y-87704864D01*
X134754305Y-87876831D01*
X134754300Y-87876841D01*
X134675150Y-88067925D01*
X134675148Y-88067933D01*
X134634800Y-88270779D01*
X133396612Y-88270779D01*
X133302573Y-88056393D01*
X133166566Y-87848217D01*
X133132954Y-87811705D01*
X132998144Y-87665262D01*
X132801909Y-87512526D01*
X132801907Y-87512525D01*
X132801906Y-87512524D01*
X132583211Y-87394172D01*
X132583202Y-87394169D01*
X132348016Y-87313429D01*
X132102735Y-87272500D01*
X131854065Y-87272500D01*
X131608783Y-87313429D01*
X131373597Y-87394169D01*
X131373588Y-87394172D01*
X131154893Y-87512524D01*
X130958657Y-87665261D01*
X130790233Y-87848217D01*
X130654226Y-88056393D01*
X130554336Y-88284118D01*
X130493292Y-88525175D01*
X130493290Y-88525187D01*
X130472757Y-88772994D01*
X129591314Y-88772994D01*
X129816324Y-88506853D01*
X129819310Y-88503453D01*
X130448476Y-87813380D01*
X130451591Y-87810089D01*
X131106132Y-87144030D01*
X131109351Y-87140874D01*
X131788351Y-86499762D01*
X131791726Y-86496692D01*
X132494201Y-85881454D01*
X132497736Y-85878475D01*
X132540778Y-85843535D01*
X133222689Y-85289978D01*
X133226280Y-85287173D01*
X133972776Y-84726178D01*
X133976464Y-84723512D01*
X134440069Y-84401522D01*
X134506355Y-84379450D01*
X134574057Y-84396719D01*
X134621676Y-84447849D01*
X134634800Y-84503370D01*
X134634800Y-84624200D01*
X135384800Y-84624200D01*
X135384800Y-85124200D01*
X134634800Y-85124200D01*
X134634800Y-85277620D01*
X134675148Y-85480466D01*
X134675150Y-85480474D01*
X134754300Y-85671558D01*
X134754305Y-85671568D01*
X134869210Y-85843535D01*
X134869213Y-85843539D01*
X135015460Y-85989786D01*
X135015464Y-85989789D01*
X135187431Y-86104694D01*
X135187441Y-86104699D01*
X135378523Y-86183848D01*
X135378525Y-86183849D01*
X135434800Y-86195042D01*
X135434800Y-85341188D01*
X135444740Y-85358405D01*
X135500595Y-85414260D01*
X135569004Y-85453756D01*
X135645304Y-85474200D01*
X135724296Y-85474200D01*
X135800596Y-85453756D01*
X135869005Y-85414260D01*
X135924860Y-85358405D01*
X135934800Y-85341188D01*
X135934800Y-86195042D01*
X135991074Y-86183849D01*
X135991076Y-86183848D01*
X136182158Y-86104699D01*
X136182168Y-86104694D01*
X136354135Y-85989789D01*
X136354139Y-85989786D01*
X136500386Y-85843539D01*
X136500389Y-85843535D01*
X136615294Y-85671568D01*
X136615299Y-85671558D01*
X136694449Y-85480474D01*
X136694451Y-85480466D01*
X136734799Y-85277620D01*
X136734800Y-85277617D01*
X136734800Y-85124200D01*
X135984800Y-85124200D01*
X135984800Y-84624200D01*
X136734800Y-84624200D01*
X136734800Y-84470783D01*
X136734799Y-84470779D01*
X143274800Y-84470779D01*
X143274800Y-84624200D01*
X144024800Y-84624200D01*
X144024800Y-85124200D01*
X143274800Y-85124200D01*
X143274800Y-85277620D01*
X143315148Y-85480466D01*
X143315150Y-85480474D01*
X143394300Y-85671558D01*
X143394305Y-85671568D01*
X143509210Y-85843535D01*
X143509213Y-85843539D01*
X143655460Y-85989786D01*
X143655464Y-85989789D01*
X143827431Y-86104694D01*
X143827441Y-86104699D01*
X144018523Y-86183848D01*
X144018525Y-86183849D01*
X144074800Y-86195042D01*
X144074800Y-85341188D01*
X144084740Y-85358405D01*
X144140595Y-85414260D01*
X144209004Y-85453756D01*
X144285304Y-85474200D01*
X144364296Y-85474200D01*
X144440596Y-85453756D01*
X144509005Y-85414260D01*
X144564860Y-85358405D01*
X144574800Y-85341188D01*
X144574800Y-86195042D01*
X144631074Y-86183849D01*
X144631076Y-86183848D01*
X144822158Y-86104699D01*
X144822168Y-86104694D01*
X144994135Y-85989789D01*
X144994139Y-85989786D01*
X145140386Y-85843539D01*
X145140389Y-85843535D01*
X145255294Y-85671568D01*
X145255299Y-85671558D01*
X145334449Y-85480474D01*
X145334451Y-85480466D01*
X145374799Y-85277620D01*
X145374800Y-85277617D01*
X145374800Y-85124200D01*
X144624800Y-85124200D01*
X144624800Y-84624200D01*
X145374800Y-84624200D01*
X145374800Y-84470783D01*
X145374799Y-84470779D01*
X145334451Y-84267933D01*
X145334449Y-84267925D01*
X145255299Y-84076841D01*
X145255294Y-84076831D01*
X145140389Y-83904864D01*
X145140386Y-83904860D01*
X144994139Y-83758613D01*
X144994135Y-83758610D01*
X144822168Y-83643705D01*
X144822158Y-83643700D01*
X144631072Y-83564549D01*
X144631067Y-83564547D01*
X144574800Y-83553355D01*
X144574800Y-84407211D01*
X144564860Y-84389995D01*
X144509005Y-84334140D01*
X144440596Y-84294644D01*
X144364296Y-84274200D01*
X144285304Y-84274200D01*
X144209004Y-84294644D01*
X144140595Y-84334140D01*
X144084740Y-84389995D01*
X144074800Y-84407211D01*
X144074800Y-83553356D01*
X144074799Y-83553355D01*
X144018532Y-83564547D01*
X144018527Y-83564549D01*
X143827441Y-83643700D01*
X143827431Y-83643705D01*
X143655464Y-83758610D01*
X143655460Y-83758613D01*
X143509213Y-83904860D01*
X143509210Y-83904864D01*
X143394305Y-84076831D01*
X143394300Y-84076841D01*
X143315150Y-84267925D01*
X143315148Y-84267933D01*
X143274800Y-84470779D01*
X136734799Y-84470779D01*
X136694451Y-84267933D01*
X136694449Y-84267925D01*
X136615299Y-84076841D01*
X136615294Y-84076831D01*
X136500389Y-83904864D01*
X136500386Y-83904860D01*
X136354139Y-83758613D01*
X136354135Y-83758610D01*
X136182168Y-83643705D01*
X136182158Y-83643700D01*
X136071941Y-83598046D01*
X136017537Y-83554204D01*
X135995473Y-83487910D01*
X136012753Y-83420211D01*
X136056470Y-83376636D01*
X136266779Y-83252785D01*
X136271082Y-83250251D01*
X136334005Y-83233100D01*
X150469614Y-83233100D01*
X150536653Y-83252785D01*
G37*
G04 #@! TD.AperFunction*
G04 #@! TA.AperFunction,Conductor*
G36*
X153960969Y-123453358D02*
G01*
X154005488Y-123504735D01*
X154044398Y-123588178D01*
X154179893Y-123781682D01*
X154346916Y-123948705D01*
X154489790Y-124048747D01*
X154533414Y-124103324D01*
X154540607Y-124172823D01*
X154509085Y-124235177D01*
X154477686Y-124259375D01*
X154449657Y-124274544D01*
X154449652Y-124274547D01*
X154419200Y-124298247D01*
X155047766Y-124926812D01*
X155005708Y-124938082D01*
X154880292Y-125010490D01*
X154777890Y-125112892D01*
X154705482Y-125238308D01*
X154694212Y-125280365D01*
X154066811Y-124652965D01*
X153993440Y-124765270D01*
X153940294Y-124810627D01*
X153871062Y-124820051D01*
X153807727Y-124790549D01*
X153788056Y-124768572D01*
X153776678Y-124752323D01*
X153678047Y-124611461D01*
X153678045Y-124611458D01*
X153517140Y-124450553D01*
X153331377Y-124320481D01*
X153287752Y-124265904D01*
X153278500Y-124218906D01*
X153278500Y-124081255D01*
X153298185Y-124014216D01*
X153331373Y-123979682D01*
X153484877Y-123872198D01*
X153639598Y-123717477D01*
X153765102Y-123538239D01*
X153780725Y-123504734D01*
X153826894Y-123452297D01*
X153894087Y-123433144D01*
X153960969Y-123453358D01*
G37*
G04 #@! TD.AperFunction*
G04 #@! TA.AperFunction,Conductor*
G36*
X156738942Y-119212785D02*
G01*
X156759583Y-119229418D01*
X157334498Y-119804334D01*
X157893898Y-120363734D01*
X157927383Y-120425057D01*
X157929437Y-120437531D01*
X157939230Y-120524449D01*
X157998810Y-120694721D01*
X158046691Y-120770923D01*
X158094784Y-120847462D01*
X158222338Y-120975016D01*
X158375078Y-121070989D01*
X158383551Y-121073954D01*
X158430278Y-121103314D01*
X158448265Y-121121301D01*
X158481750Y-121182624D01*
X158476766Y-121252316D01*
X158441789Y-121302693D01*
X158411493Y-121328945D01*
X158335915Y-121416165D01*
X158335909Y-121416173D01*
X158258180Y-121537121D01*
X158258177Y-121537127D01*
X158210232Y-121642114D01*
X158169726Y-121780064D01*
X158169723Y-121780076D01*
X158153300Y-121894310D01*
X158153300Y-121894311D01*
X158153300Y-122516200D01*
X158154266Y-122522302D01*
X158145314Y-122591592D01*
X158100320Y-122645045D01*
X158033569Y-122665687D01*
X158031794Y-122665700D01*
X157983298Y-122665700D01*
X157916259Y-122646015D01*
X157895617Y-122629381D01*
X156545190Y-121278955D01*
X156545188Y-121278952D01*
X156428448Y-121162212D01*
X156394963Y-121100889D01*
X156399947Y-121031197D01*
X156403747Y-121022126D01*
X156491429Y-120834092D01*
X156491431Y-120834086D01*
X156548635Y-120620600D01*
X155651011Y-120620600D01*
X155683924Y-120563593D01*
X155717999Y-120436426D01*
X155717999Y-120304774D01*
X155683924Y-120177607D01*
X155651011Y-120120600D01*
X156548635Y-120120600D01*
X156548634Y-120120599D01*
X156491431Y-119907113D01*
X156491428Y-119907107D01*
X156391599Y-119693022D01*
X156391598Y-119693020D01*
X156256112Y-119499526D01*
X156256107Y-119499520D01*
X156161368Y-119404781D01*
X156127883Y-119343458D01*
X156132867Y-119273766D01*
X156174739Y-119217833D01*
X156240203Y-119193416D01*
X156249049Y-119193100D01*
X156671903Y-119193100D01*
X156738942Y-119212785D01*
G37*
G04 #@! TD.AperFunction*
G04 #@! TA.AperFunction,Conductor*
G36*
X155411038Y-122260785D02*
G01*
X155456793Y-122313589D01*
X155467999Y-122365100D01*
X155467999Y-122477588D01*
X155410992Y-122444675D01*
X155283825Y-122410600D01*
X155152173Y-122410600D01*
X155025006Y-122444675D01*
X154967999Y-122477588D01*
X154967999Y-122365100D01*
X154987684Y-122298061D01*
X155040488Y-122252306D01*
X155091999Y-122241100D01*
X155343999Y-122241100D01*
X155411038Y-122260785D01*
G37*
G04 #@! TD.AperFunction*
G04 #@! TA.AperFunction,Conductor*
G36*
X155467999Y-120916100D02*
G01*
X155448314Y-120983139D01*
X155395510Y-121028894D01*
X155343999Y-121040100D01*
X155091999Y-121040100D01*
X155024960Y-121020415D01*
X154979205Y-120967611D01*
X154967999Y-120916100D01*
X154967999Y-120803612D01*
X155025006Y-120836525D01*
X155152173Y-120870600D01*
X155283825Y-120870600D01*
X155410992Y-120836525D01*
X155467999Y-120803612D01*
X155467999Y-120916100D01*
G37*
G04 #@! TD.AperFunction*
M02*
