G04 #@! TF.GenerationSoftware,KiCad,Pcbnew,9.0.6*
G04 #@! TF.CreationDate,2025-11-26T20:09:10+03:00*
G04 #@! TF.ProjectId,SMHome_UniversalRound_ESP32_C3_Mini_v3,534d486f-6d65-45f5-956e-697665727361,12*
G04 #@! TF.SameCoordinates,Original*
G04 #@! TF.FileFunction,Paste,Bot*
G04 #@! TF.FilePolarity,Positive*
%FSLAX46Y46*%
G04 Gerber Fmt 4.6, Leading zero omitted, Abs format (unit mm)*
G04 Created by KiCad (PCBNEW 9.0.6) date 2025-11-26 20:09:10*
%MOMM*%
%LPD*%
G01*
G04 APERTURE LIST*
G04 Aperture macros list*
%AMRoundRect*
0 Rectangle with rounded corners*
0 $1 Rounding radius*
0 $2 $3 $4 $5 $6 $7 $8 $9 X,Y pos of 4 corners*
0 Add a 4 corners polygon primitive as box body*
4,1,4,$2,$3,$4,$5,$6,$7,$8,$9,$2,$3,0*
0 Add four circle primitives for the rounded corners*
1,1,$1+$1,$2,$3*
1,1,$1+$1,$4,$5*
1,1,$1+$1,$6,$7*
1,1,$1+$1,$8,$9*
0 Add four rect primitives between the rounded corners*
20,1,$1+$1,$2,$3,$4,$5,0*
20,1,$1+$1,$4,$5,$6,$7,0*
20,1,$1+$1,$6,$7,$8,$9,0*
20,1,$1+$1,$8,$9,$2,$3,0*%
G04 Aperture macros list end*
%ADD10RoundRect,0.250000X0.250000X-0.250000X0.250000X0.250000X-0.250000X0.250000X-0.250000X-0.250000X0*%
%ADD11RoundRect,0.225000X0.375000X-0.225000X0.375000X0.225000X-0.375000X0.225000X-0.375000X-0.225000X0*%
%ADD12RoundRect,0.250000X-0.450000X0.350000X-0.450000X-0.350000X0.450000X-0.350000X0.450000X0.350000X0*%
%ADD13RoundRect,0.250000X-0.350000X-0.450000X0.350000X-0.450000X0.350000X0.450000X-0.350000X0.450000X0*%
%ADD14RoundRect,0.250000X-1.000000X-0.650000X1.000000X-0.650000X1.000000X0.650000X-1.000000X0.650000X0*%
%ADD15RoundRect,0.125000X-0.375000X-0.125000X0.375000X-0.125000X0.375000X0.125000X-0.375000X0.125000X0*%
%ADD16RoundRect,0.250000X-0.250000X0.475000X-0.250000X-0.475000X0.250000X-0.475000X0.250000X0.475000X0*%
%ADD17RoundRect,0.175000X-0.325000X-0.175000X0.325000X-0.175000X0.325000X0.175000X-0.325000X0.175000X0*%
%ADD18RoundRect,0.250000X0.250000X0.475000X-0.250000X0.475000X-0.250000X-0.475000X0.250000X-0.475000X0*%
%ADD19RoundRect,0.250000X1.500000X-0.250000X1.500000X0.250000X-1.500000X0.250000X-1.500000X-0.250000X0*%
%ADD20RoundRect,0.250001X1.449999X-0.499999X1.449999X0.499999X-1.449999X0.499999X-1.449999X-0.499999X0*%
%ADD21R,1.700000X1.100000*%
%ADD22RoundRect,0.250000X0.400000X0.625000X-0.400000X0.625000X-0.400000X-0.625000X0.400000X-0.625000X0*%
%ADD23RoundRect,0.250000X-0.337500X-0.475000X0.337500X-0.475000X0.337500X0.475000X-0.337500X0.475000X0*%
%ADD24RoundRect,0.250000X0.475000X-0.337500X0.475000X0.337500X-0.475000X0.337500X-0.475000X-0.337500X0*%
%ADD25RoundRect,0.237500X0.250000X0.237500X-0.250000X0.237500X-0.250000X-0.237500X0.250000X-0.237500X0*%
%ADD26RoundRect,0.237500X-0.250000X-0.237500X0.250000X-0.237500X0.250000X0.237500X-0.250000X0.237500X0*%
%ADD27RoundRect,0.250000X-0.250000X0.250000X-0.250000X-0.250000X0.250000X-0.250000X0.250000X0.250000X0*%
%ADD28RoundRect,0.250000X-0.475000X0.337500X-0.475000X-0.337500X0.475000X-0.337500X0.475000X0.337500X0*%
%ADD29RoundRect,0.150000X0.512500X0.150000X-0.512500X0.150000X-0.512500X-0.150000X0.512500X-0.150000X0*%
%ADD30RoundRect,0.237500X0.237500X-0.250000X0.237500X0.250000X-0.237500X0.250000X-0.237500X-0.250000X0*%
%ADD31RoundRect,0.250000X0.350000X0.450000X-0.350000X0.450000X-0.350000X-0.450000X0.350000X-0.450000X0*%
%ADD32RoundRect,0.250000X0.300000X-0.300000X0.300000X0.300000X-0.300000X0.300000X-0.300000X-0.300000X0*%
%ADD33RoundRect,0.250000X-0.300000X0.300000X-0.300000X-0.300000X0.300000X-0.300000X0.300000X0.300000X0*%
%ADD34RoundRect,0.250000X-0.250000X-0.475000X0.250000X-0.475000X0.250000X0.475000X-0.250000X0.475000X0*%
%ADD35RoundRect,0.225000X-0.225000X-0.375000X0.225000X-0.375000X0.225000X0.375000X-0.225000X0.375000X0*%
%ADD36RoundRect,0.150000X-0.512500X-0.150000X0.512500X-0.150000X0.512500X0.150000X-0.512500X0.150000X0*%
%ADD37RoundRect,0.150000X-0.150000X0.587500X-0.150000X-0.587500X0.150000X-0.587500X0.150000X0.587500X0*%
G04 APERTURE END LIST*
D10*
X152933400Y-112908399D03*
X152933400Y-110408401D03*
D11*
X137261600Y-103961200D03*
X137261600Y-100661200D03*
D12*
X144576800Y-123028200D03*
X144576800Y-125028200D03*
D13*
X134026400Y-92456000D03*
X136026400Y-92456000D03*
D14*
X166020999Y-110744000D03*
X170021001Y-110744000D03*
D15*
X164979600Y-104507799D03*
X164979600Y-103607800D03*
X164979600Y-101807800D03*
D16*
X168979600Y-102347800D03*
D17*
X168979600Y-104407800D03*
D18*
X144764800Y-110083600D03*
X142864800Y-110083600D03*
D19*
X132999600Y-113232200D03*
X132999600Y-111232200D03*
X132999600Y-109232200D03*
X132999600Y-107232200D03*
X132999600Y-105232200D03*
X132999600Y-103232200D03*
X132999600Y-101232200D03*
X132999600Y-99232200D03*
X132999600Y-97232200D03*
D20*
X127249600Y-115582200D03*
X127249600Y-94882200D03*
D21*
X143104800Y-95885001D03*
X143104800Y-93344999D03*
X149604800Y-93344999D03*
X149604800Y-95885001D03*
D22*
X168351200Y-107518200D03*
X165251198Y-107518200D03*
D23*
X144250500Y-107391200D03*
X146325500Y-107391200D03*
X143996500Y-100990400D03*
X146071500Y-100990400D03*
D24*
X156819600Y-105710900D03*
X156819600Y-103635900D03*
D25*
X146048100Y-116484400D03*
X144223100Y-116484400D03*
D23*
X148187500Y-108254800D03*
X150262500Y-108254800D03*
D10*
X146659600Y-122814399D03*
X146659600Y-120314401D03*
D26*
X149074500Y-113182400D03*
X150899500Y-113182400D03*
D27*
X148082000Y-114980401D03*
X148082000Y-117480399D03*
D28*
X159054800Y-103635900D03*
X159054800Y-105710900D03*
D29*
X140151700Y-92688501D03*
X140151700Y-93638500D03*
X140151700Y-94588499D03*
X137876700Y-94588499D03*
X137876700Y-92688501D03*
D27*
X135686800Y-122600401D03*
X135686800Y-125100399D03*
D30*
X137109200Y-111707300D03*
X137109200Y-109882300D03*
D31*
X139988800Y-96875600D03*
X137988800Y-96875600D03*
D13*
X160645600Y-109093000D03*
X162645600Y-109093000D03*
D32*
X165963600Y-95760999D03*
X165963600Y-92961001D03*
D33*
X162052000Y-103476601D03*
X162052000Y-106276599D03*
D25*
X140813800Y-112014000D03*
X138988800Y-112014000D03*
D12*
X138252200Y-122901200D03*
X138252200Y-124901200D03*
D34*
X149037001Y-111379000D03*
X150936999Y-111379000D03*
D35*
X137948400Y-106629200D03*
X141248400Y-106629200D03*
D36*
X144576800Y-105277998D03*
X144576800Y-104327999D03*
X144576800Y-103378000D03*
X146851800Y-103378000D03*
X146851800Y-105277998D03*
D37*
X139918400Y-100967300D03*
X141818400Y-100967300D03*
X140868400Y-102842300D03*
D10*
X142544800Y-125379799D03*
X142544800Y-122879801D03*
D34*
X138900500Y-110032800D03*
X140800500Y-110032800D03*
D25*
X144752700Y-111988600D03*
X142927700Y-111988600D03*
X152474300Y-117729000D03*
X150649300Y-117729000D03*
M02*
