G04 #@! TF.GenerationSoftware,KiCad,Pcbnew,8.0.8*
G04 #@! TF.CreationDate,2025-02-05T12:42:34+03:00*
G04 #@! TF.ProjectId,SMHome_2RelayBoardRound_ESP32_C3_Mini_v1,534d486f-6d65-45f3-9252-656c6179426f,12*
G04 #@! TF.SameCoordinates,Original*
G04 #@! TF.FileFunction,Paste,Bot*
G04 #@! TF.FilePolarity,Positive*
%FSLAX46Y46*%
G04 Gerber Fmt 4.6, Leading zero omitted, Abs format (unit mm)*
G04 Created by KiCad (PCBNEW 8.0.8) date 2025-02-05 12:42:34*
%MOMM*%
%LPD*%
G01*
G04 APERTURE LIST*
G04 Aperture macros list*
%AMRoundRect*
0 Rectangle with rounded corners*
0 $1 Rounding radius*
0 $2 $3 $4 $5 $6 $7 $8 $9 X,Y pos of 4 corners*
0 Add a 4 corners polygon primitive as box body*
4,1,4,$2,$3,$4,$5,$6,$7,$8,$9,$2,$3,0*
0 Add four circle primitives for the rounded corners*
1,1,$1+$1,$2,$3*
1,1,$1+$1,$4,$5*
1,1,$1+$1,$6,$7*
1,1,$1+$1,$8,$9*
0 Add four rect primitives between the rounded corners*
20,1,$1+$1,$2,$3,$4,$5,0*
20,1,$1+$1,$4,$5,$6,$7,0*
20,1,$1+$1,$6,$7,$8,$9,0*
20,1,$1+$1,$8,$9,$2,$3,0*%
G04 Aperture macros list end*
%ADD10RoundRect,0.250000X0.250000X0.250000X-0.250000X0.250000X-0.250000X-0.250000X0.250000X-0.250000X0*%
%ADD11RoundRect,0.218750X-0.218750X-0.381250X0.218750X-0.381250X0.218750X0.381250X-0.218750X0.381250X0*%
%ADD12RoundRect,0.250000X-1.000000X-0.650000X1.000000X-0.650000X1.000000X0.650000X-1.000000X0.650000X0*%
%ADD13RoundRect,0.125000X-0.375000X-0.125000X0.375000X-0.125000X0.375000X0.125000X-0.375000X0.125000X0*%
%ADD14RoundRect,0.250000X-0.250000X0.475000X-0.250000X-0.475000X0.250000X-0.475000X0.250000X0.475000X0*%
%ADD15RoundRect,0.175000X-0.325000X-0.175000X0.325000X-0.175000X0.325000X0.175000X-0.325000X0.175000X0*%
%ADD16RoundRect,0.250000X0.250000X0.475000X-0.250000X0.475000X-0.250000X-0.475000X0.250000X-0.475000X0*%
%ADD17RoundRect,0.175000X1.175000X-0.175000X1.175000X0.175000X-1.175000X0.175000X-1.175000X-0.175000X0*%
%ADD18RoundRect,0.250000X0.700000X-0.300000X0.700000X0.300000X-0.700000X0.300000X-0.700000X-0.300000X0*%
%ADD19R,1.700000X1.100000*%
%ADD20RoundRect,0.250000X0.400000X0.625000X-0.400000X0.625000X-0.400000X-0.625000X0.400000X-0.625000X0*%
%ADD21RoundRect,0.250000X-0.337500X-0.475000X0.337500X-0.475000X0.337500X0.475000X-0.337500X0.475000X0*%
%ADD22RoundRect,0.250000X0.475000X-0.337500X0.475000X0.337500X-0.475000X0.337500X-0.475000X-0.337500X0*%
%ADD23RoundRect,0.237500X0.250000X0.237500X-0.250000X0.237500X-0.250000X-0.237500X0.250000X-0.237500X0*%
%ADD24RoundRect,0.250000X-0.475000X0.337500X-0.475000X-0.337500X0.475000X-0.337500X0.475000X0.337500X0*%
%ADD25RoundRect,0.218750X-0.381250X0.218750X-0.381250X-0.218750X0.381250X-0.218750X0.381250X0.218750X0*%
%ADD26RoundRect,0.250000X-0.250000X-0.250000X0.250000X-0.250000X0.250000X0.250000X-0.250000X0.250000X0*%
%ADD27RoundRect,0.250000X-0.250000X0.250000X-0.250000X-0.250000X0.250000X-0.250000X0.250000X0.250000X0*%
%ADD28RoundRect,0.250000X-0.350000X-0.450000X0.350000X-0.450000X0.350000X0.450000X-0.350000X0.450000X0*%
%ADD29RoundRect,0.250000X0.300000X-0.300000X0.300000X0.300000X-0.300000X0.300000X-0.300000X-0.300000X0*%
%ADD30RoundRect,0.250000X-0.300000X0.300000X-0.300000X-0.300000X0.300000X-0.300000X0.300000X0.300000X0*%
%ADD31RoundRect,0.250000X-0.250000X-0.475000X0.250000X-0.475000X0.250000X0.475000X-0.250000X0.475000X0*%
%ADD32RoundRect,0.150000X0.512500X0.150000X-0.512500X0.150000X-0.512500X-0.150000X0.512500X-0.150000X0*%
%ADD33RoundRect,0.250000X-0.475000X0.250000X-0.475000X-0.250000X0.475000X-0.250000X0.475000X0.250000X0*%
%ADD34RoundRect,0.150000X0.150000X0.625000X-0.150000X0.625000X-0.150000X-0.625000X0.150000X-0.625000X0*%
%ADD35RoundRect,0.250000X0.350000X0.650000X-0.350000X0.650000X-0.350000X-0.650000X0.350000X-0.650000X0*%
G04 APERTURE END LIST*
D10*
X151262400Y-114681000D03*
X148762400Y-114681000D03*
D11*
X135233900Y-116713000D03*
X137358900Y-116713000D03*
D12*
X165487599Y-112141000D03*
X169487601Y-112141000D03*
D13*
X164979600Y-104507799D03*
X164979600Y-103607800D03*
X164979600Y-101807800D03*
D14*
X168979600Y-102347800D03*
D15*
X168979600Y-104407800D03*
D16*
X143647199Y-105486200D03*
X141747201Y-105486200D03*
D17*
X131818000Y-110736200D03*
X131818000Y-109236200D03*
X131818000Y-107736200D03*
X131818000Y-106236200D03*
X131818000Y-104736200D03*
X131818000Y-103236200D03*
X131818000Y-101736200D03*
X131818000Y-100236200D03*
D18*
X128118000Y-112686200D03*
X128118000Y-98286200D03*
D19*
X143104800Y-95885001D03*
X143104800Y-93344999D03*
X149604800Y-93344999D03*
X149604800Y-95885001D03*
D20*
X168351200Y-107518200D03*
X165251198Y-107518200D03*
D21*
X160608100Y-112547400D03*
X162683100Y-112547400D03*
D22*
X156819600Y-105710900D03*
X156819600Y-103635900D03*
D23*
X143914500Y-112242600D03*
X142089500Y-112242600D03*
D24*
X158546800Y-115853300D03*
X158546800Y-117928300D03*
D11*
X149102300Y-116865400D03*
X151227300Y-116865400D03*
D25*
X145567400Y-114507500D03*
X145567400Y-116632500D03*
D26*
X135300401Y-114477800D03*
X137800399Y-114477800D03*
D23*
X150620100Y-107518200D03*
X148795100Y-107518200D03*
D27*
X142214600Y-114345401D03*
X142214600Y-116845399D03*
D24*
X159054800Y-103635900D03*
X159054800Y-105710900D03*
D23*
X137462900Y-112242600D03*
X135637900Y-112242600D03*
D28*
X160594800Y-110261400D03*
X162594800Y-110261400D03*
D29*
X165963600Y-95760999D03*
X165963600Y-92961001D03*
D30*
X162052000Y-103476601D03*
X162052000Y-106276599D03*
D23*
X137412100Y-107569000D03*
X135587100Y-107569000D03*
D31*
X147995601Y-105333800D03*
X149895599Y-105333800D03*
D32*
X163900700Y-115596501D03*
X163900700Y-116546500D03*
X163900700Y-117496499D03*
X161625700Y-117496499D03*
X161625700Y-115596501D03*
D33*
X138734800Y-104028201D03*
X138734800Y-105928199D03*
D23*
X143762100Y-107619800D03*
X141937100Y-107619800D03*
D34*
X143130400Y-122231400D03*
X142130400Y-122231400D03*
X141130400Y-122231400D03*
X140130400Y-122231400D03*
D35*
X144430400Y-126106400D03*
X138830400Y-126106400D03*
D23*
X150772500Y-112039400D03*
X148947500Y-112039400D03*
M02*
