G04 #@! TF.GenerationSoftware,KiCad,Pcbnew,8.0.8*
G04 #@! TF.CreationDate,2025-02-05T12:42:34+03:00*
G04 #@! TF.ProjectId,SMHome_2RelayBoardRound_ESP32_C3_Mini_v1,534d486f-6d65-45f3-9252-656c6179426f,12*
G04 #@! TF.SameCoordinates,Original*
G04 #@! TF.FileFunction,Legend,Bot*
G04 #@! TF.FilePolarity,Positive*
%FSLAX46Y46*%
G04 Gerber Fmt 4.6, Leading zero omitted, Abs format (unit mm)*
G04 Created by KiCad (PCBNEW 8.0.8) date 2025-02-05 12:42:34*
%MOMM*%
%LPD*%
G01*
G04 APERTURE LIST*
%ADD10C,0.100000*%
%ADD11C,0.150000*%
%ADD12C,0.200000*%
%ADD13C,0.120000*%
%ADD14C,0.101600*%
G04 APERTURE END LIST*
D10*
X140893800Y-118643400D02*
X140892182Y-117543401D01*
X140891594Y-117143402D02*
X140889976Y-116043403D01*
X140889388Y-115643403D02*
X140887771Y-114543404D01*
X140887182Y-114143405D02*
X140885565Y-113043406D01*
X140884976Y-112643406D02*
X140883359Y-111543408D01*
X140882771Y-111143408D02*
X140881153Y-110043409D01*
X140880565Y-109643410D02*
X140878947Y-108543411D01*
X140878359Y-108143411D02*
X140876741Y-107043413D01*
X140876153Y-106643413D02*
X140874535Y-105543414D01*
X140873947Y-105143415D02*
X140872329Y-104043416D01*
X140871741Y-103643416D02*
X140870124Y-102543417D01*
X140869535Y-102143418D02*
X140868401Y-101371400D01*
X134543800Y-103124000D02*
X135643799Y-103125606D01*
X136043798Y-103126190D02*
X137143797Y-103127796D01*
X137543797Y-103128380D02*
X138643796Y-103129985D01*
X139043795Y-103130569D02*
X140143794Y-103132175D01*
X140543794Y-103132759D02*
X141643792Y-103134365D01*
X142043792Y-103134949D02*
X143143791Y-103136555D01*
X143543790Y-103137139D02*
X144643789Y-103138745D01*
X145043789Y-103139328D02*
X146143788Y-103140934D01*
X146543787Y-103141518D02*
X147643786Y-103143124D01*
X148043786Y-103143708D02*
X149143784Y-103145314D01*
X149543784Y-103145898D02*
X150643783Y-103147504D01*
X151043782Y-103148088D02*
X151942800Y-103149399D01*
X147777200Y-118541800D02*
X147777200Y-117441800D01*
X147777200Y-117041800D02*
X147777200Y-115941800D01*
X147777200Y-115541800D02*
X147777200Y-114441800D01*
X147777200Y-114041800D02*
X147777200Y-112941800D01*
X147777200Y-112541800D02*
X147777200Y-111441800D01*
X147777200Y-111041800D02*
X147777200Y-109941800D01*
X147777200Y-109541800D02*
X147777200Y-108441800D01*
X147777200Y-108041800D02*
X147777200Y-106941800D01*
X147777200Y-106541800D02*
X147777200Y-105441800D01*
X147777200Y-105041800D02*
X147777200Y-103941800D01*
X147777200Y-103541800D02*
X147777200Y-102441800D01*
X147777200Y-102041800D02*
X147777200Y-101701600D01*
X134416800Y-113233200D02*
X135516800Y-113233200D01*
X135916800Y-113233200D02*
X137016800Y-113233200D01*
X137416800Y-113233200D02*
X138516800Y-113233200D01*
X138916800Y-113233200D02*
X140016800Y-113233200D01*
X140416800Y-113233200D02*
X141516800Y-113233200D01*
X141916800Y-113233200D02*
X143016800Y-113233200D01*
X143416800Y-113233200D02*
X144516800Y-113233200D01*
X144916800Y-113233200D02*
X146016800Y-113233200D01*
X146416800Y-113233200D02*
X147516800Y-113233200D01*
X147916800Y-113233200D02*
X149016800Y-113233200D01*
X149416800Y-113233200D02*
X150516800Y-113233200D01*
X150916800Y-113233200D02*
X152016800Y-113233200D01*
X152416800Y-113233200D02*
X153516800Y-113233200D01*
X153916800Y-113233200D02*
X154736800Y-113233200D01*
X157403800Y-114223800D02*
X166217600Y-114223800D01*
X166217600Y-119761000D01*
X157403800Y-119761000D01*
X157403800Y-114223800D01*
X134493000Y-106629200D02*
X135592999Y-106627827D01*
X135992999Y-106627327D02*
X137092998Y-106625954D01*
X137492998Y-106625455D02*
X138592997Y-106624081D01*
X138992996Y-106623582D02*
X140092996Y-106622209D01*
X140492995Y-106621709D02*
X141592994Y-106620336D01*
X141992994Y-106619837D02*
X143092993Y-106618463D01*
X143492993Y-106617964D02*
X144592992Y-106616591D01*
X144992992Y-106616091D02*
X146092991Y-106614718D01*
X146492991Y-106614219D02*
X147592990Y-106612845D01*
X147992989Y-106612346D02*
X149092989Y-106610973D01*
X149492988Y-106610473D02*
X150592987Y-106609100D01*
X150992987Y-106608601D02*
X152092986Y-106607227D01*
X152492986Y-106606728D02*
X153592985Y-106605355D01*
X153992985Y-106604855D02*
X154838213Y-106603800D01*
D11*
X138331392Y-101595990D02*
X138407582Y-101557895D01*
X138407582Y-101557895D02*
X138521868Y-101557895D01*
X138521868Y-101557895D02*
X138636154Y-101595990D01*
X138636154Y-101595990D02*
X138712344Y-101672180D01*
X138712344Y-101672180D02*
X138750439Y-101748371D01*
X138750439Y-101748371D02*
X138788535Y-101900752D01*
X138788535Y-101900752D02*
X138788535Y-102015038D01*
X138788535Y-102015038D02*
X138750439Y-102167419D01*
X138750439Y-102167419D02*
X138712344Y-102243609D01*
X138712344Y-102243609D02*
X138636154Y-102319800D01*
X138636154Y-102319800D02*
X138521868Y-102357895D01*
X138521868Y-102357895D02*
X138445677Y-102357895D01*
X138445677Y-102357895D02*
X138331392Y-102319800D01*
X138331392Y-102319800D02*
X138293296Y-102281704D01*
X138293296Y-102281704D02*
X138293296Y-102015038D01*
X138293296Y-102015038D02*
X138445677Y-102015038D01*
X137950439Y-102357895D02*
X137950439Y-101557895D01*
X137950439Y-101557895D02*
X137645677Y-101557895D01*
X137645677Y-101557895D02*
X137569487Y-101595990D01*
X137569487Y-101595990D02*
X137531392Y-101634085D01*
X137531392Y-101634085D02*
X137493296Y-101710276D01*
X137493296Y-101710276D02*
X137493296Y-101824561D01*
X137493296Y-101824561D02*
X137531392Y-101900752D01*
X137531392Y-101900752D02*
X137569487Y-101938847D01*
X137569487Y-101938847D02*
X137645677Y-101976942D01*
X137645677Y-101976942D02*
X137950439Y-101976942D01*
X137150439Y-102357895D02*
X137150439Y-101557895D01*
X136617106Y-101557895D02*
X136464725Y-101557895D01*
X136464725Y-101557895D02*
X136388535Y-101595990D01*
X136388535Y-101595990D02*
X136312344Y-101672180D01*
X136312344Y-101672180D02*
X136274249Y-101824561D01*
X136274249Y-101824561D02*
X136274249Y-102091228D01*
X136274249Y-102091228D02*
X136312344Y-102243609D01*
X136312344Y-102243609D02*
X136388535Y-102319800D01*
X136388535Y-102319800D02*
X136464725Y-102357895D01*
X136464725Y-102357895D02*
X136617106Y-102357895D01*
X136617106Y-102357895D02*
X136693297Y-102319800D01*
X136693297Y-102319800D02*
X136769487Y-102243609D01*
X136769487Y-102243609D02*
X136807583Y-102091228D01*
X136807583Y-102091228D02*
X136807583Y-101824561D01*
X136807583Y-101824561D02*
X136769487Y-101672180D01*
X136769487Y-101672180D02*
X136693297Y-101595990D01*
X136693297Y-101595990D02*
X136617106Y-101557895D01*
X135969488Y-101634085D02*
X135931392Y-101595990D01*
X135931392Y-101595990D02*
X135855202Y-101557895D01*
X135855202Y-101557895D02*
X135664726Y-101557895D01*
X135664726Y-101557895D02*
X135588535Y-101595990D01*
X135588535Y-101595990D02*
X135550440Y-101634085D01*
X135550440Y-101634085D02*
X135512345Y-101710276D01*
X135512345Y-101710276D02*
X135512345Y-101786466D01*
X135512345Y-101786466D02*
X135550440Y-101900752D01*
X135550440Y-101900752D02*
X136007583Y-102357895D01*
X136007583Y-102357895D02*
X135512345Y-102357895D01*
X139086295Y-120456560D02*
X138552961Y-120456560D01*
X138286295Y-120456560D02*
X138324390Y-120418464D01*
X138324390Y-120418464D02*
X138362485Y-120456560D01*
X138362485Y-120456560D02*
X138324390Y-120494655D01*
X138324390Y-120494655D02*
X138286295Y-120456560D01*
X138286295Y-120456560D02*
X138362485Y-120456560D01*
X138362485Y-120799416D02*
X138324390Y-120837512D01*
X138324390Y-120837512D02*
X138286295Y-120913702D01*
X138286295Y-120913702D02*
X138286295Y-121104178D01*
X138286295Y-121104178D02*
X138324390Y-121180369D01*
X138324390Y-121180369D02*
X138362485Y-121218464D01*
X138362485Y-121218464D02*
X138438676Y-121256559D01*
X138438676Y-121256559D02*
X138514866Y-121256559D01*
X138514866Y-121256559D02*
X138629152Y-121218464D01*
X138629152Y-121218464D02*
X139086295Y-120761321D01*
X139086295Y-120761321D02*
X139086295Y-121256559D01*
X139048200Y-121942274D02*
X139086295Y-121866083D01*
X139086295Y-121866083D02*
X139086295Y-121713702D01*
X139086295Y-121713702D02*
X139048200Y-121637512D01*
X139048200Y-121637512D02*
X139010104Y-121599417D01*
X139010104Y-121599417D02*
X138933914Y-121561321D01*
X138933914Y-121561321D02*
X138705342Y-121561321D01*
X138705342Y-121561321D02*
X138629152Y-121599417D01*
X138629152Y-121599417D02*
X138591057Y-121637512D01*
X138591057Y-121637512D02*
X138552961Y-121713702D01*
X138552961Y-121713702D02*
X138552961Y-121866083D01*
X138552961Y-121866083D02*
X138591057Y-121942274D01*
X165712535Y-118829885D02*
X165674439Y-118791790D01*
X165674439Y-118791790D02*
X165598249Y-118753695D01*
X165598249Y-118753695D02*
X165407773Y-118753695D01*
X165407773Y-118753695D02*
X165331582Y-118791790D01*
X165331582Y-118791790D02*
X165293487Y-118829885D01*
X165293487Y-118829885D02*
X165255392Y-118906076D01*
X165255392Y-118906076D02*
X165255392Y-118982266D01*
X165255392Y-118982266D02*
X165293487Y-119096552D01*
X165293487Y-119096552D02*
X165750630Y-119553695D01*
X165750630Y-119553695D02*
X165255392Y-119553695D01*
X164912534Y-119020361D02*
X164912534Y-119553695D01*
X164912534Y-119096552D02*
X164874439Y-119058457D01*
X164874439Y-119058457D02*
X164798249Y-119020361D01*
X164798249Y-119020361D02*
X164683963Y-119020361D01*
X164683963Y-119020361D02*
X164607772Y-119058457D01*
X164607772Y-119058457D02*
X164569677Y-119134647D01*
X164569677Y-119134647D02*
X164569677Y-119553695D01*
X163845867Y-119553695D02*
X163845867Y-118753695D01*
X163845867Y-119515600D02*
X163922058Y-119553695D01*
X163922058Y-119553695D02*
X164074439Y-119553695D01*
X164074439Y-119553695D02*
X164150629Y-119515600D01*
X164150629Y-119515600D02*
X164188724Y-119477504D01*
X164188724Y-119477504D02*
X164226820Y-119401314D01*
X164226820Y-119401314D02*
X164226820Y-119172742D01*
X164226820Y-119172742D02*
X164188724Y-119096552D01*
X164188724Y-119096552D02*
X164150629Y-119058457D01*
X164150629Y-119058457D02*
X164074439Y-119020361D01*
X164074439Y-119020361D02*
X163922058Y-119020361D01*
X163922058Y-119020361D02*
X163845867Y-119058457D01*
X162931581Y-118753695D02*
X162436343Y-118753695D01*
X162436343Y-118753695D02*
X162703009Y-119058457D01*
X162703009Y-119058457D02*
X162588724Y-119058457D01*
X162588724Y-119058457D02*
X162512533Y-119096552D01*
X162512533Y-119096552D02*
X162474438Y-119134647D01*
X162474438Y-119134647D02*
X162436343Y-119210838D01*
X162436343Y-119210838D02*
X162436343Y-119401314D01*
X162436343Y-119401314D02*
X162474438Y-119477504D01*
X162474438Y-119477504D02*
X162512533Y-119515600D01*
X162512533Y-119515600D02*
X162588724Y-119553695D01*
X162588724Y-119553695D02*
X162817295Y-119553695D01*
X162817295Y-119553695D02*
X162893486Y-119515600D01*
X162893486Y-119515600D02*
X162931581Y-119477504D01*
X162169676Y-119020361D02*
X161979200Y-119553695D01*
X161979200Y-119553695D02*
X161788723Y-119020361D01*
X161560152Y-118753695D02*
X161064914Y-118753695D01*
X161064914Y-118753695D02*
X161331580Y-119058457D01*
X161331580Y-119058457D02*
X161217295Y-119058457D01*
X161217295Y-119058457D02*
X161141104Y-119096552D01*
X161141104Y-119096552D02*
X161103009Y-119134647D01*
X161103009Y-119134647D02*
X161064914Y-119210838D01*
X161064914Y-119210838D02*
X161064914Y-119401314D01*
X161064914Y-119401314D02*
X161103009Y-119477504D01*
X161103009Y-119477504D02*
X161141104Y-119515600D01*
X161141104Y-119515600D02*
X161217295Y-119553695D01*
X161217295Y-119553695D02*
X161445866Y-119553695D01*
X161445866Y-119553695D02*
X161522057Y-119515600D01*
X161522057Y-119515600D02*
X161560152Y-119477504D01*
X160112532Y-119020361D02*
X160112532Y-119820361D01*
X160112532Y-119058457D02*
X160036342Y-119020361D01*
X160036342Y-119020361D02*
X159883961Y-119020361D01*
X159883961Y-119020361D02*
X159807770Y-119058457D01*
X159807770Y-119058457D02*
X159769675Y-119096552D01*
X159769675Y-119096552D02*
X159731580Y-119172742D01*
X159731580Y-119172742D02*
X159731580Y-119401314D01*
X159731580Y-119401314D02*
X159769675Y-119477504D01*
X159769675Y-119477504D02*
X159807770Y-119515600D01*
X159807770Y-119515600D02*
X159883961Y-119553695D01*
X159883961Y-119553695D02*
X160036342Y-119553695D01*
X160036342Y-119553695D02*
X160112532Y-119515600D01*
X159464913Y-119020361D02*
X159312532Y-119553695D01*
X159312532Y-119553695D02*
X159160151Y-119172742D01*
X159160151Y-119172742D02*
X159007770Y-119553695D01*
X159007770Y-119553695D02*
X158855389Y-119020361D01*
X158550627Y-119553695D02*
X158550627Y-119020361D01*
X158550627Y-119172742D02*
X158512532Y-119096552D01*
X158512532Y-119096552D02*
X158474437Y-119058457D01*
X158474437Y-119058457D02*
X158398246Y-119020361D01*
X158398246Y-119020361D02*
X158322056Y-119020361D01*
X131689239Y-96846095D02*
X131689239Y-96046095D01*
X131689239Y-96046095D02*
X131498763Y-96046095D01*
X131498763Y-96046095D02*
X131384477Y-96084190D01*
X131384477Y-96084190D02*
X131308287Y-96160380D01*
X131308287Y-96160380D02*
X131270192Y-96236571D01*
X131270192Y-96236571D02*
X131232096Y-96388952D01*
X131232096Y-96388952D02*
X131232096Y-96503238D01*
X131232096Y-96503238D02*
X131270192Y-96655619D01*
X131270192Y-96655619D02*
X131308287Y-96731809D01*
X131308287Y-96731809D02*
X131384477Y-96808000D01*
X131384477Y-96808000D02*
X131498763Y-96846095D01*
X131498763Y-96846095D02*
X131689239Y-96846095D01*
X130889239Y-96846095D02*
X130889239Y-96312761D01*
X130889239Y-96046095D02*
X130927335Y-96084190D01*
X130927335Y-96084190D02*
X130889239Y-96122285D01*
X130889239Y-96122285D02*
X130851144Y-96084190D01*
X130851144Y-96084190D02*
X130889239Y-96046095D01*
X130889239Y-96046095D02*
X130889239Y-96122285D01*
X130546383Y-96808000D02*
X130470192Y-96846095D01*
X130470192Y-96846095D02*
X130317811Y-96846095D01*
X130317811Y-96846095D02*
X130241621Y-96808000D01*
X130241621Y-96808000D02*
X130203525Y-96731809D01*
X130203525Y-96731809D02*
X130203525Y-96693714D01*
X130203525Y-96693714D02*
X130241621Y-96617523D01*
X130241621Y-96617523D02*
X130317811Y-96579428D01*
X130317811Y-96579428D02*
X130432097Y-96579428D01*
X130432097Y-96579428D02*
X130508287Y-96541333D01*
X130508287Y-96541333D02*
X130546383Y-96465142D01*
X130546383Y-96465142D02*
X130546383Y-96427047D01*
X130546383Y-96427047D02*
X130508287Y-96350857D01*
X130508287Y-96350857D02*
X130432097Y-96312761D01*
X130432097Y-96312761D02*
X130317811Y-96312761D01*
X130317811Y-96312761D02*
X130241621Y-96350857D01*
X129860668Y-96312761D02*
X129860668Y-97112761D01*
X129860668Y-96350857D02*
X129784478Y-96312761D01*
X129784478Y-96312761D02*
X129632097Y-96312761D01*
X129632097Y-96312761D02*
X129555906Y-96350857D01*
X129555906Y-96350857D02*
X129517811Y-96388952D01*
X129517811Y-96388952D02*
X129479716Y-96465142D01*
X129479716Y-96465142D02*
X129479716Y-96693714D01*
X129479716Y-96693714D02*
X129517811Y-96769904D01*
X129517811Y-96769904D02*
X129555906Y-96808000D01*
X129555906Y-96808000D02*
X129632097Y-96846095D01*
X129632097Y-96846095D02*
X129784478Y-96846095D01*
X129784478Y-96846095D02*
X129860668Y-96808000D01*
X129022573Y-96846095D02*
X129098763Y-96808000D01*
X129098763Y-96808000D02*
X129136858Y-96731809D01*
X129136858Y-96731809D02*
X129136858Y-96046095D01*
X128374953Y-96846095D02*
X128374953Y-96427047D01*
X128374953Y-96427047D02*
X128413048Y-96350857D01*
X128413048Y-96350857D02*
X128489239Y-96312761D01*
X128489239Y-96312761D02*
X128641620Y-96312761D01*
X128641620Y-96312761D02*
X128717810Y-96350857D01*
X128374953Y-96808000D02*
X128451144Y-96846095D01*
X128451144Y-96846095D02*
X128641620Y-96846095D01*
X128641620Y-96846095D02*
X128717810Y-96808000D01*
X128717810Y-96808000D02*
X128755906Y-96731809D01*
X128755906Y-96731809D02*
X128755906Y-96655619D01*
X128755906Y-96655619D02*
X128717810Y-96579428D01*
X128717810Y-96579428D02*
X128641620Y-96541333D01*
X128641620Y-96541333D02*
X128451144Y-96541333D01*
X128451144Y-96541333D02*
X128374953Y-96503238D01*
X128070191Y-96312761D02*
X127879715Y-96846095D01*
X127689238Y-96312761D02*
X127879715Y-96846095D01*
X127879715Y-96846095D02*
X127955905Y-97036571D01*
X127955905Y-97036571D02*
X127994000Y-97074666D01*
X127994000Y-97074666D02*
X128070191Y-97112761D01*
D12*
X163703163Y-91486537D02*
X163516219Y-91548851D01*
X163516219Y-91548851D02*
X163204646Y-91548851D01*
X163204646Y-91548851D02*
X163080016Y-91486537D01*
X163080016Y-91486537D02*
X163017702Y-91424222D01*
X163017702Y-91424222D02*
X162955387Y-91299593D01*
X162955387Y-91299593D02*
X162955387Y-91174963D01*
X162955387Y-91174963D02*
X163017702Y-91050334D01*
X163017702Y-91050334D02*
X163080016Y-90988019D01*
X163080016Y-90988019D02*
X163204646Y-90925705D01*
X163204646Y-90925705D02*
X163453904Y-90863390D01*
X163453904Y-90863390D02*
X163578534Y-90801075D01*
X163578534Y-90801075D02*
X163640848Y-90738761D01*
X163640848Y-90738761D02*
X163703163Y-90614131D01*
X163703163Y-90614131D02*
X163703163Y-90489502D01*
X163703163Y-90489502D02*
X163640848Y-90364873D01*
X163640848Y-90364873D02*
X163578534Y-90302558D01*
X163578534Y-90302558D02*
X163453904Y-90240243D01*
X163453904Y-90240243D02*
X163142331Y-90240243D01*
X163142331Y-90240243D02*
X162955387Y-90302558D01*
X162394555Y-91548851D02*
X162394555Y-90240243D01*
X162394555Y-90863390D02*
X161646779Y-90863390D01*
X161646779Y-91548851D02*
X161646779Y-90240243D01*
X161023632Y-91424222D02*
X160961318Y-91486537D01*
X160961318Y-91486537D02*
X161023632Y-91548851D01*
X161023632Y-91548851D02*
X161085947Y-91486537D01*
X161085947Y-91486537D02*
X161023632Y-91424222D01*
X161023632Y-91424222D02*
X161023632Y-91548851D01*
X160400485Y-91548851D02*
X160400485Y-90240243D01*
X160400485Y-90240243D02*
X159964283Y-91174963D01*
X159964283Y-91174963D02*
X159528080Y-90240243D01*
X159528080Y-90240243D02*
X159528080Y-91548851D01*
X158468731Y-90863390D02*
X158281787Y-90925705D01*
X158281787Y-90925705D02*
X158219472Y-90988019D01*
X158219472Y-90988019D02*
X158157157Y-91112649D01*
X158157157Y-91112649D02*
X158157157Y-91299593D01*
X158157157Y-91299593D02*
X158219472Y-91424222D01*
X158219472Y-91424222D02*
X158281787Y-91486537D01*
X158281787Y-91486537D02*
X158406416Y-91548851D01*
X158406416Y-91548851D02*
X158904933Y-91548851D01*
X158904933Y-91548851D02*
X158904933Y-90240243D01*
X158904933Y-90240243D02*
X158468731Y-90240243D01*
X158468731Y-90240243D02*
X158344101Y-90302558D01*
X158344101Y-90302558D02*
X158281787Y-90364873D01*
X158281787Y-90364873D02*
X158219472Y-90489502D01*
X158219472Y-90489502D02*
X158219472Y-90614131D01*
X158219472Y-90614131D02*
X158281787Y-90738761D01*
X158281787Y-90738761D02*
X158344101Y-90801075D01*
X158344101Y-90801075D02*
X158468731Y-90863390D01*
X158468731Y-90863390D02*
X158904933Y-90863390D01*
X157596325Y-91424222D02*
X157534011Y-91486537D01*
X157534011Y-91486537D02*
X157596325Y-91548851D01*
X157596325Y-91548851D02*
X157658640Y-91486537D01*
X157658640Y-91486537D02*
X157596325Y-91424222D01*
X157596325Y-91424222D02*
X157596325Y-91548851D01*
X157035493Y-90364873D02*
X156973178Y-90302558D01*
X156973178Y-90302558D02*
X156848549Y-90240243D01*
X156848549Y-90240243D02*
X156536976Y-90240243D01*
X156536976Y-90240243D02*
X156412346Y-90302558D01*
X156412346Y-90302558D02*
X156350032Y-90364873D01*
X156350032Y-90364873D02*
X156287717Y-90489502D01*
X156287717Y-90489502D02*
X156287717Y-90614131D01*
X156287717Y-90614131D02*
X156350032Y-90801075D01*
X156350032Y-90801075D02*
X157097808Y-91548851D01*
X157097808Y-91548851D02*
X156287717Y-91548851D01*
X154979109Y-91548851D02*
X155415312Y-90925705D01*
X155726885Y-91548851D02*
X155726885Y-90240243D01*
X155726885Y-90240243D02*
X155228368Y-90240243D01*
X155228368Y-90240243D02*
X155103739Y-90302558D01*
X155103739Y-90302558D02*
X155041424Y-90364873D01*
X155041424Y-90364873D02*
X154979109Y-90489502D01*
X154979109Y-90489502D02*
X154979109Y-90676446D01*
X154979109Y-90676446D02*
X155041424Y-90801075D01*
X155041424Y-90801075D02*
X155103739Y-90863390D01*
X155103739Y-90863390D02*
X155228368Y-90925705D01*
X155228368Y-90925705D02*
X155726885Y-90925705D01*
X153795131Y-91548851D02*
X154418277Y-91548851D01*
X154418277Y-91548851D02*
X154418277Y-90240243D01*
X152361893Y-90863390D02*
X151925691Y-90863390D01*
X151738747Y-91548851D02*
X152361893Y-91548851D01*
X152361893Y-91548851D02*
X152361893Y-90240243D01*
X152361893Y-90240243D02*
X151738747Y-90240243D01*
X151240229Y-91486537D02*
X151053285Y-91548851D01*
X151053285Y-91548851D02*
X150741712Y-91548851D01*
X150741712Y-91548851D02*
X150617082Y-91486537D01*
X150617082Y-91486537D02*
X150554768Y-91424222D01*
X150554768Y-91424222D02*
X150492453Y-91299593D01*
X150492453Y-91299593D02*
X150492453Y-91174963D01*
X150492453Y-91174963D02*
X150554768Y-91050334D01*
X150554768Y-91050334D02*
X150617082Y-90988019D01*
X150617082Y-90988019D02*
X150741712Y-90925705D01*
X150741712Y-90925705D02*
X150990970Y-90863390D01*
X150990970Y-90863390D02*
X151115600Y-90801075D01*
X151115600Y-90801075D02*
X151177914Y-90738761D01*
X151177914Y-90738761D02*
X151240229Y-90614131D01*
X151240229Y-90614131D02*
X151240229Y-90489502D01*
X151240229Y-90489502D02*
X151177914Y-90364873D01*
X151177914Y-90364873D02*
X151115600Y-90302558D01*
X151115600Y-90302558D02*
X150990970Y-90240243D01*
X150990970Y-90240243D02*
X150679397Y-90240243D01*
X150679397Y-90240243D02*
X150492453Y-90302558D01*
X149931621Y-91548851D02*
X149931621Y-90240243D01*
X149931621Y-90240243D02*
X149433104Y-90240243D01*
X149433104Y-90240243D02*
X149308475Y-90302558D01*
X149308475Y-90302558D02*
X149246160Y-90364873D01*
X149246160Y-90364873D02*
X149183845Y-90489502D01*
X149183845Y-90489502D02*
X149183845Y-90676446D01*
X149183845Y-90676446D02*
X149246160Y-90801075D01*
X149246160Y-90801075D02*
X149308475Y-90863390D01*
X149308475Y-90863390D02*
X149433104Y-90925705D01*
X149433104Y-90925705D02*
X149931621Y-90925705D01*
X148747643Y-90240243D02*
X147937552Y-90240243D01*
X147937552Y-90240243D02*
X148373755Y-90738761D01*
X148373755Y-90738761D02*
X148186811Y-90738761D01*
X148186811Y-90738761D02*
X148062181Y-90801075D01*
X148062181Y-90801075D02*
X147999867Y-90863390D01*
X147999867Y-90863390D02*
X147937552Y-90988019D01*
X147937552Y-90988019D02*
X147937552Y-91299593D01*
X147937552Y-91299593D02*
X147999867Y-91424222D01*
X147999867Y-91424222D02*
X148062181Y-91486537D01*
X148062181Y-91486537D02*
X148186811Y-91548851D01*
X148186811Y-91548851D02*
X148560699Y-91548851D01*
X148560699Y-91548851D02*
X148685328Y-91486537D01*
X148685328Y-91486537D02*
X148747643Y-91424222D01*
X147439035Y-90364873D02*
X147376720Y-90302558D01*
X147376720Y-90302558D02*
X147252091Y-90240243D01*
X147252091Y-90240243D02*
X146940518Y-90240243D01*
X146940518Y-90240243D02*
X146815888Y-90302558D01*
X146815888Y-90302558D02*
X146753574Y-90364873D01*
X146753574Y-90364873D02*
X146691259Y-90489502D01*
X146691259Y-90489502D02*
X146691259Y-90614131D01*
X146691259Y-90614131D02*
X146753574Y-90801075D01*
X146753574Y-90801075D02*
X147501350Y-91548851D01*
X147501350Y-91548851D02*
X146691259Y-91548851D01*
X146130427Y-91050334D02*
X145133393Y-91050334D01*
X144572561Y-91486537D02*
X144385617Y-91548851D01*
X144385617Y-91548851D02*
X144074044Y-91548851D01*
X144074044Y-91548851D02*
X143949414Y-91486537D01*
X143949414Y-91486537D02*
X143887100Y-91424222D01*
X143887100Y-91424222D02*
X143824785Y-91299593D01*
X143824785Y-91299593D02*
X143824785Y-91174963D01*
X143824785Y-91174963D02*
X143887100Y-91050334D01*
X143887100Y-91050334D02*
X143949414Y-90988019D01*
X143949414Y-90988019D02*
X144074044Y-90925705D01*
X144074044Y-90925705D02*
X144323302Y-90863390D01*
X144323302Y-90863390D02*
X144447932Y-90801075D01*
X144447932Y-90801075D02*
X144510246Y-90738761D01*
X144510246Y-90738761D02*
X144572561Y-90614131D01*
X144572561Y-90614131D02*
X144572561Y-90489502D01*
X144572561Y-90489502D02*
X144510246Y-90364873D01*
X144510246Y-90364873D02*
X144447932Y-90302558D01*
X144447932Y-90302558D02*
X144323302Y-90240243D01*
X144323302Y-90240243D02*
X144011729Y-90240243D01*
X144011729Y-90240243D02*
X143824785Y-90302558D01*
X143388583Y-90240243D02*
X142578492Y-90240243D01*
X142578492Y-90240243D02*
X143014695Y-90738761D01*
X143014695Y-90738761D02*
X142827751Y-90738761D01*
X142827751Y-90738761D02*
X142703121Y-90801075D01*
X142703121Y-90801075D02*
X142640807Y-90863390D01*
X142640807Y-90863390D02*
X142578492Y-90988019D01*
X142578492Y-90988019D02*
X142578492Y-91299593D01*
X142578492Y-91299593D02*
X142640807Y-91424222D01*
X142640807Y-91424222D02*
X142703121Y-91486537D01*
X142703121Y-91486537D02*
X142827751Y-91548851D01*
X142827751Y-91548851D02*
X143201639Y-91548851D01*
X143201639Y-91548851D02*
X143326268Y-91486537D01*
X143326268Y-91486537D02*
X143388583Y-91424222D01*
X142017660Y-91050334D02*
X141020626Y-91050334D01*
X140397479Y-91548851D02*
X140397479Y-90676446D01*
X140397479Y-90801075D02*
X140335165Y-90738761D01*
X140335165Y-90738761D02*
X140210535Y-90676446D01*
X140210535Y-90676446D02*
X140023591Y-90676446D01*
X140023591Y-90676446D02*
X139898962Y-90738761D01*
X139898962Y-90738761D02*
X139836647Y-90863390D01*
X139836647Y-90863390D02*
X139836647Y-91548851D01*
X139836647Y-90863390D02*
X139774333Y-90738761D01*
X139774333Y-90738761D02*
X139649703Y-90676446D01*
X139649703Y-90676446D02*
X139462759Y-90676446D01*
X139462759Y-90676446D02*
X139338130Y-90738761D01*
X139338130Y-90738761D02*
X139275815Y-90863390D01*
X139275815Y-90863390D02*
X139275815Y-91548851D01*
X138652668Y-91548851D02*
X138652668Y-90676446D01*
X138652668Y-90240243D02*
X138714983Y-90302558D01*
X138714983Y-90302558D02*
X138652668Y-90364873D01*
X138652668Y-90364873D02*
X138590354Y-90302558D01*
X138590354Y-90302558D02*
X138652668Y-90240243D01*
X138652668Y-90240243D02*
X138652668Y-90364873D01*
X138029521Y-90676446D02*
X138029521Y-91548851D01*
X138029521Y-90801075D02*
X137967207Y-90738761D01*
X137967207Y-90738761D02*
X137842577Y-90676446D01*
X137842577Y-90676446D02*
X137655633Y-90676446D01*
X137655633Y-90676446D02*
X137531004Y-90738761D01*
X137531004Y-90738761D02*
X137468689Y-90863390D01*
X137468689Y-90863390D02*
X137468689Y-91548851D01*
X136845542Y-91548851D02*
X136845542Y-90676446D01*
X136845542Y-90240243D02*
X136907857Y-90302558D01*
X136907857Y-90302558D02*
X136845542Y-90364873D01*
X136845542Y-90364873D02*
X136783228Y-90302558D01*
X136783228Y-90302558D02*
X136845542Y-90240243D01*
X136845542Y-90240243D02*
X136845542Y-90364873D01*
X135349990Y-90676446D02*
X135038416Y-91548851D01*
X135038416Y-91548851D02*
X134726843Y-90676446D01*
X134228325Y-91424222D02*
X134166011Y-91486537D01*
X134166011Y-91486537D02*
X134228325Y-91548851D01*
X134228325Y-91548851D02*
X134290640Y-91486537D01*
X134290640Y-91486537D02*
X134228325Y-91424222D01*
X134228325Y-91424222D02*
X134228325Y-91548851D01*
X132919717Y-91548851D02*
X133667493Y-91548851D01*
X133293605Y-91548851D02*
X133293605Y-90240243D01*
X133293605Y-90240243D02*
X133418234Y-90427187D01*
X133418234Y-90427187D02*
X133542864Y-90551817D01*
X133542864Y-90551817D02*
X133667493Y-90614131D01*
D11*
X154461504Y-105654239D02*
X155261504Y-105654239D01*
X155261504Y-105654239D02*
X155261504Y-105463763D01*
X155261504Y-105463763D02*
X155223409Y-105349477D01*
X155223409Y-105349477D02*
X155147219Y-105273287D01*
X155147219Y-105273287D02*
X155071028Y-105235192D01*
X155071028Y-105235192D02*
X154918647Y-105197096D01*
X154918647Y-105197096D02*
X154804361Y-105197096D01*
X154804361Y-105197096D02*
X154651980Y-105235192D01*
X154651980Y-105235192D02*
X154575790Y-105273287D01*
X154575790Y-105273287D02*
X154499600Y-105349477D01*
X154499600Y-105349477D02*
X154461504Y-105463763D01*
X154461504Y-105463763D02*
X154461504Y-105654239D01*
X154461504Y-104854239D02*
X154994838Y-104854239D01*
X155261504Y-104854239D02*
X155223409Y-104892335D01*
X155223409Y-104892335D02*
X155185314Y-104854239D01*
X155185314Y-104854239D02*
X155223409Y-104816144D01*
X155223409Y-104816144D02*
X155261504Y-104854239D01*
X155261504Y-104854239D02*
X155185314Y-104854239D01*
X154994838Y-104130430D02*
X154347219Y-104130430D01*
X154347219Y-104130430D02*
X154271028Y-104168525D01*
X154271028Y-104168525D02*
X154232933Y-104206621D01*
X154232933Y-104206621D02*
X154194838Y-104282811D01*
X154194838Y-104282811D02*
X154194838Y-104397097D01*
X154194838Y-104397097D02*
X154232933Y-104473287D01*
X154499600Y-104130430D02*
X154461504Y-104206621D01*
X154461504Y-104206621D02*
X154461504Y-104359002D01*
X154461504Y-104359002D02*
X154499600Y-104435192D01*
X154499600Y-104435192D02*
X154537695Y-104473287D01*
X154537695Y-104473287D02*
X154613885Y-104511383D01*
X154613885Y-104511383D02*
X154842457Y-104511383D01*
X154842457Y-104511383D02*
X154918647Y-104473287D01*
X154918647Y-104473287D02*
X154956742Y-104435192D01*
X154956742Y-104435192D02*
X154994838Y-104359002D01*
X154994838Y-104359002D02*
X154994838Y-104206621D01*
X154994838Y-104206621D02*
X154956742Y-104130430D01*
X154461504Y-103749477D02*
X154994838Y-103749477D01*
X155261504Y-103749477D02*
X155223409Y-103787573D01*
X155223409Y-103787573D02*
X155185314Y-103749477D01*
X155185314Y-103749477D02*
X155223409Y-103711382D01*
X155223409Y-103711382D02*
X155261504Y-103749477D01*
X155261504Y-103749477D02*
X155185314Y-103749477D01*
X154994838Y-103482811D02*
X154994838Y-103178049D01*
X155261504Y-103368525D02*
X154575790Y-103368525D01*
X154575790Y-103368525D02*
X154499600Y-103330430D01*
X154499600Y-103330430D02*
X154461504Y-103254240D01*
X154461504Y-103254240D02*
X154461504Y-103178049D01*
X154461504Y-102568525D02*
X154880552Y-102568525D01*
X154880552Y-102568525D02*
X154956742Y-102606620D01*
X154956742Y-102606620D02*
X154994838Y-102682811D01*
X154994838Y-102682811D02*
X154994838Y-102835192D01*
X154994838Y-102835192D02*
X154956742Y-102911382D01*
X154499600Y-102568525D02*
X154461504Y-102644716D01*
X154461504Y-102644716D02*
X154461504Y-102835192D01*
X154461504Y-102835192D02*
X154499600Y-102911382D01*
X154499600Y-102911382D02*
X154575790Y-102949478D01*
X154575790Y-102949478D02*
X154651980Y-102949478D01*
X154651980Y-102949478D02*
X154728171Y-102911382D01*
X154728171Y-102911382D02*
X154766266Y-102835192D01*
X154766266Y-102835192D02*
X154766266Y-102644716D01*
X154766266Y-102644716D02*
X154804361Y-102568525D01*
X154461504Y-102073287D02*
X154499600Y-102149477D01*
X154499600Y-102149477D02*
X154575790Y-102187572D01*
X154575790Y-102187572D02*
X155261504Y-102187572D01*
X137727400Y-120266064D02*
X137765495Y-120380350D01*
X137765495Y-120380350D02*
X137765495Y-120570826D01*
X137765495Y-120570826D02*
X137727400Y-120647017D01*
X137727400Y-120647017D02*
X137689304Y-120685112D01*
X137689304Y-120685112D02*
X137613114Y-120723207D01*
X137613114Y-120723207D02*
X137536923Y-120723207D01*
X137536923Y-120723207D02*
X137460733Y-120685112D01*
X137460733Y-120685112D02*
X137422638Y-120647017D01*
X137422638Y-120647017D02*
X137384542Y-120570826D01*
X137384542Y-120570826D02*
X137346447Y-120418445D01*
X137346447Y-120418445D02*
X137308352Y-120342255D01*
X137308352Y-120342255D02*
X137270257Y-120304160D01*
X137270257Y-120304160D02*
X137194066Y-120266064D01*
X137194066Y-120266064D02*
X137117876Y-120266064D01*
X137117876Y-120266064D02*
X137041685Y-120304160D01*
X137041685Y-120304160D02*
X137003590Y-120342255D01*
X137003590Y-120342255D02*
X136965495Y-120418445D01*
X136965495Y-120418445D02*
X136965495Y-120608922D01*
X136965495Y-120608922D02*
X137003590Y-120723207D01*
X137232161Y-120951779D02*
X137232161Y-121256541D01*
X136965495Y-121066065D02*
X137651209Y-121066065D01*
X137651209Y-121066065D02*
X137727400Y-121104160D01*
X137727400Y-121104160D02*
X137765495Y-121180350D01*
X137765495Y-121180350D02*
X137765495Y-121256541D01*
X137727400Y-121827970D02*
X137765495Y-121751779D01*
X137765495Y-121751779D02*
X137765495Y-121599398D01*
X137765495Y-121599398D02*
X137727400Y-121523208D01*
X137727400Y-121523208D02*
X137651209Y-121485112D01*
X137651209Y-121485112D02*
X137346447Y-121485112D01*
X137346447Y-121485112D02*
X137270257Y-121523208D01*
X137270257Y-121523208D02*
X137232161Y-121599398D01*
X137232161Y-121599398D02*
X137232161Y-121751779D01*
X137232161Y-121751779D02*
X137270257Y-121827970D01*
X137270257Y-121827970D02*
X137346447Y-121866065D01*
X137346447Y-121866065D02*
X137422638Y-121866065D01*
X137422638Y-121866065D02*
X137498828Y-121485112D01*
X137765495Y-122208922D02*
X137232161Y-122208922D01*
X137308352Y-122208922D02*
X137270257Y-122247017D01*
X137270257Y-122247017D02*
X137232161Y-122323207D01*
X137232161Y-122323207D02*
X137232161Y-122437493D01*
X137232161Y-122437493D02*
X137270257Y-122513684D01*
X137270257Y-122513684D02*
X137346447Y-122551779D01*
X137346447Y-122551779D02*
X137765495Y-122551779D01*
X137346447Y-122551779D02*
X137270257Y-122589874D01*
X137270257Y-122589874D02*
X137232161Y-122666065D01*
X137232161Y-122666065D02*
X137232161Y-122780350D01*
X137232161Y-122780350D02*
X137270257Y-122856541D01*
X137270257Y-122856541D02*
X137346447Y-122894636D01*
X137346447Y-122894636D02*
X137765495Y-122894636D01*
X137765495Y-123275589D02*
X137232161Y-123275589D01*
X137308352Y-123275589D02*
X137270257Y-123313684D01*
X137270257Y-123313684D02*
X137232161Y-123389874D01*
X137232161Y-123389874D02*
X137232161Y-123504160D01*
X137232161Y-123504160D02*
X137270257Y-123580351D01*
X137270257Y-123580351D02*
X137346447Y-123618446D01*
X137346447Y-123618446D02*
X137765495Y-123618446D01*
X137346447Y-123618446D02*
X137270257Y-123656541D01*
X137270257Y-123656541D02*
X137232161Y-123732732D01*
X137232161Y-123732732D02*
X137232161Y-123847017D01*
X137232161Y-123847017D02*
X137270257Y-123923208D01*
X137270257Y-123923208D02*
X137346447Y-123961303D01*
X137346447Y-123961303D02*
X137765495Y-123961303D01*
X137765495Y-124685113D02*
X137346447Y-124685113D01*
X137346447Y-124685113D02*
X137270257Y-124647018D01*
X137270257Y-124647018D02*
X137232161Y-124570827D01*
X137232161Y-124570827D02*
X137232161Y-124418446D01*
X137232161Y-124418446D02*
X137270257Y-124342256D01*
X137727400Y-124685113D02*
X137765495Y-124608922D01*
X137765495Y-124608922D02*
X137765495Y-124418446D01*
X137765495Y-124418446D02*
X137727400Y-124342256D01*
X137727400Y-124342256D02*
X137651209Y-124304160D01*
X137651209Y-124304160D02*
X137575019Y-124304160D01*
X137575019Y-124304160D02*
X137498828Y-124342256D01*
X137498828Y-124342256D02*
X137460733Y-124418446D01*
X137460733Y-124418446D02*
X137460733Y-124608922D01*
X137460733Y-124608922D02*
X137422638Y-124685113D01*
X137841685Y-125599399D02*
X137803590Y-125523209D01*
X137803590Y-125523209D02*
X137727400Y-125447018D01*
X137727400Y-125447018D02*
X137613114Y-125332732D01*
X137613114Y-125332732D02*
X137575019Y-125256542D01*
X137575019Y-125256542D02*
X137575019Y-125180351D01*
X137765495Y-125218447D02*
X137727400Y-125142256D01*
X137727400Y-125142256D02*
X137651209Y-125066066D01*
X137651209Y-125066066D02*
X137498828Y-125027970D01*
X137498828Y-125027970D02*
X137232161Y-125027970D01*
X137232161Y-125027970D02*
X137079780Y-125066066D01*
X137079780Y-125066066D02*
X137003590Y-125142256D01*
X137003590Y-125142256D02*
X136965495Y-125218447D01*
X136965495Y-125218447D02*
X136965495Y-125370828D01*
X136965495Y-125370828D02*
X137003590Y-125447018D01*
X137003590Y-125447018D02*
X137079780Y-125523209D01*
X137079780Y-125523209D02*
X137232161Y-125561304D01*
X137232161Y-125561304D02*
X137498828Y-125561304D01*
X137498828Y-125561304D02*
X137651209Y-125523209D01*
X137651209Y-125523209D02*
X137727400Y-125447018D01*
X137727400Y-125447018D02*
X137765495Y-125370828D01*
X137765495Y-125370828D02*
X137765495Y-125218447D01*
X136965495Y-125789875D02*
X136965495Y-126247018D01*
X137765495Y-126018446D02*
X136965495Y-126018446D01*
X145214792Y-101621390D02*
X145290982Y-101583295D01*
X145290982Y-101583295D02*
X145405268Y-101583295D01*
X145405268Y-101583295D02*
X145519554Y-101621390D01*
X145519554Y-101621390D02*
X145595744Y-101697580D01*
X145595744Y-101697580D02*
X145633839Y-101773771D01*
X145633839Y-101773771D02*
X145671935Y-101926152D01*
X145671935Y-101926152D02*
X145671935Y-102040438D01*
X145671935Y-102040438D02*
X145633839Y-102192819D01*
X145633839Y-102192819D02*
X145595744Y-102269009D01*
X145595744Y-102269009D02*
X145519554Y-102345200D01*
X145519554Y-102345200D02*
X145405268Y-102383295D01*
X145405268Y-102383295D02*
X145329077Y-102383295D01*
X145329077Y-102383295D02*
X145214792Y-102345200D01*
X145214792Y-102345200D02*
X145176696Y-102307104D01*
X145176696Y-102307104D02*
X145176696Y-102040438D01*
X145176696Y-102040438D02*
X145329077Y-102040438D01*
X144833839Y-102383295D02*
X144833839Y-101583295D01*
X144833839Y-101583295D02*
X144529077Y-101583295D01*
X144529077Y-101583295D02*
X144452887Y-101621390D01*
X144452887Y-101621390D02*
X144414792Y-101659485D01*
X144414792Y-101659485D02*
X144376696Y-101735676D01*
X144376696Y-101735676D02*
X144376696Y-101849961D01*
X144376696Y-101849961D02*
X144414792Y-101926152D01*
X144414792Y-101926152D02*
X144452887Y-101964247D01*
X144452887Y-101964247D02*
X144529077Y-102002342D01*
X144529077Y-102002342D02*
X144833839Y-102002342D01*
X144033839Y-102383295D02*
X144033839Y-101583295D01*
X143500506Y-101583295D02*
X143348125Y-101583295D01*
X143348125Y-101583295D02*
X143271935Y-101621390D01*
X143271935Y-101621390D02*
X143195744Y-101697580D01*
X143195744Y-101697580D02*
X143157649Y-101849961D01*
X143157649Y-101849961D02*
X143157649Y-102116628D01*
X143157649Y-102116628D02*
X143195744Y-102269009D01*
X143195744Y-102269009D02*
X143271935Y-102345200D01*
X143271935Y-102345200D02*
X143348125Y-102383295D01*
X143348125Y-102383295D02*
X143500506Y-102383295D01*
X143500506Y-102383295D02*
X143576697Y-102345200D01*
X143576697Y-102345200D02*
X143652887Y-102269009D01*
X143652887Y-102269009D02*
X143690983Y-102116628D01*
X143690983Y-102116628D02*
X143690983Y-101849961D01*
X143690983Y-101849961D02*
X143652887Y-101697580D01*
X143652887Y-101697580D02*
X143576697Y-101621390D01*
X143576697Y-101621390D02*
X143500506Y-101583295D01*
X142890983Y-101583295D02*
X142395745Y-101583295D01*
X142395745Y-101583295D02*
X142662411Y-101888057D01*
X142662411Y-101888057D02*
X142548126Y-101888057D01*
X142548126Y-101888057D02*
X142471935Y-101926152D01*
X142471935Y-101926152D02*
X142433840Y-101964247D01*
X142433840Y-101964247D02*
X142395745Y-102040438D01*
X142395745Y-102040438D02*
X142395745Y-102230914D01*
X142395745Y-102230914D02*
X142433840Y-102307104D01*
X142433840Y-102307104D02*
X142471935Y-102345200D01*
X142471935Y-102345200D02*
X142548126Y-102383295D01*
X142548126Y-102383295D02*
X142776697Y-102383295D01*
X142776697Y-102383295D02*
X142852888Y-102345200D01*
X142852888Y-102345200D02*
X142890983Y-102307104D01*
X154961323Y-108124864D02*
X154961323Y-108505817D01*
X155189895Y-108048674D02*
X154389895Y-108315341D01*
X154389895Y-108315341D02*
X155189895Y-108582007D01*
X154656561Y-108848674D02*
X155189895Y-108848674D01*
X154732752Y-108848674D02*
X154694657Y-108886769D01*
X154694657Y-108886769D02*
X154656561Y-108962959D01*
X154656561Y-108962959D02*
X154656561Y-109077245D01*
X154656561Y-109077245D02*
X154694657Y-109153436D01*
X154694657Y-109153436D02*
X154770847Y-109191531D01*
X154770847Y-109191531D02*
X155189895Y-109191531D01*
X155189895Y-109686769D02*
X155151800Y-109610579D01*
X155151800Y-109610579D02*
X155075609Y-109572484D01*
X155075609Y-109572484D02*
X154389895Y-109572484D01*
X154656561Y-110334389D02*
X155304180Y-110334389D01*
X155304180Y-110334389D02*
X155380371Y-110296294D01*
X155380371Y-110296294D02*
X155418466Y-110258198D01*
X155418466Y-110258198D02*
X155456561Y-110182008D01*
X155456561Y-110182008D02*
X155456561Y-110067722D01*
X155456561Y-110067722D02*
X155418466Y-109991532D01*
X155151800Y-110334389D02*
X155189895Y-110258198D01*
X155189895Y-110258198D02*
X155189895Y-110105817D01*
X155189895Y-110105817D02*
X155151800Y-110029627D01*
X155151800Y-110029627D02*
X155113704Y-109991532D01*
X155113704Y-109991532D02*
X155037514Y-109953436D01*
X155037514Y-109953436D02*
X154808942Y-109953436D01*
X154808942Y-109953436D02*
X154732752Y-109991532D01*
X154732752Y-109991532D02*
X154694657Y-110029627D01*
X154694657Y-110029627D02*
X154656561Y-110105817D01*
X154656561Y-110105817D02*
X154656561Y-110258198D01*
X154656561Y-110258198D02*
X154694657Y-110334389D01*
X154389895Y-111096294D02*
X154389895Y-110715342D01*
X154389895Y-110715342D02*
X154770847Y-110677246D01*
X154770847Y-110677246D02*
X154732752Y-110715342D01*
X154732752Y-110715342D02*
X154694657Y-110791532D01*
X154694657Y-110791532D02*
X154694657Y-110982008D01*
X154694657Y-110982008D02*
X154732752Y-111058199D01*
X154732752Y-111058199D02*
X154770847Y-111096294D01*
X154770847Y-111096294D02*
X154847038Y-111134389D01*
X154847038Y-111134389D02*
X155037514Y-111134389D01*
X155037514Y-111134389D02*
X155113704Y-111096294D01*
X155113704Y-111096294D02*
X155151800Y-111058199D01*
X155151800Y-111058199D02*
X155189895Y-110982008D01*
X155189895Y-110982008D02*
X155189895Y-110791532D01*
X155189895Y-110791532D02*
X155151800Y-110715342D01*
X155151800Y-110715342D02*
X155113704Y-110677246D01*
X154656561Y-111401056D02*
X155189895Y-111591532D01*
X155189895Y-111591532D02*
X154656561Y-111782009D01*
X151259992Y-101621390D02*
X151336182Y-101583295D01*
X151336182Y-101583295D02*
X151450468Y-101583295D01*
X151450468Y-101583295D02*
X151564754Y-101621390D01*
X151564754Y-101621390D02*
X151640944Y-101697580D01*
X151640944Y-101697580D02*
X151679039Y-101773771D01*
X151679039Y-101773771D02*
X151717135Y-101926152D01*
X151717135Y-101926152D02*
X151717135Y-102040438D01*
X151717135Y-102040438D02*
X151679039Y-102192819D01*
X151679039Y-102192819D02*
X151640944Y-102269009D01*
X151640944Y-102269009D02*
X151564754Y-102345200D01*
X151564754Y-102345200D02*
X151450468Y-102383295D01*
X151450468Y-102383295D02*
X151374277Y-102383295D01*
X151374277Y-102383295D02*
X151259992Y-102345200D01*
X151259992Y-102345200D02*
X151221896Y-102307104D01*
X151221896Y-102307104D02*
X151221896Y-102040438D01*
X151221896Y-102040438D02*
X151374277Y-102040438D01*
X150879039Y-102383295D02*
X150879039Y-101583295D01*
X150879039Y-101583295D02*
X150574277Y-101583295D01*
X150574277Y-101583295D02*
X150498087Y-101621390D01*
X150498087Y-101621390D02*
X150459992Y-101659485D01*
X150459992Y-101659485D02*
X150421896Y-101735676D01*
X150421896Y-101735676D02*
X150421896Y-101849961D01*
X150421896Y-101849961D02*
X150459992Y-101926152D01*
X150459992Y-101926152D02*
X150498087Y-101964247D01*
X150498087Y-101964247D02*
X150574277Y-102002342D01*
X150574277Y-102002342D02*
X150879039Y-102002342D01*
X150079039Y-102383295D02*
X150079039Y-101583295D01*
X149545706Y-101583295D02*
X149393325Y-101583295D01*
X149393325Y-101583295D02*
X149317135Y-101621390D01*
X149317135Y-101621390D02*
X149240944Y-101697580D01*
X149240944Y-101697580D02*
X149202849Y-101849961D01*
X149202849Y-101849961D02*
X149202849Y-102116628D01*
X149202849Y-102116628D02*
X149240944Y-102269009D01*
X149240944Y-102269009D02*
X149317135Y-102345200D01*
X149317135Y-102345200D02*
X149393325Y-102383295D01*
X149393325Y-102383295D02*
X149545706Y-102383295D01*
X149545706Y-102383295D02*
X149621897Y-102345200D01*
X149621897Y-102345200D02*
X149698087Y-102269009D01*
X149698087Y-102269009D02*
X149736183Y-102116628D01*
X149736183Y-102116628D02*
X149736183Y-101849961D01*
X149736183Y-101849961D02*
X149698087Y-101697580D01*
X149698087Y-101697580D02*
X149621897Y-101621390D01*
X149621897Y-101621390D02*
X149545706Y-101583295D01*
X148440945Y-102383295D02*
X148898088Y-102383295D01*
X148669516Y-102383295D02*
X148669516Y-101583295D01*
X148669516Y-101583295D02*
X148745707Y-101697580D01*
X148745707Y-101697580D02*
X148821897Y-101773771D01*
X148821897Y-101773771D02*
X148898088Y-101811866D01*
D10*
X153701675Y-115198295D02*
X153701675Y-114398295D01*
X153701675Y-114398295D02*
X153511199Y-114398295D01*
X153511199Y-114398295D02*
X153396913Y-114436390D01*
X153396913Y-114436390D02*
X153320723Y-114512580D01*
X153320723Y-114512580D02*
X153282628Y-114588771D01*
X153282628Y-114588771D02*
X153244532Y-114741152D01*
X153244532Y-114741152D02*
X153244532Y-114855438D01*
X153244532Y-114855438D02*
X153282628Y-115007819D01*
X153282628Y-115007819D02*
X153320723Y-115084009D01*
X153320723Y-115084009D02*
X153396913Y-115160200D01*
X153396913Y-115160200D02*
X153511199Y-115198295D01*
X153511199Y-115198295D02*
X153701675Y-115198295D01*
X152482628Y-115198295D02*
X152939771Y-115198295D01*
X152711199Y-115198295D02*
X152711199Y-114398295D01*
X152711199Y-114398295D02*
X152787390Y-114512580D01*
X152787390Y-114512580D02*
X152863580Y-114588771D01*
X152863580Y-114588771D02*
X152939771Y-114626866D01*
X140392019Y-116557247D02*
X140658685Y-116557247D01*
X140658685Y-116976295D02*
X140658685Y-116176295D01*
X140658685Y-116176295D02*
X140277733Y-116176295D01*
X139706305Y-116557247D02*
X139592019Y-116595342D01*
X139592019Y-116595342D02*
X139553924Y-116633438D01*
X139553924Y-116633438D02*
X139515828Y-116709628D01*
X139515828Y-116709628D02*
X139515828Y-116823914D01*
X139515828Y-116823914D02*
X139553924Y-116900104D01*
X139553924Y-116900104D02*
X139592019Y-116938200D01*
X139592019Y-116938200D02*
X139668209Y-116976295D01*
X139668209Y-116976295D02*
X139972971Y-116976295D01*
X139972971Y-116976295D02*
X139972971Y-116176295D01*
X139972971Y-116176295D02*
X139706305Y-116176295D01*
X139706305Y-116176295D02*
X139630114Y-116214390D01*
X139630114Y-116214390D02*
X139592019Y-116252485D01*
X139592019Y-116252485D02*
X139553924Y-116328676D01*
X139553924Y-116328676D02*
X139553924Y-116404866D01*
X139553924Y-116404866D02*
X139592019Y-116481057D01*
X139592019Y-116481057D02*
X139630114Y-116519152D01*
X139630114Y-116519152D02*
X139706305Y-116557247D01*
X139706305Y-116557247D02*
X139972971Y-116557247D01*
X138753924Y-116976295D02*
X139211067Y-116976295D01*
X138982495Y-116976295D02*
X138982495Y-116176295D01*
X138982495Y-116176295D02*
X139058686Y-116290580D01*
X139058686Y-116290580D02*
X139134876Y-116366771D01*
X139134876Y-116366771D02*
X139211067Y-116404866D01*
X137992019Y-116976295D02*
X138449162Y-116976295D01*
X138220590Y-116976295D02*
X138220590Y-116176295D01*
X138220590Y-116176295D02*
X138296781Y-116290580D01*
X138296781Y-116290580D02*
X138372971Y-116366771D01*
X138372971Y-116366771D02*
X138449162Y-116404866D01*
X168281275Y-115096695D02*
X168281275Y-114296695D01*
X168281275Y-114296695D02*
X168090799Y-114296695D01*
X168090799Y-114296695D02*
X167976513Y-114334790D01*
X167976513Y-114334790D02*
X167900323Y-114410980D01*
X167900323Y-114410980D02*
X167862228Y-114487171D01*
X167862228Y-114487171D02*
X167824132Y-114639552D01*
X167824132Y-114639552D02*
X167824132Y-114753838D01*
X167824132Y-114753838D02*
X167862228Y-114906219D01*
X167862228Y-114906219D02*
X167900323Y-114982409D01*
X167900323Y-114982409D02*
X167976513Y-115058600D01*
X167976513Y-115058600D02*
X168090799Y-115096695D01*
X168090799Y-115096695D02*
X168281275Y-115096695D01*
X167557466Y-114296695D02*
X167024132Y-114296695D01*
X167024132Y-114296695D02*
X167366990Y-115096695D01*
X140112666Y-109623095D02*
X140112666Y-110194523D01*
X140112666Y-110194523D02*
X140150761Y-110308809D01*
X140150761Y-110308809D02*
X140226952Y-110385000D01*
X140226952Y-110385000D02*
X140341237Y-110423095D01*
X140341237Y-110423095D02*
X140417428Y-110423095D01*
X139731713Y-110423095D02*
X139731713Y-109623095D01*
X139731713Y-109623095D02*
X139426951Y-109623095D01*
X139426951Y-109623095D02*
X139350761Y-109661190D01*
X139350761Y-109661190D02*
X139312666Y-109699285D01*
X139312666Y-109699285D02*
X139274570Y-109775476D01*
X139274570Y-109775476D02*
X139274570Y-109889761D01*
X139274570Y-109889761D02*
X139312666Y-109965952D01*
X139312666Y-109965952D02*
X139350761Y-110004047D01*
X139350761Y-110004047D02*
X139426951Y-110042142D01*
X139426951Y-110042142D02*
X139731713Y-110042142D01*
X138512666Y-110423095D02*
X138969809Y-110423095D01*
X138741237Y-110423095D02*
X138741237Y-109623095D01*
X138741237Y-109623095D02*
X138817428Y-109737380D01*
X138817428Y-109737380D02*
X138893618Y-109813571D01*
X138893618Y-109813571D02*
X138969809Y-109851666D01*
X167052495Y-102793876D02*
X167700114Y-102793876D01*
X167700114Y-102793876D02*
X167776304Y-102831971D01*
X167776304Y-102831971D02*
X167814400Y-102870066D01*
X167814400Y-102870066D02*
X167852495Y-102946257D01*
X167852495Y-102946257D02*
X167852495Y-103098638D01*
X167852495Y-103098638D02*
X167814400Y-103174828D01*
X167814400Y-103174828D02*
X167776304Y-103212923D01*
X167776304Y-103212923D02*
X167700114Y-103251019D01*
X167700114Y-103251019D02*
X167052495Y-103251019D01*
X167128685Y-103593875D02*
X167090590Y-103631971D01*
X167090590Y-103631971D02*
X167052495Y-103708161D01*
X167052495Y-103708161D02*
X167052495Y-103898637D01*
X167052495Y-103898637D02*
X167090590Y-103974828D01*
X167090590Y-103974828D02*
X167128685Y-104012923D01*
X167128685Y-104012923D02*
X167204876Y-104051018D01*
X167204876Y-104051018D02*
X167281066Y-104051018D01*
X167281066Y-104051018D02*
X167395352Y-104012923D01*
X167395352Y-104012923D02*
X167852495Y-103555780D01*
X167852495Y-103555780D02*
X167852495Y-104051018D01*
X146234085Y-105317704D02*
X146272181Y-105355800D01*
X146272181Y-105355800D02*
X146386466Y-105393895D01*
X146386466Y-105393895D02*
X146462657Y-105393895D01*
X146462657Y-105393895D02*
X146576943Y-105355800D01*
X146576943Y-105355800D02*
X146653133Y-105279609D01*
X146653133Y-105279609D02*
X146691228Y-105203419D01*
X146691228Y-105203419D02*
X146729324Y-105051038D01*
X146729324Y-105051038D02*
X146729324Y-104936752D01*
X146729324Y-104936752D02*
X146691228Y-104784371D01*
X146691228Y-104784371D02*
X146653133Y-104708180D01*
X146653133Y-104708180D02*
X146576943Y-104631990D01*
X146576943Y-104631990D02*
X146462657Y-104593895D01*
X146462657Y-104593895D02*
X146386466Y-104593895D01*
X146386466Y-104593895D02*
X146272181Y-104631990D01*
X146272181Y-104631990D02*
X146234085Y-104670085D01*
X145472181Y-105393895D02*
X145929324Y-105393895D01*
X145700752Y-105393895D02*
X145700752Y-104593895D01*
X145700752Y-104593895D02*
X145776943Y-104708180D01*
X145776943Y-104708180D02*
X145853133Y-104784371D01*
X145853133Y-104784371D02*
X145929324Y-104822466D01*
X145167419Y-104670085D02*
X145129323Y-104631990D01*
X145129323Y-104631990D02*
X145053133Y-104593895D01*
X145053133Y-104593895D02*
X144862657Y-104593895D01*
X144862657Y-104593895D02*
X144786466Y-104631990D01*
X144786466Y-104631990D02*
X144748371Y-104670085D01*
X144748371Y-104670085D02*
X144710276Y-104746276D01*
X144710276Y-104746276D02*
X144710276Y-104822466D01*
X144710276Y-104822466D02*
X144748371Y-104936752D01*
X144748371Y-104936752D02*
X145205514Y-105393895D01*
X145205514Y-105393895D02*
X144710276Y-105393895D01*
X126666495Y-110451933D02*
X127237923Y-110451933D01*
X127237923Y-110451933D02*
X127352209Y-110413838D01*
X127352209Y-110413838D02*
X127428400Y-110337647D01*
X127428400Y-110337647D02*
X127466495Y-110223362D01*
X127466495Y-110223362D02*
X127466495Y-110147171D01*
X126666495Y-110756695D02*
X126666495Y-111251933D01*
X126666495Y-111251933D02*
X126971257Y-110985267D01*
X126971257Y-110985267D02*
X126971257Y-111099552D01*
X126971257Y-111099552D02*
X127009352Y-111175743D01*
X127009352Y-111175743D02*
X127047447Y-111213838D01*
X127047447Y-111213838D02*
X127123638Y-111251933D01*
X127123638Y-111251933D02*
X127314114Y-111251933D01*
X127314114Y-111251933D02*
X127390304Y-111213838D01*
X127390304Y-111213838D02*
X127428400Y-111175743D01*
X127428400Y-111175743D02*
X127466495Y-111099552D01*
X127466495Y-111099552D02*
X127466495Y-110870981D01*
X127466495Y-110870981D02*
X127428400Y-110794790D01*
X127428400Y-110794790D02*
X127390304Y-110756695D01*
X147520934Y-98880695D02*
X147520934Y-98080695D01*
X147520934Y-98080695D02*
X147330458Y-98080695D01*
X147330458Y-98080695D02*
X147216172Y-98118790D01*
X147216172Y-98118790D02*
X147139982Y-98194980D01*
X147139982Y-98194980D02*
X147101887Y-98271171D01*
X147101887Y-98271171D02*
X147063791Y-98423552D01*
X147063791Y-98423552D02*
X147063791Y-98537838D01*
X147063791Y-98537838D02*
X147101887Y-98690219D01*
X147101887Y-98690219D02*
X147139982Y-98766409D01*
X147139982Y-98766409D02*
X147216172Y-98842600D01*
X147216172Y-98842600D02*
X147330458Y-98880695D01*
X147330458Y-98880695D02*
X147520934Y-98880695D01*
X146454268Y-98461647D02*
X146339982Y-98499742D01*
X146339982Y-98499742D02*
X146301887Y-98537838D01*
X146301887Y-98537838D02*
X146263791Y-98614028D01*
X146263791Y-98614028D02*
X146263791Y-98728314D01*
X146263791Y-98728314D02*
X146301887Y-98804504D01*
X146301887Y-98804504D02*
X146339982Y-98842600D01*
X146339982Y-98842600D02*
X146416172Y-98880695D01*
X146416172Y-98880695D02*
X146720934Y-98880695D01*
X146720934Y-98880695D02*
X146720934Y-98080695D01*
X146720934Y-98080695D02*
X146454268Y-98080695D01*
X146454268Y-98080695D02*
X146378077Y-98118790D01*
X146378077Y-98118790D02*
X146339982Y-98156885D01*
X146339982Y-98156885D02*
X146301887Y-98233076D01*
X146301887Y-98233076D02*
X146301887Y-98309266D01*
X146301887Y-98309266D02*
X146339982Y-98385457D01*
X146339982Y-98385457D02*
X146378077Y-98423552D01*
X146378077Y-98423552D02*
X146454268Y-98461647D01*
X146454268Y-98461647D02*
X146720934Y-98461647D01*
X145501887Y-98880695D02*
X145959030Y-98880695D01*
X145730458Y-98880695D02*
X145730458Y-98080695D01*
X145730458Y-98080695D02*
X145806649Y-98194980D01*
X145806649Y-98194980D02*
X145882839Y-98271171D01*
X145882839Y-98271171D02*
X145959030Y-98309266D01*
X153523866Y-109470695D02*
X153523866Y-110042123D01*
X153523866Y-110042123D02*
X153561961Y-110156409D01*
X153561961Y-110156409D02*
X153638152Y-110232600D01*
X153638152Y-110232600D02*
X153752437Y-110270695D01*
X153752437Y-110270695D02*
X153828628Y-110270695D01*
X153142913Y-110270695D02*
X153142913Y-109470695D01*
X153142913Y-109470695D02*
X152838151Y-109470695D01*
X152838151Y-109470695D02*
X152761961Y-109508790D01*
X152761961Y-109508790D02*
X152723866Y-109546885D01*
X152723866Y-109546885D02*
X152685770Y-109623076D01*
X152685770Y-109623076D02*
X152685770Y-109737361D01*
X152685770Y-109737361D02*
X152723866Y-109813552D01*
X152723866Y-109813552D02*
X152761961Y-109851647D01*
X152761961Y-109851647D02*
X152838151Y-109889742D01*
X152838151Y-109889742D02*
X153142913Y-109889742D01*
X152419104Y-109470695D02*
X151923866Y-109470695D01*
X151923866Y-109470695D02*
X152190532Y-109775457D01*
X152190532Y-109775457D02*
X152076247Y-109775457D01*
X152076247Y-109775457D02*
X152000056Y-109813552D01*
X152000056Y-109813552D02*
X151961961Y-109851647D01*
X151961961Y-109851647D02*
X151923866Y-109927838D01*
X151923866Y-109927838D02*
X151923866Y-110118314D01*
X151923866Y-110118314D02*
X151961961Y-110194504D01*
X151961961Y-110194504D02*
X152000056Y-110232600D01*
X152000056Y-110232600D02*
X152076247Y-110270695D01*
X152076247Y-110270695D02*
X152304818Y-110270695D01*
X152304818Y-110270695D02*
X152381009Y-110232600D01*
X152381009Y-110232600D02*
X152419104Y-110194504D01*
X167340884Y-109915094D02*
X167607551Y-109534141D01*
X167798027Y-109915094D02*
X167798027Y-109115094D01*
X167798027Y-109115094D02*
X167493265Y-109115094D01*
X167493265Y-109115094D02*
X167417075Y-109153189D01*
X167417075Y-109153189D02*
X167378980Y-109191284D01*
X167378980Y-109191284D02*
X167340884Y-109267475D01*
X167340884Y-109267475D02*
X167340884Y-109381760D01*
X167340884Y-109381760D02*
X167378980Y-109457951D01*
X167378980Y-109457951D02*
X167417075Y-109496046D01*
X167417075Y-109496046D02*
X167493265Y-109534141D01*
X167493265Y-109534141D02*
X167798027Y-109534141D01*
X166578980Y-109915094D02*
X167036123Y-109915094D01*
X166807551Y-109915094D02*
X166807551Y-109115094D01*
X166807551Y-109115094D02*
X166883742Y-109229379D01*
X166883742Y-109229379D02*
X166959932Y-109305570D01*
X166959932Y-109305570D02*
X167036123Y-109343665D01*
X165893265Y-109381760D02*
X165893265Y-109915094D01*
X166083741Y-109076999D02*
X166274218Y-109648427D01*
X166274218Y-109648427D02*
X165778979Y-109648427D01*
X159137332Y-112886904D02*
X159175428Y-112925000D01*
X159175428Y-112925000D02*
X159289713Y-112963095D01*
X159289713Y-112963095D02*
X159365904Y-112963095D01*
X159365904Y-112963095D02*
X159480190Y-112925000D01*
X159480190Y-112925000D02*
X159556380Y-112848809D01*
X159556380Y-112848809D02*
X159594475Y-112772619D01*
X159594475Y-112772619D02*
X159632571Y-112620238D01*
X159632571Y-112620238D02*
X159632571Y-112505952D01*
X159632571Y-112505952D02*
X159594475Y-112353571D01*
X159594475Y-112353571D02*
X159556380Y-112277380D01*
X159556380Y-112277380D02*
X159480190Y-112201190D01*
X159480190Y-112201190D02*
X159365904Y-112163095D01*
X159365904Y-112163095D02*
X159289713Y-112163095D01*
X159289713Y-112163095D02*
X159175428Y-112201190D01*
X159175428Y-112201190D02*
X159137332Y-112239285D01*
X158451618Y-112163095D02*
X158603999Y-112163095D01*
X158603999Y-112163095D02*
X158680190Y-112201190D01*
X158680190Y-112201190D02*
X158718285Y-112239285D01*
X158718285Y-112239285D02*
X158794475Y-112353571D01*
X158794475Y-112353571D02*
X158832571Y-112505952D01*
X158832571Y-112505952D02*
X158832571Y-112810714D01*
X158832571Y-112810714D02*
X158794475Y-112886904D01*
X158794475Y-112886904D02*
X158756380Y-112925000D01*
X158756380Y-112925000D02*
X158680190Y-112963095D01*
X158680190Y-112963095D02*
X158527809Y-112963095D01*
X158527809Y-112963095D02*
X158451618Y-112925000D01*
X158451618Y-112925000D02*
X158413523Y-112886904D01*
X158413523Y-112886904D02*
X158375428Y-112810714D01*
X158375428Y-112810714D02*
X158375428Y-112620238D01*
X158375428Y-112620238D02*
X158413523Y-112544047D01*
X158413523Y-112544047D02*
X158451618Y-112505952D01*
X158451618Y-112505952D02*
X158527809Y-112467857D01*
X158527809Y-112467857D02*
X158680190Y-112467857D01*
X158680190Y-112467857D02*
X158756380Y-112505952D01*
X158756380Y-112505952D02*
X158794475Y-112544047D01*
X158794475Y-112544047D02*
X158832571Y-112620238D01*
X157003732Y-101914104D02*
X157041828Y-101952200D01*
X157041828Y-101952200D02*
X157156113Y-101990295D01*
X157156113Y-101990295D02*
X157232304Y-101990295D01*
X157232304Y-101990295D02*
X157346590Y-101952200D01*
X157346590Y-101952200D02*
X157422780Y-101876009D01*
X157422780Y-101876009D02*
X157460875Y-101799819D01*
X157460875Y-101799819D02*
X157498971Y-101647438D01*
X157498971Y-101647438D02*
X157498971Y-101533152D01*
X157498971Y-101533152D02*
X157460875Y-101380771D01*
X157460875Y-101380771D02*
X157422780Y-101304580D01*
X157422780Y-101304580D02*
X157346590Y-101228390D01*
X157346590Y-101228390D02*
X157232304Y-101190295D01*
X157232304Y-101190295D02*
X157156113Y-101190295D01*
X157156113Y-101190295D02*
X157041828Y-101228390D01*
X157041828Y-101228390D02*
X157003732Y-101266485D01*
X156622780Y-101990295D02*
X156470399Y-101990295D01*
X156470399Y-101990295D02*
X156394209Y-101952200D01*
X156394209Y-101952200D02*
X156356113Y-101914104D01*
X156356113Y-101914104D02*
X156279923Y-101799819D01*
X156279923Y-101799819D02*
X156241828Y-101647438D01*
X156241828Y-101647438D02*
X156241828Y-101342676D01*
X156241828Y-101342676D02*
X156279923Y-101266485D01*
X156279923Y-101266485D02*
X156318018Y-101228390D01*
X156318018Y-101228390D02*
X156394209Y-101190295D01*
X156394209Y-101190295D02*
X156546590Y-101190295D01*
X156546590Y-101190295D02*
X156622780Y-101228390D01*
X156622780Y-101228390D02*
X156660875Y-101266485D01*
X156660875Y-101266485D02*
X156698971Y-101342676D01*
X156698971Y-101342676D02*
X156698971Y-101533152D01*
X156698971Y-101533152D02*
X156660875Y-101609342D01*
X156660875Y-101609342D02*
X156622780Y-101647438D01*
X156622780Y-101647438D02*
X156546590Y-101685533D01*
X156546590Y-101685533D02*
X156394209Y-101685533D01*
X156394209Y-101685533D02*
X156318018Y-101647438D01*
X156318018Y-101647438D02*
X156279923Y-101609342D01*
X156279923Y-101609342D02*
X156241828Y-101533152D01*
X146919885Y-112658295D02*
X147186552Y-112277342D01*
X147377028Y-112658295D02*
X147377028Y-111858295D01*
X147377028Y-111858295D02*
X147072266Y-111858295D01*
X147072266Y-111858295D02*
X146996076Y-111896390D01*
X146996076Y-111896390D02*
X146957981Y-111934485D01*
X146957981Y-111934485D02*
X146919885Y-112010676D01*
X146919885Y-112010676D02*
X146919885Y-112124961D01*
X146919885Y-112124961D02*
X146957981Y-112201152D01*
X146957981Y-112201152D02*
X146996076Y-112239247D01*
X146996076Y-112239247D02*
X147072266Y-112277342D01*
X147072266Y-112277342D02*
X147377028Y-112277342D01*
X146157981Y-112658295D02*
X146615124Y-112658295D01*
X146386552Y-112658295D02*
X146386552Y-111858295D01*
X146386552Y-111858295D02*
X146462743Y-111972580D01*
X146462743Y-111972580D02*
X146538933Y-112048771D01*
X146538933Y-112048771D02*
X146615124Y-112086866D01*
X145853219Y-111934485D02*
X145815123Y-111896390D01*
X145815123Y-111896390D02*
X145738933Y-111858295D01*
X145738933Y-111858295D02*
X145548457Y-111858295D01*
X145548457Y-111858295D02*
X145472266Y-111896390D01*
X145472266Y-111896390D02*
X145434171Y-111934485D01*
X145434171Y-111934485D02*
X145396076Y-112010676D01*
X145396076Y-112010676D02*
X145396076Y-112086866D01*
X145396076Y-112086866D02*
X145434171Y-112201152D01*
X145434171Y-112201152D02*
X145891314Y-112658295D01*
X145891314Y-112658295D02*
X145396076Y-112658295D01*
X160410304Y-116681267D02*
X160448400Y-116643171D01*
X160448400Y-116643171D02*
X160486495Y-116528886D01*
X160486495Y-116528886D02*
X160486495Y-116452695D01*
X160486495Y-116452695D02*
X160448400Y-116338409D01*
X160448400Y-116338409D02*
X160372209Y-116262219D01*
X160372209Y-116262219D02*
X160296019Y-116224124D01*
X160296019Y-116224124D02*
X160143638Y-116186028D01*
X160143638Y-116186028D02*
X160029352Y-116186028D01*
X160029352Y-116186028D02*
X159876971Y-116224124D01*
X159876971Y-116224124D02*
X159800780Y-116262219D01*
X159800780Y-116262219D02*
X159724590Y-116338409D01*
X159724590Y-116338409D02*
X159686495Y-116452695D01*
X159686495Y-116452695D02*
X159686495Y-116528886D01*
X159686495Y-116528886D02*
X159724590Y-116643171D01*
X159724590Y-116643171D02*
X159762685Y-116681267D01*
X159953161Y-117366981D02*
X160486495Y-117366981D01*
X159648400Y-117176505D02*
X160219828Y-116986028D01*
X160219828Y-116986028D02*
X160219828Y-117481267D01*
X153752466Y-116811247D02*
X154019132Y-116811247D01*
X154019132Y-117230295D02*
X154019132Y-116430295D01*
X154019132Y-116430295D02*
X153638180Y-116430295D01*
X153066752Y-116811247D02*
X152952466Y-116849342D01*
X152952466Y-116849342D02*
X152914371Y-116887438D01*
X152914371Y-116887438D02*
X152876275Y-116963628D01*
X152876275Y-116963628D02*
X152876275Y-117077914D01*
X152876275Y-117077914D02*
X152914371Y-117154104D01*
X152914371Y-117154104D02*
X152952466Y-117192200D01*
X152952466Y-117192200D02*
X153028656Y-117230295D01*
X153028656Y-117230295D02*
X153333418Y-117230295D01*
X153333418Y-117230295D02*
X153333418Y-116430295D01*
X153333418Y-116430295D02*
X153066752Y-116430295D01*
X153066752Y-116430295D02*
X152990561Y-116468390D01*
X152990561Y-116468390D02*
X152952466Y-116506485D01*
X152952466Y-116506485D02*
X152914371Y-116582676D01*
X152914371Y-116582676D02*
X152914371Y-116658866D01*
X152914371Y-116658866D02*
X152952466Y-116735057D01*
X152952466Y-116735057D02*
X152990561Y-116773152D01*
X152990561Y-116773152D02*
X153066752Y-116811247D01*
X153066752Y-116811247D02*
X153333418Y-116811247D01*
X152114371Y-117230295D02*
X152571514Y-117230295D01*
X152342942Y-117230295D02*
X152342942Y-116430295D01*
X152342942Y-116430295D02*
X152419133Y-116544580D01*
X152419133Y-116544580D02*
X152495323Y-116620771D01*
X152495323Y-116620771D02*
X152571514Y-116658866D01*
X145564047Y-117849780D02*
X145564047Y-117583114D01*
X145983095Y-117583114D02*
X145183095Y-117583114D01*
X145183095Y-117583114D02*
X145183095Y-117964066D01*
X145564047Y-118535494D02*
X145602142Y-118649780D01*
X145602142Y-118649780D02*
X145640238Y-118687875D01*
X145640238Y-118687875D02*
X145716428Y-118725971D01*
X145716428Y-118725971D02*
X145830714Y-118725971D01*
X145830714Y-118725971D02*
X145906904Y-118687875D01*
X145906904Y-118687875D02*
X145945000Y-118649780D01*
X145945000Y-118649780D02*
X145983095Y-118573590D01*
X145983095Y-118573590D02*
X145983095Y-118268828D01*
X145983095Y-118268828D02*
X145183095Y-118268828D01*
X145183095Y-118268828D02*
X145183095Y-118535494D01*
X145183095Y-118535494D02*
X145221190Y-118611685D01*
X145221190Y-118611685D02*
X145259285Y-118649780D01*
X145259285Y-118649780D02*
X145335476Y-118687875D01*
X145335476Y-118687875D02*
X145411666Y-118687875D01*
X145411666Y-118687875D02*
X145487857Y-118649780D01*
X145487857Y-118649780D02*
X145525952Y-118611685D01*
X145525952Y-118611685D02*
X145564047Y-118535494D01*
X145564047Y-118535494D02*
X145564047Y-118268828D01*
X145983095Y-119487875D02*
X145983095Y-119030732D01*
X145983095Y-119259304D02*
X145183095Y-119259304D01*
X145183095Y-119259304D02*
X145297380Y-119183113D01*
X145297380Y-119183113D02*
X145373571Y-119106923D01*
X145373571Y-119106923D02*
X145411666Y-119030732D01*
X145259285Y-119792637D02*
X145221190Y-119830733D01*
X145221190Y-119830733D02*
X145183095Y-119906923D01*
X145183095Y-119906923D02*
X145183095Y-120097399D01*
X145183095Y-120097399D02*
X145221190Y-120173590D01*
X145221190Y-120173590D02*
X145259285Y-120211685D01*
X145259285Y-120211685D02*
X145335476Y-120249780D01*
X145335476Y-120249780D02*
X145411666Y-120249780D01*
X145411666Y-120249780D02*
X145525952Y-120211685D01*
X145525952Y-120211685D02*
X145983095Y-119754542D01*
X145983095Y-119754542D02*
X145983095Y-120249780D01*
X140595228Y-114842695D02*
X140595228Y-114042695D01*
X140595228Y-114042695D02*
X140404752Y-114042695D01*
X140404752Y-114042695D02*
X140290466Y-114080790D01*
X140290466Y-114080790D02*
X140214276Y-114156980D01*
X140214276Y-114156980D02*
X140176181Y-114233171D01*
X140176181Y-114233171D02*
X140138085Y-114385552D01*
X140138085Y-114385552D02*
X140138085Y-114499838D01*
X140138085Y-114499838D02*
X140176181Y-114652219D01*
X140176181Y-114652219D02*
X140214276Y-114728409D01*
X140214276Y-114728409D02*
X140290466Y-114804600D01*
X140290466Y-114804600D02*
X140404752Y-114842695D01*
X140404752Y-114842695D02*
X140595228Y-114842695D01*
X139376181Y-114842695D02*
X139833324Y-114842695D01*
X139604752Y-114842695D02*
X139604752Y-114042695D01*
X139604752Y-114042695D02*
X139680943Y-114156980D01*
X139680943Y-114156980D02*
X139757133Y-114233171D01*
X139757133Y-114233171D02*
X139833324Y-114271266D01*
X138614276Y-114842695D02*
X139071419Y-114842695D01*
X138842847Y-114842695D02*
X138842847Y-114042695D01*
X138842847Y-114042695D02*
X138919038Y-114156980D01*
X138919038Y-114156980D02*
X138995228Y-114233171D01*
X138995228Y-114233171D02*
X139071419Y-114271266D01*
X147123066Y-109521495D02*
X147123066Y-110092923D01*
X147123066Y-110092923D02*
X147161161Y-110207209D01*
X147161161Y-110207209D02*
X147237352Y-110283400D01*
X147237352Y-110283400D02*
X147351637Y-110321495D01*
X147351637Y-110321495D02*
X147427828Y-110321495D01*
X146742113Y-110321495D02*
X146742113Y-109521495D01*
X146742113Y-109521495D02*
X146437351Y-109521495D01*
X146437351Y-109521495D02*
X146361161Y-109559590D01*
X146361161Y-109559590D02*
X146323066Y-109597685D01*
X146323066Y-109597685D02*
X146284970Y-109673876D01*
X146284970Y-109673876D02*
X146284970Y-109788161D01*
X146284970Y-109788161D02*
X146323066Y-109864352D01*
X146323066Y-109864352D02*
X146361161Y-109902447D01*
X146361161Y-109902447D02*
X146437351Y-109940542D01*
X146437351Y-109940542D02*
X146742113Y-109940542D01*
X145980209Y-109597685D02*
X145942113Y-109559590D01*
X145942113Y-109559590D02*
X145865923Y-109521495D01*
X145865923Y-109521495D02*
X145675447Y-109521495D01*
X145675447Y-109521495D02*
X145599256Y-109559590D01*
X145599256Y-109559590D02*
X145561161Y-109597685D01*
X145561161Y-109597685D02*
X145523066Y-109673876D01*
X145523066Y-109673876D02*
X145523066Y-109750066D01*
X145523066Y-109750066D02*
X145561161Y-109864352D01*
X145561161Y-109864352D02*
X146018304Y-110321495D01*
X146018304Y-110321495D02*
X145523066Y-110321495D01*
X152736532Y-107730695D02*
X153003199Y-107349742D01*
X153193675Y-107730695D02*
X153193675Y-106930695D01*
X153193675Y-106930695D02*
X152888913Y-106930695D01*
X152888913Y-106930695D02*
X152812723Y-106968790D01*
X152812723Y-106968790D02*
X152774628Y-107006885D01*
X152774628Y-107006885D02*
X152736532Y-107083076D01*
X152736532Y-107083076D02*
X152736532Y-107197361D01*
X152736532Y-107197361D02*
X152774628Y-107273552D01*
X152774628Y-107273552D02*
X152812723Y-107311647D01*
X152812723Y-107311647D02*
X152888913Y-107349742D01*
X152888913Y-107349742D02*
X153193675Y-107349742D01*
X151974628Y-107730695D02*
X152431771Y-107730695D01*
X152203199Y-107730695D02*
X152203199Y-106930695D01*
X152203199Y-106930695D02*
X152279390Y-107044980D01*
X152279390Y-107044980D02*
X152355580Y-107121171D01*
X152355580Y-107121171D02*
X152431771Y-107159266D01*
X142604895Y-117671971D02*
X141804895Y-117671971D01*
X141804895Y-117671971D02*
X141804895Y-117862447D01*
X141804895Y-117862447D02*
X141842990Y-117976733D01*
X141842990Y-117976733D02*
X141919180Y-118052923D01*
X141919180Y-118052923D02*
X141995371Y-118091018D01*
X141995371Y-118091018D02*
X142147752Y-118129114D01*
X142147752Y-118129114D02*
X142262038Y-118129114D01*
X142262038Y-118129114D02*
X142414419Y-118091018D01*
X142414419Y-118091018D02*
X142490609Y-118052923D01*
X142490609Y-118052923D02*
X142566800Y-117976733D01*
X142566800Y-117976733D02*
X142604895Y-117862447D01*
X142604895Y-117862447D02*
X142604895Y-117671971D01*
X142604895Y-118891018D02*
X142604895Y-118433875D01*
X142604895Y-118662447D02*
X141804895Y-118662447D01*
X141804895Y-118662447D02*
X141919180Y-118586256D01*
X141919180Y-118586256D02*
X141995371Y-118510066D01*
X141995371Y-118510066D02*
X142033466Y-118433875D01*
X141881085Y-119195780D02*
X141842990Y-119233876D01*
X141842990Y-119233876D02*
X141804895Y-119310066D01*
X141804895Y-119310066D02*
X141804895Y-119500542D01*
X141804895Y-119500542D02*
X141842990Y-119576733D01*
X141842990Y-119576733D02*
X141881085Y-119614828D01*
X141881085Y-119614828D02*
X141957276Y-119652923D01*
X141957276Y-119652923D02*
X142033466Y-119652923D01*
X142033466Y-119652923D02*
X142147752Y-119614828D01*
X142147752Y-119614828D02*
X142604895Y-119157685D01*
X142604895Y-119157685D02*
X142604895Y-119652923D01*
X159188132Y-101863304D02*
X159226228Y-101901400D01*
X159226228Y-101901400D02*
X159340513Y-101939495D01*
X159340513Y-101939495D02*
X159416704Y-101939495D01*
X159416704Y-101939495D02*
X159530990Y-101901400D01*
X159530990Y-101901400D02*
X159607180Y-101825209D01*
X159607180Y-101825209D02*
X159645275Y-101749019D01*
X159645275Y-101749019D02*
X159683371Y-101596638D01*
X159683371Y-101596638D02*
X159683371Y-101482352D01*
X159683371Y-101482352D02*
X159645275Y-101329971D01*
X159645275Y-101329971D02*
X159607180Y-101253780D01*
X159607180Y-101253780D02*
X159530990Y-101177590D01*
X159530990Y-101177590D02*
X159416704Y-101139495D01*
X159416704Y-101139495D02*
X159340513Y-101139495D01*
X159340513Y-101139495D02*
X159226228Y-101177590D01*
X159226228Y-101177590D02*
X159188132Y-101215685D01*
X158921466Y-101139495D02*
X158426228Y-101139495D01*
X158426228Y-101139495D02*
X158692894Y-101444257D01*
X158692894Y-101444257D02*
X158578609Y-101444257D01*
X158578609Y-101444257D02*
X158502418Y-101482352D01*
X158502418Y-101482352D02*
X158464323Y-101520447D01*
X158464323Y-101520447D02*
X158426228Y-101596638D01*
X158426228Y-101596638D02*
X158426228Y-101787114D01*
X158426228Y-101787114D02*
X158464323Y-101863304D01*
X158464323Y-101863304D02*
X158502418Y-101901400D01*
X158502418Y-101901400D02*
X158578609Y-101939495D01*
X158578609Y-101939495D02*
X158807180Y-101939495D01*
X158807180Y-101939495D02*
X158883371Y-101901400D01*
X158883371Y-101901400D02*
X158921466Y-101863304D01*
X140163485Y-112658295D02*
X140430152Y-112277342D01*
X140620628Y-112658295D02*
X140620628Y-111858295D01*
X140620628Y-111858295D02*
X140315866Y-111858295D01*
X140315866Y-111858295D02*
X140239676Y-111896390D01*
X140239676Y-111896390D02*
X140201581Y-111934485D01*
X140201581Y-111934485D02*
X140163485Y-112010676D01*
X140163485Y-112010676D02*
X140163485Y-112124961D01*
X140163485Y-112124961D02*
X140201581Y-112201152D01*
X140201581Y-112201152D02*
X140239676Y-112239247D01*
X140239676Y-112239247D02*
X140315866Y-112277342D01*
X140315866Y-112277342D02*
X140620628Y-112277342D01*
X139401581Y-112658295D02*
X139858724Y-112658295D01*
X139630152Y-112658295D02*
X139630152Y-111858295D01*
X139630152Y-111858295D02*
X139706343Y-111972580D01*
X139706343Y-111972580D02*
X139782533Y-112048771D01*
X139782533Y-112048771D02*
X139858724Y-112086866D01*
X138639676Y-112658295D02*
X139096819Y-112658295D01*
X138868247Y-112658295D02*
X138868247Y-111858295D01*
X138868247Y-111858295D02*
X138944438Y-111972580D01*
X138944438Y-111972580D02*
X139020628Y-112048771D01*
X139020628Y-112048771D02*
X139096819Y-112086866D01*
X162515485Y-108695895D02*
X162782152Y-108314942D01*
X162972628Y-108695895D02*
X162972628Y-107895895D01*
X162972628Y-107895895D02*
X162667866Y-107895895D01*
X162667866Y-107895895D02*
X162591676Y-107933990D01*
X162591676Y-107933990D02*
X162553581Y-107972085D01*
X162553581Y-107972085D02*
X162515485Y-108048276D01*
X162515485Y-108048276D02*
X162515485Y-108162561D01*
X162515485Y-108162561D02*
X162553581Y-108238752D01*
X162553581Y-108238752D02*
X162591676Y-108276847D01*
X162591676Y-108276847D02*
X162667866Y-108314942D01*
X162667866Y-108314942D02*
X162972628Y-108314942D01*
X161753581Y-108695895D02*
X162210724Y-108695895D01*
X161982152Y-108695895D02*
X161982152Y-107895895D01*
X161982152Y-107895895D02*
X162058343Y-108010180D01*
X162058343Y-108010180D02*
X162134533Y-108086371D01*
X162134533Y-108086371D02*
X162210724Y-108124466D01*
X161372628Y-108695895D02*
X161220247Y-108695895D01*
X161220247Y-108695895D02*
X161144057Y-108657800D01*
X161144057Y-108657800D02*
X161105961Y-108619704D01*
X161105961Y-108619704D02*
X161029771Y-108505419D01*
X161029771Y-108505419D02*
X160991676Y-108353038D01*
X160991676Y-108353038D02*
X160991676Y-108048276D01*
X160991676Y-108048276D02*
X161029771Y-107972085D01*
X161029771Y-107972085D02*
X161067866Y-107933990D01*
X161067866Y-107933990D02*
X161144057Y-107895895D01*
X161144057Y-107895895D02*
X161296438Y-107895895D01*
X161296438Y-107895895D02*
X161372628Y-107933990D01*
X161372628Y-107933990D02*
X161410723Y-107972085D01*
X161410723Y-107972085D02*
X161448819Y-108048276D01*
X161448819Y-108048276D02*
X161448819Y-108238752D01*
X161448819Y-108238752D02*
X161410723Y-108314942D01*
X161410723Y-108314942D02*
X161372628Y-108353038D01*
X161372628Y-108353038D02*
X161296438Y-108391133D01*
X161296438Y-108391133D02*
X161144057Y-108391133D01*
X161144057Y-108391133D02*
X161067866Y-108353038D01*
X161067866Y-108353038D02*
X161029771Y-108314942D01*
X161029771Y-108314942D02*
X160991676Y-108238752D01*
X168360495Y-94684924D02*
X167560495Y-94684924D01*
X167560495Y-94684924D02*
X167560495Y-94875400D01*
X167560495Y-94875400D02*
X167598590Y-94989686D01*
X167598590Y-94989686D02*
X167674780Y-95065876D01*
X167674780Y-95065876D02*
X167750971Y-95103971D01*
X167750971Y-95103971D02*
X167903352Y-95142067D01*
X167903352Y-95142067D02*
X168017638Y-95142067D01*
X168017638Y-95142067D02*
X168170019Y-95103971D01*
X168170019Y-95103971D02*
X168246209Y-95065876D01*
X168246209Y-95065876D02*
X168322400Y-94989686D01*
X168322400Y-94989686D02*
X168360495Y-94875400D01*
X168360495Y-94875400D02*
X168360495Y-94684924D01*
X167560495Y-95827781D02*
X167560495Y-95675400D01*
X167560495Y-95675400D02*
X167598590Y-95599209D01*
X167598590Y-95599209D02*
X167636685Y-95561114D01*
X167636685Y-95561114D02*
X167750971Y-95484924D01*
X167750971Y-95484924D02*
X167903352Y-95446828D01*
X167903352Y-95446828D02*
X168208114Y-95446828D01*
X168208114Y-95446828D02*
X168284304Y-95484924D01*
X168284304Y-95484924D02*
X168322400Y-95523019D01*
X168322400Y-95523019D02*
X168360495Y-95599209D01*
X168360495Y-95599209D02*
X168360495Y-95751590D01*
X168360495Y-95751590D02*
X168322400Y-95827781D01*
X168322400Y-95827781D02*
X168284304Y-95865876D01*
X168284304Y-95865876D02*
X168208114Y-95903971D01*
X168208114Y-95903971D02*
X168017638Y-95903971D01*
X168017638Y-95903971D02*
X167941447Y-95865876D01*
X167941447Y-95865876D02*
X167903352Y-95827781D01*
X167903352Y-95827781D02*
X167865257Y-95751590D01*
X167865257Y-95751590D02*
X167865257Y-95599209D01*
X167865257Y-95599209D02*
X167903352Y-95523019D01*
X167903352Y-95523019D02*
X167941447Y-95484924D01*
X167941447Y-95484924D02*
X168017638Y-95446828D01*
X162794875Y-102041095D02*
X162794875Y-101241095D01*
X162794875Y-101241095D02*
X162604399Y-101241095D01*
X162604399Y-101241095D02*
X162490113Y-101279190D01*
X162490113Y-101279190D02*
X162413923Y-101355380D01*
X162413923Y-101355380D02*
X162375828Y-101431571D01*
X162375828Y-101431571D02*
X162337732Y-101583952D01*
X162337732Y-101583952D02*
X162337732Y-101698238D01*
X162337732Y-101698238D02*
X162375828Y-101850619D01*
X162375828Y-101850619D02*
X162413923Y-101926809D01*
X162413923Y-101926809D02*
X162490113Y-102003000D01*
X162490113Y-102003000D02*
X162604399Y-102041095D01*
X162604399Y-102041095D02*
X162794875Y-102041095D01*
X161880590Y-101583952D02*
X161956780Y-101545857D01*
X161956780Y-101545857D02*
X161994875Y-101507761D01*
X161994875Y-101507761D02*
X162032971Y-101431571D01*
X162032971Y-101431571D02*
X162032971Y-101393476D01*
X162032971Y-101393476D02*
X161994875Y-101317285D01*
X161994875Y-101317285D02*
X161956780Y-101279190D01*
X161956780Y-101279190D02*
X161880590Y-101241095D01*
X161880590Y-101241095D02*
X161728209Y-101241095D01*
X161728209Y-101241095D02*
X161652018Y-101279190D01*
X161652018Y-101279190D02*
X161613923Y-101317285D01*
X161613923Y-101317285D02*
X161575828Y-101393476D01*
X161575828Y-101393476D02*
X161575828Y-101431571D01*
X161575828Y-101431571D02*
X161613923Y-101507761D01*
X161613923Y-101507761D02*
X161652018Y-101545857D01*
X161652018Y-101545857D02*
X161728209Y-101583952D01*
X161728209Y-101583952D02*
X161880590Y-101583952D01*
X161880590Y-101583952D02*
X161956780Y-101622047D01*
X161956780Y-101622047D02*
X161994875Y-101660142D01*
X161994875Y-101660142D02*
X162032971Y-101736333D01*
X162032971Y-101736333D02*
X162032971Y-101888714D01*
X162032971Y-101888714D02*
X161994875Y-101964904D01*
X161994875Y-101964904D02*
X161956780Y-102003000D01*
X161956780Y-102003000D02*
X161880590Y-102041095D01*
X161880590Y-102041095D02*
X161728209Y-102041095D01*
X161728209Y-102041095D02*
X161652018Y-102003000D01*
X161652018Y-102003000D02*
X161613923Y-101964904D01*
X161613923Y-101964904D02*
X161575828Y-101888714D01*
X161575828Y-101888714D02*
X161575828Y-101736333D01*
X161575828Y-101736333D02*
X161613923Y-101660142D01*
X161613923Y-101660142D02*
X161652018Y-101622047D01*
X161652018Y-101622047D02*
X161728209Y-101583952D01*
X140112685Y-108086295D02*
X140379352Y-107705342D01*
X140569828Y-108086295D02*
X140569828Y-107286295D01*
X140569828Y-107286295D02*
X140265066Y-107286295D01*
X140265066Y-107286295D02*
X140188876Y-107324390D01*
X140188876Y-107324390D02*
X140150781Y-107362485D01*
X140150781Y-107362485D02*
X140112685Y-107438676D01*
X140112685Y-107438676D02*
X140112685Y-107552961D01*
X140112685Y-107552961D02*
X140150781Y-107629152D01*
X140150781Y-107629152D02*
X140188876Y-107667247D01*
X140188876Y-107667247D02*
X140265066Y-107705342D01*
X140265066Y-107705342D02*
X140569828Y-107705342D01*
X139807924Y-107362485D02*
X139769828Y-107324390D01*
X139769828Y-107324390D02*
X139693638Y-107286295D01*
X139693638Y-107286295D02*
X139503162Y-107286295D01*
X139503162Y-107286295D02*
X139426971Y-107324390D01*
X139426971Y-107324390D02*
X139388876Y-107362485D01*
X139388876Y-107362485D02*
X139350781Y-107438676D01*
X139350781Y-107438676D02*
X139350781Y-107514866D01*
X139350781Y-107514866D02*
X139388876Y-107629152D01*
X139388876Y-107629152D02*
X139846019Y-108086295D01*
X139846019Y-108086295D02*
X139350781Y-108086295D01*
X138588876Y-108086295D02*
X139046019Y-108086295D01*
X138817447Y-108086295D02*
X138817447Y-107286295D01*
X138817447Y-107286295D02*
X138893638Y-107400580D01*
X138893638Y-107400580D02*
X138969828Y-107476771D01*
X138969828Y-107476771D02*
X139046019Y-107514866D01*
X151568132Y-105292304D02*
X151606228Y-105330400D01*
X151606228Y-105330400D02*
X151720513Y-105368495D01*
X151720513Y-105368495D02*
X151796704Y-105368495D01*
X151796704Y-105368495D02*
X151910990Y-105330400D01*
X151910990Y-105330400D02*
X151987180Y-105254209D01*
X151987180Y-105254209D02*
X152025275Y-105178019D01*
X152025275Y-105178019D02*
X152063371Y-105025638D01*
X152063371Y-105025638D02*
X152063371Y-104911352D01*
X152063371Y-104911352D02*
X152025275Y-104758971D01*
X152025275Y-104758971D02*
X151987180Y-104682780D01*
X151987180Y-104682780D02*
X151910990Y-104606590D01*
X151910990Y-104606590D02*
X151796704Y-104568495D01*
X151796704Y-104568495D02*
X151720513Y-104568495D01*
X151720513Y-104568495D02*
X151606228Y-104606590D01*
X151606228Y-104606590D02*
X151568132Y-104644685D01*
X150806228Y-105368495D02*
X151263371Y-105368495D01*
X151034799Y-105368495D02*
X151034799Y-104568495D01*
X151034799Y-104568495D02*
X151110990Y-104682780D01*
X151110990Y-104682780D02*
X151187180Y-104758971D01*
X151187180Y-104758971D02*
X151263371Y-104797066D01*
X165172895Y-115951076D02*
X165820514Y-115951076D01*
X165820514Y-115951076D02*
X165896704Y-115989171D01*
X165896704Y-115989171D02*
X165934800Y-116027266D01*
X165934800Y-116027266D02*
X165972895Y-116103457D01*
X165972895Y-116103457D02*
X165972895Y-116255838D01*
X165972895Y-116255838D02*
X165934800Y-116332028D01*
X165934800Y-116332028D02*
X165896704Y-116370123D01*
X165896704Y-116370123D02*
X165820514Y-116408219D01*
X165820514Y-116408219D02*
X165172895Y-116408219D01*
X165172895Y-116712980D02*
X165172895Y-117208218D01*
X165172895Y-117208218D02*
X165477657Y-116941552D01*
X165477657Y-116941552D02*
X165477657Y-117055837D01*
X165477657Y-117055837D02*
X165515752Y-117132028D01*
X165515752Y-117132028D02*
X165553847Y-117170123D01*
X165553847Y-117170123D02*
X165630038Y-117208218D01*
X165630038Y-117208218D02*
X165820514Y-117208218D01*
X165820514Y-117208218D02*
X165896704Y-117170123D01*
X165896704Y-117170123D02*
X165934800Y-117132028D01*
X165934800Y-117132028D02*
X165972895Y-117055837D01*
X165972895Y-117055837D02*
X165972895Y-116827266D01*
X165972895Y-116827266D02*
X165934800Y-116751075D01*
X165934800Y-116751075D02*
X165896704Y-116712980D01*
X137013885Y-105241504D02*
X137051981Y-105279600D01*
X137051981Y-105279600D02*
X137166266Y-105317695D01*
X137166266Y-105317695D02*
X137242457Y-105317695D01*
X137242457Y-105317695D02*
X137356743Y-105279600D01*
X137356743Y-105279600D02*
X137432933Y-105203409D01*
X137432933Y-105203409D02*
X137471028Y-105127219D01*
X137471028Y-105127219D02*
X137509124Y-104974838D01*
X137509124Y-104974838D02*
X137509124Y-104860552D01*
X137509124Y-104860552D02*
X137471028Y-104708171D01*
X137471028Y-104708171D02*
X137432933Y-104631980D01*
X137432933Y-104631980D02*
X137356743Y-104555790D01*
X137356743Y-104555790D02*
X137242457Y-104517695D01*
X137242457Y-104517695D02*
X137166266Y-104517695D01*
X137166266Y-104517695D02*
X137051981Y-104555790D01*
X137051981Y-104555790D02*
X137013885Y-104593885D01*
X136251981Y-105317695D02*
X136709124Y-105317695D01*
X136480552Y-105317695D02*
X136480552Y-104517695D01*
X136480552Y-104517695D02*
X136556743Y-104631980D01*
X136556743Y-104631980D02*
X136632933Y-104708171D01*
X136632933Y-104708171D02*
X136709124Y-104746266D01*
X135490076Y-105317695D02*
X135947219Y-105317695D01*
X135718647Y-105317695D02*
X135718647Y-104517695D01*
X135718647Y-104517695D02*
X135794838Y-104631980D01*
X135794838Y-104631980D02*
X135871028Y-104708171D01*
X135871028Y-104708171D02*
X135947219Y-104746266D01*
X146818285Y-107933895D02*
X147084952Y-107552942D01*
X147275428Y-107933895D02*
X147275428Y-107133895D01*
X147275428Y-107133895D02*
X146970666Y-107133895D01*
X146970666Y-107133895D02*
X146894476Y-107171990D01*
X146894476Y-107171990D02*
X146856381Y-107210085D01*
X146856381Y-107210085D02*
X146818285Y-107286276D01*
X146818285Y-107286276D02*
X146818285Y-107400561D01*
X146818285Y-107400561D02*
X146856381Y-107476752D01*
X146856381Y-107476752D02*
X146894476Y-107514847D01*
X146894476Y-107514847D02*
X146970666Y-107552942D01*
X146970666Y-107552942D02*
X147275428Y-107552942D01*
X146513524Y-107210085D02*
X146475428Y-107171990D01*
X146475428Y-107171990D02*
X146399238Y-107133895D01*
X146399238Y-107133895D02*
X146208762Y-107133895D01*
X146208762Y-107133895D02*
X146132571Y-107171990D01*
X146132571Y-107171990D02*
X146094476Y-107210085D01*
X146094476Y-107210085D02*
X146056381Y-107286276D01*
X146056381Y-107286276D02*
X146056381Y-107362466D01*
X146056381Y-107362466D02*
X146094476Y-107476752D01*
X146094476Y-107476752D02*
X146551619Y-107933895D01*
X146551619Y-107933895D02*
X146056381Y-107933895D01*
X145561142Y-107133895D02*
X145484952Y-107133895D01*
X145484952Y-107133895D02*
X145408761Y-107171990D01*
X145408761Y-107171990D02*
X145370666Y-107210085D01*
X145370666Y-107210085D02*
X145332571Y-107286276D01*
X145332571Y-107286276D02*
X145294476Y-107438657D01*
X145294476Y-107438657D02*
X145294476Y-107629133D01*
X145294476Y-107629133D02*
X145332571Y-107781514D01*
X145332571Y-107781514D02*
X145370666Y-107857704D01*
X145370666Y-107857704D02*
X145408761Y-107895800D01*
X145408761Y-107895800D02*
X145484952Y-107933895D01*
X145484952Y-107933895D02*
X145561142Y-107933895D01*
X145561142Y-107933895D02*
X145637333Y-107895800D01*
X145637333Y-107895800D02*
X145675428Y-107857704D01*
X145675428Y-107857704D02*
X145713523Y-107781514D01*
X145713523Y-107781514D02*
X145751619Y-107629133D01*
X145751619Y-107629133D02*
X145751619Y-107438657D01*
X145751619Y-107438657D02*
X145713523Y-107286276D01*
X145713523Y-107286276D02*
X145675428Y-107210085D01*
X145675428Y-107210085D02*
X145637333Y-107171990D01*
X145637333Y-107171990D02*
X145561142Y-107133895D01*
X142024066Y-125345695D02*
X142024066Y-125917123D01*
X142024066Y-125917123D02*
X142062161Y-126031409D01*
X142062161Y-126031409D02*
X142138352Y-126107600D01*
X142138352Y-126107600D02*
X142252637Y-126145695D01*
X142252637Y-126145695D02*
X142328828Y-126145695D01*
X141300256Y-125345695D02*
X141452637Y-125345695D01*
X141452637Y-125345695D02*
X141528828Y-125383790D01*
X141528828Y-125383790D02*
X141566923Y-125421885D01*
X141566923Y-125421885D02*
X141643113Y-125536171D01*
X141643113Y-125536171D02*
X141681209Y-125688552D01*
X141681209Y-125688552D02*
X141681209Y-125993314D01*
X141681209Y-125993314D02*
X141643113Y-126069504D01*
X141643113Y-126069504D02*
X141605018Y-126107600D01*
X141605018Y-126107600D02*
X141528828Y-126145695D01*
X141528828Y-126145695D02*
X141376447Y-126145695D01*
X141376447Y-126145695D02*
X141300256Y-126107600D01*
X141300256Y-126107600D02*
X141262161Y-126069504D01*
X141262161Y-126069504D02*
X141224066Y-125993314D01*
X141224066Y-125993314D02*
X141224066Y-125802838D01*
X141224066Y-125802838D02*
X141262161Y-125726647D01*
X141262161Y-125726647D02*
X141300256Y-125688552D01*
X141300256Y-125688552D02*
X141376447Y-125650457D01*
X141376447Y-125650457D02*
X141528828Y-125650457D01*
X141528828Y-125650457D02*
X141605018Y-125688552D01*
X141605018Y-125688552D02*
X141643113Y-125726647D01*
X141643113Y-125726647D02*
X141681209Y-125802838D01*
X152888932Y-112353495D02*
X153155599Y-111972542D01*
X153346075Y-112353495D02*
X153346075Y-111553495D01*
X153346075Y-111553495D02*
X153041313Y-111553495D01*
X153041313Y-111553495D02*
X152965123Y-111591590D01*
X152965123Y-111591590D02*
X152927028Y-111629685D01*
X152927028Y-111629685D02*
X152888932Y-111705876D01*
X152888932Y-111705876D02*
X152888932Y-111820161D01*
X152888932Y-111820161D02*
X152927028Y-111896352D01*
X152927028Y-111896352D02*
X152965123Y-111934447D01*
X152965123Y-111934447D02*
X153041313Y-111972542D01*
X153041313Y-111972542D02*
X153346075Y-111972542D01*
X152584171Y-111629685D02*
X152546075Y-111591590D01*
X152546075Y-111591590D02*
X152469885Y-111553495D01*
X152469885Y-111553495D02*
X152279409Y-111553495D01*
X152279409Y-111553495D02*
X152203218Y-111591590D01*
X152203218Y-111591590D02*
X152165123Y-111629685D01*
X152165123Y-111629685D02*
X152127028Y-111705876D01*
X152127028Y-111705876D02*
X152127028Y-111782066D01*
X152127028Y-111782066D02*
X152165123Y-111896352D01*
X152165123Y-111896352D02*
X152622266Y-112353495D01*
X152622266Y-112353495D02*
X152127028Y-112353495D01*
D13*
X148762400Y-113831000D02*
X152022400Y-113831000D01*
X148762400Y-115531000D02*
X152022400Y-115531000D01*
X152022400Y-115531000D02*
X152022400Y-113831000D01*
X136696022Y-116153000D02*
X135896778Y-116153000D01*
X136696022Y-117273000D02*
X135896778Y-117273000D01*
X163977600Y-110491000D02*
X163977600Y-113791000D01*
X169487600Y-110491000D02*
X163977600Y-110491000D01*
X169487600Y-113791000D02*
X163977600Y-113791000D01*
X135136601Y-108905800D02*
X137936601Y-108905800D01*
X135136601Y-110905800D02*
X135136601Y-108905800D01*
X137936601Y-108905800D02*
X137936601Y-110905800D01*
X137936601Y-110905800D02*
X135136601Y-110905800D01*
X165679600Y-101807800D02*
X165679600Y-105107800D01*
X165879601Y-105107800D02*
X165879600Y-104507799D01*
X166379600Y-105107800D02*
X165879601Y-105107800D01*
X168279600Y-101807800D02*
X168279600Y-104407800D01*
X142435947Y-104751200D02*
X142958453Y-104751200D01*
X142435947Y-106221200D02*
X142958453Y-106221200D01*
X126058000Y-97876200D02*
X126058000Y-113096200D01*
X126058000Y-113096200D02*
X126908000Y-113096200D01*
X126908000Y-97876200D02*
X126058000Y-97876200D01*
X132278000Y-97876200D02*
X129328000Y-97876200D01*
X132278000Y-99626200D02*
X132278000Y-97876200D01*
X132278000Y-111346200D02*
X132278000Y-113096200D01*
X132278000Y-113096200D02*
X129328000Y-113096200D01*
X133168000Y-111346200D02*
X132278000Y-111346200D01*
D10*
X144379800Y-92290000D02*
X148329800Y-92290000D01*
X144379800Y-96940000D02*
X144379800Y-92290000D01*
D14*
X145179800Y-93075000D02*
X145179800Y-93625000D01*
X145179800Y-95615000D02*
X145179800Y-96165000D01*
X145454800Y-95890000D02*
X144929800Y-95890000D01*
D10*
X148329800Y-92290000D02*
X148329800Y-96940000D01*
X148329800Y-96940000D02*
X144379800Y-96940000D01*
D14*
X147604799Y-93365000D02*
G75*
G02*
X147604800Y-93740000I-12499J-187500D01*
G01*
X147604800Y-93365000D02*
G75*
G02*
X147604800Y-92990000I12500J187500D01*
G01*
X147604800Y-95865000D02*
G75*
G02*
X147604799Y-96240000I-12501J-187500D01*
G01*
X147604800Y-95865000D02*
G75*
G02*
X147604800Y-95490000I12500J187500D01*
G01*
D13*
X148561600Y-108905800D02*
X151361600Y-108905800D01*
X148561600Y-110905800D02*
X148561600Y-108905800D01*
X151361600Y-108905800D02*
X151361600Y-110905800D01*
X151361600Y-110905800D02*
X148561600Y-110905800D01*
X166074135Y-106608200D02*
X167528263Y-106608200D01*
X166074135Y-108428200D02*
X167528263Y-108428200D01*
X161906853Y-111812400D02*
X161384347Y-111812400D01*
X161906853Y-113282400D02*
X161384347Y-113282400D01*
X156084600Y-104412147D02*
X156084600Y-104934653D01*
X157554600Y-104412147D02*
X157554600Y-104934653D01*
X142747276Y-111720100D02*
X143256724Y-111720100D01*
X142747276Y-112765100D02*
X143256724Y-112765100D01*
X157811800Y-117152053D02*
X157811800Y-116629547D01*
X159281800Y-117152053D02*
X159281800Y-116629547D01*
X150564422Y-116305400D02*
X149765178Y-116305400D01*
X150564422Y-117425400D02*
X149765178Y-117425400D01*
X145007400Y-115969622D02*
X145007400Y-115170378D01*
X146127400Y-115969622D02*
X146127400Y-115170378D01*
X134540400Y-113627800D02*
X134540400Y-115327800D01*
X137800400Y-113627800D02*
X134540400Y-113627800D01*
X137800400Y-115327800D02*
X134540400Y-115327800D01*
X141703600Y-109007400D02*
X144503600Y-109007400D01*
X141703600Y-111007400D02*
X141703600Y-109007400D01*
X144503600Y-109007400D02*
X144503600Y-111007400D01*
X144503600Y-111007400D02*
X141703600Y-111007400D01*
X149452876Y-106995700D02*
X149962324Y-106995700D01*
X149452876Y-108040700D02*
X149962324Y-108040700D01*
X141364600Y-116845400D02*
X141364600Y-113585400D01*
X143064600Y-113585400D02*
X141364600Y-113585400D01*
X143064600Y-116845400D02*
X143064600Y-113585400D01*
X158319800Y-104934653D02*
X158319800Y-104412147D01*
X159789800Y-104934653D02*
X159789800Y-104412147D01*
X136295676Y-111720100D02*
X136805124Y-111720100D01*
X136295676Y-112765100D02*
X136805124Y-112765100D01*
X161821864Y-109526400D02*
X161367736Y-109526400D01*
X161821864Y-110996400D02*
X161367736Y-110996400D01*
X164963600Y-92711000D02*
X164963600Y-96571000D01*
X164963600Y-96571000D02*
X166963600Y-96571000D01*
X166963600Y-92711000D02*
X166963600Y-96571000D01*
X161052000Y-106526600D02*
X161052000Y-102666600D01*
X163052000Y-102666600D02*
X161052000Y-102666600D01*
X163052000Y-106526600D02*
X163052000Y-102666600D01*
X136244876Y-107046500D02*
X136754324Y-107046500D01*
X136244876Y-108091500D02*
X136754324Y-108091500D01*
X149206853Y-104598800D02*
X148684347Y-104598800D01*
X149206853Y-106068800D02*
X148684347Y-106068800D01*
X161963200Y-114986500D02*
X162763200Y-114986499D01*
X161963200Y-118106500D02*
X162763200Y-118106501D01*
X163563200Y-114986500D02*
X162763200Y-114986499D01*
X163563200Y-118106500D02*
X162763200Y-118106501D01*
X164063200Y-115036500D02*
X163823200Y-114706500D01*
X164303200Y-114706500D01*
X164063200Y-115036500D01*
G36*
X164063200Y-115036500D02*
G01*
X163823200Y-114706500D01*
X164303200Y-114706500D01*
X164063200Y-115036500D01*
G37*
X137999800Y-105239453D02*
X137999800Y-104716947D01*
X139469800Y-105239453D02*
X139469800Y-104716947D01*
X142594876Y-107097300D02*
X143104324Y-107097300D01*
X142594876Y-108142300D02*
X143104324Y-108142300D01*
X138520400Y-122446399D02*
X138520400Y-124946400D01*
X139570400Y-122446399D02*
X138520400Y-122446399D01*
X139690400Y-126916400D02*
X143570400Y-126916400D01*
X143690400Y-121456400D02*
X143690400Y-122446399D01*
X143690400Y-122446399D02*
X144740400Y-122446399D01*
X144740400Y-122446399D02*
X144740400Y-124946400D01*
X149605276Y-111516900D02*
X150114724Y-111516900D01*
X149605276Y-112561900D02*
X150114724Y-112561900D01*
M02*
