M48
; DRILL file {KiCad 9.0.6} date 2025-11-26T20:09:02+0300
; FORMAT={3:3/ absolute / metric / suppress leading zeros}
; #@! TF.CreationDate,2025-11-26T20:09:02+03:00
; #@! TF.GenerationSoftware,Kicad,Pcbnew,9.0.6
; #@! TF.FileFunction,Plated,1,2,PTH
FMAT,2
METRIC,TZ
; #@! TA.AperFunction,Plated,PTH,ViaDrill
T1C0.400
; #@! TA.AperFunction,Plated,PTH,ComponentDrill
T2C0.600
; #@! TA.AperFunction,Plated,PTH,ComponentDrill
T3C0.750
; #@! TA.AperFunction,Plated,PTH,ComponentDrill
T4C0.800
; #@! TA.AperFunction,Plated,PTH,ViaDrill
T5C1.000
; #@! TA.AperFunction,Plated,PTH,ComponentDrill
T6C1.000
; #@! TA.AperFunction,Plated,PTH,ComponentDrill
T7C1.100
; #@! TA.AperFunction,Plated,PTH,ComponentDrill
T8C1.200
; #@! TA.AperFunction,Plated,PTH,ComponentDrill
T9C1.300
; #@! TA.AperFunction,Plated,PTH,ComponentDrill
T10C1.500
; #@! TA.AperFunction,Plated,PTH,ComponentDrill
T11C1.800
%
G90
G05
T1
X126695Y-105054
X126746Y-97282
X126746Y-100127
X126797Y-102514
X129667Y-93116
X132944Y-94209
X134112Y-95733
X134442Y-123723
X135331Y-110185
X135636Y-94590
X135738Y-105181
X135738Y-107950
X135788Y-106477
X136068Y-102108
X136703Y-112852
X138024Y-108356
X140487Y-126009
X140538Y-124841
X141580Y-97333
X141732Y-91948
X143053Y-102387
X145186Y-121666
X145644Y-119177
X145771Y-114021
X146736Y-114833
X147549Y-118999
X147980Y-123317
X149479Y-106172
X150745Y-109576
X159868Y-107493
X166827Y-104165
X166827Y-105181
X166827Y-106248
X167513Y-112801
X168529Y-112801
X169545Y-112801
X170612Y-112801
T2
X151816Y-98385
X153016Y-93385
T3
X159233Y-120752
X159233Y-122752
T4
X153111Y-103189
X153111Y-105689
X155296Y-98730
X158496Y-93193
X166116Y-98476
X169916Y-98476
T5
X150038Y-91110
T6
X150138Y-120371
X150138Y-122911
X152678Y-120371
X152678Y-122911
X155218Y-120371
X155218Y-122911
T7
X147598Y-125451
X150138Y-125451
X152678Y-125451
X155218Y-125451
T8
X162611Y-93828
X162611Y-98908
T9
X155313Y-115265
X157023Y-110566
T10
X148314Y-87046
X153314Y-87046
X158314Y-87046
T11
X131978Y-88773
X131978Y-121336
X164490Y-121336
X164541Y-88773
T2
G00X135685Y-85174
M15
G01X135685Y-84574
M16
G05
G00X135685Y-88974
M15
G01X135685Y-88374
M16
G05
G00X144325Y-85174
M15
G01X144325Y-84574
M16
G05
G00X144325Y-88974
M15
G01X144325Y-88374
M16
G05
M30
