G04 #@! TF.GenerationSoftware,KiCad,Pcbnew,9.0.6*
G04 #@! TF.CreationDate,2025-11-26T20:09:10+03:00*
G04 #@! TF.ProjectId,SMHome_UniversalRound_ESP32_C3_Mini_v3,534d486f-6d65-45f5-956e-697665727361,12*
G04 #@! TF.SameCoordinates,Original*
G04 #@! TF.FileFunction,Copper,L2,Bot*
G04 #@! TF.FilePolarity,Positive*
%FSLAX46Y46*%
G04 Gerber Fmt 4.6, Leading zero omitted, Abs format (unit mm)*
G04 Created by KiCad (PCBNEW 9.0.6) date 2025-11-26 20:09:10*
%MOMM*%
%LPD*%
G01*
G04 APERTURE LIST*
G04 Aperture macros list*
%AMRoundRect*
0 Rectangle with rounded corners*
0 $1 Rounding radius*
0 $2 $3 $4 $5 $6 $7 $8 $9 X,Y pos of 4 corners*
0 Add a 4 corners polygon primitive as box body*
4,1,4,$2,$3,$4,$5,$6,$7,$8,$9,$2,$3,0*
0 Add four circle primitives for the rounded corners*
1,1,$1+$1,$2,$3*
1,1,$1+$1,$4,$5*
1,1,$1+$1,$6,$7*
1,1,$1+$1,$8,$9*
0 Add four rect primitives between the rounded corners*
20,1,$1+$1,$2,$3,$4,$5,0*
20,1,$1+$1,$4,$5,$6,$7,0*
20,1,$1+$1,$6,$7,$8,$9,0*
20,1,$1+$1,$8,$9,$2,$3,0*%
%AMFreePoly0*
4,1,6,1.000000,0.000000,0.500000,-0.750000,-0.500000,-0.750000,-0.500000,0.750000,0.500000,0.750000,1.000000,0.000000,1.000000,0.000000,$1*%
%AMFreePoly1*
4,1,6,0.500000,-0.750000,-0.650000,-0.750000,-0.150000,0.000000,-0.650000,0.750000,0.500000,0.750000,0.500000,-0.750000,0.500000,-0.750000,$1*%
G04 Aperture macros list end*
G04 #@! TA.AperFunction,ComponentPad*
%ADD10R,1.700000X1.700000*%
G04 #@! TD*
G04 #@! TA.AperFunction,ComponentPad*
%ADD11O,1.700000X1.700000*%
G04 #@! TD*
G04 #@! TA.AperFunction,ComponentPad*
%ADD12C,2.400000*%
G04 #@! TD*
G04 #@! TA.AperFunction,ComponentPad*
%ADD13O,2.400000X2.400000*%
G04 #@! TD*
G04 #@! TA.AperFunction,HeatsinkPad*
%ADD14O,1.100000X1.700000*%
G04 #@! TD*
G04 #@! TA.AperFunction,ComponentPad*
%ADD15C,2.200000*%
G04 #@! TD*
G04 #@! TA.AperFunction,ComponentPad*
%ADD16R,1.600000X1.600000*%
G04 #@! TD*
G04 #@! TA.AperFunction,ComponentPad*
%ADD17C,1.600000*%
G04 #@! TD*
G04 #@! TA.AperFunction,ComponentPad*
%ADD18C,2.600000*%
G04 #@! TD*
G04 #@! TA.AperFunction,ComponentPad*
%ADD19C,2.500000*%
G04 #@! TD*
G04 #@! TA.AperFunction,ComponentPad*
%ADD20R,1.650000X1.650000*%
G04 #@! TD*
G04 #@! TA.AperFunction,ComponentPad*
%ADD21C,1.800000*%
G04 #@! TD*
G04 #@! TA.AperFunction,SMDPad,CuDef*
%ADD22RoundRect,0.250000X0.250000X-0.250000X0.250000X0.250000X-0.250000X0.250000X-0.250000X-0.250000X0*%
G04 #@! TD*
G04 #@! TA.AperFunction,SMDPad,CuDef*
%ADD23RoundRect,0.225000X0.375000X-0.225000X0.375000X0.225000X-0.375000X0.225000X-0.375000X-0.225000X0*%
G04 #@! TD*
G04 #@! TA.AperFunction,SMDPad,CuDef*
%ADD24RoundRect,0.250000X-0.450000X0.350000X-0.450000X-0.350000X0.450000X-0.350000X0.450000X0.350000X0*%
G04 #@! TD*
G04 #@! TA.AperFunction,SMDPad,CuDef*
%ADD25RoundRect,0.250000X-0.350000X-0.450000X0.350000X-0.450000X0.350000X0.450000X-0.350000X0.450000X0*%
G04 #@! TD*
G04 #@! TA.AperFunction,SMDPad,CuDef*
%ADD26RoundRect,0.250000X-1.000000X-0.650000X1.000000X-0.650000X1.000000X0.650000X-1.000000X0.650000X0*%
G04 #@! TD*
G04 #@! TA.AperFunction,SMDPad,CuDef*
%ADD27FreePoly0,180.000000*%
G04 #@! TD*
G04 #@! TA.AperFunction,SMDPad,CuDef*
%ADD28FreePoly1,180.000000*%
G04 #@! TD*
G04 #@! TA.AperFunction,SMDPad,CuDef*
%ADD29RoundRect,0.125000X-0.375000X-0.125000X0.375000X-0.125000X0.375000X0.125000X-0.375000X0.125000X0*%
G04 #@! TD*
G04 #@! TA.AperFunction,SMDPad,CuDef*
%ADD30RoundRect,0.250000X-0.250000X0.475000X-0.250000X-0.475000X0.250000X-0.475000X0.250000X0.475000X0*%
G04 #@! TD*
G04 #@! TA.AperFunction,SMDPad,CuDef*
%ADD31RoundRect,0.175000X-0.325000X-0.175000X0.325000X-0.175000X0.325000X0.175000X-0.325000X0.175000X0*%
G04 #@! TD*
G04 #@! TA.AperFunction,SMDPad,CuDef*
%ADD32RoundRect,0.250000X0.250000X0.475000X-0.250000X0.475000X-0.250000X-0.475000X0.250000X-0.475000X0*%
G04 #@! TD*
G04 #@! TA.AperFunction,SMDPad,CuDef*
%ADD33RoundRect,0.250000X1.500000X-0.250000X1.500000X0.250000X-1.500000X0.250000X-1.500000X-0.250000X0*%
G04 #@! TD*
G04 #@! TA.AperFunction,SMDPad,CuDef*
%ADD34RoundRect,0.250001X1.449999X-0.499999X1.449999X0.499999X-1.449999X0.499999X-1.449999X-0.499999X0*%
G04 #@! TD*
G04 #@! TA.AperFunction,SMDPad,CuDef*
%ADD35R,1.700000X1.100000*%
G04 #@! TD*
G04 #@! TA.AperFunction,SMDPad,CuDef*
%ADD36FreePoly0,0.000000*%
G04 #@! TD*
G04 #@! TA.AperFunction,SMDPad,CuDef*
%ADD37FreePoly1,0.000000*%
G04 #@! TD*
G04 #@! TA.AperFunction,SMDPad,CuDef*
%ADD38RoundRect,0.250000X0.400000X0.625000X-0.400000X0.625000X-0.400000X-0.625000X0.400000X-0.625000X0*%
G04 #@! TD*
G04 #@! TA.AperFunction,SMDPad,CuDef*
%ADD39RoundRect,0.250000X-0.337500X-0.475000X0.337500X-0.475000X0.337500X0.475000X-0.337500X0.475000X0*%
G04 #@! TD*
G04 #@! TA.AperFunction,SMDPad,CuDef*
%ADD40RoundRect,0.250000X0.475000X-0.337500X0.475000X0.337500X-0.475000X0.337500X-0.475000X-0.337500X0*%
G04 #@! TD*
G04 #@! TA.AperFunction,SMDPad,CuDef*
%ADD41RoundRect,0.237500X0.250000X0.237500X-0.250000X0.237500X-0.250000X-0.237500X0.250000X-0.237500X0*%
G04 #@! TD*
G04 #@! TA.AperFunction,ComponentPad*
%ADD42RoundRect,0.250000X-0.625000X0.350000X-0.625000X-0.350000X0.625000X-0.350000X0.625000X0.350000X0*%
G04 #@! TD*
G04 #@! TA.AperFunction,ComponentPad*
%ADD43O,1.750000X1.200000*%
G04 #@! TD*
G04 #@! TA.AperFunction,SMDPad,CuDef*
%ADD44RoundRect,0.237500X-0.250000X-0.237500X0.250000X-0.237500X0.250000X0.237500X-0.250000X0.237500X0*%
G04 #@! TD*
G04 #@! TA.AperFunction,SMDPad,CuDef*
%ADD45RoundRect,0.250000X-0.250000X0.250000X-0.250000X-0.250000X0.250000X-0.250000X0.250000X0.250000X0*%
G04 #@! TD*
G04 #@! TA.AperFunction,SMDPad,CuDef*
%ADD46RoundRect,0.250000X-0.475000X0.337500X-0.475000X-0.337500X0.475000X-0.337500X0.475000X0.337500X0*%
G04 #@! TD*
G04 #@! TA.AperFunction,SMDPad,CuDef*
%ADD47RoundRect,0.150000X0.512500X0.150000X-0.512500X0.150000X-0.512500X-0.150000X0.512500X-0.150000X0*%
G04 #@! TD*
G04 #@! TA.AperFunction,SMDPad,CuDef*
%ADD48RoundRect,0.237500X0.237500X-0.250000X0.237500X0.250000X-0.237500X0.250000X-0.237500X-0.250000X0*%
G04 #@! TD*
G04 #@! TA.AperFunction,SMDPad,CuDef*
%ADD49RoundRect,0.250000X0.350000X0.450000X-0.350000X0.450000X-0.350000X-0.450000X0.350000X-0.450000X0*%
G04 #@! TD*
G04 #@! TA.AperFunction,SMDPad,CuDef*
%ADD50RoundRect,0.250000X0.300000X-0.300000X0.300000X0.300000X-0.300000X0.300000X-0.300000X-0.300000X0*%
G04 #@! TD*
G04 #@! TA.AperFunction,SMDPad,CuDef*
%ADD51RoundRect,0.250000X-0.300000X0.300000X-0.300000X-0.300000X0.300000X-0.300000X0.300000X0.300000X0*%
G04 #@! TD*
G04 #@! TA.AperFunction,SMDPad,CuDef*
%ADD52RoundRect,0.250000X-0.250000X-0.475000X0.250000X-0.475000X0.250000X0.475000X-0.250000X0.475000X0*%
G04 #@! TD*
G04 #@! TA.AperFunction,SMDPad,CuDef*
%ADD53RoundRect,0.225000X-0.225000X-0.375000X0.225000X-0.375000X0.225000X0.375000X-0.225000X0.375000X0*%
G04 #@! TD*
G04 #@! TA.AperFunction,SMDPad,CuDef*
%ADD54RoundRect,0.150000X-0.512500X-0.150000X0.512500X-0.150000X0.512500X0.150000X-0.512500X0.150000X0*%
G04 #@! TD*
G04 #@! TA.AperFunction,SMDPad,CuDef*
%ADD55RoundRect,0.150000X-0.150000X0.587500X-0.150000X-0.587500X0.150000X-0.587500X0.150000X0.587500X0*%
G04 #@! TD*
G04 #@! TA.AperFunction,ViaPad*
%ADD56C,0.800000*%
G04 #@! TD*
G04 #@! TA.AperFunction,ViaPad*
%ADD57C,1.500000*%
G04 #@! TD*
G04 #@! TA.AperFunction,Conductor*
%ADD58C,0.250000*%
G04 #@! TD*
G04 #@! TA.AperFunction,Conductor*
%ADD59C,0.600000*%
G04 #@! TD*
G04 #@! TA.AperFunction,Conductor*
%ADD60C,0.800000*%
G04 #@! TD*
G04 #@! TA.AperFunction,Conductor*
%ADD61C,0.200000*%
G04 #@! TD*
G04 #@! TA.AperFunction,Conductor*
%ADD62C,1.000000*%
G04 #@! TD*
G04 #@! TA.AperFunction,Conductor*
%ADD63C,1.500000*%
G04 #@! TD*
G04 APERTURE END LIST*
D10*
X150138000Y-120370600D03*
D11*
X152678000Y-120370600D03*
X155217999Y-120370600D03*
D12*
X162610800Y-93827600D03*
D13*
X162610800Y-98907599D03*
D14*
X144324800Y-88674200D03*
X144324800Y-84874200D03*
X135684800Y-88674200D03*
X135684800Y-84874200D03*
D15*
X158496000Y-93192600D03*
X155295600Y-98729800D03*
X164541200Y-88773000D03*
D16*
X153111200Y-105689400D03*
D17*
X153111200Y-103189400D03*
D15*
X164490400Y-121335800D03*
D18*
X157022800Y-110566200D03*
X155312699Y-115264663D03*
D16*
X166116000Y-98475800D03*
D17*
X169916000Y-98475800D03*
D15*
X131978400Y-88773000D03*
D19*
X158314400Y-87045800D03*
X153314400Y-87045800D03*
X148314400Y-87045800D03*
D10*
X150138000Y-122910600D03*
D11*
X152678000Y-122910600D03*
X155217999Y-122910600D03*
D17*
X151815800Y-98385000D03*
X153015800Y-93385000D03*
D15*
X131978400Y-121335800D03*
D20*
X147598000Y-125450600D03*
D21*
X150138000Y-125450600D03*
X152678000Y-125450600D03*
X155218000Y-125450600D03*
D22*
X152933400Y-112908399D03*
X152933400Y-110408401D03*
D23*
X137261600Y-103961200D03*
X137261600Y-100661200D03*
D24*
X144576800Y-123028200D03*
X144576800Y-125028200D03*
D25*
X134026400Y-92456000D03*
X136026400Y-92456000D03*
D26*
X166020999Y-110744000D03*
X170021001Y-110744000D03*
D27*
X140602799Y-114173000D03*
D28*
X139152801Y-114173000D03*
D29*
X164979600Y-104507799D03*
X164979600Y-103607800D03*
X164979600Y-101807800D03*
D30*
X168979600Y-102347800D03*
D31*
X168979600Y-104407800D03*
D32*
X144764800Y-110083600D03*
X142864800Y-110083600D03*
D33*
X132999600Y-113232200D03*
X132999600Y-111232200D03*
X132999600Y-109232200D03*
X132999600Y-107232200D03*
X132999600Y-105232200D03*
X132999600Y-103232200D03*
X132999600Y-101232200D03*
X132999600Y-99232200D03*
X132999600Y-97232200D03*
D34*
X127249600Y-115582200D03*
X127249600Y-94882200D03*
D35*
X143104800Y-95885001D03*
X143104800Y-93344999D03*
X149604800Y-93344999D03*
X149604800Y-95885001D03*
D36*
X150354201Y-115697000D03*
D37*
X151804199Y-115697000D03*
D38*
X168351200Y-107518200D03*
X165251198Y-107518200D03*
D39*
X144250500Y-107391200D03*
X146325500Y-107391200D03*
X143996500Y-100990400D03*
X146071500Y-100990400D03*
D40*
X156819600Y-105710900D03*
X156819600Y-103635900D03*
D41*
X146048100Y-116484400D03*
X144223100Y-116484400D03*
D39*
X148187500Y-108254800D03*
X150262500Y-108254800D03*
D42*
X159232600Y-120751600D03*
D43*
X159232600Y-122751601D03*
D22*
X146659600Y-122814399D03*
X146659600Y-120314401D03*
D27*
X144387399Y-114147600D03*
D28*
X142937401Y-114147600D03*
D44*
X149074500Y-113182400D03*
X150899500Y-113182400D03*
D45*
X148082000Y-114980401D03*
X148082000Y-117480399D03*
D46*
X159054800Y-103635900D03*
X159054800Y-105710900D03*
D47*
X140151700Y-92688501D03*
X140151700Y-93638500D03*
X140151700Y-94588499D03*
X137876700Y-94588499D03*
X137876700Y-92688501D03*
D45*
X135686800Y-122600401D03*
X135686800Y-125100399D03*
D48*
X137109200Y-111707300D03*
X137109200Y-109882300D03*
D49*
X139988800Y-96875600D03*
X137988800Y-96875600D03*
D25*
X160645600Y-109093000D03*
X162645600Y-109093000D03*
D50*
X165963600Y-95760999D03*
X165963600Y-92961001D03*
D51*
X162052000Y-103476601D03*
X162052000Y-106276599D03*
D41*
X140813800Y-112014000D03*
X138988800Y-112014000D03*
D24*
X138252200Y-122901200D03*
X138252200Y-124901200D03*
D52*
X149037001Y-111379000D03*
X150936999Y-111379000D03*
D53*
X137948400Y-106629200D03*
X141248400Y-106629200D03*
D54*
X144576800Y-105277998D03*
X144576800Y-104327999D03*
X144576800Y-103378000D03*
X146851800Y-103378000D03*
X146851800Y-105277998D03*
D55*
X139918400Y-100967300D03*
X141818400Y-100967300D03*
X140868400Y-102842300D03*
D22*
X142544800Y-125379799D03*
X142544800Y-122879801D03*
D52*
X138900500Y-110032800D03*
X140800500Y-110032800D03*
D41*
X144752700Y-111988600D03*
X142927700Y-111988600D03*
X152474300Y-117729000D03*
X150649300Y-117729000D03*
D56*
X136067800Y-102108000D03*
X167513000Y-112801400D03*
X166827200Y-105181400D03*
X141732000Y-91948000D03*
X169545000Y-112801400D03*
X134442200Y-123723400D03*
X166827200Y-104165400D03*
X166827200Y-106248200D03*
X170611800Y-112801400D03*
X168529000Y-112801400D03*
X145643600Y-119176800D03*
X150745100Y-109575600D03*
X159867600Y-107492800D03*
X135636000Y-94589600D03*
X141579600Y-97332800D03*
X147548600Y-118999000D03*
X136702800Y-112852200D03*
D57*
X150037800Y-91109800D03*
D56*
X146735800Y-114833400D03*
X126746000Y-100126800D03*
X126746000Y-97282000D03*
X129667000Y-93116400D03*
X135737600Y-105181400D03*
X135788400Y-106476800D03*
X135331200Y-110185200D03*
X135737600Y-107950000D03*
X145770600Y-114020600D03*
X138023600Y-108356400D03*
X147980400Y-123317000D03*
X140538200Y-124841000D03*
X126796800Y-102514400D03*
X126695200Y-105054400D03*
X140487400Y-126009400D03*
X134112000Y-95732600D03*
X145186400Y-121666000D03*
X149479000Y-106172000D03*
X143052800Y-102387400D03*
X132943600Y-94208600D03*
D58*
X142927700Y-111988600D02*
X140839200Y-111988600D01*
D59*
X150936999Y-111379000D02*
X151962801Y-111379000D01*
D60*
X140538200Y-90754200D02*
X133197600Y-90754200D01*
D59*
X150262500Y-109093000D02*
X150745100Y-109575600D01*
D58*
X146071500Y-100990400D02*
X145719800Y-101342100D01*
X140813800Y-110046101D02*
X140800499Y-110032800D01*
X140800499Y-110032800D02*
X142814001Y-110032800D01*
X144134801Y-108813600D02*
X144903100Y-108813600D01*
X148082000Y-117480399D02*
X147543201Y-117480399D01*
X145110200Y-120314401D02*
X142544800Y-122879801D01*
D60*
X131394200Y-93505586D02*
X130429000Y-94470786D01*
X133197600Y-90754200D02*
X131394200Y-92557600D01*
D58*
X144576800Y-104327999D02*
X145018799Y-104327999D01*
X145018799Y-104327999D02*
X145745200Y-105054400D01*
D61*
X155218000Y-125450600D02*
X153389200Y-127279400D01*
D60*
X130429000Y-98196400D02*
X131464800Y-99232200D01*
D58*
X145745200Y-105054400D02*
X145745200Y-106810900D01*
X147543201Y-117480399D02*
X146659600Y-118364000D01*
D61*
X145643600Y-119298401D02*
X146659600Y-120314401D01*
D58*
X140839200Y-111988600D02*
X140813800Y-112014000D01*
D59*
X150745100Y-109575600D02*
X150745100Y-111187101D01*
D58*
X145719800Y-103606600D02*
X144998401Y-104327999D01*
D60*
X131464800Y-99232200D02*
X132999600Y-99232200D01*
D61*
X145643600Y-119176800D02*
X145643600Y-119298401D01*
D59*
X155217999Y-122910600D02*
X155244800Y-122937401D01*
D61*
X153389200Y-127279400D02*
X137865801Y-127279400D01*
D62*
X145623599Y-90988199D02*
X148314400Y-88297398D01*
D59*
X155217999Y-120499001D02*
X155346400Y-120370600D01*
D58*
X146659600Y-120314401D02*
X146659600Y-120751600D01*
D59*
X171500800Y-100060600D02*
X171500800Y-109264201D01*
D60*
X141732000Y-91972199D02*
X143104800Y-93344999D01*
D58*
X140813800Y-112014000D02*
X140813800Y-110046101D01*
X146659600Y-118364000D02*
X146659600Y-120314401D01*
D59*
X146325500Y-108657300D02*
X146325500Y-107391200D01*
D60*
X153111200Y-103189400D02*
X156373100Y-103189400D01*
D59*
X150936999Y-111379000D02*
X150936999Y-113144901D01*
X150745100Y-109575600D02*
X147243800Y-109575600D01*
D60*
X130429000Y-94470786D02*
X130429000Y-98196400D01*
D59*
X150936999Y-113144901D02*
X150899500Y-113182400D01*
D58*
X142864801Y-111925701D02*
X142927700Y-111988600D01*
X146659600Y-120314401D02*
X145110200Y-120314401D01*
D61*
X134442200Y-123723400D02*
X134442200Y-123855799D01*
D59*
X151962801Y-111379000D02*
X152933400Y-110408401D01*
X155217999Y-120370600D02*
X155448000Y-120370600D01*
D60*
X141732000Y-91948000D02*
X140538200Y-90754200D01*
D59*
X169916000Y-98475800D02*
X171500800Y-100060600D01*
X171500800Y-109264201D02*
X170021001Y-110744000D01*
X155217999Y-122910600D02*
X155217999Y-120499001D01*
D61*
X137865801Y-127279400D02*
X135686800Y-125100399D01*
D58*
X145719800Y-101342100D02*
X145719800Y-103606600D01*
D59*
X155244800Y-122937401D02*
X155244800Y-125247400D01*
D60*
X131394200Y-92557600D02*
X131394200Y-93505586D01*
D62*
X148314400Y-88297398D02*
X148314400Y-87045800D01*
X143266799Y-93344999D02*
X145623599Y-90988199D01*
D58*
X145745200Y-106810900D02*
X146325500Y-107391200D01*
D59*
X140151700Y-93638500D02*
X142811299Y-93638500D01*
D61*
X134442200Y-123855799D02*
X135686800Y-125100399D01*
D60*
X141732000Y-91948000D02*
X141732000Y-91972199D01*
D59*
X150262500Y-108254800D02*
X150262500Y-109093000D01*
X150745100Y-111187101D02*
X150936999Y-111379000D01*
D58*
X144903100Y-108813600D02*
X146325500Y-107391200D01*
X142811299Y-93638500D02*
X143104800Y-93344999D01*
X142864801Y-110083600D02*
X144134801Y-108813600D01*
D60*
X156373100Y-103189400D02*
X156819600Y-103635900D01*
D58*
X144998401Y-104327999D02*
X144576800Y-104327999D01*
X142814001Y-110032800D02*
X142864801Y-110083600D01*
D59*
X147243800Y-109575600D02*
X146325500Y-108657300D01*
D58*
X142864801Y-110083600D02*
X142864801Y-111925701D01*
D60*
X145084799Y-91526999D02*
X145623599Y-90988199D01*
D62*
X168979600Y-101491800D02*
X168979600Y-102347800D01*
X166116000Y-98475800D02*
X166116000Y-98628200D01*
X166116000Y-98628200D02*
X168979600Y-101491800D01*
X165963600Y-95760999D02*
X165963600Y-98323400D01*
X165963600Y-98323400D02*
X166116000Y-98475800D01*
D59*
X164979600Y-107246602D02*
X165251198Y-107518200D01*
X164979600Y-104507799D02*
X164979600Y-103607800D01*
X159795300Y-105710900D02*
X159054800Y-105710900D01*
X165251198Y-107518200D02*
X165251198Y-109974199D01*
X160748401Y-104757799D02*
X159795300Y-105710900D01*
D60*
X157022800Y-108381800D02*
X157022800Y-110566200D01*
D59*
X164729600Y-104757799D02*
X160748401Y-104757799D01*
X164979600Y-104507799D02*
X164979600Y-107246602D01*
D60*
X159054800Y-105710900D02*
X159054800Y-106349800D01*
X159054800Y-106349800D02*
X157022800Y-108381800D01*
D59*
X164979600Y-104507799D02*
X164729600Y-104757799D01*
X165251198Y-109974199D02*
X166020999Y-110744000D01*
X163720801Y-101807800D02*
X162052000Y-103476601D01*
X162052000Y-103476601D02*
X159214099Y-103476601D01*
X164979600Y-101807800D02*
X163720801Y-101807800D01*
X159214099Y-103476601D02*
X159054800Y-103635900D01*
D60*
X151257000Y-103759000D02*
X153111200Y-105613200D01*
D58*
X135637101Y-94588499D02*
X135636000Y-94589600D01*
D62*
X159867600Y-107492800D02*
X160645600Y-108270800D01*
D59*
X155312699Y-115264663D02*
X155211099Y-115264663D01*
D62*
X160645600Y-108270800D02*
X160645600Y-109093000D01*
D60*
X147294600Y-97612200D02*
X151257000Y-101574600D01*
X141579600Y-97332800D02*
X141859000Y-97612200D01*
X153111200Y-105613200D02*
X153111200Y-105689400D01*
X156798100Y-105689400D02*
X156819600Y-105710900D01*
D59*
X137876700Y-94588499D02*
X135637101Y-94588499D01*
X139612300Y-100661200D02*
X139918400Y-100967300D01*
X155312699Y-115264663D02*
X155550137Y-115264663D01*
D60*
X141859000Y-97612200D02*
X147294600Y-97612200D01*
D59*
X136144000Y-95097600D02*
X136144000Y-97942400D01*
D60*
X151257000Y-101574600D02*
X151257000Y-103759000D01*
D59*
X135636000Y-94589600D02*
X136144000Y-95097600D01*
X137261600Y-100661200D02*
X139612300Y-100661200D01*
X137261600Y-99060000D02*
X137261600Y-100661200D01*
X136144000Y-97942400D02*
X137261600Y-99060000D01*
D60*
X153111200Y-105689400D02*
X156798100Y-105689400D01*
D63*
X163477399Y-92961001D02*
X165963600Y-92961001D01*
X162610800Y-93827600D02*
X163477399Y-92961001D01*
D59*
X162560000Y-106784599D02*
X162560000Y-109007400D01*
X162560000Y-109007400D02*
X162645600Y-109093000D01*
X162052000Y-106276599D02*
X162560000Y-106784599D01*
D61*
X147459600Y-122014399D02*
X146659600Y-122814399D01*
D58*
X146659600Y-124512200D02*
X147598000Y-125450600D01*
D61*
X146810600Y-124663200D02*
X147598000Y-125450600D01*
X147548600Y-118999000D02*
X147459600Y-119088000D01*
X136702800Y-112852200D02*
X137109200Y-112445800D01*
X147459600Y-119088000D02*
X147459600Y-122014399D01*
D58*
X146659600Y-122814399D02*
X146659600Y-124512200D01*
D61*
X137109200Y-112445800D02*
X137109200Y-111707300D01*
X147598000Y-125450600D02*
X150138000Y-122910600D01*
D62*
X148412200Y-91109800D02*
X143636999Y-95885001D01*
X150037800Y-91109800D02*
X148412200Y-91109800D01*
X143636999Y-95885001D02*
X143104800Y-95885001D01*
D60*
X149604800Y-95885001D02*
X150444201Y-95885001D01*
X150444201Y-95885001D02*
X151815800Y-97256600D01*
X151815800Y-97256600D02*
X151815800Y-98385000D01*
D62*
X153015800Y-93385000D02*
X152975799Y-93344999D01*
X152975799Y-93344999D02*
X149604800Y-93344999D01*
D59*
X168351200Y-107518200D02*
X168351200Y-105036200D01*
X168351200Y-105036200D02*
X168979600Y-104407800D01*
D58*
X143865600Y-112623600D02*
X142937401Y-113551799D01*
X144551400Y-116484400D02*
X144223100Y-116484400D01*
X143865600Y-110678000D02*
X143865600Y-112623600D01*
X144764799Y-110083600D02*
X144596147Y-110083600D01*
X146671200Y-114898000D02*
X146137800Y-114898000D01*
X146137800Y-114898000D02*
X144551400Y-116484400D01*
X142937401Y-114845001D02*
X144223100Y-116130700D01*
X144223100Y-116130700D02*
X144223100Y-116484400D01*
X143960400Y-110583200D02*
X143865600Y-110678000D01*
X144459999Y-110083600D02*
X143867200Y-110676399D01*
X144764799Y-110083600D02*
X144459999Y-110083600D01*
X142937401Y-113551799D02*
X142937401Y-114147600D01*
X142937401Y-114147600D02*
X142937401Y-114845001D01*
X146735800Y-114833400D02*
X146671200Y-114898000D01*
X150138000Y-120065300D02*
X150138000Y-120370600D01*
X152474300Y-117729000D02*
X152888199Y-117315101D01*
X152474300Y-117729000D02*
X150138000Y-120065300D01*
X152888199Y-112953600D02*
X152933400Y-112908399D01*
X152888199Y-117315101D02*
X152888199Y-112953600D01*
X149074500Y-114417299D02*
X150354201Y-115697000D01*
X149074500Y-113182400D02*
X149074500Y-114417299D01*
X131249600Y-107232200D02*
X130098800Y-106081400D01*
X132999600Y-107232200D02*
X131249600Y-107232200D01*
X130098800Y-103479600D02*
X126746000Y-100126800D01*
X130098800Y-106081400D02*
X130098800Y-103479600D01*
X132999600Y-103232200D02*
X131249600Y-103232200D01*
X126746000Y-98728600D02*
X126746000Y-97282000D01*
X131249600Y-103232200D02*
X126746000Y-98728600D01*
X129489200Y-99339400D02*
X131382000Y-101232200D01*
X131382000Y-101232200D02*
X132999600Y-101232200D01*
X129667000Y-93116400D02*
X129489200Y-93294200D01*
X129489200Y-93294200D02*
X129489200Y-99339400D01*
X134749600Y-105232200D02*
X132999600Y-105232200D01*
X134800400Y-105181400D02*
X134749600Y-105232200D01*
X135737600Y-105181400D02*
X134800400Y-105181400D01*
X132999600Y-113232200D02*
X134749600Y-113232200D01*
X136042400Y-106476800D02*
X135788400Y-106476800D01*
X136601200Y-108559600D02*
X136601200Y-107035600D01*
X136093200Y-109067600D02*
X136601200Y-108559600D01*
X134749600Y-113232200D02*
X136093200Y-111888600D01*
X136601200Y-107035600D02*
X136042400Y-106476800D01*
X136093200Y-111888600D02*
X136093200Y-109067600D01*
X134284200Y-111232200D02*
X132999600Y-111232200D01*
X135331200Y-110185200D02*
X134284200Y-111232200D01*
X135737600Y-107950000D02*
X134455400Y-109232200D01*
X134455400Y-109232200D02*
X132999600Y-109232200D01*
X151804199Y-115697000D02*
X151804199Y-115405999D01*
X149963200Y-112305199D02*
X149037001Y-111379000D01*
X151804199Y-115697000D02*
X151804199Y-116574101D01*
X148717000Y-111379000D02*
X149037001Y-111379000D01*
X149963200Y-113565000D02*
X149963200Y-112305199D01*
X151804199Y-116574101D02*
X150649300Y-117729000D01*
X146075400Y-114020600D02*
X148717000Y-111379000D01*
X145770600Y-114020600D02*
X146075400Y-114020600D01*
X151804199Y-115405999D02*
X149963200Y-113565000D01*
X138074400Y-110858901D02*
X138074400Y-113094599D01*
X138074400Y-113094599D02*
X139152801Y-114173000D01*
X138900501Y-110032800D02*
X138900501Y-109233301D01*
X137259700Y-110032800D02*
X137109200Y-109882300D01*
X138900501Y-110032800D02*
X137259700Y-110032800D01*
X138900501Y-110032800D02*
X138074400Y-110858901D01*
X138900501Y-109233301D02*
X138023600Y-108356400D01*
X147980400Y-123317000D02*
X148285200Y-123012200D01*
X146048100Y-116484400D02*
X146578001Y-116484400D01*
X148285200Y-119873400D02*
X149301200Y-118857400D01*
X146578001Y-116484400D02*
X148082000Y-114980401D01*
X149301200Y-118857400D02*
X149301200Y-116199601D01*
X149301200Y-116199601D02*
X148082000Y-114980401D01*
X148285200Y-123012200D02*
X148285200Y-119873400D01*
X138988800Y-112014000D02*
X139344400Y-112014000D01*
X139344400Y-112014000D02*
X140602799Y-113272399D01*
X140602799Y-113272399D02*
X140602799Y-114173000D01*
X144752700Y-113782299D02*
X144387399Y-114147600D01*
X144752700Y-111988600D02*
X144752700Y-113782299D01*
D61*
X144576800Y-125028200D02*
X142896399Y-125028200D01*
D58*
X129336800Y-105054400D02*
X129336800Y-113309400D01*
X126796800Y-102514400D02*
X129336800Y-105054400D01*
D61*
X141076999Y-125379799D02*
X140538200Y-124841000D01*
D58*
X129336800Y-113309400D02*
X133172200Y-117144800D01*
D61*
X142544800Y-125379799D02*
X141076999Y-125379799D01*
D58*
X133172200Y-117856000D02*
X136753600Y-121437400D01*
X133172200Y-117144800D02*
X133172200Y-117856000D01*
X137561150Y-123901200D02*
X139598400Y-123901200D01*
X136753600Y-123093650D02*
X137561150Y-123901200D01*
X136753600Y-121437400D02*
X136753600Y-123093650D01*
X139598400Y-123901200D02*
X140538200Y-124841000D01*
D61*
X142896399Y-125028200D02*
X142544800Y-125379799D01*
D58*
X140335000Y-126161800D02*
X140284200Y-126161800D01*
X128473200Y-106832400D02*
X128473200Y-113385600D01*
X126695200Y-105054400D02*
X128473200Y-106832400D01*
X132481001Y-118130001D02*
X135686800Y-121335800D01*
X140487400Y-126009400D02*
X140335000Y-126161800D01*
X135686800Y-121335800D02*
X135686800Y-122600401D01*
X135686800Y-122600401D02*
X135686800Y-122758200D01*
X132481001Y-117393401D02*
X132481001Y-118130001D01*
X140284200Y-126161800D02*
X139023600Y-124901200D01*
X139023600Y-124901200D02*
X138252200Y-124901200D01*
X128473200Y-113385600D02*
X132481001Y-117393401D01*
X137829800Y-124901200D02*
X138252200Y-124901200D01*
X135686800Y-122758200D02*
X137829800Y-124901200D01*
X145186400Y-122418600D02*
X144576800Y-123028200D01*
D59*
X148187500Y-108254800D02*
X148187500Y-106613698D01*
X147685301Y-106111499D02*
X146851800Y-105277998D01*
X134112000Y-95732600D02*
X132999600Y-96845000D01*
D58*
X140056298Y-123722702D02*
X139234796Y-122901200D01*
X145186400Y-121666000D02*
X145186400Y-122418600D01*
X144576800Y-123028200D02*
X143882298Y-123722702D01*
D59*
X149037302Y-106613698D02*
X148187500Y-106613698D01*
X132999600Y-96845000D02*
X132999600Y-97232200D01*
X152806401Y-125145799D02*
X152704800Y-125247400D01*
X149479000Y-106172000D02*
X149037302Y-106613698D01*
D58*
X139234796Y-122901200D02*
X138252200Y-122901200D01*
X143882298Y-123722702D02*
X140056298Y-123722702D01*
D59*
X148187500Y-106613698D02*
X147685301Y-106111499D01*
X137261600Y-105942400D02*
X137948400Y-106629200D01*
X139624800Y-108305600D02*
X143336100Y-108305600D01*
X143052800Y-104724200D02*
X144250500Y-105921900D01*
X144250500Y-105921900D02*
X144250500Y-107391200D01*
X143606598Y-105277998D02*
X143052800Y-104724200D01*
X143586200Y-102387400D02*
X144576800Y-103378000D01*
X143052800Y-102387400D02*
X143052800Y-104724200D01*
X137261600Y-103961200D02*
X137261600Y-105942400D01*
X144576800Y-105277998D02*
X143606598Y-105277998D01*
X137948400Y-106629200D02*
X139624800Y-108305600D01*
X143336100Y-108305600D02*
X144250500Y-107391200D01*
X143052800Y-102387400D02*
X143586200Y-102387400D01*
X158572200Y-112953800D02*
X161391600Y-115773200D01*
X139988800Y-94624399D02*
X140024700Y-94588499D01*
X161391600Y-121666000D02*
X160305999Y-122751601D01*
X140151700Y-94588499D02*
X140151700Y-96712700D01*
X145034000Y-99390200D02*
X147142200Y-99390200D01*
X139988800Y-96875600D02*
X139988800Y-98450400D01*
X139988800Y-98663000D02*
X141818400Y-100492600D01*
X160305999Y-122751601D02*
X159232600Y-122751601D01*
X143973400Y-100967300D02*
X143996500Y-100990400D01*
X140024700Y-94588499D02*
X140151700Y-94588499D01*
X143996500Y-100990400D02*
X143996500Y-100427700D01*
X149174200Y-101422200D02*
X149174200Y-104368600D01*
X143996500Y-100427700D02*
X145034000Y-99390200D01*
X154660600Y-111810800D02*
X155803600Y-112953800D01*
X154660600Y-109855000D02*
X154660600Y-111810800D01*
X155803600Y-112953800D02*
X158572200Y-112953800D01*
X139988800Y-98450400D02*
X139988800Y-98663000D01*
X141818400Y-100492600D02*
X141818400Y-100967300D01*
X141818400Y-100967300D02*
X143973400Y-100967300D01*
X149174200Y-104368600D02*
X154660600Y-109855000D01*
X140151700Y-96712700D02*
X139988800Y-96875600D01*
X147142200Y-99390200D02*
X149174200Y-101422200D01*
X161391600Y-115773200D02*
X161391600Y-121666000D01*
D58*
X139039600Y-93851401D02*
X139039600Y-95824800D01*
X137876700Y-92688501D02*
X139039600Y-93851401D01*
X139039600Y-95824800D02*
X137988800Y-96875600D01*
X140151700Y-92688501D02*
X139360399Y-91897200D01*
X136585200Y-91897200D02*
X136026400Y-92456000D01*
X139360399Y-91897200D02*
X136585200Y-91897200D01*
X132943600Y-94208600D02*
X134026400Y-93125800D01*
X134026400Y-93125800D02*
X134026400Y-92456000D01*
D60*
X140868400Y-102842301D02*
X140868400Y-106249200D01*
X140868400Y-106249200D02*
X141248400Y-106629200D01*
G04 #@! TA.AperFunction,Conductor*
G36*
X172945274Y-101511886D02*
G01*
X172991130Y-101564602D01*
X173001046Y-101597825D01*
X173026413Y-101765915D01*
X173027028Y-101770591D01*
X173132468Y-102710232D01*
X173132904Y-102714929D01*
X173202525Y-103657854D01*
X173202783Y-103662564D01*
X173236495Y-104607472D01*
X173236574Y-104612188D01*
X173234322Y-105557717D01*
X173234221Y-105562433D01*
X173196011Y-106507196D01*
X173195730Y-106511905D01*
X173121618Y-107454492D01*
X173121159Y-107459186D01*
X173011251Y-108398286D01*
X173010614Y-108402960D01*
X172865065Y-109337227D01*
X172864250Y-109341873D01*
X172683281Y-110269885D01*
X172682291Y-110274496D01*
X172466147Y-111195006D01*
X172464981Y-111199577D01*
X172213997Y-112111150D01*
X172212659Y-112115673D01*
X171927181Y-113017062D01*
X171925672Y-113021531D01*
X171606108Y-113911441D01*
X171604429Y-113915849D01*
X171251266Y-114792923D01*
X171249421Y-114797265D01*
X170961019Y-115441620D01*
X170915665Y-115494768D01*
X170848776Y-115514958D01*
X170838971Y-115514644D01*
X170661286Y-115501896D01*
X170568123Y-115495212D01*
X170224977Y-115507967D01*
X170224965Y-115507968D01*
X169885235Y-115557898D01*
X169552906Y-115644421D01*
X169552898Y-115644424D01*
X169231947Y-115766504D01*
X168926137Y-115922710D01*
X168926126Y-115922716D01*
X168639099Y-116111185D01*
X168639086Y-116111194D01*
X168639081Y-116111198D01*
X168549899Y-116184773D01*
X168374189Y-116329732D01*
X168134590Y-116575725D01*
X168134583Y-116575733D01*
X167923109Y-116846281D01*
X167923107Y-116846284D01*
X167742252Y-117138189D01*
X167594155Y-117448005D01*
X167594153Y-117448011D01*
X167488045Y-117750731D01*
X167480561Y-117772081D01*
X167402821Y-118106567D01*
X167361855Y-118447496D01*
X167358416Y-118765502D01*
X167358142Y-118790885D01*
X167391728Y-119132637D01*
X167462215Y-119468724D01*
X167462216Y-119468728D01*
X167462217Y-119468731D01*
X167462218Y-119468736D01*
X167568766Y-119795158D01*
X167568775Y-119795181D01*
X167710133Y-120108113D01*
X167710144Y-120108136D01*
X167848881Y-120343273D01*
X167865995Y-120411014D01*
X167843768Y-120477254D01*
X167838291Y-120484518D01*
X167392262Y-121033011D01*
X167389194Y-121036640D01*
X166765261Y-121746517D01*
X166762056Y-121750025D01*
X166111390Y-122435472D01*
X166108054Y-122438854D01*
X165431610Y-123098871D01*
X165428146Y-123102124D01*
X164726906Y-123735747D01*
X164723321Y-123738864D01*
X163998301Y-124345177D01*
X163994609Y-124348146D01*
X163664485Y-124603380D01*
X163246927Y-124926213D01*
X163243113Y-124929046D01*
X162473817Y-125478057D01*
X162469898Y-125480742D01*
X161680150Y-125999871D01*
X161676130Y-126002405D01*
X160867055Y-126490907D01*
X160862942Y-126493284D01*
X160035753Y-126950431D01*
X160031551Y-126952649D01*
X159187471Y-127377762D01*
X159183187Y-127379818D01*
X158323428Y-127772290D01*
X158319069Y-127774180D01*
X157444895Y-128133430D01*
X157440467Y-128135151D01*
X156601519Y-128442914D01*
X156558813Y-128450500D01*
X140264916Y-128450500D01*
X140222650Y-128443075D01*
X139424847Y-128153821D01*
X139420610Y-128152196D01*
X139374222Y-128133430D01*
X138586522Y-127814767D01*
X138582350Y-127812990D01*
X137761130Y-127445253D01*
X137757023Y-127443322D01*
X136949859Y-127045808D01*
X136945860Y-127043748D01*
X136153670Y-126616907D01*
X136149766Y-126614710D01*
X136130921Y-126603648D01*
X135625763Y-126307117D01*
X135498027Y-126232135D01*
X135450177Y-126181222D01*
X135436800Y-126125198D01*
X135436800Y-126100398D01*
X135936800Y-126100398D01*
X135986772Y-126100398D01*
X135986786Y-126100397D01*
X136089497Y-126089904D01*
X136255919Y-126034757D01*
X136255924Y-126034755D01*
X136405145Y-125942714D01*
X136529115Y-125818744D01*
X136621156Y-125669523D01*
X136621158Y-125669518D01*
X136676305Y-125503096D01*
X136676306Y-125503089D01*
X136686799Y-125400385D01*
X136686800Y-125400372D01*
X136686800Y-125350399D01*
X135936800Y-125350399D01*
X135936800Y-126100398D01*
X135436800Y-126100398D01*
X135436800Y-125350399D01*
X134686801Y-125350399D01*
X134686801Y-125400388D01*
X134695242Y-125483011D01*
X134682472Y-125551704D01*
X134634591Y-125602588D01*
X134566801Y-125619508D01*
X134501459Y-125597672D01*
X134147989Y-125353767D01*
X133866804Y-125159740D01*
X133863118Y-125157096D01*
X133513789Y-124896678D01*
X133384656Y-124800412D01*
X134686800Y-124800412D01*
X134686800Y-124850399D01*
X135436800Y-124850399D01*
X135436800Y-124100399D01*
X135436799Y-124100398D01*
X135386829Y-124100399D01*
X135386811Y-124100400D01*
X135284102Y-124110893D01*
X135117680Y-124166040D01*
X135117675Y-124166042D01*
X134968454Y-124258083D01*
X134844484Y-124382053D01*
X134752443Y-124531274D01*
X134752441Y-124531279D01*
X134697294Y-124697701D01*
X134697293Y-124697708D01*
X134686800Y-124800412D01*
X133384656Y-124800412D01*
X133141746Y-124619327D01*
X133138158Y-124616549D01*
X132436931Y-124052735D01*
X132433447Y-124049827D01*
X132247441Y-123888718D01*
X131753310Y-123460726D01*
X131749978Y-123457731D01*
X131091841Y-122844128D01*
X131088610Y-122841004D01*
X131082392Y-122834767D01*
X131049008Y-122773391D01*
X131054105Y-122703708D01*
X131096067Y-122647842D01*
X131161571Y-122623531D01*
X131226510Y-122636743D01*
X131273331Y-122660600D01*
X131402403Y-122726366D01*
X131402405Y-122726366D01*
X131402408Y-122726368D01*
X131492993Y-122755801D01*
X131627031Y-122799353D01*
X131860303Y-122836300D01*
X131860308Y-122836300D01*
X132096497Y-122836300D01*
X132329768Y-122799353D01*
X132554392Y-122726368D01*
X132764833Y-122619143D01*
X132955910Y-122480317D01*
X133122917Y-122313310D01*
X133261743Y-122122233D01*
X133368968Y-121911792D01*
X133441953Y-121687168D01*
X133442002Y-121686859D01*
X133478900Y-121453897D01*
X133478900Y-121217702D01*
X133441953Y-120984431D01*
X133404967Y-120870600D01*
X133368968Y-120759808D01*
X133368966Y-120759805D01*
X133368966Y-120759803D01*
X133294872Y-120614387D01*
X133261743Y-120549367D01*
X133122917Y-120358290D01*
X132955910Y-120191283D01*
X132764833Y-120052457D01*
X132740277Y-120039945D01*
X132554396Y-119945233D01*
X132329768Y-119872246D01*
X132096497Y-119835300D01*
X132096492Y-119835300D01*
X131860308Y-119835300D01*
X131860303Y-119835300D01*
X131627031Y-119872246D01*
X131402403Y-119945233D01*
X131191966Y-120052457D01*
X131098176Y-120120600D01*
X131000890Y-120191283D01*
X131000888Y-120191285D01*
X131000887Y-120191285D01*
X130833885Y-120358287D01*
X130833885Y-120358288D01*
X130833883Y-120358290D01*
X130791807Y-120416202D01*
X130695057Y-120549366D01*
X130587833Y-120759803D01*
X130514846Y-120984431D01*
X130477900Y-121217702D01*
X130477900Y-121453897D01*
X130514846Y-121687168D01*
X130587833Y-121911796D01*
X130675448Y-122083748D01*
X130678436Y-122099658D01*
X130686171Y-122113878D01*
X130684751Y-122133287D01*
X130688344Y-122152417D01*
X130682255Y-122167418D01*
X130681075Y-122183562D01*
X130669387Y-122199122D01*
X130662068Y-122217158D01*
X130648836Y-122226485D01*
X130639115Y-122239429D01*
X130620867Y-122246201D01*
X130604961Y-122257415D01*
X130588788Y-122258108D01*
X130573612Y-122263741D01*
X130554600Y-122259573D01*
X130535156Y-122260407D01*
X130520452Y-122252087D01*
X130505362Y-122248780D01*
X130477142Y-122227584D01*
X130453375Y-122203741D01*
X130450231Y-122200470D01*
X129980961Y-121693915D01*
X129838747Y-121540402D01*
X129835727Y-121537020D01*
X129829785Y-121530116D01*
X129635112Y-121303907D01*
X129248800Y-120855014D01*
X129245904Y-120851521D01*
X128914322Y-120436426D01*
X128825263Y-120324936D01*
X128798803Y-120260272D01*
X128811503Y-120191566D01*
X128812525Y-120189591D01*
X128947161Y-119934920D01*
X128947161Y-119934917D01*
X128947166Y-119934910D01*
X129074110Y-119615336D01*
X129114674Y-119468724D01*
X129165800Y-119283935D01*
X129165804Y-119283916D01*
X129185623Y-119162437D01*
X129221171Y-118944546D01*
X129235344Y-118680006D01*
X129239567Y-118601184D01*
X129239567Y-118601181D01*
X129238763Y-118586481D01*
X129220777Y-118257825D01*
X129165019Y-117918512D01*
X129165018Y-117918508D01*
X129165016Y-117918499D01*
X129072947Y-117587207D01*
X128945637Y-117267780D01*
X128922413Y-117223973D01*
X128799168Y-116991492D01*
X128784577Y-116963969D01*
X128784572Y-116963961D01*
X128769663Y-116941965D01*
X128750496Y-116913685D01*
X128729178Y-116847150D01*
X128747216Y-116779649D01*
X128798885Y-116732616D01*
X128818546Y-116725040D01*
X128828372Y-116722184D01*
X128959997Y-116683944D01*
X129101464Y-116600281D01*
X129217681Y-116484064D01*
X129301344Y-116342597D01*
X129301345Y-116342593D01*
X129301346Y-116342592D01*
X129347197Y-116184773D01*
X129347198Y-116184767D01*
X129350099Y-116147901D01*
X129350100Y-116147894D01*
X129350100Y-115305031D01*
X129369785Y-115237992D01*
X129422589Y-115192237D01*
X129491747Y-115182293D01*
X129555303Y-115211318D01*
X129561781Y-115217350D01*
X131919182Y-117574751D01*
X131952667Y-117636074D01*
X131955501Y-117662432D01*
X131955501Y-118053205D01*
X131955500Y-118053223D01*
X131955500Y-118199186D01*
X131976218Y-118276502D01*
X131976218Y-118276504D01*
X131976219Y-118276504D01*
X131976219Y-118276505D01*
X131981515Y-118296271D01*
X131991313Y-118332838D01*
X131991314Y-118332839D01*
X132060493Y-118452662D01*
X132060497Y-118452667D01*
X132165401Y-118557571D01*
X132165407Y-118557576D01*
X135124981Y-121517150D01*
X135139684Y-121544077D01*
X135156277Y-121569896D01*
X135157168Y-121576096D01*
X135158466Y-121578473D01*
X135161300Y-121604831D01*
X135161300Y-121686859D01*
X135141615Y-121753898D01*
X135100422Y-121793591D01*
X135034935Y-121832320D01*
X135034929Y-121832324D01*
X134918723Y-121948530D01*
X134918717Y-121948538D01*
X134835055Y-122090004D01*
X134835054Y-122090007D01*
X134789202Y-122247827D01*
X134789201Y-122247833D01*
X134786300Y-122284699D01*
X134786300Y-122916102D01*
X134789201Y-122952968D01*
X134789202Y-122952974D01*
X134835054Y-123110794D01*
X134835055Y-123110797D01*
X134835056Y-123110799D01*
X134868274Y-123166968D01*
X134918717Y-123252263D01*
X134918723Y-123252271D01*
X135034929Y-123368477D01*
X135034933Y-123368480D01*
X135034935Y-123368482D01*
X135176402Y-123452145D01*
X135218024Y-123464237D01*
X135334226Y-123497998D01*
X135334229Y-123497998D01*
X135334231Y-123497999D01*
X135371106Y-123500901D01*
X135634970Y-123500901D01*
X135702009Y-123520586D01*
X135722651Y-123537220D01*
X136074149Y-123888718D01*
X136107634Y-123950041D01*
X136102650Y-124019733D01*
X136060778Y-124075666D01*
X135995314Y-124100083D01*
X135986468Y-124100399D01*
X135936800Y-124100399D01*
X135936800Y-124850399D01*
X136686799Y-124850399D01*
X136686799Y-124800730D01*
X136706484Y-124733691D01*
X136759288Y-124687936D01*
X136828446Y-124677992D01*
X136892002Y-124707017D01*
X136898480Y-124713049D01*
X137115381Y-124929950D01*
X137148866Y-124991273D01*
X137151700Y-125017631D01*
X137151700Y-125316901D01*
X137154601Y-125353767D01*
X137154602Y-125353773D01*
X137200454Y-125511593D01*
X137200455Y-125511596D01*
X137200456Y-125511598D01*
X137210570Y-125528700D01*
X137284117Y-125653062D01*
X137284123Y-125653070D01*
X137400329Y-125769276D01*
X137400333Y-125769279D01*
X137400335Y-125769281D01*
X137541802Y-125852944D01*
X137583424Y-125865036D01*
X137699626Y-125898797D01*
X137699629Y-125898797D01*
X137699631Y-125898798D01*
X137736506Y-125901700D01*
X137736514Y-125901700D01*
X138767886Y-125901700D01*
X138767894Y-125901700D01*
X138804769Y-125898798D01*
X138804771Y-125898797D01*
X138804773Y-125898797D01*
X138868442Y-125880299D01*
X138962598Y-125852944D01*
X139049205Y-125801725D01*
X139116929Y-125784542D01*
X139183192Y-125806702D01*
X139200006Y-125820775D01*
X139501957Y-126122727D01*
X139789901Y-126410671D01*
X139805322Y-126429461D01*
X139865610Y-126519688D01*
X139865613Y-126519692D01*
X139977107Y-126631186D01*
X139977111Y-126631189D01*
X140108214Y-126718790D01*
X140108227Y-126718797D01*
X140159325Y-126739962D01*
X140253903Y-126779137D01*
X140408553Y-126809899D01*
X140408556Y-126809900D01*
X140408558Y-126809900D01*
X140566244Y-126809900D01*
X140566245Y-126809899D01*
X140720897Y-126779137D01*
X140866579Y-126718794D01*
X140997689Y-126631189D01*
X141109189Y-126519689D01*
X141196794Y-126388579D01*
X141257137Y-126242897D01*
X141287900Y-126088242D01*
X141287900Y-126004299D01*
X141290450Y-125995613D01*
X141289162Y-125986652D01*
X141300140Y-125962611D01*
X141307585Y-125937260D01*
X141314425Y-125931332D01*
X141318187Y-125923096D01*
X141340421Y-125908806D01*
X141360389Y-125891505D01*
X141370903Y-125889217D01*
X141376965Y-125885322D01*
X141411900Y-125880299D01*
X141616474Y-125880299D01*
X141683513Y-125899984D01*
X141723206Y-125941178D01*
X141776717Y-126031661D01*
X141776723Y-126031669D01*
X141892929Y-126147875D01*
X141892933Y-126147878D01*
X141892935Y-126147880D01*
X142034402Y-126231543D01*
X142036440Y-126232135D01*
X142192226Y-126277396D01*
X142192229Y-126277396D01*
X142192231Y-126277397D01*
X142229106Y-126280299D01*
X142229114Y-126280299D01*
X142860486Y-126280299D01*
X142860494Y-126280299D01*
X142897369Y-126277397D01*
X142897371Y-126277396D01*
X142897373Y-126277396D01*
X142956423Y-126260240D01*
X143055198Y-126231543D01*
X143196665Y-126147880D01*
X143312881Y-126031664D01*
X143396544Y-125890197D01*
X143410606Y-125841795D01*
X143448211Y-125782911D01*
X143511684Y-125753704D01*
X143580870Y-125763450D01*
X143617363Y-125788710D01*
X143724929Y-125896276D01*
X143724933Y-125896279D01*
X143724935Y-125896281D01*
X143866402Y-125979944D01*
X143889491Y-125986652D01*
X144024226Y-126025797D01*
X144024229Y-126025797D01*
X144024231Y-126025798D01*
X144061106Y-126028700D01*
X144061114Y-126028700D01*
X145092486Y-126028700D01*
X145092494Y-126028700D01*
X145129369Y-126025798D01*
X145129371Y-126025797D01*
X145129373Y-126025797D01*
X145209887Y-126002405D01*
X145287198Y-125979944D01*
X145428665Y-125896281D01*
X145544881Y-125780065D01*
X145628544Y-125638598D01*
X145674398Y-125480769D01*
X145677300Y-125443894D01*
X145677300Y-124612506D01*
X145674398Y-124575631D01*
X145661512Y-124531279D01*
X145635870Y-124443017D01*
X145628544Y-124417802D01*
X145544881Y-124276335D01*
X145544879Y-124276333D01*
X145544876Y-124276329D01*
X145428670Y-124160123D01*
X145428662Y-124160117D01*
X145386076Y-124134932D01*
X145338393Y-124083863D01*
X145325889Y-124015122D01*
X145352534Y-123950532D01*
X145386076Y-123921468D01*
X145388225Y-123920196D01*
X145428665Y-123896281D01*
X145544881Y-123780065D01*
X145628544Y-123638598D01*
X145668805Y-123500017D01*
X145706409Y-123441136D01*
X145769882Y-123411929D01*
X145839068Y-123421675D01*
X145885125Y-123461352D01*
X145886739Y-123460101D01*
X145891523Y-123466269D01*
X146007729Y-123582475D01*
X146007733Y-123582478D01*
X146007735Y-123582480D01*
X146073220Y-123621207D01*
X146120904Y-123672274D01*
X146134100Y-123727939D01*
X146134100Y-124435404D01*
X146134099Y-124435422D01*
X146134099Y-124443017D01*
X146134099Y-124581383D01*
X146162343Y-124686791D01*
X146162650Y-124687936D01*
X146169913Y-124715040D01*
X146239092Y-124834861D01*
X146239096Y-124834866D01*
X146336181Y-124931951D01*
X146369666Y-124993274D01*
X146372500Y-125019632D01*
X146372500Y-126307117D01*
X146383292Y-126375257D01*
X146387354Y-126400904D01*
X146444950Y-126513942D01*
X146444952Y-126513944D01*
X146444954Y-126513947D01*
X146534652Y-126603645D01*
X146534654Y-126603646D01*
X146534658Y-126603650D01*
X146637043Y-126655818D01*
X146647698Y-126661247D01*
X146741475Y-126676099D01*
X146741481Y-126676100D01*
X148454518Y-126676099D01*
X148548304Y-126661246D01*
X148661342Y-126603650D01*
X148751050Y-126513942D01*
X148808646Y-126400904D01*
X148808646Y-126400902D01*
X148808647Y-126400901D01*
X148823499Y-126307124D01*
X148823500Y-126307119D01*
X148823499Y-126235519D01*
X148843183Y-126168483D01*
X148895986Y-126122727D01*
X148965144Y-126112783D01*
X149028701Y-126141807D01*
X149047817Y-126162636D01*
X149146028Y-126297812D01*
X149146032Y-126297817D01*
X149290786Y-126442571D01*
X149445749Y-126555156D01*
X149456390Y-126562887D01*
X149562467Y-126616936D01*
X149638776Y-126655818D01*
X149638778Y-126655818D01*
X149638781Y-126655820D01*
X149743137Y-126689727D01*
X149833465Y-126719077D01*
X149934557Y-126735088D01*
X150035648Y-126751100D01*
X150035649Y-126751100D01*
X150240351Y-126751100D01*
X150240352Y-126751100D01*
X150442534Y-126719077D01*
X150637219Y-126655820D01*
X150819610Y-126562887D01*
X150918683Y-126490907D01*
X150985213Y-126442571D01*
X150985215Y-126442568D01*
X150985219Y-126442566D01*
X151129966Y-126297819D01*
X151129968Y-126297815D01*
X151129971Y-126297813D01*
X151250284Y-126132214D01*
X151250283Y-126132214D01*
X151250287Y-126132210D01*
X151297516Y-126039517D01*
X151345489Y-125988723D01*
X151413310Y-125971928D01*
X151479445Y-125994465D01*
X151518483Y-126039517D01*
X151556961Y-126115034D01*
X151565715Y-126132214D01*
X151686028Y-126297813D01*
X151830786Y-126442571D01*
X151985749Y-126555156D01*
X151996390Y-126562887D01*
X152102467Y-126616936D01*
X152178776Y-126655818D01*
X152178778Y-126655818D01*
X152178781Y-126655820D01*
X152283137Y-126689727D01*
X152373465Y-126719077D01*
X152474557Y-126735088D01*
X152575648Y-126751100D01*
X152575649Y-126751100D01*
X152780351Y-126751100D01*
X152780352Y-126751100D01*
X152982534Y-126719077D01*
X153177219Y-126655820D01*
X153359610Y-126562887D01*
X153458683Y-126490907D01*
X153509360Y-126454089D01*
X153509361Y-126454088D01*
X153525215Y-126442569D01*
X153525215Y-126442568D01*
X153525219Y-126442566D01*
X153669966Y-126297819D01*
X153790287Y-126132210D01*
X153790288Y-126132207D01*
X153791111Y-126131075D01*
X153846441Y-126088408D01*
X153916054Y-126082429D01*
X153977849Y-126115034D01*
X154001914Y-126147663D01*
X154020609Y-126184353D01*
X154066932Y-126248113D01*
X154694212Y-125620833D01*
X154705482Y-125662892D01*
X154777890Y-125788308D01*
X154880292Y-125890710D01*
X155005708Y-125963118D01*
X155047765Y-125974387D01*
X154420485Y-126601665D01*
X154420485Y-126601666D01*
X154484243Y-126647988D01*
X154680589Y-126748032D01*
X154890164Y-126816126D01*
X155107819Y-126850600D01*
X155328181Y-126850600D01*
X155545835Y-126816126D01*
X155755410Y-126748032D01*
X155951760Y-126647986D01*
X156015513Y-126601666D01*
X156015514Y-126601666D01*
X155388234Y-125974387D01*
X155430292Y-125963118D01*
X155555708Y-125890710D01*
X155658110Y-125788308D01*
X155730518Y-125662892D01*
X155741787Y-125620834D01*
X156369066Y-126248114D01*
X156369066Y-126248113D01*
X156415386Y-126184360D01*
X156515432Y-125988010D01*
X156583526Y-125778435D01*
X156618000Y-125560781D01*
X156618000Y-125340418D01*
X156583526Y-125122764D01*
X156515432Y-124913189D01*
X156415388Y-124716843D01*
X156369066Y-124653085D01*
X156369065Y-124653085D01*
X155741787Y-125280364D01*
X155730518Y-125238308D01*
X155658110Y-125112892D01*
X155555708Y-125010490D01*
X155430292Y-124938082D01*
X155388232Y-124926812D01*
X156015513Y-124299532D01*
X155947818Y-124250350D01*
X155949135Y-124248536D01*
X155908506Y-124203570D01*
X155897128Y-124134633D01*
X155924826Y-124070488D01*
X155947321Y-124049408D01*
X156097459Y-123940327D01*
X156247722Y-123790064D01*
X156247726Y-123790059D01*
X156372619Y-123618157D01*
X156469094Y-123428817D01*
X156534756Y-123226729D01*
X156534756Y-123226726D01*
X156545230Y-123160600D01*
X155651011Y-123160600D01*
X155683924Y-123103593D01*
X155717999Y-122976426D01*
X155717999Y-122844774D01*
X155683924Y-122717607D01*
X155651011Y-122660600D01*
X156545230Y-122660600D01*
X156534756Y-122594473D01*
X156534756Y-122594470D01*
X156469094Y-122392382D01*
X156372619Y-122203042D01*
X156247726Y-122031140D01*
X156247722Y-122031135D01*
X156097463Y-121880876D01*
X156097458Y-121880872D01*
X155925557Y-121755979D01*
X155915953Y-121751086D01*
X155865156Y-121703112D01*
X155848360Y-121635292D01*
X155870896Y-121569156D01*
X155915953Y-121530114D01*
X155925557Y-121525220D01*
X156097458Y-121400327D01*
X156097463Y-121400323D01*
X156247722Y-121250064D01*
X156247726Y-121250059D01*
X156372619Y-121078157D01*
X156469094Y-120888817D01*
X156534756Y-120686729D01*
X156534756Y-120686726D01*
X156545230Y-120620600D01*
X155651011Y-120620600D01*
X155683924Y-120563593D01*
X155717999Y-120436426D01*
X155717999Y-120304774D01*
X155683924Y-120177607D01*
X155651011Y-120120600D01*
X156545230Y-120120600D01*
X156534756Y-120054473D01*
X156534756Y-120054470D01*
X156469094Y-119852382D01*
X156372619Y-119663042D01*
X156247726Y-119491140D01*
X156247722Y-119491135D01*
X156097463Y-119340876D01*
X156097458Y-119340872D01*
X155925556Y-119215979D01*
X155736214Y-119119503D01*
X155534123Y-119053841D01*
X155467999Y-119043368D01*
X155467999Y-119937588D01*
X155410992Y-119904675D01*
X155283825Y-119870600D01*
X155152173Y-119870600D01*
X155025006Y-119904675D01*
X154967999Y-119937588D01*
X154967999Y-119043368D01*
X154967998Y-119043368D01*
X154901874Y-119053841D01*
X154699783Y-119119503D01*
X154510441Y-119215979D01*
X154338539Y-119340872D01*
X154338534Y-119340876D01*
X154188275Y-119491135D01*
X154188271Y-119491140D01*
X154063375Y-119663046D01*
X154063374Y-119663047D01*
X154002648Y-119782228D01*
X153954674Y-119833024D01*
X153886853Y-119849819D01*
X153820718Y-119827281D01*
X153781679Y-119782228D01*
X153762851Y-119745276D01*
X153747524Y-119715195D01*
X153631828Y-119555954D01*
X153492646Y-119416772D01*
X153333405Y-119301076D01*
X153299764Y-119283935D01*
X153158029Y-119211717D01*
X152970826Y-119150890D01*
X152776422Y-119120100D01*
X152776417Y-119120100D01*
X152579583Y-119120100D01*
X152579578Y-119120100D01*
X152385173Y-119150890D01*
X152197970Y-119211717D01*
X152022591Y-119301078D01*
X151917868Y-119377164D01*
X151852062Y-119400644D01*
X151784008Y-119384819D01*
X151735313Y-119334713D01*
X151721438Y-119266235D01*
X151746787Y-119201126D01*
X151757294Y-119189173D01*
X152305650Y-118640818D01*
X152366973Y-118607333D01*
X152393331Y-118604499D01*
X152788722Y-118604499D01*
X152788734Y-118604499D01*
X152824898Y-118601654D01*
X152979694Y-118556681D01*
X153118443Y-118474626D01*
X153232426Y-118360643D01*
X153314481Y-118221894D01*
X153359454Y-118067098D01*
X153362300Y-118030935D01*
X153362299Y-117578161D01*
X153376261Y-117526058D01*
X153374778Y-117525444D01*
X153377887Y-117517937D01*
X153377888Y-117517936D01*
X153413700Y-117384284D01*
X153413700Y-117245917D01*
X153413700Y-117238322D01*
X153413699Y-117238304D01*
X153413699Y-115689598D01*
X153433384Y-115622559D01*
X153486188Y-115576804D01*
X153555346Y-115566860D01*
X153618902Y-115595885D01*
X153656676Y-115654663D01*
X153657461Y-115657460D01*
X153698989Y-115812443D01*
X153698992Y-115812453D01*
X153765218Y-115972336D01*
X153784294Y-116018389D01*
X153895751Y-116211437D01*
X153895756Y-116211443D01*
X153895757Y-116211445D01*
X154031450Y-116388285D01*
X154031456Y-116388292D01*
X154189069Y-116545905D01*
X154189076Y-116545911D01*
X154259933Y-116600281D01*
X154365925Y-116681611D01*
X154558973Y-116793068D01*
X154639632Y-116826478D01*
X154704871Y-116853501D01*
X154764918Y-116878373D01*
X154980236Y-116936067D01*
X155201242Y-116965163D01*
X155201249Y-116965163D01*
X155424149Y-116965163D01*
X155424156Y-116965163D01*
X155645162Y-116936067D01*
X155860480Y-116878373D01*
X156066425Y-116793068D01*
X156259473Y-116681611D01*
X156436323Y-116545910D01*
X156593946Y-116388287D01*
X156729647Y-116211437D01*
X156841104Y-116018389D01*
X156926409Y-115812444D01*
X156984103Y-115597126D01*
X157013199Y-115376120D01*
X157013199Y-115153206D01*
X156984103Y-114932200D01*
X156926409Y-114716882D01*
X156841104Y-114510937D01*
X156729647Y-114317889D01*
X156648642Y-114212320D01*
X156593947Y-114141040D01*
X156593941Y-114141033D01*
X156436328Y-113983420D01*
X156436321Y-113983414D01*
X156297216Y-113876676D01*
X156256013Y-113820249D01*
X156251858Y-113750503D01*
X156286070Y-113689582D01*
X156347787Y-113656829D01*
X156372702Y-113654300D01*
X158230681Y-113654300D01*
X158297720Y-113673985D01*
X158318362Y-113690619D01*
X160654781Y-116027038D01*
X160688266Y-116088361D01*
X160691100Y-116114719D01*
X160691100Y-119887037D01*
X160671415Y-119954076D01*
X160618611Y-119999831D01*
X160549453Y-120009775D01*
X160485897Y-119980750D01*
X160461562Y-119952135D01*
X160449917Y-119933256D01*
X160325945Y-119809284D01*
X160176724Y-119717243D01*
X160176719Y-119717241D01*
X160010297Y-119662094D01*
X160010290Y-119662093D01*
X159907586Y-119651600D01*
X159482600Y-119651600D01*
X159482600Y-120471270D01*
X159462855Y-120451525D01*
X159377345Y-120402156D01*
X159281970Y-120376600D01*
X159183230Y-120376600D01*
X159087855Y-120402156D01*
X159002345Y-120451525D01*
X158982600Y-120471270D01*
X158982600Y-119651600D01*
X158557628Y-119651600D01*
X158557612Y-119651601D01*
X158454902Y-119662094D01*
X158288480Y-119717241D01*
X158288475Y-119717243D01*
X158139254Y-119809284D01*
X158015284Y-119933254D01*
X157923243Y-120082475D01*
X157923241Y-120082480D01*
X157868094Y-120248902D01*
X157868093Y-120248909D01*
X157857600Y-120351613D01*
X157857600Y-120501600D01*
X158952270Y-120501600D01*
X158932525Y-120521345D01*
X158883156Y-120606855D01*
X158857600Y-120702230D01*
X158857600Y-120800970D01*
X158883156Y-120896345D01*
X158932525Y-120981855D01*
X158952270Y-121001600D01*
X157857601Y-121001600D01*
X157857601Y-121151586D01*
X157868094Y-121254297D01*
X157923241Y-121420719D01*
X157923243Y-121420724D01*
X158015284Y-121569945D01*
X158139254Y-121693915D01*
X158290976Y-121787498D01*
X158337700Y-121839446D01*
X158348923Y-121908409D01*
X158321079Y-121972491D01*
X158313561Y-121980718D01*
X158180460Y-122113819D01*
X158070971Y-122277680D01*
X158070964Y-122277693D01*
X157995550Y-122459761D01*
X157995547Y-122459771D01*
X157957100Y-122653057D01*
X157957100Y-122653060D01*
X157957100Y-122850142D01*
X157957100Y-122850144D01*
X157957099Y-122850144D01*
X157995547Y-123043430D01*
X157995550Y-123043440D01*
X158070964Y-123225508D01*
X158070971Y-123225521D01*
X158180460Y-123389382D01*
X158180463Y-123389386D01*
X158319814Y-123528737D01*
X158319818Y-123528740D01*
X158483679Y-123638229D01*
X158483692Y-123638236D01*
X158623581Y-123696179D01*
X158665765Y-123713652D01*
X158665769Y-123713652D01*
X158665770Y-123713653D01*
X158859056Y-123752101D01*
X158859059Y-123752101D01*
X159606143Y-123752101D01*
X159751047Y-123723277D01*
X159799435Y-123713652D01*
X159981514Y-123638233D01*
X160145382Y-123528740D01*
X160185701Y-123488421D01*
X160247024Y-123454935D01*
X160273383Y-123452101D01*
X160374995Y-123452101D01*
X160479163Y-123431380D01*
X160510327Y-123425181D01*
X160596744Y-123389386D01*
X160637806Y-123372378D01*
X160637807Y-123372377D01*
X160637810Y-123372376D01*
X160752542Y-123295715D01*
X161935714Y-122112543D01*
X162012375Y-121997811D01*
X162015952Y-121989177D01*
X162049406Y-121908409D01*
X162065180Y-121870328D01*
X162088899Y-121751086D01*
X162092100Y-121734996D01*
X162092100Y-121217702D01*
X162989900Y-121217702D01*
X162989900Y-121453897D01*
X163026846Y-121687168D01*
X163099833Y-121911796D01*
X163190637Y-122090007D01*
X163207057Y-122122233D01*
X163345883Y-122313310D01*
X163512890Y-122480317D01*
X163703967Y-122619143D01*
X163760292Y-122647842D01*
X163914403Y-122726366D01*
X163914405Y-122726366D01*
X163914408Y-122726368D01*
X164004993Y-122755801D01*
X164139031Y-122799353D01*
X164372303Y-122836300D01*
X164372308Y-122836300D01*
X164608497Y-122836300D01*
X164841768Y-122799353D01*
X165066392Y-122726368D01*
X165276833Y-122619143D01*
X165467910Y-122480317D01*
X165634917Y-122313310D01*
X165773743Y-122122233D01*
X165880968Y-121911792D01*
X165953953Y-121687168D01*
X165954002Y-121686859D01*
X165990900Y-121453897D01*
X165990900Y-121217702D01*
X165953953Y-120984431D01*
X165916967Y-120870600D01*
X165880968Y-120759808D01*
X165880966Y-120759805D01*
X165880966Y-120759803D01*
X165806872Y-120614387D01*
X165773743Y-120549367D01*
X165634917Y-120358290D01*
X165467910Y-120191283D01*
X165276833Y-120052457D01*
X165252277Y-120039945D01*
X165066396Y-119945233D01*
X164841768Y-119872246D01*
X164608497Y-119835300D01*
X164608492Y-119835300D01*
X164372308Y-119835300D01*
X164372303Y-119835300D01*
X164139031Y-119872246D01*
X163914403Y-119945233D01*
X163703966Y-120052457D01*
X163610176Y-120120600D01*
X163512890Y-120191283D01*
X163512888Y-120191285D01*
X163512887Y-120191285D01*
X163345885Y-120358287D01*
X163345885Y-120358288D01*
X163345883Y-120358290D01*
X163303807Y-120416202D01*
X163207057Y-120549366D01*
X163099833Y-120759803D01*
X163026846Y-120984431D01*
X162989900Y-121217702D01*
X162092100Y-121217702D01*
X162092100Y-115704207D01*
X162090666Y-115697000D01*
X162090665Y-115696993D01*
X162072154Y-115603933D01*
X162065180Y-115568872D01*
X162060636Y-115557901D01*
X162012377Y-115441392D01*
X161935712Y-115326654D01*
X159018745Y-112409687D01*
X158904007Y-112333022D01*
X158776532Y-112280221D01*
X158776522Y-112280218D01*
X158641196Y-112253300D01*
X158641194Y-112253300D01*
X158641193Y-112253300D01*
X157964432Y-112253300D01*
X157897393Y-112233615D01*
X157851638Y-112180811D01*
X157841694Y-112111653D01*
X157870719Y-112048097D01*
X157902431Y-112021913D01*
X157914176Y-112015132D01*
X157969574Y-111983148D01*
X158146424Y-111847447D01*
X158304047Y-111689824D01*
X158439748Y-111512974D01*
X158551205Y-111319926D01*
X158636510Y-111113981D01*
X158694204Y-110898663D01*
X158723300Y-110677657D01*
X158723300Y-110454743D01*
X158694204Y-110233737D01*
X158636510Y-110018419D01*
X158628997Y-110000282D01*
X158590276Y-109906800D01*
X158551205Y-109812474D01*
X158439748Y-109619426D01*
X158381038Y-109542913D01*
X158304048Y-109442577D01*
X158304042Y-109442570D01*
X158146429Y-109284957D01*
X158146422Y-109284951D01*
X157969582Y-109149258D01*
X157969580Y-109149256D01*
X157969574Y-109149252D01*
X157969569Y-109149249D01*
X157969566Y-109149247D01*
X157885300Y-109100596D01*
X157877016Y-109091908D01*
X157866097Y-109086922D01*
X157853352Y-109067090D01*
X157837084Y-109050029D01*
X157833868Y-109036772D01*
X157828323Y-109028144D01*
X157823300Y-108993209D01*
X157823300Y-108764740D01*
X157842985Y-108697701D01*
X157859619Y-108677059D01*
X158331216Y-108205462D01*
X158805902Y-107730775D01*
X158867223Y-107697292D01*
X158936914Y-107702276D01*
X158992848Y-107744148D01*
X159008142Y-107771005D01*
X159069588Y-107919348D01*
X159168134Y-108066834D01*
X159168140Y-108066841D01*
X159608781Y-108507481D01*
X159642266Y-108568804D01*
X159645100Y-108595162D01*
X159645100Y-109608701D01*
X159648001Y-109645567D01*
X159648002Y-109645573D01*
X159693854Y-109803393D01*
X159693855Y-109803396D01*
X159777517Y-109944862D01*
X159777523Y-109944870D01*
X159893729Y-110061076D01*
X159893733Y-110061079D01*
X159893735Y-110061081D01*
X160035202Y-110144744D01*
X160074251Y-110156089D01*
X160193026Y-110190597D01*
X160193029Y-110190597D01*
X160193031Y-110190598D01*
X160229906Y-110193500D01*
X160229914Y-110193500D01*
X161061286Y-110193500D01*
X161061294Y-110193500D01*
X161098169Y-110190598D01*
X161098171Y-110190597D01*
X161098173Y-110190597D01*
X161139791Y-110178505D01*
X161255998Y-110144744D01*
X161397465Y-110061081D01*
X161513681Y-109944865D01*
X161538868Y-109902276D01*
X161589937Y-109854593D01*
X161658678Y-109842089D01*
X161723268Y-109868734D01*
X161752332Y-109902276D01*
X161777517Y-109944862D01*
X161777523Y-109944870D01*
X161893729Y-110061076D01*
X161893733Y-110061079D01*
X161893735Y-110061081D01*
X162035202Y-110144744D01*
X162074251Y-110156089D01*
X162193026Y-110190597D01*
X162193029Y-110190597D01*
X162193031Y-110190598D01*
X162229906Y-110193500D01*
X162229914Y-110193500D01*
X163061286Y-110193500D01*
X163061294Y-110193500D01*
X163098169Y-110190598D01*
X163098171Y-110190597D01*
X163098173Y-110190597D01*
X163139791Y-110178505D01*
X163255998Y-110144744D01*
X163397465Y-110061081D01*
X163513681Y-109944865D01*
X163597344Y-109803398D01*
X163643198Y-109645569D01*
X163646100Y-109608694D01*
X163646100Y-108577306D01*
X163643198Y-108540431D01*
X163641072Y-108533114D01*
X163603443Y-108403596D01*
X163597344Y-108382602D01*
X163513681Y-108241135D01*
X163513679Y-108241133D01*
X163513676Y-108241129D01*
X163397470Y-108124923D01*
X163397467Y-108124921D01*
X163397465Y-108124919D01*
X163321378Y-108079921D01*
X163273695Y-108028851D01*
X163260500Y-107973189D01*
X163260500Y-106715603D01*
X163260499Y-106715601D01*
X163233582Y-106580280D01*
X163233581Y-106580278D01*
X163233580Y-106580271D01*
X163230577Y-106573022D01*
X163208995Y-106520918D01*
X163180775Y-106452788D01*
X163180773Y-106452786D01*
X163180773Y-106452784D01*
X163104114Y-106338057D01*
X163104111Y-106338053D01*
X163038819Y-106272761D01*
X163005334Y-106211438D01*
X163002500Y-106185080D01*
X163002500Y-105910912D01*
X163002499Y-105910897D01*
X163001645Y-105900050D01*
X162999598Y-105874030D01*
X162997782Y-105867780D01*
X162965317Y-105756034D01*
X162953744Y-105716201D01*
X162911883Y-105645418D01*
X162894701Y-105577696D01*
X162916861Y-105511434D01*
X162971327Y-105467670D01*
X163018616Y-105458299D01*
X164155100Y-105458299D01*
X164222139Y-105477984D01*
X164267894Y-105530788D01*
X164279100Y-105582299D01*
X164279100Y-106548750D01*
X164261833Y-106611869D01*
X164249454Y-106632801D01*
X164249452Y-106632806D01*
X164203600Y-106790626D01*
X164203599Y-106790632D01*
X164200698Y-106827498D01*
X164200698Y-108208901D01*
X164203599Y-108245767D01*
X164203600Y-108245773D01*
X164249452Y-108403593D01*
X164249453Y-108403596D01*
X164333115Y-108545062D01*
X164333121Y-108545070D01*
X164449327Y-108661276D01*
X164449333Y-108661281D01*
X164489818Y-108685223D01*
X164537502Y-108736292D01*
X164550698Y-108791956D01*
X164550698Y-109592992D01*
X164531013Y-109660031D01*
X164514379Y-109680673D01*
X164502922Y-109692129D01*
X164502916Y-109692137D01*
X164419256Y-109833600D01*
X164419253Y-109833606D01*
X164373401Y-109991426D01*
X164373400Y-109991432D01*
X164370499Y-110028298D01*
X164370499Y-111459701D01*
X164373400Y-111496567D01*
X164373401Y-111496573D01*
X164419253Y-111654393D01*
X164419254Y-111654396D01*
X164502916Y-111795862D01*
X164502922Y-111795870D01*
X164619128Y-111912076D01*
X164619132Y-111912079D01*
X164619134Y-111912081D01*
X164760601Y-111995744D01*
X164776221Y-112000282D01*
X164918425Y-112041597D01*
X164918428Y-112041597D01*
X164918430Y-112041598D01*
X164955305Y-112044500D01*
X164955313Y-112044500D01*
X167086685Y-112044500D01*
X167086693Y-112044500D01*
X167123568Y-112041598D01*
X167123570Y-112041597D01*
X167123572Y-112041597D01*
X167165190Y-112029505D01*
X167281397Y-111995744D01*
X167422864Y-111912081D01*
X167539080Y-111795865D01*
X167622743Y-111654398D01*
X167668597Y-111496569D01*
X167671499Y-111459694D01*
X167671499Y-111443986D01*
X168271002Y-111443986D01*
X168281495Y-111546697D01*
X168336642Y-111713119D01*
X168336644Y-111713124D01*
X168428685Y-111862345D01*
X168552655Y-111986315D01*
X168701876Y-112078356D01*
X168701881Y-112078358D01*
X168868303Y-112133505D01*
X168868310Y-112133506D01*
X168971020Y-112143999D01*
X169771000Y-112143999D01*
X170271001Y-112143999D01*
X171070973Y-112143999D01*
X171070987Y-112143998D01*
X171173698Y-112133505D01*
X171340120Y-112078358D01*
X171340125Y-112078356D01*
X171489346Y-111986315D01*
X171613316Y-111862345D01*
X171705357Y-111713124D01*
X171705359Y-111713119D01*
X171760506Y-111546697D01*
X171760507Y-111546690D01*
X171771000Y-111443986D01*
X171771001Y-111443973D01*
X171771001Y-110994000D01*
X170271001Y-110994000D01*
X170271001Y-112143999D01*
X169771000Y-112143999D01*
X169771001Y-112143998D01*
X169771001Y-110994000D01*
X168271002Y-110994000D01*
X168271002Y-111443986D01*
X167671499Y-111443986D01*
X167671499Y-110044026D01*
X168271001Y-110044026D01*
X168271001Y-110494000D01*
X169771001Y-110494000D01*
X170271001Y-110494000D01*
X171771000Y-110494000D01*
X171771000Y-110044028D01*
X171770999Y-110044013D01*
X171760506Y-109941302D01*
X171705359Y-109774880D01*
X171705357Y-109774875D01*
X171613316Y-109625654D01*
X171489346Y-109501684D01*
X171340125Y-109409643D01*
X171340120Y-109409641D01*
X171173698Y-109354494D01*
X171173691Y-109354493D01*
X171070987Y-109344000D01*
X170271001Y-109344000D01*
X170271001Y-110494000D01*
X169771001Y-110494000D01*
X169771001Y-109344000D01*
X168971029Y-109344000D01*
X168971013Y-109344001D01*
X168868303Y-109354494D01*
X168701881Y-109409641D01*
X168701876Y-109409643D01*
X168552655Y-109501684D01*
X168428685Y-109625654D01*
X168336644Y-109774875D01*
X168336642Y-109774880D01*
X168281495Y-109941302D01*
X168281494Y-109941309D01*
X168271002Y-110044006D01*
X168271001Y-110044026D01*
X167671499Y-110044026D01*
X167671499Y-110028306D01*
X167668597Y-109991431D01*
X167655067Y-109944862D01*
X167632950Y-109868734D01*
X167622743Y-109833602D01*
X167610247Y-109812473D01*
X167539081Y-109692137D01*
X167539080Y-109692135D01*
X167539078Y-109692133D01*
X167539075Y-109692129D01*
X167422869Y-109575923D01*
X167422861Y-109575917D01*
X167281395Y-109492255D01*
X167281392Y-109492254D01*
X167123572Y-109446402D01*
X167123566Y-109446401D01*
X167086700Y-109443500D01*
X167086693Y-109443500D01*
X166075698Y-109443500D01*
X166008659Y-109423815D01*
X165962904Y-109371011D01*
X165951698Y-109319500D01*
X165951698Y-108791956D01*
X165971383Y-108724917D01*
X166012577Y-108685223D01*
X166053063Y-108661281D01*
X166169279Y-108545065D01*
X166252942Y-108403598D01*
X166298796Y-108245769D01*
X166301698Y-108208894D01*
X166301698Y-106827506D01*
X166298796Y-106790631D01*
X166294149Y-106774637D01*
X166252943Y-106632806D01*
X166252942Y-106632803D01*
X166252942Y-106632802D01*
X166169279Y-106491335D01*
X166169277Y-106491333D01*
X166169274Y-106491329D01*
X166053068Y-106375123D01*
X166053060Y-106375117D01*
X165939386Y-106307891D01*
X165911596Y-106291456D01*
X165911595Y-106291455D01*
X165911594Y-106291455D01*
X165911593Y-106291454D01*
X165769504Y-106250173D01*
X165710619Y-106212566D01*
X165681413Y-106149094D01*
X165680100Y-106131097D01*
X165680100Y-105107062D01*
X165699785Y-105040023D01*
X165723838Y-105014026D01*
X165723683Y-105013871D01*
X165727674Y-105009879D01*
X165729173Y-105008259D01*
X165729678Y-105007877D01*
X165816964Y-104892774D01*
X165869959Y-104758389D01*
X165880100Y-104673943D01*
X165880100Y-104341655D01*
X165869959Y-104257209D01*
X165816964Y-104122824D01*
X165816962Y-104122821D01*
X165814577Y-104118579D01*
X165798874Y-104050497D01*
X165814579Y-103997015D01*
X165816959Y-103992780D01*
X165816964Y-103992775D01*
X165869959Y-103858390D01*
X165880100Y-103773944D01*
X165880100Y-103441656D01*
X165869959Y-103357210D01*
X165816964Y-103222825D01*
X165816963Y-103222824D01*
X165816963Y-103222823D01*
X165729678Y-103107721D01*
X165614576Y-103020436D01*
X165480188Y-102967440D01*
X165436842Y-102962235D01*
X165395744Y-102957300D01*
X165395738Y-102957300D01*
X165264313Y-102957300D01*
X165216860Y-102947861D01*
X165207041Y-102943794D01*
X165183928Y-102934220D01*
X165183922Y-102934218D01*
X165048595Y-102907300D01*
X165048593Y-102907300D01*
X164910607Y-102907300D01*
X164910605Y-102907300D01*
X164775277Y-102934218D01*
X164775271Y-102934220D01*
X164742340Y-102947861D01*
X164694887Y-102957300D01*
X164563456Y-102957300D01*
X164525441Y-102961865D01*
X164479011Y-102967440D01*
X164344623Y-103020436D01*
X164229521Y-103107721D01*
X164142236Y-103222823D01*
X164089240Y-103357211D01*
X164083665Y-103403641D01*
X164079100Y-103441656D01*
X164079100Y-103773944D01*
X164086774Y-103837846D01*
X164089241Y-103858391D01*
X164100842Y-103887809D01*
X164107124Y-103957396D01*
X164074787Y-104019332D01*
X164014098Y-104053953D01*
X163985488Y-104057299D01*
X163112999Y-104057299D01*
X163045960Y-104037614D01*
X163000205Y-103984810D01*
X162990261Y-103915652D01*
X162993923Y-103898703D01*
X162997088Y-103887809D01*
X162999598Y-103879170D01*
X163002500Y-103842295D01*
X163002500Y-103568120D01*
X163022185Y-103501081D01*
X163038819Y-103480439D01*
X163974639Y-102544619D01*
X164035962Y-102511134D01*
X164062320Y-102508300D01*
X165048595Y-102508300D01*
X165141689Y-102489782D01*
X165183928Y-102481380D01*
X165216860Y-102467738D01*
X165264313Y-102458300D01*
X165395738Y-102458300D01*
X165395744Y-102458300D01*
X165480190Y-102448159D01*
X165614575Y-102395164D01*
X165729678Y-102307878D01*
X165816964Y-102192775D01*
X165869959Y-102058390D01*
X165880100Y-101973944D01*
X165880100Y-101641656D01*
X165880100Y-101641653D01*
X165879879Y-101637962D01*
X165881492Y-101637865D01*
X165891927Y-101575392D01*
X165938869Y-101523639D01*
X166003282Y-101505450D01*
X167664982Y-101502279D01*
X167732056Y-101521835D01*
X167752897Y-101538597D01*
X168042781Y-101828481D01*
X168076266Y-101889804D01*
X168079100Y-101916162D01*
X168079100Y-102888501D01*
X168082001Y-102925367D01*
X168082002Y-102925373D01*
X168127854Y-103083193D01*
X168127855Y-103083196D01*
X168127856Y-103083198D01*
X168144121Y-103110700D01*
X168211517Y-103224662D01*
X168211523Y-103224670D01*
X168327729Y-103340876D01*
X168327733Y-103340879D01*
X168327735Y-103340881D01*
X168469202Y-103424544D01*
X168502881Y-103434328D01*
X168561767Y-103471934D01*
X168590974Y-103535406D01*
X168581229Y-103604593D01*
X168535625Y-103657528D01*
X168511549Y-103668222D01*
X168511873Y-103669003D01*
X168504365Y-103672112D01*
X168504364Y-103672113D01*
X168484942Y-103680158D01*
X168364370Y-103730100D01*
X168364367Y-103730101D01*
X168364367Y-103730102D01*
X168244149Y-103822349D01*
X168177025Y-103909827D01*
X168151900Y-103942570D01*
X168093913Y-104082563D01*
X168093913Y-104082564D01*
X168079100Y-104195072D01*
X168079100Y-104266280D01*
X168059415Y-104333319D01*
X168042781Y-104353961D01*
X167807088Y-104589653D01*
X167807087Y-104589654D01*
X167730422Y-104704392D01*
X167677621Y-104831867D01*
X167677618Y-104831879D01*
X167655881Y-104941160D01*
X167655881Y-104941163D01*
X167650700Y-104967206D01*
X167650700Y-106244443D01*
X167631015Y-106311482D01*
X167589822Y-106351175D01*
X167549335Y-106375119D01*
X167549329Y-106375123D01*
X167433123Y-106491329D01*
X167433117Y-106491337D01*
X167349455Y-106632803D01*
X167349454Y-106632806D01*
X167303602Y-106790626D01*
X167303601Y-106790632D01*
X167300700Y-106827498D01*
X167300700Y-108208901D01*
X167303601Y-108245767D01*
X167303602Y-108245773D01*
X167349454Y-108403593D01*
X167349455Y-108403596D01*
X167433117Y-108545062D01*
X167433123Y-108545070D01*
X167549329Y-108661276D01*
X167549333Y-108661279D01*
X167549335Y-108661281D01*
X167690802Y-108744944D01*
X167732424Y-108757036D01*
X167848626Y-108790797D01*
X167848629Y-108790797D01*
X167848631Y-108790798D01*
X167885506Y-108793700D01*
X167885514Y-108793700D01*
X168816886Y-108793700D01*
X168816894Y-108793700D01*
X168853769Y-108790798D01*
X168853771Y-108790797D01*
X168853773Y-108790797D01*
X168943460Y-108764740D01*
X169011598Y-108744944D01*
X169153065Y-108661281D01*
X169269281Y-108545065D01*
X169352944Y-108403598D01*
X169398798Y-108245769D01*
X169401700Y-108208894D01*
X169401700Y-106827506D01*
X169398798Y-106790631D01*
X169394151Y-106774637D01*
X169352945Y-106632806D01*
X169352944Y-106632803D01*
X169352944Y-106632802D01*
X169269281Y-106491335D01*
X169269279Y-106491333D01*
X169269276Y-106491329D01*
X169153070Y-106375123D01*
X169153067Y-106375121D01*
X169153065Y-106375119D01*
X169112578Y-106351175D01*
X169064895Y-106300105D01*
X169051700Y-106244443D01*
X169051700Y-105377719D01*
X169060344Y-105348278D01*
X169066868Y-105318292D01*
X169070622Y-105313276D01*
X169071385Y-105310680D01*
X169088019Y-105290038D01*
X169183438Y-105194619D01*
X169244761Y-105161134D01*
X169271119Y-105158300D01*
X169342313Y-105158300D01*
X169342320Y-105158300D01*
X169454836Y-105143487D01*
X169594833Y-105085498D01*
X169715051Y-104993251D01*
X169807298Y-104873033D01*
X169865287Y-104733036D01*
X169880100Y-104620520D01*
X169880100Y-104195080D01*
X169865287Y-104082564D01*
X169807298Y-103942567D01*
X169715051Y-103822349D01*
X169594833Y-103730102D01*
X169594829Y-103730100D01*
X169474258Y-103680158D01*
X169454836Y-103672113D01*
X169454834Y-103672112D01*
X169447327Y-103669003D01*
X169448261Y-103666747D01*
X169399147Y-103636802D01*
X169368626Y-103573951D01*
X169376930Y-103504577D01*
X169421423Y-103450705D01*
X169456314Y-103434329D01*
X169489998Y-103424544D01*
X169631465Y-103340881D01*
X169747681Y-103224665D01*
X169831344Y-103083198D01*
X169877198Y-102925369D01*
X169880100Y-102888494D01*
X169880100Y-101807106D01*
X169880100Y-101621814D01*
X169899785Y-101554775D01*
X169952589Y-101509020D01*
X170003856Y-101497815D01*
X172878200Y-101492330D01*
X172945274Y-101511886D01*
G37*
G04 #@! TD.AperFunction*
G04 #@! TA.AperFunction,Conductor*
G36*
X153963609Y-123453917D02*
G01*
X154002649Y-123498971D01*
X154063378Y-123618157D01*
X154188271Y-123790059D01*
X154188275Y-123790064D01*
X154338538Y-123940327D01*
X154488677Y-124049408D01*
X154531343Y-124104737D01*
X154537322Y-124174351D01*
X154504717Y-124236146D01*
X154487739Y-124249741D01*
X154488181Y-124250349D01*
X154420485Y-124299531D01*
X154420485Y-124299532D01*
X155047765Y-124926812D01*
X155005708Y-124938082D01*
X154880292Y-125010490D01*
X154777890Y-125112892D01*
X154705482Y-125238308D01*
X154694212Y-125280365D01*
X154066932Y-124653085D01*
X154066931Y-124653085D01*
X154020616Y-124716834D01*
X154020613Y-124716838D01*
X154001913Y-124753538D01*
X153953937Y-124804333D01*
X153886116Y-124821126D01*
X153819981Y-124798586D01*
X153791111Y-124770125D01*
X153790288Y-124768992D01*
X153790287Y-124768990D01*
X153669966Y-124603381D01*
X153525219Y-124458634D01*
X153525213Y-124458628D01*
X153359614Y-124338315D01*
X153237975Y-124276337D01*
X153211852Y-124263026D01*
X153161057Y-124215052D01*
X153144262Y-124147231D01*
X153166799Y-124081096D01*
X153211854Y-124042057D01*
X153333403Y-123980125D01*
X153333402Y-123980125D01*
X153333405Y-123980124D01*
X153492646Y-123864428D01*
X153631828Y-123725246D01*
X153747524Y-123566005D01*
X153780696Y-123500901D01*
X153781679Y-123498972D01*
X153829653Y-123448175D01*
X153897474Y-123431380D01*
X153963609Y-123453917D01*
G37*
G04 #@! TD.AperFunction*
G04 #@! TA.AperFunction,Conductor*
G36*
X141930315Y-112431485D02*
G01*
X141981516Y-112479027D01*
X141992664Y-112503438D01*
X142004746Y-112539900D01*
X142004751Y-112539911D01*
X142095252Y-112686634D01*
X142095255Y-112686638D01*
X142217162Y-112808545D01*
X142252884Y-112830579D01*
X142299608Y-112882527D01*
X142310829Y-112951490D01*
X142282985Y-113015572D01*
X142244082Y-113046601D01*
X142199054Y-113069544D01*
X142199053Y-113069545D01*
X142199048Y-113069548D01*
X142109349Y-113159247D01*
X142109346Y-113159251D01*
X142051746Y-113272298D01*
X142031901Y-113397600D01*
X142031901Y-114897599D01*
X142051746Y-115022901D01*
X142051747Y-115022904D01*
X142051748Y-115022906D01*
X142064690Y-115048306D01*
X142109346Y-115135948D01*
X142109349Y-115135952D01*
X142199048Y-115225651D01*
X142199052Y-115225654D01*
X142199054Y-115225656D01*
X142312095Y-115283253D01*
X142312097Y-115283253D01*
X142312099Y-115283254D01*
X142399587Y-115297110D01*
X142437401Y-115303100D01*
X142600969Y-115303100D01*
X142668008Y-115322785D01*
X142688650Y-115339419D01*
X143321567Y-115972336D01*
X143355052Y-116033659D01*
X143352963Y-116094610D01*
X143337947Y-116146298D01*
X143337945Y-116146308D01*
X143335100Y-116182457D01*
X143335100Y-116786322D01*
X143335101Y-116786347D01*
X143337946Y-116822498D01*
X143382917Y-116977289D01*
X143382920Y-116977296D01*
X143464969Y-117116036D01*
X143464973Y-117116041D01*
X143464973Y-117116042D01*
X143464978Y-117116048D01*
X143578951Y-117230021D01*
X143578955Y-117230024D01*
X143578957Y-117230026D01*
X143578960Y-117230027D01*
X143578963Y-117230030D01*
X143642789Y-117267776D01*
X143717706Y-117312081D01*
X143758528Y-117323941D01*
X143872497Y-117357053D01*
X143872500Y-117357053D01*
X143872502Y-117357054D01*
X143908665Y-117359900D01*
X144537534Y-117359899D01*
X144573698Y-117357054D01*
X144728494Y-117312081D01*
X144867243Y-117230026D01*
X144981226Y-117116043D01*
X145028869Y-117035482D01*
X145079936Y-116987800D01*
X145148678Y-116975296D01*
X145213267Y-117001941D01*
X145242330Y-117035480D01*
X145289974Y-117116043D01*
X145289976Y-117116045D01*
X145289978Y-117116048D01*
X145403951Y-117230021D01*
X145403955Y-117230024D01*
X145403957Y-117230026D01*
X145403960Y-117230027D01*
X145403963Y-117230030D01*
X145467789Y-117267776D01*
X145542706Y-117312081D01*
X145583528Y-117323941D01*
X145697497Y-117357053D01*
X145697500Y-117357053D01*
X145697502Y-117357054D01*
X145733665Y-117359900D01*
X146362534Y-117359899D01*
X146398698Y-117357054D01*
X146553494Y-117312081D01*
X146692243Y-117230026D01*
X146806226Y-117116043D01*
X146817277Y-117097357D01*
X146860048Y-117025035D01*
X146911116Y-116977351D01*
X146979858Y-116964847D01*
X147044448Y-116991492D01*
X147084378Y-117048827D01*
X147090138Y-117100757D01*
X147082000Y-117180410D01*
X147082000Y-117230399D01*
X147832000Y-117230399D01*
X147832000Y-116480399D01*
X147831999Y-116480398D01*
X147782029Y-116480399D01*
X147782011Y-116480400D01*
X147679300Y-116490893D01*
X147630614Y-116507026D01*
X147560785Y-116509427D01*
X147500744Y-116473695D01*
X147469552Y-116411174D01*
X147477113Y-116341715D01*
X147503927Y-116301642D01*
X147888351Y-115917220D01*
X147915278Y-115902516D01*
X147941097Y-115885924D01*
X147947297Y-115885032D01*
X147949674Y-115883735D01*
X147976032Y-115880901D01*
X148187969Y-115880901D01*
X148255008Y-115900586D01*
X148275650Y-115917220D01*
X148660070Y-116301640D01*
X148693555Y-116362963D01*
X148688571Y-116432655D01*
X148646699Y-116488588D01*
X148581235Y-116513005D01*
X148533386Y-116507027D01*
X148484700Y-116490894D01*
X148484690Y-116490892D01*
X148381986Y-116480399D01*
X148332000Y-116480399D01*
X148332000Y-117356399D01*
X148312315Y-117423438D01*
X148259511Y-117469193D01*
X148208000Y-117480399D01*
X148082000Y-117480399D01*
X148082000Y-117606399D01*
X148062315Y-117673438D01*
X148009511Y-117719193D01*
X147958000Y-117730399D01*
X147082001Y-117730399D01*
X147082001Y-117780385D01*
X147092494Y-117883096D01*
X147147641Y-118049518D01*
X147147643Y-118049523D01*
X147196093Y-118128072D01*
X147214533Y-118195465D01*
X147193610Y-118262128D01*
X147159445Y-118296271D01*
X147038311Y-118377210D01*
X147038307Y-118377213D01*
X146926813Y-118488707D01*
X146926810Y-118488711D01*
X146839209Y-118619814D01*
X146839202Y-118619827D01*
X146778864Y-118765498D01*
X146778861Y-118765510D01*
X146748100Y-118920153D01*
X146748100Y-119077846D01*
X146778861Y-119232489D01*
X146778864Y-119232501D01*
X146839203Y-119378174D01*
X146839204Y-119378175D01*
X146839206Y-119378179D01*
X146888702Y-119452255D01*
X146909580Y-119518931D01*
X146909600Y-119521145D01*
X146909600Y-121314400D01*
X146922781Y-121327581D01*
X146956266Y-121388904D01*
X146959100Y-121415262D01*
X146959100Y-121755723D01*
X146950455Y-121785163D01*
X146943932Y-121815150D01*
X146940177Y-121820165D01*
X146939415Y-121822762D01*
X146922781Y-121843404D01*
X146888605Y-121877580D01*
X146827282Y-121911065D01*
X146800924Y-121913899D01*
X146343898Y-121913899D01*
X146307032Y-121916800D01*
X146307026Y-121916801D01*
X146149206Y-121962653D01*
X146142046Y-121965752D01*
X146140784Y-121962837D01*
X146087206Y-121976379D01*
X146020963Y-121954160D01*
X145977249Y-121899655D01*
X145969942Y-121830168D01*
X145970283Y-121828378D01*
X145985658Y-121751085D01*
X145986900Y-121744843D01*
X145986900Y-121587155D01*
X145986899Y-121587153D01*
X145979240Y-121548650D01*
X145956137Y-121432503D01*
X145950271Y-121418343D01*
X145942803Y-121348874D01*
X145974078Y-121286395D01*
X146034167Y-121250743D01*
X146103837Y-121253185D01*
X146256902Y-121303906D01*
X146256909Y-121303907D01*
X146359619Y-121314400D01*
X146409599Y-121314399D01*
X146409600Y-121314399D01*
X146409600Y-120564401D01*
X145659601Y-120564401D01*
X145659601Y-120614387D01*
X145670094Y-120717099D01*
X145693455Y-120787599D01*
X145695857Y-120857427D01*
X145660125Y-120917469D01*
X145597604Y-120948661D01*
X145528297Y-120941163D01*
X145419901Y-120896264D01*
X145419889Y-120896261D01*
X145265245Y-120865500D01*
X145265242Y-120865500D01*
X145107558Y-120865500D01*
X145107555Y-120865500D01*
X144952910Y-120896261D01*
X144952898Y-120896264D01*
X144807227Y-120956602D01*
X144807214Y-120956609D01*
X144676111Y-121044210D01*
X144676107Y-121044213D01*
X144564613Y-121155707D01*
X144564610Y-121155711D01*
X144477009Y-121286814D01*
X144477002Y-121286827D01*
X144416664Y-121432498D01*
X144416661Y-121432510D01*
X144385900Y-121587153D01*
X144385900Y-121587158D01*
X144385900Y-121744842D01*
X144385900Y-121744844D01*
X144385899Y-121744844D01*
X144412687Y-121879508D01*
X144406460Y-121949100D01*
X144363597Y-122004277D01*
X144297708Y-122027522D01*
X144291070Y-122027700D01*
X144061098Y-122027700D01*
X144024232Y-122030601D01*
X144024226Y-122030602D01*
X143866406Y-122076454D01*
X143866403Y-122076455D01*
X143724937Y-122160117D01*
X143724933Y-122160120D01*
X143626373Y-122258680D01*
X143565050Y-122292164D01*
X143495358Y-122287180D01*
X143439425Y-122245308D01*
X143433153Y-122236094D01*
X143387117Y-122161457D01*
X143263145Y-122037485D01*
X143113924Y-121945444D01*
X143113919Y-121945442D01*
X142947497Y-121890295D01*
X142947490Y-121890294D01*
X142844786Y-121879801D01*
X142794800Y-121879801D01*
X142794800Y-122755801D01*
X142775115Y-122822840D01*
X142722311Y-122868595D01*
X142670800Y-122879801D01*
X142544800Y-122879801D01*
X142544800Y-123005801D01*
X142525115Y-123072840D01*
X142472311Y-123118595D01*
X142420800Y-123129801D01*
X141544801Y-123129801D01*
X141513719Y-123160883D01*
X141452396Y-123194368D01*
X141426038Y-123197202D01*
X140325329Y-123197202D01*
X140258290Y-123177517D01*
X140237648Y-123160883D01*
X139662371Y-122585606D01*
X139662369Y-122585603D01*
X139656580Y-122579814D01*
X141544800Y-122579814D01*
X141544800Y-122629801D01*
X142294800Y-122629801D01*
X142294800Y-121879801D01*
X142294799Y-121879800D01*
X142244829Y-121879801D01*
X142244811Y-121879802D01*
X142142102Y-121890295D01*
X141975680Y-121945442D01*
X141975675Y-121945444D01*
X141826454Y-122037485D01*
X141702484Y-122161455D01*
X141610443Y-122310676D01*
X141610441Y-122310681D01*
X141555294Y-122477103D01*
X141555293Y-122477110D01*
X141544800Y-122579814D01*
X139656580Y-122579814D01*
X139557462Y-122480696D01*
X139557457Y-122480692D01*
X139437636Y-122411514D01*
X139437634Y-122411513D01*
X139437632Y-122411512D01*
X139409387Y-122403943D01*
X139403598Y-122402391D01*
X139398170Y-122400937D01*
X139338512Y-122364568D01*
X139311194Y-122315758D01*
X139303944Y-122290802D01*
X139220281Y-122149335D01*
X139220279Y-122149333D01*
X139220276Y-122149329D01*
X139104070Y-122033123D01*
X139104062Y-122033117D01*
X138974972Y-121956774D01*
X138962598Y-121949456D01*
X138962597Y-121949455D01*
X138962596Y-121949455D01*
X138962593Y-121949454D01*
X138804773Y-121903602D01*
X138804767Y-121903601D01*
X138767901Y-121900700D01*
X138767894Y-121900700D01*
X137736506Y-121900700D01*
X137736498Y-121900700D01*
X137699632Y-121903601D01*
X137699626Y-121903602D01*
X137541806Y-121949454D01*
X137541799Y-121949457D01*
X137466220Y-121994154D01*
X137398496Y-122011337D01*
X137332234Y-121989177D01*
X137288471Y-121934710D01*
X137279100Y-121887422D01*
X137279100Y-121368219D01*
X137279100Y-121368217D01*
X137243288Y-121234564D01*
X137174105Y-121114735D01*
X137076265Y-121016895D01*
X137076264Y-121016894D01*
X137071934Y-121012564D01*
X137071923Y-121012554D01*
X136073783Y-120014414D01*
X145659600Y-120014414D01*
X145659600Y-120064401D01*
X146409600Y-120064401D01*
X146409600Y-119314401D01*
X146409599Y-119314400D01*
X146359629Y-119314401D01*
X146359611Y-119314402D01*
X146256902Y-119324895D01*
X146090480Y-119380042D01*
X146090475Y-119380044D01*
X145941254Y-119472085D01*
X145817284Y-119596055D01*
X145725243Y-119745276D01*
X145725241Y-119745281D01*
X145670094Y-119911703D01*
X145670093Y-119911710D01*
X145659600Y-120014414D01*
X136073783Y-120014414D01*
X133734019Y-117674650D01*
X133700534Y-117613327D01*
X133697700Y-117586969D01*
X133697700Y-117223986D01*
X133697701Y-117223973D01*
X133697701Y-117075619D01*
X133697701Y-117075617D01*
X133661889Y-116941965D01*
X133658484Y-116936068D01*
X133592707Y-116822138D01*
X133592702Y-116822132D01*
X130991795Y-114221225D01*
X130958310Y-114159902D01*
X130963294Y-114090210D01*
X131005166Y-114034277D01*
X131070630Y-114009860D01*
X131138903Y-114024712D01*
X131142588Y-114026806D01*
X131239202Y-114083944D01*
X131260770Y-114090210D01*
X131397026Y-114129797D01*
X131397029Y-114129797D01*
X131397031Y-114129798D01*
X131433906Y-114132700D01*
X131433914Y-114132700D01*
X134565286Y-114132700D01*
X134565294Y-114132700D01*
X134602169Y-114129798D01*
X134602171Y-114129797D01*
X134602173Y-114129797D01*
X134649496Y-114116048D01*
X134759998Y-114083944D01*
X134901465Y-114000281D01*
X135017681Y-113884065D01*
X135101344Y-113742598D01*
X135141181Y-113605480D01*
X135148833Y-113592536D01*
X135151413Y-113580669D01*
X135172541Y-113552441D01*
X135172559Y-113552411D01*
X135172578Y-113552391D01*
X135175961Y-113549008D01*
X135178106Y-113546861D01*
X135180303Y-113544664D01*
X135180306Y-113544663D01*
X135180309Y-113544660D01*
X135180312Y-113544655D01*
X135720282Y-113004685D01*
X135781602Y-112971203D01*
X135851294Y-112976187D01*
X135907227Y-113018059D01*
X135929577Y-113068174D01*
X135933062Y-113085695D01*
X135933064Y-113085701D01*
X135993402Y-113231372D01*
X135993409Y-113231385D01*
X136081010Y-113362488D01*
X136081013Y-113362492D01*
X136192507Y-113473986D01*
X136192511Y-113473989D01*
X136323614Y-113561590D01*
X136323627Y-113561597D01*
X136428630Y-113605090D01*
X136469303Y-113621937D01*
X136623953Y-113652699D01*
X136623956Y-113652700D01*
X136623958Y-113652700D01*
X136781644Y-113652700D01*
X136781645Y-113652699D01*
X136936297Y-113621937D01*
X137061562Y-113570051D01*
X137081972Y-113561597D01*
X137081972Y-113561596D01*
X137081979Y-113561594D01*
X137213089Y-113473989D01*
X137324589Y-113362489D01*
X137342219Y-113336103D01*
X137373499Y-113289291D01*
X137427111Y-113244485D01*
X137496436Y-113235778D01*
X137559463Y-113265932D01*
X137583988Y-113296181D01*
X137653892Y-113417260D01*
X137653896Y-113417265D01*
X137758800Y-113522169D01*
X137758806Y-113522174D01*
X138210982Y-113974350D01*
X138244467Y-114035673D01*
X138247301Y-114062031D01*
X138247301Y-114922999D01*
X138267146Y-115048301D01*
X138267147Y-115048304D01*
X138267148Y-115048306D01*
X138324745Y-115161347D01*
X138324746Y-115161348D01*
X138324749Y-115161352D01*
X138414448Y-115251051D01*
X138414452Y-115251054D01*
X138414454Y-115251056D01*
X138527495Y-115308653D01*
X138527497Y-115308653D01*
X138527499Y-115308654D01*
X138614987Y-115322510D01*
X138652801Y-115328500D01*
X138652802Y-115328500D01*
X139802796Y-115328500D01*
X139802801Y-115328500D01*
X139912462Y-115313391D01*
X139912468Y-115313387D01*
X139919185Y-115311429D01*
X139973317Y-115307992D01*
X140066717Y-115322785D01*
X140102799Y-115328500D01*
X140102800Y-115328500D01*
X141102798Y-115328500D01*
X141102799Y-115328500D01*
X141156956Y-115319922D01*
X141228100Y-115308654D01*
X141228100Y-115308653D01*
X141228105Y-115308653D01*
X141341146Y-115251056D01*
X141430855Y-115161347D01*
X141488452Y-115048306D01*
X141508299Y-114923000D01*
X141508299Y-113423000D01*
X141507391Y-113417265D01*
X141488453Y-113297698D01*
X141488452Y-113297696D01*
X141488452Y-113297694D01*
X141430855Y-113184653D01*
X141430853Y-113184651D01*
X141430850Y-113184647D01*
X141360496Y-113114293D01*
X141327011Y-113052970D01*
X141331995Y-112983278D01*
X141373867Y-112927345D01*
X141383080Y-112921073D01*
X141524339Y-112833943D01*
X141646244Y-112712038D01*
X141646247Y-112712034D01*
X141736748Y-112565311D01*
X141736754Y-112565298D01*
X141757252Y-112503439D01*
X141797024Y-112445994D01*
X141861539Y-112419170D01*
X141930315Y-112431485D01*
G37*
G04 #@! TD.AperFunction*
G04 #@! TA.AperFunction,Conductor*
G36*
X155467999Y-122477588D02*
G01*
X155410992Y-122444675D01*
X155283825Y-122410600D01*
X155152173Y-122410600D01*
X155025006Y-122444675D01*
X154967999Y-122477588D01*
X154967999Y-120803612D01*
X155025006Y-120836525D01*
X155152173Y-120870600D01*
X155283825Y-120870600D01*
X155410992Y-120836525D01*
X155467999Y-120803612D01*
X155467999Y-122477588D01*
G37*
G04 #@! TD.AperFunction*
G04 #@! TA.AperFunction,Conductor*
G36*
X150361604Y-106546912D02*
G01*
X150366422Y-106551479D01*
X150633062Y-106818119D01*
X150666547Y-106879442D01*
X150661563Y-106949134D01*
X150619691Y-107005067D01*
X150554227Y-107029484D01*
X150545381Y-107029800D01*
X150512500Y-107029800D01*
X150512500Y-108004800D01*
X151349999Y-108004800D01*
X151349999Y-107834418D01*
X151369684Y-107767379D01*
X151422488Y-107721624D01*
X151491646Y-107711680D01*
X151555202Y-107740705D01*
X151561680Y-107746737D01*
X153147081Y-109332138D01*
X153180566Y-109393461D01*
X153183400Y-109419819D01*
X153183400Y-111408400D01*
X153233372Y-111408400D01*
X153233386Y-111408399D01*
X153336097Y-111397906D01*
X153502519Y-111342759D01*
X153502524Y-111342757D01*
X153651745Y-111250716D01*
X153748419Y-111154043D01*
X153809742Y-111120558D01*
X153879434Y-111125542D01*
X153935367Y-111167414D01*
X153959784Y-111232878D01*
X153960100Y-111241724D01*
X153960100Y-111741806D01*
X153960100Y-111879794D01*
X153960100Y-111879796D01*
X153960099Y-111879796D01*
X153987018Y-112015122D01*
X153987021Y-112015132D01*
X154039822Y-112142607D01*
X154116487Y-112257345D01*
X155219671Y-113360529D01*
X155253156Y-113421852D01*
X155248172Y-113491544D01*
X155206300Y-113547477D01*
X155148176Y-113571149D01*
X155016908Y-113588431D01*
X154980236Y-113593259D01*
X154873208Y-113621937D01*
X154764918Y-113650953D01*
X154764908Y-113650956D01*
X154558976Y-113736256D01*
X154558972Y-113736258D01*
X154365925Y-113847715D01*
X154365916Y-113847721D01*
X154189076Y-113983414D01*
X154189069Y-113983420D01*
X154031456Y-114141033D01*
X154031450Y-114141040D01*
X153895757Y-114317880D01*
X153895751Y-114317889D01*
X153784294Y-114510936D01*
X153784292Y-114510940D01*
X153698992Y-114716872D01*
X153698989Y-114716882D01*
X153657474Y-114871820D01*
X153621109Y-114931481D01*
X153558262Y-114962010D01*
X153488886Y-114953715D01*
X153435009Y-114909230D01*
X153413734Y-114842678D01*
X153413699Y-114839727D01*
X153413699Y-113848672D01*
X153433384Y-113781633D01*
X153474578Y-113741940D01*
X153508994Y-113721585D01*
X153585265Y-113676480D01*
X153701481Y-113560264D01*
X153785144Y-113418797D01*
X153827706Y-113272298D01*
X153830997Y-113260972D01*
X153830998Y-113260966D01*
X153833326Y-113231385D01*
X153833900Y-113224093D01*
X153833900Y-112592705D01*
X153830998Y-112555830D01*
X153829524Y-112550757D01*
X153788539Y-112409686D01*
X153785144Y-112398001D01*
X153701481Y-112256534D01*
X153701479Y-112256532D01*
X153701476Y-112256528D01*
X153585270Y-112140322D01*
X153585262Y-112140316D01*
X153480496Y-112078358D01*
X153443798Y-112056655D01*
X153443797Y-112056654D01*
X153443796Y-112056654D01*
X153443793Y-112056653D01*
X153285973Y-112010801D01*
X153285967Y-112010800D01*
X153249101Y-112007899D01*
X153249094Y-112007899D01*
X152617706Y-112007899D01*
X152617698Y-112007899D01*
X152580832Y-112010800D01*
X152580826Y-112010801D01*
X152423006Y-112056653D01*
X152423003Y-112056654D01*
X152281537Y-112140316D01*
X152281529Y-112140322D01*
X152165323Y-112256528D01*
X152165317Y-112256536D01*
X152081655Y-112398002D01*
X152081654Y-112398005D01*
X152035802Y-112555825D01*
X152034663Y-112562066D01*
X152032082Y-112561594D01*
X152025020Y-112580087D01*
X152015639Y-112609979D01*
X152012654Y-112612469D01*
X152011268Y-112616101D01*
X151986043Y-112634679D01*
X151961997Y-112654749D01*
X151958140Y-112655230D01*
X151955011Y-112657536D01*
X151923749Y-112659527D01*
X151892667Y-112663410D01*
X151889161Y-112661729D01*
X151885282Y-112661977D01*
X151857911Y-112646753D01*
X151829659Y-112633214D01*
X151826272Y-112629156D01*
X151824222Y-112628016D01*
X151807044Y-112606117D01*
X151739679Y-112496901D01*
X151721239Y-112429508D01*
X151742162Y-112362845D01*
X151757538Y-112344121D01*
X151779315Y-112322344D01*
X151871355Y-112173124D01*
X151871357Y-112173119D01*
X151926504Y-112006697D01*
X151926505Y-112006690D01*
X151936998Y-111903986D01*
X151936999Y-111903973D01*
X151936999Y-111629000D01*
X151186999Y-111629000D01*
X151186999Y-112645139D01*
X151167314Y-112712178D01*
X151150680Y-112732820D01*
X151149500Y-112734000D01*
X151149500Y-113058400D01*
X151129815Y-113125439D01*
X151077011Y-113171194D01*
X151025500Y-113182400D01*
X150773500Y-113182400D01*
X150706461Y-113162715D01*
X150660706Y-113109911D01*
X150649500Y-113058400D01*
X150649500Y-112166261D01*
X150669185Y-112099222D01*
X150685819Y-112078580D01*
X150686999Y-112077400D01*
X150686999Y-111129000D01*
X151186999Y-111129000D01*
X151944905Y-111129000D01*
X151988810Y-111105026D01*
X152058502Y-111110010D01*
X152102849Y-111138511D01*
X152215054Y-111250716D01*
X152364275Y-111342757D01*
X152364280Y-111342759D01*
X152530702Y-111397906D01*
X152530709Y-111397907D01*
X152633419Y-111408400D01*
X152683399Y-111408399D01*
X152683400Y-111408399D01*
X152683400Y-110658401D01*
X151927400Y-110658401D01*
X151860361Y-110638716D01*
X151814606Y-110585912D01*
X151803400Y-110534401D01*
X151803400Y-110474702D01*
X151803399Y-110474699D01*
X151779318Y-110435659D01*
X151779315Y-110435655D01*
X151655344Y-110311684D01*
X151506120Y-110219642D01*
X151339696Y-110164494D01*
X151339689Y-110164493D01*
X151236985Y-110154000D01*
X151186999Y-110154000D01*
X151186999Y-111129000D01*
X150686999Y-111129000D01*
X150686999Y-110154000D01*
X150686998Y-110153999D01*
X150637028Y-110154000D01*
X150637010Y-110154001D01*
X150534301Y-110164494D01*
X150367879Y-110219641D01*
X150367874Y-110219643D01*
X150218653Y-110311684D01*
X150094681Y-110435656D01*
X150034535Y-110533168D01*
X149982587Y-110579892D01*
X149913624Y-110591113D01*
X149849542Y-110563270D01*
X149822264Y-110531189D01*
X149805084Y-110502138D01*
X149805077Y-110502129D01*
X149688871Y-110385923D01*
X149688863Y-110385917D01*
X149547397Y-110302255D01*
X149547394Y-110302254D01*
X149389574Y-110256402D01*
X149389568Y-110256401D01*
X149352702Y-110253500D01*
X149352695Y-110253500D01*
X148721307Y-110253500D01*
X148721299Y-110253500D01*
X148684433Y-110256401D01*
X148684427Y-110256402D01*
X148526607Y-110302254D01*
X148526604Y-110302255D01*
X148385138Y-110385917D01*
X148385130Y-110385923D01*
X148268924Y-110502129D01*
X148268918Y-110502137D01*
X148185256Y-110643603D01*
X148185255Y-110643606D01*
X148139403Y-110801426D01*
X148139402Y-110801432D01*
X148136501Y-110838298D01*
X148136501Y-111164967D01*
X148116816Y-111232006D01*
X148100182Y-111252648D01*
X146131742Y-113221087D01*
X146070419Y-113254572D01*
X146008068Y-113252067D01*
X146004096Y-113250862D01*
X145849445Y-113220100D01*
X145849442Y-113220100D01*
X145691758Y-113220100D01*
X145691755Y-113220100D01*
X145537110Y-113250861D01*
X145537107Y-113250862D01*
X145537106Y-113250862D01*
X145537103Y-113250863D01*
X145485364Y-113272294D01*
X145449652Y-113287086D01*
X145380182Y-113294554D01*
X145317703Y-113263278D01*
X145282051Y-113203189D01*
X145278200Y-113172524D01*
X145278200Y-112875119D01*
X145297885Y-112808080D01*
X145339079Y-112768386D01*
X145396843Y-112734226D01*
X145510826Y-112620243D01*
X145592881Y-112481494D01*
X145637854Y-112326698D01*
X145640700Y-112290535D01*
X145640699Y-111686666D01*
X145637854Y-111650502D01*
X145592881Y-111495706D01*
X145541249Y-111408400D01*
X145510830Y-111356963D01*
X145510821Y-111356951D01*
X145411289Y-111257419D01*
X145377804Y-111196096D01*
X145382788Y-111126404D01*
X145411289Y-111082056D01*
X145416662Y-111076682D01*
X145416665Y-111076681D01*
X145532881Y-110960465D01*
X145616544Y-110818998D01*
X145662398Y-110661169D01*
X145665300Y-110624294D01*
X145665300Y-110108414D01*
X151933400Y-110108414D01*
X151933400Y-110158401D01*
X152683400Y-110158401D01*
X152683400Y-109408401D01*
X152683399Y-109408400D01*
X152633429Y-109408401D01*
X152633411Y-109408402D01*
X152530702Y-109418895D01*
X152364280Y-109474042D01*
X152364275Y-109474044D01*
X152215054Y-109566085D01*
X152091084Y-109690055D01*
X151999043Y-109839276D01*
X151999041Y-109839281D01*
X151943894Y-110005703D01*
X151943893Y-110005710D01*
X151933400Y-110108414D01*
X145665300Y-110108414D01*
X145665300Y-109542906D01*
X145662398Y-109506031D01*
X145661135Y-109501684D01*
X145616545Y-109348206D01*
X145616544Y-109348203D01*
X145616544Y-109348202D01*
X145532881Y-109206735D01*
X145532879Y-109206733D01*
X145532876Y-109206729D01*
X145416670Y-109090523D01*
X145416662Y-109090517D01*
X145334380Y-109041856D01*
X145275198Y-109006856D01*
X145275197Y-109006855D01*
X145275196Y-109006855D01*
X145275193Y-109006854D01*
X145117373Y-108961002D01*
X145117367Y-108961001D01*
X145080501Y-108958100D01*
X145080494Y-108958100D01*
X144449106Y-108958100D01*
X144449098Y-108958100D01*
X144412232Y-108961001D01*
X144412226Y-108961002D01*
X144254406Y-109006854D01*
X144254403Y-109006855D01*
X144112937Y-109090517D01*
X144112929Y-109090523D01*
X143996723Y-109206729D01*
X143996716Y-109206738D01*
X143979534Y-109235793D01*
X143955043Y-109258659D01*
X143931073Y-109282128D01*
X143929578Y-109282436D01*
X143928465Y-109283476D01*
X143895496Y-109289472D01*
X143862646Y-109296255D01*
X143861223Y-109295707D01*
X143859723Y-109295980D01*
X143828718Y-109283189D01*
X143797444Y-109271146D01*
X143796206Y-109269777D01*
X143795134Y-109269335D01*
X143772753Y-109245927D01*
X143657672Y-109088753D01*
X143648914Y-109064489D01*
X143636555Y-109041856D01*
X143637247Y-109032169D01*
X143633950Y-109023033D01*
X143639699Y-108997891D01*
X143641539Y-108972164D01*
X143647360Y-108964387D01*
X143649525Y-108954921D01*
X143667955Y-108936876D01*
X143683411Y-108916231D01*
X143688803Y-108912415D01*
X143782643Y-108849714D01*
X144079338Y-108553019D01*
X144140661Y-108519534D01*
X144167019Y-108516700D01*
X144653686Y-108516700D01*
X144653694Y-108516700D01*
X144690569Y-108513798D01*
X144690571Y-108513797D01*
X144690573Y-108513797D01*
X144771046Y-108490417D01*
X144848398Y-108467944D01*
X144989865Y-108384281D01*
X145106081Y-108268065D01*
X145123265Y-108239007D01*
X145174330Y-108191324D01*
X145243072Y-108178818D01*
X145307662Y-108205462D01*
X145335535Y-108237030D01*
X145395680Y-108334540D01*
X145395683Y-108334544D01*
X145519654Y-108458515D01*
X145668875Y-108550556D01*
X145668880Y-108550558D01*
X145835302Y-108605705D01*
X145835309Y-108605706D01*
X145938019Y-108616199D01*
X146075499Y-108616199D01*
X146075500Y-108616198D01*
X146075500Y-107515200D01*
X146095185Y-107448161D01*
X146147989Y-107402406D01*
X146199500Y-107391200D01*
X146451500Y-107391200D01*
X146518539Y-107410885D01*
X146564294Y-107463689D01*
X146575500Y-107515200D01*
X146575500Y-108616199D01*
X146712972Y-108616199D01*
X146712986Y-108616198D01*
X146815697Y-108605705D01*
X146982119Y-108550558D01*
X146982126Y-108550555D01*
X147010402Y-108533114D01*
X147077794Y-108514673D01*
X147144458Y-108535595D01*
X147189228Y-108589236D01*
X147199500Y-108638652D01*
X147199500Y-108795501D01*
X147202401Y-108832367D01*
X147202402Y-108832373D01*
X147248254Y-108990193D01*
X147248255Y-108990196D01*
X147248256Y-108990198D01*
X147275800Y-109036772D01*
X147331917Y-109131662D01*
X147331923Y-109131670D01*
X147448129Y-109247876D01*
X147448133Y-109247879D01*
X147448135Y-109247881D01*
X147589602Y-109331544D01*
X147591647Y-109332138D01*
X147747426Y-109377397D01*
X147747429Y-109377397D01*
X147747431Y-109377398D01*
X147784306Y-109380300D01*
X147784314Y-109380300D01*
X148590686Y-109380300D01*
X148590694Y-109380300D01*
X148627569Y-109377398D01*
X148627571Y-109377397D01*
X148627573Y-109377397D01*
X148706404Y-109354494D01*
X148785398Y-109331544D01*
X148926865Y-109247881D01*
X149043081Y-109131665D01*
X149060265Y-109102607D01*
X149111330Y-109054924D01*
X149180072Y-109042418D01*
X149244662Y-109069062D01*
X149272535Y-109100630D01*
X149332680Y-109198140D01*
X149332683Y-109198144D01*
X149456654Y-109322115D01*
X149605875Y-109414156D01*
X149605880Y-109414158D01*
X149772302Y-109469305D01*
X149772309Y-109469306D01*
X149875019Y-109479799D01*
X150012499Y-109479799D01*
X150512500Y-109479799D01*
X150649972Y-109479799D01*
X150649986Y-109479798D01*
X150752697Y-109469305D01*
X150919119Y-109414158D01*
X150919124Y-109414156D01*
X151068345Y-109322115D01*
X151192315Y-109198145D01*
X151284356Y-109048924D01*
X151284358Y-109048919D01*
X151339505Y-108882497D01*
X151339506Y-108882490D01*
X151349999Y-108779786D01*
X151350000Y-108779773D01*
X151350000Y-108504800D01*
X150512500Y-108504800D01*
X150512500Y-109479799D01*
X150012499Y-109479799D01*
X150012500Y-109479798D01*
X150012500Y-107029800D01*
X149999052Y-107016353D01*
X149977808Y-107010115D01*
X149932053Y-106957311D01*
X149922109Y-106888153D01*
X149951134Y-106824597D01*
X149975957Y-106802697D01*
X149989289Y-106793789D01*
X150100789Y-106682289D01*
X150160918Y-106592300D01*
X150175639Y-106570269D01*
X150229251Y-106525464D01*
X150298576Y-106516757D01*
X150361604Y-106546912D01*
G37*
G04 #@! TD.AperFunction*
G04 #@! TA.AperFunction,Conductor*
G36*
X141857778Y-109791444D02*
G01*
X141887765Y-109797968D01*
X141892780Y-109801722D01*
X141895377Y-109802485D01*
X141916019Y-109819119D01*
X141930500Y-109833600D01*
X142740800Y-109833600D01*
X142807839Y-109853285D01*
X142853594Y-109906089D01*
X142864800Y-109957600D01*
X142864800Y-110083600D01*
X142990800Y-110083600D01*
X143057839Y-110103285D01*
X143103594Y-110156089D01*
X143114800Y-110207600D01*
X143114800Y-110883600D01*
X143141381Y-110910181D01*
X143174866Y-110971504D01*
X143177700Y-110997862D01*
X143177700Y-111864600D01*
X143158015Y-111931639D01*
X143105211Y-111977394D01*
X143053700Y-111988600D01*
X142927700Y-111988600D01*
X142927700Y-112114600D01*
X142908015Y-112181639D01*
X142855211Y-112227394D01*
X142803700Y-112238600D01*
X141935604Y-112238600D01*
X141884406Y-112266555D01*
X141848694Y-112264000D01*
X140937800Y-112264000D01*
X140870761Y-112244315D01*
X140825006Y-112191511D01*
X140813800Y-112140000D01*
X140813800Y-112014000D01*
X140687800Y-112014000D01*
X140620761Y-111994315D01*
X140575006Y-111941511D01*
X140563800Y-111890000D01*
X140563800Y-111368662D01*
X140553334Y-111349496D01*
X140550500Y-111323138D01*
X140550500Y-110928137D01*
X141050500Y-110928137D01*
X141060966Y-110947304D01*
X141063800Y-110973662D01*
X141063800Y-111764000D01*
X141805895Y-111764000D01*
X141857089Y-111736045D01*
X141892816Y-111738600D01*
X142677700Y-111738600D01*
X142677700Y-111438600D01*
X142651119Y-111412019D01*
X142617634Y-111350696D01*
X142614800Y-111324338D01*
X142614800Y-110333600D01*
X141836962Y-110333600D01*
X141769923Y-110313915D01*
X141749281Y-110297281D01*
X141734800Y-110282800D01*
X141050500Y-110282800D01*
X141050500Y-110928137D01*
X140550500Y-110928137D01*
X140550500Y-110156800D01*
X140570185Y-110089761D01*
X140622989Y-110044006D01*
X140674500Y-110032800D01*
X140800500Y-110032800D01*
X140800500Y-109906800D01*
X140820185Y-109839761D01*
X140872989Y-109794006D01*
X140924500Y-109782800D01*
X141828338Y-109782800D01*
X141857778Y-109791444D01*
G37*
G04 #@! TD.AperFunction*
G04 #@! TA.AperFunction,Conductor*
G36*
X147714748Y-83252785D02*
G01*
X147760503Y-83305589D01*
X147771707Y-83357757D01*
X147761423Y-85298466D01*
X147741384Y-85365400D01*
X147688338Y-85410875D01*
X147684878Y-85412370D01*
X147538740Y-85472902D01*
X147538730Y-85472906D01*
X147340073Y-85587601D01*
X147340059Y-85587610D01*
X147266334Y-85644180D01*
X147266334Y-85644181D01*
X147756992Y-86134839D01*
X147754819Y-86544720D01*
X147731837Y-86567703D01*
X147649759Y-86690542D01*
X147636821Y-86721775D01*
X146912780Y-85997734D01*
X146856210Y-86071459D01*
X146856201Y-86071473D01*
X146741506Y-86270130D01*
X146741502Y-86270140D01*
X146653718Y-86482069D01*
X146594342Y-86703662D01*
X146564401Y-86931089D01*
X146564400Y-86931105D01*
X146564400Y-87160494D01*
X146564401Y-87160510D01*
X146594342Y-87387937D01*
X146653718Y-87609530D01*
X146741502Y-87821459D01*
X146741506Y-87821469D01*
X146856199Y-88020124D01*
X146856205Y-88020131D01*
X146912781Y-88093864D01*
X147636821Y-87369823D01*
X147649759Y-87401058D01*
X147731837Y-87523897D01*
X147749537Y-87541597D01*
X147747286Y-87966465D01*
X147266334Y-88447417D01*
X147266334Y-88447418D01*
X147340066Y-88503994D01*
X147538730Y-88618693D01*
X147538745Y-88618700D01*
X147666392Y-88671573D01*
X147720796Y-88715414D01*
X147742861Y-88781708D01*
X147742938Y-88786791D01*
X147734052Y-90463739D01*
X147714013Y-90530673D01*
X147697735Y-90550763D01*
X144641831Y-93606668D01*
X144580508Y-93640153D01*
X144510816Y-93635169D01*
X144466469Y-93606668D01*
X144454800Y-93594999D01*
X143354800Y-93594999D01*
X143354800Y-94394999D01*
X143554138Y-94394999D01*
X143621177Y-94414684D01*
X143666932Y-94467488D01*
X143676876Y-94536646D01*
X143647851Y-94600202D01*
X143641819Y-94606680D01*
X143350316Y-94898182D01*
X143288993Y-94931667D01*
X143262635Y-94934501D01*
X142223282Y-94934501D01*
X142142319Y-94947324D01*
X142129496Y-94949355D01*
X142016458Y-95006951D01*
X142016457Y-95006952D01*
X142016452Y-95006955D01*
X141926754Y-95096653D01*
X141926751Y-95096658D01*
X141926750Y-95096659D01*
X141925103Y-95099892D01*
X141869152Y-95209699D01*
X141854300Y-95303476D01*
X141854300Y-96420164D01*
X141834615Y-96487203D01*
X141781811Y-96532958D01*
X141712653Y-96542902D01*
X141706108Y-96541781D01*
X141658444Y-96532300D01*
X141658442Y-96532300D01*
X141500758Y-96532300D01*
X141500755Y-96532300D01*
X141346110Y-96563061D01*
X141346098Y-96563064D01*
X141200427Y-96623402D01*
X141200416Y-96623408D01*
X141182190Y-96635587D01*
X141115512Y-96656464D01*
X141048132Y-96637979D01*
X141001443Y-96586000D01*
X140989300Y-96532484D01*
X140989300Y-96359913D01*
X140989299Y-96359898D01*
X140988015Y-96343586D01*
X140986398Y-96323031D01*
X140985923Y-96321397D01*
X140940545Y-96165206D01*
X140940544Y-96165203D01*
X140940544Y-96165202D01*
X140869468Y-96045018D01*
X140852200Y-95981897D01*
X140852200Y-95340514D01*
X140871885Y-95273475D01*
X140924689Y-95227720D01*
X140930712Y-95225159D01*
X140936542Y-95222860D01*
X141057122Y-95131421D01*
X141148561Y-95010841D01*
X141204077Y-94870063D01*
X141214700Y-94781601D01*
X141214700Y-94395397D01*
X141204077Y-94306935D01*
X141189791Y-94270710D01*
X141183509Y-94201127D01*
X141198415Y-94162100D01*
X141265481Y-94048699D01*
X141296234Y-93942843D01*
X141754800Y-93942843D01*
X141761201Y-94002371D01*
X141761203Y-94002378D01*
X141811445Y-94137085D01*
X141811449Y-94137092D01*
X141897609Y-94252186D01*
X141897612Y-94252189D01*
X142012706Y-94338349D01*
X142012713Y-94338353D01*
X142147420Y-94388595D01*
X142147427Y-94388597D01*
X142206955Y-94394998D01*
X142206972Y-94394999D01*
X142854800Y-94394999D01*
X142854800Y-93594999D01*
X141754800Y-93594999D01*
X141754800Y-93942843D01*
X141296234Y-93942843D01*
X141311300Y-93890986D01*
X141311495Y-93888501D01*
X141311495Y-93888500D01*
X140718890Y-93888500D01*
X140711007Y-93888028D01*
X140710996Y-93888220D01*
X140707305Y-93887999D01*
X140707302Y-93887999D01*
X140275700Y-93887999D01*
X140267014Y-93885448D01*
X140258053Y-93886737D01*
X140234012Y-93875758D01*
X140208661Y-93868314D01*
X140202733Y-93861473D01*
X140194497Y-93857712D01*
X140180207Y-93835477D01*
X140162906Y-93815510D01*
X140160618Y-93804995D01*
X140156723Y-93798934D01*
X140151700Y-93763999D01*
X140151700Y-93513001D01*
X140171385Y-93445962D01*
X140224189Y-93400207D01*
X140275700Y-93389001D01*
X140707305Y-93389001D01*
X140710996Y-93388780D01*
X140711007Y-93388971D01*
X140718890Y-93388500D01*
X141311495Y-93388500D01*
X141311495Y-93388498D01*
X141311300Y-93386013D01*
X141265481Y-93228301D01*
X141198415Y-93114897D01*
X141181232Y-93047173D01*
X141189792Y-93006288D01*
X141204077Y-92970065D01*
X141214700Y-92881603D01*
X141214700Y-92747154D01*
X141754800Y-92747154D01*
X141754800Y-93094999D01*
X142854800Y-93094999D01*
X143354800Y-93094999D01*
X144454800Y-93094999D01*
X144454800Y-92747171D01*
X144454799Y-92747154D01*
X144448398Y-92687626D01*
X144448396Y-92687619D01*
X144398154Y-92552912D01*
X144398150Y-92552905D01*
X144311990Y-92437811D01*
X144311987Y-92437808D01*
X144196893Y-92351648D01*
X144196886Y-92351644D01*
X144062179Y-92301402D01*
X144062172Y-92301400D01*
X144002644Y-92294999D01*
X143354800Y-92294999D01*
X143354800Y-93094999D01*
X142854800Y-93094999D01*
X142854800Y-92294999D01*
X142206955Y-92294999D01*
X142147427Y-92301400D01*
X142147420Y-92301402D01*
X142012713Y-92351644D01*
X142012706Y-92351648D01*
X141897612Y-92437808D01*
X141897609Y-92437811D01*
X141811449Y-92552905D01*
X141811445Y-92552912D01*
X141761203Y-92687619D01*
X141761201Y-92687626D01*
X141754800Y-92747154D01*
X141214700Y-92747154D01*
X141214700Y-92495399D01*
X141204077Y-92406937D01*
X141148561Y-92266159D01*
X141148560Y-92266158D01*
X141148560Y-92266157D01*
X141057122Y-92145578D01*
X140936543Y-92054140D01*
X140795761Y-91998623D01*
X140750126Y-91993143D01*
X140707302Y-91988001D01*
X140707297Y-91988001D01*
X140245732Y-91988001D01*
X140178693Y-91968316D01*
X140158051Y-91951682D01*
X139787974Y-91581606D01*
X139787972Y-91581603D01*
X139683065Y-91476696D01*
X139683060Y-91476692D01*
X139563239Y-91407513D01*
X139534991Y-91399943D01*
X139534990Y-91399943D01*
X139429582Y-91371699D01*
X139291216Y-91371699D01*
X139283620Y-91371699D01*
X139283604Y-91371700D01*
X136661995Y-91371700D01*
X136654387Y-91371699D01*
X136654384Y-91371699D01*
X136542383Y-91371699D01*
X136542382Y-91371698D01*
X136507789Y-91366775D01*
X136495987Y-91363346D01*
X136478970Y-91358402D01*
X136478967Y-91358401D01*
X136442101Y-91355500D01*
X136442094Y-91355500D01*
X135610706Y-91355500D01*
X135610698Y-91355500D01*
X135573832Y-91358401D01*
X135573826Y-91358402D01*
X135416006Y-91404254D01*
X135416003Y-91404255D01*
X135274537Y-91487917D01*
X135274529Y-91487923D01*
X135158323Y-91604129D01*
X135158319Y-91604135D01*
X135133132Y-91646724D01*
X135082062Y-91694407D01*
X135013321Y-91706910D01*
X134948731Y-91680264D01*
X134919668Y-91646724D01*
X134918672Y-91645040D01*
X134894481Y-91604135D01*
X134894478Y-91604132D01*
X134894476Y-91604129D01*
X134778270Y-91487923D01*
X134778262Y-91487917D01*
X134642305Y-91407513D01*
X134636798Y-91404256D01*
X134636797Y-91404255D01*
X134636796Y-91404255D01*
X134636793Y-91404254D01*
X134478973Y-91358402D01*
X134478967Y-91358401D01*
X134442101Y-91355500D01*
X134442094Y-91355500D01*
X133610706Y-91355500D01*
X133610698Y-91355500D01*
X133573832Y-91358401D01*
X133573826Y-91358402D01*
X133416006Y-91404254D01*
X133416003Y-91404255D01*
X133274537Y-91487917D01*
X133274529Y-91487923D01*
X133158323Y-91604129D01*
X133158317Y-91604137D01*
X133074655Y-91745603D01*
X133074654Y-91745606D01*
X133028802Y-91903426D01*
X133028801Y-91903432D01*
X133025900Y-91940298D01*
X133025900Y-92971701D01*
X133028801Y-93008567D01*
X133028802Y-93008573D01*
X133074654Y-93166393D01*
X133074656Y-93166398D01*
X133088118Y-93189162D01*
X133095117Y-93216751D01*
X133105069Y-93243431D01*
X133103599Y-93250186D01*
X133105299Y-93256886D01*
X133096270Y-93283883D01*
X133090219Y-93311704D01*
X133084339Y-93319558D01*
X133083139Y-93323148D01*
X133069069Y-93339959D01*
X133037252Y-93371778D01*
X132975930Y-93405265D01*
X132949568Y-93408100D01*
X132864755Y-93408100D01*
X132710110Y-93438861D01*
X132710098Y-93438864D01*
X132564427Y-93499202D01*
X132564414Y-93499209D01*
X132433311Y-93586810D01*
X132433307Y-93586813D01*
X132321813Y-93698307D01*
X132321810Y-93698311D01*
X132234209Y-93829414D01*
X132234202Y-93829427D01*
X132173864Y-93975098D01*
X132173861Y-93975110D01*
X132143100Y-94129753D01*
X132143100Y-94287446D01*
X132173861Y-94442089D01*
X132173864Y-94442101D01*
X132234202Y-94587772D01*
X132234209Y-94587785D01*
X132321810Y-94718888D01*
X132321813Y-94718892D01*
X132433307Y-94830386D01*
X132433311Y-94830389D01*
X132564414Y-94917990D01*
X132564427Y-94917997D01*
X132687042Y-94968785D01*
X132710103Y-94978337D01*
X132864753Y-95009099D01*
X132864756Y-95009100D01*
X132864758Y-95009100D01*
X133022444Y-95009100D01*
X133022445Y-95009099D01*
X133177097Y-94978337D01*
X133322779Y-94917994D01*
X133453889Y-94830389D01*
X133565389Y-94718889D01*
X133652994Y-94587779D01*
X133713337Y-94442097D01*
X133744100Y-94287442D01*
X133744100Y-94202631D01*
X133763785Y-94135592D01*
X133780419Y-94114950D01*
X134302550Y-93592819D01*
X134363873Y-93559334D01*
X134390231Y-93556500D01*
X134442086Y-93556500D01*
X134442094Y-93556500D01*
X134478969Y-93553598D01*
X134478971Y-93553597D01*
X134478973Y-93553597D01*
X134520591Y-93541505D01*
X134636798Y-93507744D01*
X134778265Y-93424081D01*
X134894481Y-93307865D01*
X134919668Y-93265276D01*
X134970737Y-93217593D01*
X135039478Y-93205089D01*
X135104068Y-93231734D01*
X135133132Y-93265276D01*
X135158317Y-93307862D01*
X135158323Y-93307870D01*
X135274529Y-93424076D01*
X135274533Y-93424079D01*
X135274535Y-93424081D01*
X135416002Y-93507744D01*
X135434097Y-93513001D01*
X135560675Y-93549776D01*
X135619561Y-93587382D01*
X135648767Y-93650854D01*
X135639021Y-93720041D01*
X135593417Y-93772976D01*
X135550272Y-93790469D01*
X135402508Y-93819861D01*
X135402498Y-93819864D01*
X135256827Y-93880202D01*
X135256814Y-93880209D01*
X135125711Y-93967810D01*
X135125707Y-93967813D01*
X135014213Y-94079307D01*
X135014210Y-94079311D01*
X134926609Y-94210414D01*
X134926602Y-94210427D01*
X134866264Y-94356098D01*
X134866261Y-94356110D01*
X134835500Y-94510753D01*
X134835500Y-94668446D01*
X134866261Y-94823089D01*
X134866264Y-94823101D01*
X134926602Y-94968772D01*
X134926609Y-94968785D01*
X135014210Y-95099888D01*
X135014213Y-95099892D01*
X135125707Y-95211386D01*
X135125711Y-95211389D01*
X135256814Y-95298990D01*
X135256818Y-95298992D01*
X135256821Y-95298994D01*
X135366955Y-95344612D01*
X135421355Y-95388451D01*
X135443421Y-95454745D01*
X135443500Y-95459172D01*
X135443500Y-97873406D01*
X135443500Y-98011394D01*
X135443500Y-98011396D01*
X135443499Y-98011396D01*
X135470418Y-98146722D01*
X135470421Y-98146732D01*
X135523222Y-98274207D01*
X135599887Y-98388945D01*
X135599888Y-98388946D01*
X136524781Y-99313838D01*
X136558266Y-99375161D01*
X136561100Y-99401519D01*
X136561100Y-99831273D01*
X136541415Y-99898312D01*
X136505839Y-99932595D01*
X136506346Y-99933248D01*
X136500276Y-99937956D01*
X136500232Y-99937999D01*
X136500187Y-99938025D01*
X136500179Y-99938031D01*
X136388431Y-100049778D01*
X136388427Y-100049783D01*
X136307982Y-100185809D01*
X136307980Y-100185814D01*
X136263892Y-100337566D01*
X136263890Y-100337579D01*
X136261100Y-100373029D01*
X136261100Y-100949350D01*
X136261101Y-100949375D01*
X136263891Y-100984827D01*
X136307980Y-101136585D01*
X136307982Y-101136590D01*
X136388427Y-101272616D01*
X136388434Y-101272625D01*
X136500174Y-101384365D01*
X136500178Y-101384368D01*
X136500180Y-101384370D01*
X136636210Y-101464818D01*
X136787973Y-101508909D01*
X136823437Y-101511700D01*
X137699762Y-101511699D01*
X137735227Y-101508909D01*
X137886990Y-101464818D01*
X138023020Y-101384370D01*
X138023019Y-101384370D01*
X138029735Y-101380399D01*
X138031169Y-101382823D01*
X138083742Y-101362185D01*
X138094701Y-101361700D01*
X139093900Y-101361700D01*
X139160939Y-101381385D01*
X139206694Y-101434189D01*
X139217900Y-101485700D01*
X139217900Y-101597902D01*
X139221972Y-101631811D01*
X139228522Y-101686361D01*
X139228522Y-101686363D01*
X139228523Y-101686364D01*
X139244074Y-101725798D01*
X139284039Y-101827143D01*
X139375477Y-101947722D01*
X139496056Y-102039160D01*
X139496057Y-102039160D01*
X139496058Y-102039161D01*
X139636836Y-102094677D01*
X139725298Y-102105300D01*
X139725303Y-102105300D01*
X140043900Y-102105300D01*
X140052585Y-102107850D01*
X140061547Y-102106562D01*
X140085587Y-102117540D01*
X140110939Y-102124985D01*
X140116866Y-102131825D01*
X140125103Y-102135587D01*
X140139392Y-102157821D01*
X140156694Y-102177789D01*
X140158981Y-102188303D01*
X140162877Y-102194365D01*
X140167900Y-102229300D01*
X140167900Y-102416985D01*
X140158461Y-102464437D01*
X140098664Y-102608799D01*
X140098661Y-102608811D01*
X140067900Y-102763454D01*
X140067900Y-106328046D01*
X140098661Y-106482689D01*
X140098664Y-106482701D01*
X140159002Y-106628372D01*
X140159009Y-106628385D01*
X140246609Y-106759487D01*
X140246610Y-106759488D01*
X140246611Y-106759489D01*
X140361582Y-106874460D01*
X140395066Y-106935781D01*
X140397900Y-106962139D01*
X140397900Y-107067350D01*
X140397901Y-107067376D01*
X140400691Y-107102827D01*
X140444780Y-107254585D01*
X140444782Y-107254590D01*
X140525227Y-107390616D01*
X140525234Y-107390625D01*
X140528028Y-107393419D01*
X140529518Y-107396148D01*
X140530013Y-107396786D01*
X140529910Y-107396865D01*
X140561513Y-107454742D01*
X140556529Y-107524434D01*
X140514657Y-107580367D01*
X140449193Y-107604784D01*
X140440347Y-107605100D01*
X139966319Y-107605100D01*
X139899280Y-107585415D01*
X139878638Y-107568781D01*
X138835218Y-106525361D01*
X138801733Y-106464038D01*
X138798899Y-106437680D01*
X138798899Y-106191049D01*
X138798898Y-106191024D01*
X138798430Y-106185080D01*
X138796109Y-106155573D01*
X138752018Y-106003810D01*
X138692258Y-105902762D01*
X138671572Y-105867783D01*
X138671565Y-105867774D01*
X138559825Y-105756034D01*
X138559816Y-105756027D01*
X138423790Y-105675582D01*
X138423785Y-105675580D01*
X138272033Y-105631492D01*
X138272020Y-105631490D01*
X138236570Y-105628700D01*
X138236563Y-105628700D01*
X138086100Y-105628700D01*
X138019061Y-105609015D01*
X137973306Y-105556211D01*
X137962100Y-105504700D01*
X137962100Y-104791126D01*
X137981785Y-104724087D01*
X138017365Y-104689805D01*
X138016857Y-104689150D01*
X138022954Y-104684420D01*
X138022985Y-104684391D01*
X138022998Y-104684382D01*
X138023020Y-104684370D01*
X138134770Y-104572620D01*
X138215218Y-104436590D01*
X138259309Y-104284827D01*
X138262100Y-104249363D01*
X138262099Y-103673038D01*
X138259309Y-103637573D01*
X138215218Y-103485810D01*
X138134770Y-103349780D01*
X138134768Y-103349778D01*
X138134765Y-103349774D01*
X138023025Y-103238034D01*
X138023016Y-103238027D01*
X137886990Y-103157582D01*
X137886985Y-103157580D01*
X137735233Y-103113492D01*
X137735220Y-103113490D01*
X137699763Y-103110700D01*
X136823449Y-103110700D01*
X136823424Y-103110701D01*
X136787972Y-103113491D01*
X136636214Y-103157580D01*
X136636209Y-103157582D01*
X136500183Y-103238027D01*
X136500174Y-103238034D01*
X136388434Y-103349774D01*
X136388427Y-103349783D01*
X136307982Y-103485809D01*
X136307980Y-103485814D01*
X136263892Y-103637566D01*
X136263890Y-103637579D01*
X136261100Y-103673029D01*
X136261100Y-104249350D01*
X136261101Y-104249375D01*
X136263890Y-104284824D01*
X136273793Y-104318909D01*
X136273593Y-104388778D01*
X136235650Y-104447448D01*
X136172012Y-104476291D01*
X136107264Y-104468064D01*
X135971101Y-104411664D01*
X135971089Y-104411661D01*
X135816445Y-104380900D01*
X135816442Y-104380900D01*
X135658758Y-104380900D01*
X135658755Y-104380900D01*
X135504110Y-104411661D01*
X135504098Y-104411664D01*
X135358427Y-104472002D01*
X135358414Y-104472009D01*
X135227311Y-104559610D01*
X135199655Y-104587266D01*
X135138331Y-104620750D01*
X135068640Y-104615764D01*
X135025215Y-104583833D01*
X135023198Y-104585851D01*
X134901470Y-104464123D01*
X134901462Y-104464117D01*
X134798798Y-104403402D01*
X134759998Y-104380456D01*
X134759997Y-104380455D01*
X134759996Y-104380455D01*
X134759993Y-104380454D01*
X134659562Y-104351276D01*
X134600676Y-104313670D01*
X134571470Y-104250197D01*
X134581216Y-104181011D01*
X134626820Y-104128076D01*
X134659562Y-104113124D01*
X134704510Y-104100064D01*
X134759998Y-104083944D01*
X134901465Y-104000281D01*
X135017681Y-103884065D01*
X135101344Y-103742598D01*
X135147198Y-103584769D01*
X135150100Y-103547894D01*
X135150100Y-102916506D01*
X135147198Y-102879631D01*
X135144202Y-102869320D01*
X135112103Y-102758833D01*
X135101344Y-102721802D01*
X135017681Y-102580335D01*
X135017679Y-102580333D01*
X135017676Y-102580329D01*
X134901470Y-102464123D01*
X134901462Y-102464117D01*
X134759996Y-102380455D01*
X134759993Y-102380454D01*
X134659562Y-102351276D01*
X134600676Y-102313670D01*
X134571470Y-102250197D01*
X134581216Y-102181011D01*
X134626820Y-102128076D01*
X134659562Y-102113124D01*
X134723055Y-102094677D01*
X134759998Y-102083944D01*
X134901465Y-102000281D01*
X135017681Y-101884065D01*
X135101344Y-101742598D01*
X135137517Y-101618090D01*
X135147197Y-101584773D01*
X135147198Y-101584767D01*
X135147550Y-101580300D01*
X135150100Y-101547894D01*
X135150100Y-100916506D01*
X135147198Y-100879631D01*
X135134578Y-100836194D01*
X135109126Y-100748589D01*
X135101344Y-100721802D01*
X135017681Y-100580335D01*
X135017679Y-100580333D01*
X135017676Y-100580329D01*
X134901470Y-100464123D01*
X134901461Y-100464116D01*
X134783847Y-100394560D01*
X134736164Y-100343491D01*
X134723660Y-100274749D01*
X134750305Y-100210160D01*
X134807641Y-100170230D01*
X134807966Y-100170121D01*
X134818722Y-100166556D01*
X134818724Y-100166556D01*
X134967945Y-100074515D01*
X135091915Y-99950545D01*
X135183956Y-99801324D01*
X135183958Y-99801319D01*
X135239105Y-99634897D01*
X135239106Y-99634890D01*
X135249599Y-99532186D01*
X135249600Y-99532173D01*
X135249600Y-99482200D01*
X130749601Y-99482200D01*
X130749601Y-99532182D01*
X130751095Y-99546809D01*
X130738322Y-99615502D01*
X130690438Y-99666384D01*
X130622648Y-99683301D01*
X130556472Y-99660882D01*
X130540055Y-99647086D01*
X130051019Y-99158050D01*
X130036315Y-99131122D01*
X130019723Y-99105304D01*
X130018831Y-99099103D01*
X130017534Y-99096727D01*
X130014700Y-99070369D01*
X130014700Y-98932213D01*
X130749600Y-98932213D01*
X130749600Y-98982200D01*
X135249599Y-98982200D01*
X135249599Y-98932228D01*
X135249598Y-98932213D01*
X135239105Y-98829502D01*
X135183958Y-98663080D01*
X135183956Y-98663075D01*
X135091915Y-98513854D01*
X134967945Y-98389884D01*
X134818724Y-98297843D01*
X134818719Y-98297841D01*
X134807960Y-98294276D01*
X134750517Y-98254501D01*
X134723696Y-98189985D01*
X134736013Y-98121209D01*
X134783556Y-98070011D01*
X134901465Y-98000281D01*
X135017681Y-97884065D01*
X135101344Y-97742598D01*
X135147198Y-97584769D01*
X135150100Y-97547894D01*
X135150100Y-96916506D01*
X135147198Y-96879631D01*
X135136556Y-96843003D01*
X135101345Y-96721806D01*
X135101344Y-96721803D01*
X135101344Y-96721802D01*
X135017681Y-96580335D01*
X135017679Y-96580333D01*
X135017676Y-96580329D01*
X134901470Y-96464123D01*
X134901461Y-96464116D01*
X134788095Y-96397072D01*
X134740411Y-96346003D01*
X134727908Y-96277261D01*
X134748112Y-96221452D01*
X134821394Y-96111779D01*
X134881737Y-95966097D01*
X134912500Y-95811442D01*
X134912500Y-95653758D01*
X134912500Y-95653755D01*
X134912499Y-95653753D01*
X134893008Y-95555768D01*
X134881737Y-95499103D01*
X134865197Y-95459172D01*
X134821397Y-95353427D01*
X134821390Y-95353414D01*
X134733789Y-95222311D01*
X134733786Y-95222307D01*
X134622292Y-95110813D01*
X134622288Y-95110810D01*
X134491185Y-95023209D01*
X134491172Y-95023202D01*
X134345501Y-94962864D01*
X134345489Y-94962861D01*
X134190845Y-94932100D01*
X134190842Y-94932100D01*
X134033158Y-94932100D01*
X134033155Y-94932100D01*
X133878510Y-94962861D01*
X133878498Y-94962864D01*
X133732827Y-95023202D01*
X133732814Y-95023209D01*
X133601711Y-95110810D01*
X133601707Y-95110813D01*
X133490213Y-95222307D01*
X133490210Y-95222311D01*
X133402609Y-95353414D01*
X133402604Y-95353423D01*
X133342809Y-95497784D01*
X133315929Y-95538012D01*
X132558562Y-96295381D01*
X132497239Y-96328866D01*
X132470881Y-96331700D01*
X131433898Y-96331700D01*
X131397032Y-96334601D01*
X131397026Y-96334602D01*
X131239206Y-96380454D01*
X131239203Y-96380455D01*
X131097737Y-96464117D01*
X131097729Y-96464123D01*
X130981523Y-96580329D01*
X130981517Y-96580337D01*
X130897855Y-96721803D01*
X130897854Y-96721806D01*
X130852002Y-96879626D01*
X130852001Y-96879632D01*
X130849100Y-96916498D01*
X130849100Y-97547901D01*
X130852001Y-97584767D01*
X130852002Y-97584773D01*
X130897854Y-97742593D01*
X130897855Y-97742596D01*
X130981517Y-97884062D01*
X130981523Y-97884070D01*
X131097729Y-98000276D01*
X131097733Y-98000279D01*
X131097735Y-98000281D01*
X131097737Y-98000282D01*
X131215352Y-98069839D01*
X131263035Y-98120908D01*
X131275539Y-98189649D01*
X131248894Y-98254239D01*
X131191559Y-98294169D01*
X131191241Y-98294275D01*
X131180483Y-98297840D01*
X131180475Y-98297843D01*
X131031254Y-98389884D01*
X130907284Y-98513854D01*
X130815243Y-98663075D01*
X130815241Y-98663080D01*
X130760094Y-98829502D01*
X130760093Y-98829509D01*
X130749600Y-98932213D01*
X130014700Y-98932213D01*
X130014700Y-93913106D01*
X130034385Y-93846067D01*
X130069806Y-93810006D01*
X130177289Y-93738189D01*
X130288789Y-93626689D01*
X130376394Y-93495579D01*
X130436737Y-93349897D01*
X130467500Y-93195242D01*
X130467500Y-93037558D01*
X130467500Y-93037555D01*
X130467499Y-93037553D01*
X130454075Y-92970065D01*
X130436737Y-92882903D01*
X130431581Y-92870455D01*
X130376397Y-92737227D01*
X130376390Y-92737214D01*
X130288789Y-92606111D01*
X130288786Y-92606107D01*
X130177292Y-92494613D01*
X130177288Y-92494610D01*
X130046185Y-92407009D01*
X130046172Y-92407002D01*
X129900501Y-92346664D01*
X129900489Y-92346661D01*
X129745845Y-92315900D01*
X129745842Y-92315900D01*
X129588158Y-92315900D01*
X129588155Y-92315900D01*
X129433510Y-92346661D01*
X129433498Y-92346664D01*
X129282192Y-92409337D01*
X129281658Y-92408048D01*
X129220146Y-92420844D01*
X129154906Y-92395833D01*
X129113546Y-92339520D01*
X129109196Y-92269786D01*
X129110370Y-92265051D01*
X129134572Y-92175032D01*
X129134576Y-92175015D01*
X129134577Y-92175013D01*
X129187201Y-91836422D01*
X129202867Y-91494123D01*
X129181390Y-91152140D01*
X129123022Y-90814491D01*
X129028449Y-90485143D01*
X129026301Y-90479890D01*
X128977411Y-90360299D01*
X128898783Y-90167967D01*
X128762523Y-89916479D01*
X128747894Y-89848160D01*
X128772525Y-89782776D01*
X128773928Y-89780949D01*
X128797389Y-89750995D01*
X129210532Y-89223513D01*
X129213413Y-89219973D01*
X129691155Y-88654902D01*
X130477900Y-88654902D01*
X130477900Y-88891097D01*
X130514846Y-89124368D01*
X130587833Y-89348996D01*
X130651775Y-89474488D01*
X130695057Y-89559433D01*
X130833883Y-89750510D01*
X131000890Y-89917517D01*
X131191967Y-90056343D01*
X131291391Y-90107002D01*
X131402403Y-90163566D01*
X131402405Y-90163566D01*
X131402408Y-90163568D01*
X131484982Y-90190398D01*
X131627031Y-90236553D01*
X131860303Y-90273500D01*
X131860308Y-90273500D01*
X132096497Y-90273500D01*
X132329768Y-90236553D01*
X132377998Y-90220882D01*
X132554392Y-90163568D01*
X132764833Y-90056343D01*
X132955910Y-89917517D01*
X133122917Y-89750510D01*
X133261743Y-89559433D01*
X133368968Y-89348992D01*
X133441953Y-89124368D01*
X133456336Y-89033559D01*
X133478900Y-88891097D01*
X133478900Y-88654902D01*
X133441953Y-88421631D01*
X133403969Y-88304731D01*
X133392937Y-88270779D01*
X134634800Y-88270779D01*
X134634800Y-88424200D01*
X135384800Y-88424200D01*
X135384800Y-88924200D01*
X134634800Y-88924200D01*
X134634800Y-89077620D01*
X134675148Y-89280466D01*
X134675150Y-89280474D01*
X134754300Y-89471558D01*
X134754305Y-89471568D01*
X134869210Y-89643535D01*
X134869213Y-89643539D01*
X135015460Y-89789786D01*
X135015464Y-89789789D01*
X135187431Y-89904694D01*
X135187441Y-89904699D01*
X135378523Y-89983848D01*
X135378525Y-89983849D01*
X135434800Y-89995042D01*
X135434800Y-89141188D01*
X135444740Y-89158405D01*
X135500595Y-89214260D01*
X135569004Y-89253756D01*
X135645304Y-89274200D01*
X135724296Y-89274200D01*
X135800596Y-89253756D01*
X135869005Y-89214260D01*
X135924860Y-89158405D01*
X135934800Y-89141188D01*
X135934800Y-89995042D01*
X135991074Y-89983849D01*
X135991076Y-89983848D01*
X136182158Y-89904699D01*
X136182168Y-89904694D01*
X136354135Y-89789789D01*
X136354139Y-89789786D01*
X136500386Y-89643539D01*
X136500389Y-89643535D01*
X136615294Y-89471568D01*
X136615299Y-89471558D01*
X136694449Y-89280474D01*
X136694451Y-89280466D01*
X136734799Y-89077620D01*
X136734800Y-89077617D01*
X136734800Y-88924200D01*
X135984800Y-88924200D01*
X135984800Y-88424200D01*
X136734800Y-88424200D01*
X136734800Y-88270783D01*
X136734799Y-88270779D01*
X143274800Y-88270779D01*
X143274800Y-88424200D01*
X144024800Y-88424200D01*
X144024800Y-88924200D01*
X143274800Y-88924200D01*
X143274800Y-89077620D01*
X143315148Y-89280466D01*
X143315150Y-89280474D01*
X143394300Y-89471558D01*
X143394305Y-89471568D01*
X143509210Y-89643535D01*
X143509213Y-89643539D01*
X143655460Y-89789786D01*
X143655464Y-89789789D01*
X143827431Y-89904694D01*
X143827441Y-89904699D01*
X144018523Y-89983848D01*
X144018525Y-89983849D01*
X144074800Y-89995042D01*
X144074800Y-89141188D01*
X144084740Y-89158405D01*
X144140595Y-89214260D01*
X144209004Y-89253756D01*
X144285304Y-89274200D01*
X144364296Y-89274200D01*
X144440596Y-89253756D01*
X144509005Y-89214260D01*
X144564860Y-89158405D01*
X144574800Y-89141188D01*
X144574800Y-89995042D01*
X144631074Y-89983849D01*
X144631076Y-89983848D01*
X144822158Y-89904699D01*
X144822168Y-89904694D01*
X144994135Y-89789789D01*
X144994139Y-89789786D01*
X145140386Y-89643539D01*
X145140389Y-89643535D01*
X145255294Y-89471568D01*
X145255299Y-89471558D01*
X145334449Y-89280474D01*
X145334451Y-89280466D01*
X145374799Y-89077620D01*
X145374800Y-89077617D01*
X145374800Y-88924200D01*
X144624800Y-88924200D01*
X144624800Y-88424200D01*
X145374800Y-88424200D01*
X145374800Y-88270783D01*
X145374799Y-88270779D01*
X145334451Y-88067933D01*
X145334449Y-88067925D01*
X145255299Y-87876841D01*
X145255294Y-87876831D01*
X145140389Y-87704864D01*
X145140386Y-87704860D01*
X144994139Y-87558613D01*
X144994135Y-87558610D01*
X144822168Y-87443705D01*
X144822158Y-87443700D01*
X144631072Y-87364549D01*
X144631067Y-87364547D01*
X144574800Y-87353355D01*
X144574800Y-88207211D01*
X144564860Y-88189995D01*
X144509005Y-88134140D01*
X144440596Y-88094644D01*
X144364296Y-88074200D01*
X144285304Y-88074200D01*
X144209004Y-88094644D01*
X144140595Y-88134140D01*
X144084740Y-88189995D01*
X144074800Y-88207211D01*
X144074800Y-87353356D01*
X144074799Y-87353355D01*
X144018532Y-87364547D01*
X144018527Y-87364549D01*
X143827441Y-87443700D01*
X143827431Y-87443705D01*
X143655464Y-87558610D01*
X143655460Y-87558613D01*
X143509213Y-87704860D01*
X143509210Y-87704864D01*
X143394305Y-87876831D01*
X143394300Y-87876841D01*
X143315150Y-88067925D01*
X143315148Y-88067933D01*
X143274800Y-88270779D01*
X136734799Y-88270779D01*
X136694451Y-88067933D01*
X136694449Y-88067925D01*
X136615299Y-87876841D01*
X136615294Y-87876831D01*
X136500389Y-87704864D01*
X136500386Y-87704860D01*
X136354139Y-87558613D01*
X136354135Y-87558610D01*
X136182168Y-87443705D01*
X136182158Y-87443700D01*
X135991072Y-87364549D01*
X135991067Y-87364547D01*
X135934800Y-87353355D01*
X135934800Y-88207211D01*
X135924860Y-88189995D01*
X135869005Y-88134140D01*
X135800596Y-88094644D01*
X135724296Y-88074200D01*
X135645304Y-88074200D01*
X135569004Y-88094644D01*
X135500595Y-88134140D01*
X135444740Y-88189995D01*
X135434800Y-88207211D01*
X135434800Y-87353356D01*
X135434799Y-87353355D01*
X135378532Y-87364547D01*
X135378527Y-87364549D01*
X135187441Y-87443700D01*
X135187431Y-87443705D01*
X135015464Y-87558610D01*
X135015460Y-87558613D01*
X134869213Y-87704860D01*
X134869210Y-87704864D01*
X134754305Y-87876831D01*
X134754300Y-87876841D01*
X134675150Y-88067925D01*
X134675148Y-88067933D01*
X134634800Y-88270779D01*
X133392937Y-88270779D01*
X133368968Y-88197008D01*
X133261743Y-87986567D01*
X133122917Y-87795490D01*
X132955910Y-87628483D01*
X132764833Y-87489657D01*
X132554396Y-87382433D01*
X132329768Y-87309446D01*
X132096497Y-87272500D01*
X132096492Y-87272500D01*
X131860308Y-87272500D01*
X131860303Y-87272500D01*
X131627031Y-87309446D01*
X131402403Y-87382433D01*
X131191966Y-87489657D01*
X131082950Y-87568862D01*
X131000890Y-87628483D01*
X131000888Y-87628485D01*
X131000887Y-87628485D01*
X130833885Y-87795487D01*
X130833885Y-87795488D01*
X130833883Y-87795490D01*
X130815008Y-87821469D01*
X130695057Y-87986566D01*
X130587833Y-88197003D01*
X130514846Y-88421631D01*
X130477900Y-88654902D01*
X129691155Y-88654902D01*
X129816324Y-88506853D01*
X129819310Y-88503453D01*
X130448476Y-87813380D01*
X130451591Y-87810089D01*
X131106132Y-87144030D01*
X131109351Y-87140874D01*
X131788351Y-86499762D01*
X131791726Y-86496692D01*
X132494201Y-85881454D01*
X132497736Y-85878475D01*
X132610583Y-85786869D01*
X133222689Y-85289978D01*
X133226280Y-85287173D01*
X133972776Y-84726178D01*
X133976464Y-84723512D01*
X134440069Y-84401522D01*
X134506355Y-84379450D01*
X134574057Y-84396719D01*
X134621676Y-84447849D01*
X134634800Y-84503370D01*
X134634800Y-84624200D01*
X135384800Y-84624200D01*
X135384800Y-85124200D01*
X134634800Y-85124200D01*
X134634800Y-85277620D01*
X134675148Y-85480466D01*
X134675150Y-85480474D01*
X134754300Y-85671558D01*
X134754305Y-85671568D01*
X134869210Y-85843535D01*
X134869213Y-85843539D01*
X135015460Y-85989786D01*
X135015464Y-85989789D01*
X135187431Y-86104694D01*
X135187441Y-86104699D01*
X135378523Y-86183848D01*
X135378525Y-86183849D01*
X135434800Y-86195042D01*
X135434800Y-85341188D01*
X135444740Y-85358405D01*
X135500595Y-85414260D01*
X135569004Y-85453756D01*
X135645304Y-85474200D01*
X135724296Y-85474200D01*
X135800596Y-85453756D01*
X135869005Y-85414260D01*
X135924860Y-85358405D01*
X135934800Y-85341188D01*
X135934800Y-86195042D01*
X135991074Y-86183849D01*
X135991076Y-86183848D01*
X136182158Y-86104699D01*
X136182168Y-86104694D01*
X136354135Y-85989789D01*
X136354139Y-85989786D01*
X136500386Y-85843539D01*
X136500389Y-85843535D01*
X136615294Y-85671568D01*
X136615299Y-85671558D01*
X136694449Y-85480474D01*
X136694451Y-85480466D01*
X136734799Y-85277620D01*
X136734800Y-85277617D01*
X136734800Y-85124200D01*
X135984800Y-85124200D01*
X135984800Y-84624200D01*
X136734800Y-84624200D01*
X136734800Y-84470783D01*
X136734799Y-84470779D01*
X143274800Y-84470779D01*
X143274800Y-84624200D01*
X144024800Y-84624200D01*
X144024800Y-85124200D01*
X143274800Y-85124200D01*
X143274800Y-85277620D01*
X143315148Y-85480466D01*
X143315150Y-85480474D01*
X143394300Y-85671558D01*
X143394305Y-85671568D01*
X143509210Y-85843535D01*
X143509213Y-85843539D01*
X143655460Y-85989786D01*
X143655464Y-85989789D01*
X143827431Y-86104694D01*
X143827441Y-86104699D01*
X144018523Y-86183848D01*
X144018525Y-86183849D01*
X144074800Y-86195042D01*
X144074800Y-85341188D01*
X144084740Y-85358405D01*
X144140595Y-85414260D01*
X144209004Y-85453756D01*
X144285304Y-85474200D01*
X144364296Y-85474200D01*
X144440596Y-85453756D01*
X144509005Y-85414260D01*
X144564860Y-85358405D01*
X144574800Y-85341188D01*
X144574800Y-86195042D01*
X144631074Y-86183849D01*
X144631076Y-86183848D01*
X144822158Y-86104699D01*
X144822168Y-86104694D01*
X144994135Y-85989789D01*
X144994139Y-85989786D01*
X145140386Y-85843539D01*
X145140389Y-85843535D01*
X145255294Y-85671568D01*
X145255299Y-85671558D01*
X145334449Y-85480474D01*
X145334451Y-85480466D01*
X145374799Y-85277620D01*
X145374800Y-85277617D01*
X145374800Y-85124200D01*
X144624800Y-85124200D01*
X144624800Y-84624200D01*
X145374800Y-84624200D01*
X145374800Y-84470783D01*
X145374799Y-84470779D01*
X145334451Y-84267933D01*
X145334449Y-84267925D01*
X145255299Y-84076841D01*
X145255294Y-84076831D01*
X145140389Y-83904864D01*
X145140386Y-83904860D01*
X144994139Y-83758613D01*
X144994135Y-83758610D01*
X144822168Y-83643705D01*
X144822158Y-83643700D01*
X144631072Y-83564549D01*
X144631067Y-83564547D01*
X144574800Y-83553355D01*
X144574800Y-84407211D01*
X144564860Y-84389995D01*
X144509005Y-84334140D01*
X144440596Y-84294644D01*
X144364296Y-84274200D01*
X144285304Y-84274200D01*
X144209004Y-84294644D01*
X144140595Y-84334140D01*
X144084740Y-84389995D01*
X144074800Y-84407211D01*
X144074800Y-83553356D01*
X144074799Y-83553355D01*
X144018532Y-83564547D01*
X144018527Y-83564549D01*
X143827441Y-83643700D01*
X143827431Y-83643705D01*
X143655464Y-83758610D01*
X143655460Y-83758613D01*
X143509213Y-83904860D01*
X143509210Y-83904864D01*
X143394305Y-84076831D01*
X143394300Y-84076841D01*
X143315150Y-84267925D01*
X143315148Y-84267933D01*
X143274800Y-84470779D01*
X136734799Y-84470779D01*
X136694451Y-84267933D01*
X136694449Y-84267925D01*
X136615299Y-84076841D01*
X136615294Y-84076831D01*
X136500389Y-83904864D01*
X136500386Y-83904860D01*
X136354139Y-83758613D01*
X136354135Y-83758610D01*
X136182168Y-83643705D01*
X136182158Y-83643700D01*
X136071941Y-83598046D01*
X136061297Y-83589468D01*
X136048340Y-83585109D01*
X136034624Y-83567973D01*
X136017537Y-83554204D01*
X136013220Y-83541233D01*
X136004678Y-83530562D01*
X136002403Y-83508733D01*
X135995473Y-83487910D01*
X135998853Y-83474664D01*
X135997437Y-83461068D01*
X136007325Y-83441474D01*
X136012753Y-83420211D01*
X136023425Y-83409573D01*
X136028917Y-83398692D01*
X136056469Y-83376637D01*
X136266779Y-83252785D01*
X136271082Y-83250251D01*
X136334005Y-83233100D01*
X147647709Y-83233100D01*
X147714748Y-83252785D01*
G37*
G04 #@! TD.AperFunction*
G04 #@! TA.AperFunction,Conductor*
G36*
X145731299Y-105563467D02*
G01*
X145755463Y-105564744D01*
X145764686Y-105571384D01*
X145775743Y-105574006D01*
X145792530Y-105591430D01*
X145812166Y-105605567D01*
X145820900Y-105620877D01*
X145824220Y-105624323D01*
X145829650Y-105636212D01*
X145837658Y-105656518D01*
X145854939Y-105700341D01*
X145946377Y-105820920D01*
X146020171Y-105876879D01*
X146066958Y-105912359D01*
X146103694Y-105926846D01*
X146158837Y-105969750D01*
X146182031Y-106035658D01*
X146165911Y-106103642D01*
X146115595Y-106152119D01*
X146058205Y-106166200D01*
X145938029Y-106166200D01*
X145938012Y-106166201D01*
X145835302Y-106176694D01*
X145668880Y-106231841D01*
X145668875Y-106231843D01*
X145519654Y-106323884D01*
X145395682Y-106447856D01*
X145335535Y-106545370D01*
X145283587Y-106592094D01*
X145214624Y-106603315D01*
X145150542Y-106575472D01*
X145137790Y-106563181D01*
X145129546Y-106554012D01*
X145106081Y-106514335D01*
X144989865Y-106398119D01*
X144988816Y-106397498D01*
X144982793Y-106390800D01*
X144969062Y-106362138D01*
X144953834Y-106334249D01*
X144953293Y-106329219D01*
X144952607Y-106327787D01*
X144952893Y-106325498D01*
X144951000Y-106307891D01*
X144951000Y-106102498D01*
X144970685Y-106035459D01*
X145023489Y-105989704D01*
X145075000Y-105978498D01*
X145132397Y-105978498D01*
X145132402Y-105978498D01*
X145220864Y-105967875D01*
X145361642Y-105912359D01*
X145482222Y-105820920D01*
X145573661Y-105700340D01*
X145598946Y-105636221D01*
X145613804Y-105617125D01*
X145625001Y-105595680D01*
X145634871Y-105590049D01*
X145641851Y-105581079D01*
X145664675Y-105573047D01*
X145685690Y-105561059D01*
X145697038Y-105561658D01*
X145707759Y-105557886D01*
X145731299Y-105563467D01*
G37*
G04 #@! TD.AperFunction*
G04 #@! TA.AperFunction,Conductor*
G36*
X147364202Y-100603305D02*
G01*
X147370680Y-100609337D01*
X147642066Y-100880723D01*
X147675551Y-100942046D01*
X147678383Y-100969061D01*
X147675356Y-101540426D01*
X147675357Y-101540425D01*
X147675357Y-101540428D01*
X148249079Y-101539333D01*
X148278645Y-101547953D01*
X148308740Y-101554500D01*
X148313614Y-101558148D01*
X148316153Y-101558889D01*
X148336994Y-101575651D01*
X148437381Y-101676038D01*
X148470866Y-101737361D01*
X148473700Y-101763719D01*
X148473700Y-104299606D01*
X148473700Y-104437594D01*
X148473700Y-104437596D01*
X148473699Y-104437596D01*
X148500618Y-104572922D01*
X148500621Y-104572932D01*
X148553422Y-104700407D01*
X148630087Y-104815145D01*
X148630088Y-104815146D01*
X149099521Y-105284578D01*
X149133006Y-105345901D01*
X149128022Y-105415592D01*
X149086151Y-105471526D01*
X149080731Y-105475361D01*
X148968711Y-105550210D01*
X148968707Y-105550213D01*
X148857213Y-105661707D01*
X148857210Y-105661711D01*
X148769608Y-105792816D01*
X148769606Y-105792821D01*
X148751451Y-105836651D01*
X148738909Y-105852215D01*
X148730604Y-105870401D01*
X148717433Y-105878865D01*
X148707612Y-105891053D01*
X148688645Y-105897366D01*
X148671826Y-105908175D01*
X148644266Y-105912137D01*
X148641318Y-105913119D01*
X148636891Y-105913198D01*
X148529019Y-105913198D01*
X148461980Y-105893513D01*
X148441338Y-105876879D01*
X148127524Y-105563064D01*
X148127503Y-105563044D01*
X147951119Y-105386660D01*
X147917634Y-105325337D01*
X147914800Y-105298979D01*
X147914800Y-105084901D01*
X147914800Y-105084896D01*
X147904177Y-104996434D01*
X147848661Y-104855656D01*
X147848660Y-104855655D01*
X147848660Y-104855654D01*
X147757222Y-104735075D01*
X147636643Y-104643637D01*
X147499751Y-104589654D01*
X147495864Y-104588121D01*
X147495863Y-104588120D01*
X147495861Y-104588120D01*
X147450226Y-104582640D01*
X147407402Y-104577498D01*
X146296198Y-104577498D01*
X146257153Y-104582186D01*
X146207738Y-104588120D01*
X146066956Y-104643637D01*
X145946377Y-104735075D01*
X145937962Y-104746173D01*
X145881769Y-104787695D01*
X145812047Y-104792245D01*
X145750934Y-104758378D01*
X145717832Y-104696848D01*
X145720084Y-104636650D01*
X145736399Y-104580493D01*
X145736400Y-104580487D01*
X145736595Y-104578000D01*
X145736595Y-104577999D01*
X145143990Y-104577999D01*
X145136107Y-104577527D01*
X145136096Y-104577719D01*
X145132405Y-104577498D01*
X145132402Y-104577498D01*
X144700800Y-104577498D01*
X144633761Y-104557813D01*
X144588006Y-104505009D01*
X144576800Y-104453498D01*
X144576800Y-104202500D01*
X144596485Y-104135461D01*
X144649289Y-104089706D01*
X144700800Y-104078500D01*
X145132405Y-104078500D01*
X145136096Y-104078279D01*
X145136107Y-104078470D01*
X145143990Y-104077999D01*
X145736595Y-104077999D01*
X145736595Y-104077997D01*
X145736400Y-104075510D01*
X145736399Y-104075504D01*
X145720084Y-104019347D01*
X145720283Y-103949477D01*
X145758225Y-103890807D01*
X145821864Y-103861964D01*
X145890994Y-103872105D01*
X145937964Y-103909827D01*
X145946377Y-103920922D01*
X146066956Y-104012360D01*
X146066957Y-104012360D01*
X146066958Y-104012361D01*
X146207736Y-104067877D01*
X146296198Y-104078500D01*
X146296203Y-104078500D01*
X147407397Y-104078500D01*
X147407402Y-104078500D01*
X147495864Y-104067877D01*
X147636642Y-104012361D01*
X147757222Y-103920922D01*
X147848661Y-103800342D01*
X147904177Y-103659564D01*
X147914800Y-103571102D01*
X147914800Y-103184898D01*
X147904177Y-103096436D01*
X147848661Y-102955658D01*
X147848660Y-102955657D01*
X147848660Y-102955656D01*
X147757222Y-102835077D01*
X147636643Y-102743639D01*
X147517502Y-102696656D01*
X147495864Y-102688123D01*
X147495863Y-102688122D01*
X147495861Y-102688122D01*
X147450226Y-102682642D01*
X147407402Y-102677500D01*
X146296198Y-102677500D01*
X146257153Y-102682188D01*
X146207738Y-102688122D01*
X146066956Y-102743639D01*
X145946377Y-102835077D01*
X145854938Y-102955658D01*
X145854937Y-102955660D01*
X145829654Y-103019774D01*
X145786749Y-103074918D01*
X145720841Y-103098111D01*
X145652856Y-103081990D01*
X145604380Y-103031673D01*
X145598946Y-103019774D01*
X145573662Y-102955660D01*
X145573661Y-102955658D01*
X145482222Y-102835077D01*
X145361643Y-102743639D01*
X145242502Y-102696656D01*
X145220864Y-102688123D01*
X145220863Y-102688122D01*
X145220861Y-102688122D01*
X145175226Y-102682642D01*
X145132402Y-102677500D01*
X145132397Y-102677500D01*
X144918319Y-102677500D01*
X144851280Y-102657815D01*
X144830638Y-102641181D01*
X144480907Y-102291450D01*
X144447422Y-102230127D01*
X144452406Y-102160435D01*
X144494278Y-102104502D01*
X144533990Y-102084694D01*
X144594398Y-102067144D01*
X144735865Y-101983481D01*
X144852081Y-101867265D01*
X144869265Y-101838207D01*
X144920330Y-101790524D01*
X144989072Y-101778018D01*
X145053662Y-101804662D01*
X145081535Y-101836230D01*
X145141680Y-101933740D01*
X145141683Y-101933744D01*
X145265654Y-102057715D01*
X145414875Y-102149756D01*
X145414880Y-102149758D01*
X145581302Y-102204905D01*
X145581309Y-102204906D01*
X145684019Y-102215399D01*
X145821499Y-102215399D01*
X146321500Y-102215399D01*
X146458972Y-102215399D01*
X146458986Y-102215398D01*
X146561697Y-102204905D01*
X146728119Y-102149758D01*
X146728124Y-102149756D01*
X146877345Y-102057715D01*
X147001315Y-101933745D01*
X147093356Y-101784524D01*
X147093358Y-101784519D01*
X147148505Y-101618097D01*
X147148506Y-101618090D01*
X147158999Y-101515386D01*
X147159000Y-101515373D01*
X147159000Y-101240400D01*
X146321500Y-101240400D01*
X146321500Y-102215399D01*
X145821499Y-102215399D01*
X145821500Y-102215398D01*
X145821500Y-101114400D01*
X145841185Y-101047361D01*
X145893989Y-101001606D01*
X145945500Y-100990400D01*
X146071500Y-100990400D01*
X146071500Y-100864400D01*
X146091185Y-100797361D01*
X146143989Y-100751606D01*
X146195500Y-100740400D01*
X147158999Y-100740400D01*
X147158999Y-100697018D01*
X147178684Y-100629979D01*
X147231488Y-100584224D01*
X147300646Y-100574280D01*
X147364202Y-100603305D01*
G37*
G04 #@! TD.AperFunction*
G04 #@! TA.AperFunction,Conductor*
G36*
X162793718Y-101531259D02*
G01*
X162839574Y-101583975D01*
X162849649Y-101653115D01*
X162820746Y-101716726D01*
X162814559Y-101723383D01*
X162048162Y-102489782D01*
X161986839Y-102523267D01*
X161960481Y-102526101D01*
X161686298Y-102526101D01*
X161649432Y-102529002D01*
X161649426Y-102529003D01*
X161491606Y-102574855D01*
X161491603Y-102574856D01*
X161350137Y-102658518D01*
X161350129Y-102658524D01*
X161268872Y-102739782D01*
X161207549Y-102773267D01*
X161181191Y-102776101D01*
X159958455Y-102776101D01*
X159895334Y-102758833D01*
X159869642Y-102743639D01*
X159790198Y-102696656D01*
X159790197Y-102696655D01*
X159790196Y-102696655D01*
X159790193Y-102696654D01*
X159632373Y-102650802D01*
X159632367Y-102650801D01*
X159595501Y-102647900D01*
X159595494Y-102647900D01*
X158514106Y-102647900D01*
X158514098Y-102647900D01*
X158477232Y-102650801D01*
X158477226Y-102650802D01*
X158319406Y-102696654D01*
X158319403Y-102696655D01*
X158177937Y-102780317D01*
X158177933Y-102780320D01*
X158089855Y-102868398D01*
X158028531Y-102901882D01*
X157958840Y-102896898D01*
X157902906Y-102855026D01*
X157896634Y-102845811D01*
X157886915Y-102830054D01*
X157762945Y-102706084D01*
X157613724Y-102614043D01*
X157613719Y-102614041D01*
X157447297Y-102558894D01*
X157447290Y-102558893D01*
X157344586Y-102548400D01*
X157069600Y-102548400D01*
X157069600Y-103511900D01*
X157049915Y-103578939D01*
X156997111Y-103624694D01*
X156945600Y-103635900D01*
X156819600Y-103635900D01*
X156819600Y-103761900D01*
X156799915Y-103828939D01*
X156747111Y-103874694D01*
X156695600Y-103885900D01*
X155594601Y-103885900D01*
X155594601Y-104023386D01*
X155605094Y-104126097D01*
X155660241Y-104292519D01*
X155660243Y-104292524D01*
X155752284Y-104441745D01*
X155876254Y-104565715D01*
X155973769Y-104625863D01*
X155974091Y-104626221D01*
X155974557Y-104626353D01*
X155997445Y-104652186D01*
X156020493Y-104677811D01*
X156020570Y-104678287D01*
X156020891Y-104678649D01*
X156026172Y-104712709D01*
X156031716Y-104746774D01*
X156031523Y-104747217D01*
X156031597Y-104747694D01*
X156017628Y-104779194D01*
X156003872Y-104810856D01*
X156003404Y-104811272D01*
X156003275Y-104811566D01*
X155999647Y-104814626D01*
X155976858Y-104834972D01*
X155974367Y-104836611D01*
X155942735Y-104855319D01*
X155936534Y-104861519D01*
X155925977Y-104868470D01*
X155904164Y-104875136D01*
X155884149Y-104886066D01*
X155859861Y-104888677D01*
X155859159Y-104888892D01*
X155858801Y-104888791D01*
X155857791Y-104888900D01*
X154422519Y-104888900D01*
X154355480Y-104869215D01*
X154309725Y-104816411D01*
X154300046Y-104784297D01*
X154296847Y-104764100D01*
X154296847Y-104764099D01*
X154296846Y-104764097D01*
X154296846Y-104764096D01*
X154239250Y-104651058D01*
X154239246Y-104651054D01*
X154239245Y-104651052D01*
X154149547Y-104561354D01*
X154149544Y-104561352D01*
X154149542Y-104561350D01*
X154072717Y-104522205D01*
X154036501Y-104503752D01*
X153942724Y-104488900D01*
X153942719Y-104488900D01*
X153915916Y-104488900D01*
X153848877Y-104469215D01*
X153803122Y-104416411D01*
X153793178Y-104347253D01*
X153822203Y-104283697D01*
X153837026Y-104270092D01*
X153837121Y-104268874D01*
X153157646Y-103589400D01*
X153163861Y-103589400D01*
X153265594Y-103562141D01*
X153356806Y-103509480D01*
X153431280Y-103435006D01*
X153483941Y-103343794D01*
X153511200Y-103242061D01*
X153511200Y-103235847D01*
X154190674Y-103915321D01*
X154223059Y-103870749D01*
X154315955Y-103688431D01*
X154379190Y-103493817D01*
X154411200Y-103291717D01*
X154411200Y-103248413D01*
X155594600Y-103248413D01*
X155594600Y-103385900D01*
X156569600Y-103385900D01*
X156569600Y-102548400D01*
X156294629Y-102548400D01*
X156294612Y-102548401D01*
X156191902Y-102558894D01*
X156025480Y-102614041D01*
X156025475Y-102614043D01*
X155876254Y-102706084D01*
X155752284Y-102830054D01*
X155660243Y-102979275D01*
X155660241Y-102979280D01*
X155605094Y-103145702D01*
X155605093Y-103145709D01*
X155594600Y-103248413D01*
X154411200Y-103248413D01*
X154411200Y-103087082D01*
X154379190Y-102884982D01*
X154315955Y-102690368D01*
X154223059Y-102508050D01*
X154190674Y-102463477D01*
X154190674Y-102463476D01*
X153511200Y-103142951D01*
X153511200Y-103136739D01*
X153483941Y-103035006D01*
X153431280Y-102943794D01*
X153356806Y-102869320D01*
X153265594Y-102816659D01*
X153163861Y-102789400D01*
X153157646Y-102789400D01*
X153837122Y-102109924D01*
X153837121Y-102109923D01*
X153792559Y-102077547D01*
X153792550Y-102077541D01*
X153610231Y-101984644D01*
X153415617Y-101921409D01*
X153213517Y-101889400D01*
X153008883Y-101889400D01*
X152806782Y-101921409D01*
X152612168Y-101984644D01*
X152429844Y-102077543D01*
X152385277Y-102109923D01*
X152385277Y-102109924D01*
X153064754Y-102789400D01*
X153058539Y-102789400D01*
X152956806Y-102816659D01*
X152865594Y-102869320D01*
X152791120Y-102943794D01*
X152738459Y-103035006D01*
X152711200Y-103136739D01*
X152711200Y-103142953D01*
X152093819Y-102525572D01*
X152060334Y-102464249D01*
X152057500Y-102437891D01*
X152057500Y-101655827D01*
X152077185Y-101588788D01*
X152129989Y-101543033D01*
X152181254Y-101531828D01*
X162726646Y-101511703D01*
X162793718Y-101531259D01*
G37*
G04 #@! TD.AperFunction*
M02*
