G04 #@! TF.GenerationSoftware,KiCad,Pcbnew,9.0.6*
G04 #@! TF.CreationDate,2025-11-26T20:09:10+03:00*
G04 #@! TF.ProjectId,SMHome_UniversalRound_ESP32_C3_Mini_v3,534d486f-6d65-45f5-956e-697665727361,12*
G04 #@! TF.SameCoordinates,Original*
G04 #@! TF.FileFunction,Legend,Bot*
G04 #@! TF.FilePolarity,Positive*
%FSLAX46Y46*%
G04 Gerber Fmt 4.6, Leading zero omitted, Abs format (unit mm)*
G04 Created by KiCad (PCBNEW 9.0.6) date 2025-11-26 20:09:10*
%MOMM*%
%LPD*%
G01*
G04 APERTURE LIST*
%ADD10C,0.100000*%
%ADD11C,0.150000*%
%ADD12C,0.200000*%
%ADD13C,0.120000*%
%ADD14C,0.101600*%
G04 APERTURE END LIST*
D10*
X135331200Y-108712000D02*
X136431200Y-108712000D01*
X136831200Y-108712000D02*
X137931200Y-108712000D01*
X138331200Y-108712000D02*
X138912600Y-108712000D01*
X135940800Y-113690400D02*
X135128000Y-113284000D01*
X135940800Y-112725200D01*
X135940800Y-113690400D01*
G36*
X135940800Y-113690400D02*
G01*
X135128000Y-113284000D01*
X135940800Y-112725200D01*
X135940800Y-113690400D01*
G37*
X135280400Y-91643200D02*
X135280400Y-91846400D01*
X135274050Y-108610400D02*
X135277404Y-107510405D01*
X135278623Y-107110407D02*
X135281977Y-106010412D01*
X135283196Y-105610414D02*
X135286550Y-104510419D01*
X135287769Y-104110421D02*
X135291123Y-103010426D01*
X135292343Y-102610428D02*
X135295696Y-101510433D01*
X135296916Y-101110435D02*
X135300269Y-100010440D01*
X135301489Y-99610442D02*
X135304843Y-98510447D01*
X135306062Y-98110449D02*
X135309416Y-97010454D01*
X135310635Y-96610456D02*
X135313989Y-95510461D01*
X135315208Y-95110463D02*
X135318500Y-94030800D01*
X146824700Y-108724700D02*
X147924694Y-108728342D01*
X148324692Y-108729667D02*
X149424686Y-108733309D01*
X149824684Y-108734634D02*
X150660099Y-108737400D01*
X135686800Y-99618800D02*
X136786800Y-99618800D01*
X137186800Y-99618800D02*
X138286800Y-99618800D01*
X138686800Y-99618800D02*
X138836400Y-99618800D01*
X138836400Y-99618800D02*
X138836400Y-100718800D01*
X138836400Y-101118800D02*
X138836400Y-102218800D01*
X138836400Y-102618800D02*
X138836400Y-103718800D01*
X138836400Y-104118800D02*
X138836400Y-105218800D01*
X138836400Y-105283000D02*
X137736400Y-105283000D01*
X137336400Y-105283000D02*
X136236400Y-105283000D01*
X135836400Y-105283000D02*
X135686800Y-105283000D01*
X135686800Y-105283000D02*
X135686800Y-104183000D01*
X135686800Y-103783000D02*
X135686800Y-102683000D01*
X135686800Y-102283000D02*
X135686800Y-101183000D01*
X135686800Y-100783000D02*
X135686800Y-99683000D01*
X135318500Y-91617800D02*
X136418500Y-91617800D01*
X136818500Y-91617800D02*
X137918500Y-91617800D01*
X138318500Y-91617800D02*
X139418500Y-91617800D01*
X139818500Y-91617800D02*
X140918500Y-91617800D01*
X141363700Y-108724700D02*
X142463694Y-108728342D01*
X142863692Y-108729667D02*
X143963686Y-108733309D01*
X144363684Y-108734634D02*
X145199099Y-108737400D01*
X140931900Y-98120200D02*
X140931900Y-97020200D01*
X140931900Y-96620200D02*
X140931900Y-95520200D01*
X140931900Y-95120200D02*
X140931900Y-94020200D01*
X140931900Y-93620200D02*
X140931900Y-92520200D01*
X140931900Y-92120200D02*
X140931900Y-91617800D01*
X150698200Y-108737400D02*
X150696676Y-107637401D01*
X150696122Y-107237401D02*
X150694599Y-106137402D01*
X150694045Y-105737403D02*
X150692521Y-104637404D01*
X150691967Y-104237404D02*
X150690444Y-103137405D01*
X150689890Y-102737406D02*
X150688366Y-101637407D01*
X150687812Y-101237407D02*
X150686289Y-100137408D01*
X150685735Y-99737409D02*
X150685501Y-99568000D01*
X135305800Y-98120200D02*
X136405800Y-98120200D01*
X136805800Y-98120200D02*
X137905800Y-98120200D01*
X138305800Y-98120200D02*
X139405800Y-98120200D01*
X139805800Y-98120200D02*
X140905800Y-98120200D01*
X141305800Y-98120200D02*
X142405800Y-98120200D01*
X142805800Y-98120200D02*
X143905800Y-98120200D01*
X144305800Y-98120200D02*
X145405800Y-98120200D01*
X145805800Y-98120200D02*
X146905800Y-98120200D01*
X147305800Y-98120200D02*
X148405800Y-98120200D01*
X148805800Y-98120200D02*
X149707600Y-98120200D01*
D11*
X140972935Y-90280285D02*
X140934839Y-90242190D01*
X140934839Y-90242190D02*
X140858649Y-90204095D01*
X140858649Y-90204095D02*
X140668173Y-90204095D01*
X140668173Y-90204095D02*
X140591982Y-90242190D01*
X140591982Y-90242190D02*
X140553887Y-90280285D01*
X140553887Y-90280285D02*
X140515792Y-90356476D01*
X140515792Y-90356476D02*
X140515792Y-90432666D01*
X140515792Y-90432666D02*
X140553887Y-90546952D01*
X140553887Y-90546952D02*
X141011030Y-91004095D01*
X141011030Y-91004095D02*
X140515792Y-91004095D01*
X140172934Y-90470761D02*
X140172934Y-91004095D01*
X140172934Y-90546952D02*
X140134839Y-90508857D01*
X140134839Y-90508857D02*
X140058649Y-90470761D01*
X140058649Y-90470761D02*
X139944363Y-90470761D01*
X139944363Y-90470761D02*
X139868172Y-90508857D01*
X139868172Y-90508857D02*
X139830077Y-90585047D01*
X139830077Y-90585047D02*
X139830077Y-91004095D01*
X139106267Y-91004095D02*
X139106267Y-90204095D01*
X139106267Y-90966000D02*
X139182458Y-91004095D01*
X139182458Y-91004095D02*
X139334839Y-91004095D01*
X139334839Y-91004095D02*
X139411029Y-90966000D01*
X139411029Y-90966000D02*
X139449124Y-90927904D01*
X139449124Y-90927904D02*
X139487220Y-90851714D01*
X139487220Y-90851714D02*
X139487220Y-90623142D01*
X139487220Y-90623142D02*
X139449124Y-90546952D01*
X139449124Y-90546952D02*
X139411029Y-90508857D01*
X139411029Y-90508857D02*
X139334839Y-90470761D01*
X139334839Y-90470761D02*
X139182458Y-90470761D01*
X139182458Y-90470761D02*
X139106267Y-90508857D01*
X138191981Y-90204095D02*
X137696743Y-90204095D01*
X137696743Y-90204095D02*
X137963409Y-90508857D01*
X137963409Y-90508857D02*
X137849124Y-90508857D01*
X137849124Y-90508857D02*
X137772933Y-90546952D01*
X137772933Y-90546952D02*
X137734838Y-90585047D01*
X137734838Y-90585047D02*
X137696743Y-90661238D01*
X137696743Y-90661238D02*
X137696743Y-90851714D01*
X137696743Y-90851714D02*
X137734838Y-90927904D01*
X137734838Y-90927904D02*
X137772933Y-90966000D01*
X137772933Y-90966000D02*
X137849124Y-91004095D01*
X137849124Y-91004095D02*
X138077695Y-91004095D01*
X138077695Y-91004095D02*
X138153886Y-90966000D01*
X138153886Y-90966000D02*
X138191981Y-90927904D01*
X137430076Y-90470761D02*
X137239600Y-91004095D01*
X137239600Y-91004095D02*
X137049123Y-90470761D01*
X136820552Y-90204095D02*
X136325314Y-90204095D01*
X136325314Y-90204095D02*
X136591980Y-90508857D01*
X136591980Y-90508857D02*
X136477695Y-90508857D01*
X136477695Y-90508857D02*
X136401504Y-90546952D01*
X136401504Y-90546952D02*
X136363409Y-90585047D01*
X136363409Y-90585047D02*
X136325314Y-90661238D01*
X136325314Y-90661238D02*
X136325314Y-90851714D01*
X136325314Y-90851714D02*
X136363409Y-90927904D01*
X136363409Y-90927904D02*
X136401504Y-90966000D01*
X136401504Y-90966000D02*
X136477695Y-91004095D01*
X136477695Y-91004095D02*
X136706266Y-91004095D01*
X136706266Y-91004095D02*
X136782457Y-90966000D01*
X136782457Y-90966000D02*
X136820552Y-90927904D01*
X135372932Y-90470761D02*
X135372932Y-91270761D01*
X135372932Y-90508857D02*
X135296742Y-90470761D01*
X135296742Y-90470761D02*
X135144361Y-90470761D01*
X135144361Y-90470761D02*
X135068170Y-90508857D01*
X135068170Y-90508857D02*
X135030075Y-90546952D01*
X135030075Y-90546952D02*
X134991980Y-90623142D01*
X134991980Y-90623142D02*
X134991980Y-90851714D01*
X134991980Y-90851714D02*
X135030075Y-90927904D01*
X135030075Y-90927904D02*
X135068170Y-90966000D01*
X135068170Y-90966000D02*
X135144361Y-91004095D01*
X135144361Y-91004095D02*
X135296742Y-91004095D01*
X135296742Y-91004095D02*
X135372932Y-90966000D01*
X134725313Y-90470761D02*
X134572932Y-91004095D01*
X134572932Y-91004095D02*
X134420551Y-90623142D01*
X134420551Y-90623142D02*
X134268170Y-91004095D01*
X134268170Y-91004095D02*
X134115789Y-90470761D01*
X133811027Y-91004095D02*
X133811027Y-90470761D01*
X133811027Y-90623142D02*
X133772932Y-90546952D01*
X133772932Y-90546952D02*
X133734837Y-90508857D01*
X133734837Y-90508857D02*
X133658646Y-90470761D01*
X133658646Y-90470761D02*
X133582456Y-90470761D01*
D12*
X160666421Y-89919809D02*
X160333088Y-89919809D01*
X160190231Y-90443619D02*
X160666421Y-90443619D01*
X160666421Y-90443619D02*
X160666421Y-89443619D01*
X160666421Y-89443619D02*
X160190231Y-89443619D01*
X159809278Y-90396000D02*
X159666421Y-90443619D01*
X159666421Y-90443619D02*
X159428326Y-90443619D01*
X159428326Y-90443619D02*
X159333088Y-90396000D01*
X159333088Y-90396000D02*
X159285469Y-90348380D01*
X159285469Y-90348380D02*
X159237850Y-90253142D01*
X159237850Y-90253142D02*
X159237850Y-90157904D01*
X159237850Y-90157904D02*
X159285469Y-90062666D01*
X159285469Y-90062666D02*
X159333088Y-90015047D01*
X159333088Y-90015047D02*
X159428326Y-89967428D01*
X159428326Y-89967428D02*
X159618802Y-89919809D01*
X159618802Y-89919809D02*
X159714040Y-89872190D01*
X159714040Y-89872190D02*
X159761659Y-89824571D01*
X159761659Y-89824571D02*
X159809278Y-89729333D01*
X159809278Y-89729333D02*
X159809278Y-89634095D01*
X159809278Y-89634095D02*
X159761659Y-89538857D01*
X159761659Y-89538857D02*
X159714040Y-89491238D01*
X159714040Y-89491238D02*
X159618802Y-89443619D01*
X159618802Y-89443619D02*
X159380707Y-89443619D01*
X159380707Y-89443619D02*
X159237850Y-89491238D01*
X158809278Y-90443619D02*
X158809278Y-89443619D01*
X158809278Y-89443619D02*
X158428326Y-89443619D01*
X158428326Y-89443619D02*
X158333088Y-89491238D01*
X158333088Y-89491238D02*
X158285469Y-89538857D01*
X158285469Y-89538857D02*
X158237850Y-89634095D01*
X158237850Y-89634095D02*
X158237850Y-89776952D01*
X158237850Y-89776952D02*
X158285469Y-89872190D01*
X158285469Y-89872190D02*
X158333088Y-89919809D01*
X158333088Y-89919809D02*
X158428326Y-89967428D01*
X158428326Y-89967428D02*
X158809278Y-89967428D01*
X157904516Y-89443619D02*
X157285469Y-89443619D01*
X157285469Y-89443619D02*
X157618802Y-89824571D01*
X157618802Y-89824571D02*
X157475945Y-89824571D01*
X157475945Y-89824571D02*
X157380707Y-89872190D01*
X157380707Y-89872190D02*
X157333088Y-89919809D01*
X157333088Y-89919809D02*
X157285469Y-90015047D01*
X157285469Y-90015047D02*
X157285469Y-90253142D01*
X157285469Y-90253142D02*
X157333088Y-90348380D01*
X157333088Y-90348380D02*
X157380707Y-90396000D01*
X157380707Y-90396000D02*
X157475945Y-90443619D01*
X157475945Y-90443619D02*
X157761659Y-90443619D01*
X157761659Y-90443619D02*
X157856897Y-90396000D01*
X157856897Y-90396000D02*
X157904516Y-90348380D01*
X156904516Y-89538857D02*
X156856897Y-89491238D01*
X156856897Y-89491238D02*
X156761659Y-89443619D01*
X156761659Y-89443619D02*
X156523564Y-89443619D01*
X156523564Y-89443619D02*
X156428326Y-89491238D01*
X156428326Y-89491238D02*
X156380707Y-89538857D01*
X156380707Y-89538857D02*
X156333088Y-89634095D01*
X156333088Y-89634095D02*
X156333088Y-89729333D01*
X156333088Y-89729333D02*
X156380707Y-89872190D01*
X156380707Y-89872190D02*
X156952135Y-90443619D01*
X156952135Y-90443619D02*
X156333088Y-90443619D01*
X155904516Y-90062666D02*
X155142612Y-90062666D01*
X154714040Y-90396000D02*
X154571183Y-90443619D01*
X154571183Y-90443619D02*
X154333088Y-90443619D01*
X154333088Y-90443619D02*
X154237850Y-90396000D01*
X154237850Y-90396000D02*
X154190231Y-90348380D01*
X154190231Y-90348380D02*
X154142612Y-90253142D01*
X154142612Y-90253142D02*
X154142612Y-90157904D01*
X154142612Y-90157904D02*
X154190231Y-90062666D01*
X154190231Y-90062666D02*
X154237850Y-90015047D01*
X154237850Y-90015047D02*
X154333088Y-89967428D01*
X154333088Y-89967428D02*
X154523564Y-89919809D01*
X154523564Y-89919809D02*
X154618802Y-89872190D01*
X154618802Y-89872190D02*
X154666421Y-89824571D01*
X154666421Y-89824571D02*
X154714040Y-89729333D01*
X154714040Y-89729333D02*
X154714040Y-89634095D01*
X154714040Y-89634095D02*
X154666421Y-89538857D01*
X154666421Y-89538857D02*
X154618802Y-89491238D01*
X154618802Y-89491238D02*
X154523564Y-89443619D01*
X154523564Y-89443619D02*
X154285469Y-89443619D01*
X154285469Y-89443619D02*
X154142612Y-89491238D01*
X153809278Y-89443619D02*
X153190231Y-89443619D01*
X153190231Y-89443619D02*
X153523564Y-89824571D01*
X153523564Y-89824571D02*
X153380707Y-89824571D01*
X153380707Y-89824571D02*
X153285469Y-89872190D01*
X153285469Y-89872190D02*
X153237850Y-89919809D01*
X153237850Y-89919809D02*
X153190231Y-90015047D01*
X153190231Y-90015047D02*
X153190231Y-90253142D01*
X153190231Y-90253142D02*
X153237850Y-90348380D01*
X153237850Y-90348380D02*
X153285469Y-90396000D01*
X153285469Y-90396000D02*
X153380707Y-90443619D01*
X153380707Y-90443619D02*
X153666421Y-90443619D01*
X153666421Y-90443619D02*
X153761659Y-90396000D01*
X153761659Y-90396000D02*
X153809278Y-90348380D01*
X152761659Y-90062666D02*
X151999755Y-90062666D01*
X151523564Y-90443619D02*
X151523564Y-89776952D01*
X151523564Y-89872190D02*
X151475945Y-89824571D01*
X151475945Y-89824571D02*
X151380707Y-89776952D01*
X151380707Y-89776952D02*
X151237850Y-89776952D01*
X151237850Y-89776952D02*
X151142612Y-89824571D01*
X151142612Y-89824571D02*
X151094993Y-89919809D01*
X151094993Y-89919809D02*
X151094993Y-90443619D01*
X151094993Y-89919809D02*
X151047374Y-89824571D01*
X151047374Y-89824571D02*
X150952136Y-89776952D01*
X150952136Y-89776952D02*
X150809279Y-89776952D01*
X150809279Y-89776952D02*
X150714040Y-89824571D01*
X150714040Y-89824571D02*
X150666421Y-89919809D01*
X150666421Y-89919809D02*
X150666421Y-90443619D01*
X150190231Y-90443619D02*
X150190231Y-89776952D01*
X150190231Y-89443619D02*
X150237850Y-89491238D01*
X150237850Y-89491238D02*
X150190231Y-89538857D01*
X150190231Y-89538857D02*
X150142612Y-89491238D01*
X150142612Y-89491238D02*
X150190231Y-89443619D01*
X150190231Y-89443619D02*
X150190231Y-89538857D01*
X149714041Y-89776952D02*
X149714041Y-90443619D01*
X149714041Y-89872190D02*
X149666422Y-89824571D01*
X149666422Y-89824571D02*
X149571184Y-89776952D01*
X149571184Y-89776952D02*
X149428327Y-89776952D01*
X149428327Y-89776952D02*
X149333089Y-89824571D01*
X149333089Y-89824571D02*
X149285470Y-89919809D01*
X149285470Y-89919809D02*
X149285470Y-90443619D01*
X148809279Y-90443619D02*
X148809279Y-89776952D01*
X148809279Y-89443619D02*
X148856898Y-89491238D01*
X148856898Y-89491238D02*
X148809279Y-89538857D01*
X148809279Y-89538857D02*
X148761660Y-89491238D01*
X148761660Y-89491238D02*
X148809279Y-89443619D01*
X148809279Y-89443619D02*
X148809279Y-89538857D01*
X147666422Y-89776952D02*
X147428327Y-90443619D01*
X147428327Y-90443619D02*
X147190232Y-89776952D01*
X146809279Y-90348380D02*
X146761660Y-90396000D01*
X146761660Y-90396000D02*
X146809279Y-90443619D01*
X146809279Y-90443619D02*
X146856898Y-90396000D01*
X146856898Y-90396000D02*
X146809279Y-90348380D01*
X146809279Y-90348380D02*
X146809279Y-90443619D01*
X146428327Y-89443619D02*
X145809280Y-89443619D01*
X145809280Y-89443619D02*
X146142613Y-89824571D01*
X146142613Y-89824571D02*
X145999756Y-89824571D01*
X145999756Y-89824571D02*
X145904518Y-89872190D01*
X145904518Y-89872190D02*
X145856899Y-89919809D01*
X145856899Y-89919809D02*
X145809280Y-90015047D01*
X145809280Y-90015047D02*
X145809280Y-90253142D01*
X145809280Y-90253142D02*
X145856899Y-90348380D01*
X145856899Y-90348380D02*
X145904518Y-90396000D01*
X145904518Y-90396000D02*
X145999756Y-90443619D01*
X145999756Y-90443619D02*
X146285470Y-90443619D01*
X146285470Y-90443619D02*
X146380708Y-90396000D01*
X146380708Y-90396000D02*
X146428327Y-90348380D01*
D11*
X132603639Y-93036095D02*
X132603639Y-92236095D01*
X132603639Y-92236095D02*
X132413163Y-92236095D01*
X132413163Y-92236095D02*
X132298877Y-92274190D01*
X132298877Y-92274190D02*
X132222687Y-92350380D01*
X132222687Y-92350380D02*
X132184592Y-92426571D01*
X132184592Y-92426571D02*
X132146496Y-92578952D01*
X132146496Y-92578952D02*
X132146496Y-92693238D01*
X132146496Y-92693238D02*
X132184592Y-92845619D01*
X132184592Y-92845619D02*
X132222687Y-92921809D01*
X132222687Y-92921809D02*
X132298877Y-92998000D01*
X132298877Y-92998000D02*
X132413163Y-93036095D01*
X132413163Y-93036095D02*
X132603639Y-93036095D01*
X131803639Y-93036095D02*
X131803639Y-92502761D01*
X131803639Y-92236095D02*
X131841735Y-92274190D01*
X131841735Y-92274190D02*
X131803639Y-92312285D01*
X131803639Y-92312285D02*
X131765544Y-92274190D01*
X131765544Y-92274190D02*
X131803639Y-92236095D01*
X131803639Y-92236095D02*
X131803639Y-92312285D01*
X131460783Y-92998000D02*
X131384592Y-93036095D01*
X131384592Y-93036095D02*
X131232211Y-93036095D01*
X131232211Y-93036095D02*
X131156021Y-92998000D01*
X131156021Y-92998000D02*
X131117925Y-92921809D01*
X131117925Y-92921809D02*
X131117925Y-92883714D01*
X131117925Y-92883714D02*
X131156021Y-92807523D01*
X131156021Y-92807523D02*
X131232211Y-92769428D01*
X131232211Y-92769428D02*
X131346497Y-92769428D01*
X131346497Y-92769428D02*
X131422687Y-92731333D01*
X131422687Y-92731333D02*
X131460783Y-92655142D01*
X131460783Y-92655142D02*
X131460783Y-92617047D01*
X131460783Y-92617047D02*
X131422687Y-92540857D01*
X131422687Y-92540857D02*
X131346497Y-92502761D01*
X131346497Y-92502761D02*
X131232211Y-92502761D01*
X131232211Y-92502761D02*
X131156021Y-92540857D01*
X130775068Y-92502761D02*
X130775068Y-93302761D01*
X130775068Y-92540857D02*
X130698878Y-92502761D01*
X130698878Y-92502761D02*
X130546497Y-92502761D01*
X130546497Y-92502761D02*
X130470306Y-92540857D01*
X130470306Y-92540857D02*
X130432211Y-92578952D01*
X130432211Y-92578952D02*
X130394116Y-92655142D01*
X130394116Y-92655142D02*
X130394116Y-92883714D01*
X130394116Y-92883714D02*
X130432211Y-92959904D01*
X130432211Y-92959904D02*
X130470306Y-92998000D01*
X130470306Y-92998000D02*
X130546497Y-93036095D01*
X130546497Y-93036095D02*
X130698878Y-93036095D01*
X130698878Y-93036095D02*
X130775068Y-92998000D01*
X129936973Y-93036095D02*
X130013163Y-92998000D01*
X130013163Y-92998000D02*
X130051258Y-92921809D01*
X130051258Y-92921809D02*
X130051258Y-92236095D01*
X129289353Y-93036095D02*
X129289353Y-92617047D01*
X129289353Y-92617047D02*
X129327448Y-92540857D01*
X129327448Y-92540857D02*
X129403639Y-92502761D01*
X129403639Y-92502761D02*
X129556020Y-92502761D01*
X129556020Y-92502761D02*
X129632210Y-92540857D01*
X129289353Y-92998000D02*
X129365544Y-93036095D01*
X129365544Y-93036095D02*
X129556020Y-93036095D01*
X129556020Y-93036095D02*
X129632210Y-92998000D01*
X129632210Y-92998000D02*
X129670306Y-92921809D01*
X129670306Y-92921809D02*
X129670306Y-92845619D01*
X129670306Y-92845619D02*
X129632210Y-92769428D01*
X129632210Y-92769428D02*
X129556020Y-92731333D01*
X129556020Y-92731333D02*
X129365544Y-92731333D01*
X129365544Y-92731333D02*
X129289353Y-92693238D01*
X128984591Y-92502761D02*
X128794115Y-93036095D01*
X128603638Y-92502761D02*
X128794115Y-93036095D01*
X128794115Y-93036095D02*
X128870305Y-93226571D01*
X128870305Y-93226571D02*
X128908400Y-93264666D01*
X128908400Y-93264666D02*
X128984591Y-93302761D01*
D12*
X160451963Y-84755537D02*
X160265019Y-84817851D01*
X160265019Y-84817851D02*
X159953446Y-84817851D01*
X159953446Y-84817851D02*
X159828816Y-84755537D01*
X159828816Y-84755537D02*
X159766502Y-84693222D01*
X159766502Y-84693222D02*
X159704187Y-84568593D01*
X159704187Y-84568593D02*
X159704187Y-84443963D01*
X159704187Y-84443963D02*
X159766502Y-84319334D01*
X159766502Y-84319334D02*
X159828816Y-84257019D01*
X159828816Y-84257019D02*
X159953446Y-84194705D01*
X159953446Y-84194705D02*
X160202704Y-84132390D01*
X160202704Y-84132390D02*
X160327334Y-84070075D01*
X160327334Y-84070075D02*
X160389648Y-84007761D01*
X160389648Y-84007761D02*
X160451963Y-83883131D01*
X160451963Y-83883131D02*
X160451963Y-83758502D01*
X160451963Y-83758502D02*
X160389648Y-83633873D01*
X160389648Y-83633873D02*
X160327334Y-83571558D01*
X160327334Y-83571558D02*
X160202704Y-83509243D01*
X160202704Y-83509243D02*
X159891131Y-83509243D01*
X159891131Y-83509243D02*
X159704187Y-83571558D01*
X159143355Y-84817851D02*
X159143355Y-83509243D01*
X159143355Y-84132390D02*
X158395579Y-84132390D01*
X158395579Y-84817851D02*
X158395579Y-83509243D01*
X157772432Y-84693222D02*
X157710118Y-84755537D01*
X157710118Y-84755537D02*
X157772432Y-84817851D01*
X157772432Y-84817851D02*
X157834747Y-84755537D01*
X157834747Y-84755537D02*
X157772432Y-84693222D01*
X157772432Y-84693222D02*
X157772432Y-84817851D01*
X157149285Y-84817851D02*
X157149285Y-83509243D01*
X157149285Y-83509243D02*
X156713083Y-84443963D01*
X156713083Y-84443963D02*
X156276880Y-83509243D01*
X156276880Y-83509243D02*
X156276880Y-84817851D01*
X155217531Y-84132390D02*
X155030587Y-84194705D01*
X155030587Y-84194705D02*
X154968272Y-84257019D01*
X154968272Y-84257019D02*
X154905957Y-84381649D01*
X154905957Y-84381649D02*
X154905957Y-84568593D01*
X154905957Y-84568593D02*
X154968272Y-84693222D01*
X154968272Y-84693222D02*
X155030587Y-84755537D01*
X155030587Y-84755537D02*
X155155216Y-84817851D01*
X155155216Y-84817851D02*
X155653733Y-84817851D01*
X155653733Y-84817851D02*
X155653733Y-83509243D01*
X155653733Y-83509243D02*
X155217531Y-83509243D01*
X155217531Y-83509243D02*
X155092901Y-83571558D01*
X155092901Y-83571558D02*
X155030587Y-83633873D01*
X155030587Y-83633873D02*
X154968272Y-83758502D01*
X154968272Y-83758502D02*
X154968272Y-83883131D01*
X154968272Y-83883131D02*
X155030587Y-84007761D01*
X155030587Y-84007761D02*
X155092901Y-84070075D01*
X155092901Y-84070075D02*
X155217531Y-84132390D01*
X155217531Y-84132390D02*
X155653733Y-84132390D01*
X154345125Y-84693222D02*
X154282811Y-84755537D01*
X154282811Y-84755537D02*
X154345125Y-84817851D01*
X154345125Y-84817851D02*
X154407440Y-84755537D01*
X154407440Y-84755537D02*
X154345125Y-84693222D01*
X154345125Y-84693222D02*
X154345125Y-84817851D01*
X153784293Y-83633873D02*
X153721978Y-83571558D01*
X153721978Y-83571558D02*
X153597349Y-83509243D01*
X153597349Y-83509243D02*
X153285776Y-83509243D01*
X153285776Y-83509243D02*
X153161146Y-83571558D01*
X153161146Y-83571558D02*
X153098832Y-83633873D01*
X153098832Y-83633873D02*
X153036517Y-83758502D01*
X153036517Y-83758502D02*
X153036517Y-83883131D01*
X153036517Y-83883131D02*
X153098832Y-84070075D01*
X153098832Y-84070075D02*
X153846608Y-84817851D01*
X153846608Y-84817851D02*
X153036517Y-84817851D01*
X151727909Y-84817851D02*
X152164112Y-84194705D01*
X152475685Y-84817851D02*
X152475685Y-83509243D01*
X152475685Y-83509243D02*
X151977168Y-83509243D01*
X151977168Y-83509243D02*
X151852539Y-83571558D01*
X151852539Y-83571558D02*
X151790224Y-83633873D01*
X151790224Y-83633873D02*
X151727909Y-83758502D01*
X151727909Y-83758502D02*
X151727909Y-83945446D01*
X151727909Y-83945446D02*
X151790224Y-84070075D01*
X151790224Y-84070075D02*
X151852539Y-84132390D01*
X151852539Y-84132390D02*
X151977168Y-84194705D01*
X151977168Y-84194705D02*
X152475685Y-84194705D01*
X150543931Y-84817851D02*
X151167077Y-84817851D01*
X151167077Y-84817851D02*
X151167077Y-83509243D01*
D11*
X149075573Y-98890847D02*
X148961287Y-98928942D01*
X148961287Y-98928942D02*
X148923192Y-98967038D01*
X148923192Y-98967038D02*
X148885096Y-99043228D01*
X148885096Y-99043228D02*
X148885096Y-99157514D01*
X148885096Y-99157514D02*
X148923192Y-99233704D01*
X148923192Y-99233704D02*
X148961287Y-99271800D01*
X148961287Y-99271800D02*
X149037477Y-99309895D01*
X149037477Y-99309895D02*
X149342239Y-99309895D01*
X149342239Y-99309895D02*
X149342239Y-98509895D01*
X149342239Y-98509895D02*
X149075573Y-98509895D01*
X149075573Y-98509895D02*
X148999382Y-98547990D01*
X148999382Y-98547990D02*
X148961287Y-98586085D01*
X148961287Y-98586085D02*
X148923192Y-98662276D01*
X148923192Y-98662276D02*
X148923192Y-98738466D01*
X148923192Y-98738466D02*
X148961287Y-98814657D01*
X148961287Y-98814657D02*
X148999382Y-98852752D01*
X148999382Y-98852752D02*
X149075573Y-98890847D01*
X149075573Y-98890847D02*
X149342239Y-98890847D01*
X148199382Y-99309895D02*
X148199382Y-98890847D01*
X148199382Y-98890847D02*
X148237477Y-98814657D01*
X148237477Y-98814657D02*
X148313668Y-98776561D01*
X148313668Y-98776561D02*
X148466049Y-98776561D01*
X148466049Y-98776561D02*
X148542239Y-98814657D01*
X148199382Y-99271800D02*
X148275573Y-99309895D01*
X148275573Y-99309895D02*
X148466049Y-99309895D01*
X148466049Y-99309895D02*
X148542239Y-99271800D01*
X148542239Y-99271800D02*
X148580335Y-99195609D01*
X148580335Y-99195609D02*
X148580335Y-99119419D01*
X148580335Y-99119419D02*
X148542239Y-99043228D01*
X148542239Y-99043228D02*
X148466049Y-99005133D01*
X148466049Y-99005133D02*
X148275573Y-99005133D01*
X148275573Y-99005133D02*
X148199382Y-98967038D01*
X147932715Y-98776561D02*
X147627953Y-98776561D01*
X147818429Y-98509895D02*
X147818429Y-99195609D01*
X147818429Y-99195609D02*
X147780334Y-99271800D01*
X147780334Y-99271800D02*
X147704144Y-99309895D01*
X147704144Y-99309895D02*
X147627953Y-99309895D01*
X146408905Y-99271800D02*
X146485096Y-99309895D01*
X146485096Y-99309895D02*
X146637477Y-99309895D01*
X146637477Y-99309895D02*
X146713667Y-99271800D01*
X146713667Y-99271800D02*
X146751762Y-99233704D01*
X146751762Y-99233704D02*
X146789858Y-99157514D01*
X146789858Y-99157514D02*
X146789858Y-98928942D01*
X146789858Y-98928942D02*
X146751762Y-98852752D01*
X146751762Y-98852752D02*
X146713667Y-98814657D01*
X146713667Y-98814657D02*
X146637477Y-98776561D01*
X146637477Y-98776561D02*
X146485096Y-98776561D01*
X146485096Y-98776561D02*
X146408905Y-98814657D01*
X146066048Y-99309895D02*
X146066048Y-98509895D01*
X145723191Y-99309895D02*
X145723191Y-98890847D01*
X145723191Y-98890847D02*
X145761286Y-98814657D01*
X145761286Y-98814657D02*
X145837477Y-98776561D01*
X145837477Y-98776561D02*
X145951763Y-98776561D01*
X145951763Y-98776561D02*
X146027953Y-98814657D01*
X146027953Y-98814657D02*
X146066048Y-98852752D01*
X144999381Y-99309895D02*
X144999381Y-98890847D01*
X144999381Y-98890847D02*
X145037476Y-98814657D01*
X145037476Y-98814657D02*
X145113667Y-98776561D01*
X145113667Y-98776561D02*
X145266048Y-98776561D01*
X145266048Y-98776561D02*
X145342238Y-98814657D01*
X144999381Y-99271800D02*
X145075572Y-99309895D01*
X145075572Y-99309895D02*
X145266048Y-99309895D01*
X145266048Y-99309895D02*
X145342238Y-99271800D01*
X145342238Y-99271800D02*
X145380334Y-99195609D01*
X145380334Y-99195609D02*
X145380334Y-99119419D01*
X145380334Y-99119419D02*
X145342238Y-99043228D01*
X145342238Y-99043228D02*
X145266048Y-99005133D01*
X145266048Y-99005133D02*
X145075572Y-99005133D01*
X145075572Y-99005133D02*
X144999381Y-98967038D01*
X144618428Y-99309895D02*
X144618428Y-98776561D01*
X144618428Y-98928942D02*
X144580333Y-98852752D01*
X144580333Y-98852752D02*
X144542238Y-98814657D01*
X144542238Y-98814657D02*
X144466047Y-98776561D01*
X144466047Y-98776561D02*
X144389857Y-98776561D01*
X143780333Y-98776561D02*
X143780333Y-99424180D01*
X143780333Y-99424180D02*
X143818428Y-99500371D01*
X143818428Y-99500371D02*
X143856524Y-99538466D01*
X143856524Y-99538466D02*
X143932714Y-99576561D01*
X143932714Y-99576561D02*
X144047000Y-99576561D01*
X144047000Y-99576561D02*
X144123190Y-99538466D01*
X143780333Y-99271800D02*
X143856524Y-99309895D01*
X143856524Y-99309895D02*
X144008905Y-99309895D01*
X144008905Y-99309895D02*
X144085095Y-99271800D01*
X144085095Y-99271800D02*
X144123190Y-99233704D01*
X144123190Y-99233704D02*
X144161286Y-99157514D01*
X144161286Y-99157514D02*
X144161286Y-98928942D01*
X144161286Y-98928942D02*
X144123190Y-98852752D01*
X144123190Y-98852752D02*
X144085095Y-98814657D01*
X144085095Y-98814657D02*
X144008905Y-98776561D01*
X144008905Y-98776561D02*
X143856524Y-98776561D01*
X143856524Y-98776561D02*
X143780333Y-98814657D01*
X143094618Y-99271800D02*
X143170809Y-99309895D01*
X143170809Y-99309895D02*
X143323190Y-99309895D01*
X143323190Y-99309895D02*
X143399380Y-99271800D01*
X143399380Y-99271800D02*
X143437476Y-99195609D01*
X143437476Y-99195609D02*
X143437476Y-98890847D01*
X143437476Y-98890847D02*
X143399380Y-98814657D01*
X143399380Y-98814657D02*
X143323190Y-98776561D01*
X143323190Y-98776561D02*
X143170809Y-98776561D01*
X143170809Y-98776561D02*
X143094618Y-98814657D01*
X143094618Y-98814657D02*
X143056523Y-98890847D01*
X143056523Y-98890847D02*
X143056523Y-98967038D01*
X143056523Y-98967038D02*
X143437476Y-99043228D01*
X159819773Y-125941847D02*
X159705487Y-125979942D01*
X159705487Y-125979942D02*
X159667392Y-126018038D01*
X159667392Y-126018038D02*
X159629296Y-126094228D01*
X159629296Y-126094228D02*
X159629296Y-126208514D01*
X159629296Y-126208514D02*
X159667392Y-126284704D01*
X159667392Y-126284704D02*
X159705487Y-126322800D01*
X159705487Y-126322800D02*
X159781677Y-126360895D01*
X159781677Y-126360895D02*
X160086439Y-126360895D01*
X160086439Y-126360895D02*
X160086439Y-125560895D01*
X160086439Y-125560895D02*
X159819773Y-125560895D01*
X159819773Y-125560895D02*
X159743582Y-125598990D01*
X159743582Y-125598990D02*
X159705487Y-125637085D01*
X159705487Y-125637085D02*
X159667392Y-125713276D01*
X159667392Y-125713276D02*
X159667392Y-125789466D01*
X159667392Y-125789466D02*
X159705487Y-125865657D01*
X159705487Y-125865657D02*
X159743582Y-125903752D01*
X159743582Y-125903752D02*
X159819773Y-125941847D01*
X159819773Y-125941847D02*
X160086439Y-125941847D01*
X158943582Y-126360895D02*
X158943582Y-125941847D01*
X158943582Y-125941847D02*
X158981677Y-125865657D01*
X158981677Y-125865657D02*
X159057868Y-125827561D01*
X159057868Y-125827561D02*
X159210249Y-125827561D01*
X159210249Y-125827561D02*
X159286439Y-125865657D01*
X158943582Y-126322800D02*
X159019773Y-126360895D01*
X159019773Y-126360895D02*
X159210249Y-126360895D01*
X159210249Y-126360895D02*
X159286439Y-126322800D01*
X159286439Y-126322800D02*
X159324535Y-126246609D01*
X159324535Y-126246609D02*
X159324535Y-126170419D01*
X159324535Y-126170419D02*
X159286439Y-126094228D01*
X159286439Y-126094228D02*
X159210249Y-126056133D01*
X159210249Y-126056133D02*
X159019773Y-126056133D01*
X159019773Y-126056133D02*
X158943582Y-126018038D01*
X158676915Y-125827561D02*
X158372153Y-125827561D01*
X158562629Y-125560895D02*
X158562629Y-126246609D01*
X158562629Y-126246609D02*
X158524534Y-126322800D01*
X158524534Y-126322800D02*
X158448344Y-126360895D01*
X158448344Y-126360895D02*
X158372153Y-126360895D01*
D12*
X163104726Y-123514466D02*
X162342822Y-123514466D01*
X162723774Y-123895419D02*
X162723774Y-123133514D01*
X162631434Y-119016592D02*
X162631434Y-119778497D01*
D10*
X154873095Y-111321924D02*
X154073095Y-111321924D01*
X154073095Y-111321924D02*
X154073095Y-111512400D01*
X154073095Y-111512400D02*
X154111190Y-111626686D01*
X154111190Y-111626686D02*
X154187380Y-111702876D01*
X154187380Y-111702876D02*
X154263571Y-111740971D01*
X154263571Y-111740971D02*
X154415952Y-111779067D01*
X154415952Y-111779067D02*
X154530238Y-111779067D01*
X154530238Y-111779067D02*
X154682619Y-111740971D01*
X154682619Y-111740971D02*
X154758809Y-111702876D01*
X154758809Y-111702876D02*
X154835000Y-111626686D01*
X154835000Y-111626686D02*
X154873095Y-111512400D01*
X154873095Y-111512400D02*
X154873095Y-111321924D01*
X154873095Y-112540971D02*
X154873095Y-112083828D01*
X154873095Y-112312400D02*
X154073095Y-112312400D01*
X154073095Y-112312400D02*
X154187380Y-112236209D01*
X154187380Y-112236209D02*
X154263571Y-112160019D01*
X154263571Y-112160019D02*
X154301666Y-112083828D01*
X137826675Y-99297895D02*
X137826675Y-98497895D01*
X137826675Y-98497895D02*
X137636199Y-98497895D01*
X137636199Y-98497895D02*
X137521913Y-98535990D01*
X137521913Y-98535990D02*
X137445723Y-98612180D01*
X137445723Y-98612180D02*
X137407628Y-98688371D01*
X137407628Y-98688371D02*
X137369532Y-98840752D01*
X137369532Y-98840752D02*
X137369532Y-98955038D01*
X137369532Y-98955038D02*
X137407628Y-99107419D01*
X137407628Y-99107419D02*
X137445723Y-99183609D01*
X137445723Y-99183609D02*
X137521913Y-99259800D01*
X137521913Y-99259800D02*
X137636199Y-99297895D01*
X137636199Y-99297895D02*
X137826675Y-99297895D01*
X137064771Y-98574085D02*
X137026675Y-98535990D01*
X137026675Y-98535990D02*
X136950485Y-98497895D01*
X136950485Y-98497895D02*
X136760009Y-98497895D01*
X136760009Y-98497895D02*
X136683818Y-98535990D01*
X136683818Y-98535990D02*
X136645723Y-98574085D01*
X136645723Y-98574085D02*
X136607628Y-98650276D01*
X136607628Y-98650276D02*
X136607628Y-98726466D01*
X136607628Y-98726466D02*
X136645723Y-98840752D01*
X136645723Y-98840752D02*
X137102866Y-99297895D01*
X137102866Y-99297895D02*
X136607628Y-99297895D01*
X143871932Y-121929295D02*
X144138599Y-121548342D01*
X144329075Y-121929295D02*
X144329075Y-121129295D01*
X144329075Y-121129295D02*
X144024313Y-121129295D01*
X144024313Y-121129295D02*
X143948123Y-121167390D01*
X143948123Y-121167390D02*
X143910028Y-121205485D01*
X143910028Y-121205485D02*
X143871932Y-121281676D01*
X143871932Y-121281676D02*
X143871932Y-121395961D01*
X143871932Y-121395961D02*
X143910028Y-121472152D01*
X143910028Y-121472152D02*
X143948123Y-121510247D01*
X143948123Y-121510247D02*
X144024313Y-121548342D01*
X144024313Y-121548342D02*
X144329075Y-121548342D01*
X143605266Y-121129295D02*
X143071932Y-121129295D01*
X143071932Y-121129295D02*
X143414790Y-121929295D01*
X135162695Y-94049867D02*
X134781742Y-93783200D01*
X135162695Y-93592724D02*
X134362695Y-93592724D01*
X134362695Y-93592724D02*
X134362695Y-93897486D01*
X134362695Y-93897486D02*
X134400790Y-93973676D01*
X134400790Y-93973676D02*
X134438885Y-94011771D01*
X134438885Y-94011771D02*
X134515076Y-94049867D01*
X134515076Y-94049867D02*
X134629361Y-94049867D01*
X134629361Y-94049867D02*
X134705552Y-94011771D01*
X134705552Y-94011771D02*
X134743647Y-93973676D01*
X134743647Y-93973676D02*
X134781742Y-93897486D01*
X134781742Y-93897486D02*
X134781742Y-93592724D01*
X134629361Y-94735581D02*
X135162695Y-94735581D01*
X134324600Y-94545105D02*
X134896028Y-94354628D01*
X134896028Y-94354628D02*
X134896028Y-94849867D01*
X168814675Y-113699695D02*
X168814675Y-112899695D01*
X168814675Y-112899695D02*
X168624199Y-112899695D01*
X168624199Y-112899695D02*
X168509913Y-112937790D01*
X168509913Y-112937790D02*
X168433723Y-113013980D01*
X168433723Y-113013980D02*
X168395628Y-113090171D01*
X168395628Y-113090171D02*
X168357532Y-113242552D01*
X168357532Y-113242552D02*
X168357532Y-113356838D01*
X168357532Y-113356838D02*
X168395628Y-113509219D01*
X168395628Y-113509219D02*
X168433723Y-113585409D01*
X168433723Y-113585409D02*
X168509913Y-113661600D01*
X168509913Y-113661600D02*
X168624199Y-113699695D01*
X168624199Y-113699695D02*
X168814675Y-113699695D01*
X168090866Y-112899695D02*
X167557532Y-112899695D01*
X167557532Y-112899695D02*
X167900390Y-113699695D01*
X140114566Y-115566695D02*
X140114566Y-116138123D01*
X140114566Y-116138123D02*
X140152661Y-116252409D01*
X140152661Y-116252409D02*
X140228852Y-116328600D01*
X140228852Y-116328600D02*
X140343137Y-116366695D01*
X140343137Y-116366695D02*
X140419328Y-116366695D01*
X139733613Y-116366695D02*
X139733613Y-115566695D01*
X139733613Y-115566695D02*
X139428851Y-115566695D01*
X139428851Y-115566695D02*
X139352661Y-115604790D01*
X139352661Y-115604790D02*
X139314566Y-115642885D01*
X139314566Y-115642885D02*
X139276470Y-115719076D01*
X139276470Y-115719076D02*
X139276470Y-115833361D01*
X139276470Y-115833361D02*
X139314566Y-115909552D01*
X139314566Y-115909552D02*
X139352661Y-115947647D01*
X139352661Y-115947647D02*
X139428851Y-115985742D01*
X139428851Y-115985742D02*
X139733613Y-115985742D01*
X138514566Y-116366695D02*
X138971709Y-116366695D01*
X138743137Y-116366695D02*
X138743137Y-115566695D01*
X138743137Y-115566695D02*
X138819328Y-115680980D01*
X138819328Y-115680980D02*
X138895518Y-115757171D01*
X138895518Y-115757171D02*
X138971709Y-115795266D01*
X166442895Y-102514476D02*
X167090514Y-102514476D01*
X167090514Y-102514476D02*
X167166704Y-102552571D01*
X167166704Y-102552571D02*
X167204800Y-102590666D01*
X167204800Y-102590666D02*
X167242895Y-102666857D01*
X167242895Y-102666857D02*
X167242895Y-102819238D01*
X167242895Y-102819238D02*
X167204800Y-102895428D01*
X167204800Y-102895428D02*
X167166704Y-102933523D01*
X167166704Y-102933523D02*
X167090514Y-102971619D01*
X167090514Y-102971619D02*
X166442895Y-102971619D01*
X166519085Y-103314475D02*
X166480990Y-103352571D01*
X166480990Y-103352571D02*
X166442895Y-103428761D01*
X166442895Y-103428761D02*
X166442895Y-103619237D01*
X166442895Y-103619237D02*
X166480990Y-103695428D01*
X166480990Y-103695428D02*
X166519085Y-103733523D01*
X166519085Y-103733523D02*
X166595276Y-103771618D01*
X166595276Y-103771618D02*
X166671466Y-103771618D01*
X166671466Y-103771618D02*
X166785752Y-103733523D01*
X166785752Y-103733523D02*
X167242895Y-103276380D01*
X167242895Y-103276380D02*
X167242895Y-103771618D01*
X146491104Y-109086714D02*
X146529200Y-109048618D01*
X146529200Y-109048618D02*
X146567295Y-108934333D01*
X146567295Y-108934333D02*
X146567295Y-108858142D01*
X146567295Y-108858142D02*
X146529200Y-108743856D01*
X146529200Y-108743856D02*
X146453009Y-108667666D01*
X146453009Y-108667666D02*
X146376819Y-108629571D01*
X146376819Y-108629571D02*
X146224438Y-108591475D01*
X146224438Y-108591475D02*
X146110152Y-108591475D01*
X146110152Y-108591475D02*
X145957771Y-108629571D01*
X145957771Y-108629571D02*
X145881580Y-108667666D01*
X145881580Y-108667666D02*
X145805390Y-108743856D01*
X145805390Y-108743856D02*
X145767295Y-108858142D01*
X145767295Y-108858142D02*
X145767295Y-108934333D01*
X145767295Y-108934333D02*
X145805390Y-109048618D01*
X145805390Y-109048618D02*
X145843485Y-109086714D01*
X146567295Y-109848618D02*
X146567295Y-109391475D01*
X146567295Y-109620047D02*
X145767295Y-109620047D01*
X145767295Y-109620047D02*
X145881580Y-109543856D01*
X145881580Y-109543856D02*
X145957771Y-109467666D01*
X145957771Y-109467666D02*
X145995866Y-109391475D01*
X145843485Y-110153380D02*
X145805390Y-110191476D01*
X145805390Y-110191476D02*
X145767295Y-110267666D01*
X145767295Y-110267666D02*
X145767295Y-110458142D01*
X145767295Y-110458142D02*
X145805390Y-110534333D01*
X145805390Y-110534333D02*
X145843485Y-110572428D01*
X145843485Y-110572428D02*
X145919676Y-110610523D01*
X145919676Y-110610523D02*
X145995866Y-110610523D01*
X145995866Y-110610523D02*
X146110152Y-110572428D01*
X146110152Y-110572428D02*
X146567295Y-110115285D01*
X146567295Y-110115285D02*
X146567295Y-110610523D01*
X129308095Y-104228933D02*
X129879523Y-104228933D01*
X129879523Y-104228933D02*
X129993809Y-104190838D01*
X129993809Y-104190838D02*
X130070000Y-104114647D01*
X130070000Y-104114647D02*
X130108095Y-104000362D01*
X130108095Y-104000362D02*
X130108095Y-103924171D01*
X129308095Y-104533695D02*
X129308095Y-105028933D01*
X129308095Y-105028933D02*
X129612857Y-104762267D01*
X129612857Y-104762267D02*
X129612857Y-104876552D01*
X129612857Y-104876552D02*
X129650952Y-104952743D01*
X129650952Y-104952743D02*
X129689047Y-104990838D01*
X129689047Y-104990838D02*
X129765238Y-105028933D01*
X129765238Y-105028933D02*
X129955714Y-105028933D01*
X129955714Y-105028933D02*
X130031904Y-104990838D01*
X130031904Y-104990838D02*
X130070000Y-104952743D01*
X130070000Y-104952743D02*
X130108095Y-104876552D01*
X130108095Y-104876552D02*
X130108095Y-104647981D01*
X130108095Y-104647981D02*
X130070000Y-104571790D01*
X130070000Y-104571790D02*
X130031904Y-104533695D01*
X147216134Y-94842095D02*
X147216134Y-94042095D01*
X147216134Y-94042095D02*
X147025658Y-94042095D01*
X147025658Y-94042095D02*
X146911372Y-94080190D01*
X146911372Y-94080190D02*
X146835182Y-94156380D01*
X146835182Y-94156380D02*
X146797087Y-94232571D01*
X146797087Y-94232571D02*
X146758991Y-94384952D01*
X146758991Y-94384952D02*
X146758991Y-94499238D01*
X146758991Y-94499238D02*
X146797087Y-94651619D01*
X146797087Y-94651619D02*
X146835182Y-94727809D01*
X146835182Y-94727809D02*
X146911372Y-94804000D01*
X146911372Y-94804000D02*
X147025658Y-94842095D01*
X147025658Y-94842095D02*
X147216134Y-94842095D01*
X146149468Y-94423047D02*
X146035182Y-94461142D01*
X146035182Y-94461142D02*
X145997087Y-94499238D01*
X145997087Y-94499238D02*
X145958991Y-94575428D01*
X145958991Y-94575428D02*
X145958991Y-94689714D01*
X145958991Y-94689714D02*
X145997087Y-94765904D01*
X145997087Y-94765904D02*
X146035182Y-94804000D01*
X146035182Y-94804000D02*
X146111372Y-94842095D01*
X146111372Y-94842095D02*
X146416134Y-94842095D01*
X146416134Y-94842095D02*
X146416134Y-94042095D01*
X146416134Y-94042095D02*
X146149468Y-94042095D01*
X146149468Y-94042095D02*
X146073277Y-94080190D01*
X146073277Y-94080190D02*
X146035182Y-94118285D01*
X146035182Y-94118285D02*
X145997087Y-94194476D01*
X145997087Y-94194476D02*
X145997087Y-94270666D01*
X145997087Y-94270666D02*
X146035182Y-94346857D01*
X146035182Y-94346857D02*
X146073277Y-94384952D01*
X146073277Y-94384952D02*
X146149468Y-94423047D01*
X146149468Y-94423047D02*
X146416134Y-94423047D01*
X145197087Y-94842095D02*
X145654230Y-94842095D01*
X145425658Y-94842095D02*
X145425658Y-94042095D01*
X145425658Y-94042095D02*
X145501849Y-94156380D01*
X145501849Y-94156380D02*
X145578039Y-94232571D01*
X145578039Y-94232571D02*
X145654230Y-94270666D01*
X152879295Y-114877933D02*
X153450723Y-114877933D01*
X153450723Y-114877933D02*
X153565009Y-114839838D01*
X153565009Y-114839838D02*
X153641200Y-114763647D01*
X153641200Y-114763647D02*
X153679295Y-114649362D01*
X153679295Y-114649362D02*
X153679295Y-114573171D01*
X153679295Y-115258886D02*
X152879295Y-115258886D01*
X152879295Y-115258886D02*
X152879295Y-115563648D01*
X152879295Y-115563648D02*
X152917390Y-115639838D01*
X152917390Y-115639838D02*
X152955485Y-115677933D01*
X152955485Y-115677933D02*
X153031676Y-115716029D01*
X153031676Y-115716029D02*
X153145961Y-115716029D01*
X153145961Y-115716029D02*
X153222152Y-115677933D01*
X153222152Y-115677933D02*
X153260247Y-115639838D01*
X153260247Y-115639838D02*
X153298342Y-115563648D01*
X153298342Y-115563648D02*
X153298342Y-115258886D01*
X152879295Y-115982695D02*
X152879295Y-116477933D01*
X152879295Y-116477933D02*
X153184057Y-116211267D01*
X153184057Y-116211267D02*
X153184057Y-116325552D01*
X153184057Y-116325552D02*
X153222152Y-116401743D01*
X153222152Y-116401743D02*
X153260247Y-116439838D01*
X153260247Y-116439838D02*
X153336438Y-116477933D01*
X153336438Y-116477933D02*
X153526914Y-116477933D01*
X153526914Y-116477933D02*
X153603104Y-116439838D01*
X153603104Y-116439838D02*
X153641200Y-116401743D01*
X153641200Y-116401743D02*
X153679295Y-116325552D01*
X153679295Y-116325552D02*
X153679295Y-116096981D01*
X153679295Y-116096981D02*
X153641200Y-116020790D01*
X153641200Y-116020790D02*
X153603104Y-115982695D01*
X167340884Y-109915094D02*
X167607551Y-109534141D01*
X167798027Y-109915094D02*
X167798027Y-109115094D01*
X167798027Y-109115094D02*
X167493265Y-109115094D01*
X167493265Y-109115094D02*
X167417075Y-109153189D01*
X167417075Y-109153189D02*
X167378980Y-109191284D01*
X167378980Y-109191284D02*
X167340884Y-109267475D01*
X167340884Y-109267475D02*
X167340884Y-109381760D01*
X167340884Y-109381760D02*
X167378980Y-109457951D01*
X167378980Y-109457951D02*
X167417075Y-109496046D01*
X167417075Y-109496046D02*
X167493265Y-109534141D01*
X167493265Y-109534141D02*
X167798027Y-109534141D01*
X166578980Y-109915094D02*
X167036123Y-109915094D01*
X166807551Y-109915094D02*
X166807551Y-109115094D01*
X166807551Y-109115094D02*
X166883742Y-109229379D01*
X166883742Y-109229379D02*
X166959932Y-109305570D01*
X166959932Y-109305570D02*
X167036123Y-109343665D01*
X165893265Y-109381760D02*
X165893265Y-109915094D01*
X166083741Y-109076999D02*
X166274218Y-109648427D01*
X166274218Y-109648427D02*
X165778979Y-109648427D01*
X143138304Y-107232467D02*
X143176400Y-107194371D01*
X143176400Y-107194371D02*
X143214495Y-107080086D01*
X143214495Y-107080086D02*
X143214495Y-107003895D01*
X143214495Y-107003895D02*
X143176400Y-106889609D01*
X143176400Y-106889609D02*
X143100209Y-106813419D01*
X143100209Y-106813419D02*
X143024019Y-106775324D01*
X143024019Y-106775324D02*
X142871638Y-106737228D01*
X142871638Y-106737228D02*
X142757352Y-106737228D01*
X142757352Y-106737228D02*
X142604971Y-106775324D01*
X142604971Y-106775324D02*
X142528780Y-106813419D01*
X142528780Y-106813419D02*
X142452590Y-106889609D01*
X142452590Y-106889609D02*
X142414495Y-107003895D01*
X142414495Y-107003895D02*
X142414495Y-107080086D01*
X142414495Y-107080086D02*
X142452590Y-107194371D01*
X142452590Y-107194371D02*
X142490685Y-107232467D01*
X142414495Y-107918181D02*
X142414495Y-107765800D01*
X142414495Y-107765800D02*
X142452590Y-107689609D01*
X142452590Y-107689609D02*
X142490685Y-107651514D01*
X142490685Y-107651514D02*
X142604971Y-107575324D01*
X142604971Y-107575324D02*
X142757352Y-107537228D01*
X142757352Y-107537228D02*
X143062114Y-107537228D01*
X143062114Y-107537228D02*
X143138304Y-107575324D01*
X143138304Y-107575324D02*
X143176400Y-107613419D01*
X143176400Y-107613419D02*
X143214495Y-107689609D01*
X143214495Y-107689609D02*
X143214495Y-107841990D01*
X143214495Y-107841990D02*
X143176400Y-107918181D01*
X143176400Y-107918181D02*
X143138304Y-107956276D01*
X143138304Y-107956276D02*
X143062114Y-107994371D01*
X143062114Y-107994371D02*
X142871638Y-107994371D01*
X142871638Y-107994371D02*
X142795447Y-107956276D01*
X142795447Y-107956276D02*
X142757352Y-107918181D01*
X142757352Y-107918181D02*
X142719257Y-107841990D01*
X142719257Y-107841990D02*
X142719257Y-107689609D01*
X142719257Y-107689609D02*
X142757352Y-107613419D01*
X142757352Y-107613419D02*
X142795447Y-107575324D01*
X142795447Y-107575324D02*
X142871638Y-107537228D01*
X147938904Y-100806267D02*
X147977000Y-100768171D01*
X147977000Y-100768171D02*
X148015095Y-100653886D01*
X148015095Y-100653886D02*
X148015095Y-100577695D01*
X148015095Y-100577695D02*
X147977000Y-100463409D01*
X147977000Y-100463409D02*
X147900809Y-100387219D01*
X147900809Y-100387219D02*
X147824619Y-100349124D01*
X147824619Y-100349124D02*
X147672238Y-100311028D01*
X147672238Y-100311028D02*
X147557952Y-100311028D01*
X147557952Y-100311028D02*
X147405571Y-100349124D01*
X147405571Y-100349124D02*
X147329380Y-100387219D01*
X147329380Y-100387219D02*
X147253190Y-100463409D01*
X147253190Y-100463409D02*
X147215095Y-100577695D01*
X147215095Y-100577695D02*
X147215095Y-100653886D01*
X147215095Y-100653886D02*
X147253190Y-100768171D01*
X147253190Y-100768171D02*
X147291285Y-100806267D01*
X147557952Y-101263409D02*
X147519857Y-101187219D01*
X147519857Y-101187219D02*
X147481761Y-101149124D01*
X147481761Y-101149124D02*
X147405571Y-101111028D01*
X147405571Y-101111028D02*
X147367476Y-101111028D01*
X147367476Y-101111028D02*
X147291285Y-101149124D01*
X147291285Y-101149124D02*
X147253190Y-101187219D01*
X147253190Y-101187219D02*
X147215095Y-101263409D01*
X147215095Y-101263409D02*
X147215095Y-101415790D01*
X147215095Y-101415790D02*
X147253190Y-101491981D01*
X147253190Y-101491981D02*
X147291285Y-101530076D01*
X147291285Y-101530076D02*
X147367476Y-101568171D01*
X147367476Y-101568171D02*
X147405571Y-101568171D01*
X147405571Y-101568171D02*
X147481761Y-101530076D01*
X147481761Y-101530076D02*
X147519857Y-101491981D01*
X147519857Y-101491981D02*
X147557952Y-101415790D01*
X147557952Y-101415790D02*
X147557952Y-101263409D01*
X147557952Y-101263409D02*
X147596047Y-101187219D01*
X147596047Y-101187219D02*
X147634142Y-101149124D01*
X147634142Y-101149124D02*
X147710333Y-101111028D01*
X147710333Y-101111028D02*
X147862714Y-101111028D01*
X147862714Y-101111028D02*
X147938904Y-101149124D01*
X147938904Y-101149124D02*
X147977000Y-101187219D01*
X147977000Y-101187219D02*
X148015095Y-101263409D01*
X148015095Y-101263409D02*
X148015095Y-101415790D01*
X148015095Y-101415790D02*
X147977000Y-101491981D01*
X147977000Y-101491981D02*
X147938904Y-101530076D01*
X147938904Y-101530076D02*
X147862714Y-101568171D01*
X147862714Y-101568171D02*
X147710333Y-101568171D01*
X147710333Y-101568171D02*
X147634142Y-101530076D01*
X147634142Y-101530076D02*
X147596047Y-101491981D01*
X147596047Y-101491981D02*
X147557952Y-101415790D01*
X157003732Y-102320504D02*
X157041828Y-102358600D01*
X157041828Y-102358600D02*
X157156113Y-102396695D01*
X157156113Y-102396695D02*
X157232304Y-102396695D01*
X157232304Y-102396695D02*
X157346590Y-102358600D01*
X157346590Y-102358600D02*
X157422780Y-102282409D01*
X157422780Y-102282409D02*
X157460875Y-102206219D01*
X157460875Y-102206219D02*
X157498971Y-102053838D01*
X157498971Y-102053838D02*
X157498971Y-101939552D01*
X157498971Y-101939552D02*
X157460875Y-101787171D01*
X157460875Y-101787171D02*
X157422780Y-101710980D01*
X157422780Y-101710980D02*
X157346590Y-101634790D01*
X157346590Y-101634790D02*
X157232304Y-101596695D01*
X157232304Y-101596695D02*
X157156113Y-101596695D01*
X157156113Y-101596695D02*
X157041828Y-101634790D01*
X157041828Y-101634790D02*
X157003732Y-101672885D01*
X156622780Y-102396695D02*
X156470399Y-102396695D01*
X156470399Y-102396695D02*
X156394209Y-102358600D01*
X156394209Y-102358600D02*
X156356113Y-102320504D01*
X156356113Y-102320504D02*
X156279923Y-102206219D01*
X156279923Y-102206219D02*
X156241828Y-102053838D01*
X156241828Y-102053838D02*
X156241828Y-101749076D01*
X156241828Y-101749076D02*
X156279923Y-101672885D01*
X156279923Y-101672885D02*
X156318018Y-101634790D01*
X156318018Y-101634790D02*
X156394209Y-101596695D01*
X156394209Y-101596695D02*
X156546590Y-101596695D01*
X156546590Y-101596695D02*
X156622780Y-101634790D01*
X156622780Y-101634790D02*
X156660875Y-101672885D01*
X156660875Y-101672885D02*
X156698971Y-101749076D01*
X156698971Y-101749076D02*
X156698971Y-101939552D01*
X156698971Y-101939552D02*
X156660875Y-102015742D01*
X156660875Y-102015742D02*
X156622780Y-102053838D01*
X156622780Y-102053838D02*
X156546590Y-102091933D01*
X156546590Y-102091933D02*
X156394209Y-102091933D01*
X156394209Y-102091933D02*
X156318018Y-102053838D01*
X156318018Y-102053838D02*
X156279923Y-102015742D01*
X156279923Y-102015742D02*
X156241828Y-101939552D01*
X145573685Y-118297095D02*
X145840352Y-117916142D01*
X146030828Y-118297095D02*
X146030828Y-117497095D01*
X146030828Y-117497095D02*
X145726066Y-117497095D01*
X145726066Y-117497095D02*
X145649876Y-117535190D01*
X145649876Y-117535190D02*
X145611781Y-117573285D01*
X145611781Y-117573285D02*
X145573685Y-117649476D01*
X145573685Y-117649476D02*
X145573685Y-117763761D01*
X145573685Y-117763761D02*
X145611781Y-117839952D01*
X145611781Y-117839952D02*
X145649876Y-117878047D01*
X145649876Y-117878047D02*
X145726066Y-117916142D01*
X145726066Y-117916142D02*
X146030828Y-117916142D01*
X144811781Y-118297095D02*
X145268924Y-118297095D01*
X145040352Y-118297095D02*
X145040352Y-117497095D01*
X145040352Y-117497095D02*
X145116543Y-117611380D01*
X145116543Y-117611380D02*
X145192733Y-117687571D01*
X145192733Y-117687571D02*
X145268924Y-117725666D01*
X144507019Y-117573285D02*
X144468923Y-117535190D01*
X144468923Y-117535190D02*
X144392733Y-117497095D01*
X144392733Y-117497095D02*
X144202257Y-117497095D01*
X144202257Y-117497095D02*
X144126066Y-117535190D01*
X144126066Y-117535190D02*
X144087971Y-117573285D01*
X144087971Y-117573285D02*
X144049876Y-117649476D01*
X144049876Y-117649476D02*
X144049876Y-117725666D01*
X144049876Y-117725666D02*
X144087971Y-117839952D01*
X144087971Y-117839952D02*
X144545114Y-118297095D01*
X144545114Y-118297095D02*
X144049876Y-118297095D01*
X152231504Y-108070667D02*
X152269600Y-108032571D01*
X152269600Y-108032571D02*
X152307695Y-107918286D01*
X152307695Y-107918286D02*
X152307695Y-107842095D01*
X152307695Y-107842095D02*
X152269600Y-107727809D01*
X152269600Y-107727809D02*
X152193409Y-107651619D01*
X152193409Y-107651619D02*
X152117219Y-107613524D01*
X152117219Y-107613524D02*
X151964838Y-107575428D01*
X151964838Y-107575428D02*
X151850552Y-107575428D01*
X151850552Y-107575428D02*
X151698171Y-107613524D01*
X151698171Y-107613524D02*
X151621980Y-107651619D01*
X151621980Y-107651619D02*
X151545790Y-107727809D01*
X151545790Y-107727809D02*
X151507695Y-107842095D01*
X151507695Y-107842095D02*
X151507695Y-107918286D01*
X151507695Y-107918286D02*
X151545790Y-108032571D01*
X151545790Y-108032571D02*
X151583885Y-108070667D01*
X151774361Y-108756381D02*
X152307695Y-108756381D01*
X151469600Y-108565905D02*
X152041028Y-108375428D01*
X152041028Y-108375428D02*
X152041028Y-108870667D01*
X145449695Y-120567571D02*
X144649695Y-120567571D01*
X144649695Y-120567571D02*
X144649695Y-120758047D01*
X144649695Y-120758047D02*
X144687790Y-120872333D01*
X144687790Y-120872333D02*
X144763980Y-120948523D01*
X144763980Y-120948523D02*
X144840171Y-120986618D01*
X144840171Y-120986618D02*
X144992552Y-121024714D01*
X144992552Y-121024714D02*
X145106838Y-121024714D01*
X145106838Y-121024714D02*
X145259219Y-120986618D01*
X145259219Y-120986618D02*
X145335409Y-120948523D01*
X145335409Y-120948523D02*
X145411600Y-120872333D01*
X145411600Y-120872333D02*
X145449695Y-120758047D01*
X145449695Y-120758047D02*
X145449695Y-120567571D01*
X145449695Y-121786618D02*
X145449695Y-121329475D01*
X145449695Y-121558047D02*
X144649695Y-121558047D01*
X144649695Y-121558047D02*
X144763980Y-121481856D01*
X144763980Y-121481856D02*
X144840171Y-121405666D01*
X144840171Y-121405666D02*
X144878266Y-121329475D01*
X145449695Y-122548523D02*
X145449695Y-122091380D01*
X145449695Y-122319952D02*
X144649695Y-122319952D01*
X144649695Y-122319952D02*
X144763980Y-122243761D01*
X144763980Y-122243761D02*
X144840171Y-122167571D01*
X144840171Y-122167571D02*
X144878266Y-122091380D01*
X145741895Y-113811133D02*
X146313323Y-113811133D01*
X146313323Y-113811133D02*
X146427609Y-113773038D01*
X146427609Y-113773038D02*
X146503800Y-113696847D01*
X146503800Y-113696847D02*
X146541895Y-113582562D01*
X146541895Y-113582562D02*
X146541895Y-113506371D01*
X146541895Y-114192086D02*
X145741895Y-114192086D01*
X145741895Y-114192086D02*
X145741895Y-114496848D01*
X145741895Y-114496848D02*
X145779990Y-114573038D01*
X145779990Y-114573038D02*
X145818085Y-114611133D01*
X145818085Y-114611133D02*
X145894276Y-114649229D01*
X145894276Y-114649229D02*
X146008561Y-114649229D01*
X146008561Y-114649229D02*
X146084752Y-114611133D01*
X146084752Y-114611133D02*
X146122847Y-114573038D01*
X146122847Y-114573038D02*
X146160942Y-114496848D01*
X146160942Y-114496848D02*
X146160942Y-114192086D01*
X145818085Y-114953990D02*
X145779990Y-114992086D01*
X145779990Y-114992086D02*
X145741895Y-115068276D01*
X145741895Y-115068276D02*
X145741895Y-115258752D01*
X145741895Y-115258752D02*
X145779990Y-115334943D01*
X145779990Y-115334943D02*
X145818085Y-115373038D01*
X145818085Y-115373038D02*
X145894276Y-115411133D01*
X145894276Y-115411133D02*
X145970466Y-115411133D01*
X145970466Y-115411133D02*
X146084752Y-115373038D01*
X146084752Y-115373038D02*
X146541895Y-114915895D01*
X146541895Y-114915895D02*
X146541895Y-115411133D01*
X148040495Y-112998267D02*
X147659542Y-112731600D01*
X148040495Y-112541124D02*
X147240495Y-112541124D01*
X147240495Y-112541124D02*
X147240495Y-112845886D01*
X147240495Y-112845886D02*
X147278590Y-112922076D01*
X147278590Y-112922076D02*
X147316685Y-112960171D01*
X147316685Y-112960171D02*
X147392876Y-112998267D01*
X147392876Y-112998267D02*
X147507161Y-112998267D01*
X147507161Y-112998267D02*
X147583352Y-112960171D01*
X147583352Y-112960171D02*
X147621447Y-112922076D01*
X147621447Y-112922076D02*
X147659542Y-112845886D01*
X147659542Y-112845886D02*
X147659542Y-112541124D01*
X148040495Y-113760171D02*
X148040495Y-113303028D01*
X148040495Y-113531600D02*
X147240495Y-113531600D01*
X147240495Y-113531600D02*
X147354780Y-113455409D01*
X147354780Y-113455409D02*
X147430971Y-113379219D01*
X147430971Y-113379219D02*
X147469066Y-113303028D01*
X149002628Y-119262295D02*
X149002628Y-118462295D01*
X149002628Y-118462295D02*
X148812152Y-118462295D01*
X148812152Y-118462295D02*
X148697866Y-118500390D01*
X148697866Y-118500390D02*
X148621676Y-118576580D01*
X148621676Y-118576580D02*
X148583581Y-118652771D01*
X148583581Y-118652771D02*
X148545485Y-118805152D01*
X148545485Y-118805152D02*
X148545485Y-118919438D01*
X148545485Y-118919438D02*
X148583581Y-119071819D01*
X148583581Y-119071819D02*
X148621676Y-119148009D01*
X148621676Y-119148009D02*
X148697866Y-119224200D01*
X148697866Y-119224200D02*
X148812152Y-119262295D01*
X148812152Y-119262295D02*
X149002628Y-119262295D01*
X147783581Y-119262295D02*
X148240724Y-119262295D01*
X148012152Y-119262295D02*
X148012152Y-118462295D01*
X148012152Y-118462295D02*
X148088343Y-118576580D01*
X148088343Y-118576580D02*
X148164533Y-118652771D01*
X148164533Y-118652771D02*
X148240724Y-118690866D01*
X147478819Y-118538485D02*
X147440723Y-118500390D01*
X147440723Y-118500390D02*
X147364533Y-118462295D01*
X147364533Y-118462295D02*
X147174057Y-118462295D01*
X147174057Y-118462295D02*
X147097866Y-118500390D01*
X147097866Y-118500390D02*
X147059771Y-118538485D01*
X147059771Y-118538485D02*
X147021676Y-118614676D01*
X147021676Y-118614676D02*
X147021676Y-118690866D01*
X147021676Y-118690866D02*
X147059771Y-118805152D01*
X147059771Y-118805152D02*
X147516914Y-119262295D01*
X147516914Y-119262295D02*
X147021676Y-119262295D01*
X159238932Y-102295104D02*
X159277028Y-102333200D01*
X159277028Y-102333200D02*
X159391313Y-102371295D01*
X159391313Y-102371295D02*
X159467504Y-102371295D01*
X159467504Y-102371295D02*
X159581790Y-102333200D01*
X159581790Y-102333200D02*
X159657980Y-102257009D01*
X159657980Y-102257009D02*
X159696075Y-102180819D01*
X159696075Y-102180819D02*
X159734171Y-102028438D01*
X159734171Y-102028438D02*
X159734171Y-101914152D01*
X159734171Y-101914152D02*
X159696075Y-101761771D01*
X159696075Y-101761771D02*
X159657980Y-101685580D01*
X159657980Y-101685580D02*
X159581790Y-101609390D01*
X159581790Y-101609390D02*
X159467504Y-101571295D01*
X159467504Y-101571295D02*
X159391313Y-101571295D01*
X159391313Y-101571295D02*
X159277028Y-101609390D01*
X159277028Y-101609390D02*
X159238932Y-101647485D01*
X158972266Y-101571295D02*
X158477028Y-101571295D01*
X158477028Y-101571295D02*
X158743694Y-101876057D01*
X158743694Y-101876057D02*
X158629409Y-101876057D01*
X158629409Y-101876057D02*
X158553218Y-101914152D01*
X158553218Y-101914152D02*
X158515123Y-101952247D01*
X158515123Y-101952247D02*
X158477028Y-102028438D01*
X158477028Y-102028438D02*
X158477028Y-102218914D01*
X158477028Y-102218914D02*
X158515123Y-102295104D01*
X158515123Y-102295104D02*
X158553218Y-102333200D01*
X158553218Y-102333200D02*
X158629409Y-102371295D01*
X158629409Y-102371295D02*
X158857980Y-102371295D01*
X158857980Y-102371295D02*
X158934171Y-102333200D01*
X158934171Y-102333200D02*
X158972266Y-102295104D01*
X138683923Y-93214695D02*
X138683923Y-93862314D01*
X138683923Y-93862314D02*
X138645828Y-93938504D01*
X138645828Y-93938504D02*
X138607733Y-93976600D01*
X138607733Y-93976600D02*
X138531542Y-94014695D01*
X138531542Y-94014695D02*
X138379161Y-94014695D01*
X138379161Y-94014695D02*
X138302971Y-93976600D01*
X138302971Y-93976600D02*
X138264876Y-93938504D01*
X138264876Y-93938504D02*
X138226780Y-93862314D01*
X138226780Y-93862314D02*
X138226780Y-93214695D01*
X137502971Y-93481361D02*
X137502971Y-94014695D01*
X137693447Y-93176600D02*
X137883924Y-93748028D01*
X137883924Y-93748028D02*
X137388685Y-93748028D01*
X134476895Y-123285324D02*
X133676895Y-123285324D01*
X133676895Y-123285324D02*
X133676895Y-123475800D01*
X133676895Y-123475800D02*
X133714990Y-123590086D01*
X133714990Y-123590086D02*
X133791180Y-123666276D01*
X133791180Y-123666276D02*
X133867371Y-123704371D01*
X133867371Y-123704371D02*
X134019752Y-123742467D01*
X134019752Y-123742467D02*
X134134038Y-123742467D01*
X134134038Y-123742467D02*
X134286419Y-123704371D01*
X134286419Y-123704371D02*
X134362609Y-123666276D01*
X134362609Y-123666276D02*
X134438800Y-123590086D01*
X134438800Y-123590086D02*
X134476895Y-123475800D01*
X134476895Y-123475800D02*
X134476895Y-123285324D01*
X133676895Y-124466276D02*
X133676895Y-124085324D01*
X133676895Y-124085324D02*
X134057847Y-124047228D01*
X134057847Y-124047228D02*
X134019752Y-124085324D01*
X134019752Y-124085324D02*
X133981657Y-124161514D01*
X133981657Y-124161514D02*
X133981657Y-124351990D01*
X133981657Y-124351990D02*
X134019752Y-124428181D01*
X134019752Y-124428181D02*
X134057847Y-124466276D01*
X134057847Y-124466276D02*
X134134038Y-124504371D01*
X134134038Y-124504371D02*
X134324514Y-124504371D01*
X134324514Y-124504371D02*
X134400704Y-124466276D01*
X134400704Y-124466276D02*
X134438800Y-124428181D01*
X134438800Y-124428181D02*
X134476895Y-124351990D01*
X134476895Y-124351990D02*
X134476895Y-124161514D01*
X134476895Y-124161514D02*
X134438800Y-124085324D01*
X134438800Y-124085324D02*
X134400704Y-124047228D01*
X136127895Y-110229714D02*
X135746942Y-109963047D01*
X136127895Y-109772571D02*
X135327895Y-109772571D01*
X135327895Y-109772571D02*
X135327895Y-110077333D01*
X135327895Y-110077333D02*
X135365990Y-110153523D01*
X135365990Y-110153523D02*
X135404085Y-110191618D01*
X135404085Y-110191618D02*
X135480276Y-110229714D01*
X135480276Y-110229714D02*
X135594561Y-110229714D01*
X135594561Y-110229714D02*
X135670752Y-110191618D01*
X135670752Y-110191618D02*
X135708847Y-110153523D01*
X135708847Y-110153523D02*
X135746942Y-110077333D01*
X135746942Y-110077333D02*
X135746942Y-109772571D01*
X136127895Y-110991618D02*
X136127895Y-110534475D01*
X136127895Y-110763047D02*
X135327895Y-110763047D01*
X135327895Y-110763047D02*
X135442180Y-110686856D01*
X135442180Y-110686856D02*
X135518371Y-110610666D01*
X135518371Y-110610666D02*
X135556466Y-110534475D01*
X136127895Y-111753523D02*
X136127895Y-111296380D01*
X136127895Y-111524952D02*
X135327895Y-111524952D01*
X135327895Y-111524952D02*
X135442180Y-111448761D01*
X135442180Y-111448761D02*
X135518371Y-111372571D01*
X135518371Y-111372571D02*
X135556466Y-111296380D01*
X136940695Y-96666067D02*
X136559742Y-96399400D01*
X136940695Y-96208924D02*
X136140695Y-96208924D01*
X136140695Y-96208924D02*
X136140695Y-96513686D01*
X136140695Y-96513686D02*
X136178790Y-96589876D01*
X136178790Y-96589876D02*
X136216885Y-96627971D01*
X136216885Y-96627971D02*
X136293076Y-96666067D01*
X136293076Y-96666067D02*
X136407361Y-96666067D01*
X136407361Y-96666067D02*
X136483552Y-96627971D01*
X136483552Y-96627971D02*
X136521647Y-96589876D01*
X136521647Y-96589876D02*
X136559742Y-96513686D01*
X136559742Y-96513686D02*
X136559742Y-96208924D01*
X136140695Y-96932733D02*
X136140695Y-97427971D01*
X136140695Y-97427971D02*
X136445457Y-97161305D01*
X136445457Y-97161305D02*
X136445457Y-97275590D01*
X136445457Y-97275590D02*
X136483552Y-97351781D01*
X136483552Y-97351781D02*
X136521647Y-97389876D01*
X136521647Y-97389876D02*
X136597838Y-97427971D01*
X136597838Y-97427971D02*
X136788314Y-97427971D01*
X136788314Y-97427971D02*
X136864504Y-97389876D01*
X136864504Y-97389876D02*
X136902600Y-97351781D01*
X136902600Y-97351781D02*
X136940695Y-97275590D01*
X136940695Y-97275590D02*
X136940695Y-97047019D01*
X136940695Y-97047019D02*
X136902600Y-96970828D01*
X136902600Y-96970828D02*
X136864504Y-96932733D01*
X159597495Y-108553314D02*
X159216542Y-108286647D01*
X159597495Y-108096171D02*
X158797495Y-108096171D01*
X158797495Y-108096171D02*
X158797495Y-108400933D01*
X158797495Y-108400933D02*
X158835590Y-108477123D01*
X158835590Y-108477123D02*
X158873685Y-108515218D01*
X158873685Y-108515218D02*
X158949876Y-108553314D01*
X158949876Y-108553314D02*
X159064161Y-108553314D01*
X159064161Y-108553314D02*
X159140352Y-108515218D01*
X159140352Y-108515218D02*
X159178447Y-108477123D01*
X159178447Y-108477123D02*
X159216542Y-108400933D01*
X159216542Y-108400933D02*
X159216542Y-108096171D01*
X159597495Y-109315218D02*
X159597495Y-108858075D01*
X159597495Y-109086647D02*
X158797495Y-109086647D01*
X158797495Y-109086647D02*
X158911780Y-109010456D01*
X158911780Y-109010456D02*
X158987971Y-108934266D01*
X158987971Y-108934266D02*
X159026066Y-108858075D01*
X159597495Y-109696171D02*
X159597495Y-109848552D01*
X159597495Y-109848552D02*
X159559400Y-109924742D01*
X159559400Y-109924742D02*
X159521304Y-109962838D01*
X159521304Y-109962838D02*
X159407019Y-110039028D01*
X159407019Y-110039028D02*
X159254638Y-110077123D01*
X159254638Y-110077123D02*
X158949876Y-110077123D01*
X158949876Y-110077123D02*
X158873685Y-110039028D01*
X158873685Y-110039028D02*
X158835590Y-110000933D01*
X158835590Y-110000933D02*
X158797495Y-109924742D01*
X158797495Y-109924742D02*
X158797495Y-109772361D01*
X158797495Y-109772361D02*
X158835590Y-109696171D01*
X158835590Y-109696171D02*
X158873685Y-109658076D01*
X158873685Y-109658076D02*
X158949876Y-109619980D01*
X158949876Y-109619980D02*
X159140352Y-109619980D01*
X159140352Y-109619980D02*
X159216542Y-109658076D01*
X159216542Y-109658076D02*
X159254638Y-109696171D01*
X159254638Y-109696171D02*
X159292733Y-109772361D01*
X159292733Y-109772361D02*
X159292733Y-109924742D01*
X159292733Y-109924742D02*
X159254638Y-110000933D01*
X159254638Y-110000933D02*
X159216542Y-110039028D01*
X159216542Y-110039028D02*
X159140352Y-110077123D01*
X168360495Y-94684924D02*
X167560495Y-94684924D01*
X167560495Y-94684924D02*
X167560495Y-94875400D01*
X167560495Y-94875400D02*
X167598590Y-94989686D01*
X167598590Y-94989686D02*
X167674780Y-95065876D01*
X167674780Y-95065876D02*
X167750971Y-95103971D01*
X167750971Y-95103971D02*
X167903352Y-95142067D01*
X167903352Y-95142067D02*
X168017638Y-95142067D01*
X168017638Y-95142067D02*
X168170019Y-95103971D01*
X168170019Y-95103971D02*
X168246209Y-95065876D01*
X168246209Y-95065876D02*
X168322400Y-94989686D01*
X168322400Y-94989686D02*
X168360495Y-94875400D01*
X168360495Y-94875400D02*
X168360495Y-94684924D01*
X167560495Y-95827781D02*
X167560495Y-95675400D01*
X167560495Y-95675400D02*
X167598590Y-95599209D01*
X167598590Y-95599209D02*
X167636685Y-95561114D01*
X167636685Y-95561114D02*
X167750971Y-95484924D01*
X167750971Y-95484924D02*
X167903352Y-95446828D01*
X167903352Y-95446828D02*
X168208114Y-95446828D01*
X168208114Y-95446828D02*
X168284304Y-95484924D01*
X168284304Y-95484924D02*
X168322400Y-95523019D01*
X168322400Y-95523019D02*
X168360495Y-95599209D01*
X168360495Y-95599209D02*
X168360495Y-95751590D01*
X168360495Y-95751590D02*
X168322400Y-95827781D01*
X168322400Y-95827781D02*
X168284304Y-95865876D01*
X168284304Y-95865876D02*
X168208114Y-95903971D01*
X168208114Y-95903971D02*
X168017638Y-95903971D01*
X168017638Y-95903971D02*
X167941447Y-95865876D01*
X167941447Y-95865876D02*
X167903352Y-95827781D01*
X167903352Y-95827781D02*
X167865257Y-95751590D01*
X167865257Y-95751590D02*
X167865257Y-95599209D01*
X167865257Y-95599209D02*
X167903352Y-95523019D01*
X167903352Y-95523019D02*
X167941447Y-95484924D01*
X167941447Y-95484924D02*
X168017638Y-95446828D01*
X162794875Y-102041095D02*
X162794875Y-101241095D01*
X162794875Y-101241095D02*
X162604399Y-101241095D01*
X162604399Y-101241095D02*
X162490113Y-101279190D01*
X162490113Y-101279190D02*
X162413923Y-101355380D01*
X162413923Y-101355380D02*
X162375828Y-101431571D01*
X162375828Y-101431571D02*
X162337732Y-101583952D01*
X162337732Y-101583952D02*
X162337732Y-101698238D01*
X162337732Y-101698238D02*
X162375828Y-101850619D01*
X162375828Y-101850619D02*
X162413923Y-101926809D01*
X162413923Y-101926809D02*
X162490113Y-102003000D01*
X162490113Y-102003000D02*
X162604399Y-102041095D01*
X162604399Y-102041095D02*
X162794875Y-102041095D01*
X161880590Y-101583952D02*
X161956780Y-101545857D01*
X161956780Y-101545857D02*
X161994875Y-101507761D01*
X161994875Y-101507761D02*
X162032971Y-101431571D01*
X162032971Y-101431571D02*
X162032971Y-101393476D01*
X162032971Y-101393476D02*
X161994875Y-101317285D01*
X161994875Y-101317285D02*
X161956780Y-101279190D01*
X161956780Y-101279190D02*
X161880590Y-101241095D01*
X161880590Y-101241095D02*
X161728209Y-101241095D01*
X161728209Y-101241095D02*
X161652018Y-101279190D01*
X161652018Y-101279190D02*
X161613923Y-101317285D01*
X161613923Y-101317285D02*
X161575828Y-101393476D01*
X161575828Y-101393476D02*
X161575828Y-101431571D01*
X161575828Y-101431571D02*
X161613923Y-101507761D01*
X161613923Y-101507761D02*
X161652018Y-101545857D01*
X161652018Y-101545857D02*
X161728209Y-101583952D01*
X161728209Y-101583952D02*
X161880590Y-101583952D01*
X161880590Y-101583952D02*
X161956780Y-101622047D01*
X161956780Y-101622047D02*
X161994875Y-101660142D01*
X161994875Y-101660142D02*
X162032971Y-101736333D01*
X162032971Y-101736333D02*
X162032971Y-101888714D01*
X162032971Y-101888714D02*
X161994875Y-101964904D01*
X161994875Y-101964904D02*
X161956780Y-102003000D01*
X161956780Y-102003000D02*
X161880590Y-102041095D01*
X161880590Y-102041095D02*
X161728209Y-102041095D01*
X161728209Y-102041095D02*
X161652018Y-102003000D01*
X161652018Y-102003000D02*
X161613923Y-101964904D01*
X161613923Y-101964904D02*
X161575828Y-101888714D01*
X161575828Y-101888714D02*
X161575828Y-101736333D01*
X161575828Y-101736333D02*
X161613923Y-101660142D01*
X161613923Y-101660142D02*
X161652018Y-101622047D01*
X161652018Y-101622047D02*
X161728209Y-101583952D01*
X138010274Y-113584764D02*
X137929462Y-113126828D01*
X138333523Y-113261515D02*
X137767838Y-112695830D01*
X137767838Y-112695830D02*
X137552339Y-112911329D01*
X137552339Y-112911329D02*
X137525401Y-112992141D01*
X137525401Y-112992141D02*
X137525401Y-113046016D01*
X137525401Y-113046016D02*
X137552339Y-113126828D01*
X137552339Y-113126828D02*
X137633151Y-113207641D01*
X137633151Y-113207641D02*
X137713963Y-113234578D01*
X137713963Y-113234578D02*
X137767838Y-113234578D01*
X137767838Y-113234578D02*
X137848650Y-113207641D01*
X137848650Y-113207641D02*
X138064149Y-112992141D01*
X137282965Y-113288453D02*
X137229090Y-113288453D01*
X137229090Y-113288453D02*
X137148278Y-113315390D01*
X137148278Y-113315390D02*
X137013591Y-113450077D01*
X137013591Y-113450077D02*
X136986653Y-113530890D01*
X136986653Y-113530890D02*
X136986653Y-113584764D01*
X136986653Y-113584764D02*
X137013591Y-113665577D01*
X137013591Y-113665577D02*
X137067465Y-113719451D01*
X137067465Y-113719451D02*
X137175215Y-113773326D01*
X137175215Y-113773326D02*
X137821713Y-113773326D01*
X137821713Y-113773326D02*
X137471526Y-114123512D01*
X136932778Y-114662261D02*
X137256027Y-114339012D01*
X137094403Y-114500636D02*
X136528717Y-113934951D01*
X136528717Y-113934951D02*
X136663404Y-113961888D01*
X136663404Y-113961888D02*
X136771154Y-113961888D01*
X136771154Y-113961888D02*
X136851966Y-113934951D01*
X140233541Y-123696025D02*
X139852588Y-123429358D01*
X140233541Y-123238882D02*
X139433541Y-123238882D01*
X139433541Y-123238882D02*
X139433541Y-123543644D01*
X139433541Y-123543644D02*
X139471636Y-123619834D01*
X139471636Y-123619834D02*
X139509731Y-123657929D01*
X139509731Y-123657929D02*
X139585922Y-123696025D01*
X139585922Y-123696025D02*
X139700207Y-123696025D01*
X139700207Y-123696025D02*
X139776398Y-123657929D01*
X139776398Y-123657929D02*
X139814493Y-123619834D01*
X139814493Y-123619834D02*
X139852588Y-123543644D01*
X139852588Y-123543644D02*
X139852588Y-123238882D01*
X139433541Y-124381739D02*
X139433541Y-124229358D01*
X139433541Y-124229358D02*
X139471636Y-124153167D01*
X139471636Y-124153167D02*
X139509731Y-124115072D01*
X139509731Y-124115072D02*
X139624017Y-124038882D01*
X139624017Y-124038882D02*
X139776398Y-124000786D01*
X139776398Y-124000786D02*
X140081160Y-124000786D01*
X140081160Y-124000786D02*
X140157350Y-124038882D01*
X140157350Y-124038882D02*
X140195446Y-124076977D01*
X140195446Y-124076977D02*
X140233541Y-124153167D01*
X140233541Y-124153167D02*
X140233541Y-124305548D01*
X140233541Y-124305548D02*
X140195446Y-124381739D01*
X140195446Y-124381739D02*
X140157350Y-124419834D01*
X140157350Y-124419834D02*
X140081160Y-124457929D01*
X140081160Y-124457929D02*
X139890684Y-124457929D01*
X139890684Y-124457929D02*
X139814493Y-124419834D01*
X139814493Y-124419834D02*
X139776398Y-124381739D01*
X139776398Y-124381739D02*
X139738303Y-124305548D01*
X139738303Y-124305548D02*
X139738303Y-124153167D01*
X139738303Y-124153167D02*
X139776398Y-124076977D01*
X139776398Y-124076977D02*
X139814493Y-124038882D01*
X139814493Y-124038882D02*
X139890684Y-124000786D01*
X147989704Y-111194867D02*
X148027800Y-111156771D01*
X148027800Y-111156771D02*
X148065895Y-111042486D01*
X148065895Y-111042486D02*
X148065895Y-110966295D01*
X148065895Y-110966295D02*
X148027800Y-110852009D01*
X148027800Y-110852009D02*
X147951609Y-110775819D01*
X147951609Y-110775819D02*
X147875419Y-110737724D01*
X147875419Y-110737724D02*
X147723038Y-110699628D01*
X147723038Y-110699628D02*
X147608752Y-110699628D01*
X147608752Y-110699628D02*
X147456371Y-110737724D01*
X147456371Y-110737724D02*
X147380180Y-110775819D01*
X147380180Y-110775819D02*
X147303990Y-110852009D01*
X147303990Y-110852009D02*
X147265895Y-110966295D01*
X147265895Y-110966295D02*
X147265895Y-111042486D01*
X147265895Y-111042486D02*
X147303990Y-111156771D01*
X147303990Y-111156771D02*
X147342085Y-111194867D01*
X148065895Y-111956771D02*
X148065895Y-111499628D01*
X148065895Y-111728200D02*
X147265895Y-111728200D01*
X147265895Y-111728200D02*
X147380180Y-111652009D01*
X147380180Y-111652009D02*
X147456371Y-111575819D01*
X147456371Y-111575819D02*
X147494466Y-111499628D01*
X136966095Y-106318124D02*
X136166095Y-106318124D01*
X136166095Y-106318124D02*
X136166095Y-106508600D01*
X136166095Y-106508600D02*
X136204190Y-106622886D01*
X136204190Y-106622886D02*
X136280380Y-106699076D01*
X136280380Y-106699076D02*
X136356571Y-106737171D01*
X136356571Y-106737171D02*
X136508952Y-106775267D01*
X136508952Y-106775267D02*
X136623238Y-106775267D01*
X136623238Y-106775267D02*
X136775619Y-106737171D01*
X136775619Y-106737171D02*
X136851809Y-106699076D01*
X136851809Y-106699076D02*
X136928000Y-106622886D01*
X136928000Y-106622886D02*
X136966095Y-106508600D01*
X136966095Y-106508600D02*
X136966095Y-106318124D01*
X136432761Y-107460981D02*
X136966095Y-107460981D01*
X136128000Y-107270505D02*
X136699428Y-107080028D01*
X136699428Y-107080028D02*
X136699428Y-107575267D01*
X147977095Y-102997076D02*
X148624714Y-102997076D01*
X148624714Y-102997076D02*
X148700904Y-103035171D01*
X148700904Y-103035171D02*
X148739000Y-103073266D01*
X148739000Y-103073266D02*
X148777095Y-103149457D01*
X148777095Y-103149457D02*
X148777095Y-103301838D01*
X148777095Y-103301838D02*
X148739000Y-103378028D01*
X148739000Y-103378028D02*
X148700904Y-103416123D01*
X148700904Y-103416123D02*
X148624714Y-103454219D01*
X148624714Y-103454219D02*
X147977095Y-103454219D01*
X147977095Y-103758980D02*
X147977095Y-104254218D01*
X147977095Y-104254218D02*
X148281857Y-103987552D01*
X148281857Y-103987552D02*
X148281857Y-104101837D01*
X148281857Y-104101837D02*
X148319952Y-104178028D01*
X148319952Y-104178028D02*
X148358047Y-104216123D01*
X148358047Y-104216123D02*
X148434238Y-104254218D01*
X148434238Y-104254218D02*
X148624714Y-104254218D01*
X148624714Y-104254218D02*
X148700904Y-104216123D01*
X148700904Y-104216123D02*
X148739000Y-104178028D01*
X148739000Y-104178028D02*
X148777095Y-104101837D01*
X148777095Y-104101837D02*
X148777095Y-103873266D01*
X148777095Y-103873266D02*
X148739000Y-103797075D01*
X148739000Y-103797075D02*
X148700904Y-103758980D01*
X140055590Y-99374085D02*
X140131780Y-99335990D01*
X140131780Y-99335990D02*
X140207971Y-99259800D01*
X140207971Y-99259800D02*
X140322257Y-99145514D01*
X140322257Y-99145514D02*
X140398447Y-99107419D01*
X140398447Y-99107419D02*
X140474638Y-99107419D01*
X140436542Y-99297895D02*
X140512733Y-99259800D01*
X140512733Y-99259800D02*
X140588923Y-99183609D01*
X140588923Y-99183609D02*
X140627019Y-99031228D01*
X140627019Y-99031228D02*
X140627019Y-98764561D01*
X140627019Y-98764561D02*
X140588923Y-98612180D01*
X140588923Y-98612180D02*
X140512733Y-98535990D01*
X140512733Y-98535990D02*
X140436542Y-98497895D01*
X140436542Y-98497895D02*
X140284161Y-98497895D01*
X140284161Y-98497895D02*
X140207971Y-98535990D01*
X140207971Y-98535990D02*
X140131780Y-98612180D01*
X140131780Y-98612180D02*
X140093685Y-98764561D01*
X140093685Y-98764561D02*
X140093685Y-99031228D01*
X140093685Y-99031228D02*
X140131780Y-99183609D01*
X140131780Y-99183609D02*
X140207971Y-99259800D01*
X140207971Y-99259800D02*
X140284161Y-99297895D01*
X140284161Y-99297895D02*
X140436542Y-99297895D01*
X139331781Y-99297895D02*
X139788924Y-99297895D01*
X139560352Y-99297895D02*
X139560352Y-98497895D01*
X139560352Y-98497895D02*
X139636543Y-98612180D01*
X139636543Y-98612180D02*
X139712733Y-98688371D01*
X139712733Y-98688371D02*
X139788924Y-98726466D01*
X143262275Y-127187095D02*
X143262275Y-126387095D01*
X143262275Y-126387095D02*
X143071799Y-126387095D01*
X143071799Y-126387095D02*
X142957513Y-126425190D01*
X142957513Y-126425190D02*
X142881323Y-126501380D01*
X142881323Y-126501380D02*
X142843228Y-126577571D01*
X142843228Y-126577571D02*
X142805132Y-126729952D01*
X142805132Y-126729952D02*
X142805132Y-126844238D01*
X142805132Y-126844238D02*
X142843228Y-126996619D01*
X142843228Y-126996619D02*
X142881323Y-127072809D01*
X142881323Y-127072809D02*
X142957513Y-127149000D01*
X142957513Y-127149000D02*
X143071799Y-127187095D01*
X143071799Y-127187095D02*
X143262275Y-127187095D01*
X142424180Y-127187095D02*
X142271799Y-127187095D01*
X142271799Y-127187095D02*
X142195609Y-127149000D01*
X142195609Y-127149000D02*
X142157513Y-127110904D01*
X142157513Y-127110904D02*
X142081323Y-126996619D01*
X142081323Y-126996619D02*
X142043228Y-126844238D01*
X142043228Y-126844238D02*
X142043228Y-126539476D01*
X142043228Y-126539476D02*
X142081323Y-126463285D01*
X142081323Y-126463285D02*
X142119418Y-126425190D01*
X142119418Y-126425190D02*
X142195609Y-126387095D01*
X142195609Y-126387095D02*
X142347990Y-126387095D01*
X142347990Y-126387095D02*
X142424180Y-126425190D01*
X142424180Y-126425190D02*
X142462275Y-126463285D01*
X142462275Y-126463285D02*
X142500371Y-126539476D01*
X142500371Y-126539476D02*
X142500371Y-126729952D01*
X142500371Y-126729952D02*
X142462275Y-126806142D01*
X142462275Y-126806142D02*
X142424180Y-126844238D01*
X142424180Y-126844238D02*
X142347990Y-126882333D01*
X142347990Y-126882333D02*
X142195609Y-126882333D01*
X142195609Y-126882333D02*
X142119418Y-126844238D01*
X142119418Y-126844238D02*
X142081323Y-126806142D01*
X142081323Y-126806142D02*
X142043228Y-126729952D01*
X140442885Y-108797504D02*
X140480981Y-108835600D01*
X140480981Y-108835600D02*
X140595266Y-108873695D01*
X140595266Y-108873695D02*
X140671457Y-108873695D01*
X140671457Y-108873695D02*
X140785743Y-108835600D01*
X140785743Y-108835600D02*
X140861933Y-108759409D01*
X140861933Y-108759409D02*
X140900028Y-108683219D01*
X140900028Y-108683219D02*
X140938124Y-108530838D01*
X140938124Y-108530838D02*
X140938124Y-108416552D01*
X140938124Y-108416552D02*
X140900028Y-108264171D01*
X140900028Y-108264171D02*
X140861933Y-108187980D01*
X140861933Y-108187980D02*
X140785743Y-108111790D01*
X140785743Y-108111790D02*
X140671457Y-108073695D01*
X140671457Y-108073695D02*
X140595266Y-108073695D01*
X140595266Y-108073695D02*
X140480981Y-108111790D01*
X140480981Y-108111790D02*
X140442885Y-108149885D01*
X139680981Y-108873695D02*
X140138124Y-108873695D01*
X139909552Y-108873695D02*
X139909552Y-108073695D01*
X139909552Y-108073695D02*
X139985743Y-108187980D01*
X139985743Y-108187980D02*
X140061933Y-108264171D01*
X140061933Y-108264171D02*
X140138124Y-108302266D01*
X138919076Y-108873695D02*
X139376219Y-108873695D01*
X139147647Y-108873695D02*
X139147647Y-108073695D01*
X139147647Y-108073695D02*
X139223838Y-108187980D01*
X139223838Y-108187980D02*
X139300028Y-108264171D01*
X139300028Y-108264171D02*
X139376219Y-108302266D01*
X146592695Y-111652114D02*
X146211742Y-111385447D01*
X146592695Y-111194971D02*
X145792695Y-111194971D01*
X145792695Y-111194971D02*
X145792695Y-111499733D01*
X145792695Y-111499733D02*
X145830790Y-111575923D01*
X145830790Y-111575923D02*
X145868885Y-111614018D01*
X145868885Y-111614018D02*
X145945076Y-111652114D01*
X145945076Y-111652114D02*
X146059361Y-111652114D01*
X146059361Y-111652114D02*
X146135552Y-111614018D01*
X146135552Y-111614018D02*
X146173647Y-111575923D01*
X146173647Y-111575923D02*
X146211742Y-111499733D01*
X146211742Y-111499733D02*
X146211742Y-111194971D01*
X145868885Y-111956875D02*
X145830790Y-111994971D01*
X145830790Y-111994971D02*
X145792695Y-112071161D01*
X145792695Y-112071161D02*
X145792695Y-112261637D01*
X145792695Y-112261637D02*
X145830790Y-112337828D01*
X145830790Y-112337828D02*
X145868885Y-112375923D01*
X145868885Y-112375923D02*
X145945076Y-112414018D01*
X145945076Y-112414018D02*
X146021266Y-112414018D01*
X146021266Y-112414018D02*
X146135552Y-112375923D01*
X146135552Y-112375923D02*
X146592695Y-111918780D01*
X146592695Y-111918780D02*
X146592695Y-112414018D01*
X145792695Y-112909257D02*
X145792695Y-112985447D01*
X145792695Y-112985447D02*
X145830790Y-113061638D01*
X145830790Y-113061638D02*
X145868885Y-113099733D01*
X145868885Y-113099733D02*
X145945076Y-113137828D01*
X145945076Y-113137828D02*
X146097457Y-113175923D01*
X146097457Y-113175923D02*
X146287933Y-113175923D01*
X146287933Y-113175923D02*
X146440314Y-113137828D01*
X146440314Y-113137828D02*
X146516504Y-113099733D01*
X146516504Y-113099733D02*
X146554600Y-113061638D01*
X146554600Y-113061638D02*
X146592695Y-112985447D01*
X146592695Y-112985447D02*
X146592695Y-112909257D01*
X146592695Y-112909257D02*
X146554600Y-112833066D01*
X146554600Y-112833066D02*
X146516504Y-112794971D01*
X146516504Y-112794971D02*
X146440314Y-112756876D01*
X146440314Y-112756876D02*
X146287933Y-112718780D01*
X146287933Y-112718780D02*
X146097457Y-112718780D01*
X146097457Y-112718780D02*
X145945076Y-112756876D01*
X145945076Y-112756876D02*
X145868885Y-112794971D01*
X145868885Y-112794971D02*
X145830790Y-112833066D01*
X145830790Y-112833066D02*
X145792695Y-112909257D01*
X151695132Y-119490895D02*
X151961799Y-119109942D01*
X152152275Y-119490895D02*
X152152275Y-118690895D01*
X152152275Y-118690895D02*
X151847513Y-118690895D01*
X151847513Y-118690895D02*
X151771323Y-118728990D01*
X151771323Y-118728990D02*
X151733228Y-118767085D01*
X151733228Y-118767085D02*
X151695132Y-118843276D01*
X151695132Y-118843276D02*
X151695132Y-118957561D01*
X151695132Y-118957561D02*
X151733228Y-119033752D01*
X151733228Y-119033752D02*
X151771323Y-119071847D01*
X151771323Y-119071847D02*
X151847513Y-119109942D01*
X151847513Y-119109942D02*
X152152275Y-119109942D01*
X151390371Y-118767085D02*
X151352275Y-118728990D01*
X151352275Y-118728990D02*
X151276085Y-118690895D01*
X151276085Y-118690895D02*
X151085609Y-118690895D01*
X151085609Y-118690895D02*
X151009418Y-118728990D01*
X151009418Y-118728990D02*
X150971323Y-118767085D01*
X150971323Y-118767085D02*
X150933228Y-118843276D01*
X150933228Y-118843276D02*
X150933228Y-118919466D01*
X150933228Y-118919466D02*
X150971323Y-119033752D01*
X150971323Y-119033752D02*
X151428466Y-119490895D01*
X151428466Y-119490895D02*
X150933228Y-119490895D01*
D13*
X152083400Y-110408400D02*
X152083400Y-113668400D01*
X152083400Y-113668400D02*
X153783400Y-113668400D01*
X153783400Y-110408400D02*
X153783400Y-113668400D01*
X136261600Y-100661200D02*
X136261600Y-104671200D01*
X136261600Y-104671200D02*
X138261600Y-104671200D01*
X138261600Y-100661200D02*
X138261600Y-104671200D01*
X143841800Y-124255264D02*
X143841800Y-123801136D01*
X145311800Y-124255264D02*
X145311800Y-123801136D01*
X135253464Y-91721000D02*
X134799336Y-91721000D01*
X135253464Y-93191000D02*
X134799336Y-93191000D01*
X164511000Y-109094000D02*
X164511000Y-112394000D01*
X170021000Y-109094000D02*
X164511000Y-109094000D01*
X170021000Y-112394000D02*
X164511000Y-112394000D01*
X138477800Y-113173000D02*
X141277800Y-113173000D01*
X138477800Y-115173000D02*
X138477800Y-113173000D01*
X141277800Y-113173000D02*
X141277800Y-115173000D01*
X141277800Y-115173000D02*
X138477800Y-115173000D01*
X165679600Y-101807800D02*
X165679600Y-105107800D01*
X165879601Y-105107800D02*
X165879600Y-104507799D01*
X166379600Y-105107800D02*
X165879601Y-105107800D01*
X168279600Y-101807800D02*
X168279600Y-104407800D01*
X143553548Y-109348600D02*
X144076052Y-109348600D01*
X143553548Y-110818600D02*
X144076052Y-110818600D01*
X125639600Y-95892200D02*
X125639600Y-114572200D01*
X131859600Y-95192200D02*
X133459600Y-95192200D01*
X131859600Y-96472200D02*
X131859600Y-95192200D01*
X131859600Y-113992200D02*
X131859600Y-115272200D01*
X131859600Y-115272200D02*
X133459600Y-115272200D01*
X133459600Y-94172200D02*
X129209600Y-94172200D01*
X133459600Y-95192200D02*
X133459600Y-94172200D01*
X133459600Y-115272200D02*
X133459600Y-116292200D01*
X133459600Y-116292200D02*
X129209600Y-116292200D01*
X134749600Y-113992200D02*
X131859600Y-113992200D01*
D10*
X144379800Y-92290000D02*
X148329800Y-92290000D01*
X144379800Y-96940000D02*
X144379800Y-92290000D01*
D14*
X145179800Y-93075000D02*
X145179800Y-93625000D01*
X145179800Y-95615000D02*
X145179800Y-96165000D01*
X145454800Y-95890000D02*
X144929800Y-95890000D01*
D10*
X148329800Y-92290000D02*
X148329800Y-96940000D01*
X148329800Y-96940000D02*
X144379800Y-96940000D01*
D14*
X147604799Y-93365000D02*
G75*
G02*
X147604800Y-93740000I-12499J-187500D01*
G01*
X147604800Y-93365000D02*
G75*
G02*
X147604800Y-92990000I12500J187500D01*
G01*
X147604800Y-95865000D02*
G75*
G02*
X147604799Y-96240000I-12501J-187500D01*
G01*
X147604800Y-95865000D02*
G75*
G02*
X147604800Y-95490000I12500J187500D01*
G01*
D13*
X149679200Y-114697000D02*
X152479200Y-114697000D01*
X149679200Y-116697000D02*
X149679200Y-114697000D01*
X152479200Y-114697000D02*
X152479200Y-116697000D01*
X152479200Y-116697000D02*
X149679200Y-116697000D01*
X166074135Y-106608200D02*
X167528263Y-106608200D01*
X166074135Y-108428200D02*
X167528263Y-108428200D01*
X145549253Y-106656200D02*
X145026747Y-106656200D01*
X145549253Y-108126200D02*
X145026747Y-108126200D01*
X145295253Y-100255400D02*
X144772747Y-100255400D01*
X145295253Y-101725400D02*
X144772747Y-101725400D01*
X156084600Y-104412147D02*
X156084600Y-104934653D01*
X157554600Y-104412147D02*
X157554600Y-104934653D01*
X144880876Y-115961900D02*
X145390324Y-115961900D01*
X144880876Y-117006900D02*
X145390324Y-117006900D01*
X149486253Y-107519800D02*
X148963747Y-107519800D01*
X149486253Y-108989800D02*
X148963747Y-108989800D01*
X157122600Y-118391600D02*
X157122600Y-119641600D01*
X157222599Y-120151600D02*
X157222599Y-120451600D01*
X157222599Y-120451600D02*
X157422600Y-120451600D01*
X157322600Y-120151600D02*
X157322600Y-120451600D01*
X157422600Y-118691600D02*
X157422600Y-124811600D01*
X157422600Y-120151600D02*
X157222599Y-120151600D01*
X157422600Y-122251600D02*
X158032600Y-122251600D01*
X157422600Y-124811600D02*
X162142600Y-124811600D01*
X158032599Y-121251600D02*
X157422600Y-121251600D01*
X158032599Y-124201600D02*
X161532600Y-124201600D01*
X158032600Y-119301600D02*
X158032599Y-121251600D01*
X158032600Y-122251600D02*
X158032599Y-124201600D01*
X158372600Y-118391600D02*
X157122600Y-118391600D01*
X158732600Y-119301600D02*
X158732601Y-118691600D01*
X158732600Y-124201600D02*
X158732600Y-124811600D01*
X160032600Y-119301600D02*
X160032599Y-118691600D01*
X160032600Y-124201600D02*
X160032600Y-124811600D01*
X161032600Y-121651600D02*
X161532600Y-121651601D01*
X161032600Y-121751600D02*
X161532600Y-121751600D01*
X161032600Y-121851600D02*
X161032600Y-121651600D01*
X161532600Y-119301600D02*
X158032600Y-119301600D01*
X161532600Y-121851600D02*
X161032600Y-121851600D01*
X161532600Y-124201600D02*
X161532600Y-119301600D01*
X162142600Y-118691600D02*
X157422600Y-118691600D01*
X162142600Y-124811600D02*
X162142600Y-118691600D01*
X145809600Y-120314400D02*
X145809600Y-123574400D01*
X145809600Y-123574400D02*
X147509600Y-123574400D01*
X147509600Y-120314400D02*
X147509600Y-123574400D01*
X142262400Y-113147600D02*
X145062400Y-113147600D01*
X142262400Y-115147600D02*
X142262400Y-113147600D01*
X145062400Y-113147600D02*
X145062400Y-115147600D01*
X145062400Y-115147600D02*
X142262400Y-115147600D01*
X150241724Y-112659900D02*
X149732276Y-112659900D01*
X150241724Y-113704900D02*
X149732276Y-113704900D01*
X147232000Y-117480400D02*
X147232000Y-114220400D01*
X148932000Y-114220400D02*
X147232000Y-114220400D01*
X148932000Y-117480400D02*
X148932000Y-114220400D01*
X158319800Y-104934653D02*
X158319800Y-104412147D01*
X159789800Y-104934653D02*
X159789800Y-104412147D01*
X138214200Y-92078500D02*
X139014200Y-92078499D01*
X138214200Y-95198500D02*
X139014200Y-95198501D01*
X139814200Y-92078500D02*
X139014200Y-92078499D01*
X139814200Y-95198500D02*
X139014200Y-95198501D01*
X140314200Y-92128500D02*
X140074200Y-91798500D01*
X140554200Y-91798500D01*
X140314200Y-92128500D01*
G36*
X140314200Y-92128500D02*
G01*
X140074200Y-91798500D01*
X140554200Y-91798500D01*
X140314200Y-92128500D01*
G37*
X134836800Y-125100400D02*
X134836800Y-121840400D01*
X136536800Y-121840400D02*
X134836800Y-121840400D01*
X136536800Y-125100400D02*
X136536800Y-121840400D01*
X136586700Y-110540076D02*
X136586700Y-111049524D01*
X137631700Y-110540076D02*
X137631700Y-111049524D01*
X138761736Y-96140600D02*
X139215864Y-96140600D01*
X138761736Y-97610600D02*
X139215864Y-97610600D01*
X161872664Y-108358000D02*
X161418536Y-108358000D01*
X161872664Y-109828000D02*
X161418536Y-109828000D01*
X164963600Y-92711000D02*
X164963600Y-96571000D01*
X164963600Y-96571000D02*
X166963600Y-96571000D01*
X166963600Y-92711000D02*
X166963600Y-96571000D01*
X161052000Y-106526600D02*
X161052000Y-102666600D01*
X163052000Y-102666600D02*
X161052000Y-102666600D01*
X163052000Y-106526600D02*
X163052000Y-102666600D01*
X139646576Y-111491500D02*
X140156024Y-111491500D01*
X139646576Y-112536500D02*
X140156024Y-112536500D01*
X137517200Y-124128264D02*
X137517200Y-123674136D01*
X138987200Y-124128264D02*
X138987200Y-123674136D01*
X150248253Y-110644000D02*
X149725747Y-110644000D01*
X150248253Y-112114000D02*
X149725747Y-112114000D01*
X137238400Y-105629200D02*
X137238400Y-107629200D01*
X141248400Y-105629200D02*
X137238400Y-105629200D01*
X141248400Y-107629200D02*
X137238400Y-107629200D01*
X144914300Y-102767999D02*
X145714300Y-102767998D01*
X144914300Y-105887999D02*
X145714300Y-105888000D01*
X146514300Y-102767999D02*
X145714300Y-102767998D01*
X146514300Y-105887999D02*
X145714300Y-105888000D01*
X144654300Y-106167999D02*
X144174300Y-106167999D01*
X144414300Y-105837999D01*
X144654300Y-106167999D01*
G36*
X144654300Y-106167999D02*
G01*
X144174300Y-106167999D01*
X144414300Y-105837999D01*
X144654300Y-106167999D01*
G37*
X139308400Y-101254800D02*
X139308400Y-101904800D01*
X139308400Y-102554800D02*
X139308400Y-101904800D01*
X142428400Y-101254800D02*
X142428400Y-101904800D01*
X142428400Y-102554800D02*
X142428400Y-101904800D01*
X139358400Y-100742300D02*
X139028400Y-100982300D01*
X139028400Y-100502300D01*
X139358400Y-100742300D01*
G36*
X139358400Y-100742300D02*
G01*
X139028400Y-100982300D01*
X139028400Y-100502300D01*
X139358400Y-100742300D01*
G37*
X141694800Y-122879800D02*
X141694800Y-126139800D01*
X141694800Y-126139800D02*
X143394800Y-126139800D01*
X143394800Y-122879800D02*
X143394800Y-126139800D01*
X140111752Y-109297800D02*
X139589248Y-109297800D01*
X140111752Y-110767800D02*
X139589248Y-110767800D01*
X143585476Y-111466100D02*
X144094924Y-111466100D01*
X143585476Y-112511100D02*
X144094924Y-112511100D01*
X151307076Y-117206500D02*
X151816524Y-117206500D01*
X151307076Y-118251500D02*
X151816524Y-118251500D01*
M02*
