G04 #@! TF.GenerationSoftware,KiCad,Pcbnew,9.0.6*
G04 #@! TF.CreationDate,2025-11-26T20:09:10+03:00*
G04 #@! TF.ProjectId,SMHome_UniversalRound_ESP32_C3_Mini_v3,534d486f-6d65-45f5-956e-697665727361,12*
G04 #@! TF.SameCoordinates,Original*
G04 #@! TF.FileFunction,Copper,L1,Top*
G04 #@! TF.FilePolarity,Positive*
%FSLAX46Y46*%
G04 Gerber Fmt 4.6, Leading zero omitted, Abs format (unit mm)*
G04 Created by KiCad (PCBNEW 9.0.6) date 2025-11-26 20:09:10*
%MOMM*%
%LPD*%
G01*
G04 APERTURE LIST*
G04 Aperture macros list*
%AMRoundRect*
0 Rectangle with rounded corners*
0 $1 Rounding radius*
0 $2 $3 $4 $5 $6 $7 $8 $9 X,Y pos of 4 corners*
0 Add a 4 corners polygon primitive as box body*
4,1,4,$2,$3,$4,$5,$6,$7,$8,$9,$2,$3,0*
0 Add four circle primitives for the rounded corners*
1,1,$1+$1,$2,$3*
1,1,$1+$1,$4,$5*
1,1,$1+$1,$6,$7*
1,1,$1+$1,$8,$9*
0 Add four rect primitives between the rounded corners*
20,1,$1+$1,$2,$3,$4,$5,0*
20,1,$1+$1,$4,$5,$6,$7,0*
20,1,$1+$1,$6,$7,$8,$9,0*
20,1,$1+$1,$8,$9,$2,$3,0*%
G04 Aperture macros list end*
G04 #@! TA.AperFunction,ComponentPad*
%ADD10R,1.700000X1.700000*%
G04 #@! TD*
G04 #@! TA.AperFunction,ComponentPad*
%ADD11O,1.700000X1.700000*%
G04 #@! TD*
G04 #@! TA.AperFunction,ComponentPad*
%ADD12C,2.400000*%
G04 #@! TD*
G04 #@! TA.AperFunction,ComponentPad*
%ADD13O,2.400000X2.400000*%
G04 #@! TD*
G04 #@! TA.AperFunction,SMDPad,CuDef*
%ADD14RoundRect,0.175000X0.175000X0.425000X-0.175000X0.425000X-0.175000X-0.425000X0.175000X-0.425000X0*%
G04 #@! TD*
G04 #@! TA.AperFunction,SMDPad,CuDef*
%ADD15RoundRect,0.190000X-0.190000X-0.410000X0.190000X-0.410000X0.190000X0.410000X-0.190000X0.410000X0*%
G04 #@! TD*
G04 #@! TA.AperFunction,SMDPad,CuDef*
%ADD16RoundRect,0.200000X-0.200000X-0.400000X0.200000X-0.400000X0.200000X0.400000X-0.200000X0.400000X0*%
G04 #@! TD*
G04 #@! TA.AperFunction,SMDPad,CuDef*
%ADD17RoundRect,0.175000X-0.175000X-0.425000X0.175000X-0.425000X0.175000X0.425000X-0.175000X0.425000X0*%
G04 #@! TD*
G04 #@! TA.AperFunction,SMDPad,CuDef*
%ADD18RoundRect,0.190000X0.190000X0.410000X-0.190000X0.410000X-0.190000X-0.410000X0.190000X-0.410000X0*%
G04 #@! TD*
G04 #@! TA.AperFunction,SMDPad,CuDef*
%ADD19RoundRect,0.200000X0.200000X0.400000X-0.200000X0.400000X-0.200000X-0.400000X0.200000X-0.400000X0*%
G04 #@! TD*
G04 #@! TA.AperFunction,HeatsinkPad*
%ADD20O,1.100000X1.700000*%
G04 #@! TD*
G04 #@! TA.AperFunction,ComponentPad*
%ADD21C,2.200000*%
G04 #@! TD*
G04 #@! TA.AperFunction,SMDPad,CuDef*
%ADD22RoundRect,0.237500X-0.287500X-0.237500X0.287500X-0.237500X0.287500X0.237500X-0.287500X0.237500X0*%
G04 #@! TD*
G04 #@! TA.AperFunction,ComponentPad*
%ADD23R,1.600000X1.600000*%
G04 #@! TD*
G04 #@! TA.AperFunction,ComponentPad*
%ADD24C,1.600000*%
G04 #@! TD*
G04 #@! TA.AperFunction,ComponentPad*
%ADD25C,2.600000*%
G04 #@! TD*
G04 #@! TA.AperFunction,SMDPad,CuDef*
%ADD26RoundRect,0.381000X-0.762000X-0.381000X0.762000X-0.381000X0.762000X0.381000X-0.762000X0.381000X0*%
G04 #@! TD*
G04 #@! TA.AperFunction,SMDPad,CuDef*
%ADD27RoundRect,0.381000X-0.869000X-0.381000X0.869000X-0.381000X0.869000X0.381000X-0.869000X0.381000X0*%
G04 #@! TD*
G04 #@! TA.AperFunction,ComponentPad*
%ADD28C,2.500000*%
G04 #@! TD*
G04 #@! TA.AperFunction,ComponentPad*
%ADD29R,1.650000X1.650000*%
G04 #@! TD*
G04 #@! TA.AperFunction,ComponentPad*
%ADD30C,1.800000*%
G04 #@! TD*
G04 #@! TA.AperFunction,SMDPad,CuDef*
%ADD31RoundRect,0.150000X-0.150000X-0.625000X0.150000X-0.625000X0.150000X0.625000X-0.150000X0.625000X0*%
G04 #@! TD*
G04 #@! TA.AperFunction,SMDPad,CuDef*
%ADD32RoundRect,0.250000X-0.350000X-0.650000X0.350000X-0.650000X0.350000X0.650000X-0.350000X0.650000X0*%
G04 #@! TD*
G04 #@! TA.AperFunction,ComponentPad*
%ADD33RoundRect,0.250000X-0.625000X0.350000X-0.625000X-0.350000X0.625000X-0.350000X0.625000X0.350000X0*%
G04 #@! TD*
G04 #@! TA.AperFunction,ComponentPad*
%ADD34O,1.750000X1.200000*%
G04 #@! TD*
G04 #@! TA.AperFunction,ViaPad*
%ADD35C,0.800000*%
G04 #@! TD*
G04 #@! TA.AperFunction,ViaPad*
%ADD36C,1.500000*%
G04 #@! TD*
G04 #@! TA.AperFunction,Conductor*
%ADD37C,0.600000*%
G04 #@! TD*
G04 #@! TA.AperFunction,Conductor*
%ADD38C,1.500000*%
G04 #@! TD*
G04 #@! TA.AperFunction,Conductor*
%ADD39C,0.250000*%
G04 #@! TD*
G04 #@! TA.AperFunction,Conductor*
%ADD40C,1.000000*%
G04 #@! TD*
G04 #@! TA.AperFunction,Conductor*
%ADD41C,0.800000*%
G04 #@! TD*
G04 #@! TA.AperFunction,Conductor*
%ADD42C,0.200000*%
G04 #@! TD*
G04 #@! TA.AperFunction,Conductor*
%ADD43C,0.400000*%
G04 #@! TD*
G04 APERTURE END LIST*
D10*
X150138000Y-120370600D03*
D11*
X152678000Y-120370600D03*
X155217999Y-120370600D03*
D12*
X162610800Y-93827600D03*
D13*
X162610800Y-98907599D03*
D14*
X140504800Y-88754199D03*
D15*
X138484800Y-88754200D03*
D16*
X137254800Y-88754200D03*
D17*
X139504800Y-88754199D03*
D18*
X141524800Y-88754200D03*
D19*
X142754800Y-88754200D03*
D20*
X144324800Y-88674200D03*
X144324800Y-84874200D03*
X135684800Y-88674200D03*
X135684800Y-84874200D03*
D21*
X158496000Y-93192600D03*
X155295600Y-98729800D03*
X164541200Y-88773000D03*
D22*
X143092201Y-91338400D03*
X144842199Y-91338400D03*
D23*
X153111200Y-105689400D03*
D24*
X153111200Y-103189400D03*
D21*
X164490400Y-121335800D03*
D25*
X157022800Y-110566200D03*
X155312699Y-115264663D03*
D23*
X166116000Y-98475800D03*
D24*
X169916000Y-98475800D03*
D21*
X131978400Y-88773000D03*
D26*
X147061700Y-112674400D03*
X147061700Y-110134400D03*
X147061700Y-107594400D03*
X147061700Y-105054401D03*
X147061700Y-102514399D03*
D27*
X129061700Y-94894400D03*
X129061700Y-97434400D03*
X129061700Y-99974400D03*
X129061700Y-102514399D03*
X129061700Y-105054401D03*
X129061700Y-107594400D03*
X129061700Y-110134400D03*
X129061700Y-112674400D03*
D26*
X147061700Y-99974400D03*
X147061700Y-94894400D03*
X147061700Y-97434400D03*
D28*
X158314400Y-87045800D03*
X153314400Y-87045800D03*
X148314400Y-87045800D03*
D10*
X150138000Y-122910600D03*
D11*
X152678000Y-122910600D03*
X155217999Y-122910600D03*
D24*
X151815800Y-98385000D03*
X153015800Y-93385000D03*
D21*
X131978400Y-121335800D03*
D29*
X147598000Y-125450600D03*
D30*
X150138000Y-125450600D03*
X152678000Y-125450600D03*
X155218000Y-125450600D03*
D31*
X139546200Y-122663200D03*
X140546200Y-122663200D03*
X141546200Y-122663200D03*
X142546200Y-122663200D03*
D32*
X138246200Y-126538200D03*
X143846200Y-126538200D03*
D33*
X159232600Y-120751600D03*
D34*
X159232600Y-122751601D03*
D35*
X136067800Y-102108000D03*
X167513000Y-112801400D03*
X166827200Y-105181400D03*
X141732000Y-91948000D03*
X169545000Y-112801400D03*
X134442200Y-123723400D03*
X166827200Y-104165400D03*
X166827200Y-106248200D03*
X170611800Y-112801400D03*
X168529000Y-112801400D03*
X145643600Y-119176800D03*
X150745100Y-109575600D03*
X159867600Y-107492800D03*
X135636000Y-94589600D03*
X141579600Y-97332800D03*
X147548600Y-118999000D03*
X136702800Y-112852200D03*
D36*
X150037800Y-91109800D03*
D35*
X146735800Y-114833400D03*
X126746000Y-100126800D03*
X126746000Y-97282000D03*
X129667000Y-93116400D03*
X135737600Y-105181400D03*
X135788400Y-106476800D03*
X135331200Y-110185200D03*
X135737600Y-107950000D03*
X145770600Y-114020600D03*
X138023600Y-108356400D03*
X147980400Y-123317000D03*
X140538200Y-124841000D03*
X126796800Y-102514400D03*
X126695200Y-105054400D03*
X140487400Y-126009400D03*
X134112000Y-95732600D03*
X145186400Y-121666000D03*
X149479000Y-106172000D03*
X143052800Y-102387400D03*
X132943600Y-94208600D03*
D37*
X155217999Y-120370600D02*
X155497399Y-120650000D01*
X147364000Y-97434400D02*
X153111200Y-103181600D01*
X139546200Y-121888201D02*
X142257601Y-119176800D01*
X152385400Y-103189400D02*
X153111200Y-103189400D01*
X155497399Y-120650000D02*
X159131000Y-120650000D01*
D38*
X169916000Y-98816000D02*
X169916000Y-98475800D01*
D37*
X148005800Y-97434400D02*
X149148800Y-96291400D01*
D38*
X165542600Y-103189400D02*
X169916000Y-98816000D01*
D37*
X149148800Y-93218000D02*
X147447000Y-91516200D01*
X153111200Y-103181600D02*
X153111200Y-103189400D01*
X147447000Y-91516200D02*
X147447000Y-87913200D01*
X155346400Y-122605800D02*
X155244800Y-122707400D01*
X147061700Y-97434400D02*
X148005800Y-97434400D01*
D38*
X153111200Y-103189400D02*
X165542600Y-103189400D01*
D37*
X147447000Y-87913200D02*
X148314400Y-87045800D01*
X139546200Y-122663200D02*
X139546200Y-121888201D01*
X150745100Y-109575600D02*
X150745100Y-104829700D01*
X150745100Y-109575600D02*
X150745100Y-115897701D01*
X139546200Y-122663200D02*
X135502400Y-122663200D01*
X149148800Y-96291400D02*
X149148800Y-93218000D01*
X150745100Y-104829700D02*
X152385400Y-103189400D01*
X142257601Y-119176800D02*
X145643600Y-119176800D01*
X135502400Y-122663200D02*
X134442200Y-123723400D01*
X159131000Y-120650000D02*
X159232600Y-120751600D01*
X150745100Y-115897701D02*
X155217999Y-120370600D01*
X147061700Y-97434400D02*
X147364000Y-97434400D01*
D39*
X141524800Y-89581800D02*
X142087600Y-90144600D01*
D40*
X159867600Y-107492800D02*
X159816800Y-107492800D01*
X158013400Y-105689400D02*
X153111200Y-105689400D01*
D39*
X142087600Y-90144600D02*
X143648399Y-90144600D01*
D40*
X159816800Y-107492800D02*
X158013400Y-105689400D01*
D41*
X141524800Y-89793000D02*
X141524800Y-88754200D01*
X141579600Y-97332800D02*
X139674600Y-95427800D01*
X139293600Y-91414600D02*
X138484800Y-90605800D01*
D37*
X154727962Y-115849400D02*
X155312699Y-115264663D01*
D41*
X139903200Y-91414600D02*
X139293600Y-91414600D01*
X140466000Y-90851800D02*
X139903200Y-91414600D01*
D39*
X143648399Y-90144600D02*
X144842199Y-91338400D01*
X155312699Y-115264663D02*
X156210537Y-115264663D01*
D41*
X139674600Y-91643200D02*
X140466000Y-90851800D01*
D40*
X153111200Y-113063164D02*
X155312699Y-115264663D01*
X138836400Y-94589600D02*
X141579600Y-97332800D01*
X153111200Y-105689400D02*
X153111200Y-113063164D01*
X135636000Y-94589600D02*
X138836400Y-94589600D01*
D41*
X140466000Y-90851800D02*
X141524800Y-89793000D01*
X138484800Y-90605800D02*
X138484800Y-88754200D01*
X139674600Y-95427800D02*
X139674600Y-91643200D01*
D39*
X141524800Y-88754200D02*
X141524800Y-89581800D01*
D42*
X143256000Y-112852200D02*
X136702800Y-112852200D01*
X147548600Y-117144800D02*
X143256000Y-112852200D01*
X147598000Y-125450600D02*
X147483600Y-125336200D01*
X147548600Y-118999000D02*
X147548600Y-117144800D01*
D40*
X150037800Y-91109800D02*
X150647400Y-91719400D01*
X162229800Y-98907599D02*
X162610800Y-98907599D01*
X150647400Y-91719400D02*
X150647400Y-94919800D01*
X151561800Y-95834200D02*
X159156401Y-95834200D01*
X150647400Y-94919800D02*
X151561800Y-95834200D01*
X159156401Y-95834200D02*
X162229800Y-98907599D01*
X154849200Y-98537400D02*
X155041600Y-98729800D01*
X151815800Y-98385000D02*
X151968200Y-98537400D01*
X151968200Y-98537400D02*
X154849200Y-98537400D01*
D38*
X153015800Y-87344400D02*
X153314400Y-87045800D01*
X153015800Y-93385000D02*
X153015800Y-87344400D01*
X158496000Y-93192600D02*
X158496000Y-87227400D01*
X158496000Y-87227400D02*
X158314400Y-87045800D01*
D42*
X146735800Y-114833400D02*
X147497800Y-114833400D01*
X148793200Y-113538000D02*
X148793200Y-111302800D01*
X148793200Y-111302800D02*
X147624800Y-110134400D01*
X147624800Y-110134400D02*
X147061700Y-110134400D01*
X147497800Y-114833400D02*
X148793200Y-113538000D01*
D39*
X126746000Y-100126800D02*
X128909300Y-100126800D01*
X128909300Y-100126800D02*
X129061700Y-99974400D01*
X128909300Y-97282000D02*
X129061700Y-97434400D01*
X126746000Y-97282000D02*
X128909300Y-97282000D01*
X129667000Y-93116400D02*
X129667000Y-94289100D01*
X129667000Y-94289100D02*
X129061700Y-94894400D01*
X145486899Y-104089200D02*
X147061700Y-102514399D01*
X136829800Y-104089200D02*
X145486899Y-104089200D01*
X135737600Y-105181400D02*
X136829800Y-104089200D01*
X135788400Y-106476800D02*
X134670800Y-107594400D01*
X134670800Y-107594400D02*
X129061700Y-107594400D01*
X135331200Y-110185200D02*
X135331200Y-110236000D01*
X132892800Y-112674400D02*
X129061700Y-112674400D01*
X135331200Y-110236000D02*
X132892800Y-112674400D01*
X133553200Y-110134400D02*
X129061700Y-110134400D01*
X135737600Y-107950000D02*
X133553200Y-110134400D01*
X145770600Y-113965500D02*
X147061700Y-112674400D01*
X145770600Y-114020600D02*
X145770600Y-113965500D01*
X138023600Y-106553000D02*
X139522199Y-105054401D01*
X138023600Y-108356400D02*
X138023600Y-106553000D01*
X139522199Y-105054401D02*
X147061700Y-105054401D01*
X148793200Y-124105800D02*
X150138000Y-125450600D01*
X148769200Y-124105800D02*
X148793200Y-124105800D01*
X147980400Y-123317000D02*
X148769200Y-124105800D01*
X126796800Y-102514400D02*
X126796801Y-102514399D01*
X126796801Y-102514399D02*
X129061700Y-102514399D01*
D42*
X140841400Y-124664800D02*
X141546200Y-123960000D01*
X141546200Y-123960000D02*
X141546200Y-122663200D01*
X140714400Y-124664800D02*
X140841400Y-124664800D01*
X140538200Y-124841000D02*
X140714400Y-124664800D01*
D39*
X127203199Y-105054401D02*
X129061700Y-105054401D01*
X141071600Y-126009400D02*
X142546200Y-124534800D01*
X126695200Y-105054400D02*
X127203198Y-105054400D01*
X127203198Y-105054400D02*
X127203199Y-105054401D01*
X142546200Y-124534800D02*
X142546200Y-122663200D01*
X140487400Y-126009400D02*
X141071600Y-126009400D01*
D37*
X143748700Y-103287400D02*
X141895400Y-103287400D01*
D39*
X140546200Y-121937400D02*
X140920400Y-121563200D01*
D43*
X152678000Y-120370600D02*
X152678000Y-120626000D01*
D39*
X145186400Y-121666000D02*
X145237200Y-121615200D01*
D37*
X149606000Y-116332000D02*
X152678000Y-119404000D01*
D39*
X147624800Y-121615200D02*
X148539200Y-120700800D01*
D37*
X149606000Y-106299000D02*
X149606000Y-116332000D01*
D39*
X148539200Y-120700800D02*
X148539200Y-117398800D01*
D37*
X149479000Y-106172000D02*
X149606000Y-106299000D01*
D39*
X140920400Y-121563200D02*
X145083600Y-121563200D01*
D37*
X152678000Y-119404000D02*
X152678000Y-120370600D01*
X152678000Y-122910600D02*
X152678000Y-125450600D01*
D39*
X140546200Y-122663200D02*
X140546200Y-121937400D01*
D37*
X147726400Y-99974400D02*
X147061700Y-99974400D01*
X149479000Y-106172000D02*
X149606000Y-106045000D01*
X149606000Y-106045000D02*
X149606000Y-101854000D01*
X141895400Y-103287400D02*
X138734800Y-100126800D01*
X134112000Y-95732600D02*
X134340600Y-95732600D01*
X147061700Y-99974400D02*
X143748700Y-103287400D01*
X134340600Y-95732600D02*
X138734800Y-100126800D01*
D39*
X148539200Y-117398800D02*
X149606000Y-116332000D01*
X145237200Y-121615200D02*
X147624800Y-121615200D01*
D37*
X152678000Y-122910600D02*
X152678000Y-120370600D01*
D39*
X145083600Y-121563200D02*
X145186400Y-121666000D01*
D37*
X149606000Y-101854000D02*
X147726400Y-99974400D01*
X144957800Y-95605600D02*
X145669000Y-94894400D01*
X143052800Y-101701600D02*
X144957800Y-99796600D01*
X145669000Y-94894400D02*
X147061700Y-94894400D01*
X143052800Y-102387400D02*
X143052800Y-101701600D01*
X144957800Y-99796600D02*
X144957800Y-95605600D01*
D42*
X137893400Y-98142400D02*
X142471800Y-98142400D01*
X133959600Y-94208600D02*
X137893400Y-98142400D01*
X143092201Y-97521999D02*
X143092201Y-91338400D01*
X142471800Y-98142400D02*
X143092201Y-97521999D01*
X132943600Y-94208600D02*
X133959600Y-94208600D01*
G04 #@! TA.AperFunction,Conductor*
G36*
X127367254Y-94465855D02*
G01*
X127405742Y-94524169D01*
X127411200Y-94560551D01*
X127411200Y-95319292D01*
X127425971Y-95450394D01*
X127484138Y-95616629D01*
X127577828Y-95765734D01*
X127577833Y-95765740D01*
X127702359Y-95890266D01*
X127702365Y-95890271D01*
X127851470Y-95983961D01*
X127895787Y-95999467D01*
X128017700Y-96042127D01*
X128017704Y-96042127D01*
X128017706Y-96042128D01*
X128023761Y-96043511D01*
X128084737Y-96077624D01*
X128117590Y-96139287D01*
X128111891Y-96208924D01*
X128069447Y-96264425D01*
X128023761Y-96285289D01*
X128017706Y-96286671D01*
X127851470Y-96344838D01*
X127702365Y-96438528D01*
X127702359Y-96438533D01*
X127577833Y-96563059D01*
X127577831Y-96563062D01*
X127498992Y-96688532D01*
X127446657Y-96734823D01*
X127377604Y-96745470D01*
X127313755Y-96717095D01*
X127306317Y-96710239D01*
X127256292Y-96660213D01*
X127256288Y-96660210D01*
X127125185Y-96572609D01*
X127125172Y-96572602D01*
X126979501Y-96512264D01*
X126979489Y-96512261D01*
X126824845Y-96481500D01*
X126824842Y-96481500D01*
X126667158Y-96481500D01*
X126667155Y-96481500D01*
X126512510Y-96512261D01*
X126512498Y-96512264D01*
X126366827Y-96572602D01*
X126366814Y-96572609D01*
X126235711Y-96660210D01*
X126235707Y-96660213D01*
X126124213Y-96771707D01*
X126124210Y-96771711D01*
X126036609Y-96902814D01*
X126036602Y-96902827D01*
X125976264Y-97048498D01*
X125976261Y-97048510D01*
X125945500Y-97203153D01*
X125945500Y-97360846D01*
X125976261Y-97515489D01*
X125976264Y-97515501D01*
X126036602Y-97661172D01*
X126036609Y-97661185D01*
X126124210Y-97792288D01*
X126124213Y-97792292D01*
X126235707Y-97903786D01*
X126235711Y-97903789D01*
X126366814Y-97991390D01*
X126366827Y-97991397D01*
X126448726Y-98025320D01*
X126512503Y-98051737D01*
X126667153Y-98082499D01*
X126667156Y-98082500D01*
X126667158Y-98082500D01*
X126824844Y-98082500D01*
X126824845Y-98082499D01*
X126979497Y-98051737D01*
X127125179Y-97991394D01*
X127236652Y-97916909D01*
X127303329Y-97896032D01*
X127370709Y-97914516D01*
X127417400Y-97966495D01*
X127423466Y-97983900D01*
X127423674Y-97983828D01*
X127425972Y-97990397D01*
X127425973Y-97990400D01*
X127426321Y-97991394D01*
X127484138Y-98156629D01*
X127577828Y-98305734D01*
X127577833Y-98305740D01*
X127702359Y-98430266D01*
X127702365Y-98430271D01*
X127851470Y-98523961D01*
X127884759Y-98535609D01*
X128017700Y-98582127D01*
X128017704Y-98582127D01*
X128017706Y-98582128D01*
X128023761Y-98583511D01*
X128084737Y-98617624D01*
X128117590Y-98679287D01*
X128111891Y-98748924D01*
X128069447Y-98804425D01*
X128023761Y-98825289D01*
X128017706Y-98826671D01*
X127851470Y-98884838D01*
X127702365Y-98978528D01*
X127702359Y-98978533D01*
X127577833Y-99103059D01*
X127577828Y-99103065D01*
X127484138Y-99252170D01*
X127447436Y-99357061D01*
X127425973Y-99418400D01*
X127425972Y-99418402D01*
X127423674Y-99424972D01*
X127421965Y-99424374D01*
X127392316Y-99477367D01*
X127330652Y-99510218D01*
X127261015Y-99504516D01*
X127236652Y-99491889D01*
X127125185Y-99417409D01*
X127125172Y-99417402D01*
X126979501Y-99357064D01*
X126979489Y-99357061D01*
X126824845Y-99326300D01*
X126824842Y-99326300D01*
X126667158Y-99326300D01*
X126667155Y-99326300D01*
X126512510Y-99357061D01*
X126512498Y-99357064D01*
X126366827Y-99417402D01*
X126366814Y-99417409D01*
X126235711Y-99505010D01*
X126235707Y-99505013D01*
X126124213Y-99616507D01*
X126124210Y-99616511D01*
X126036609Y-99747614D01*
X126036602Y-99747627D01*
X125976264Y-99893298D01*
X125976261Y-99893310D01*
X125945500Y-100047953D01*
X125945500Y-100205646D01*
X125976261Y-100360289D01*
X125976264Y-100360301D01*
X126036602Y-100505972D01*
X126036609Y-100505985D01*
X126124210Y-100637088D01*
X126124213Y-100637092D01*
X126235707Y-100748586D01*
X126235711Y-100748589D01*
X126366814Y-100836190D01*
X126366827Y-100836197D01*
X126512498Y-100896535D01*
X126512503Y-100896537D01*
X126667153Y-100927299D01*
X126667156Y-100927300D01*
X126667158Y-100927300D01*
X126824844Y-100927300D01*
X126824845Y-100927299D01*
X126979497Y-100896537D01*
X127125179Y-100836194D01*
X127256289Y-100748589D01*
X127306320Y-100698557D01*
X127367639Y-100665074D01*
X127437330Y-100670057D01*
X127493265Y-100711928D01*
X127498992Y-100720267D01*
X127577831Y-100845738D01*
X127702359Y-100970266D01*
X127702365Y-100970271D01*
X127851470Y-101063961D01*
X127911894Y-101085104D01*
X128017700Y-101122127D01*
X128017703Y-101122127D01*
X128023755Y-101123509D01*
X128084732Y-101157620D01*
X128117587Y-101219283D01*
X128111889Y-101288920D01*
X128069447Y-101344422D01*
X128023764Y-101365287D01*
X128017706Y-101366670D01*
X127851470Y-101424837D01*
X127702365Y-101518527D01*
X127702359Y-101518532D01*
X127577833Y-101643058D01*
X127577828Y-101643064D01*
X127484137Y-101792171D01*
X127484136Y-101792173D01*
X127474961Y-101818396D01*
X127434239Y-101875172D01*
X127369287Y-101900919D01*
X127300725Y-101887462D01*
X127289029Y-101880543D01*
X127175985Y-101805009D01*
X127175972Y-101805002D01*
X127030301Y-101744664D01*
X127030289Y-101744661D01*
X126875645Y-101713900D01*
X126875642Y-101713900D01*
X126717958Y-101713900D01*
X126717955Y-101713900D01*
X126563310Y-101744661D01*
X126563298Y-101744664D01*
X126417627Y-101805002D01*
X126417614Y-101805009D01*
X126286511Y-101892610D01*
X126286507Y-101892613D01*
X126175013Y-102004107D01*
X126175010Y-102004111D01*
X126087409Y-102135214D01*
X126087402Y-102135227D01*
X126027064Y-102280898D01*
X126027061Y-102280910D01*
X125996300Y-102435553D01*
X125996300Y-102593246D01*
X126027061Y-102747889D01*
X126027064Y-102747901D01*
X126087402Y-102893572D01*
X126087409Y-102893585D01*
X126175010Y-103024688D01*
X126175013Y-103024692D01*
X126286507Y-103136186D01*
X126286511Y-103136189D01*
X126417614Y-103223790D01*
X126417627Y-103223797D01*
X126563298Y-103284135D01*
X126563303Y-103284137D01*
X126717953Y-103314899D01*
X126717956Y-103314900D01*
X126717958Y-103314900D01*
X126875644Y-103314900D01*
X126875645Y-103314899D01*
X127030297Y-103284137D01*
X127175979Y-103223794D01*
X127289029Y-103148255D01*
X127355706Y-103127378D01*
X127423086Y-103145862D01*
X127469777Y-103197841D01*
X127474961Y-103210402D01*
X127484137Y-103236626D01*
X127577828Y-103385733D01*
X127577833Y-103385739D01*
X127702359Y-103510265D01*
X127702365Y-103510270D01*
X127851470Y-103603960D01*
X127895787Y-103619466D01*
X128017700Y-103662126D01*
X128017704Y-103662126D01*
X128017706Y-103662127D01*
X128023765Y-103663511D01*
X128084741Y-103697624D01*
X128117595Y-103759288D01*
X128111894Y-103828925D01*
X128069451Y-103884425D01*
X128023765Y-103905289D01*
X128017706Y-103906672D01*
X127851470Y-103964839D01*
X127702365Y-104058529D01*
X127702359Y-104058534D01*
X127577833Y-104183060D01*
X127577828Y-104183066D01*
X127484137Y-104332173D01*
X127484137Y-104332174D01*
X127451052Y-104426726D01*
X127410331Y-104483502D01*
X127345378Y-104509249D01*
X127276816Y-104495793D01*
X127246329Y-104473451D01*
X127205492Y-104432613D01*
X127205488Y-104432610D01*
X127074385Y-104345009D01*
X127074372Y-104345002D01*
X126928701Y-104284664D01*
X126928689Y-104284661D01*
X126774045Y-104253900D01*
X126774042Y-104253900D01*
X126616358Y-104253900D01*
X126616355Y-104253900D01*
X126461710Y-104284661D01*
X126461698Y-104284664D01*
X126316027Y-104345002D01*
X126316014Y-104345009D01*
X126184911Y-104432610D01*
X126184907Y-104432613D01*
X126073413Y-104544107D01*
X126073410Y-104544111D01*
X125985809Y-104675214D01*
X125985802Y-104675227D01*
X125925464Y-104820898D01*
X125925461Y-104820910D01*
X125894700Y-104975553D01*
X125894700Y-105133246D01*
X125925461Y-105287889D01*
X125925464Y-105287901D01*
X125985802Y-105433572D01*
X125985809Y-105433585D01*
X126073410Y-105564688D01*
X126073413Y-105564692D01*
X126184907Y-105676186D01*
X126184911Y-105676189D01*
X126316014Y-105763790D01*
X126316027Y-105763797D01*
X126422672Y-105807970D01*
X126461703Y-105824137D01*
X126593353Y-105850324D01*
X126616353Y-105854899D01*
X126616356Y-105854900D01*
X126616358Y-105854900D01*
X126774044Y-105854900D01*
X126774045Y-105854899D01*
X126928697Y-105824137D01*
X127074379Y-105763794D01*
X127205489Y-105676189D01*
X127246329Y-105635349D01*
X127307652Y-105601863D01*
X127377343Y-105606847D01*
X127433277Y-105648717D01*
X127451053Y-105682075D01*
X127484138Y-105776630D01*
X127577828Y-105925735D01*
X127577833Y-105925741D01*
X127702359Y-106050267D01*
X127702365Y-106050272D01*
X127851470Y-106143962D01*
X127911894Y-106165105D01*
X128017700Y-106202128D01*
X128017703Y-106202128D01*
X128023755Y-106203510D01*
X128084732Y-106237621D01*
X128117587Y-106299284D01*
X128111889Y-106368921D01*
X128069447Y-106424423D01*
X128023764Y-106445288D01*
X128017706Y-106446671D01*
X127851470Y-106504838D01*
X127702365Y-106598528D01*
X127702359Y-106598533D01*
X127577833Y-106723059D01*
X127577828Y-106723065D01*
X127484138Y-106872170D01*
X127425971Y-107038405D01*
X127411200Y-107169507D01*
X127411200Y-108019292D01*
X127425971Y-108150394D01*
X127484138Y-108316629D01*
X127577828Y-108465734D01*
X127577833Y-108465740D01*
X127702359Y-108590266D01*
X127702365Y-108590271D01*
X127851470Y-108683961D01*
X127895787Y-108699467D01*
X128017700Y-108742127D01*
X128017704Y-108742127D01*
X128017706Y-108742128D01*
X128023761Y-108743511D01*
X128084737Y-108777624D01*
X128117590Y-108839287D01*
X128111891Y-108908924D01*
X128069447Y-108964425D01*
X128023761Y-108985289D01*
X128017706Y-108986671D01*
X127851470Y-109044838D01*
X127702365Y-109138528D01*
X127702359Y-109138533D01*
X127577833Y-109263059D01*
X127577828Y-109263065D01*
X127484138Y-109412170D01*
X127425971Y-109578405D01*
X127411200Y-109709507D01*
X127411200Y-110559292D01*
X127425971Y-110690394D01*
X127484138Y-110856629D01*
X127577828Y-111005734D01*
X127577833Y-111005740D01*
X127702359Y-111130266D01*
X127702365Y-111130271D01*
X127851470Y-111223961D01*
X127895787Y-111239467D01*
X128017700Y-111282127D01*
X128017704Y-111282127D01*
X128017706Y-111282128D01*
X128023761Y-111283511D01*
X128084737Y-111317624D01*
X128117590Y-111379287D01*
X128111891Y-111448924D01*
X128069447Y-111504425D01*
X128023761Y-111525289D01*
X128017706Y-111526671D01*
X127851470Y-111584838D01*
X127702365Y-111678528D01*
X127702359Y-111678533D01*
X127577833Y-111803059D01*
X127577828Y-111803065D01*
X127484138Y-111952170D01*
X127425971Y-112118405D01*
X127411200Y-112249507D01*
X127411200Y-113099292D01*
X127425971Y-113230394D01*
X127484138Y-113396629D01*
X127577828Y-113545734D01*
X127577833Y-113545740D01*
X127702359Y-113670266D01*
X127702365Y-113670271D01*
X127851470Y-113763961D01*
X127909280Y-113784189D01*
X128017700Y-113822127D01*
X128017703Y-113822127D01*
X128017705Y-113822128D01*
X128083256Y-113829513D01*
X128148807Y-113836899D01*
X128148808Y-113836900D01*
X128148812Y-113836900D01*
X129974592Y-113836900D01*
X129974592Y-113836899D01*
X130057058Y-113827607D01*
X130105694Y-113822128D01*
X130105695Y-113822127D01*
X130105700Y-113822127D01*
X130271926Y-113763962D01*
X130271925Y-113763962D01*
X130271929Y-113763961D01*
X130421034Y-113670271D01*
X130421035Y-113670270D01*
X130421040Y-113670267D01*
X130545567Y-113545740D01*
X130545571Y-113545734D01*
X130639261Y-113396629D01*
X130664033Y-113325834D01*
X130679040Y-113282945D01*
X130719762Y-113226170D01*
X130784714Y-113200422D01*
X130796082Y-113199900D01*
X132816005Y-113199900D01*
X132816021Y-113199901D01*
X132823617Y-113199901D01*
X132961981Y-113199901D01*
X132961983Y-113199901D01*
X133032255Y-113181071D01*
X133067392Y-113171656D01*
X133067393Y-113171655D01*
X133095636Y-113164088D01*
X133215465Y-113094905D01*
X133313305Y-112997065D01*
X133313305Y-112997063D01*
X133323509Y-112986860D01*
X133323512Y-112986855D01*
X135288350Y-111022019D01*
X135349673Y-110988534D01*
X135376031Y-110985700D01*
X135410044Y-110985700D01*
X135410045Y-110985699D01*
X135564697Y-110954937D01*
X135700551Y-110898665D01*
X135710372Y-110894597D01*
X135710372Y-110894596D01*
X135710379Y-110894594D01*
X135841489Y-110806989D01*
X135952989Y-110695489D01*
X136040594Y-110564379D01*
X136100937Y-110418697D01*
X136131700Y-110264042D01*
X136131700Y-110106358D01*
X136131700Y-110106355D01*
X136131699Y-110106353D01*
X136100938Y-109951710D01*
X136100937Y-109951703D01*
X136073051Y-109884379D01*
X136040597Y-109806027D01*
X136040590Y-109806014D01*
X135952989Y-109674911D01*
X135952986Y-109674907D01*
X135841492Y-109563413D01*
X135841488Y-109563410D01*
X135710385Y-109475809D01*
X135710372Y-109475802D01*
X135564701Y-109415464D01*
X135564689Y-109415461D01*
X135410045Y-109384700D01*
X135410042Y-109384700D01*
X135345430Y-109384700D01*
X135278391Y-109365015D01*
X135232636Y-109312211D01*
X135222692Y-109243053D01*
X135251717Y-109179497D01*
X135257749Y-109173019D01*
X135364972Y-109065797D01*
X135643950Y-108786819D01*
X135705273Y-108753334D01*
X135731631Y-108750500D01*
X135816444Y-108750500D01*
X135816445Y-108750499D01*
X135971097Y-108719737D01*
X136116779Y-108659394D01*
X136247889Y-108571789D01*
X136359389Y-108460289D01*
X136446994Y-108329179D01*
X136507337Y-108183497D01*
X136538100Y-108028842D01*
X136538100Y-107871158D01*
X136538100Y-107871155D01*
X136538099Y-107871153D01*
X136515087Y-107755466D01*
X136507337Y-107716503D01*
X136499863Y-107698459D01*
X136446997Y-107570827D01*
X136446990Y-107570814D01*
X136359389Y-107439711D01*
X136359386Y-107439707D01*
X136247892Y-107328213D01*
X136245708Y-107326421D01*
X136244870Y-107325191D01*
X136243582Y-107323903D01*
X136243826Y-107323658D01*
X136206371Y-107268677D01*
X136204497Y-107198833D01*
X136240681Y-107139063D01*
X136255471Y-107127465D01*
X136298689Y-107098589D01*
X136410189Y-106987089D01*
X136497794Y-106855979D01*
X136558137Y-106710297D01*
X136588900Y-106555642D01*
X136588900Y-106397958D01*
X136588900Y-106397955D01*
X136588899Y-106397953D01*
X136559637Y-106250846D01*
X136558137Y-106243303D01*
X136558135Y-106243298D01*
X136497797Y-106097627D01*
X136497790Y-106097614D01*
X136410189Y-105966511D01*
X136410186Y-105966507D01*
X136335059Y-105891380D01*
X136301574Y-105830057D01*
X136306558Y-105760365D01*
X136335060Y-105716017D01*
X136359389Y-105691689D01*
X136446994Y-105560579D01*
X136448180Y-105557717D01*
X136460667Y-105527566D01*
X136507337Y-105414897D01*
X136538100Y-105260242D01*
X136538100Y-105175431D01*
X136557785Y-105108392D01*
X136574419Y-105087750D01*
X137011150Y-104651019D01*
X137072473Y-104617534D01*
X137098831Y-104614700D01*
X138919368Y-104614700D01*
X138986407Y-104634385D01*
X139032162Y-104687189D01*
X139042106Y-104756347D01*
X139013081Y-104819903D01*
X139007049Y-104826381D01*
X137603096Y-106230333D01*
X137603092Y-106230338D01*
X137533913Y-106350160D01*
X137533911Y-106350164D01*
X137526900Y-106376330D01*
X137498099Y-106483817D01*
X137498099Y-106632172D01*
X137498100Y-106632185D01*
X137498100Y-107698459D01*
X137478415Y-107765498D01*
X137461781Y-107786140D01*
X137401813Y-107846107D01*
X137401810Y-107846111D01*
X137314209Y-107977214D01*
X137314202Y-107977227D01*
X137253864Y-108122898D01*
X137253861Y-108122910D01*
X137223100Y-108277553D01*
X137223100Y-108435246D01*
X137253861Y-108589889D01*
X137253864Y-108589901D01*
X137314202Y-108735572D01*
X137314209Y-108735585D01*
X137401810Y-108866688D01*
X137401813Y-108866692D01*
X137513307Y-108978186D01*
X137513311Y-108978189D01*
X137644414Y-109065790D01*
X137644427Y-109065797D01*
X137790098Y-109126135D01*
X137790103Y-109126137D01*
X137944753Y-109156899D01*
X137944756Y-109156900D01*
X137944758Y-109156900D01*
X138102444Y-109156900D01*
X138102445Y-109156899D01*
X138257097Y-109126137D01*
X138402779Y-109065794D01*
X138533889Y-108978189D01*
X138645389Y-108866689D01*
X138732994Y-108735579D01*
X138793337Y-108589897D01*
X138824100Y-108435242D01*
X138824100Y-108277558D01*
X138824100Y-108277555D01*
X138824099Y-108277553D01*
X138820915Y-108261547D01*
X138793337Y-108122903D01*
X138779275Y-108088953D01*
X138732997Y-107977227D01*
X138732990Y-107977214D01*
X138645389Y-107846111D01*
X138645386Y-107846107D01*
X138585419Y-107786140D01*
X138551934Y-107724817D01*
X138549100Y-107698459D01*
X138549100Y-106822031D01*
X138568785Y-106754992D01*
X138585419Y-106734350D01*
X139703549Y-105616220D01*
X139764872Y-105582735D01*
X139791230Y-105579901D01*
X145434318Y-105579901D01*
X145501357Y-105599586D01*
X145547112Y-105652390D01*
X145551357Y-105662940D01*
X145555992Y-105676186D01*
X145591138Y-105776630D01*
X145684828Y-105925735D01*
X145684833Y-105925741D01*
X145809359Y-106050267D01*
X145809365Y-106050272D01*
X145958470Y-106143962D01*
X146018894Y-106165105D01*
X146124700Y-106202128D01*
X146124703Y-106202128D01*
X146130755Y-106203510D01*
X146191732Y-106237621D01*
X146224587Y-106299284D01*
X146218889Y-106368921D01*
X146176447Y-106424423D01*
X146130764Y-106445288D01*
X146124706Y-106446671D01*
X145958470Y-106504838D01*
X145809365Y-106598528D01*
X145809359Y-106598533D01*
X145684833Y-106723059D01*
X145684828Y-106723065D01*
X145591138Y-106872170D01*
X145532971Y-107038405D01*
X145518200Y-107169507D01*
X145518200Y-108019292D01*
X145532971Y-108150394D01*
X145591138Y-108316629D01*
X145684828Y-108465734D01*
X145684833Y-108465740D01*
X145809359Y-108590266D01*
X145809365Y-108590271D01*
X145958470Y-108683961D01*
X146002787Y-108699467D01*
X146124700Y-108742127D01*
X146124704Y-108742127D01*
X146124706Y-108742128D01*
X146130761Y-108743511D01*
X146191737Y-108777624D01*
X146224590Y-108839287D01*
X146218891Y-108908924D01*
X146176447Y-108964425D01*
X146130761Y-108985289D01*
X146124706Y-108986671D01*
X145958470Y-109044838D01*
X145809365Y-109138528D01*
X145809359Y-109138533D01*
X145684833Y-109263059D01*
X145684828Y-109263065D01*
X145591138Y-109412170D01*
X145532971Y-109578405D01*
X145518200Y-109709507D01*
X145518200Y-110559292D01*
X145532971Y-110690394D01*
X145591138Y-110856629D01*
X145684828Y-111005734D01*
X145684833Y-111005740D01*
X145809359Y-111130266D01*
X145809365Y-111130271D01*
X145958470Y-111223961D01*
X146002787Y-111239467D01*
X146124700Y-111282127D01*
X146124704Y-111282127D01*
X146124706Y-111282128D01*
X146130761Y-111283511D01*
X146191737Y-111317624D01*
X146224590Y-111379287D01*
X146218891Y-111448924D01*
X146176447Y-111504425D01*
X146130761Y-111525289D01*
X146124706Y-111526671D01*
X145958470Y-111584838D01*
X145809365Y-111678528D01*
X145809359Y-111678533D01*
X145684833Y-111803059D01*
X145684828Y-111803065D01*
X145591138Y-111952170D01*
X145532971Y-112118405D01*
X145518200Y-112249507D01*
X145518200Y-113099297D01*
X145524910Y-113158853D01*
X145512855Y-113227674D01*
X145465505Y-113279053D01*
X145449144Y-113287296D01*
X145391420Y-113311206D01*
X145391414Y-113311209D01*
X145260311Y-113398810D01*
X145260307Y-113398813D01*
X145148813Y-113510307D01*
X145148810Y-113510311D01*
X145061209Y-113641414D01*
X145061206Y-113641421D01*
X145041962Y-113687879D01*
X144998120Y-113742282D01*
X144931825Y-113764346D01*
X144864126Y-113747066D01*
X144839720Y-113728106D01*
X143563316Y-112451702D01*
X143563314Y-112451700D01*
X143506250Y-112418754D01*
X143449187Y-112385808D01*
X143385539Y-112368754D01*
X143321892Y-112351700D01*
X143321891Y-112351700D01*
X137385740Y-112351700D01*
X137318701Y-112332015D01*
X137298063Y-112315385D01*
X137213089Y-112230411D01*
X137213088Y-112230410D01*
X137213087Y-112230409D01*
X137081985Y-112142809D01*
X137081972Y-112142802D01*
X136936301Y-112082464D01*
X136936289Y-112082461D01*
X136781645Y-112051700D01*
X136781642Y-112051700D01*
X136623958Y-112051700D01*
X136623955Y-112051700D01*
X136469310Y-112082461D01*
X136469298Y-112082464D01*
X136323627Y-112142802D01*
X136323614Y-112142809D01*
X136192511Y-112230410D01*
X136192507Y-112230413D01*
X136081013Y-112341907D01*
X136081010Y-112341911D01*
X135993409Y-112473014D01*
X135993402Y-112473027D01*
X135933064Y-112618698D01*
X135933061Y-112618710D01*
X135902300Y-112773353D01*
X135902300Y-112931046D01*
X135933061Y-113085689D01*
X135933064Y-113085701D01*
X135993402Y-113231372D01*
X135993409Y-113231385D01*
X136081010Y-113362488D01*
X136081012Y-113362491D01*
X136192507Y-113473986D01*
X136192511Y-113473989D01*
X136323614Y-113561590D01*
X136323627Y-113561597D01*
X136428630Y-113605090D01*
X136469303Y-113621937D01*
X136623953Y-113652699D01*
X136623956Y-113652700D01*
X136623958Y-113652700D01*
X136781644Y-113652700D01*
X136781645Y-113652699D01*
X136936297Y-113621937D01*
X137048966Y-113575267D01*
X137081972Y-113561597D01*
X137081972Y-113561596D01*
X137081979Y-113561594D01*
X137213089Y-113473989D01*
X137298060Y-113389017D01*
X137359381Y-113355534D01*
X137385740Y-113352700D01*
X142997324Y-113352700D01*
X143064363Y-113372385D01*
X143085005Y-113389019D01*
X147011781Y-117315795D01*
X147045266Y-117377118D01*
X147048100Y-117403476D01*
X147048100Y-118316059D01*
X147028415Y-118383098D01*
X147011781Y-118403740D01*
X146926813Y-118488707D01*
X146926810Y-118488711D01*
X146839209Y-118619814D01*
X146839202Y-118619827D01*
X146778864Y-118765498D01*
X146778861Y-118765510D01*
X146748100Y-118920153D01*
X146748100Y-119077846D01*
X146778861Y-119232489D01*
X146778864Y-119232501D01*
X146839202Y-119378172D01*
X146839209Y-119378185D01*
X146926810Y-119509288D01*
X146926813Y-119509292D01*
X147038307Y-119620786D01*
X147038311Y-119620789D01*
X147169414Y-119708390D01*
X147169427Y-119708397D01*
X147315098Y-119768735D01*
X147315103Y-119768737D01*
X147447995Y-119795171D01*
X147469753Y-119799499D01*
X147469756Y-119799500D01*
X147469758Y-119799500D01*
X147627444Y-119799500D01*
X147627445Y-119799499D01*
X147782097Y-119768737D01*
X147842247Y-119743821D01*
X147911717Y-119736353D01*
X147974196Y-119767628D01*
X148009848Y-119827717D01*
X148013700Y-119858383D01*
X148013700Y-120431769D01*
X147994015Y-120498808D01*
X147977381Y-120519450D01*
X147443450Y-121053381D01*
X147382127Y-121086866D01*
X147355769Y-121089700D01*
X145793541Y-121089700D01*
X145726502Y-121070015D01*
X145705860Y-121053381D01*
X145696692Y-121044213D01*
X145696688Y-121044210D01*
X145565585Y-120956609D01*
X145565572Y-120956602D01*
X145419901Y-120896264D01*
X145419889Y-120896261D01*
X145265245Y-120865500D01*
X145265242Y-120865500D01*
X145107558Y-120865500D01*
X145107555Y-120865500D01*
X144952910Y-120896261D01*
X144952898Y-120896264D01*
X144807223Y-120956604D01*
X144717131Y-121016802D01*
X144650453Y-121037680D01*
X144648240Y-121037700D01*
X140997196Y-121037700D01*
X140997180Y-121037699D01*
X140989584Y-121037699D01*
X140851217Y-121037699D01*
X140733352Y-121069280D01*
X140717561Y-121073512D01*
X140597738Y-121142692D01*
X140597732Y-121142697D01*
X140245659Y-121494770D01*
X140237699Y-121499991D01*
X140234130Y-121504950D01*
X140203475Y-121522441D01*
X140198422Y-121524434D01*
X140128836Y-121530720D01*
X140089804Y-121515814D01*
X139956396Y-121436917D01*
X139956393Y-121436916D01*
X139798694Y-121391100D01*
X139798697Y-121391100D01*
X139796200Y-121390903D01*
X139796200Y-123935495D01*
X139796201Y-123935495D01*
X139798686Y-123935300D01*
X139956396Y-123889482D01*
X140089803Y-123810585D01*
X140122698Y-123802238D01*
X140155411Y-123793342D01*
X140156725Y-123793605D01*
X140157527Y-123793402D01*
X140190238Y-123799064D01*
X140194373Y-123800369D01*
X140264636Y-123828077D01*
X140292967Y-123831479D01*
X140304002Y-123834961D01*
X140323784Y-123848242D01*
X140345684Y-123857633D01*
X140352261Y-123867361D01*
X140362011Y-123873907D01*
X140371472Y-123895774D01*
X140384819Y-123915514D01*
X140385092Y-123927253D01*
X140389756Y-123938031D01*
X140385892Y-123961545D01*
X140386448Y-123985365D01*
X140380332Y-123995388D01*
X140378428Y-124006977D01*
X140362465Y-124024668D01*
X140350055Y-124045008D01*
X140337886Y-124051911D01*
X140331623Y-124058853D01*
X140320148Y-124061973D01*
X140309864Y-124067807D01*
X140310330Y-124068932D01*
X140159027Y-124131602D01*
X140159014Y-124131609D01*
X140027911Y-124219210D01*
X140027907Y-124219213D01*
X139916413Y-124330707D01*
X139916410Y-124330711D01*
X139828809Y-124461814D01*
X139828802Y-124461827D01*
X139768464Y-124607498D01*
X139768461Y-124607510D01*
X139737700Y-124762153D01*
X139737700Y-124919846D01*
X139768461Y-125074489D01*
X139768464Y-125074501D01*
X139828802Y-125220172D01*
X139828809Y-125220185D01*
X139898734Y-125324835D01*
X139919612Y-125391513D01*
X139901127Y-125458893D01*
X139883315Y-125481405D01*
X139865614Y-125499106D01*
X139865610Y-125499111D01*
X139778009Y-125630214D01*
X139778002Y-125630227D01*
X139717664Y-125775898D01*
X139717661Y-125775910D01*
X139686900Y-125930553D01*
X139686900Y-126088246D01*
X139717661Y-126242889D01*
X139717664Y-126242901D01*
X139778002Y-126388572D01*
X139778009Y-126388585D01*
X139865610Y-126519688D01*
X139865613Y-126519692D01*
X139977107Y-126631186D01*
X139977111Y-126631189D01*
X140108214Y-126718790D01*
X140108227Y-126718797D01*
X140159325Y-126739962D01*
X140253903Y-126779137D01*
X140408553Y-126809899D01*
X140408556Y-126809900D01*
X140408558Y-126809900D01*
X140566244Y-126809900D01*
X140566245Y-126809899D01*
X140720897Y-126779137D01*
X140866579Y-126718794D01*
X140997689Y-126631189D01*
X141057659Y-126571218D01*
X141115918Y-126538442D01*
X141130416Y-126534901D01*
X141140783Y-126534901D01*
X141246191Y-126506656D01*
X141274436Y-126499088D01*
X141394265Y-126429905D01*
X141492105Y-126332065D01*
X141492105Y-126332063D01*
X141502309Y-126321860D01*
X141502313Y-126321855D01*
X142001670Y-125822498D01*
X142845700Y-125822498D01*
X142845700Y-127253901D01*
X142848601Y-127290767D01*
X142848602Y-127290773D01*
X142894454Y-127448593D01*
X142894455Y-127448596D01*
X142978117Y-127590062D01*
X142978123Y-127590070D01*
X143094329Y-127706276D01*
X143094333Y-127706279D01*
X143094335Y-127706281D01*
X143235802Y-127789944D01*
X143277424Y-127802036D01*
X143393626Y-127835797D01*
X143393629Y-127835797D01*
X143393631Y-127835798D01*
X143430506Y-127838700D01*
X143430514Y-127838700D01*
X144261886Y-127838700D01*
X144261894Y-127838700D01*
X144298769Y-127835798D01*
X144298771Y-127835797D01*
X144298773Y-127835797D01*
X144340391Y-127823705D01*
X144456598Y-127789944D01*
X144598065Y-127706281D01*
X144714281Y-127590065D01*
X144797944Y-127448598D01*
X144843798Y-127290769D01*
X144846700Y-127253894D01*
X144846700Y-125822506D01*
X144843798Y-125785631D01*
X144841707Y-125778435D01*
X144808139Y-125662892D01*
X144797944Y-125627802D01*
X144714281Y-125486335D01*
X144714279Y-125486333D01*
X144714276Y-125486329D01*
X144598070Y-125370123D01*
X144598062Y-125370117D01*
X144456596Y-125286455D01*
X144456593Y-125286454D01*
X144298773Y-125240602D01*
X144298767Y-125240601D01*
X144261901Y-125237700D01*
X144261894Y-125237700D01*
X143430506Y-125237700D01*
X143430498Y-125237700D01*
X143393632Y-125240601D01*
X143393626Y-125240602D01*
X143235806Y-125286454D01*
X143235803Y-125286455D01*
X143094337Y-125370117D01*
X143094329Y-125370123D01*
X142978123Y-125486329D01*
X142978117Y-125486337D01*
X142894455Y-125627803D01*
X142894454Y-125627806D01*
X142848602Y-125785626D01*
X142848601Y-125785632D01*
X142845700Y-125822498D01*
X142001670Y-125822498D01*
X142858655Y-124965513D01*
X142858660Y-124965509D01*
X142868863Y-124955305D01*
X142868865Y-124955305D01*
X142966705Y-124857465D01*
X143035888Y-124737636D01*
X143064380Y-124631301D01*
X143071700Y-124603984D01*
X143071700Y-124465617D01*
X143071700Y-123745794D01*
X143091385Y-123678755D01*
X143096886Y-123670882D01*
X143180561Y-123560542D01*
X143236077Y-123419764D01*
X143246700Y-123331302D01*
X143246700Y-122212700D01*
X143266385Y-122145661D01*
X143319189Y-122099906D01*
X143370700Y-122088700D01*
X144439806Y-122088700D01*
X144506845Y-122108385D01*
X144542908Y-122143809D01*
X144564610Y-122176288D01*
X144564613Y-122176292D01*
X144676107Y-122287786D01*
X144676111Y-122287789D01*
X144807214Y-122375390D01*
X144807227Y-122375397D01*
X144952263Y-122435472D01*
X144952903Y-122435737D01*
X145107553Y-122466499D01*
X145107556Y-122466500D01*
X145107558Y-122466500D01*
X145265244Y-122466500D01*
X145265245Y-122466499D01*
X145419897Y-122435737D01*
X145565579Y-122375394D01*
X145696689Y-122287789D01*
X145745049Y-122239429D01*
X145807460Y-122177019D01*
X145868783Y-122143534D01*
X145895141Y-122140700D01*
X147548005Y-122140700D01*
X147548021Y-122140701D01*
X147555617Y-122140701D01*
X147693981Y-122140701D01*
X147693983Y-122140701D01*
X147764255Y-122121871D01*
X147799392Y-122112456D01*
X147799393Y-122112455D01*
X147827636Y-122104888D01*
X147947465Y-122035705D01*
X148045305Y-121937865D01*
X148045305Y-121937863D01*
X148055509Y-121927660D01*
X148055513Y-121927655D01*
X148694263Y-121288904D01*
X148755584Y-121255421D01*
X148825276Y-121260405D01*
X148881209Y-121302277D01*
X148899872Y-121338265D01*
X148902353Y-121345901D01*
X148902353Y-121345902D01*
X148902354Y-121345904D01*
X148959950Y-121458942D01*
X148959952Y-121458944D01*
X148959954Y-121458947D01*
X149053926Y-121552919D01*
X149087411Y-121614242D01*
X149082427Y-121683934D01*
X149053926Y-121728281D01*
X148959954Y-121822252D01*
X148959951Y-121822257D01*
X148959950Y-121822258D01*
X148945966Y-121849703D01*
X148902352Y-121935298D01*
X148887500Y-122029075D01*
X148887500Y-122824935D01*
X148867815Y-122891974D01*
X148815011Y-122937729D01*
X148745853Y-122947673D01*
X148682297Y-122918648D01*
X148660398Y-122893826D01*
X148602189Y-122806711D01*
X148602186Y-122806707D01*
X148490692Y-122695213D01*
X148490688Y-122695210D01*
X148359585Y-122607609D01*
X148359572Y-122607602D01*
X148213901Y-122547264D01*
X148213889Y-122547261D01*
X148059245Y-122516500D01*
X148059242Y-122516500D01*
X147901558Y-122516500D01*
X147901555Y-122516500D01*
X147746910Y-122547261D01*
X147746898Y-122547264D01*
X147601227Y-122607602D01*
X147601214Y-122607609D01*
X147470111Y-122695210D01*
X147470107Y-122695213D01*
X147358613Y-122806707D01*
X147358610Y-122806711D01*
X147271009Y-122937814D01*
X147271002Y-122937827D01*
X147210664Y-123083498D01*
X147210661Y-123083510D01*
X147179900Y-123238153D01*
X147179900Y-123395846D01*
X147210661Y-123550489D01*
X147210664Y-123550501D01*
X147271002Y-123696172D01*
X147271009Y-123696185D01*
X147358610Y-123827288D01*
X147358613Y-123827292D01*
X147470107Y-123938786D01*
X147470111Y-123938789D01*
X147558723Y-123997998D01*
X147603528Y-124051610D01*
X147612235Y-124120935D01*
X147582081Y-124183962D01*
X147522638Y-124220682D01*
X147489832Y-124225100D01*
X146741482Y-124225100D01*
X146670989Y-124236265D01*
X146647696Y-124239954D01*
X146534658Y-124297550D01*
X146534657Y-124297551D01*
X146534652Y-124297554D01*
X146444954Y-124387252D01*
X146444951Y-124387257D01*
X146444950Y-124387258D01*
X146425751Y-124424937D01*
X146387352Y-124500298D01*
X146372500Y-124594075D01*
X146372500Y-126307117D01*
X146383292Y-126375257D01*
X146387354Y-126400904D01*
X146444950Y-126513942D01*
X146444952Y-126513944D01*
X146444954Y-126513947D01*
X146534652Y-126603645D01*
X146534654Y-126603646D01*
X146534658Y-126603650D01*
X146637043Y-126655818D01*
X146647698Y-126661247D01*
X146741475Y-126676099D01*
X146741481Y-126676100D01*
X148454518Y-126676099D01*
X148548304Y-126661246D01*
X148661342Y-126603650D01*
X148751050Y-126513942D01*
X148808646Y-126400904D01*
X148808646Y-126400902D01*
X148808647Y-126400901D01*
X148823499Y-126307124D01*
X148823500Y-126307119D01*
X148823499Y-126235519D01*
X148843183Y-126168483D01*
X148895986Y-126122727D01*
X148965144Y-126112783D01*
X149028701Y-126141807D01*
X149047817Y-126162636D01*
X149146028Y-126297812D01*
X149146032Y-126297817D01*
X149290786Y-126442571D01*
X149417870Y-126534901D01*
X149456390Y-126562887D01*
X149562467Y-126616936D01*
X149638776Y-126655818D01*
X149638778Y-126655818D01*
X149638781Y-126655820D01*
X149743137Y-126689727D01*
X149833465Y-126719077D01*
X149934557Y-126735088D01*
X150035648Y-126751100D01*
X150035649Y-126751100D01*
X150240351Y-126751100D01*
X150240352Y-126751100D01*
X150442534Y-126719077D01*
X150637219Y-126655820D01*
X150819610Y-126562887D01*
X150918683Y-126490907D01*
X150985213Y-126442571D01*
X150985215Y-126442568D01*
X150985219Y-126442566D01*
X151129966Y-126297819D01*
X151129968Y-126297815D01*
X151129971Y-126297813D01*
X151250284Y-126132214D01*
X151250283Y-126132214D01*
X151250287Y-126132210D01*
X151297516Y-126039517D01*
X151345489Y-125988723D01*
X151413310Y-125971928D01*
X151479445Y-125994465D01*
X151518483Y-126039517D01*
X151556961Y-126115034D01*
X151565715Y-126132214D01*
X151686028Y-126297813D01*
X151830786Y-126442571D01*
X151957870Y-126534901D01*
X151996390Y-126562887D01*
X152102467Y-126616936D01*
X152178776Y-126655818D01*
X152178778Y-126655818D01*
X152178781Y-126655820D01*
X152283137Y-126689727D01*
X152373465Y-126719077D01*
X152474557Y-126735088D01*
X152575648Y-126751100D01*
X152575649Y-126751100D01*
X152780351Y-126751100D01*
X152780352Y-126751100D01*
X152982534Y-126719077D01*
X153177219Y-126655820D01*
X153359610Y-126562887D01*
X153458683Y-126490907D01*
X153509360Y-126454089D01*
X153509361Y-126454088D01*
X153525215Y-126442569D01*
X153525215Y-126442568D01*
X153525219Y-126442566D01*
X153669966Y-126297819D01*
X153790287Y-126132210D01*
X153790288Y-126132207D01*
X153791111Y-126131075D01*
X153846441Y-126088408D01*
X153916054Y-126082429D01*
X153977849Y-126115034D01*
X154001914Y-126147663D01*
X154020609Y-126184353D01*
X154066932Y-126248113D01*
X154694212Y-125620833D01*
X154705482Y-125662892D01*
X154777890Y-125788308D01*
X154880292Y-125890710D01*
X155005708Y-125963118D01*
X155047765Y-125974387D01*
X154420485Y-126601665D01*
X154420485Y-126601666D01*
X154484243Y-126647988D01*
X154680589Y-126748032D01*
X154890164Y-126816126D01*
X155107819Y-126850600D01*
X155328181Y-126850600D01*
X155545835Y-126816126D01*
X155755410Y-126748032D01*
X155951760Y-126647986D01*
X156015513Y-126601666D01*
X156015514Y-126601666D01*
X155388234Y-125974387D01*
X155430292Y-125963118D01*
X155555708Y-125890710D01*
X155658110Y-125788308D01*
X155730518Y-125662892D01*
X155741787Y-125620834D01*
X156369066Y-126248114D01*
X156369066Y-126248113D01*
X156415386Y-126184360D01*
X156515432Y-125988010D01*
X156583526Y-125778435D01*
X156618000Y-125560781D01*
X156618000Y-125340418D01*
X156583526Y-125122764D01*
X156515432Y-124913189D01*
X156415388Y-124716843D01*
X156369066Y-124653085D01*
X156369065Y-124653085D01*
X155741787Y-125280364D01*
X155730518Y-125238308D01*
X155658110Y-125112892D01*
X155555708Y-125010490D01*
X155430292Y-124938082D01*
X155388232Y-124926812D01*
X156015513Y-124299532D01*
X155947818Y-124250350D01*
X155949135Y-124248536D01*
X155908506Y-124203570D01*
X155897128Y-124134633D01*
X155924826Y-124070488D01*
X155947321Y-124049408D01*
X156097459Y-123940327D01*
X156247722Y-123790064D01*
X156247726Y-123790059D01*
X156372619Y-123618157D01*
X156469094Y-123428817D01*
X156534756Y-123226729D01*
X156534756Y-123226726D01*
X156545230Y-123160600D01*
X155651011Y-123160600D01*
X155683924Y-123103593D01*
X155717999Y-122976426D01*
X155717999Y-122844774D01*
X155683924Y-122717607D01*
X155651011Y-122660600D01*
X156545230Y-122660600D01*
X156534756Y-122594473D01*
X156534756Y-122594470D01*
X156469094Y-122392382D01*
X156372619Y-122203042D01*
X156247726Y-122031140D01*
X156247722Y-122031135D01*
X156097463Y-121880876D01*
X156097458Y-121880872D01*
X155925557Y-121755979D01*
X155915953Y-121751086D01*
X155865156Y-121703112D01*
X155848360Y-121635292D01*
X155870896Y-121569156D01*
X155915953Y-121530114D01*
X155925557Y-121525220D01*
X156097458Y-121400327D01*
X156097463Y-121400323D01*
X156247722Y-121250064D01*
X156247726Y-121250059D01*
X156372619Y-121078157D01*
X156466483Y-120893943D01*
X156466483Y-120893942D01*
X156469094Y-120888817D01*
X156534756Y-120686729D01*
X156534756Y-120686726D01*
X156545230Y-120620600D01*
X155651011Y-120620600D01*
X155683924Y-120563593D01*
X155717999Y-120436426D01*
X155717999Y-120351613D01*
X157857600Y-120351613D01*
X157857600Y-120501600D01*
X158952270Y-120501600D01*
X158932525Y-120521345D01*
X158883156Y-120606855D01*
X158857600Y-120702230D01*
X158857600Y-120800970D01*
X158883156Y-120896345D01*
X158932525Y-120981855D01*
X158952270Y-121001600D01*
X157857601Y-121001600D01*
X157857601Y-121151586D01*
X157868094Y-121254297D01*
X157923241Y-121420719D01*
X157923243Y-121420724D01*
X158015284Y-121569945D01*
X158139254Y-121693915D01*
X158290976Y-121787498D01*
X158337700Y-121839446D01*
X158348923Y-121908409D01*
X158321079Y-121972491D01*
X158313561Y-121980718D01*
X158180460Y-122113819D01*
X158070971Y-122277680D01*
X158070964Y-122277693D01*
X157995550Y-122459761D01*
X157995547Y-122459771D01*
X157957100Y-122653057D01*
X157957100Y-122653060D01*
X157957100Y-122850142D01*
X157957100Y-122850144D01*
X157957099Y-122850144D01*
X157995547Y-123043430D01*
X157995550Y-123043440D01*
X158070964Y-123225508D01*
X158070971Y-123225521D01*
X158180460Y-123389382D01*
X158180463Y-123389386D01*
X158319814Y-123528737D01*
X158319818Y-123528740D01*
X158483679Y-123638229D01*
X158483692Y-123638236D01*
X158665760Y-123713650D01*
X158665765Y-123713652D01*
X158665769Y-123713652D01*
X158665770Y-123713653D01*
X158859056Y-123752101D01*
X158859059Y-123752101D01*
X159606143Y-123752101D01*
X159751047Y-123723277D01*
X159799435Y-123713652D01*
X159981514Y-123638233D01*
X160145382Y-123528740D01*
X160284739Y-123389383D01*
X160394232Y-123225515D01*
X160403382Y-123203426D01*
X160453057Y-123083498D01*
X160469651Y-123043436D01*
X160508100Y-122850142D01*
X160508100Y-122653060D01*
X160508100Y-122653057D01*
X160469652Y-122459771D01*
X160469651Y-122459770D01*
X160469651Y-122459766D01*
X160460989Y-122438854D01*
X160394235Y-122277693D01*
X160394228Y-122277680D01*
X160284739Y-122113819D01*
X160284736Y-122113815D01*
X160151639Y-121980718D01*
X160118154Y-121919395D01*
X160123138Y-121849703D01*
X160165010Y-121793770D01*
X160174224Y-121787498D01*
X160325943Y-121693917D01*
X160449915Y-121569945D01*
X160541956Y-121420724D01*
X160541958Y-121420719D01*
X160597105Y-121254297D01*
X160597106Y-121254289D01*
X160600844Y-121217702D01*
X162989900Y-121217702D01*
X162989900Y-121453897D01*
X163026846Y-121687168D01*
X163099833Y-121911796D01*
X163187448Y-122083748D01*
X163207057Y-122122233D01*
X163345883Y-122313310D01*
X163512890Y-122480317D01*
X163703967Y-122619143D01*
X163760292Y-122647842D01*
X163914403Y-122726366D01*
X163914405Y-122726366D01*
X163914408Y-122726368D01*
X164034812Y-122765489D01*
X164139031Y-122799353D01*
X164372303Y-122836300D01*
X164372308Y-122836300D01*
X164608497Y-122836300D01*
X164841768Y-122799353D01*
X165066392Y-122726368D01*
X165276833Y-122619143D01*
X165467910Y-122480317D01*
X165634917Y-122313310D01*
X165773743Y-122122233D01*
X165880968Y-121911792D01*
X165953953Y-121687168D01*
X165954465Y-121683934D01*
X165990900Y-121453897D01*
X165990900Y-121217702D01*
X165953953Y-120984431D01*
X165916967Y-120870600D01*
X165880968Y-120759808D01*
X165880966Y-120759805D01*
X165880966Y-120759803D01*
X165810038Y-120620600D01*
X165773743Y-120549367D01*
X165634917Y-120358290D01*
X165467910Y-120191283D01*
X165276833Y-120052457D01*
X165252277Y-120039945D01*
X165066396Y-119945233D01*
X164841768Y-119872246D01*
X164608497Y-119835300D01*
X164608492Y-119835300D01*
X164372308Y-119835300D01*
X164372303Y-119835300D01*
X164139031Y-119872246D01*
X163914403Y-119945233D01*
X163703966Y-120052457D01*
X163610176Y-120120600D01*
X163512890Y-120191283D01*
X163512888Y-120191285D01*
X163512887Y-120191285D01*
X163345885Y-120358287D01*
X163345885Y-120358288D01*
X163345883Y-120358290D01*
X163303807Y-120416202D01*
X163207057Y-120549366D01*
X163099833Y-120759803D01*
X163026846Y-120984431D01*
X162989900Y-121217702D01*
X160600844Y-121217702D01*
X160602629Y-121200234D01*
X160602629Y-121200232D01*
X160607599Y-121151583D01*
X160607600Y-121151573D01*
X160607600Y-121001600D01*
X159512930Y-121001600D01*
X159532675Y-120981855D01*
X159582044Y-120896345D01*
X159607600Y-120800970D01*
X159607600Y-120702230D01*
X159582044Y-120606855D01*
X159532675Y-120521345D01*
X159512930Y-120501600D01*
X160607599Y-120501600D01*
X160607599Y-120351628D01*
X160607598Y-120351613D01*
X160597105Y-120248902D01*
X160541958Y-120082480D01*
X160541956Y-120082475D01*
X160449915Y-119933254D01*
X160325945Y-119809284D01*
X160176724Y-119717243D01*
X160176719Y-119717241D01*
X160010297Y-119662094D01*
X160010290Y-119662093D01*
X159907586Y-119651600D01*
X159482600Y-119651600D01*
X159482600Y-120471270D01*
X159462855Y-120451525D01*
X159377345Y-120402156D01*
X159281970Y-120376600D01*
X159183230Y-120376600D01*
X159087855Y-120402156D01*
X159002345Y-120451525D01*
X158982600Y-120471270D01*
X158982600Y-119651600D01*
X158557628Y-119651600D01*
X158557612Y-119651601D01*
X158454902Y-119662094D01*
X158288480Y-119717241D01*
X158288475Y-119717243D01*
X158139254Y-119809284D01*
X158015284Y-119933254D01*
X157923243Y-120082475D01*
X157923241Y-120082480D01*
X157868094Y-120248902D01*
X157868093Y-120248909D01*
X157857600Y-120351613D01*
X155717999Y-120351613D01*
X155717999Y-120304774D01*
X155683924Y-120177607D01*
X155651011Y-120120600D01*
X156545230Y-120120600D01*
X156534756Y-120054473D01*
X156534756Y-120054470D01*
X156469094Y-119852382D01*
X156372619Y-119663042D01*
X156247726Y-119491140D01*
X156247722Y-119491135D01*
X156097463Y-119340876D01*
X156097458Y-119340872D01*
X155925556Y-119215979D01*
X155736214Y-119119503D01*
X155534123Y-119053841D01*
X155467999Y-119043368D01*
X155467999Y-119937588D01*
X155410992Y-119904675D01*
X155283825Y-119870600D01*
X155152173Y-119870600D01*
X155025006Y-119904675D01*
X154967999Y-119937588D01*
X154967999Y-119043368D01*
X154967998Y-119043368D01*
X154901874Y-119053841D01*
X154699783Y-119119503D01*
X154510441Y-119215979D01*
X154338539Y-119340872D01*
X154338534Y-119340876D01*
X154188275Y-119491135D01*
X154188271Y-119491140D01*
X154063375Y-119663046D01*
X154063374Y-119663047D01*
X154002648Y-119782228D01*
X153954674Y-119833024D01*
X153886853Y-119849819D01*
X153820718Y-119827281D01*
X153781679Y-119782228D01*
X153758304Y-119736353D01*
X153747524Y-119715195D01*
X153631828Y-119555954D01*
X153492646Y-119416772D01*
X153417489Y-119362167D01*
X153374825Y-119306838D01*
X153368757Y-119286031D01*
X153368007Y-119282258D01*
X153351580Y-119199672D01*
X153298775Y-119072189D01*
X153222114Y-118957457D01*
X153222112Y-118957454D01*
X150342819Y-116078161D01*
X150309334Y-116016838D01*
X150306500Y-115990480D01*
X150306500Y-106230008D01*
X150305379Y-106224373D01*
X150299773Y-106196190D01*
X150299773Y-106147809D01*
X150306500Y-106113993D01*
X150306500Y-103087082D01*
X151811200Y-103087082D01*
X151811200Y-103291717D01*
X151843209Y-103493817D01*
X151906444Y-103688431D01*
X151999341Y-103870750D01*
X151999347Y-103870759D01*
X152031723Y-103915321D01*
X152031724Y-103915322D01*
X152711200Y-103235846D01*
X152711200Y-103242061D01*
X152738459Y-103343794D01*
X152791120Y-103435006D01*
X152865594Y-103509480D01*
X152956806Y-103562141D01*
X153058539Y-103589400D01*
X153064753Y-103589400D01*
X152385276Y-104268874D01*
X152385572Y-104272627D01*
X152422034Y-104319912D01*
X152428013Y-104389525D01*
X152395407Y-104451320D01*
X152334569Y-104485677D01*
X152306487Y-104488900D01*
X152279683Y-104488900D01*
X152200750Y-104501401D01*
X152185896Y-104503754D01*
X152072858Y-104561350D01*
X152072857Y-104561351D01*
X152072852Y-104561354D01*
X151983154Y-104651052D01*
X151983151Y-104651057D01*
X151983150Y-104651058D01*
X151970842Y-104675214D01*
X151925552Y-104764098D01*
X151910700Y-104857875D01*
X151910700Y-106520917D01*
X151916201Y-106555646D01*
X151925554Y-106614704D01*
X151983150Y-106727742D01*
X151983152Y-106727744D01*
X151983154Y-106727747D01*
X152072852Y-106817445D01*
X152072854Y-106817446D01*
X152072858Y-106817450D01*
X152142996Y-106853187D01*
X152193791Y-106901161D01*
X152210700Y-106963671D01*
X152210700Y-113151860D01*
X152245303Y-113325822D01*
X152245306Y-113325834D01*
X152260490Y-113362490D01*
X152313186Y-113489709D01*
X152313189Y-113489715D01*
X152326948Y-113510306D01*
X152326949Y-113510307D01*
X152326952Y-113510311D01*
X152361218Y-113561594D01*
X152411737Y-113637202D01*
X152411738Y-113637203D01*
X153605668Y-114831131D01*
X153639153Y-114892454D01*
X153640926Y-114934997D01*
X153612200Y-115153195D01*
X153612199Y-115153212D01*
X153612199Y-115376113D01*
X153612200Y-115376129D01*
X153641293Y-115597115D01*
X153641294Y-115597120D01*
X153641295Y-115597126D01*
X153698488Y-115810574D01*
X153698989Y-115812443D01*
X153698992Y-115812453D01*
X153784292Y-116018385D01*
X153784294Y-116018389D01*
X153895751Y-116211437D01*
X153895756Y-116211443D01*
X153895757Y-116211445D01*
X154031450Y-116388285D01*
X154031456Y-116388292D01*
X154189069Y-116545905D01*
X154189075Y-116545910D01*
X154365925Y-116681611D01*
X154558973Y-116793068D01*
X154764918Y-116878373D01*
X154980236Y-116936067D01*
X155201242Y-116965163D01*
X155201249Y-116965163D01*
X155424149Y-116965163D01*
X155424156Y-116965163D01*
X155645162Y-116936067D01*
X155860480Y-116878373D01*
X156066425Y-116793068D01*
X156259473Y-116681611D01*
X156436323Y-116545910D01*
X156593946Y-116388287D01*
X156729647Y-116211437D01*
X156841104Y-116018389D01*
X156926409Y-115812444D01*
X156984103Y-115597126D01*
X157013199Y-115376120D01*
X157013199Y-115153206D01*
X156984103Y-114932200D01*
X156926409Y-114716882D01*
X156841104Y-114510937D01*
X156729647Y-114317889D01*
X156648099Y-114211613D01*
X156593947Y-114141040D01*
X156593941Y-114141033D01*
X156436328Y-113983420D01*
X156436321Y-113983414D01*
X156259481Y-113847721D01*
X156259479Y-113847720D01*
X156259473Y-113847715D01*
X156066425Y-113736258D01*
X156066421Y-113736256D01*
X155860489Y-113650956D01*
X155860482Y-113650954D01*
X155860480Y-113650953D01*
X155645162Y-113593259D01*
X155645156Y-113593258D01*
X155645151Y-113593257D01*
X155424165Y-113564164D01*
X155424162Y-113564163D01*
X155424156Y-113564163D01*
X155201242Y-113564163D01*
X155201236Y-113564163D01*
X155201231Y-113564164D01*
X154983033Y-113592890D01*
X154913998Y-113582124D01*
X154879167Y-113557632D01*
X154048019Y-112726483D01*
X154014534Y-112665160D01*
X154011700Y-112638802D01*
X154011700Y-110454749D01*
X155322300Y-110454749D01*
X155322300Y-110677650D01*
X155322301Y-110677666D01*
X155351394Y-110898652D01*
X155351395Y-110898657D01*
X155351396Y-110898663D01*
X155380087Y-111005740D01*
X155409090Y-111113980D01*
X155409093Y-111113990D01*
X155479311Y-111283510D01*
X155494395Y-111319926D01*
X155605852Y-111512974D01*
X155605857Y-111512980D01*
X155605858Y-111512982D01*
X155741551Y-111689822D01*
X155741557Y-111689829D01*
X155899170Y-111847442D01*
X155899176Y-111847447D01*
X156076026Y-111983148D01*
X156269074Y-112094605D01*
X156475019Y-112179910D01*
X156690337Y-112237604D01*
X156911343Y-112266700D01*
X156911350Y-112266700D01*
X157134250Y-112266700D01*
X157134257Y-112266700D01*
X157355263Y-112237604D01*
X157570581Y-112179910D01*
X157776526Y-112094605D01*
X157969574Y-111983148D01*
X158146424Y-111847447D01*
X158304047Y-111689824D01*
X158439748Y-111512974D01*
X158551205Y-111319926D01*
X158636510Y-111113981D01*
X158694204Y-110898663D01*
X158723300Y-110677657D01*
X158723300Y-110454743D01*
X158694204Y-110233737D01*
X158636510Y-110018419D01*
X158551205Y-109812474D01*
X158439748Y-109619426D01*
X158367948Y-109525854D01*
X158304048Y-109442577D01*
X158304042Y-109442570D01*
X158146429Y-109284957D01*
X158146422Y-109284951D01*
X157969582Y-109149258D01*
X157969580Y-109149257D01*
X157969574Y-109149252D01*
X157776526Y-109037795D01*
X157776522Y-109037793D01*
X157570590Y-108952493D01*
X157570583Y-108952491D01*
X157570581Y-108952490D01*
X157355263Y-108894796D01*
X157355257Y-108894795D01*
X157355252Y-108894794D01*
X157134266Y-108865701D01*
X157134263Y-108865700D01*
X157134257Y-108865700D01*
X156911343Y-108865700D01*
X156911337Y-108865700D01*
X156911333Y-108865701D01*
X156690347Y-108894794D01*
X156690340Y-108894795D01*
X156690337Y-108894796D01*
X156546921Y-108933224D01*
X156475019Y-108952490D01*
X156475009Y-108952493D01*
X156269077Y-109037793D01*
X156269073Y-109037795D01*
X156076026Y-109149252D01*
X156076017Y-109149258D01*
X155899177Y-109284951D01*
X155899170Y-109284957D01*
X155741557Y-109442570D01*
X155741551Y-109442577D01*
X155605858Y-109619417D01*
X155605852Y-109619426D01*
X155494395Y-109812473D01*
X155494393Y-109812477D01*
X155409093Y-110018409D01*
X155409090Y-110018419D01*
X155360589Y-110199430D01*
X155351397Y-110233734D01*
X155351394Y-110233747D01*
X155322301Y-110454733D01*
X155322300Y-110454749D01*
X154011700Y-110454749D01*
X154011700Y-106963671D01*
X154031385Y-106896632D01*
X154079403Y-106853187D01*
X154149542Y-106817450D01*
X154239250Y-106727742D01*
X154274987Y-106657603D01*
X154322961Y-106606809D01*
X154385471Y-106589900D01*
X157589038Y-106589900D01*
X157656077Y-106609585D01*
X157676719Y-106626219D01*
X159117336Y-108066835D01*
X159190086Y-108139585D01*
X159242766Y-108192265D01*
X159316008Y-108241204D01*
X159390253Y-108290813D01*
X159438252Y-108310695D01*
X159554134Y-108358695D01*
X159728103Y-108393299D01*
X159728107Y-108393300D01*
X159728108Y-108393300D01*
X159956293Y-108393300D01*
X159956294Y-108393299D01*
X160014282Y-108381764D01*
X160130258Y-108358696D01*
X160130261Y-108358694D01*
X160130266Y-108358694D01*
X160294147Y-108290813D01*
X160441635Y-108192264D01*
X160567064Y-108066835D01*
X160665613Y-107919347D01*
X160733494Y-107755466D01*
X160741245Y-107716503D01*
X160768099Y-107581495D01*
X160768100Y-107581493D01*
X160768100Y-107404106D01*
X160768099Y-107404104D01*
X160733496Y-107230141D01*
X160733493Y-107230132D01*
X160665616Y-107066259D01*
X160665609Y-107066246D01*
X160567064Y-106918765D01*
X160567061Y-106918761D01*
X160441638Y-106793338D01*
X160441634Y-106793335D01*
X160298692Y-106697824D01*
X160279902Y-106682403D01*
X158587439Y-104989938D01*
X158587438Y-104989937D01*
X158529647Y-104951323D01*
X158524529Y-104947903D01*
X158439947Y-104891387D01*
X158343810Y-104851566D01*
X158276066Y-104823505D01*
X158276058Y-104823503D01*
X158102096Y-104788900D01*
X158102092Y-104788900D01*
X158102091Y-104788900D01*
X154385472Y-104788900D01*
X154318433Y-104769215D01*
X154274988Y-104721196D01*
X154251558Y-104675214D01*
X154239250Y-104651058D01*
X154239247Y-104651055D01*
X154239245Y-104651052D01*
X154149547Y-104561354D01*
X154149544Y-104561352D01*
X154149542Y-104561350D01*
X154072717Y-104522205D01*
X154036501Y-104503752D01*
X153942724Y-104488900D01*
X153915916Y-104488900D01*
X153848877Y-104469215D01*
X153803122Y-104416411D01*
X153793178Y-104347253D01*
X153822203Y-104283697D01*
X153837026Y-104270092D01*
X153837121Y-104268874D01*
X153157647Y-103589400D01*
X153163861Y-103589400D01*
X153265594Y-103562141D01*
X153356806Y-103509480D01*
X153431280Y-103435006D01*
X153483941Y-103343794D01*
X153511200Y-103242061D01*
X153511200Y-103235847D01*
X154190674Y-103915321D01*
X154223059Y-103870749D01*
X154315955Y-103688431D01*
X154379190Y-103493817D01*
X154411200Y-103291717D01*
X154411200Y-103087082D01*
X154379190Y-102884982D01*
X154315955Y-102690368D01*
X154223059Y-102508050D01*
X154190674Y-102463477D01*
X154190674Y-102463476D01*
X153511200Y-103142951D01*
X153511200Y-103136739D01*
X153483941Y-103035006D01*
X153431280Y-102943794D01*
X153356806Y-102869320D01*
X153265594Y-102816659D01*
X153163861Y-102789400D01*
X153157646Y-102789400D01*
X153837122Y-102109924D01*
X153837121Y-102109923D01*
X153792559Y-102077547D01*
X153792550Y-102077541D01*
X153610231Y-101984644D01*
X153415617Y-101921409D01*
X153213517Y-101889400D01*
X153008883Y-101889400D01*
X152806782Y-101921409D01*
X152612168Y-101984644D01*
X152429844Y-102077543D01*
X152385277Y-102109923D01*
X152385277Y-102109924D01*
X153064754Y-102789400D01*
X153058539Y-102789400D01*
X152956806Y-102816659D01*
X152865594Y-102869320D01*
X152791120Y-102943794D01*
X152738459Y-103035006D01*
X152711200Y-103136739D01*
X152711200Y-103142953D01*
X152031724Y-102463477D01*
X152031723Y-102463477D01*
X151999343Y-102508044D01*
X151906444Y-102690368D01*
X151843209Y-102884982D01*
X151811200Y-103087082D01*
X150306500Y-103087082D01*
X150306500Y-101785007D01*
X150306500Y-101785002D01*
X150303168Y-101768258D01*
X150303167Y-101768257D01*
X150303166Y-101768248D01*
X150279580Y-101649672D01*
X150276841Y-101643059D01*
X150226777Y-101522192D01*
X150150112Y-101407454D01*
X148641519Y-99898861D01*
X148608034Y-99837538D01*
X148605200Y-99811180D01*
X148605200Y-99549508D01*
X148605199Y-99549507D01*
X148602113Y-99522119D01*
X148592624Y-99437900D01*
X148590428Y-99418405D01*
X148590427Y-99418403D01*
X148590427Y-99418400D01*
X148551024Y-99305792D01*
X148532261Y-99252170D01*
X148438571Y-99103065D01*
X148438566Y-99103059D01*
X148314040Y-98978533D01*
X148314034Y-98978528D01*
X148164929Y-98884838D01*
X148059340Y-98847892D01*
X148040354Y-98841248D01*
X147983579Y-98800527D01*
X147957831Y-98735575D01*
X147961829Y-98691033D01*
X147962470Y-98688721D01*
X147061700Y-97787952D01*
X146160927Y-98688722D01*
X146161569Y-98691034D01*
X146160537Y-98760896D01*
X146121898Y-98819110D01*
X146083044Y-98841249D01*
X145958472Y-98884838D01*
X145848272Y-98954082D01*
X145781035Y-98973082D01*
X145714200Y-98952714D01*
X145668986Y-98899446D01*
X145658300Y-98849088D01*
X145658300Y-98535609D01*
X145677985Y-98468570D01*
X145694619Y-98447928D01*
X146708148Y-97434400D01*
X145694619Y-96420871D01*
X145661134Y-96359548D01*
X145658300Y-96333190D01*
X145658300Y-96019711D01*
X145677985Y-95952672D01*
X145730789Y-95906917D01*
X145799947Y-95896973D01*
X145848272Y-95914718D01*
X145958470Y-95983961D01*
X146009108Y-96001679D01*
X146083044Y-96027551D01*
X146139819Y-96068272D01*
X146165567Y-96133224D01*
X146161569Y-96177767D01*
X146160927Y-96180075D01*
X147061700Y-97080848D01*
X147061701Y-97080848D01*
X147962470Y-96180076D01*
X147961830Y-96177769D01*
X147962860Y-96107906D01*
X148001497Y-96049692D01*
X148040351Y-96027552D01*
X148164926Y-95983962D01*
X148193352Y-95966101D01*
X148314034Y-95890271D01*
X148314035Y-95890270D01*
X148314040Y-95890267D01*
X148438567Y-95765740D01*
X148438571Y-95765734D01*
X148532261Y-95616629D01*
X148563228Y-95528130D01*
X148577559Y-95487174D01*
X148618280Y-95430400D01*
X148683232Y-95404652D01*
X148751794Y-95418108D01*
X148802197Y-95466495D01*
X148818600Y-95528130D01*
X148818600Y-96547482D01*
X148798915Y-96614521D01*
X148746111Y-96660276D01*
X148676953Y-96670220D01*
X148613397Y-96641195D01*
X148583512Y-96602578D01*
X148570391Y-96576123D01*
X148450336Y-96426768D01*
X148450331Y-96426763D01*
X148435117Y-96414534D01*
X147415252Y-97434399D01*
X147415252Y-97434400D01*
X148435116Y-98454264D01*
X148435117Y-98454264D01*
X148450331Y-98442035D01*
X148570394Y-98292671D01*
X148583512Y-98266223D01*
X148630933Y-98214910D01*
X148698568Y-98197380D01*
X148764943Y-98219200D01*
X148808985Y-98273441D01*
X148818600Y-98321317D01*
X148818600Y-99034600D01*
X151231600Y-101422200D01*
X151231601Y-101422199D01*
X151231602Y-101422200D01*
X151284593Y-101422142D01*
X172864153Y-101398582D01*
X172931211Y-101418193D01*
X172977023Y-101470947D01*
X172986897Y-101504078D01*
X173026413Y-101765915D01*
X173027028Y-101770591D01*
X173132468Y-102710232D01*
X173132904Y-102714929D01*
X173202525Y-103657854D01*
X173202783Y-103662564D01*
X173236495Y-104607472D01*
X173236574Y-104612188D01*
X173234322Y-105557717D01*
X173234221Y-105562433D01*
X173196011Y-106507196D01*
X173195730Y-106511905D01*
X173121618Y-107454492D01*
X173121159Y-107459186D01*
X173011251Y-108398286D01*
X173010614Y-108402960D01*
X172865065Y-109337227D01*
X172864250Y-109341873D01*
X172683281Y-110269885D01*
X172682291Y-110274496D01*
X172466147Y-111195006D01*
X172464981Y-111199577D01*
X172213997Y-112111150D01*
X172212659Y-112115673D01*
X171927181Y-113017062D01*
X171925672Y-113021531D01*
X171606108Y-113911441D01*
X171604429Y-113915849D01*
X171251266Y-114792923D01*
X171249425Y-114797255D01*
X171136112Y-115050422D01*
X170961019Y-115441620D01*
X170915665Y-115494768D01*
X170848776Y-115514958D01*
X170838971Y-115514644D01*
X170661286Y-115501896D01*
X170568123Y-115495212D01*
X170224977Y-115507967D01*
X170224965Y-115507968D01*
X169885235Y-115557898D01*
X169552906Y-115644421D01*
X169552898Y-115644424D01*
X169231947Y-115766504D01*
X168926137Y-115922710D01*
X168926126Y-115922716D01*
X168639099Y-116111185D01*
X168639086Y-116111194D01*
X168639081Y-116111198D01*
X168554964Y-116180594D01*
X168374189Y-116329732D01*
X168134590Y-116575725D01*
X168134583Y-116575733D01*
X167923109Y-116846281D01*
X167923107Y-116846284D01*
X167742252Y-117138189D01*
X167594155Y-117448005D01*
X167594153Y-117448011D01*
X167488045Y-117750731D01*
X167480561Y-117772081D01*
X167402821Y-118106567D01*
X167361855Y-118447496D01*
X167358416Y-118765503D01*
X167358142Y-118790885D01*
X167391728Y-119132637D01*
X167462215Y-119468724D01*
X167462216Y-119468728D01*
X167462217Y-119468731D01*
X167462218Y-119468736D01*
X167568766Y-119795158D01*
X167568775Y-119795181D01*
X167710133Y-120108113D01*
X167710144Y-120108136D01*
X167848881Y-120343273D01*
X167865995Y-120411014D01*
X167843768Y-120477254D01*
X167838291Y-120484518D01*
X167392262Y-121033011D01*
X167389194Y-121036640D01*
X166765261Y-121746517D01*
X166762056Y-121750025D01*
X166111390Y-122435472D01*
X166108054Y-122438854D01*
X165431610Y-123098871D01*
X165428146Y-123102124D01*
X164726906Y-123735747D01*
X164723321Y-123738864D01*
X163998301Y-124345177D01*
X163994609Y-124348146D01*
X163842670Y-124465617D01*
X163246927Y-124926213D01*
X163243113Y-124929046D01*
X162473817Y-125478057D01*
X162469898Y-125480742D01*
X161680150Y-125999871D01*
X161676130Y-126002405D01*
X160867055Y-126490907D01*
X160862942Y-126493284D01*
X160035753Y-126950431D01*
X160031551Y-126952649D01*
X159187471Y-127377762D01*
X159183187Y-127379818D01*
X158323428Y-127772290D01*
X158319069Y-127774180D01*
X157444895Y-128133430D01*
X157440467Y-128135151D01*
X156601519Y-128442914D01*
X156558813Y-128450500D01*
X140264916Y-128450500D01*
X140222650Y-128443075D01*
X139424847Y-128153821D01*
X139420610Y-128152196D01*
X138954422Y-127963600D01*
X138899658Y-127920211D01*
X138877045Y-127854101D01*
X138893763Y-127786261D01*
X138937803Y-127741919D01*
X138998065Y-127706281D01*
X139114281Y-127590065D01*
X139197944Y-127448598D01*
X139243798Y-127290769D01*
X139246700Y-127253894D01*
X139246700Y-125822506D01*
X139243798Y-125785631D01*
X139241707Y-125778435D01*
X139208139Y-125662892D01*
X139197944Y-125627802D01*
X139114281Y-125486335D01*
X139114279Y-125486333D01*
X139114276Y-125486329D01*
X138998070Y-125370123D01*
X138998062Y-125370117D01*
X138856596Y-125286455D01*
X138856593Y-125286454D01*
X138698773Y-125240602D01*
X138698767Y-125240601D01*
X138661901Y-125237700D01*
X138661894Y-125237700D01*
X137830506Y-125237700D01*
X137830498Y-125237700D01*
X137793632Y-125240601D01*
X137793626Y-125240602D01*
X137635806Y-125286454D01*
X137635803Y-125286455D01*
X137494337Y-125370117D01*
X137494329Y-125370123D01*
X137378123Y-125486329D01*
X137378117Y-125486337D01*
X137294455Y-125627803D01*
X137294454Y-125627806D01*
X137248602Y-125785626D01*
X137248601Y-125785632D01*
X137245700Y-125822498D01*
X137245700Y-126992214D01*
X137245170Y-126994017D01*
X137245647Y-126995836D01*
X137235364Y-127027413D01*
X137226015Y-127059253D01*
X137224595Y-127060482D01*
X137224013Y-127062272D01*
X137198277Y-127083287D01*
X137173211Y-127105008D01*
X137171351Y-127105275D01*
X137169895Y-127106465D01*
X137136905Y-127110228D01*
X137104053Y-127114952D01*
X137101748Y-127114238D01*
X137100475Y-127114384D01*
X137066916Y-127103456D01*
X136949837Y-127045797D01*
X136945833Y-127043733D01*
X136153670Y-126616907D01*
X136149766Y-126614710D01*
X136130921Y-126603648D01*
X135668264Y-126332065D01*
X135373812Y-126159220D01*
X135369942Y-126156852D01*
X134611142Y-125673256D01*
X134607360Y-125670747D01*
X134548619Y-125630214D01*
X133866804Y-125159740D01*
X133863118Y-125157096D01*
X133141746Y-124619327D01*
X133138158Y-124616549D01*
X132436931Y-124052735D01*
X132433447Y-124049827D01*
X132248322Y-123889481D01*
X131753310Y-123460726D01*
X131749978Y-123457731D01*
X131638556Y-123353849D01*
X138746200Y-123353849D01*
X138749099Y-123390689D01*
X138749100Y-123390695D01*
X138794916Y-123548393D01*
X138794917Y-123548396D01*
X138878514Y-123689752D01*
X138878521Y-123689761D01*
X138994638Y-123805878D01*
X138994647Y-123805885D01*
X139136001Y-123889481D01*
X139293714Y-123935300D01*
X139293711Y-123935300D01*
X139296198Y-123935495D01*
X139296200Y-123935495D01*
X139296200Y-122913200D01*
X138746200Y-122913200D01*
X138746200Y-123353849D01*
X131638556Y-123353849D01*
X131091841Y-122844128D01*
X131088610Y-122841004D01*
X131082392Y-122834767D01*
X131049008Y-122773391D01*
X131054105Y-122703708D01*
X131096067Y-122647842D01*
X131161571Y-122623531D01*
X131226510Y-122636743D01*
X131273331Y-122660600D01*
X131402403Y-122726366D01*
X131402405Y-122726366D01*
X131402408Y-122726368D01*
X131522812Y-122765489D01*
X131627031Y-122799353D01*
X131860303Y-122836300D01*
X131860308Y-122836300D01*
X132096497Y-122836300D01*
X132329768Y-122799353D01*
X132554392Y-122726368D01*
X132764833Y-122619143D01*
X132955910Y-122480317D01*
X133122917Y-122313310D01*
X133261743Y-122122233D01*
X133338010Y-121972550D01*
X138746200Y-121972550D01*
X138746200Y-122413200D01*
X139296200Y-122413200D01*
X139296200Y-121390903D01*
X139293703Y-121391100D01*
X139136006Y-121436916D01*
X139136003Y-121436917D01*
X138994647Y-121520514D01*
X138994638Y-121520521D01*
X138878521Y-121636638D01*
X138878514Y-121636647D01*
X138794917Y-121778003D01*
X138794916Y-121778006D01*
X138749100Y-121935704D01*
X138749099Y-121935710D01*
X138746200Y-121972550D01*
X133338010Y-121972550D01*
X133368968Y-121911792D01*
X133441953Y-121687168D01*
X133442465Y-121683934D01*
X133478900Y-121453897D01*
X133478900Y-121217702D01*
X133441953Y-120984431D01*
X133404967Y-120870600D01*
X133368968Y-120759808D01*
X133368966Y-120759805D01*
X133368966Y-120759803D01*
X133298038Y-120620600D01*
X133261743Y-120549367D01*
X133122917Y-120358290D01*
X132955910Y-120191283D01*
X132764833Y-120052457D01*
X132740277Y-120039945D01*
X132554396Y-119945233D01*
X132329768Y-119872246D01*
X132096497Y-119835300D01*
X132096492Y-119835300D01*
X131860308Y-119835300D01*
X131860303Y-119835300D01*
X131627031Y-119872246D01*
X131402403Y-119945233D01*
X131191966Y-120052457D01*
X131098176Y-120120600D01*
X131000890Y-120191283D01*
X131000888Y-120191285D01*
X131000887Y-120191285D01*
X130833885Y-120358287D01*
X130833885Y-120358288D01*
X130833883Y-120358290D01*
X130791807Y-120416202D01*
X130695057Y-120549366D01*
X130587833Y-120759803D01*
X130514846Y-120984431D01*
X130477900Y-121217702D01*
X130477900Y-121453897D01*
X130514846Y-121687168D01*
X130587833Y-121911796D01*
X130675448Y-122083748D01*
X130678436Y-122099658D01*
X130686171Y-122113878D01*
X130684751Y-122133287D01*
X130688344Y-122152417D01*
X130682255Y-122167418D01*
X130681075Y-122183562D01*
X130669387Y-122199122D01*
X130662068Y-122217158D01*
X130648836Y-122226485D01*
X130639115Y-122239429D01*
X130620867Y-122246201D01*
X130604961Y-122257415D01*
X130588788Y-122258108D01*
X130573612Y-122263741D01*
X130554600Y-122259573D01*
X130535156Y-122260407D01*
X130520452Y-122252087D01*
X130505362Y-122248780D01*
X130477142Y-122227584D01*
X130453375Y-122203741D01*
X130450231Y-122200470D01*
X129926653Y-121635292D01*
X129838747Y-121540402D01*
X129835727Y-121537020D01*
X129829785Y-121530116D01*
X129593386Y-121255421D01*
X129248800Y-120855014D01*
X129245904Y-120851521D01*
X128910602Y-120431769D01*
X128825263Y-120324936D01*
X128798803Y-120260272D01*
X128811503Y-120191566D01*
X128812525Y-120189591D01*
X128947161Y-119934920D01*
X128947161Y-119934917D01*
X128947166Y-119934910D01*
X129074110Y-119615336D01*
X129114674Y-119468724D01*
X129165800Y-119283935D01*
X129165804Y-119283916D01*
X129221171Y-118944546D01*
X129238568Y-118619821D01*
X129239567Y-118601184D01*
X129239567Y-118601181D01*
X129231157Y-118447507D01*
X129220777Y-118257825D01*
X129165019Y-117918512D01*
X129165018Y-117918508D01*
X129165016Y-117918499D01*
X129072947Y-117587207D01*
X129070134Y-117580150D01*
X129031526Y-117483281D01*
X128945637Y-117267780D01*
X128937859Y-117253109D01*
X128809259Y-117010528D01*
X128784577Y-116963969D01*
X128784575Y-116963967D01*
X128784574Y-116963964D01*
X128591648Y-116679321D01*
X128591646Y-116679319D01*
X128591641Y-116679311D01*
X128591636Y-116679305D01*
X128369115Y-116417179D01*
X128369108Y-116417172D01*
X128119571Y-116180595D01*
X128119572Y-116180595D01*
X127906441Y-116018389D01*
X127845939Y-115972343D01*
X127845933Y-115972339D01*
X127845928Y-115972336D01*
X127551422Y-115794859D01*
X127239461Y-115650218D01*
X127239450Y-115650213D01*
X127026982Y-115578397D01*
X126913699Y-115540107D01*
X126577956Y-115465819D01*
X126577951Y-115465818D01*
X126577950Y-115465818D01*
X126428958Y-115449429D01*
X126236154Y-115428221D01*
X125892290Y-115427753D01*
X125892289Y-115427753D01*
X125892281Y-115427753D01*
X125762922Y-115441626D01*
X125694166Y-115429202D01*
X125643041Y-115381578D01*
X125625700Y-115318333D01*
X125625700Y-94788558D01*
X125645385Y-94721519D01*
X125698189Y-94675764D01*
X125762293Y-94665199D01*
X125891810Y-94678423D01*
X125891824Y-94678422D01*
X125891826Y-94678423D01*
X126102671Y-94677008D01*
X126234460Y-94676124D01*
X126574847Y-94636750D01*
X126908972Y-94560763D01*
X127232910Y-94449057D01*
X127234318Y-94448392D01*
X127234682Y-94448336D01*
X127236015Y-94447794D01*
X127236083Y-94447962D01*
X127236089Y-94447961D01*
X127236122Y-94448058D01*
X127236142Y-94448107D01*
X127303350Y-94437607D01*
X127367254Y-94465855D01*
G37*
G04 #@! TD.AperFunction*
G04 #@! TA.AperFunction,Conductor*
G36*
X153963609Y-123453917D02*
G01*
X154002649Y-123498971D01*
X154063378Y-123618157D01*
X154188271Y-123790059D01*
X154188275Y-123790064D01*
X154338538Y-123940327D01*
X154488677Y-124049408D01*
X154531343Y-124104737D01*
X154537322Y-124174351D01*
X154504717Y-124236146D01*
X154487739Y-124249741D01*
X154488181Y-124250349D01*
X154420485Y-124299531D01*
X154420485Y-124299532D01*
X155047765Y-124926812D01*
X155005708Y-124938082D01*
X154880292Y-125010490D01*
X154777890Y-125112892D01*
X154705482Y-125238308D01*
X154694212Y-125280365D01*
X154066932Y-124653085D01*
X154066931Y-124653085D01*
X154020616Y-124716834D01*
X154020613Y-124716838D01*
X154001913Y-124753538D01*
X153953937Y-124804333D01*
X153886116Y-124821126D01*
X153819981Y-124798586D01*
X153791111Y-124770125D01*
X153790288Y-124768992D01*
X153790287Y-124768990D01*
X153669966Y-124603381D01*
X153525219Y-124458634D01*
X153525217Y-124458632D01*
X153525212Y-124458628D01*
X153429615Y-124389173D01*
X153386949Y-124333843D01*
X153378500Y-124288855D01*
X153378500Y-124010540D01*
X153398185Y-123943501D01*
X153429609Y-123910226D01*
X153492646Y-123864428D01*
X153631828Y-123725246D01*
X153747524Y-123566005D01*
X153781679Y-123498972D01*
X153829653Y-123448175D01*
X153897474Y-123431380D01*
X153963609Y-123453917D01*
G37*
G04 #@! TD.AperFunction*
G04 #@! TA.AperFunction,Conductor*
G36*
X155467999Y-122477588D02*
G01*
X155410992Y-122444675D01*
X155283825Y-122410600D01*
X155152173Y-122410600D01*
X155025006Y-122444675D01*
X154967999Y-122477588D01*
X154967999Y-120803612D01*
X155025006Y-120836525D01*
X155152173Y-120870600D01*
X155283825Y-120870600D01*
X155410992Y-120836525D01*
X155467999Y-120803612D01*
X155467999Y-122477588D01*
G37*
G04 #@! TD.AperFunction*
G04 #@! TA.AperFunction,Conductor*
G36*
X148675799Y-83252785D02*
G01*
X148721554Y-83305589D01*
X148732756Y-83356117D01*
X148747337Y-85195319D01*
X148728185Y-85262512D01*
X148675745Y-85308684D01*
X148607156Y-85319241D01*
X148429111Y-85295801D01*
X148429094Y-85295800D01*
X148199706Y-85295800D01*
X148199689Y-85295801D01*
X147972262Y-85325742D01*
X147750669Y-85385118D01*
X147538740Y-85472902D01*
X147538730Y-85472906D01*
X147340073Y-85587601D01*
X147340059Y-85587610D01*
X147266334Y-85644180D01*
X147266334Y-85644181D01*
X147990374Y-86368221D01*
X147959142Y-86381159D01*
X147836303Y-86463237D01*
X147731837Y-86567703D01*
X147649759Y-86690542D01*
X147636821Y-86721775D01*
X146912780Y-85997734D01*
X146856210Y-86071459D01*
X146856201Y-86071473D01*
X146741506Y-86270130D01*
X146741502Y-86270140D01*
X146653718Y-86482069D01*
X146594342Y-86703662D01*
X146564401Y-86931089D01*
X146564400Y-86931105D01*
X146564400Y-87160494D01*
X146564401Y-87160510D01*
X146594342Y-87387937D01*
X146653718Y-87609530D01*
X146741502Y-87821459D01*
X146741506Y-87821469D01*
X146856199Y-88020124D01*
X146856205Y-88020131D01*
X146912781Y-88093864D01*
X147636821Y-87369824D01*
X147649759Y-87401058D01*
X147731837Y-87523897D01*
X147836303Y-87628363D01*
X147959142Y-87710441D01*
X147990373Y-87723377D01*
X147266334Y-88447417D01*
X147266334Y-88447418D01*
X147340066Y-88503994D01*
X147538730Y-88618693D01*
X147538740Y-88618697D01*
X147750669Y-88706481D01*
X147972262Y-88765857D01*
X148199689Y-88795798D01*
X148199706Y-88795800D01*
X148429094Y-88795800D01*
X148429108Y-88795799D01*
X148636453Y-88768501D01*
X148705489Y-88779266D01*
X148757745Y-88825646D01*
X148776635Y-88890457D01*
X148818596Y-94182695D01*
X148818600Y-94183678D01*
X148818600Y-94260669D01*
X148798915Y-94327708D01*
X148746111Y-94373463D01*
X148676953Y-94383407D01*
X148613397Y-94354382D01*
X148577558Y-94301623D01*
X148576369Y-94298226D01*
X148549651Y-94221868D01*
X148532261Y-94172170D01*
X148438571Y-94023065D01*
X148438566Y-94023059D01*
X148314040Y-93898533D01*
X148314034Y-93898528D01*
X148164929Y-93804838D01*
X147998694Y-93746671D01*
X147867592Y-93731900D01*
X147867588Y-93731900D01*
X146255812Y-93731900D01*
X146255808Y-93731900D01*
X146124705Y-93746671D01*
X145958470Y-93804838D01*
X145809365Y-93898528D01*
X145809359Y-93898533D01*
X145684831Y-94023061D01*
X145602686Y-94153794D01*
X145550351Y-94200084D01*
X145521887Y-94209438D01*
X145464674Y-94220819D01*
X145464667Y-94220821D01*
X145337192Y-94273622D01*
X145222454Y-94350287D01*
X144413687Y-95159054D01*
X144346130Y-95260163D01*
X144337022Y-95273793D01*
X144284221Y-95401267D01*
X144284218Y-95401277D01*
X144257300Y-95536604D01*
X144257300Y-99455080D01*
X144237615Y-99522119D01*
X144220981Y-99542761D01*
X142508688Y-101255053D01*
X142508687Y-101255054D01*
X142432022Y-101369792D01*
X142379221Y-101497267D01*
X142379218Y-101497279D01*
X142355273Y-101617657D01*
X142355273Y-101617663D01*
X142352300Y-101632607D01*
X142352300Y-101632610D01*
X142352300Y-101962084D01*
X142342861Y-102009536D01*
X142283064Y-102153898D01*
X142283061Y-102153910D01*
X142252300Y-102308553D01*
X142252300Y-102354281D01*
X142232615Y-102421320D01*
X142179811Y-102467075D01*
X142110653Y-102477019D01*
X142047097Y-102447994D01*
X142040619Y-102441962D01*
X138453238Y-98854581D01*
X138419753Y-98793258D01*
X138424737Y-98723566D01*
X138466609Y-98667633D01*
X138532073Y-98643216D01*
X138540919Y-98642900D01*
X142537690Y-98642900D01*
X142537692Y-98642900D01*
X142664986Y-98608792D01*
X142779114Y-98542900D01*
X143492701Y-97829313D01*
X143529020Y-97766406D01*
X143558593Y-97715185D01*
X143592701Y-97587891D01*
X143592701Y-92261881D01*
X143612386Y-92194842D01*
X143653581Y-92155149D01*
X143773837Y-92084030D01*
X143773836Y-92084030D01*
X143773844Y-92084026D01*
X143821481Y-92036389D01*
X143879519Y-91978352D01*
X143940842Y-91944867D01*
X144010534Y-91949851D01*
X144054881Y-91978352D01*
X144160550Y-92084021D01*
X144160554Y-92084024D01*
X144160556Y-92084026D01*
X144160559Y-92084027D01*
X144160562Y-92084030D01*
X144229980Y-92125083D01*
X144299305Y-92166081D01*
X144330049Y-92175013D01*
X144454096Y-92211053D01*
X144454099Y-92211053D01*
X144454101Y-92211054D01*
X144490264Y-92213900D01*
X145194133Y-92213899D01*
X145230297Y-92211054D01*
X145385093Y-92166081D01*
X145523842Y-92084026D01*
X145637825Y-91970043D01*
X145719880Y-91831294D01*
X145764853Y-91676498D01*
X145767699Y-91640335D01*
X145767698Y-91036466D01*
X145764853Y-91000302D01*
X145719880Y-90845506D01*
X145637825Y-90706757D01*
X145637823Y-90706755D01*
X145637820Y-90706751D01*
X145523847Y-90592778D01*
X145523835Y-90592769D01*
X145385095Y-90510720D01*
X145385088Y-90510717D01*
X145230301Y-90465746D01*
X145230295Y-90465745D01*
X145194141Y-90462900D01*
X145194134Y-90462900D01*
X144761230Y-90462900D01*
X144694191Y-90443215D01*
X144673549Y-90426581D01*
X144461264Y-90214296D01*
X144427779Y-90152973D01*
X144432763Y-90083281D01*
X144474635Y-90027348D01*
X144524755Y-90004997D01*
X144631074Y-89983849D01*
X144822158Y-89904699D01*
X144822168Y-89904694D01*
X144994135Y-89789789D01*
X144994139Y-89789786D01*
X145140386Y-89643539D01*
X145140389Y-89643535D01*
X145255294Y-89471568D01*
X145255299Y-89471558D01*
X145334449Y-89280474D01*
X145334451Y-89280466D01*
X145374799Y-89077620D01*
X145374800Y-89077617D01*
X145374800Y-88924200D01*
X144624800Y-88924200D01*
X144624800Y-88424200D01*
X145374800Y-88424200D01*
X145374800Y-88270783D01*
X145374799Y-88270779D01*
X145334451Y-88067933D01*
X145334449Y-88067925D01*
X145255299Y-87876841D01*
X145255294Y-87876831D01*
X145140389Y-87704864D01*
X145140386Y-87704860D01*
X144994139Y-87558613D01*
X144994135Y-87558610D01*
X144822168Y-87443705D01*
X144822158Y-87443700D01*
X144631072Y-87364549D01*
X144631067Y-87364547D01*
X144574800Y-87353355D01*
X144574800Y-88207211D01*
X144564860Y-88189995D01*
X144509005Y-88134140D01*
X144440596Y-88094644D01*
X144364296Y-88074200D01*
X144285304Y-88074200D01*
X144209004Y-88094644D01*
X144140595Y-88134140D01*
X144084740Y-88189995D01*
X144074800Y-88207211D01*
X144074800Y-87353356D01*
X144074799Y-87353355D01*
X144018532Y-87364547D01*
X144018527Y-87364549D01*
X143827441Y-87443700D01*
X143827431Y-87443705D01*
X143655464Y-87558610D01*
X143655460Y-87558613D01*
X143509213Y-87704860D01*
X143509209Y-87704865D01*
X143495791Y-87724946D01*
X143442177Y-87769750D01*
X143372852Y-87778455D01*
X143328541Y-87762169D01*
X143244195Y-87711180D01*
X143244196Y-87711180D01*
X143081905Y-87660609D01*
X143081906Y-87660609D01*
X143011372Y-87654200D01*
X143004800Y-87654200D01*
X143004800Y-88504200D01*
X143144800Y-88504200D01*
X143163090Y-88485909D01*
X143164485Y-88481161D01*
X143217289Y-88435406D01*
X143268800Y-88424200D01*
X144024800Y-88424200D01*
X144024800Y-88924200D01*
X143784800Y-88924200D01*
X143766509Y-88942490D01*
X143765115Y-88947239D01*
X143712311Y-88992994D01*
X143660800Y-89004200D01*
X142878800Y-89004200D01*
X142811761Y-88984515D01*
X142766006Y-88931711D01*
X142754800Y-88880200D01*
X142754800Y-88754200D01*
X142628800Y-88754200D01*
X142561761Y-88734515D01*
X142516006Y-88681711D01*
X142504800Y-88630200D01*
X142504800Y-87654200D01*
X142504799Y-87654199D01*
X142498236Y-87654200D01*
X142498217Y-87654201D01*
X142427697Y-87660608D01*
X142427692Y-87660609D01*
X142265402Y-87711181D01*
X142119925Y-87799124D01*
X142115375Y-87802690D01*
X142050463Y-87828538D01*
X141991451Y-87819639D01*
X141868954Y-87768900D01*
X141868949Y-87768898D01*
X141753501Y-87753700D01*
X141296096Y-87753700D01*
X141180657Y-87768896D01*
X141180648Y-87768899D01*
X141053263Y-87821664D01*
X140983793Y-87829133D01*
X140958358Y-87821664D01*
X140830039Y-87768513D01*
X140830037Y-87768512D01*
X140830036Y-87768512D01*
X140815971Y-87766660D01*
X140717527Y-87753699D01*
X140717520Y-87753699D01*
X140292080Y-87753699D01*
X140292072Y-87753699D01*
X140179564Y-87768512D01*
X140179563Y-87768512D01*
X140052253Y-87821246D01*
X139982783Y-87828715D01*
X139957347Y-87821246D01*
X139908766Y-87801123D01*
X139830036Y-87768512D01*
X139815971Y-87766660D01*
X139717527Y-87753699D01*
X139717520Y-87753699D01*
X139292080Y-87753699D01*
X139292072Y-87753699D01*
X139179564Y-87768512D01*
X139179560Y-87768513D01*
X139051242Y-87821664D01*
X138981773Y-87829133D01*
X138956337Y-87821664D01*
X138828951Y-87768899D01*
X138828949Y-87768898D01*
X138713501Y-87753700D01*
X138256096Y-87753700D01*
X138140657Y-87768896D01*
X138140645Y-87768900D01*
X138018149Y-87819639D01*
X137948680Y-87827108D01*
X137894231Y-87802694D01*
X137889680Y-87799129D01*
X137744195Y-87711180D01*
X137744196Y-87711180D01*
X137581905Y-87660609D01*
X137581906Y-87660609D01*
X137511372Y-87654200D01*
X137504800Y-87654200D01*
X137504800Y-89854199D01*
X137511381Y-89854199D01*
X137549080Y-89850774D01*
X137617626Y-89864312D01*
X137667971Y-89912759D01*
X137684300Y-89974265D01*
X137684300Y-90684646D01*
X137715061Y-90839289D01*
X137715064Y-90839301D01*
X137775402Y-90984972D01*
X137775409Y-90984985D01*
X137863010Y-91116088D01*
X137863013Y-91116092D01*
X138298361Y-91551439D01*
X138671811Y-91924889D01*
X138783311Y-92036389D01*
X138826656Y-92065351D01*
X138833475Y-92071545D01*
X138847064Y-92093820D01*
X138863795Y-92113839D01*
X138866136Y-92125083D01*
X138869863Y-92131192D01*
X138869614Y-92141789D01*
X138874100Y-92163331D01*
X138874100Y-93565100D01*
X138854415Y-93632139D01*
X138801611Y-93677894D01*
X138750100Y-93689100D01*
X135547306Y-93689100D01*
X135373341Y-93723703D01*
X135373332Y-93723706D01*
X135209459Y-93791583D01*
X135209446Y-93791590D01*
X135061965Y-93890135D01*
X135061961Y-93890138D01*
X134936538Y-94015561D01*
X134936535Y-94015565D01*
X134835364Y-94166977D01*
X134781751Y-94211782D01*
X134712426Y-94220489D01*
X134649399Y-94190334D01*
X134644581Y-94185767D01*
X134266916Y-93808102D01*
X134266914Y-93808100D01*
X134206107Y-93772993D01*
X134152787Y-93742208D01*
X134068997Y-93719757D01*
X134025492Y-93708100D01*
X134025491Y-93708100D01*
X133626540Y-93708100D01*
X133559501Y-93688415D01*
X133538863Y-93671785D01*
X133453889Y-93586811D01*
X133453888Y-93586810D01*
X133453887Y-93586809D01*
X133322785Y-93499209D01*
X133322772Y-93499202D01*
X133177101Y-93438864D01*
X133177089Y-93438861D01*
X133022445Y-93408100D01*
X133022442Y-93408100D01*
X132864758Y-93408100D01*
X132864755Y-93408100D01*
X132710110Y-93438861D01*
X132710098Y-93438864D01*
X132564427Y-93499202D01*
X132564414Y-93499209D01*
X132433311Y-93586810D01*
X132433307Y-93586813D01*
X132321813Y-93698307D01*
X132321810Y-93698311D01*
X132234209Y-93829414D01*
X132234202Y-93829427D01*
X132173864Y-93975098D01*
X132173861Y-93975110D01*
X132143100Y-94129753D01*
X132143100Y-94287446D01*
X132173861Y-94442089D01*
X132173864Y-94442101D01*
X132234202Y-94587772D01*
X132234209Y-94587785D01*
X132321810Y-94718888D01*
X132321813Y-94718892D01*
X132433307Y-94830386D01*
X132433311Y-94830389D01*
X132564414Y-94917990D01*
X132564427Y-94917997D01*
X132653279Y-94954800D01*
X132710103Y-94978337D01*
X132801530Y-94996523D01*
X132864753Y-95009099D01*
X132864756Y-95009100D01*
X132864758Y-95009100D01*
X133022444Y-95009100D01*
X133022445Y-95009099D01*
X133177097Y-94978337D01*
X133322779Y-94917994D01*
X133453889Y-94830389D01*
X133538860Y-94745417D01*
X133565791Y-94730711D01*
X133591605Y-94714123D01*
X133597804Y-94713231D01*
X133600181Y-94711934D01*
X133626540Y-94709100D01*
X133700924Y-94709100D01*
X133767963Y-94728785D01*
X133788605Y-94745419D01*
X133837467Y-94794281D01*
X133870952Y-94855604D01*
X133865968Y-94925296D01*
X133824096Y-94981229D01*
X133797239Y-94996523D01*
X133732823Y-95023204D01*
X133732814Y-95023209D01*
X133601711Y-95110810D01*
X133601707Y-95110813D01*
X133490213Y-95222307D01*
X133490210Y-95222311D01*
X133402609Y-95353414D01*
X133402602Y-95353427D01*
X133342264Y-95499098D01*
X133342261Y-95499110D01*
X133311500Y-95653753D01*
X133311500Y-95811446D01*
X133342261Y-95966089D01*
X133342264Y-95966101D01*
X133402602Y-96111772D01*
X133402609Y-96111785D01*
X133490210Y-96242888D01*
X133490213Y-96242892D01*
X133601707Y-96354386D01*
X133601711Y-96354389D01*
X133732814Y-96441990D01*
X133732827Y-96441997D01*
X133878498Y-96502335D01*
X133878503Y-96502337D01*
X134033153Y-96533099D01*
X134033156Y-96533100D01*
X134033158Y-96533100D01*
X134099081Y-96533100D01*
X134166120Y-96552785D01*
X134186762Y-96569419D01*
X138190686Y-100573343D01*
X139672881Y-102055538D01*
X140969363Y-103352019D01*
X141002848Y-103413342D01*
X140997864Y-103483034D01*
X140955992Y-103538967D01*
X140890528Y-103563384D01*
X140881682Y-103563700D01*
X136906595Y-103563700D01*
X136906579Y-103563699D01*
X136898983Y-103563699D01*
X136760617Y-103563699D01*
X136655209Y-103591942D01*
X136655208Y-103591943D01*
X136626964Y-103599512D01*
X136557782Y-103639454D01*
X136507136Y-103668694D01*
X136507133Y-103668696D01*
X136435953Y-103739877D01*
X136409295Y-103766535D01*
X136409293Y-103766537D01*
X136117297Y-104058534D01*
X135831250Y-104344581D01*
X135769927Y-104378066D01*
X135743569Y-104380900D01*
X135658755Y-104380900D01*
X135504110Y-104411661D01*
X135504098Y-104411664D01*
X135358427Y-104472002D01*
X135358414Y-104472009D01*
X135227311Y-104559610D01*
X135227307Y-104559613D01*
X135115813Y-104671107D01*
X135115810Y-104671111D01*
X135028209Y-104802214D01*
X135028202Y-104802227D01*
X134967864Y-104947898D01*
X134967861Y-104947910D01*
X134937100Y-105102553D01*
X134937100Y-105260246D01*
X134967861Y-105414889D01*
X134967864Y-105414901D01*
X135028202Y-105560572D01*
X135028209Y-105560585D01*
X135115810Y-105691688D01*
X135115813Y-105691692D01*
X135190940Y-105766819D01*
X135224425Y-105828142D01*
X135219441Y-105897834D01*
X135190940Y-105942181D01*
X135166613Y-105966507D01*
X135166610Y-105966511D01*
X135079009Y-106097614D01*
X135079002Y-106097627D01*
X135018664Y-106243298D01*
X135018661Y-106243310D01*
X134987900Y-106397953D01*
X134987900Y-106482769D01*
X134968215Y-106549808D01*
X134951581Y-106570450D01*
X134489450Y-107032581D01*
X134428127Y-107066066D01*
X134401769Y-107068900D01*
X130796082Y-107068900D01*
X130729043Y-107049215D01*
X130683288Y-106996411D01*
X130679040Y-106985854D01*
X130639261Y-106872170D01*
X130545571Y-106723065D01*
X130545566Y-106723059D01*
X130421040Y-106598533D01*
X130421034Y-106598528D01*
X130271929Y-106504838D01*
X130159262Y-106465415D01*
X130105700Y-106446673D01*
X130105697Y-106446672D01*
X130105690Y-106446670D01*
X130099637Y-106445288D01*
X130038662Y-106411173D01*
X130005811Y-106349509D01*
X130011513Y-106279872D01*
X130053958Y-106224373D01*
X130099646Y-106203510D01*
X130105694Y-106202129D01*
X130105695Y-106202128D01*
X130105700Y-106202128D01*
X130271926Y-106143963D01*
X130271925Y-106143963D01*
X130271929Y-106143962D01*
X130421034Y-106050272D01*
X130421035Y-106050271D01*
X130421040Y-106050268D01*
X130545567Y-105925741D01*
X130553036Y-105913854D01*
X130639261Y-105776630D01*
X130664256Y-105705198D01*
X130697427Y-105610401D01*
X130697828Y-105606847D01*
X130703363Y-105557717D01*
X130712200Y-105479289D01*
X130712200Y-104629513D01*
X130700864Y-104528901D01*
X130697428Y-104498406D01*
X130697427Y-104498404D01*
X130697427Y-104498401D01*
X130643752Y-104345006D01*
X130639261Y-104332171D01*
X130545571Y-104183066D01*
X130545566Y-104183060D01*
X130421040Y-104058534D01*
X130421034Y-104058529D01*
X130271929Y-103964839D01*
X130172190Y-103929940D01*
X130105700Y-103906674D01*
X130105696Y-103906673D01*
X130099636Y-103905290D01*
X130038659Y-103871177D01*
X130005805Y-103809514D01*
X130011504Y-103739877D01*
X130053947Y-103684376D01*
X130099636Y-103663510D01*
X130105687Y-103662127D01*
X130105700Y-103662126D01*
X130271926Y-103603961D01*
X130271925Y-103603961D01*
X130271929Y-103603960D01*
X130421034Y-103510270D01*
X130421035Y-103510269D01*
X130421040Y-103510266D01*
X130545567Y-103385739D01*
X130545571Y-103385733D01*
X130639261Y-103236628D01*
X130655786Y-103189401D01*
X130697427Y-103070399D01*
X130712200Y-102939287D01*
X130712200Y-102089511D01*
X130700384Y-101984644D01*
X130697428Y-101958404D01*
X130697427Y-101958402D01*
X130697427Y-101958399D01*
X130643754Y-101805009D01*
X130639261Y-101792169D01*
X130545571Y-101643064D01*
X130545566Y-101643058D01*
X130421040Y-101518532D01*
X130421034Y-101518527D01*
X130271929Y-101424837D01*
X130159262Y-101385414D01*
X130105700Y-101366672D01*
X130105697Y-101366671D01*
X130105690Y-101366669D01*
X130099637Y-101365287D01*
X130038662Y-101331172D01*
X130005811Y-101269508D01*
X130011513Y-101199871D01*
X130053958Y-101144372D01*
X130099646Y-101123509D01*
X130105694Y-101122128D01*
X130105695Y-101122127D01*
X130105700Y-101122127D01*
X130271926Y-101063962D01*
X130271925Y-101063962D01*
X130271929Y-101063961D01*
X130421034Y-100970271D01*
X130421035Y-100970270D01*
X130421040Y-100970267D01*
X130545567Y-100845740D01*
X130545571Y-100845734D01*
X130639261Y-100696629D01*
X130648559Y-100670057D01*
X130697427Y-100530400D01*
X130700180Y-100505972D01*
X130704380Y-100468689D01*
X130712200Y-100399288D01*
X130712200Y-99549512D01*
X130699624Y-99437900D01*
X130697428Y-99418405D01*
X130697427Y-99418403D01*
X130697427Y-99418400D01*
X130658024Y-99305792D01*
X130639261Y-99252170D01*
X130545571Y-99103065D01*
X130545566Y-99103059D01*
X130421040Y-98978533D01*
X130421034Y-98978528D01*
X130271929Y-98884838D01*
X130166340Y-98847892D01*
X130105700Y-98826673D01*
X130105696Y-98826672D01*
X130099640Y-98825290D01*
X130038664Y-98791178D01*
X130005809Y-98729515D01*
X130011507Y-98659878D01*
X130053950Y-98604376D01*
X130099640Y-98583510D01*
X130105687Y-98582128D01*
X130105700Y-98582127D01*
X130271926Y-98523962D01*
X130271925Y-98523962D01*
X130271929Y-98523961D01*
X130421034Y-98430271D01*
X130421035Y-98430270D01*
X130421040Y-98430267D01*
X130545567Y-98305740D01*
X130565862Y-98273441D01*
X130639261Y-98156629D01*
X130657718Y-98103882D01*
X130697427Y-97990400D01*
X130698160Y-97983900D01*
X130708060Y-97896032D01*
X130712200Y-97859288D01*
X130712200Y-97009512D01*
X130701168Y-96911598D01*
X130697428Y-96878405D01*
X130697427Y-96878403D01*
X130697427Y-96878400D01*
X130655565Y-96758765D01*
X130639261Y-96712170D01*
X130545571Y-96563065D01*
X130545566Y-96563059D01*
X130421040Y-96438533D01*
X130421034Y-96438528D01*
X130271929Y-96344838D01*
X130172190Y-96309939D01*
X130105700Y-96286673D01*
X130105696Y-96286672D01*
X130099640Y-96285290D01*
X130038664Y-96251178D01*
X130005809Y-96189515D01*
X130011507Y-96119878D01*
X130053950Y-96064376D01*
X130099640Y-96043510D01*
X130105687Y-96042128D01*
X130105700Y-96042127D01*
X130271926Y-95983962D01*
X130271925Y-95983962D01*
X130271929Y-95983961D01*
X130421034Y-95890271D01*
X130421035Y-95890270D01*
X130421040Y-95890267D01*
X130545567Y-95765740D01*
X130545571Y-95765734D01*
X130639261Y-95616629D01*
X130655309Y-95570766D01*
X130697427Y-95450400D01*
X130699681Y-95430400D01*
X130709151Y-95346347D01*
X130712200Y-95319288D01*
X130712200Y-94469512D01*
X130701204Y-94371918D01*
X130697428Y-94338405D01*
X130697427Y-94338403D01*
X130697427Y-94338400D01*
X130655244Y-94217849D01*
X130639261Y-94172170D01*
X130545571Y-94023065D01*
X130545566Y-94023059D01*
X130421040Y-93898533D01*
X130421032Y-93898528D01*
X130304532Y-93825325D01*
X130258243Y-93772993D01*
X130247595Y-93703940D01*
X130275970Y-93640091D01*
X130282817Y-93632660D01*
X130288789Y-93626689D01*
X130376394Y-93495579D01*
X130436737Y-93349897D01*
X130467500Y-93195242D01*
X130467500Y-93037558D01*
X130467500Y-93037555D01*
X130467499Y-93037553D01*
X130443469Y-92916746D01*
X130436737Y-92882903D01*
X130436735Y-92882898D01*
X130376397Y-92737227D01*
X130376390Y-92737214D01*
X130288789Y-92606111D01*
X130288786Y-92606107D01*
X130177292Y-92494613D01*
X130177288Y-92494610D01*
X130046185Y-92407009D01*
X130046172Y-92407002D01*
X129900501Y-92346664D01*
X129900489Y-92346661D01*
X129745845Y-92315900D01*
X129745842Y-92315900D01*
X129588158Y-92315900D01*
X129588155Y-92315900D01*
X129433510Y-92346661D01*
X129433498Y-92346664D01*
X129282192Y-92409337D01*
X129281658Y-92408048D01*
X129220146Y-92420844D01*
X129154906Y-92395833D01*
X129113546Y-92339520D01*
X129109196Y-92269786D01*
X129110370Y-92265051D01*
X129134572Y-92175032D01*
X129134576Y-92175015D01*
X129134577Y-92175013D01*
X129187201Y-91836422D01*
X129202867Y-91494123D01*
X129181390Y-91152140D01*
X129123022Y-90814491D01*
X129028449Y-90485143D01*
X129026301Y-90479890D01*
X128957069Y-90310541D01*
X128898783Y-90167967D01*
X128762523Y-89916479D01*
X128747894Y-89848160D01*
X128772525Y-89782776D01*
X128773928Y-89780949D01*
X128794489Y-89754698D01*
X129210532Y-89223513D01*
X129213413Y-89219973D01*
X129691155Y-88654902D01*
X130477900Y-88654902D01*
X130477900Y-88891097D01*
X130514846Y-89124368D01*
X130587833Y-89348996D01*
X130651775Y-89474488D01*
X130695057Y-89559433D01*
X130833883Y-89750510D01*
X131000890Y-89917517D01*
X131191967Y-90056343D01*
X131244836Y-90083281D01*
X131402403Y-90163566D01*
X131402405Y-90163566D01*
X131402408Y-90163568D01*
X131484982Y-90190398D01*
X131627031Y-90236553D01*
X131860303Y-90273500D01*
X131860308Y-90273500D01*
X132096497Y-90273500D01*
X132329768Y-90236553D01*
X132349905Y-90230010D01*
X132554392Y-90163568D01*
X132764833Y-90056343D01*
X132955910Y-89917517D01*
X133122917Y-89750510D01*
X133261743Y-89559433D01*
X133368968Y-89348992D01*
X133441953Y-89124368D01*
X133456336Y-89033559D01*
X133478900Y-88891097D01*
X133478900Y-88654902D01*
X133441953Y-88421631D01*
X133404219Y-88305500D01*
X133392938Y-88270779D01*
X134634800Y-88270779D01*
X134634800Y-88424200D01*
X135384800Y-88424200D01*
X135384800Y-88924200D01*
X134634800Y-88924200D01*
X134634800Y-89077620D01*
X134675148Y-89280466D01*
X134675150Y-89280474D01*
X134754300Y-89471558D01*
X134754305Y-89471568D01*
X134869210Y-89643535D01*
X134869213Y-89643539D01*
X135015460Y-89789786D01*
X135015464Y-89789789D01*
X135187431Y-89904694D01*
X135187441Y-89904699D01*
X135378523Y-89983848D01*
X135378525Y-89983849D01*
X135434800Y-89995042D01*
X135434800Y-89141188D01*
X135444740Y-89158405D01*
X135500595Y-89214260D01*
X135569004Y-89253756D01*
X135645304Y-89274200D01*
X135724296Y-89274200D01*
X135800596Y-89253756D01*
X135869005Y-89214260D01*
X135924860Y-89158405D01*
X135934800Y-89141188D01*
X135934800Y-89995042D01*
X135991074Y-89983849D01*
X135991076Y-89983848D01*
X136182158Y-89904699D01*
X136182168Y-89904694D01*
X136354135Y-89789789D01*
X136354139Y-89789786D01*
X136439605Y-89704319D01*
X136500928Y-89670833D01*
X136570619Y-89675817D01*
X136614968Y-89704318D01*
X136619922Y-89709272D01*
X136765404Y-89797219D01*
X136765403Y-89797219D01*
X136927694Y-89847790D01*
X136927693Y-89847790D01*
X136998208Y-89854198D01*
X136998226Y-89854199D01*
X137004799Y-89854198D01*
X137004800Y-89854198D01*
X137004800Y-89004200D01*
X136348800Y-89004200D01*
X136281761Y-88984515D01*
X136259990Y-88959390D01*
X136224800Y-88924200D01*
X135984800Y-88924200D01*
X135984800Y-88424200D01*
X136740800Y-88424200D01*
X136807839Y-88443885D01*
X136829609Y-88469009D01*
X136864800Y-88504200D01*
X137004800Y-88504200D01*
X137004800Y-87654200D01*
X137004799Y-87654199D01*
X136998236Y-87654200D01*
X136998217Y-87654201D01*
X136927697Y-87660608D01*
X136927692Y-87660609D01*
X136765401Y-87711181D01*
X136765399Y-87711182D01*
X136681056Y-87762169D01*
X136613501Y-87780005D01*
X136547028Y-87758487D01*
X136513803Y-87724941D01*
X136500385Y-87704859D01*
X136354139Y-87558613D01*
X136354135Y-87558610D01*
X136182168Y-87443705D01*
X136182158Y-87443700D01*
X135991072Y-87364549D01*
X135991067Y-87364547D01*
X135934800Y-87353355D01*
X135934800Y-88207211D01*
X135924860Y-88189995D01*
X135869005Y-88134140D01*
X135800596Y-88094644D01*
X135724296Y-88074200D01*
X135645304Y-88074200D01*
X135569004Y-88094644D01*
X135500595Y-88134140D01*
X135444740Y-88189995D01*
X135434800Y-88207211D01*
X135434800Y-87353356D01*
X135434799Y-87353355D01*
X135378532Y-87364547D01*
X135378527Y-87364549D01*
X135187441Y-87443700D01*
X135187431Y-87443705D01*
X135015464Y-87558610D01*
X135015460Y-87558613D01*
X134869213Y-87704860D01*
X134869210Y-87704864D01*
X134754305Y-87876831D01*
X134754300Y-87876841D01*
X134675150Y-88067925D01*
X134675148Y-88067933D01*
X134634800Y-88270779D01*
X133392938Y-88270779D01*
X133368968Y-88197008D01*
X133261743Y-87986567D01*
X133122917Y-87795490D01*
X132955910Y-87628483D01*
X132764833Y-87489657D01*
X132554396Y-87382433D01*
X132329768Y-87309446D01*
X132096497Y-87272500D01*
X132096492Y-87272500D01*
X131860308Y-87272500D01*
X131860303Y-87272500D01*
X131627031Y-87309446D01*
X131402403Y-87382433D01*
X131191966Y-87489657D01*
X131082950Y-87568862D01*
X131000890Y-87628483D01*
X131000888Y-87628485D01*
X131000887Y-87628485D01*
X130833885Y-87795487D01*
X130833885Y-87795488D01*
X130833883Y-87795490D01*
X130809872Y-87828538D01*
X130695057Y-87986566D01*
X130587833Y-88197003D01*
X130514846Y-88421631D01*
X130477900Y-88654902D01*
X129691155Y-88654902D01*
X129816324Y-88506853D01*
X129819310Y-88503453D01*
X130448476Y-87813380D01*
X130451591Y-87810089D01*
X131106132Y-87144030D01*
X131109351Y-87140874D01*
X131788351Y-86499762D01*
X131791726Y-86496692D01*
X132494201Y-85881454D01*
X132497736Y-85878475D01*
X132610583Y-85786869D01*
X133222689Y-85289978D01*
X133226280Y-85287173D01*
X133972776Y-84726178D01*
X133976464Y-84723512D01*
X134440069Y-84401522D01*
X134506355Y-84379450D01*
X134574057Y-84396719D01*
X134621676Y-84447849D01*
X134634800Y-84503370D01*
X134634800Y-84624200D01*
X135384800Y-84624200D01*
X135384800Y-85124200D01*
X134634800Y-85124200D01*
X134634800Y-85277620D01*
X134675148Y-85480466D01*
X134675150Y-85480474D01*
X134754300Y-85671558D01*
X134754305Y-85671568D01*
X134869210Y-85843535D01*
X134869213Y-85843539D01*
X135015460Y-85989786D01*
X135015464Y-85989789D01*
X135187431Y-86104694D01*
X135187441Y-86104699D01*
X135378523Y-86183848D01*
X135378525Y-86183849D01*
X135434800Y-86195042D01*
X135434800Y-85341188D01*
X135444740Y-85358405D01*
X135500595Y-85414260D01*
X135569004Y-85453756D01*
X135645304Y-85474200D01*
X135724296Y-85474200D01*
X135800596Y-85453756D01*
X135869005Y-85414260D01*
X135924860Y-85358405D01*
X135934800Y-85341188D01*
X135934800Y-86195042D01*
X135991074Y-86183849D01*
X135991076Y-86183848D01*
X136182158Y-86104699D01*
X136182168Y-86104694D01*
X136354135Y-85989789D01*
X136354139Y-85989786D01*
X136500386Y-85843539D01*
X136500389Y-85843535D01*
X136615294Y-85671568D01*
X136615299Y-85671558D01*
X136694449Y-85480474D01*
X136694451Y-85480466D01*
X136734799Y-85277620D01*
X136734800Y-85277617D01*
X136734800Y-85124200D01*
X135984800Y-85124200D01*
X135984800Y-84624200D01*
X136734800Y-84624200D01*
X136734800Y-84470783D01*
X136734799Y-84470779D01*
X143274800Y-84470779D01*
X143274800Y-84624200D01*
X144024800Y-84624200D01*
X144024800Y-85124200D01*
X143274800Y-85124200D01*
X143274800Y-85277620D01*
X143315148Y-85480466D01*
X143315150Y-85480474D01*
X143394300Y-85671558D01*
X143394305Y-85671568D01*
X143509210Y-85843535D01*
X143509213Y-85843539D01*
X143655460Y-85989786D01*
X143655464Y-85989789D01*
X143827431Y-86104694D01*
X143827441Y-86104699D01*
X144018523Y-86183848D01*
X144018525Y-86183849D01*
X144074800Y-86195042D01*
X144074800Y-85341188D01*
X144084740Y-85358405D01*
X144140595Y-85414260D01*
X144209004Y-85453756D01*
X144285304Y-85474200D01*
X144364296Y-85474200D01*
X144440596Y-85453756D01*
X144509005Y-85414260D01*
X144564860Y-85358405D01*
X144574800Y-85341188D01*
X144574800Y-86195042D01*
X144631074Y-86183849D01*
X144631076Y-86183848D01*
X144822158Y-86104699D01*
X144822168Y-86104694D01*
X144994135Y-85989789D01*
X144994139Y-85989786D01*
X145140386Y-85843539D01*
X145140389Y-85843535D01*
X145255294Y-85671568D01*
X145255299Y-85671558D01*
X145334449Y-85480474D01*
X145334451Y-85480466D01*
X145374799Y-85277620D01*
X145374800Y-85277617D01*
X145374800Y-85124200D01*
X144624800Y-85124200D01*
X144624800Y-84624200D01*
X145374800Y-84624200D01*
X145374800Y-84470783D01*
X145374799Y-84470779D01*
X145334451Y-84267933D01*
X145334449Y-84267925D01*
X145255299Y-84076841D01*
X145255294Y-84076831D01*
X145140389Y-83904864D01*
X145140386Y-83904860D01*
X144994139Y-83758613D01*
X144994135Y-83758610D01*
X144822168Y-83643705D01*
X144822158Y-83643700D01*
X144631072Y-83564549D01*
X144631067Y-83564547D01*
X144574800Y-83553355D01*
X144574800Y-84407211D01*
X144564860Y-84389995D01*
X144509005Y-84334140D01*
X144440596Y-84294644D01*
X144364296Y-84274200D01*
X144285304Y-84274200D01*
X144209004Y-84294644D01*
X144140595Y-84334140D01*
X144084740Y-84389995D01*
X144074800Y-84407211D01*
X144074800Y-83553356D01*
X144074799Y-83553355D01*
X144018532Y-83564547D01*
X144018527Y-83564549D01*
X143827441Y-83643700D01*
X143827431Y-83643705D01*
X143655464Y-83758610D01*
X143655460Y-83758613D01*
X143509213Y-83904860D01*
X143509210Y-83904864D01*
X143394305Y-84076831D01*
X143394300Y-84076841D01*
X143315150Y-84267925D01*
X143315148Y-84267933D01*
X143274800Y-84470779D01*
X136734799Y-84470779D01*
X136694451Y-84267933D01*
X136694449Y-84267925D01*
X136615299Y-84076841D01*
X136615294Y-84076831D01*
X136500389Y-83904864D01*
X136500386Y-83904860D01*
X136354139Y-83758613D01*
X136354135Y-83758610D01*
X136182168Y-83643705D01*
X136182158Y-83643700D01*
X136071941Y-83598046D01*
X136061297Y-83589468D01*
X136048340Y-83585109D01*
X136034624Y-83567973D01*
X136017537Y-83554204D01*
X136013220Y-83541233D01*
X136004678Y-83530562D01*
X136002403Y-83508733D01*
X135995473Y-83487910D01*
X135998853Y-83474664D01*
X135997437Y-83461068D01*
X136007325Y-83441474D01*
X136012753Y-83420211D01*
X136023425Y-83409573D01*
X136028917Y-83398692D01*
X136056469Y-83376637D01*
X136266779Y-83252785D01*
X136271082Y-83250251D01*
X136334005Y-83233100D01*
X148608760Y-83233100D01*
X148675799Y-83252785D01*
G37*
G04 #@! TD.AperFunction*
G04 #@! TA.AperFunction,Conductor*
G36*
X141899351Y-90638196D02*
G01*
X141924229Y-90644862D01*
X141924230Y-90644863D01*
X141936326Y-90648104D01*
X142018416Y-90670100D01*
X142018417Y-90670100D01*
X142101653Y-90670100D01*
X142168692Y-90689785D01*
X142214447Y-90742589D01*
X142224391Y-90811747D01*
X142215453Y-90843350D01*
X142214518Y-90845510D01*
X142169547Y-91000297D01*
X142169546Y-91000303D01*
X142166701Y-91036457D01*
X142166701Y-91640322D01*
X142166702Y-91640347D01*
X142169547Y-91676498D01*
X142214518Y-91831289D01*
X142214521Y-91831296D01*
X142296570Y-91970036D01*
X142296579Y-91970048D01*
X142410552Y-92084021D01*
X142410556Y-92084024D01*
X142410558Y-92084026D01*
X142410561Y-92084027D01*
X142410564Y-92084030D01*
X142530821Y-92155149D01*
X142578505Y-92206217D01*
X142591701Y-92261881D01*
X142591701Y-96817885D01*
X142572016Y-96884924D01*
X142519212Y-96930679D01*
X142450054Y-96940623D01*
X142386498Y-96911598D01*
X142364599Y-96886776D01*
X142279064Y-96758765D01*
X142279061Y-96758761D01*
X140511419Y-94991119D01*
X140477934Y-94929796D01*
X140475100Y-94903438D01*
X140475100Y-92026140D01*
X140494785Y-91959101D01*
X140511419Y-91938459D01*
X140773382Y-91676496D01*
X141087789Y-91362089D01*
X141087789Y-91362088D01*
X141779585Y-90670290D01*
X141790115Y-90664540D01*
X141797758Y-90655284D01*
X141820217Y-90648104D01*
X141840906Y-90636807D01*
X141854540Y-90637131D01*
X141864310Y-90634008D01*
X141899351Y-90638196D01*
G37*
G04 #@! TD.AperFunction*
M02*
