M48
; DRILL file {KiCad 8.0.8} date 2025-02-05T12:42:29+0300
; FORMAT={3:3/ absolute / metric / suppress leading zeros}
; #@! TF.CreationDate,2025-02-05T12:42:29+03:00
; #@! TF.GenerationSoftware,Kicad,Pcbnew,8.0.8
; #@! TF.FileFunction,Plated,1,2,PTH
FMAT,2
METRIC,TZ
; #@! TA.AperFunction,Plated,PTH,ViaDrill
T1C0.400
; #@! TA.AperFunction,Plated,PTH,ComponentDrill
T2C0.600
; #@! TA.AperFunction,Plated,PTH,ComponentDrill
T3C0.800
; #@! TA.AperFunction,Plated,PTH,ViaDrill
T4C1.000
; #@! TA.AperFunction,Plated,PTH,ComponentDrill
T5C1.000
; #@! TA.AperFunction,Plated,PTH,ComponentDrill
T6C1.100
; #@! TA.AperFunction,Plated,PTH,ComponentDrill
T7C1.200
; #@! TA.AperFunction,Plated,PTH,ComponentDrill
T8C1.300
; #@! TA.AperFunction,Plated,PTH,ComponentDrill
T9C1.500
; #@! TA.AperFunction,Plated,PTH,ComponentDrill
T10C1.800
%
G90
G05
T1
X127279Y-110363
X128016Y-99898
X128067Y-102286
X128346Y-105486
X134010Y-111430
X134468Y-100228
X139192Y-119101
X139192Y-120421
X142138Y-123774
X143104Y-102794
X145745Y-105486
X145796Y-107772
X145821Y-103251
X148133Y-123571
X151181Y-106197
X158725Y-120345
X166675Y-109550
X166827Y-103759
X166827Y-104775
X166827Y-105842
X167691Y-109550
X168707Y-109550
X169774Y-109550
T2
X151816Y-98385
X153016Y-93385
T3
X153111Y-103189
X153111Y-105689
X155296Y-98730
X158496Y-93193
X166116Y-98476
X169916Y-98476
T4
X140564Y-95834
T5
X150138Y-120371
X150138Y-122911
X152678Y-120371
X152678Y-122911
X155218Y-120371
X155218Y-122911
T6
X147598Y-125451
X150138Y-125451
X152678Y-125451
X155218Y-125451
T7
X162611Y-93828
X162611Y-98908
T8
X155313Y-115265
X157023Y-110566
T9
X148314Y-87046
X153314Y-87046
X158314Y-87046
T10
X131978Y-88773
X131978Y-121336
X164490Y-121336
X164541Y-88773
T2
G00X135685Y-85174
M15
G01X135685Y-84574
M16
G05
G00X135685Y-88974
M15
G01X135685Y-88374
M16
G05
G00X144325Y-85174
M15
G01X144325Y-84574
M16
G05
G00X144325Y-88974
M15
G01X144325Y-88374
M16
G05
M30
